<svg width="295" height="564" viewBox="0 0 295 564" fill="none" xmlns="http://www.w3.org/2000/svg">
<path d="M287.22 3.08934C287.288 3.91354 287.417 5.28718 287.592 6.93557L277.323 6.93557C280.422 4.46298 284.554 1.86831 287.197 3.08934M290.235 10.7513C290.547 14.1091 291.489 22.6563 293.068 24.1216L293.068 29.2804C291.2 27.3268 289.726 18.108 288.823 10.7513L290.235 10.7513ZM290.235 552.583L288.876 552.583C289.78 545.287 291.23 536.374 293.068 534.451L293.068 539.213C291.489 540.678 290.547 549.225 290.235 552.583M287.197 560.642C284.387 561.924 279.951 558.993 276.807 556.399L287.607 556.399C287.417 558.23 287.273 559.726 287.197 560.642M0.926639 539.274L0.926639 531.612C2.27862 541.532 4.86106 548.737 6.55483 552.583L3.7977 552.583C3.48629 549.225 2.54446 540.678 0.95702 539.213M3.79771 10.7513L6.55484 10.7513C4.86106 14.5365 2.27863 21.8016 0.949431 31.753L0.949431 24.1216C2.53687 22.6563 3.4787 14.1091 3.79011 10.7513M6.98777 13.3155C7.51186 12.0944 7.9372 11.2397 8.20304 10.7513L283.156 10.7513C280.269 12.3643 277.359 13.2209 274.445 13.3155L6.98777 13.3155ZM285.8 552.583C282.034 550.032 278.225 548.655 274.407 548.462L6.34216 548.462C4.31419 543.425 1.51908 534.42 0.949425 522.576L0.949431 40.7581C1.4963 28.9141 4.32179 19.909 6.34976 14.8418L274.467 14.8418C278.286 14.6607 282.095 13.2931 285.86 10.7513L288.071 10.7513C289.043 18.9932 290.79 30.4404 293.167 32.4246L293.167 531.306C290.828 533.26 289.096 544.371 288.116 552.674L285.8 552.583ZM8.19544 552.583C7.93719 552.064 7.51185 551.209 6.98017 549.988L274.429 549.988C277.344 550.094 280.254 550.961 283.141 552.583L8.19544 552.583ZM273.776 6.93557L3.09893 6.93556L3.03817 8.2787C2.77233 11.6671 1.80012 20.489 0.516494 20.489L6.4813e-06 20.489L2.52634e-07 542.815L0.47851 542.815C1.76213 542.815 2.75713 551.636 3.00018 555.025L3.09892 556.368L273.374 556.368C275.31 558.352 283.308 565.923 287.554 563.542L287.79 563.542L287.858 562.626C287.858 562.626 288.078 560.001 288.466 556.521L290.957 556.521L291.063 555.177C291.322 551.759 292.286 542.967 293.585 542.967L294.056 542.967L294.056 20.6416L293.585 20.6416C292.294 20.6416 291.306 11.7892 291.063 8.43134L290.957 7.0882L288.42 7.0882C288.063 3.79143 287.866 1.44096 287.858 1.37991L287.79 0.464129L287.554 0.464129C283.544 -1.79477 276.245 4.7988 273.776 7.21033" fill="white"/>
</svg>
