<svg width="70" height="28" viewBox="0 0 70 28" fill="none" xmlns="http://www.w3.org/2000/svg">
<path opacity="0.8" d="M16.6855 25.5422H53.2345C53.2498 24.4346 53.7396 23.3763 54.5995 22.5929C55.3848 21.9021 56.4023 21.4716 57.4886 21.3707C58.5749 21.2698 59.6669 21.5042 60.5892 22.0364L67.8827 16.4716V10.9811L60.5892 5.41635C59.6692 5.95501 58.5756 6.1933 57.4874 6.09221C56.3993 5.99111 55.3811 5.55662 54.5995 4.85988C54.1664 4.46517 53.8229 3.99663 53.5887 3.48103C53.3545 2.96543 53.2342 2.41287 53.2345 1.85492H16.7058C16.683 2.96467 16.1861 4.02263 15.3205 4.80423C14.5403 5.49649 13.526 5.9282 12.4423 6.02923C11.3586 6.13025 10.2692 5.89465 9.35119 5.36071L2.0373 10.9811V16.4345L9.35119 21.9993C10.2704 21.4686 11.359 21.2349 12.4417 21.3358C13.5245 21.4368 14.5385 21.8665 15.3205 22.5558C16.1822 23.3381 16.6724 24.3971 16.6855 25.5051M55.6793 27.36H14.2611L14.5667 26.21C14.6877 25.7994 14.6874 25.3669 14.5658 24.9565C14.4441 24.546 14.2055 24.1722 13.874 23.8728C13.3608 23.4195 12.6739 23.166 11.9589 23.166C11.2439 23.166 10.5571 23.4195 10.0439 23.8728L9.39194 24.4663L0 17.2878V10.1093L9.39194 2.89367L10.0439 3.50579C10.5618 3.95058 11.2469 4.19833 11.9589 4.19833C12.6709 4.19833 13.356 3.95058 13.874 3.50579C14.2055 3.20247 14.4438 2.82535 14.5654 2.41202C14.6869 1.99869 14.6874 1.56358 14.5667 1.15005L14.2611 0H55.6793L55.3533 1.15005C55.2327 1.56358 55.2331 1.99869 55.3546 2.41202C55.4762 2.82535 55.7145 3.20247 56.046 3.50579C56.564 3.95058 57.2491 4.19833 57.9611 4.19833C58.6731 4.19833 59.3582 3.95058 59.8761 3.50579L60.5484 2.89367L69.92 10.1093V17.2878L60.5484 24.5034L59.8761 23.9099C59.3629 23.4566 58.6761 23.2031 57.9611 23.2031C57.2461 23.2031 56.5592 23.4566 56.046 23.9099C55.7145 24.2093 55.4759 24.5831 55.3542 24.9936C55.2326 25.404 55.2323 25.8365 55.3533 26.247L55.6793 27.36Z" fill="white"/>
<path d="M23.6185 7.581C22.9169 7.9914 22.3206 8.322 22.3089 8.322C22.1452 8.322 21.4788 8.8692 21.5489 8.949C21.5957 9.006 21.5723 9.006 21.4905 8.9718C21.3735 8.892 20.0523 9.5532 19.3157 10.0548L19 10.2714V13.6914L19.0117 17.1114L19.6197 17.4876C19.9588 17.6928 20.4732 18.0006 20.7772 18.1602C21.0695 18.3198 21.5255 18.582 21.7945 18.7416C22.0517 18.9012 22.3206 19.038 22.3908 19.038C22.4492 19.038 22.5077 19.0836 22.5077 19.152C22.5077 19.209 22.5545 19.266 22.6129 19.266C22.6714 19.266 23.2092 19.551 23.8055 19.893C24.4135 20.235 24.9865 20.52 25.08 20.52C25.1735 20.52 25.7465 20.235 26.3545 19.893C26.9508 19.551 27.4652 19.266 27.4886 19.266C27.512 19.266 27.816 19.0836 28.1551 18.8784C28.5058 18.6618 29.0437 18.3426 29.3594 18.1716C29.6751 18.0006 30.2129 17.6928 30.552 17.4876L31.16 17.1V13.68V10.2486L30.4935 9.8496C28.8449 8.8692 28.2369 8.55 28.0615 8.55C27.9563 8.55 27.9095 8.493 27.9446 8.436C27.9797 8.3676 27.968 8.322 27.9212 8.322C27.8628 8.322 27.2431 7.9914 26.5415 7.581C25.84 7.1706 25.1735 6.84 25.08 6.84C24.9865 6.84 24.32 7.1706 23.6185 7.581ZM24.8462 8.322C24.8462 8.949 24.7994 9.2568 24.7058 9.291C24.5538 9.348 23.7471 9.4734 21.7477 9.747C20.2394 9.9522 20.2628 9.9636 20.8123 9.6558C21.0695 9.5076 21.8062 9.0858 22.4492 8.721C23.0923 8.3562 23.8055 7.9572 24.0277 7.8432C24.2498 7.7178 24.4837 7.5696 24.5538 7.5126C24.7877 7.2846 24.8462 7.4442 24.8462 8.322ZM25.7815 7.638C25.9452 7.7634 26.1089 7.866 26.1674 7.866C26.2142 7.866 26.4597 7.9914 26.7286 8.151C26.9858 8.3106 27.2548 8.4132 27.3366 8.3676C27.4185 8.322 27.4418 8.3334 27.3834 8.379C27.3366 8.436 27.8628 8.8008 28.5526 9.1998C29.2425 9.5988 29.7569 9.918 29.6985 9.918C29.5698 9.9066 27.7225 9.6558 26.4246 9.462C25.9803 9.405 25.536 9.3252 25.4658 9.291C25.3022 9.234 25.2437 7.41 25.4074 7.41C25.4542 7.41 25.6178 7.5126 25.7815 7.638ZM24.6123 9.8382C24.6123 9.918 24.5655 10.032 24.5071 10.089C24.2265 10.374 22.8702 12.9162 22.9403 13.0302C22.9754 13.0872 22.9637 13.11 22.8935 13.0758C22.8351 13.0416 22.496 13.5204 22.1452 14.136C21.7945 14.7516 21.4788 15.219 21.432 15.1848C21.3385 15.0936 20.7188 13.5432 20.0523 11.7306L19.608 10.5108L20.2745 10.3968C21.1865 10.2144 21.8062 10.1232 22.2154 10.089C22.8702 10.032 24.3083 9.804 24.3668 9.747C24.472 9.633 24.6123 9.69 24.6123 9.8382ZM26.7052 9.918C27.1262 9.9864 27.8745 10.089 28.3538 10.146C28.8332 10.2144 29.5231 10.317 29.8855 10.3854L30.552 10.5108L30.1077 11.7306C29.5698 13.2012 28.8449 15.0366 28.7514 15.1848C28.6812 15.2874 25.5477 9.9864 25.5477 9.7698C25.5477 9.7128 25.6295 9.7014 25.7348 9.7356C25.8517 9.7812 26.2843 9.861 26.7052 9.918ZM25.1969 10.0548C25.1969 10.1232 25.3255 10.3512 25.4892 10.5564C25.6529 10.7616 25.7815 10.9668 25.7815 11.001C25.7815 11.0466 26.0505 11.5482 26.3895 12.1296C27.2431 13.6116 27.3366 13.7712 27.7692 14.535C27.9797 14.9112 28.1902 15.2646 28.2486 15.3216C28.3071 15.39 28.3538 15.4812 28.3538 15.5268C28.3538 15.5724 26.8806 15.618 25.08 15.618C23.2794 15.618 21.8062 15.5724 21.8062 15.5268C21.8062 15.4812 21.8529 15.39 21.9114 15.3216C21.9698 15.2646 22.1803 14.9112 22.3908 14.535C22.8351 13.7484 22.9637 13.5318 24.0043 11.742C24.4252 11.0238 24.8228 10.317 24.8929 10.1802C25.0332 9.9066 25.1969 9.8382 25.1969 10.0548ZM19.9354 12.6312C19.9354 12.711 19.9938 12.7452 20.0757 12.6996C20.1458 12.654 20.1692 12.6654 20.1225 12.7452C20.0874 12.8136 20.2862 13.4634 20.5785 14.193C20.8708 14.9226 21.1046 15.5724 21.1046 15.6294C21.1046 15.7206 19.9471 16.4844 19.6197 16.6098C19.4911 16.6554 19.4677 16.1994 19.4794 14.1246L19.4911 11.571L19.7132 12.027C19.8302 12.2778 19.9354 12.5514 19.9354 12.6312ZM30.6455 16.6098C30.5754 16.6896 29.1606 15.8232 29.1022 15.675C29.0554 15.561 29.336 14.7858 30.3766 12.198L30.6338 11.571L30.6689 14.0676C30.6806 15.4356 30.6689 16.587 30.6455 16.6098ZM28.2369 16.0512C28.2369 16.0968 27.816 16.644 27.3015 17.271C26.7871 17.898 26.0855 18.753 25.7582 19.1748C25.4191 19.5966 25.1151 19.9386 25.08 19.9386C25.0449 19.9386 24.7409 19.5966 24.4018 19.1748C24.0745 18.753 23.3729 17.898 22.8585 17.271C22.344 16.644 21.9231 16.0968 21.9231 16.0512C21.9231 15.96 25.7231 15.8802 27.2782 15.9372C27.8043 15.96 28.2369 16.017 28.2369 16.0512ZM21.7711 16.5642C21.9698 16.8264 22.2738 17.1912 22.4258 17.385C23.8406 19.0608 24.2382 19.5966 23.9809 19.494C23.8289 19.437 23.6652 19.4142 23.6302 19.4484C23.5951 19.4712 23.5834 19.4598 23.6185 19.4142C23.6535 19.38 23.4782 19.2318 23.2443 19.095C22.9988 18.9582 22.0985 18.4452 21.2449 17.955L19.6898 17.0658L20.2511 16.7238C20.5551 16.5414 20.9175 16.3248 21.0462 16.245C21.3618 16.0284 21.3502 16.017 21.7711 16.5642ZM29.6049 16.5414C30.0492 16.8036 30.4117 17.0316 30.4351 17.043C30.4585 17.0544 30.0492 17.3052 29.5465 17.5902C29.032 17.8866 28.5409 18.183 28.4474 18.2628C28.3655 18.3426 28.2252 18.4224 28.1551 18.4338C28.0849 18.4566 27.6289 18.6846 27.1612 18.9582C26.6935 19.2318 26.2025 19.4826 26.0738 19.5396C25.8751 19.608 25.8868 19.5738 26.144 19.3002C26.6702 18.7302 27.056 18.1602 26.9742 18.069C26.9274 18.012 26.9508 18.012 27.0209 18.0462C27.1028 18.0918 27.2431 18.012 27.3366 17.8638C27.4302 17.727 27.6172 17.4876 27.7575 17.3394C27.8978 17.1912 28.1785 16.8378 28.3889 16.5756C28.5877 16.302 28.7748 16.074 28.7865 16.074C28.8098 16.074 29.1723 16.2906 29.6049 16.5414Z" fill="#ECECEC"/>
<path d="M27.9453 9.86539C27.9453 9.94431 28.1426 9.99693 28.3794 9.99693C28.603 9.99693 29.0108 10.0495 29.2607 10.1153C30.0499 10.3258 30.9707 10.3915 30.9707 10.26C30.9707 10.1811 30.7734 10.1285 30.5498 10.1285C30.313 10.1285 29.9052 10.0759 29.6553 10.0101C28.8661 9.79962 27.9453 9.73385 27.9453 9.86539Z" fill="#ECECEC"/>
<path d="M24.8005 11.9305C24.0508 13.3248 23.5772 14.1404 23.4325 14.3245C23.3142 14.4692 23.3142 14.4955 23.4325 14.4561C23.6298 14.3903 25.4714 11.1808 25.3267 11.1808C25.2609 11.1808 25.0373 11.5228 24.8005 11.9305Z" fill="#ECECEC"/>
<path d="M27.249 18.2312C26.4334 19.2835 26.052 19.9807 26.7096 19.2046C27.0911 18.7574 27.683 17.9945 28.0645 17.4815C28.1566 17.3368 28.196 17.2315 28.1303 17.2447C28.0645 17.2447 27.6699 17.6919 27.249 18.2312Z" fill="#ECECEC"/>
</svg>
