<svg width="70" height="28" viewBox="0 0 70 28" fill="none" xmlns="http://www.w3.org/2000/svg">
<path opacity="0.8" d="M16.6855 25.5422H53.2345C53.2498 24.4346 53.7396 23.3763 54.5995 22.5929C55.3848 21.9021 56.4023 21.4716 57.4886 21.3707C58.5749 21.2698 59.6669 21.5042 60.5892 22.0364L67.8827 16.4716V10.9811L60.5892 5.41635C59.6692 5.95501 58.5756 6.1933 57.4874 6.09221C56.3993 5.99111 55.3811 5.55662 54.5995 4.85988C54.1664 4.46517 53.8229 3.99663 53.5887 3.48103C53.3545 2.96543 53.2342 2.41287 53.2345 1.85492H16.7058C16.683 2.96467 16.1861 4.02263 15.3205 4.80423C14.5403 5.49649 13.526 5.9282 12.4423 6.02923C11.3586 6.13025 10.2692 5.89465 9.35119 5.36071L2.0373 10.9811V16.4345L9.35119 21.9993C10.2704 21.4686 11.359 21.2349 12.4417 21.3358C13.5245 21.4368 14.5385 21.8665 15.3205 22.5558C16.1822 23.3381 16.6724 24.3971 16.6855 25.5051M55.6793 27.36H14.2611L14.5667 26.21C14.6877 25.7994 14.6874 25.3669 14.5658 24.9565C14.4441 24.546 14.2055 24.1722 13.874 23.8728C13.3608 23.4195 12.6739 23.166 11.9589 23.166C11.2439 23.166 10.5571 23.4195 10.0439 23.8728L9.39194 24.4663L0 17.2878V10.1093L9.39194 2.89367L10.0439 3.50579C10.5618 3.95058 11.2469 4.19833 11.9589 4.19833C12.6709 4.19833 13.356 3.95058 13.874 3.50579C14.2055 3.20247 14.4438 2.82535 14.5654 2.41202C14.6869 1.99869 14.6874 1.56358 14.5667 1.15005L14.2611 0H55.6793L55.3533 1.15005C55.2327 1.56358 55.2331 1.99869 55.3546 2.41202C55.4762 2.82535 55.7145 3.20247 56.046 3.50579C56.564 3.95058 57.2491 4.19833 57.9611 4.19833C58.6731 4.19833 59.3582 3.95058 59.8761 3.50579L60.5484 2.89367L69.92 10.1093V17.2878L60.5484 24.5034L59.8761 23.9099C59.3629 23.4566 58.6761 23.2031 57.9611 23.2031C57.2461 23.2031 56.5592 23.4566 56.046 23.9099C55.7145 24.2093 55.4759 24.5831 55.3542 24.9936C55.2326 25.404 55.2323 25.8365 55.3533 26.247L55.6793 27.36Z" fill="white"/>
<path d="M23.7354 7.97931C22.6364 8.77464 20.9879 9.43537 19.6317 9.61891C19.0939 9.69232 19.0939 9.69232 19.0238 10.2185C18.9302 10.9159 19.129 13.3998 19.3394 14.2196C19.6902 15.5655 19.7837 15.8224 20.1344 16.5076C20.6839 17.5722 20.9061 17.878 21.7362 18.7346C22.4727 19.5054 23.6068 20.3252 24.1797 20.5087C24.5655 20.6311 25.9451 19.7379 26.9038 18.7468C27.7339 17.878 27.9561 17.5722 28.5056 16.5076C28.8563 15.8224 28.9498 15.5655 29.3006 14.2196C29.511 13.3998 29.7098 10.9159 29.6162 10.2185C29.5461 9.69232 29.5461 9.69232 29.0083 9.61891C27.6521 9.43537 26.1556 8.84805 24.9864 8.04049C24.6357 7.79578 24.3317 7.6 24.3083 7.6C24.2849 7.6 24.0277 7.77131 23.7354 7.97931ZM24.7994 8.40757C25.6061 9.04383 27.161 9.69232 28.4705 9.94927L29.2304 10.1083V11.026C29.2304 13.0694 28.8095 15.0394 28.0379 16.5688C27.5469 17.5599 25.8984 19.2852 24.9981 19.7746L24.3317 20.1417L23.8874 19.897C22.613 19.1995 21.2334 17.7924 20.5904 16.5321C19.8539 15.0883 19.4096 12.996 19.4096 10.9648V10.1083L20.1695 9.94927C21.5257 9.68009 22.9872 9.0683 23.8406 8.40757C24.0628 8.22403 24.2849 8.08944 24.32 8.08944C24.3551 8.08944 24.5772 8.23627 24.7994 8.40757Z" fill="#FCE9CE"/>
</svg>
