<svg width="70" height="28" viewBox="0 0 70 28" fill="none" xmlns="http://www.w3.org/2000/svg">
<path opacity="0.8" d="M16.6855 25.5422H53.2345C53.2498 24.4346 53.7396 23.3763 54.5995 22.5929C55.3848 21.9021 56.4023 21.4716 57.4886 21.3707C58.5749 21.2698 59.6669 21.5042 60.5892 22.0364L67.8827 16.4716V10.9811L60.5892 5.41635C59.6692 5.95501 58.5756 6.1933 57.4874 6.09221C56.3993 5.99111 55.3811 5.55662 54.5995 4.85988C54.1664 4.46517 53.8229 3.99663 53.5887 3.48103C53.3545 2.96543 53.2342 2.41287 53.2345 1.85492H16.7058C16.683 2.96467 16.1861 4.02263 15.3205 4.80423C14.5403 5.49649 13.526 5.9282 12.4423 6.02923C11.3586 6.13025 10.2692 5.89465 9.35119 5.36071L2.0373 10.9811V16.4345L9.35119 21.9993C10.2704 21.4686 11.359 21.2349 12.4417 21.3358C13.5245 21.4368 14.5385 21.8665 15.3205 22.5558C16.1822 23.3381 16.6724 24.3971 16.6855 25.5051M55.6793 27.36H14.2611L14.5667 26.21C14.6877 25.7994 14.6874 25.3669 14.5658 24.9565C14.4441 24.546 14.2055 24.1722 13.874 23.8728C13.3608 23.4195 12.6739 23.166 11.9589 23.166C11.2439 23.166 10.5571 23.4195 10.0439 23.8728L9.39194 24.4663L0 17.2878V10.1093L9.39194 2.89367L10.0439 3.50579C10.5618 3.95058 11.2469 4.19833 11.9589 4.19833C12.6709 4.19833 13.356 3.95058 13.874 3.50579C14.2055 3.20247 14.4438 2.82535 14.5654 2.41202C14.6869 1.99869 14.6874 1.56358 14.5667 1.15005L14.2611 0H55.6793L55.3533 1.15005C55.2327 1.56358 55.2331 1.99869 55.3546 2.41202C55.4762 2.82535 55.7145 3.20247 56.046 3.50579C56.564 3.95058 57.2491 4.19833 57.9611 4.19833C58.6731 4.19833 59.3582 3.95058 59.8761 3.50579L60.5484 2.89367L69.92 10.1093V17.2878L60.5484 24.5034L59.8761 23.9099C59.3629 23.4566 58.6761 23.2031 57.9611 23.2031C57.2461 23.2031 56.5592 23.4566 56.046 23.9099C55.7145 24.2093 55.4759 24.5831 55.3542 24.9936C55.2326 25.404 55.2323 25.8365 55.3533 26.247L55.6793 27.36Z" fill="white"/>
<path d="M20.8995 6.84L22.8739 10.5823L27.0433 11.3037L24.0942 14.338L24.6965 18.5262L20.8995 16.6592L17.1024 18.5262L17.7047 14.338L14.7556 11.3037L18.925 10.5823L20.8995 6.84Z" fill="#D9D9D9"/>
<path d="M20.8995 6.84L22.8739 10.5823L27.0433 11.3037L24.0942 14.338L24.6965 18.5262L20.8995 16.6592L17.1024 18.5262L17.7047 14.338L14.7556 11.3037L18.925 10.5823L20.8995 6.84Z" fill="white"/>
</svg>
