<svg width="238" height="212" viewBox="0 0 238 212" fill="none" xmlns="http://www.w3.org/2000/svg">
<path d="M233.396 169.161C232.285 160.768 231.857 152.3 232.116 143.838C232.633 151.781 233.752 159.673 235.462 167.446C234.737 167.972 234.047 168.545 233.396 169.161ZM232.88 179.695L232.446 184.466C231.62 181.905 230.752 179.88 230.711 179.777C230.296 177.931 230.552 175.998 231.434 174.324C231.822 176.138 232.305 177.931 232.88 179.695ZM221.892 208.301H214.394C228.439 202.6 230.918 191.901 231.228 185.726C231.537 186.758 231.847 187.791 232.054 188.886L231.021 200.576C228.666 201.444 222.966 203.943 221.892 208.301ZM6.29963 200.494L5.24625 188.803C5.4528 187.812 5.74196 186.738 6.05178 185.746C6.12651 188.207 6.56501 190.643 7.35302 192.975C9.06734 197.953 13.1776 204.253 22.9265 208.218H15.4083C14.4582 203.86 8.6336 201.361 6.29963 200.494ZM6.65076 179.55C6.65076 179.736 5.68 181.801 4.85382 184.383L4.42007 179.695C5.01415 177.914 5.5038 176.1 5.88654 174.262C6.77846 175.902 7.04976 177.809 6.65076 179.633M1.8176 167.446C3.5347 159.673 4.66015 151.781 5.18429 143.838C5.4601 152.299 5.0387 160.769 3.92436 169.161C3.27968 168.538 2.58926 167.965 1.85891 167.446M3.92436 41.8874C5.04011 50.2861 5.46151 58.7626 5.18429 67.2305C4.66151 59.2804 3.53605 51.3815 1.8176 43.6017C2.54796 43.0827 3.23837 42.5097 3.88305 41.8874M4.37876 31.4362L4.81251 26.665C5.63869 29.2262 6.50618 31.271 6.56814 31.3742C6.98208 33.2133 6.72571 35.1396 5.84523 36.8064C5.45999 34.9896 4.97035 33.1966 4.37876 31.4362ZM15.4083 2.85033H22.9059C8.8608 8.55098 6.29963 19.25 6.19636 25.4257C5.86589 24.3724 5.57673 23.3603 5.34952 22.2449L6.40291 10.5545C8.6336 9.70763 14.4582 7.18778 15.4083 2.85033ZM231.021 10.5545L232.054 22.2449C231.847 23.257 231.558 24.3104 231.248 25.3018C231.182 22.8402 230.743 20.4029 229.947 18.0727C228.253 13.095 224.122 6.79534 214.394 2.85033H221.892C222.966 7.18778 228.666 9.70763 231.021 10.5545ZM230.67 31.4982C230.67 31.3329 231.62 29.2468 232.446 26.665L232.88 31.4362C232.289 33.2177 231.799 35.0313 231.413 36.8684C230.527 35.2263 230.263 33.3194 230.67 31.4982ZM235.462 43.6017C233.743 51.3815 232.618 59.2804 232.095 67.2305C231.854 58.7617 232.289 50.287 233.396 41.8874C234.045 42.5049 234.735 43.0777 235.462 43.6017ZM229.265 180.17C229.265 180.17 229.637 181.058 230.112 182.235C230.5 185.718 230.119 189.243 228.997 192.562C226.498 199.833 220.425 205.162 211.358 208.136H25.9008C6.44422 201.795 6.65076 186.8 7.18778 182.318C7.68349 180.954 8.09658 180.025 8.11723 179.963C8.42054 178.562 8.4189 177.112 8.11242 175.711C7.80593 174.311 7.20178 172.992 6.34094 171.846C9.19127 156.21 7.74545 136.299 7.68349 135.411V75.513C7.68349 74.5216 9.21192 54.5693 6.3616 38.9132C7.22843 37.7421 7.83221 36.3977 8.13164 34.9718C8.43108 33.5459 8.41912 32.0722 8.09658 30.6513C8.09658 30.6513 7.70414 29.7632 7.22909 28.5859C6.86175 25.1018 7.2492 21.5795 8.36509 18.2586C10.8436 10.9882 16.9367 5.65934 26.0041 2.70574H211.42C230.876 9.02603 230.67 24.0419 230.133 28.5239C229.637 29.8665 229.245 30.7959 229.224 30.8579C228.918 32.2577 228.916 33.7069 229.219 35.1074C229.522 36.5079 230.122 37.827 230.98 38.9751C228.129 54.6106 229.575 74.5216 229.658 75.4097V135.308C229.658 136.299 228.129 156.231 231 171.887C230.136 173.059 229.534 174.404 229.234 175.829C228.935 177.255 228.946 178.728 229.265 180.149M232.508 127.583V91.7475C233.169 81.1517 234.739 51.4091 237.176 43.4985L237.341 42.9408L236.846 42.6103C235.706 41.8703 234.659 40.9966 233.727 40.0078C234.212 37.3153 234.903 34.6638 235.792 32.0765L235.895 31.7873L233.83 8.44771L232.777 8.26182C230.711 7.60087 224.515 4.95709 224.515 1.52844V0H12.7438V1.42516C12.7438 4.85382 6.816 7.45629 4.48203 8.15854L3.57324 8.44771L1.50778 31.7873V32.0765C2.40739 34.6537 3.0981 37.2992 3.57324 39.9872C2.63714 40.9697 1.59848 41.8491 0.475054 42.6103L0 42.9408L0.165236 43.4985C2.60247 51.3885 4.13091 81.0897 4.83316 91.7062V127.583C4.13091 138.179 2.60247 159.639 0.165236 167.55L0 168.128L0.516363 168.438C1.64263 169.187 2.68178 170.06 3.61454 171.04C3.14917 173.737 2.45826 176.39 1.54909 178.972V179.261L3.61454 202.621L4.52334 202.89C6.79534 203.612 12.7852 206.194 12.7852 209.623V211.048H224.577V209.623C224.577 206.194 230.484 203.612 232.839 202.89L233.727 202.621L235.792 179.261L235.689 178.972C234.825 176.391 234.168 173.746 233.727 171.061C234.652 170.067 235.692 169.187 236.825 168.438L237.321 168.107L237.155 167.55C234.718 159.66 233.148 138.22 232.508 127.604" fill="#555555"/>
</svg>
