<svg width="28" height="14" viewBox="0 0 28 14" fill="none" xmlns="http://www.w3.org/2000/svg">
<path d="M13.9204 0.125138C2.22002 0.34413 0.374227 0.500553 0.0926655 1.31395C-0.376603 2.50277 0.499364 2.56533 13.2322 2.40891C19.9897 2.31506 25.9024 2.15864 26.4343 2.0335C27.9985 1.65808 27.7795 0.218992 26.1214 0.0312846C25.5896 -0.0312846 20.1148 0 13.9204 0.125138Z" fill="#ECECEC"/>
<path d="M5.53613 6.06921C0.374172 6.2882 -0.439226 6.53847 0.186465 7.57087C0.499311 8.04013 1.34399 8.1027 7.85118 8.19656C17.393 8.3217 26.4029 8.00885 27.0912 7.5083C27.4353 7.22674 27.5292 6.91389 27.404 6.44462C27.185 5.75636 27.1538 5.75636 18.8321 5.81893C14.2332 5.81893 8.25788 5.94407 5.53613 6.06921Z" fill="#ECECEC"/>
<path d="M11.0111 11.7004C2.56425 11.8569 0.843597 11.9507 0.468183 12.3574C-0.220078 13.0144 0.186621 13.8903 1.21901 13.9216C3.62792 14.0155 21.8043 13.8278 23.9316 13.7026C26.9975 13.5149 27.5293 13.3585 27.5293 12.6703C27.5293 11.6066 26.8724 11.3876 23.9629 11.4502C22.3987 11.4814 16.5797 11.5753 11.0111 11.7004Z" fill="#ECECEC"/>
</svg>
