<svg width="239" height="48" viewBox="0 0 239 48" fill="none" xmlns="http://www.w3.org/2000/svg">
<mask id="path-1-inside-1_225_1417" fill="white">
<path d="M233.377 0C233.377 2.9949 235.805 5.42282 238.8 5.42285C238.867 5.42285 238.934 5.4194 239 5.41699V42.6045C238.934 42.6021 238.867 42.5996 238.8 42.5996C235.812 42.5996 233.39 45.0152 233.378 48H5.42188C5.41041 45.1088 3.13714 42.7515 0.279297 42.6064L0 42.5996V5.42285C2.90121 5.4228 5.27066 3.14439 5.41602 0.279297L5.42285 0H233.377Z"/>
</mask>
<path d="M233.377 0C233.377 2.9949 235.805 5.42282 238.8 5.42285C238.867 5.42285 238.934 5.4194 239 5.41699V42.6045C238.934 42.6021 238.867 42.5996 238.8 42.5996C235.812 42.5996 233.39 45.0152 233.378 48H5.42188C5.41041 45.1088 3.13714 42.7515 0.279297 42.6064L0 42.5996V5.42285C2.90121 5.4228 5.27066 3.14439 5.41602 0.279297L5.42285 0H233.377Z" fill="#2F2F2F"/>
<path d="M233.377 0C233.377 2.9949 235.805 5.42282 238.8 5.42285C238.867 5.42285 238.934 5.4194 239 5.41699V42.6045C238.934 42.6021 238.867 42.5996 238.8 42.5996C235.812 42.5996 233.39 45.0152 233.378 48H5.42188C5.41041 45.1088 3.13714 42.7515 0.279297 42.6064L0 42.5996V5.42285C2.90121 5.4228 5.27066 3.14439 5.41602 0.279297L5.42285 0H233.377Z" fill="url(#paint0_radial_225_1417)"/>
<path d="M233.377 0L234.328 -9.82023e-07V-0.951049H233.377V0ZM238.8 5.42285L238.8 6.3739H238.8V5.42285ZM239 5.41699H239.951V4.4308L238.965 4.46657L239 5.41699ZM239 42.6045L238.965 43.5549L239.951 43.5907V42.6045H239ZM238.8 42.5996V41.6486H238.8L238.8 42.5996ZM233.378 48V48.951H234.325L234.329 48.0038L233.378 48ZM5.42188 48L4.47083 48.0038L4.47459 48.951H5.42188V48ZM0.279297 42.6064L0.327504 41.6566L0.315042 41.656L0.302567 41.6557L0.279297 42.6064ZM0 42.5996H-0.951049V43.5277L-0.0232705 43.5504L0 42.5996ZM0 5.42285L-1.61216e-05 4.4718L-0.951049 4.47182V5.42285H0ZM5.41602 0.279297L6.36584 0.327484L6.36647 0.315032L6.36678 0.302567L5.41602 0.279297ZM5.42285 0V-0.951049H4.4948L4.47209 -0.0232705L5.42285 0ZM233.377 0L232.426 9.82023e-07C232.426 3.52016 235.28 6.37387 238.8 6.3739L238.8 5.42285L238.8 4.4718C236.33 4.47178 234.328 2.46964 234.328 -9.82023e-07L233.377 0ZM238.8 5.42285V6.3739C238.89 6.3739 238.988 6.36912 239.035 6.36742L239 5.41699L238.965 4.46657C238.88 4.46969 238.844 4.4718 238.8 4.4718V5.42285ZM239 5.41699H238.049V42.6045H239H239.951V5.41699H239ZM239 42.6045L239.035 41.6541C238.972 41.6518 238.887 41.6486 238.8 41.6486V42.5996V43.5507C238.846 43.5507 238.896 43.5524 238.965 43.5549L239 42.6045ZM238.8 42.5996L238.8 41.6486C235.288 41.6486 232.441 44.488 232.427 47.9962L233.378 48L234.329 48.0038C234.339 45.5424 236.336 43.5507 238.8 43.5507L238.8 42.5996ZM233.378 48V47.049H5.42188V48V48.951H233.378V48ZM5.42188 48L6.37292 47.9962C6.35944 44.5977 3.68751 41.8271 0.327504 41.6566L0.279297 42.6064L0.23109 43.5563C2.58677 43.6758 4.46138 45.6199 4.47083 48.0038L5.42188 48ZM0.279297 42.6064L0.302567 41.6557L0.0232705 41.6488L0 42.5996L-0.0232705 43.5504L0.256026 43.5572L0.279297 42.6064ZM0 42.5996H0.951049V5.42285H0H-0.951049V42.5996H0ZM0 5.42285L1.61216e-05 6.3739C3.41025 6.37384 6.19495 3.69593 6.36584 0.327484L5.41602 0.279297L4.46619 0.231109C4.34637 2.59285 2.39216 4.47176 -1.61216e-05 4.4718L0 5.42285ZM5.41602 0.279297L6.36678 0.302567L6.37362 0.0232705L5.42285 0L4.47209 -0.0232705L4.46525 0.256026L5.41602 0.279297ZM5.42285 0V0.951049H233.377V0V-0.951049H5.42285V0Z" fill="#00A59D" mask="url(#path-1-inside-1_225_1417)"/>
<path d="M233.377 0L234.328 -9.82023e-07V-0.951049H233.377V0ZM238.8 5.42285L238.8 6.3739H238.8V5.42285ZM239 5.41699H239.951V4.4308L238.965 4.46657L239 5.41699ZM239 42.6045L238.965 43.5549L239.951 43.5907V42.6045H239ZM238.8 42.5996V41.6486H238.8L238.8 42.5996ZM233.378 48V48.951H234.325L234.329 48.0038L233.378 48ZM5.42188 48L4.47083 48.0038L4.47459 48.951H5.42188V48ZM0.279297 42.6064L0.327504 41.6566L0.315042 41.656L0.302567 41.6557L0.279297 42.6064ZM0 42.5996H-0.951049V43.5277L-0.0232705 43.5504L0 42.5996ZM0 5.42285L-1.61216e-05 4.4718L-0.951049 4.47182V5.42285H0ZM5.41602 0.279297L6.36584 0.327484L6.36647 0.315032L6.36678 0.302567L5.41602 0.279297ZM5.42285 0V-0.951049H4.4948L4.47209 -0.0232705L5.42285 0ZM233.377 0L232.426 9.82023e-07C232.426 3.52016 235.28 6.37387 238.8 6.3739L238.8 5.42285L238.8 4.4718C236.33 4.47178 234.328 2.46964 234.328 -9.82023e-07L233.377 0ZM238.8 5.42285V6.3739C238.89 6.3739 238.988 6.36912 239.035 6.36742L239 5.41699L238.965 4.46657C238.88 4.46969 238.844 4.4718 238.8 4.4718V5.42285ZM239 5.41699H238.049V42.6045H239H239.951V5.41699H239ZM239 42.6045L239.035 41.6541C238.972 41.6518 238.887 41.6486 238.8 41.6486V42.5996V43.5507C238.846 43.5507 238.896 43.5524 238.965 43.5549L239 42.6045ZM238.8 42.5996L238.8 41.6486C235.288 41.6486 232.441 44.488 232.427 47.9962L233.378 48L234.329 48.0038C234.339 45.5424 236.336 43.5507 238.8 43.5507L238.8 42.5996ZM233.378 48V47.049H5.42188V48V48.951H233.378V48ZM5.42188 48L6.37292 47.9962C6.35944 44.5977 3.68751 41.8271 0.327504 41.6566L0.279297 42.6064L0.23109 43.5563C2.58677 43.6758 4.46138 45.6199 4.47083 48.0038L5.42188 48ZM0.279297 42.6064L0.302567 41.6557L0.0232705 41.6488L0 42.5996L-0.0232705 43.5504L0.256026 43.5572L0.279297 42.6064ZM0 42.5996H0.951049V5.42285H0H-0.951049V42.5996H0ZM0 5.42285L1.61216e-05 6.3739C3.41025 6.37384 6.19495 3.69593 6.36584 0.327484L5.41602 0.279297L4.46619 0.231109C4.34637 2.59285 2.39216 4.47176 -1.61216e-05 4.4718L0 5.42285ZM5.41602 0.279297L6.36678 0.302567L6.37362 0.0232705L5.42285 0L4.47209 -0.0232705L4.46525 0.256026L5.41602 0.279297ZM5.42285 0V0.951049H233.377V0V-0.951049H5.42285V0Z" fill="white" fill-opacity="0.3" mask="url(#path-1-inside-1_225_1417)"/>
<mask id="path-3-inside-2_225_1417" fill="white">
<path d="M230.34 2.99985C230.414 5.47868 232.351 7.48684 234.8 7.67368V40.3475C232.358 40.5337 230.425 42.5312 230.34 44.9998H8.64941C8.57183 42.7406 6.94669 40.8745 4.7998 40.4315V7.58969C6.95366 7.14513 8.58277 5.26899 8.65039 2.99985H230.34Z"/>
</mask>
<path d="M230.34 2.99985C230.414 5.47868 232.351 7.48684 234.8 7.67368V40.3475C232.358 40.5337 230.425 42.5312 230.34 44.9998H8.64941C8.57183 42.7406 6.94669 40.8745 4.7998 40.4315V7.58969C6.95366 7.14513 8.58277 5.26899 8.65039 2.99985H230.34Z" fill="#00A59D"/>
<path d="M230.34 2.99985C230.414 5.47868 232.351 7.48684 234.8 7.67368V40.3475C232.358 40.5337 230.425 42.5312 230.34 44.9998H8.64941C8.57183 42.7406 6.94669 40.8745 4.7998 40.4315V7.58969C6.95366 7.14513 8.58277 5.26899 8.65039 2.99985H230.34Z" fill="url(#paint1_radial_225_1417)"/>
<path d="M230.34 2.99985L232.036 2.94931L231.987 1.30323H230.34V2.99985ZM234.8 7.67368H236.496V6.10157L234.929 5.98198L234.8 7.67368ZM234.8 40.3475L234.929 42.0392L236.496 41.9196V40.3475H234.8ZM230.34 44.9998V46.6965H231.979L232.035 45.0581L230.34 44.9998ZM8.64941 44.9998L6.9538 45.0581L7.01006 46.6965H8.64941V44.9998ZM4.7998 40.4315H3.10319V41.8137L4.4569 42.0931L4.7998 40.4315ZM4.7998 7.58969L4.45685 5.9281L3.10319 6.2075V7.58969H4.7998ZM8.65039 2.99985V1.30323H7.00358L6.95453 2.94931L8.65039 2.99985ZM230.34 2.99985L228.644 3.05039C228.744 6.40067 231.361 9.11287 234.671 9.36538L234.8 7.67368L234.929 5.98198C233.341 5.86082 232.084 4.55669 232.036 2.94931L230.34 2.99985ZM234.8 7.67368H233.103V40.3475H234.8H236.496V7.67368H234.8ZM234.8 40.3475L234.671 38.6558C231.371 38.9075 228.759 41.605 228.644 44.9416L230.34 44.9998L232.035 45.0581C232.09 43.4574 233.346 42.16 234.929 42.0392L234.8 40.3475ZM230.34 44.9998V43.3032H8.64941V44.9998V46.6965H230.34V44.9998ZM8.64941 44.9998L10.345 44.9416C10.2402 41.8878 8.04466 39.3688 5.14271 38.7699L4.7998 40.4315L4.4569 42.0931C5.84872 42.3803 6.9035 43.5934 6.9538 45.0581L8.64941 44.9998ZM4.7998 40.4315H6.49642V7.58969H4.7998H3.10319V40.4315H4.7998ZM4.7998 7.58969L5.14276 9.25128C8.05355 8.65049 10.2548 6.118 10.3463 3.05038L8.65039 2.99985L6.95453 2.94931C6.9107 4.41998 5.85378 5.63977 4.45685 5.9281L4.7998 7.58969ZM8.65039 2.99985V4.69646H230.34V2.99985V1.30323H8.65039V2.99985Z" fill="#00A59D" mask="url(#path-3-inside-2_225_1417)"/>
<path d="M230.34 2.99985L232.036 2.94931L231.987 1.30323H230.34V2.99985ZM234.8 7.67368H236.496V6.10157L234.929 5.98198L234.8 7.67368ZM234.8 40.3475L234.929 42.0392L236.496 41.9196V40.3475H234.8ZM230.34 44.9998V46.6965H231.979L232.035 45.0581L230.34 44.9998ZM8.64941 44.9998L6.9538 45.0581L7.01006 46.6965H8.64941V44.9998ZM4.7998 40.4315H3.10319V41.8137L4.4569 42.0931L4.7998 40.4315ZM4.7998 7.58969L4.45685 5.9281L3.10319 6.2075V7.58969H4.7998ZM8.65039 2.99985V1.30323H7.00358L6.95453 2.94931L8.65039 2.99985ZM230.34 2.99985L228.644 3.05039C228.744 6.40067 231.361 9.11287 234.671 9.36538L234.8 7.67368L234.929 5.98198C233.341 5.86082 232.084 4.55669 232.036 2.94931L230.34 2.99985ZM234.8 7.67368H233.103V40.3475H234.8H236.496V7.67368H234.8ZM234.8 40.3475L234.671 38.6558C231.371 38.9075 228.759 41.605 228.644 44.9416L230.34 44.9998L232.035 45.0581C232.09 43.4574 233.346 42.16 234.929 42.0392L234.8 40.3475ZM230.34 44.9998V43.3032H8.64941V44.9998V46.6965H230.34V44.9998ZM8.64941 44.9998L10.345 44.9416C10.2402 41.8878 8.04466 39.3688 5.14271 38.7699L4.7998 40.4315L4.4569 42.0931C5.84872 42.3803 6.9035 43.5934 6.9538 45.0581L8.64941 44.9998ZM4.7998 40.4315H6.49642V7.58969H4.7998H3.10319V40.4315H4.7998ZM4.7998 7.58969L5.14276 9.25128C8.05355 8.65049 10.2548 6.118 10.3463 3.05038L8.65039 2.99985L6.95453 2.94931C6.9107 4.41998 5.85378 5.63977 4.45685 5.9281L4.7998 7.58969ZM8.65039 2.99985V4.69646H230.34V2.99985V1.30323H8.65039V2.99985Z" fill="#00A59D" mask="url(#path-3-inside-2_225_1417)"/>
<path d="M79.0034 16.6024L85.761 16.552V29.9664H83.6934V19.3088H81.6594L81.4408 30.3194L78.7344 30.269L79.0034 16.6024ZM86.7619 20.8217V17.4934C89.1993 17.4934 93.2841 17.4934 93.5531 21.2084C93.6203 22.301 93.2841 23.2424 92.5445 23.9316C91.7544 24.688 90.6618 25.0242 89.6196 25.1587V30H86.7619V20.8217ZM91.2838 22.6036C91.62 22.2842 91.7544 21.8808 91.7208 21.3428C91.6368 20.2502 90.9476 19.7459 89.6196 19.5106V23.2928C90.3088 23.1751 90.9139 22.9566 91.2838 22.6036ZM98.1963 19.8972C97.4567 19.8972 96.0783 19.8972 96.0783 23.3937C96.0783 26.0496 96.4649 26.4699 97.3895 26.4699C98.5998 26.4699 98.9696 24.5031 99.1041 23.3264C99.289 21.4605 98.9192 20.4015 98.5157 20.0317C98.3813 19.914 98.2804 19.8972 98.1963 19.8972ZM97.339 29.1931C94.1451 29.1931 94.1451 25.8143 94.1451 23.5786C94.1451 19.4433 95.4563 17.4261 98.1291 17.4261C98.7847 17.4261 99.373 17.6951 99.8269 18.1994C100.751 19.208 101.121 21.0907 100.903 23.6458C100.6 27.3272 99.3899 29.1931 97.339 29.1931ZM109.229 27.0414H110.052V31.9331H108.17V29.9664H103.362V31.9331H101.479V27.0414H102.706C103.042 24.5367 103.11 20.6705 103.16 18.5356C103.177 17.6447 103.177 16.9386 103.211 16.552L109.044 16.6361L109.229 27.0414ZM105.026 19.5106C104.959 22.2842 104.858 24.9906 104.606 27.0414H106.304L106.152 19.5274L105.026 19.5106ZM114.612 19.8972C113.873 19.8972 112.494 19.8972 112.494 23.3937C112.494 26.0496 112.881 26.4699 113.805 26.4699C115.016 26.4699 115.386 24.5031 115.52 23.3264C115.705 21.4605 115.335 20.4015 114.932 20.0317C114.797 19.914 114.696 19.8972 114.612 19.8972ZM113.755 29.1931C110.561 29.1931 110.561 25.8143 110.561 23.5786C110.561 19.4433 111.872 17.4261 114.545 17.4261C115.201 17.4261 115.789 17.6951 116.243 18.1994C117.167 19.208 117.537 21.0907 117.319 23.6458C117.016 27.3272 115.806 29.1931 113.755 29.1931ZM118.34 17.4261L118.273 16.7033L124.274 16.552L124.257 29.9664H121.315L121.332 19.5442L120.323 19.561C120.458 23.7971 120.273 27.7138 118.726 29.378C118.239 29.9159 117.6 30.1849 116.928 30.2017L116.877 28.319C116.995 28.319 117.163 28.2854 117.348 28.0837C118.794 26.5371 118.558 20.2334 118.34 17.4261ZM132.014 30H129.61V23.4441L129.56 23.3937L127.173 29.8823L124.988 29.8487L127.963 21.679L124.954 16.5688L127.795 16.552L129.61 20.3847V16.552H132.014L131.997 20.3847L133.628 16.5352L136.486 16.552L133.645 21.679L136.62 29.8487L134.435 29.8823L132.048 23.3937L131.997 23.4441L132.014 30ZM145.09 17.1572L145.208 30H143.443L143.409 22.7885L139.862 29.4117H139.829L137.442 29.3612L137.593 16.552L139.392 16.6024L139.408 24.3518L143.241 17.1572H145.09ZM152.743 17.1908V19.8636H150.591L150.659 29.2099H148.238L148.171 19.8636H145.884V17.1908H152.743ZM156.218 21.5614C159.849 21.9312 160.269 24.2005 160.269 25.2428C160.269 26.0665 159.832 26.8565 159.042 27.4449C158.168 28.1005 156.907 28.4703 155.764 28.4703C155.529 28.4703 155.31 28.4535 155.075 28.4199L153.495 28.4367L153.411 17.611L156.168 17.5942L156.218 21.5614ZM157.866 25.8647C158.067 25.7134 158.286 25.4949 158.286 25.2428C158.286 24.8225 158.286 23.7971 156.235 23.545L156.252 26.4531C156.823 26.3859 157.445 26.1841 157.866 25.8647Z" fill="white"/>
<defs>
<radialGradient id="paint0_radial_225_1417" cx="0" cy="0" r="1" gradientUnits="userSpaceOnUse" gradientTransform="translate(64.7999) rotate(90) scale(19.5822 76.2442)">
<stop stop-color="#464646"/>
<stop offset="1" stop-color="#C84B2F" stop-opacity="0"/>
</radialGradient>
<radialGradient id="paint1_radial_225_1417" cx="0" cy="0" r="1" gradientUnits="userSpaceOnUse" gradientTransform="translate(64.7997 2.85317) rotate(90) scale(17.4666 68.0076)">
<stop stop-color="#00B9B0"/>
<stop offset="1" stop-color="#00B9B0" stop-opacity="0"/>
</radialGradient>
</defs>
</svg>
