<svg width="357" height="48" viewBox="0 0 357 48" fill="none" xmlns="http://www.w3.org/2000/svg">
<path d="M52.8661 7.10747C48.4128 6.22224 44.0543 5.00719 39.8378 3.47554H48.1648C49.8744 4.53147 51.4445 5.74956 52.8462 7.10747M70.6556 6.41237C66.9231 7.91479 62.769 8.43418 58.703 7.90685C58.3046 7.40289 57.8862 6.89894 57.448 6.41237H70.6556ZM354.251 13.9021V16.4567C350.645 11.7821 343.215 8.34129 338.035 6.41237H346.621C348.588 9.31432 351.178 11.8575 354.251 13.9021ZM346.621 40.6638H338.055C343.235 38.7349 350.665 35.3115 354.271 30.6195V33.2088C351.195 35.2415 348.598 37.7728 346.621 40.6638ZM58.6631 39.1693C62.7292 38.6511 66.8803 39.1701 70.6157 40.6638H57.4081C57.8464 40.1772 58.2647 39.6906 58.6631 39.1693ZM48.1847 43.6006H39.8378C44.0543 42.069 48.4128 40.8539 52.8661 39.9687C51.4644 41.3266 49.8943 42.5447 48.1847 43.6006ZM62.727 9.38395C65.7568 13.6449 67.4279 18.5341 67.5678 23.5468C67.4241 28.5589 65.7533 33.4472 62.727 37.7096C61.7974 37.7096 60.7814 37.7096 59.6791 37.7096C62.598 33.405 64.139 28.4959 64.1414 23.4946C64.1513 18.5121 62.6385 13.6174 59.7588 9.31444C60.8544 9.31444 61.8704 9.31444 62.8067 9.31444M333.991 6.41237C338.772 7.95898 351.323 12.5988 354.251 19.2371V27.8043C351.323 34.46 338.772 39.0824 333.991 40.629H73.3648C70.812 38.8627 67.6768 37.8576 64.4203 37.7617C67.3521 33.4411 68.9512 28.5318 69.0619 23.512C68.9548 18.4917 67.3554 13.5816 64.4203 9.26231C67.6813 9.17131 70.8202 8.15897 73.3648 6.37761L333.991 6.41237ZM3.98 23.5468C3.97719 19.6097 5.06202 15.7299 7.14262 12.2361C9.22322 8.74229 12.2383 5.73728 15.9326 3.47554H32.0088C39.2333 5.89925 46.7325 7.64681 54.3801 8.68884C58.1121 12.9392 60.1417 18.1407 60.1572 23.4946C60.1417 28.8485 58.1121 34.05 54.3801 38.3004C46.7393 39.3437 39.2469 41.0912 32.0288 43.5137H15.9326C12.2524 41.2642 9.24574 38.2762 7.16567 34.8014C5.0856 31.3267 3.99304 27.4668 3.98 23.5468ZM14.2194 0.295421C9.84358 2.85316 6.25726 6.31166 3.77728 10.3654C1.2973 14.4191 0 18.9432 0 23.5381C0 28.1329 1.2973 32.6571 3.77728 36.7108C6.25726 40.7645 9.84358 44.223 14.2194 46.7807L14.7373 47.0762H49.3999L49.8979 46.7807C51.7514 45.7037 53.4677 44.457 55.0176 43.0619H348.155L348.534 42.4711C349.689 40.7333 353.295 36.1977 356.203 34.9987L357 34.6685V12.4077L356.203 12.0949C353.295 10.8958 349.689 6.27334 348.534 4.60509L348.135 4.03162H55.0176C53.476 2.63047 51.7663 1.37788 49.9178 0.295421L49.3999 0H14.7174L14.2194 0.295421Z" fill="#FCE9CE"/>
</svg>
