<svg width="439" height="210" viewBox="0 0 439 210" fill="none" xmlns="http://www.w3.org/2000/svg">
<rect y="210" width="210" height="439" rx="20" transform="rotate(-90 0 210)" fill="url(#paint0_linear_129_2433)"/>
<g clip-path="url(#clip0_129_2433)">
<path d="M49.8989 124.737C49.8989 112.676 59.676 102.899 71.7367 102.899H88.8271C100.888 102.899 110.665 112.676 110.665 124.737C110.665 136.797 100.888 146.574 88.8271 146.574H71.7367C59.676 146.574 49.8989 136.797 49.8989 124.737Z" fill="#2D2D2D"/>
<path d="M59.3936 114.293H406.899V123.787C406.899 134.275 398.397 142.777 387.91 142.777H59.3936V114.293Z" fill="#2D2D2D"/>
<path d="M59.3936 106.697H387.91C398.397 106.697 406.899 115.199 406.899 125.686V135.181H59.3936V106.697Z" fill="#2D2D2D"/>
<path d="M78.4133 114.262C75.924 115.011 74.9324 116.509 74.6895 119.828C74.6085 120.88 74.4669 121.831 74.3859 121.953C73.8395 122.701 74.1228 124.543 74.9931 125.818C75.3169 126.324 75.7823 127.174 76.0252 127.72C76.2681 128.267 76.5716 128.833 76.7335 128.955C76.8954 129.076 77.0169 129.258 77.0169 129.339C77.0169 129.441 76.2276 129.886 75.2562 130.351C71.0264 132.375 70.6217 132.658 69.7515 134.358C69.286 135.269 68.861 137.435 69.0431 137.92C69.1241 138.123 69.4074 138.366 69.711 138.467C70.6419 138.831 74.2645 139.499 74.8312 139.418C75.1347 139.357 75.4181 139.418 75.4585 139.539C75.5395 139.782 82.6632 139.843 84.8894 139.6C86.5894 139.438 90.0096 138.791 90.7989 138.467C91.5274 138.204 91.6286 137.799 91.3655 136.301C91.1429 135.006 90.1108 133.002 89.4024 132.456C89.0786 132.193 88.3096 131.808 84.7882 130.129L83.5537 129.542L84.2823 128.064C84.687 127.275 85.2942 126.223 85.5977 125.737C86.3465 124.644 86.6299 123.045 86.2453 122.175C86.0834 121.831 85.9013 120.759 85.8406 119.787C85.6382 116.549 84.4846 114.91 81.874 114.181C80.8823 113.918 79.4859 113.938 78.4133 114.262Z" fill="#E0D0B8"/>
<path d="M100.866 108.107C96.4128 107.222 92.0543 106.007 87.8378 104.476H96.1648C97.8744 105.531 99.4445 106.75 100.846 108.107M118.656 107.412C114.923 108.915 110.769 109.434 106.703 108.907C106.305 108.403 105.886 107.899 105.448 107.412H118.656ZM402.251 114.902V117.457C398.645 112.782 391.215 109.341 386.035 107.412H394.621C396.588 110.314 399.178 112.858 402.251 114.902ZM394.621 141.664H386.055C391.235 139.735 398.665 136.311 402.271 131.619V134.209C399.195 136.241 396.598 138.773 394.621 141.664ZM106.663 140.169C110.729 139.651 114.88 140.17 118.616 141.664H105.408C105.846 141.177 106.265 140.691 106.663 140.169ZM96.1847 144.601H87.8378C92.0543 143.069 96.4128 141.854 100.866 140.969C99.4644 142.327 97.8943 143.545 96.1847 144.601ZM110.727 110.384C113.757 114.645 115.428 119.534 115.568 124.547C115.424 129.559 113.753 134.447 110.727 138.71C109.797 138.71 108.781 138.71 107.679 138.71C110.598 134.405 112.139 129.496 112.141 124.495C112.151 119.512 110.638 114.617 107.759 110.314C108.854 110.314 109.87 110.314 110.807 110.314M381.991 107.412C386.772 108.959 399.323 113.599 402.251 120.237V128.804C399.323 135.46 386.772 140.082 381.991 141.629H121.365C118.812 139.863 115.677 138.858 112.42 138.762C115.352 134.441 116.951 129.532 117.062 124.512C116.955 119.492 115.355 114.582 112.42 110.262C115.681 110.171 118.82 109.159 121.365 107.378L381.991 107.412ZM51.98 124.547C51.9772 120.61 53.062 116.73 55.1426 113.236C57.2232 109.742 60.2383 106.737 63.9326 104.476H80.0088C87.2333 106.899 94.7325 108.647 102.38 109.689C106.112 113.939 108.142 119.141 108.157 124.495C108.142 129.849 106.112 135.05 102.38 139.3C94.7393 140.344 87.2469 142.091 80.0288 144.514H63.9326C60.2524 142.264 57.2457 139.276 55.1657 135.801C53.0856 132.327 51.993 128.467 51.98 124.547ZM62.2194 101.295C57.8436 103.853 54.2573 107.312 51.7773 111.365C49.2973 115.419 48 119.943 48 124.538C48 129.133 49.2973 133.657 51.7773 137.711C54.2573 141.764 57.8436 145.223 62.2194 147.781L62.7373 148.076H97.3999L97.8979 147.781C99.7514 146.704 101.468 145.457 103.018 144.062H396.155L396.534 143.471C397.689 141.733 401.295 137.198 404.203 135.999L405 135.668V113.408L404.203 113.095C401.295 111.896 397.689 107.273 396.534 105.605L396.135 105.032H103.018C101.476 103.63 99.7663 102.378 97.9178 101.295L97.3999 101H62.7174L62.2194 101.295Z" fill="#FCE9CE"/>
</g>
<path d="M48.9 64.61L49.02 44.48L48.93 41.18C49.2 41.15 49.5 41.15 49.8 41.15C54.15 41 60.69 40.79 61.02 46.43C61.11 48.02 60.66 49.4 59.7 50.48C59.49 50.69 59.28 50.9 59.04 51.11C59.46 51.35 59.85 51.68 60.24 52.04C61.8 53.54 62.55 55.58 62.46 58.13C62.4 60.11 61.68 61.73 60.3 62.93C58.35 64.58 55.53 64.97 53.1 64.97C51.48 64.97 50.04 64.79 49.17 64.67L48.9 64.61ZM57.69 46.61C57.63 45.26 56.49 44.66 54.18 44.48L54.15 49.49C55.98 49.22 56.82 48.68 57.21 48.26C57.45 47.99 57.75 47.54 57.69 46.61ZM58.14 60.38C58.8 59.84 59.13 59.06 59.16 58.01C59.19 56.45 58.8 55.28 57.93 54.44C56.88 53.42 55.32 53.09 54.12 53L54.09 61.61C55.62 61.52 57.18 61.22 58.14 60.38ZM72.3579 51.32C74.7879 52.52 76.6779 53.84 76.6779 57.32C76.6779 61.52 74.7879 65 71.2479 65C71.2479 65 68.3079 65 63.9879 65L64.2579 41.15C66.2079 41 68.1879 41 68.1879 41C72.7779 40.85 74.4579 44.06 74.4579 46.85C74.4579 48.95 73.4679 49.94 72.3579 51.32ZM67.0479 44.42L66.9879 49.31C67.5579 49.31 68.3079 49.31 68.3079 49.31C69.7779 49.31 71.2479 47.69 71.2479 46.31C71.2479 44.9 69.5079 44.3 68.6679 44.36C68.6679 44.36 67.8279 44.36 67.0479 44.42ZM69.5679 61.37C72.3579 61.37 73.3479 59.66 73.3479 57.68C73.3479 55.7 71.2479 54.26 70.0779 54.32C70.0779 54.32 68.8779 54.32 67.7979 54.41L67.6779 61.37C68.4879 61.37 69.5679 61.37 69.5679 61.37ZM89.2376 45.17H82.8776V48.98H86.8076V53.15H82.8776V60.05H89.2376V64.97H82.8776H78.1676V60.05V53.15V48.98V45.17V41H82.8776H89.2376V45.17ZM103.966 59.72H105.436V68.45H102.076V64.94H93.4959V68.45H90.1359V59.72H92.3259C92.9259 55.25 93.0459 48.35 93.1359 44.54C93.1659 42.95 93.1659 41.69 93.2259 41L103.636 41.15L103.966 59.72ZM96.4659 46.28C96.3459 51.23 96.1659 56.06 95.7159 59.72H98.7459L98.4759 46.31L96.4659 46.28ZM120.564 42.08L120.774 65H117.624L117.564 52.13L111.234 63.95H111.174L106.914 63.86L107.184 41L110.394 41.09L110.424 54.92L117.264 42.08H120.564ZM134.222 42.14V46.91H130.382L130.502 63.59H126.182L126.062 46.91H121.982V42.14H134.222ZM146.484 45.17H140.124V48.98H144.054V53.15H140.124V60.05H146.484V64.97H140.124H135.414V60.05V53.15V48.98V45.17V41H140.124H146.484V45.17ZM170.047 42.08L170.257 65H167.107L167.047 52.13L160.717 63.95H160.657L156.397 63.86L156.667 41L159.877 41.09L159.907 54.92L166.747 42.08H170.047ZM175.604 65H172.154L172.064 41L175.424 41.06L179.114 52.25L183.044 41.21L186.404 41.12L187.274 64.64L183.824 64.76L183.314 50.6L180.104 58.37L177.974 58.34L175.544 52.43L175.604 65ZM201.116 62.84L196.586 62.87L196.556 55.01L192.356 62.72H188.486L193.616 52.97C190.526 52.13 189.896 48.77 189.896 47.3C189.896 45.92 190.616 44.63 191.876 43.7C193.616 42.38 196.706 41.81 200.966 42.08L201.116 62.84ZM192.446 47.72C192.446 49.25 193.136 50.63 196.496 51.05L196.466 44.75C195.536 44.87 193.766 44.84 192.866 46.25C192.656 46.58 192.446 47.3 192.446 47.72Z" fill="#FFEED5"/>
<g opacity="0.3">
<path d="M420.656 3.10646C420.754 3.40165 420.941 3.89363 421.193 4.48401L406.368 4.48401C410.841 3.59844 416.807 2.66914 420.623 3.10646M425.009 5.85063C425.458 7.05326 426.818 10.1145 429.099 10.6393L429.099 12.487C426.401 11.7872 424.274 8.48548 422.969 5.85063L425.009 5.85063ZM425.009 199.911L423.046 199.911C424.351 197.298 426.445 194.105 429.099 193.417L429.099 195.122C426.818 195.647 425.458 198.708 425.009 199.911M420.623 202.797C416.565 203.256 410.162 202.207 405.622 201.277L421.215 201.277C420.941 201.933 420.732 202.469 420.623 202.797M7.33778 195.144L7.33778 192.4C9.28961 195.953 13.0178 198.533 15.4631 199.911L11.4827 199.911C11.0331 198.708 9.6734 195.647 7.38164 195.122M11.4827 5.85063L15.4631 5.85063C13.0178 7.20632 9.28961 9.80837 7.37067 13.3725L7.37067 10.6393C9.66244 10.1145 11.0221 7.05325 11.4717 5.85063M16.0881 6.76901C16.8448 6.33169 17.4588 6.02556 17.8426 5.85063L414.789 5.85063C410.621 6.42835 406.42 6.73514 402.212 6.76901L16.0881 6.76901ZM418.605 199.911C413.169 198.997 407.67 198.504 402.157 198.435L15.1561 198.435C12.2283 196.631 8.19307 193.406 7.37067 189.164L7.37067 16.5977C8.16018 12.3557 12.2393 9.13053 15.1671 7.31566L402.245 7.31566C407.757 7.25082 413.256 6.761 418.693 5.85063L421.884 5.85063C423.287 8.80253 425.809 12.9024 429.241 13.613L429.241 192.291C425.864 192.99 423.364 196.97 421.949 199.944L418.605 199.911ZM17.8316 199.911C17.4588 199.725 16.8448 199.419 16.0772 198.982L402.19 198.982C406.398 199.019 410.599 199.33 414.767 199.911L17.8316 199.911ZM401.247 4.48401L10.4739 4.48401L10.3862 4.96506C10.0024 6.17862 8.5988 9.33825 6.74565 9.33825L6 9.33825L6 196.412L6.69082 196.412C8.54397 196.412 9.98043 199.572 10.3313 200.785L10.4739 201.267L400.666 201.267C403.462 201.977 415.008 204.689 421.138 203.836L421.478 203.836L421.577 203.508C421.577 203.508 421.895 202.568 422.454 201.321L426.05 201.321L426.204 200.84C426.577 199.616 427.969 196.467 429.844 196.467L430.524 196.467L430.524 9.39292L429.844 9.39292C427.98 9.39292 426.555 6.22236 426.204 5.01973L426.05 4.53868L422.388 4.53868C421.873 3.35792 421.588 2.51609 421.577 2.49422L421.478 2.16623L421.138 2.16623C415.348 1.35719 404.811 3.71872 401.247 4.58242" fill="white"/>
</g>
<line x1="35" y1="81.5" x2="407" y2="81.5" stroke="url(#paint1_linear_129_2433)"/>
<defs>
<linearGradient id="paint0_linear_129_2433" x1="23.6936" y1="345.517" x2="194.098" y2="416.779" gradientUnits="userSpaceOnUse">
<stop stop-color="#121212"/>
<stop offset="0.528673" stop-color="#272727"/>
<stop offset="1" stop-color="#121212"/>
</linearGradient>
<linearGradient id="paint1_linear_129_2433" x1="35" y1="82.5" x2="407" y2="82.5" gradientUnits="userSpaceOnUse">
<stop stop-color="#747474" stop-opacity="0"/>
<stop offset="0.500188" stop-color="#A7A7A7"/>
<stop offset="1" stop-color="#DADADA" stop-opacity="0"/>
</linearGradient>
<clipPath id="clip0_129_2433">
<rect width="357" height="47.0762" fill="white" transform="translate(48 101)"/>
</clipPath>
</defs>
</svg>
