<svg width="38" height="38" viewBox="0 0 38 38" fill="none" xmlns="http://www.w3.org/2000/svg">
<g opacity="0.3">
<path d="M17.2621 0.245079C16.9893 0.323006 16.7555 0.634716 16.7555 0.8685C16.7555 1.14125 16.5607 1.99845 16.3659 2.77773C16.0542 3.90768 15.7035 4.25835 14.8073 4.45317C13.8332 4.64799 13.4436 4.49214 12.2747 3.28426C11.0668 2.07638 10.7551 1.95949 10.2486 2.38809C9.8979 2.66084 9.54722 2.85566 9.4693 2.77773C9.39137 2.73877 9.0407 2.81669 8.69002 3.01151C8.22245 3.28426 8.14453 3.6739 8.33935 4.49214C9.0407 7.3365 9.0407 7.57028 8.18349 8.34956C7.48214 8.97298 7.20939 9.01195 6.07944 8.62231C3.97539 7.84303 3.31301 8.03785 2.49477 9.55744L1.75445 10.9601L3.27404 12.2849C4.67674 13.4928 4.75467 13.6876 4.44296 14.8565C4.09228 15.9865 3.8585 16.1813 2.22202 16.493C0.234862 16.8437 -0.310632 17.7009 0.156934 19.6101C0.351754 20.3504 0.741392 20.6232 2.22202 20.857C3.8585 21.1687 4.09228 21.3635 4.44296 22.4934C4.75467 23.6624 4.67674 23.8572 3.27404 25.0651L1.75445 26.3898L2.49477 27.7925C2.92337 28.5718 3.54679 29.1952 3.93643 29.1952C4.91053 29.1952 5.88462 28.7666 5.65084 28.4549C5.57291 28.2991 6.00151 28.2601 6.62494 28.338C8.22245 28.5718 9.11862 29.7018 8.80691 31.0265C8.02763 34.1047 8.02763 34.0657 9.54722 34.845L10.9889 35.6243L12.3137 34.1047C13.5215 32.702 13.7164 32.624 14.8853 32.9358C15.9763 33.2475 16.21 33.5202 16.4828 35.0398C16.9114 37.1049 16.7945 36.988 18.1193 37.2218C19.4051 37.4556 20.6519 37.1049 20.6519 36.4815C20.6519 35.1957 21.5091 33.0916 22.0546 33.0916C22.3663 33.0916 22.717 32.8189 22.8729 32.5072C23.0287 32.0396 23.4184 32.2734 24.5873 33.5592C26.0679 35.1177 27.2758 35.7801 27.2758 35.0008C27.2758 34.7671 27.3927 34.6891 27.5875 34.806C27.7433 34.884 28.2109 34.7281 28.6395 34.4164C29.3019 33.9099 29.3409 33.715 28.8733 31.8837C28.4057 30.1304 28.4447 29.8576 29.0681 29.1563C29.6136 28.5718 30.0812 28.4159 30.8605 28.5718C34.3672 29.3121 34.0945 29.3511 34.8737 27.8315L35.653 26.3898L34.1334 25.0651C32.7307 23.8572 32.6528 23.6624 32.9645 22.4934C33.3152 21.3635 33.549 21.1687 35.1854 20.857C36.6661 20.6232 37.0557 20.3504 37.2505 19.6101C37.7181 17.7009 37.1726 16.8437 35.1854 16.493C33.549 16.1813 33.3152 15.9865 32.9645 14.8565C32.6138 13.6486 32.6918 13.4928 34.0165 12.4018C35.4582 11.1939 35.614 10.4146 34.601 9.01195C34.0945 8.27163 33.7048 8.23267 30.7825 8.77816C29.5747 8.97298 29.3409 8.85609 28.8343 7.95992C28.4057 7.14168 28.4057 6.71308 28.7564 5.66105C29.4967 3.71286 29.3409 3.2453 27.7823 2.50498L26.3407 1.80363L25.0938 3.2453C24.0418 4.45317 23.7301 4.60903 22.678 4.41421C21.665 4.21939 21.3533 3.90768 21.0416 2.73877C20.8467 1.95949 20.6519 1.14125 20.6519 0.907463C20.6519 0.128185 18.5479 -0.300415 17.2621 0.245079ZM20.8078 11.3498C21.704 11.6225 23.1066 12.5187 24.0028 13.4149C27.1589 16.6099 27.1589 20.779 23.9639 23.9351C20.8467 27.0522 16.5607 27.0522 13.4436 23.9351C10.2486 20.779 10.2486 16.6099 13.4436 13.4149C15.7035 11.116 17.9245 10.4926 20.8078 11.3498Z" fill="#ECECEC"/>
</g>
</svg>
