<svg width="110" height="126" viewBox="0 0 110 126" fill="none" xmlns="http://www.w3.org/2000/svg">
<path d="M91.867 13.4335L53.7373 1.7821L15.6075 13.4335C15.6075 13.4335 14.054 33.2637 0.574951 36.0052L0.574951 63.0547C0.574951 63.0547 13.2087 113.224 53.7373 124.053C94.2887 113.224 106.9 63.0547 106.9 63.0547V36.0052C93.4206 33.2637 91.867 13.4335 91.867 13.4335" fill="#3A3A3A"/>
<path d="M56.7734 115.417C56.5418 115.123 56.2472 114.884 55.9112 114.718C55.5752 114.552 55.2063 114.463 54.8315 114.458C54.4601 114.463 54.0946 114.552 53.7623 114.718C53.43 114.884 53.1395 115.123 52.9125 115.417C22.5275 104.634 10.6248 66.9841 9.13981 62.0037V43.2015C9.62265 43.0083 10.0359 42.6736 10.3253 42.2415C10.6147 41.8094 10.7669 41.2999 10.7619 40.7799C10.7747 40.6584 10.7747 40.5359 10.7619 40.4143C19.192 34.8628 22.3447 24.4222 23.4185 19.419L52.8668 10.4177C53.0974 10.7225 53.3939 10.9712 53.7341 11.1453C54.0743 11.3193 54.4495 11.4143 54.8315 11.4229C55.2146 11.4194 55.5916 11.3267 55.9326 11.1522C56.2736 10.9778 56.5693 10.7263 56.7963 10.4177L86.2903 19.419C87.3641 24.4222 90.5168 34.8628 98.9469 40.4143C98.9469 40.4143 98.9469 40.6428 98.9469 40.7799C98.9413 41.2941 99.0879 41.7984 99.3685 42.2294C99.649 42.6603 100.051 42.9986 100.523 43.2015V62.0037C99.084 66.9841 87.1584 104.634 56.7963 115.417M87.9809 18.5052V17.9569L57.3217 8.61289C57.3217 7.95245 57.0594 7.31906 56.5924 6.85206C56.1254 6.38505 55.492 6.12269 54.8315 6.12269C54.1711 6.12269 53.5377 6.38505 53.0707 6.85206C52.6037 7.31906 52.3413 7.95245 52.3413 8.61289L21.7964 17.9569V18.5052C20.9054 23.0743 18.0269 33.3778 9.89372 38.7694C9.45831 38.4009 8.91046 38.1914 8.34021 38.1754C7.99543 38.1693 7.65292 38.2324 7.3329 38.3608C7.01288 38.4892 6.72184 38.6805 6.47694 38.9232C6.23205 39.166 6.03827 39.4553 5.90705 39.7742C5.77583 40.0931 5.70983 40.4351 5.71293 40.7799C5.71406 41.2986 5.86869 41.8053 6.15735 42.2363C6.446 42.6672 6.85576 43.0031 7.33499 43.2015L7.33499 62.1408V62.3921C8.6372 66.9612 20.7455 106.005 52.2728 117.222C52.3077 117.879 52.5919 118.498 53.0674 118.952C53.543 119.406 54.1739 119.662 54.8315 119.667C55.5001 119.661 56.1393 119.391 56.6099 118.916C57.0806 118.441 57.3446 117.799 57.3446 117.131C70.2525 112.562 81.3784 103.035 90.4254 88.642C95.5262 80.4657 99.5137 71.6455 102.282 62.4149V43.2015C102.763 43.0056 103.175 42.6704 103.464 42.2389C103.753 41.8073 103.906 41.2993 103.904 40.7799C103.911 40.442 103.85 40.1062 103.725 39.7919C103.601 39.4777 103.415 39.1912 103.179 38.9491C102.944 38.7069 102.662 38.5139 102.351 38.3811C102.041 38.2483 101.707 38.1784 101.369 38.1754C100.798 38.1914 100.25 38.4009 99.8151 38.7694C91.7048 33.3778 88.8034 22.9601 87.9352 18.5052M106.212 62.849C105.389 66.253 92.3216 111.945 54.8315 122.271C17.3415 111.945 4.27364 66.253 3.35981 62.849L3.35981 37.353C14.9198 33.9718 17.6842 19.0763 18.2325 14.7813L54.7859 3.5868L91.3392 14.7813C91.8875 19.1448 94.6519 33.9718 106.235 37.353L106.212 62.849ZM108.314 34.2688C96.2511 31.8243 94.6062 13.4562 94.6062 13.2735V12.1083L54.8315 0L15.1254 12.154V13.3191C15.1254 13.5019 13.5034 31.87 1.41791 34.3145L0.00146484 34.5887L0.00146484 63.0775L0.00146484 63.4887C0.184232 63.9684 13.3891 114.778 54.4203 125.652H54.8315H55.2428C96.3653 114.709 109.479 63.9684 109.616 63.4201V34.5201L108.314 34.2688Z" fill="#FCE9CE"/>
</svg>
