<svg width="26" height="40" viewBox="0 0 26 40" fill="none" xmlns="http://www.w3.org/2000/svg">
<path d="M10.8847 0.148895C6.86862 0.786964 3.07774 3.48937 1.3512 7.01752C0.150134 9.45719 0 10.2079 0 13.2856C0 18.5028 3.45308 23.307 8.59516 25.1086L10.5469 25.8218V27.9612V30.1381H7.91956H5.29222V32.3901V34.6421H7.91956H10.5469V37.2319V39.8217L12.4236 39.9719C13.4745 40.0094 14.4879 40.0094 14.6756 39.9719C14.9008 39.8968 15.0509 38.6582 15.0509 37.2319V34.6421H17.6783H20.3056V32.3901V30.1381H17.6783H15.0509V27.9236C15.0509 25.8593 15.126 25.7092 16.0268 25.484C19.6675 24.5456 22.8203 21.8432 24.5469 18.1274C25.4852 16.0631 25.6353 15.2373 25.6353 12.8727C25.5603 9.60732 25.0723 8.03092 23.3083 5.40358C20.6809 1.53764 15.5764 -0.601772 10.8847 0.148895ZM16.4772 5.32851C18.6541 6.45452 20.193 8.33119 20.8686 10.6958C21.4316 12.6851 21.4316 13.0229 20.8686 14.9371C19.7426 18.8406 16.7775 21.1301 12.7989 21.1301C8.82036 21.1301 5.85522 18.8406 4.72921 14.9371C4.16621 13.0229 4.16621 12.6851 4.72921 10.6958C5.40482 8.36872 6.90615 6.49205 9.04556 5.36605C10.8472 4.39017 14.6005 4.39017 16.4772 5.32851Z" fill="#FCE9CE"/>
</svg>
