<svg width="32" height="34" viewBox="0 0 32 34" fill="none" xmlns="http://www.w3.org/2000/svg">
<path d="M14.4109 5.39148C12.0127 6.01245 9.83022 6.58448 9.55504 6.68328C8.98406 6.87486 8.76566 6.85588 12.0244 7.04599C13.0605 7.10217 14.6838 7.21786 15.646 7.29724C16.6081 7.37662 17.535 7.42332 17.6915 7.42423C17.8686 7.43116 18.1018 6.9394 18.4151 5.86641C18.6621 5.02039 18.8463 4.3128 18.8257 4.30677C18.7844 4.29472 16.8032 4.79114 14.4109 5.39148Z" fill="#2A2A2A"/>
<path d="M19.241 6.10743C18.9277 7.18042 18.8597 7.72038 19.0333 7.81587C19.4245 8.08683 22.3208 9.67149 22.6389 9.80916C22.798 9.87799 23.7075 10.3675 24.673 10.8957C25.6118 11.4386 26.4362 11.836 26.4629 11.8214C26.5369 11.7982 21.0347 5.86977 19.8399 4.66994C19.7488 4.59855 19.4941 5.24078 19.241 6.10743Z" fill="#2A2A2A"/>
<path d="M16.6302 8.14437C16.3172 8.14256 15.2811 8.08637 14.3129 8.02763C13.3508 7.94824 11.81 7.85666 10.9037 7.81598C9.99746 7.77531 8.7963 7.67092 8.25634 7.60284C6.51265 7.36244 6.60905 7.03229 6.80089 12.6643C6.82649 13.3436 6.83476 14.4657 6.83973 15.1389C6.86533 15.8182 6.88912 16.8105 6.93023 17.3599L7.00131 18.3436L7.52079 17.8683C7.8029 17.5923 8.51246 16.9262 9.0827 16.3537C10.5319 14.9182 11.0962 14.3663 12.5334 12.9721C13.2223 12.2999 13.8106 11.6655 13.8347 11.5829C13.8648 11.4798 13.9568 11.3947 14.0721 11.3835C14.1667 11.3663 14.7188 10.8558 15.3278 10.2274C15.9367 9.59902 16.679 8.89761 16.9817 8.6277C17.5691 8.1498 17.5339 8.11712 16.6302 8.14437Z" fill="#2A2A2A"/>
<path d="M18.9244 8.72463C18.9063 8.78654 19.0961 9.67051 19.3468 10.729C19.5976 11.7876 19.7874 12.6715 19.7693 12.7335C19.7573 12.7747 19.9213 13.5168 20.1498 14.3449C20.3722 15.1936 20.7243 16.5953 20.8995 17.4526C21.3941 19.7468 21.766 21.3109 21.9652 22.0857L22.1473 22.7659L22.7365 21.975C23.0462 21.528 24.2462 19.7958 25.3722 18.0867C26.4982 16.3777 27.6002 14.7512 27.8143 14.4778C28.3141 13.8399 28.1706 13.6413 26.8689 13.0373C26.3772 12.8041 25.3085 12.2458 24.5228 11.7924C23.737 11.3391 22.389 10.5872 21.5353 10.1364C20.6876 9.66495 19.7635 9.14877 19.4841 8.95523C19.178 8.7763 18.9425 8.66273 18.9244 8.72463Z" fill="#2A2A2A"/>
<path d="M17.5783 9.11544C17.4596 9.21515 17.4174 9.35959 17.4612 9.43957C17.499 9.54018 17.579 9.49635 17.6152 9.37254C17.7537 8.89795 18.0589 9.23338 18.1257 9.92471C18.1678 10.3177 18.2777 10.7081 18.3628 10.8001C18.4479 10.8921 18.4351 10.5525 18.3467 10.0116C18.1398 9.03306 17.9464 8.77505 17.5783 9.11544Z" fill="#2A2A2A"/>
<path d="M15.5263 11.1587C15.1607 11.567 14.8872 11.8902 14.9491 11.9083C15.0935 11.9505 16.3527 10.7058 16.2797 10.5725C16.2565 10.4985 15.9125 10.7564 15.5263 11.1587Z" fill="#2A2A2A"/>
<path d="M18.6151 12.0832C18.7096 12.6035 18.8487 13.0472 18.89 13.0592C18.9519 13.0773 18.9159 12.6637 18.8215 12.1435C18.727 11.6233 18.5879 11.1795 18.5466 11.1675C18.4847 11.1494 18.5207 11.563 18.6151 12.0832Z" fill="#2A2A2A"/>
<path d="M13.9462 12.7352C13.5867 13.1229 13.3338 13.4521 13.3957 13.4702C13.437 13.4823 13.793 13.1831 14.1525 12.7954C14.5121 12.4078 14.7649 12.0785 14.703 12.0604C14.6618 12.0484 14.3057 12.3475 13.9462 12.7352Z" fill="#2A2A2A"/>
<path d="M19.0984 14.262C19.2075 14.8089 19.3587 15.2113 19.418 15.1615C19.5513 15.0884 19.1597 13.3618 19.0153 13.3196C18.9534 13.3015 19.01 13.7211 19.0984 14.262Z" fill="#2A2A2A"/>
<path d="M4.36973 14.9328L2.85494 20.0441L4.27465 19.6301C5.03482 19.4042 5.77435 19.1722 5.90764 19.0992C6.14155 18.9883 6.18057 17.8577 6.02741 15.2377C6.0104 14.6057 5.94806 13.1319 5.9312 11.9625L5.86389 9.81547L4.36973 14.9328Z" fill="#2A2A2A"/>
<path d="M26.6176 17.7338C26.0963 18.5221 24.9617 20.1838 24.1367 21.3985C23.2912 22.6072 22.6262 23.7343 22.6519 23.8762C22.6571 24.012 23.1229 24.6407 23.698 25.2789L24.7337 26.4099L26.2098 21.3544C27.0232 18.5688 27.6653 16.293 27.6446 16.2869C27.6034 16.2749 27.1449 16.9248 26.6176 17.7338Z" fill="#2A2A2A"/>
<path d="M12.5035 14.1502C12.2093 14.4674 11.7492 14.8929 11.5118 15.0923C11.2684 15.3123 11.1256 15.4946 11.1875 15.5126C11.3113 15.5488 12.6822 14.3815 12.9859 13.9551C13.3876 13.423 13.0797 13.557 12.5035 14.1502Z" fill="#2A2A2A"/>
<path d="M19.7104 16.7696C19.6802 16.8727 19.7902 17.2631 19.9328 17.6183C20.0986 18.0474 20.1752 18.0921 20.109 17.7817C19.9571 16.9984 19.7766 16.5426 19.7104 16.7696Z" fill="#2A2A2A"/>
<path d="M20.133 18.3931C20.0788 18.5788 20.5091 20.2496 20.6122 20.2797C20.6741 20.2978 20.6433 20.0201 20.5746 19.6417C20.3642 18.7517 20.1812 18.228 20.133 18.3931Z" fill="#2A2A2A"/>
<path d="M7.57064 19.0025C7.35044 19.2965 7.83964 19.4617 14.3395 21.3595C20.8393 23.2573 21.3406 23.3813 21.3132 23.015C21.2969 22.7639 21.2204 22.7192 21.1163 22.8455C20.9107 23.1662 7.8285 19.3465 7.82775 18.9656C7.80802 18.803 7.71945 18.7996 7.57064 19.0025Z" fill="#2A2A2A"/>
<path d="M4.85868 20.3157C4.00995 20.5381 3.31169 20.7821 3.28759 20.8647C3.26349 20.9472 3.55659 21.3239 3.96491 21.6894C4.34657 22.0696 5.06259 22.8385 5.56715 23.4113C6.07774 23.9635 6.53847 24.4563 6.60037 24.4744C6.66228 24.4924 7.14364 24.9913 7.64821 25.5641C8.15277 26.1369 8.6135 26.6297 8.65477 26.6418C8.71667 26.6598 9.06309 27.0073 9.4327 27.4287C9.80231 27.8502 10.1195 28.1443 10.1376 28.0824C10.1557 28.0205 9.82912 27.2981 9.44415 26.4692C8.11046 23.7508 6.85329 21.0772 6.59378 20.5088L6.36093 19.9257L4.85868 20.3157Z" fill="#2A2A2A"/>
<path d="M8.24704 21.977C9.1218 23.8895 10.5629 26.9303 11.3887 28.627L11.8991 29.7166L13.0636 29.0265C15.0579 27.7949 17.5028 26.247 19.142 25.1581L20.7218 24.119L14.0776 22.179L7.4539 20.245L8.24704 21.977Z" fill="#2A2A2A"/>
<path d="M21.3383 24.7692C21.107 24.948 20.0578 25.6269 19.0206 26.2646C15.9504 28.1898 14.9666 28.7983 14.5632 29.106C14.1659 29.3931 14.6922 29.278 19.4233 28.1065C20.751 27.7776 22.2945 27.3997 22.8741 27.2554C23.427 27.1258 23.9034 26.9513 23.9215 26.8894C23.9697 26.7244 23.8554 26.579 22.5669 25.2399L21.7804 24.4056L21.3383 24.7692Z" fill="#2A2A2A"/>
<path d="M17.6716 3.81289C12.9671 4.96974 12.3548 5.14927 12.439 5.39779C12.4588 5.56031 12.4115 5.56889 12.2911 5.44418C12.1914 5.32549 11.2842 5.44131 10.2876 5.71015C9.27035 5.97297 8.40099 6.1894 8.33908 6.17133C8.27718 6.15325 7.7449 6.28895 7.16789 6.50117C6.25379 6.79411 6.0491 6.95828 5.72301 7.69163C5.19644 8.8815 3.52816 15.5155 3.79129 15.458C3.8919 15.4202 3.96239 15.4856 3.92624 15.6094C3.89612 15.7126 3.7568 15.8062 3.62094 15.8114C3.43779 15.8251 3.11426 16.6263 2.64779 18.1473L1.94635 20.4729L2.41822 21.081C2.67608 21.425 3.33622 22.1552 3.85283 22.6867C4.39008 23.2243 5.29438 24.1153 5.86084 24.7062C6.43333 25.2764 7.0995 25.986 7.34877 26.2827C7.58599 26.6207 7.93331 26.8117 8.18439 26.7954C8.43546 26.7791 8.51198 26.8239 8.38727 26.9442C8.11118 27.1995 10.9899 30.3018 11.6708 30.5006C12.001 30.597 13.1713 30.4237 14.4637 30.062C15.6882 29.703 16.7674 29.4582 16.8912 29.4944C16.9944 29.5245 17.2283 29.4137 17.3857 29.2581C17.5697 29.0879 17.697 29.0355 17.6669 29.1386C17.6368 29.2418 17.7666 29.2573 17.9412 29.1963C18.1011 29.1087 18.8965 28.9154 19.6859 28.7428C22.6009 28.116 24.0232 27.7699 24.6123 27.5164L25.2426 27.275L27.2127 20.5275L29.1889 13.7594L28.723 13.1307C28.4918 12.7721 28.0724 12.2913 27.8317 12.0419C27.585 11.8131 25.9269 10.0526 24.1338 8.14061C21.2405 5.01168 19.7259 3.44977 19.5402 3.39555C19.4989 3.3835 18.6622 3.56469 17.6716 3.81289ZM18.9318 4.94223C18.5754 6.31615 18.1796 7.36504 17.9724 7.46128C17.8657 7.51972 17.3429 7.54623 16.8176 7.5048C14.4359 7.30205 8.6269 6.94957 8.3698 6.98646C8.22792 7.01222 8.46785 6.88073 8.88235 6.68825C9.31749 6.50179 9.71993 6.35057 9.82311 6.3807C9.90564 6.40479 10.8696 6.1712 11.9402 5.87916C13.0168 5.56649 13.9334 5.34147 13.9953 5.35955C14.0366 5.3716 15.1485 5.09161 16.4409 4.72999C17.754 4.37439 18.8865 4.10043 18.9897 4.13056C19.0722 4.15465 19.0317 4.52351 18.9318 4.94223ZM20.666 5.29182C21.1061 5.77862 21.4792 6.11149 21.5033 6.02895C21.5274 5.94641 21.5979 6.01178 21.6443 6.15968C21.7688 6.57674 23.1158 8.02252 23.4459 8.11892C23.611 8.16712 23.752 8.29786 23.7631 8.41308C23.7708 8.61686 25.9799 11.0981 26.2275 11.1704C26.31 11.1945 26.5945 11.5239 26.8464 11.8886L27.3208 12.5646L26.2702 11.9443C25.3375 11.3808 22.2262 9.68864 19.7064 8.34828C19.2413 8.10051 18.8149 7.79687 18.7565 7.69023C18.5519 7.317 19.4436 4.2631 19.7119 4.34142C19.7944 4.36552 20.2319 4.78439 20.666 5.29182ZM16.9935 8.74302C16.5359 9.23644 14.876 10.8568 11.6094 14.0682C9.94338 15.7091 9.13576 16.481 8.15268 17.4704C7.54976 18.0782 6.98901 18.5415 6.90647 18.5174C6.82393 18.4933 6.75616 17.9584 6.77439 17.3591C6.79864 16.7392 6.70421 16.219 6.62167 16.1949C6.5185 16.1647 6.50133 16.0701 6.59336 15.985C6.68539 15.8999 6.72019 14.4769 6.66477 12.826C6.61539 11.1545 6.57805 9.44165 6.56871 9.01345C6.58001 8.59127 6.55351 8.06848 6.52519 7.85867C6.48061 7.39778 6.93548 7.37384 10.1882 7.58458C11.3954 7.66833 12.821 7.77106 13.367 7.81851C17.9361 8.12249 17.6412 8.05878 16.9935 8.74302ZM20.412 9.38287C21.2657 9.83367 22.2724 10.3739 22.6404 10.571C23.0084 10.768 24.1887 11.4037 25.2513 11.9827C28.1064 13.5553 28.4769 13.8203 28.1913 14.1847C28.0546 14.3464 27.7509 14.7727 27.5333 15.1347C27.295 15.4906 26.2705 17.0053 25.2727 18.5055C24.2542 19.9996 23.1583 21.6054 22.8366 22.0937C22.5294 22.6087 22.2172 22.9878 22.1347 22.9637C22.0521 22.9396 21.8288 22.2474 21.6476 21.4107C21.4604 20.5946 21.2303 19.5421 21.1177 19.0838C21.0052 18.6255 20.7691 17.5936 20.5965 16.8042C20.4239 16.0148 20.2075 15.1455 20.1499 14.8823C20.0718 14.6132 19.8845 13.7971 19.7351 13.0817C19.5651 12.3603 19.2774 11.0446 19.0937 10.14C18.8833 9.25001 18.7545 8.54061 18.7958 8.55266C18.8164 8.55868 19.5583 8.93207 20.412 9.38287ZM18.2668 9.1372C18.3183 9.42096 18.6463 10.9051 19.0096 12.422C20.327 17.9572 20.9058 20.4999 21.251 22.0787L21.5412 23.4622L14.3398 21.3596L7.13841 19.2569L8.12752 18.2469C8.66508 17.7096 9.63611 16.7615 10.2657 16.1392C10.9159 15.5228 11.7683 14.6744 12.2078 14.2429C12.6473 13.8114 13.9597 12.5375 15.1209 11.3985C16.282 10.2596 17.4104 9.15587 17.6065 8.9444C17.8086 8.7123 18.0133 8.54813 18.0752 8.56621C18.1371 8.58428 18.2213 8.8328 18.2668 9.1372ZM6.21229 16.5232C6.23352 17.4475 6.25731 18.4398 6.25294 18.6848C6.24767 19.0864 6.0963 19.2213 5.38945 19.418C4.9251 19.5512 4.56648 19.7824 4.59826 19.9036C4.63862 20.0722 4.59133 20.0807 4.47099 19.956C4.37128 19.8373 3.9964 19.8175 3.65329 19.9188C3.31018 20.0202 2.98515 20.0596 2.95593 20.0063C2.93274 19.9324 3.46985 17.9394 4.15668 15.5871C4.88313 13.0224 5.34283 11.1412 5.26119 10.9606C5.16495 10.7534 5.22173 10.6356 5.3963 10.5746C5.51755 10.5428 5.71109 10.2634 5.8221 9.95992C5.98733 9.47072 6.10886 11.432 6.21229 16.5232ZM26.2735 21.5969C25.4318 24.1727 24.7167 26.3152 24.6694 26.3238C24.5834 26.3883 22.327 23.9156 22.3571 23.8124C22.3632 23.7918 23.0453 22.7593 23.8702 21.5446C24.7012 20.3092 25.9132 18.5357 26.53 17.5738C28.1653 15.1177 28.1315 15.8468 26.2735 21.5969ZM20.9323 24.0906C20.8901 24.235 18.4537 25.8302 15.3956 27.7141C14.3851 28.3372 13.2026 29.0892 12.7847 29.3702C12.3727 29.6307 11.9728 29.8498 11.8903 29.8257C11.7871 29.7956 11.2002 28.6613 10.5763 27.2699C9.94646 25.8991 9.31915 24.5963 9.2083 24.3624C8.64455 23.302 7.27742 20.238 7.31357 20.1142C7.33165 20.0523 10.4243 20.8881 14.1591 21.9786C17.9146 23.0751 20.9504 24.0287 20.9323 24.0906ZM23.4666 25.995C23.8628 26.4018 24.1705 26.8052 24.1404 26.9084C24.1163 26.9909 23.0277 27.3448 21.7473 27.6652C20.4402 28.0001 18.864 28.4133 18.2165 28.5601C17.5836 28.7336 17.0307 28.8633 16.9688 28.8452C16.9069 28.8272 16.3006 28.986 15.5938 29.1827C13.6358 29.7531 13.2196 29.7212 14.2035 29.1127C14.6627 28.8437 15.0746 28.5833 15.1546 28.5395C15.2346 28.4956 15.7059 28.1854 16.2305 27.8459C16.7344 27.5004 17.6649 26.9211 18.2902 26.5438C18.9154 26.1665 19.9646 25.4876 20.6345 25.0337L21.8557 24.2259L22.2898 24.7333C22.5245 25.0033 23.0497 25.5822 23.4666 25.995ZM7.28991 21.6525C7.67142 22.57 8.09254 23.2752 8.21378 23.2434C8.33503 23.2116 8.39091 23.2504 8.34015 23.3475C8.15866 23.5856 9.26718 25.9247 9.51569 25.8405C9.65758 25.8148 9.66616 25.8621 9.57413 25.9472C9.45545 26.0469 9.55334 26.4785 9.76646 26.8991C10.7676 28.9157 10.7762 28.963 9.73693 27.9205C8.76215 26.9641 4.83214 22.8607 3.67602 21.605C3.31499 21.2308 3.06919 20.8456 3.14058 20.7544C3.30144 20.5103 5.87428 19.8283 6.27236 19.9222C6.44346 19.9497 6.90841 20.7349 7.28991 21.6525Z" fill="#ECECEC"/>
<path d="M15.2146 11.9188C13.89 13.234 12.4795 14.6136 12.0787 14.9892C11.6986 15.3709 10.9443 16.1136 10.4127 16.6302C9.90184 17.1528 9.15959 17.8542 8.81814 18.18C8.45606 18.4998 8.13524 18.8316 8.11114 18.9141C8.08102 19.0173 10.9518 19.9227 14.4596 20.9469C17.9881 21.9771 20.8744 22.7527 20.8985 22.6701C20.9647 22.4432 20.3953 20.3287 20.2105 20.1179C20.1108 19.9993 20.1142 19.9107 20.1968 19.9348C20.2999 19.9649 20.2871 19.6253 20.1686 19.1876C20.0441 18.7705 19.8654 18.0018 19.7443 17.4962C19.6172 17.0112 19.43 16.1951 19.3295 15.6955C19.2024 15.2105 18.8306 13.6464 18.5111 12.2095C18.2063 10.7993 17.8558 9.62205 17.7733 9.59795C17.6701 9.56783 16.5331 10.6242 15.2146 11.9188Z" fill="#ECECEC"/>
</svg>
