<svg width="463" height="476" viewBox="0 0 463 476" fill="none" xmlns="http://www.w3.org/2000/svg">
<path d="M392.35 25.6367C378.616 39.8285 368.087 55.3936 368.087 60.8872C368.087 71.4166 393.724 96.1377 404.253 96.1377C410.662 96.1377 454.611 58.5982 461.02 47.1532C469.718 32.0459 444.997 -7.62939e-06 424.396 -7.62939e-06C419.818 -7.62939e-06 405.169 11.445 392.35 25.6367Z" fill="#ECECEC"/>
<path d="M260.047 181.746C205.111 238.971 151.091 294.822 140.561 305.352C129.574 315.881 120.876 327.784 120.876 331.446C120.876 335.108 160.246 297.111 208.315 246.753C256.384 196.853 297.586 155.651 299.875 155.651C314.525 155.651 301.248 171.674 189.088 286.124C132.321 344.722 131.405 345.638 141.019 352.963C146.055 357.083 155.211 361.661 161.162 363.492C171.691 367.154 174.438 373.106 166.656 377.684C149.717 388.213 80.5895 319.085 91.1189 302.147C96.1547 294.364 102.106 297.111 105.311 308.556C107.6 319.085 111.72 315.881 161.162 264.15C190.919 233.935 230.29 192.733 249.975 173.048L284.768 137.797H241.277C217.014 137.797 185.883 140.544 171.691 144.206C135.983 153.82 97.9859 169.385 97.9859 175.337C97.9859 178.084 96.6125 178.999 95.2391 177.168C90.6611 173.048 56.3262 197.769 37.0987 219.285C8.25737 250.873 -0.440799 272.39 0.0169995 311.303C0.0169995 355.709 11.9198 381.346 50.3748 419.801C93.8657 463.75 156.584 487.098 186.341 470.617C191.835 467.412 198.244 465.581 200.075 466.039C214.725 470.159 274.238 411.561 293.008 374.021C319.56 321.832 335.126 238.055 321.849 221.117C317.729 216.081 317.271 214.707 321.392 216.996C325.054 219.285 326.885 216.539 326.885 206.925C326.885 199.6 325.512 192.275 323.681 190.444C321.849 189.071 304.453 203.262 285.225 222.49C261.42 245.838 249.059 255.451 246.77 251.789C244.481 248.127 263.709 225.237 299.875 188.155C331.463 156.567 362.593 124.063 369.46 116.281L381.821 102.547L371.292 89.7284L360.304 77.3678L260.047 181.746ZM120.876 189.528C120.876 193.191 112.178 200.973 101.19 207.383C76.4694 222.032 45.7969 254.994 36.1831 277.426C20.1601 316.339 35.7253 363.95 78.3006 402.863C137.357 456.883 182.221 456.883 232.579 402.405C255.469 378.141 267.371 369.443 267.371 378.599C266.914 385.466 237.157 421.175 220.676 433.993C199.617 450.474 167.571 460.087 146.513 455.967C137.814 454.136 121.334 447.727 109.431 441.775C97.9859 435.366 85.6253 431.704 82.8785 433.077C79.674 434.909 78.7584 434.909 80.5895 432.62C82.4207 430.788 73.2648 417.054 59.9886 402.863C46.2547 388.213 31.6051 368.528 27.0271 358.914C15.1244 333.735 15.5821 287.497 27.9427 263.234C39.3877 241.26 75.5538 206.009 100.733 192.733C121.791 181.288 120.876 181.288 120.876 189.528Z" fill="#ECECEC"/>
</svg>
