<svg width="650" height="578" viewBox="0 0 650 578" fill="none" xmlns="http://www.w3.org/2000/svg">
<path d="M78.2677 11.6339C86.5081 40.0173 102.989 72.521 110.771 74.81C115.349 76.1834 119.927 83.5082 121.301 90.833C123.59 100.905 126.794 104.109 136.866 105.483C146.938 106.398 154.72 115.096 180.357 156.298C197.753 183.766 210.572 207.572 209.198 209.861C208.283 211.692 211.029 218.101 215.607 224.052C220.185 230.004 257.267 288.602 298.469 354.067C339.213 419.532 385.451 490.491 401.474 512.008C417.039 533.524 433.519 556.872 438.097 563.739C444.964 574.268 448.627 576.099 458.241 573.81C464.65 571.979 475.637 564.654 482.504 556.872L494.864 542.68L461.445 503.309C443.133 481.793 417.039 448.374 403.763 429.604C390.029 410.834 374.463 388.86 368.512 381.535C352.947 361.392 354.32 363.681 309.456 296.842C243.075 197.958 227.51 175.526 225.221 173.237C223.848 171.863 208.74 148.973 190.886 121.963C173.49 94.9531 155.178 71.6054 150.6 70.2321C146.022 68.4008 140.071 61.5339 137.782 54.6669C135.493 47.7999 122.674 34.066 109.398 23.9944C75.0632 -2.55792 74.1476 -3.01575 78.2677 11.6339Z" fill="#ECECEC"/>
<path d="M561.246 9.34555C538.814 25.8263 513.635 51.0052 513.635 56.9566C513.635 59.7034 509.057 65.197 503.105 68.8594C497.612 72.9796 476.553 100.447 455.952 130.204C435.809 160.419 401.016 211.235 379.042 243.281L338.298 302.337L347.912 318.817C352.947 327.973 358.899 336.214 361.188 336.672C363.019 337.129 378.126 315.613 394.607 289.06C411.088 262.05 429.4 234.125 434.893 227.258C440.845 220.391 444.965 211.693 444.049 208.946C442.676 205.741 455.952 181.478 472.433 154.926C497.612 115.555 505.394 106.399 515.466 105.483C524.622 104.11 528.284 100.905 530.573 90.8337C531.947 83.5089 536.525 76.1841 541.103 74.8108C548.885 72.5218 565.366 40.0181 573.606 11.6346C577.727 -3.47281 577.727 -3.47281 561.246 9.34555Z" fill="#ECECEC"/>
<path d="M179.441 33.1507C179.441 34.0663 181.273 40.4755 184.019 46.8847C186.766 55.1251 186.766 62.4498 183.562 69.7746C178.984 79.3884 181.273 85.3398 206.909 120.59C222.474 142.565 236.208 163.623 237.582 167.286C239.413 171.406 244.449 173.237 250.858 171.864C258.183 170.49 265.965 174.153 276.037 184.224L290.686 198.416L288.397 177.815C286.108 159.045 277.41 135.24 266.881 118.301C264.592 114.639 261.387 105.941 260.014 99.5315C258.183 91.2912 253.605 86.2554 245.822 84.4242C239.413 82.593 234.377 78.015 234.377 73.437C234.377 69.3168 224.306 59.2453 212.403 51.4627C185.393 33.6085 179.441 30.4039 179.441 33.1507Z" fill="#ECECEC"/>
<path d="M446.796 46.4269C434.435 54.6673 422.533 66.1122 419.786 72.0636C417.497 77.5572 410.63 83.0508 404.678 84.882C398.269 86.2554 393.691 91.7489 391.86 99.5315C390.487 105.941 387.282 114.639 384.993 118.301C374.006 135.24 365.765 159.045 363.476 177.815L361.188 198.416L375.837 184.682C384.535 176.442 394.607 171.406 400.558 172.321C408.799 173.237 416.581 164.081 442.218 126.999C469.686 85.7976 472.89 79.3884 468.312 69.7746C465.108 62.4498 465.108 55.1251 468.312 46.8847C470.601 40.0177 471.975 33.6085 471.059 32.6929C470.144 31.7773 459.156 38.1865 446.796 46.4269Z" fill="#ECECEC"/>
<path d="M0.442117 60.6188C-0.47348 61.9922 -0.0156817 77.0996 2.27331 94.0381C4.10451 110.977 5.9357 134.324 5.4779 144.854C5.4779 161.335 6.8513 165.455 14.6339 167.286C21.5009 169.117 22.8742 171.406 19.2119 175.526C11.4293 184.682 19.2119 209.861 31.5724 215.813C37.5238 218.559 41.644 224.053 41.1862 228.173C39.8128 235.498 66.3651 274.411 82.8459 289.518C90.1706 296.385 93.833 296.843 98.8688 292.723C103.905 288.603 106.194 289.976 110.314 301.421C113.976 312.866 116.723 315.155 124.506 312.866C130.915 311.035 133.662 311.95 133.662 316.986C133.662 325.684 150.142 335.298 157.467 330.72C160.214 328.889 161.129 329.347 159.756 332.093C157.009 336.214 201.416 358.646 205.078 354.983C205.994 354.526 199.585 339.876 190.886 322.48C173.948 289.518 171.659 278.989 180.357 270.291C184.019 266.628 184.477 262.05 180.357 253.81C176.237 244.654 177.152 239.16 184.477 223.595L193.633 204.825L171.659 169.575C140.071 118.301 138.24 116.47 117.639 122.422C103.905 126.084 98.411 125.626 90.6284 120.59C85.5927 116.928 75.0633 113.723 67.7385 113.723C56.7513 113.723 48.511 108.23 28.3678 86.2556C14.1761 71.1482 1.81551 59.7032 0.442117 60.6188Z" fill="#ECECEC"/>
<path d="M618.928 90.833C602.905 108.687 594.665 113.723 584.136 113.723C576.811 113.723 566.281 116.928 560.788 120.59C553.463 125.626 547.97 126.541 538.814 122.879C532.404 120.59 524.164 118.301 520.959 118.301C515.466 118.301 497.154 143.022 471.059 185.14L459.614 203.909L467.855 223.137C473.806 235.497 475.637 245.569 472.891 251.978C471.059 257.472 471.517 267.543 474.264 274.868C478.384 286.771 477.011 292.264 462.361 321.106C452.747 338.96 446.338 354.525 447.254 355.441C448.169 356.814 464.65 349.947 483.878 341.249C511.803 327.973 518.213 322.937 518.213 314.239C518.213 306.456 519.586 305.541 523.706 309.661C532.404 318.359 536.525 316.07 542.018 301.42C545.681 290.891 547.97 288.602 552.548 292.264C555.752 295.011 561.246 295.927 564.45 294.553C574.98 289.975 614.35 233.666 611.604 226.799C610.23 223.137 613.893 218.559 620.302 215.812C632.662 209.861 640.445 184.682 632.662 175.526C629 171.406 630.373 169.117 637.24 167.285C645.023 165.454 646.396 161.334 646.396 144.853C646.396 134.324 647.312 112.35 649.143 96.3266C652.348 60.6183 647.312 59.7028 618.928 90.833Z" fill="#ECECEC"/>
<path d="M280.157 387.029C276.037 391.607 260.014 413.124 244.448 435.098C228.426 457.072 212.86 477.673 210.114 480.878C206.909 484.082 193.633 499.647 179.899 515.67L155.178 544.512L166.165 555.957C172.116 562.366 182.646 570.606 189.513 574.269C201.415 580.678 201.873 580.22 233.003 537.187C270.543 484.998 299.384 442.423 307.625 426.857C313.118 417.244 312.66 413.581 303.962 398.474C292.517 378.331 288.855 376.5 280.157 387.029Z" fill="#ECECEC"/>
</svg>
