<svg width="55" height="56" viewBox="0 0 55 56" fill="none" xmlns="http://www.w3.org/2000/svg">
<path d="M26.8496 0.0507317C26.8031 0.143799 25.8724 0.236866 24.8952 0.283398C18.939 0.562595 13.5877 3.12192 8.32943 8.28709C2.93159 13.4988 0 19.5016 0 25.3182C0 34.6248 2.41972 41.5583 7.35223 46.4442C8.79476 47.9333 10.7491 49.562 11.6333 50.0738C12.5174 50.6322 13.355 51.2372 13.4946 51.3768C13.8669 51.9352 17.8687 53.7034 20.335 54.4479C24.9883 55.8439 32.4801 55.2855 38.1106 53.145C39.4601 52.6332 41.7867 51.3302 43.2293 50.26C53.1408 42.8612 56.91 32.5774 53.9319 20.7114C52.6289 15.3601 51.0468 12.6612 46.7658 8.38016C41.6471 3.21498 36.2028 0.609131 29.4555 0.0972672C28.106 0.00419998 26.9427 -0.0423355 26.8496 0.0507317ZM32.2009 3.72685C37.0869 4.70404 41.0887 6.8911 44.6718 10.4742C48.4875 14.3364 50.4419 18.059 51.5122 23.5034C52.2567 27.4587 52.2567 27.9241 51.5122 31.8794C50.4419 37.3238 48.4875 41.0464 44.6718 44.9087C40.9957 48.6313 36.9473 50.7253 31.4099 51.7956C27.7337 52.4936 27.1753 52.4936 23.4992 51.7956C17.9618 50.7253 13.9134 48.6313 10.2373 44.9087C6.42157 41.0464 4.46718 37.3238 3.39692 31.8794C2.65239 27.9241 2.65239 27.4587 3.39692 23.5034C4.46718 18.059 6.42157 14.3364 10.2373 10.4742C13.7273 6.98417 17.8222 4.75058 22.3359 3.77338C26.3843 2.88925 28.1525 2.88925 32.2009 3.72685Z" fill="#ECECEC"/>
<path d="M19.6375 8.70588C13.1228 11.5909 9.58633 15.4532 8.423 20.9906C7.91114 23.5965 8.51607 26.9934 10.0051 29.227C11.7734 31.9724 16.3802 33.4615 19.7305 32.3447C22.1503 31.5536 23.7789 30.0181 26.757 25.8301C30.154 20.9906 32.8064 19.3154 37.227 19.3154C39.3675 19.3154 40.8566 19.5946 42.113 20.2461L43.9743 21.1302L42.5783 20.0134C37.7854 16.0581 31.4569 16.8957 25.7799 22.154C22.476 25.2251 20.7543 25.6905 19.0791 23.8757C17.1712 21.8282 18.4742 17.6402 22.0107 14.3829C24.3373 12.1959 26.2917 11.2187 29.8748 10.4741C34.7607 9.49695 40.3912 11.6375 44.2535 15.9185C46.4406 18.4313 46.301 17.8729 43.7882 14.5225C41.7872 11.8701 37.0874 8.61282 33.5509 7.54256C32.1549 7.07723 29.549 6.7515 27.5016 6.7515C24.3839 6.7515 23.4532 6.98416 19.6375 8.70588Z" fill="#ECECEC"/>
<path d="M34.2495 23.0381C31.7367 24.2945 30.9922 25.039 28.4794 28.8082C25.7805 32.9031 24.1053 34.4387 21.2202 35.4159C18.4748 36.3466 15.264 36.1139 12.5185 34.7644L10.4711 33.7872L12.0532 35.1367C13.7284 36.5792 17.3114 37.9287 19.4054 37.9287C22.7093 37.9287 27.3626 35.6486 30.015 32.81C34.8544 27.5983 40.4849 31.1348 37.2741 37.3703C36.3435 39.1851 33.1792 42.3493 31.1783 43.4661C29.5962 44.3503 25.6874 45.374 23.7795 45.374C19.452 45.374 12.472 42.0236 10.0523 38.7663C9.4008 37.8356 9.4008 37.9287 10.0988 39.2316C10.9829 40.8603 14.3333 44.2107 16.2877 45.4205C19.545 47.468 22.9885 48.3986 26.9903 48.3521C29.1774 48.3056 31.2714 48.166 31.6436 48.0729C32.0159 47.9333 33.0396 47.6541 33.8307 47.468C34.6683 47.2818 35.5989 46.8165 35.8781 46.4908C36.1573 46.1185 36.6227 45.8393 36.8553 45.8393C37.8791 45.8393 42.2997 42.2563 43.8353 40.2088C44.766 38.9059 45.8362 36.6723 46.3016 34.9971C47.0461 32.2051 47.0461 31.8328 46.3481 29.4131C45.4174 26.2023 43.6957 24.1084 41.0433 22.9916C38.484 21.8748 36.5761 21.9213 34.2495 23.0381Z" fill="#ECECEC"/>
</svg>
