<?xml version="1.0" encoding="utf-8" ?><svg xmlns="http://www.w3.org/2000/svg" xmlns:xlink="http://www.w3.org/1999/xlink" width="4096" height="4096" viewBox="0 0 4096 4096"><path fill="#ECECEC" d="M2907.97 1057.24C2906.61 1053.26 2904.31 1048.83 2907.84 1045.01C2914.92 1037.36 2933.1 1014.1 2943.51 1014.11C2991.9 1014.12 3079.75 1091.36 3091.27 1133.13L3092.18 1136.33C3092.34 1136.98 3092.51 1137.62 3092.67 1138.27C3088.15 1153.83 3074.55 1177.33 3058.87 1183.1C3048.74 1187.77 3038.8 1205.06 3036.94 1215.92L3037.9 1223.46C3042.85 1241.13 3051.33 1259.46 3072.64 1259.27C3048.77 1261.41 2989.57 1278.59 2964.52 1285.24C2929.84 1294.44 2889.1 1302.81 2855.23 1312.45C2852.89 1360.58 2850.15 1408.69 2847 1456.77C2845.48 1480.39 2843.25 1505.72 2843.02 1529.34C2842.97 1534.16 2845.66 1537.93 2848.61 1541.61C2819.81 1528.5 2811.97 1524.72 2780.34 1524.19C2769.99 1530.46 2759.84 1535.39 2753.11 1545.45C2721.98 1587.66 2671.58 1644.68 2637.11 1686.27L2347.44 2031.98L2246.41 2152.28C2224.42 2178.51 2205.11 2199.86 2184.49 2227.31L2091.2 2338.47C2077.81 2354.28 2054.35 2380.08 2042.57 2395.96C2020.12 2423.31 1832 2654.84 1818.55 2660.99C1807 2673.82 1804.15 2678.24 1796.52 2694.57C1780.96 2678.39 1750.6 2656.3 1732.87 2640.96C1703.02 2615.15 1678.3 2592.39 1645.39 2570.21L1656.51 2563.24C1668.72 2555.69 1670.6 2554.54 1678.22 2542.08L1676.33 2537.68C1679.86 2526.59 1906.68 2255.76 1931.69 2226.38L2009.06 2133.71C2021.96 2118.31 2039.14 2096.53 2052.96 2082.53L2442.59 1619.01C2479.33 1576.13 2522.83 1517.98 2559.14 1479.27C2575.15 1460.73 2590.51 1441.64 2605.19 1422.02C2606 1418 2620.35 1382.29 2624.06 1368.32C2621.86 1360.53 2618.46 1353.19 2615.29 1345.71C2609.78 1339.51 2605.81 1334.78 2600.84 1328.14C2603.98 1329.22 2608.5 1330.58 2611.88 1329.75C2678.42 1313.44 2747.44 1297.74 2813.15 1278.85C2819.29 1203.83 2823.3 1128.65 2825.18 1053.41C2826.83 1080.18 2840.56 1091.81 2867.44 1083.67L2871.25 1080.57C2878.26 1081.37 2884.03 1087.02 2889.86 1091.53C2902.38 1084.38 2904.48 1070.17 2907.97 1057.24ZM2825.18 1053.41C2823.3 1128.65 2819.29 1203.83 2813.15 1278.85C2747.44 1297.74 2678.42 1313.44 2611.88 1329.75C2608.5 1330.58 2603.98 1329.22 2600.84 1328.14C2605.81 1334.78 2609.78 1339.51 2615.29 1345.71C2618.46 1353.19 2621.86 1360.53 2624.06 1368.32C2620.35 1382.29 2606 1418 2605.19 1422.02C2614.12 1425.47 2625.52 1436.93 2632.02 1444.03C2599.3 1485.25 2541.69 1556.37 2515.98 1600.04C2562.55 1559.5 2611.03 1505.81 2653.21 1459.54C2670.99 1475.08 2689.54 1491.86 2707.81 1506.64C2677.93 1539.05 2637.29 1591.63 2609.47 1628.19C2566.07 1685.21 2505.79 1757.93 2467.29 1817.17C2527.18 1760.57 2577.71 1700.76 2631.16 1638.3C2661.7 1602.61 2697.08 1559.17 2730.01 1525.8C2737.83 1532.87 2744.56 1539.2 2753.11 1545.45C2759.84 1535.39 2769.99 1530.46 2780.34 1524.19C2811.97 1524.72 2819.81 1528.5 2848.61 1541.61C2845.66 1537.93 2842.97 1534.16 2843.02 1529.34C2843.25 1505.72 2845.48 1480.39 2847 1456.77C2850.15 1408.69 2852.89 1360.58 2855.23 1312.45C2889.1 1302.81 2929.84 1294.44 2964.52 1285.24C2989.57 1278.59 3048.77 1261.41 3072.64 1259.27C3051.33 1259.46 3042.85 1241.13 3037.9 1223.46L3036.94 1215.92C3038.8 1205.06 3048.74 1187.77 3058.87 1183.1C3074.55 1177.33 3088.15 1153.83 3092.67 1138.27C3092.51 1137.62 3092.34 1136.98 3092.18 1136.33L3091.27 1133.13C3079.75 1091.36 2991.9 1014.12 2943.51 1014.11C2933.1 1014.1 2914.92 1037.36 2907.84 1045.01C2904.31 1048.83 2906.61 1053.26 2907.97 1057.24C2904.48 1070.17 2902.38 1084.38 2889.86 1091.53C2884.03 1087.02 2878.26 1081.37 2871.25 1080.57L2867.44 1083.67C2840.56 1091.81 2826.83 1080.18 2825.18 1053.41Z"/><path fill="#191717" d="M2907.97 1057.24C2906.61 1053.26 2904.31 1048.83 2907.84 1045.01C2914.92 1037.36 2933.1 1014.1 2943.51 1014.11C2991.9 1014.12 3079.75 1091.36 3091.27 1133.13L3092.18 1136.33C3092.34 1136.98 3092.51 1137.62 3092.67 1138.27C3088.15 1153.83 3074.55 1177.33 3058.87 1183.1C3048.74 1187.77 3038.8 1205.06 3036.94 1215.92L3037.9 1223.46C3042.85 1241.13 3051.33 1259.46 3072.64 1259.27C3048.77 1261.41 2989.57 1278.59 2964.52 1285.24C2929.84 1294.44 2889.1 1302.81 2855.23 1312.45C2852.89 1360.58 2850.15 1408.69 2847 1456.77C2845.48 1480.39 2843.25 1505.72 2843.02 1529.34C2842.97 1534.16 2845.66 1537.93 2848.61 1541.61C2819.81 1528.5 2811.97 1524.72 2780.34 1524.19C2769.99 1530.46 2759.84 1535.39 2753.11 1545.45C2744.56 1539.2 2737.83 1532.87 2730.01 1525.8C2697.08 1559.17 2661.7 1602.61 2631.16 1638.3C2577.71 1700.76 2527.18 1760.57 2467.29 1817.17C2505.79 1757.93 2566.07 1685.21 2609.47 1628.19C2637.29 1591.63 2677.93 1539.05 2707.81 1506.64C2689.54 1491.86 2670.99 1475.08 2653.21 1459.54C2611.03 1505.81 2562.55 1559.5 2515.98 1600.04C2541.69 1556.37 2599.3 1485.25 2632.02 1444.03C2625.52 1436.93 2614.12 1425.47 2605.19 1422.02C2606 1418 2620.35 1382.29 2624.06 1368.32C2621.86 1360.53 2618.46 1353.19 2615.29 1345.71C2609.78 1339.51 2605.81 1334.78 2600.84 1328.14C2603.98 1329.22 2608.5 1330.58 2611.88 1329.75C2678.42 1313.44 2747.44 1297.74 2813.15 1278.85C2819.29 1203.83 2823.3 1128.65 2825.18 1053.41C2826.83 1080.18 2840.56 1091.81 2867.44 1083.67L2871.25 1080.57C2878.26 1081.37 2884.03 1087.02 2889.86 1091.53C2902.38 1084.38 2904.48 1070.17 2907.97 1057.24ZM2779.43 1454.58C2796.32 1442.91 2800.24 1438.51 2796.58 1417.44C2786.02 1427.53 2775.94 1439.01 2779.43 1454.58ZM2651.38 1363.92L2639.77 1366.72C2637.88 1375.81 2636.9 1376.81 2640.33 1383.63L2638.12 1380.98L2638.1 1384.38L2639.26 1385.39C2642.07 1381.84 2646.49 1371.27 2650.1 1365.82L2651.38 1363.92Z"/><path fill="#ECECEC" d="M2907.97 1057.24C2906.61 1053.26 2904.31 1048.83 2907.84 1045.01C2914.92 1037.36 2933.1 1014.1 2943.51 1014.11C2991.9 1014.12 3079.75 1091.36 3091.27 1133.13L3092.18 1136.33C3092.34 1136.98 3092.51 1137.62 3092.67 1138.27C3088.15 1153.83 3074.55 1177.33 3058.87 1183.1C3048.74 1187.77 3038.8 1205.06 3036.94 1215.92C2990.73 1172.71 2938.4 1132.79 2889.86 1091.53C2902.38 1084.38 2904.48 1070.17 2907.97 1057.24Z"/><path fill="#191717" d="M2907.97 1057.24C2913.46 1061.26 2930.47 1076.65 2934.05 1077.65C2938.53 1081.78 2939.46 1082.58 2944.56 1085.87C2969.14 1106.43 2995.68 1127.89 3019.59 1149C3028.16 1141.09 3036.98 1131.4 3047.47 1127.25L3050.46 1128.53C3050.35 1140.03 3041.26 1151.93 3034.98 1161.66L3058.87 1183.1C3048.74 1187.77 3038.8 1205.06 3036.94 1215.92C2990.73 1172.71 2938.4 1132.79 2889.86 1091.53C2902.38 1084.38 2904.48 1070.17 2907.97 1057.24Z"/><path fill="#1E1B1D" d="M2934.05 1077.65C2941.12 1068.35 2944.37 1062.69 2955.74 1059.98L2960.02 1061.47C2963.09 1072.37 2952.52 1079.25 2944.56 1085.87C2939.46 1082.58 2938.53 1081.78 2934.05 1077.65Z"/><path fill="#ECECEC" d="M2867.44 1083.67L2871.25 1080.57C2878.26 1081.37 2884.03 1087.02 2889.86 1091.53C2938.4 1132.79 2990.73 1172.71 3036.94 1215.92L3037.9 1223.46C3023.99 1228.01 2993.18 1234.4 2977.43 1238.24C2937.47 1247.79 2897.66 1257.92 2858 1268.64L2867.44 1083.67Z"/><path fill="#ECECEC" d="M2651.38 1363.92C2703.35 1350.62 2761.4 1336.96 2812.64 1322.11C2806.69 1362.81 2806.49 1405.11 2803.69 1446.16C2802.1 1469.38 2802.59 1499.33 2795.78 1520.93L2793.73 1521.96C2779.49 1514.59 2628.73 1387.21 2626.04 1377.09C2625.32 1374.39 2627.06 1373.15 2628.44 1371.02C2633.7 1368.7 2634.22 1368.29 2639.77 1366.72C2637.88 1375.81 2636.9 1376.81 2640.33 1383.63L2638.12 1380.98L2638.1 1384.38L2639.26 1385.39C2642.07 1381.84 2646.49 1371.27 2650.1 1365.82L2651.38 1363.92ZM2779.43 1454.58C2796.32 1442.91 2800.24 1438.51 2796.58 1417.44C2786.02 1427.53 2775.94 1439.01 2779.43 1454.58Z"/><path fill="#ECECEC" fill-opacity="0.79215688" d="M2796.58 1417.44C2800.24 1438.51 2796.32 1442.91 2779.43 1454.58C2775.94 1439.01 2786.02 1427.53 2796.58 1417.44Z"/><path fill="#ECECEC" fill-opacity="0.9137255" d="M2639.77 1366.72L2651.38 1363.92L2650.1 1365.82C2646.49 1371.27 2642.07 1381.84 2639.26 1385.39L2638.1 1384.38L2638.12 1380.98L2640.33 1383.63C2636.9 1376.81 2637.88 1375.81 2639.77 1366.72Z"/><path fill="#191717" d="M1771.19 2620.99C1838.84 2543.01 1904.25 2461.7 1975.9 2387.15C1985.52 2377.15 2007.96 2352.86 2018.64 2346.17L2019.99 2347.5C2013.23 2364.74 1988.47 2391.33 1975.99 2407.57C1937.96 2457.72 1899.18 2507.29 1859.66 2556.27C1839.27 2581.85 1812.72 2612.32 1794.62 2638.27L1818.55 2660.99C1807 2673.82 1804.15 2678.24 1796.52 2694.57C1780.96 2678.39 1750.6 2656.3 1732.87 2640.96C1703.02 2615.15 1678.3 2592.39 1645.39 2570.21L1656.51 2563.24C1668.72 2555.69 1670.6 2554.54 1678.22 2542.08C1685.49 2548.22 1692.35 2554.43 1700.37 2559.52C1730.19 2527.81 1798.59 2445.4 1827.35 2424.26C1798.83 2475.51 1754.23 2529.55 1720.51 2578.25C1737.41 2593.39 1753.61 2606.69 1771.19 2620.99Z"/><path fill="#191717" d="M2325.41 1826.09C2325.37 1833.36 2296.88 1873.19 2290.94 1881.29C2213.92 1986.29 2126.62 2099.42 2027.13 2183.89C2027.09 2183.59 2026.98 2183.28 2027 2182.98C2027.89 2168.59 2291.2 1858.65 2325.41 1826.09Z"/><path fill="#191717" d="M2225.77 2080.2L2226.65 2080.97C2218.55 2115.9 2114.83 2222.11 2082.32 2240.9C2045.84 2261.99 2011.25 2284.21 1976.3 2309.93L1975.03 2308.01C1979.97 2286.06 2072.11 2229.62 2094.35 2211.72C2140.5 2174.57 2181.29 2114.87 2225.77 2080.2Z"/><path fill="#ECECEC" d="M688.934 1375.41C694.698 1368.53 729.168 1369.48 739.117 1368.8C761.272 1367.13 783.281 1363.89 804.977 1359.1C875.719 1344.28 942.556 1314.76 1001.16 1272.45C1016.85 1260.91 1018.77 1258.09 1036.76 1260.62C1048.1 1265.41 1086.14 1274.25 1099.51 1277.66C1146.26 1289.62 1193.15 1301.02 1240.16 1311.88C1242.99 1341.19 1244.05 1372.38 1245.71 1401.93C1246.43 1414.63 1248.62 1441.79 1248.15 1453.83C1249.89 1466.03 1254.97 1524.72 1252.39 1536.07L1249.41 1538.83C1243.62 1545.48 1227.1 1563.69 1223.11 1570.07C1172.31 1637.57 1148.89 1719.12 1161.37 1802.87C1164.27 1822.35 1170.96 1856.42 1178.75 1874.57C1182.78 1885.97 1186.53 1896.55 1191.16 1907.75C1196.72 1914.12 1209.56 1942.78 1212.39 1951.52C1224.78 1970.78 1263.43 2014.5 1261.79 2038.69C1261.31 2045.78 1247.9 2050.19 1241.34 2052.76C1214.28 2047.74 1187.31 2042.28 1160.43 2036.37C962.906 1990.94 781.931 1857.7 672.235 1687.15C623.72 1606.66 591.023 1523.72 570.407 1432.47C551.818 1350.19 571.975 1347.98 646.862 1369.99C652.917 1371.78 652.774 1375.27 654.648 1380.53C667.644 1385.31 677.186 1380.77 688.934 1375.41Z"/><path fill="#ECECEC" d="M1241.34 2052.76C1214.28 2047.74 1187.31 2042.28 1160.43 2036.37C962.906 1990.94 781.931 1857.7 672.235 1687.15C623.72 1606.66 591.023 1523.72 570.407 1432.47C551.818 1350.19 571.975 1347.98 646.862 1369.99C652.917 1371.78 652.774 1375.27 654.648 1380.53C667.644 1385.31 677.186 1380.77 688.934 1375.41C724.941 1557.15 831.972 1717 986.286 1819.52C1038.48 1854.06 1124.86 1897.22 1186.05 1909.97C1187.51 1909.39 1189.96 1908.55 1191.16 1907.75C1196.72 1914.12 1209.56 1942.78 1212.39 1951.52C1224.78 1970.78 1263.43 2014.5 1261.79 2038.69C1261.31 2045.78 1247.9 2050.19 1241.34 2052.76Z"/><path fill="#191717" d="M654.648 1380.53C667.644 1385.31 677.186 1380.77 688.934 1375.41C724.941 1557.15 831.972 1717 986.286 1819.52C1038.48 1854.06 1124.86 1897.22 1186.05 1909.97C1187.51 1909.39 1189.96 1908.55 1191.16 1907.75C1196.72 1914.12 1209.56 1942.78 1212.39 1951.52C1112.03 1934.46 1004.29 1877.29 924.571 1814.95C813.184 1728.58 728.797 1612.18 681.348 1479.45C669.613 1446.71 658.941 1415.25 654.648 1380.53Z"/><path fill="#F8F8F5" d="M1248.15 1453.83C1249.89 1466.03 1254.97 1524.72 1252.39 1536.07L1249.41 1538.83L1243.97 1536.31C1238.67 1528.22 1239.12 1519.51 1237.52 1509.14C1241.56 1502.27 1244.59 1496.41 1248.19 1489.29C1247.48 1475.67 1246.97 1467.44 1248.15 1453.83Z"/><path fill="#191717" d="M1074.85 1319.34C1138.05 1333.43 1189.88 1414.58 1202.59 1474.31C1183.56 1463.35 1095.3 1343.53 1074.85 1319.34Z"/><path fill="#1E1B1D" d="M953.17 1365.83C958.522 1366.18 957.174 1366.36 962.455 1369L963.509 1372.92C958.254 1381.82 960.692 1378.87 949.823 1383.77C947.195 1386.05 947.838 1385.25 943.84 1386.07L941.336 1383.97C942.45 1380.03 949.945 1372.2 953.17 1365.83Z"/><path fill="#1E1B1D" d="M893.601 1385.15L899.296 1386.85C906.16 1393.66 906.406 1395.58 910.358 1404.75C895.947 1399.78 894.395 1399.31 893.601 1385.15Z"/><path fill="#191717" d="M1090.87 1693.6L1093.08 1694.23L1094.23 1696.85C1090.75 1702.68 1086.01 1704.78 1080.18 1708.45L1077.05 1705.33C1080.1 1698.69 1083.43 1698.42 1090.87 1693.6Z"/><path fill="#ECECEC" d="M3072.64 1259.27C3081.41 1259.85 3102.61 1277.25 3111.35 1283.21C3123.34 1291.26 3135.74 1298.69 3148.49 1305.48C3216.55 1342.32 3289.02 1365.19 3366.26 1369.32C3375.39 1369.8 3402.36 1369.55 3408.52 1375.49C3414.23 1378.74 3437.95 1377.7 3443.21 1376.31C3444.46 1374.56 3445.72 1372.81 3446.97 1371.05C3463.37 1367.3 3484 1360.53 3500.1 1357.83C3558.74 1347.99 3523.67 1446.25 3517.25 1469.89C3494.44 1553.81 3460.92 1632.19 3412.61 1704.49C3404.09 1717.26 3389.97 1738.92 3379.22 1749.12C3376.03 1752.12 3372.73 1755 3369.33 1757.77C3363.89 1751.28 3361.4 1745.63 3354.52 1744.88C3356.26 1749.34 3364.65 1765.93 3362.21 1768.99C3308.37 1836.7 3237.85 1892.03 3166.35 1940.15C3160.59 1944.02 3147.34 1954.05 3141.02 1954.51C3133.92 1961.86 3108.23 1977.11 3098.07 1976.94C3091.64 1978.68 3090.75 1978.4 3085.67 1982.83L3084.07 1986.97C3038.88 2005.2 2885.16 2062.43 2843.24 2047.14C2837.93 2045.21 2835.27 2042.67 2832.77 2037.59C2832.23 2019.15 2871.03 1973.96 2883.45 1953.37L2884.75 1951.17C2893.21 1949.63 2902.5 1947.38 2910.98 1945.53C2912.56 1936.01 2913.77 1919.23 2907.9 1911.42C2903.11 1906.96 2910.87 1891.86 2913.63 1884.98C2951.16 1791.45 2945.64 1685.1 2893.19 1598.35C2883.36 1582.1 2863.61 1553.58 2848.61 1541.61C2845.66 1537.93 2842.97 1534.16 2843.02 1529.34C2843.25 1505.72 2845.48 1480.39 2847 1456.77C2850.15 1408.69 2852.89 1360.58 2855.23 1312.45C2889.1 1302.81 2929.84 1294.44 2964.52 1285.24C2989.57 1278.59 3048.77 1261.41 3072.64 1259.27Z"/><path fill="#ECECEC" d="M3443.21 1376.31C3444.46 1374.56 3445.72 1372.81 3446.97 1371.05C3463.37 1367.3 3484 1360.53 3500.1 1357.83C3558.74 1347.99 3523.67 1446.25 3517.25 1469.89C3494.44 1553.81 3460.92 1632.19 3412.61 1704.49C3404.09 1717.26 3389.97 1738.92 3379.22 1749.12C3376.03 1752.12 3372.73 1755 3369.33 1757.77C3363.89 1751.28 3361.4 1745.63 3354.52 1744.88C3356.26 1749.34 3364.65 1765.93 3362.21 1768.99C3308.37 1836.7 3237.85 1892.03 3166.35 1940.15C3160.59 1944.02 3147.34 1954.05 3141.02 1954.51C3133.92 1961.86 3108.23 1977.11 3098.07 1976.94C3091.64 1978.68 3090.75 1978.4 3085.67 1982.83L3084.07 1986.97C3038.88 2005.2 2885.16 2062.43 2843.24 2047.14C2837.93 2045.21 2835.27 2042.67 2832.77 2037.59C2832.23 2019.15 2871.03 1973.96 2883.45 1953.37L2884.75 1951.17C2893.21 1949.63 2902.5 1947.38 2910.98 1945.53C2912.56 1936.01 2913.77 1919.23 2907.9 1911.42C2972.02 1893.31 3007.48 1877.21 3065.94 1846.42L3067.01 1843.59L3071.49 1843.54C3082.31 1837.66 3093.69 1830.57 3103.9 1823.73C3263.98 1716.43 3370.63 1564.77 3408.52 1375.49C3414.23 1378.74 3437.95 1377.7 3443.21 1376.31Z"/><path fill="#191717" d="M3443.21 1376.31C3442.12 1396.25 3431.39 1430.79 3425.31 1450.62C3384.64 1580.03 3309.51 1695.94 3207.97 1785.9C3159.8 1829.07 3106.1 1865.64 3048.28 1894.64C3038.93 1899.3 2979.23 1925.55 2976.85 1928.92L2978.46 1934.15L2977.11 1936.05C2973.56 1934.08 2971.38 1932.71 2968.03 1930.43C2948.23 1935.25 2930.48 1940.22 2910.98 1945.53C2912.56 1936.01 2913.77 1919.23 2907.9 1911.42C2972.02 1893.31 3007.48 1877.21 3065.94 1846.42L3067.01 1843.59L3071.49 1843.54C3082.31 1837.66 3093.69 1830.57 3103.9 1823.73C3263.98 1716.43 3370.63 1564.77 3408.52 1375.49C3414.23 1378.74 3437.95 1377.7 3443.21 1376.31Z"/><path fill="#F8F8F5" d="M3086.87 1955.41C3098.42 1956.35 3100.22 1954.21 3111.41 1959.45C3120.27 1963.6 3132.22 1957.85 3141.02 1954.51C3133.92 1961.86 3108.23 1977.11 3098.07 1976.94C3094.83 1968.45 3093.23 1961.72 3086.87 1955.41Z"/><path fill="#191717" d="M3086.87 1955.41C3093.23 1961.72 3094.83 1968.45 3098.07 1976.94C3091.64 1978.68 3090.75 1978.4 3085.67 1982.83C3085.12 1981.51 3084.6 1980.17 3084.11 1978.83C3080.29 1968.22 3082.23 1965.4 3086.87 1955.41Z"/><path fill="#191717" d="M3331.05 1759.06L3338.04 1760.08C3348.4 1768.31 3348.19 1774.64 3343.72 1786.3C3331.49 1781.75 3329.98 1770.5 3331.05 1759.06Z"/><path fill="#191717" d="M3065.94 1846.42C3060.74 1846.73 3058.34 1847.45 3053.67 1845.35C3050.25 1839.28 3050.34 1842.23 3051.91 1836.4L3056.52 1834.03C3065.42 1835.85 3063.61 1836.39 3071.49 1843.54L3067.01 1843.59L3065.94 1846.42Z"/><path fill="#191717" d="M3017.11 1320.17C3018.49 1320.98 3017.7 1320.31 3018.42 1322.99C2974.29 1379.83 2946.74 1419.42 2895.75 1473.63L2893.74 1471.74C2894.13 1463.96 2900.8 1445.85 2904.2 1438.54C2928.86 1385.61 2962.76 1342.56 3017.11 1320.17Z"/><path fill="#191717" d="M3220.5 1599.28C3226.58 1603.76 3226.48 1614.16 3227.42 1621.54C3223.7 1620.6 3225.14 1621.12 3222.05 1618.1C3219.09 1610.12 3219.84 1608.09 3220.5 1599.28Z"/><path fill="#ECECEC" d="M2218.28 1338.19C2188.74 1351.85 2173.06 1383.94 2144.26 1395.99C2127.81 1402.87 2123.84 1370.53 2124.09 1361.06C2124.59 1341.9 2126.54 1324.24 2128.15 1305.3C2145.2 1104.6 2244.1 915.7 2396.9 784.899C2407.22 776.068 2419.97 761.132 2433.13 758.554C2438.63 757.627 2439.99 757.451 2444.71 754.248L2443.72 748.746C2446.42 745.953 2449.31 743.339 2452.35 740.919C2500.61 701.872 2603.62 651.046 2664.28 640.697C2688.52 636.56 2676.77 717.04 2675.12 726.875C2674.28 731.864 2667.04 733.502 2662.9 735.322C2663.31 744.639 2663.01 760.773 2667.87 768.138L2674.35 768.439C2678.64 775.638 2689.31 826.073 2692.35 838.157C2714.03 924.233 2761.53 992.603 2825.18 1053.41C2823.3 1128.65 2819.29 1203.83 2813.15 1278.85C2747.44 1297.74 2678.42 1313.44 2611.88 1329.75C2608.5 1330.58 2603.98 1329.22 2600.84 1328.14C2594.52 1320.99 2574.14 1309.01 2565.38 1302.99C2483.7 1246.9 2343.18 1249.19 2262.28 1309.23C2256.55 1316.5 2227.6 1334.75 2218.28 1338.19Z"/><path fill="#ECECEC" d="M2218.28 1338.19C2188.74 1351.85 2173.06 1383.94 2144.26 1395.99C2127.81 1402.87 2123.84 1370.53 2124.09 1361.06C2124.59 1341.9 2126.54 1324.24 2128.15 1305.3C2145.2 1104.6 2244.1 915.7 2396.9 784.899C2407.22 776.068 2419.97 761.132 2433.13 758.554C2438.63 757.627 2439.99 757.451 2444.71 754.248L2443.72 748.746C2446.42 745.953 2449.31 743.339 2452.35 740.919C2500.61 701.872 2603.62 651.046 2664.28 640.697C2688.52 636.56 2676.77 717.04 2675.12 726.875C2674.28 731.864 2667.04 733.502 2662.9 735.322C2663.31 744.639 2663.01 760.773 2667.87 768.138C2635.44 783.657 2605.6 797.755 2574.96 816.68C2441.16 899.183 2339.9 1025.3 2288.24 1173.77C2280.64 1195.28 2247.74 1296.72 2262.28 1309.23C2256.55 1316.5 2227.6 1334.75 2218.28 1338.19Z"/><path fill="#191717" d="M2218.28 1338.19C2220.57 1329.31 2225.26 1284.1 2227.49 1270.25C2235.9 1220.62 2250.05 1172.13 2269.64 1125.76C2345.94 945.091 2480.87 809.056 2662.9 735.322C2663.31 744.639 2663.01 760.773 2667.87 768.138C2635.44 783.657 2605.6 797.755 2574.96 816.68C2441.16 899.183 2339.9 1025.3 2288.24 1173.77C2280.64 1195.28 2247.74 1296.72 2262.28 1309.23C2256.55 1316.5 2227.6 1334.75 2218.28 1338.19Z"/><path fill="#191717" d="M2773.24 1124.13C2763.79 1184.8 2715.54 1242 2658.86 1264.46L2658.79 1260.01C2673.95 1236.35 2752.2 1140.46 2773.24 1124.13Z"/><path fill="#191717" d="M2548.3 961.303L2550.33 963.633C2549.86 976.902 2559.63 975.927 2557.7 993.775L2554.45 993.126C2544.86 983.606 2543.71 973.536 2548.3 961.303Z"/><path fill="#1E1B1D" d="M2514.58 1170.68C2523.19 1171.67 2522.55 1171.66 2525.34 1179.34L2523.49 1182.71L2519.44 1181.89C2514.11 1184.33 2513.44 1185.37 2507.79 1184.99L2505.7 1182.4C2506.77 1176.38 2509.85 1174.76 2514.58 1170.68Z"/><path fill="#ECECEC" d="M1434.97 738.018C1431.95 736.716 1424.12 734.311 1423.46 730.214C1420.28 710.663 1404.1 649.079 1431.51 641.885C1441.8 639.182 1468.46 648.533 1479.84 652.854C1548.51 679.407 1612.95 715.816 1671.14 760.936C1834.95 889.733 1941.06 1078.19 1966.24 1285.05C1969.17 1308.57 1983.4 1390 1955.07 1397.59C1936.79 1391.56 1907.39 1357.35 1885.35 1342.34L1882.04 1340.07C1881.36 1339.63 1880.69 1339.19 1880.02 1338.75L1877.88 1339.42C1868.61 1336.15 1849.7 1321.6 1840.01 1315.11L1836.03 1309.34C1773.12 1266.16 1680 1250.16 1606.82 1270.86C1589.47 1275.77 1572.01 1282.91 1555.24 1289.61C1535.55 1300.58 1521.19 1308.91 1503.37 1322.85L1494.23 1328.84C1476.1 1332.26 1311.61 1286.92 1284.31 1280.59C1280.18 1246.4 1278.77 1200.22 1276.27 1165.19C1274.24 1136.71 1269.97 1080.17 1272.21 1054.12C1285.11 1040.31 1300.3 1026.83 1312.07 1012.89C1358.61 957.803 1391.84 894.332 1407.89 823.98C1409.87 815.279 1418.26 770.579 1420.95 767.53L1427.78 767.278C1435.48 758.956 1434.57 748.982 1434.97 738.018Z"/><path fill="#ECECEC" d="M1434.97 738.018C1431.95 736.716 1424.12 734.311 1423.46 730.214C1420.28 710.663 1404.1 649.079 1431.51 641.885C1441.8 639.182 1468.46 648.533 1479.84 652.854C1548.51 679.407 1612.95 715.816 1671.14 760.936C1834.95 889.733 1941.06 1078.19 1966.24 1285.05C1969.17 1308.57 1983.4 1390 1955.07 1397.59C1936.79 1391.56 1907.39 1357.35 1885.35 1342.34L1882.04 1340.07C1881.36 1339.63 1880.69 1339.19 1880.02 1338.75L1877.88 1339.42C1868.61 1336.15 1849.7 1321.6 1840.01 1315.11L1836.03 1309.34C1842.85 1299.1 1832.75 1262.74 1829.99 1250.17C1791.84 1075.89 1683.87 921.972 1535 824.2C1516.3 811.861 1496.78 800.815 1476.58 791.141C1461.62 784.08 1441.29 776.116 1427.78 767.278C1435.48 758.956 1434.57 748.982 1434.97 738.018Z"/><path fill="#191717" d="M1434.97 738.018C1644.13 806.261 1826.76 1039.54 1867.04 1253.04C1869.59 1266.54 1877.45 1335.39 1880.02 1338.75L1877.88 1339.42C1868.61 1336.15 1849.7 1321.6 1840.01 1315.11L1836.03 1309.34C1842.85 1299.1 1832.75 1262.74 1829.99 1250.17C1791.84 1075.89 1683.87 921.972 1535 824.2C1516.3 811.861 1496.78 800.815 1476.58 791.141C1461.62 784.08 1441.29 776.116 1427.78 767.278C1435.48 758.956 1434.57 748.982 1434.97 738.018Z"/><path fill="#191717" d="M1323.54 1125.06C1343.18 1137.86 1426.16 1239.18 1436.33 1263.26C1423 1260.7 1417.45 1257.26 1406.18 1249.73C1363.43 1220.54 1333.77 1175.81 1323.54 1125.06Z"/><path fill="#ECECEC" d="M1039.34 1182.4C1037.26 1183.01 1036.03 1184.05 1034.22 1182.58C979.464 1138.94 1017.09 1099.34 1057.79 1065.55C1086.21 1041.95 1115.78 1019.02 1152.58 1010.92C1164.15 1018.63 1190.58 1042.42 1190.75 1056.15C1198.22 1066.63 1212.67 1078.1 1225.81 1079.49L1228.27 1080.78C1235.22 1079.56 1249.11 1074.78 1255.03 1071.34C1267.23 1064.25 1268.3 1065.62 1272.21 1054.12C1269.97 1080.17 1274.24 1136.71 1276.27 1165.19C1278.77 1200.22 1280.18 1246.4 1284.31 1280.59C1311.61 1286.92 1476.1 1332.26 1494.23 1328.84C1483.42 1349.22 1494.69 1401.36 1490.81 1421.73C1503.67 1441.3 1521.46 1460.23 1536.28 1478.54C1608.98 1568.42 1688.32 1654.33 1760.19 1744.7C1778.52 1765.91 1908.52 1926.21 1918.25 1932.44C1934.77 1955.48 1977.39 2005.63 1997.28 2025.73L2015.2 2048.21L2018.09 2050.63C2027.4 2060.66 2041.21 2075.49 2052.96 2082.53C2039.14 2096.53 2021.96 2118.31 2009.06 2133.71L1931.69 2226.38C1923.13 2210.03 1912.77 2204.28 1896.52 2195.69L1891.87 2198.63C1890.64 2198.37 1889.41 2198.11 1888.18 2197.85C1856.24 2159.98 1797.92 2089.95 1768.5 2054.77L1380.52 1591.29C1369.08 1577 1355.66 1559.07 1342.52 1546.8C1294.68 1520.47 1317.37 1520.83 1261.63 1532.08C1251.04 1542.3 1232.87 1562.69 1223.11 1570.07C1227.1 1563.69 1243.62 1545.48 1249.41 1538.83L1252.39 1536.07C1254.97 1524.72 1249.89 1466.03 1248.15 1453.83C1248.62 1441.79 1246.43 1414.63 1245.71 1401.93C1244.05 1372.38 1242.99 1341.19 1240.16 1311.88C1193.15 1301.02 1146.26 1289.62 1099.51 1277.66C1086.14 1274.25 1048.1 1265.41 1036.76 1260.62C1049.78 1258.42 1056.6 1236.18 1058.33 1225L1057.29 1223.85C1057.58 1217.74 1058.95 1218.08 1063.45 1212.16C1061.6 1201.8 1048.08 1187.81 1039.34 1182.4Z"/><path fill="#191717" d="M1039.34 1182.4C1037.26 1183.01 1036.03 1184.05 1034.22 1182.58C979.464 1138.94 1017.09 1099.34 1057.79 1065.55C1086.21 1041.95 1115.78 1019.02 1152.58 1010.92C1164.15 1018.63 1190.58 1042.42 1190.75 1056.15C1198.22 1066.63 1212.67 1078.1 1225.81 1079.49L1228.27 1080.78C1235.22 1079.56 1249.11 1074.78 1255.03 1071.34C1267.23 1064.25 1268.3 1065.62 1272.21 1054.12C1269.97 1080.17 1274.24 1136.71 1276.27 1165.19C1278.77 1200.22 1280.18 1246.4 1284.31 1280.59C1311.61 1286.92 1476.1 1332.26 1494.23 1328.84C1483.42 1349.22 1494.69 1401.36 1490.81 1421.73C1480.97 1429.47 1473.73 1434.96 1464.98 1443.95C1495.79 1483.75 1560.07 1564.69 1582.87 1605.47C1548.15 1576.39 1476.31 1495.69 1443.43 1459.9C1425.91 1475.05 1408.27 1490.06 1390.51 1504.92C1461.46 1603.16 1543.57 1694.61 1612.93 1794.06C1618.69 1802.31 1625.24 1812.09 1630.36 1820.69L1629.53 1823.57L1631.6 1822.99L1631.59 1825.28C1621.81 1816.28 1614.1 1805.94 1605.41 1795.94C1569.67 1754.83 1531.31 1715.7 1495.7 1674.48C1452.68 1624.69 1411.32 1573.01 1366.59 1524.69C1360.71 1529.91 1345.94 1541.78 1342.52 1546.8C1294.68 1520.47 1317.37 1520.83 1261.63 1532.08C1251.04 1542.3 1232.87 1562.69 1223.11 1570.07C1227.1 1563.69 1243.62 1545.48 1249.41 1538.83L1252.39 1536.07C1254.97 1524.72 1249.89 1466.03 1248.15 1453.83C1248.62 1441.79 1246.43 1414.63 1245.71 1401.93C1244.05 1372.38 1242.99 1341.19 1240.16 1311.88C1193.15 1301.02 1146.26 1289.62 1099.51 1277.66C1086.14 1274.25 1048.1 1265.41 1036.76 1260.62C1049.78 1258.42 1056.6 1236.18 1058.33 1225L1057.29 1223.85C1057.58 1217.74 1058.95 1218.08 1063.45 1212.16C1061.6 1201.8 1048.08 1187.81 1039.34 1182.4Z"/><path fill="#ECECEC" d="M1039.34 1182.4C1037.26 1183.01 1036.03 1184.05 1034.22 1182.58C979.464 1138.94 1017.09 1099.34 1057.79 1065.55C1086.21 1041.95 1115.78 1019.02 1152.58 1010.92C1164.15 1018.63 1190.58 1042.42 1190.75 1056.15C1198.22 1066.63 1212.67 1078.1 1225.81 1079.49C1205.01 1082.06 1116.51 1168.11 1093.71 1184.94C1086.57 1190.22 1069.9 1208.38 1063.45 1212.16C1061.6 1201.8 1048.08 1187.81 1039.34 1182.4Z"/><path fill="#191717" d="M1158.7 1079.09L1190.75 1056.15C1198.22 1066.63 1212.67 1078.1 1225.81 1079.49C1205.01 1082.06 1116.51 1168.11 1093.71 1184.94C1086.57 1190.22 1069.9 1208.38 1063.45 1212.16C1061.6 1201.8 1048.08 1187.81 1039.34 1182.4C1043.44 1177.32 1054.8 1168.34 1060.26 1163.76C1050.03 1145.94 1044.96 1137.11 1038.3 1117.78C1052.19 1126.49 1064.61 1138.36 1076.89 1149.33C1100.71 1128.16 1129.01 1106.37 1151.31 1084.12C1144.74 1078.53 1132.46 1070.61 1137.38 1061.33L1142.01 1061.35C1150 1065.23 1153.36 1071.68 1158.7 1079.09Z"/><path fill="#ECECEC" d="M1225.81 1079.49L1228.27 1080.78C1229.74 1090.38 1229.96 1100.06 1230.49 1109.74C1233.42 1162.72 1235.06 1215.79 1238.33 1268.75C1203.54 1259.7 1168.66 1250.99 1133.7 1242.61C1110.35 1236.79 1081.87 1228.67 1058.33 1225L1057.29 1223.85C1057.58 1217.74 1058.95 1218.08 1063.45 1212.16C1069.9 1208.38 1086.57 1190.22 1093.71 1184.94C1116.51 1168.11 1205.01 1082.06 1225.81 1079.49Z"/><path fill="#ECECEC" d="M1283.53 1322.66C1295.71 1324.59 1342.7 1337.44 1356.76 1341.62C1384.35 1349.84 1445.15 1362 1468.68 1372.53L1470 1376.22C1466.39 1387.65 1406.56 1435.94 1394.07 1446.7C1378.35 1459.12 1315.09 1520.37 1302.18 1520.1C1298 1515.66 1296.43 1513.16 1295.98 1506.62C1291.78 1445.44 1290.7 1383.58 1283.53 1322.66Z"/><path fill="#191717" d="M1766.47 1821.2C1841.16 1897.19 1917.74 1998.71 1991.35 2079.55C1998.52 2071.08 2011.04 2057.57 2015.2 2048.21L2018.09 2050.63C2027.4 2060.66 2041.21 2075.49 2052.96 2082.53C2039.14 2096.53 2021.96 2118.31 2009.06 2133.71L1931.69 2226.38C1923.13 2210.03 1912.77 2204.28 1896.52 2195.69C1898.99 2190.16 1918.21 2167.51 1923.25 2161.35C1901.31 2128.4 1873.82 2097.49 1852.86 2064.37C1886.49 2086.54 1907.7 2116.69 1937.75 2144.59C1950.92 2130.46 1968.1 2108.88 1980.85 2093.73C1933.59 2056.04 1795.97 1877.77 1766.47 1821.2Z"/><path fill="#ECECEC" d="M1590.63 2614.91C1582.67 2585.25 1617.35 2561.67 1645.39 2570.21C1678.3 2592.39 1703.02 2615.15 1732.87 2640.96C1750.6 2656.3 1780.96 2678.39 1796.52 2694.57C1801.23 2705.78 1804.4 2713.08 1799.64 2724.76C1791.91 2743.74 1775.51 2758.08 1755.92 2762.6C1745.56 2774.28 1742.08 2780.16 1733.89 2793.61C1729.55 2806.68 1709.43 2833.09 1696.83 2837.47C1688.87 2841.85 1678.08 2858.09 1672.78 2865.87C1673.39 2870.53 1674.64 2875.03 1670.95 2879.15C1664.53 2886.32 1625.8 2925.47 1620.4 2928.19C1614.55 2932.53 1595.64 2948.53 1591.72 2954C1594.48 2978.72 1569.83 3002.65 1549.72 3013.68C1539.28 3015.84 1526.7 3032.43 1520.16 3041.31C1511.08 3020.96 1495.16 2995.4 1483.37 2975.87C1441.51 2955.99 1386.64 2931.59 1347 2909.83C1354.08 2900.99 1359.91 2892.25 1363.68 2881.56C1362.05 2877.79 1360.48 2874.67 1363.3 2870.68C1372.09 2858.25 1385.48 2829.46 1402.83 2837.78C1413.76 2833.81 1420.43 2824.48 1428.1 2815.75C1420.55 2790.69 1436.51 2777.79 1458.31 2770.75L1459.31 2767.94C1454.64 2766.11 1456 2767.1 1452.31 2763.95C1458.52 2751.79 1472.12 2727.86 1487.71 2735.81C1499.43 2730.11 1506.92 2722.62 1514.89 2712.59C1510.88 2683.59 1535.08 2657.22 1558.24 2641.32C1561.31 2639.22 1563.02 2641.21 1566.56 2642.73C1576.78 2638.35 1584.8 2624.23 1590.63 2614.91Z"/><path fill="#ECECEC" d="M1514.89 2712.59C1544.86 2772.88 1586.44 2872.57 1620.4 2928.19C1614.55 2932.53 1595.64 2948.53 1591.72 2954C1594.48 2978.72 1569.83 3002.65 1549.72 3013.68C1539.28 3015.84 1526.7 3032.43 1520.16 3041.31C1511.08 3020.96 1495.16 2995.4 1483.37 2975.87C1441.51 2955.99 1386.64 2931.59 1347 2909.83C1354.08 2900.99 1359.91 2892.25 1363.68 2881.56C1362.05 2877.79 1360.48 2874.67 1363.3 2870.68C1372.09 2858.25 1385.48 2829.46 1402.83 2837.78C1413.76 2833.81 1420.43 2824.48 1428.1 2815.75C1420.55 2790.69 1436.51 2777.79 1458.31 2770.75L1459.31 2767.94C1454.64 2766.11 1456 2767.1 1452.31 2763.95C1458.52 2751.79 1472.12 2727.86 1487.71 2735.81C1499.43 2730.11 1506.92 2722.62 1514.89 2712.59Z"/><path fill="#191717" d="M1428.1 2815.75L1517.19 2962.35C1523.59 2972.99 1541 3008.3 1549.72 3013.68C1539.28 3015.84 1526.7 3032.43 1520.16 3041.31C1511.08 3020.96 1495.16 2995.4 1483.37 2975.87C1441.51 2955.99 1386.64 2931.59 1347 2909.83C1354.08 2900.99 1359.91 2892.25 1363.68 2881.56C1362.05 2877.79 1360.48 2874.67 1363.3 2870.68C1372.09 2858.25 1385.48 2829.46 1402.83 2837.78C1413.76 2833.81 1420.43 2824.48 1428.1 2815.75Z"/><path fill="#ECECEC" d="M1363.68 2881.56C1362.05 2877.79 1360.48 2874.67 1363.3 2870.68C1372.09 2858.25 1385.48 2829.46 1402.83 2837.78C1408.46 2855.98 1439.53 2902.79 1449.82 2921.23C1428.34 2911.75 1381.03 2887 1363.68 2881.56Z"/><path fill="#191717" d="M1514.89 2712.59C1544.86 2772.88 1586.44 2872.57 1620.4 2928.19C1614.55 2932.53 1595.64 2948.53 1591.72 2954C1574.89 2928.44 1495.36 2763.69 1487.71 2735.81C1499.43 2730.11 1506.92 2722.62 1514.89 2712.59Z"/><path fill="#ECECEC" d="M1590.63 2614.91C1582.67 2585.25 1617.35 2561.67 1645.39 2570.21C1678.3 2592.39 1703.02 2615.15 1732.87 2640.96C1750.6 2656.3 1780.96 2678.39 1796.52 2694.57C1801.23 2705.78 1804.4 2713.08 1799.64 2724.76C1791.91 2743.74 1775.51 2758.08 1755.92 2762.6C1729.2 2756.61 1663.74 2714.9 1636.32 2701.54C1625.17 2696.11 1597.95 2630.6 1590.63 2614.91Z"/><path fill="#191717" d="M1719.71 2669.07C1730.27 2671.72 1752.19 2705.22 1754.55 2715.41C1747.06 2711.6 1732.18 2696.28 1727.23 2689.14C1719.97 2678.66 1718.36 2679.42 1719.71 2669.07Z"/><path fill="#191717" d="M1590.63 2614.91C1597.95 2630.6 1625.17 2696.11 1636.32 2701.54C1663.74 2714.9 1729.2 2756.61 1755.92 2762.6C1745.56 2774.28 1742.08 2780.16 1733.89 2793.61C1729.55 2806.68 1709.43 2833.09 1696.83 2837.47C1688.87 2841.85 1678.08 2858.09 1672.78 2865.87C1653.85 2830.39 1634.91 2788.26 1616.13 2752.21C1604.99 2730.82 1571.47 2663.62 1566.56 2642.73C1576.78 2638.35 1584.8 2624.23 1590.63 2614.91Z"/><path fill="#ECECEC" d="M1655.99 2751.99C1682.35 2764.72 1707.39 2780.4 1733.89 2793.61C1729.55 2806.68 1709.43 2833.09 1696.83 2837.47C1683.4 2808.89 1669.78 2780.4 1655.99 2751.99Z"/><path fill="#F8F8F5" d="M1608.1 2840.93C1613.86 2845.31 1612.07 2858.02 1612.11 2865.26C1606.19 2859.38 1608.54 2852.31 1608.1 2840.93Z"/><path fill="#ECECEC" d="M2184.49 2227.31C2184.32 2239.27 2184.56 2244.9 2185.7 2256.82C2191.68 2264.83 2196.11 2271.84 2203.92 2278.03L2206.17 2278.19C2251.4 2325.05 2300.73 2393.2 2344.88 2442.92C2354.32 2453.55 2416.61 2529.88 2421.2 2539.07L2420.41 2543.03C2432.46 2556.11 2440.05 2560.53 2455.2 2569.08C2435.38 2581.76 2415.06 2594.78 2397.99 2611.07C2369.06 2638.69 2332.05 2662.92 2304.18 2691.07C2299.52 2680.63 2290.16 2666.47 2280.23 2660.55C2267.01 2656.79 2229.98 2608.6 2219.33 2595.87L2138.11 2498.89C2120.86 2478.29 2101.1 2455.02 2083.79 2433.99C2079.98 2429.36 2082.12 2426.27 2083.7 2421.9C2081.05 2397.78 2068.05 2377.4 2042.57 2395.96C2054.35 2380.08 2077.81 2354.28 2091.2 2338.47L2184.49 2227.31Z"/><path fill="#191717" d="M2184.49 2227.31C2184.32 2239.27 2184.56 2244.9 2185.7 2256.82C2191.68 2264.83 2196.11 2271.84 2203.92 2278.03L2206.17 2278.19C2193.12 2288.92 2130.76 2365.5 2118 2383.04C2188.75 2461.47 2258.11 2541.14 2326.05 2622.02C2340.94 2608.91 2360.45 2591.48 2376.16 2579.82C2341.48 2526.52 2295.16 2474.93 2263 2419.55C2305.22 2447.25 2334.43 2495.03 2369.69 2530.9C2378.75 2540.12 2388.5 2550.81 2396.93 2560.57C2406.62 2554.07 2411.43 2550.48 2420.41 2543.03C2432.46 2556.11 2440.05 2560.53 2455.2 2569.08C2435.38 2581.76 2415.06 2594.78 2397.99 2611.07C2369.06 2638.69 2332.05 2662.92 2304.18 2691.07C2299.52 2680.63 2290.16 2666.47 2280.23 2660.55C2267.01 2656.79 2229.98 2608.6 2219.33 2595.87L2138.11 2498.89C2120.86 2478.29 2101.1 2455.02 2083.79 2433.99C2079.98 2429.36 2082.12 2426.27 2083.7 2421.9C2081.05 2397.78 2068.05 2377.4 2042.57 2395.96C2054.35 2380.08 2077.81 2354.28 2091.2 2338.47L2184.49 2227.31Z"/><path fill="#ECECEC" d="M2109.24 2393.76C2170.9 2476.23 2243.48 2558.82 2302.07 2640.01C2296.41 2645.1 2284.62 2655.11 2280.23 2660.55C2267.01 2656.79 2229.98 2608.6 2219.33 2595.87L2138.11 2498.89C2120.86 2478.29 2101.1 2455.02 2083.79 2433.99C2079.98 2429.36 2082.12 2426.27 2083.7 2421.9C2091.36 2413.27 2101.23 2401.62 2109.24 2393.76Z"/><path fill="#ECECEC" d="M1328.73 2928.71C1327.94 2920.56 1327.47 2917.59 1331.11 2911.17C1336.92 2907.93 1340.31 2909.09 1347 2909.83C1386.64 2931.59 1441.51 2955.99 1483.37 2975.87C1495.16 2995.4 1511.08 3020.96 1520.16 3041.31C1519.75 3066.64 1472.75 3099.94 1453.99 3123.6L1451.56 3123.64C1442.8 3129.12 1431.55 3141.2 1425.89 3149.71L1425.36 3153.34C1427.67 3176.5 1404.23 3197.09 1385.77 3207.81C1376.45 3209.08 1359.37 3227.89 1357.58 3236.56C1355.17 3256.1 1329.22 3286.06 1307.5 3285.47C1274.73 3274.3 1183.54 3186.56 1151.18 3161.24C1138.09 3143.62 1141.56 3108.93 1172.68 3118.12C1180.62 3110.72 1190.19 3100.47 1191.5 3089.36C1182.98 3076.58 1203.41 3048.61 1222.29 3053.91L1225.39 3053.41C1235.43 3045.03 1239.82 3037.34 1246.31 3026.49C1245.28 3023.7 1243.23 3018.05 1245.59 3014.35C1257.08 2996.27 1277.33 2966.01 1294.79 2953.71C1296.81 2952.3 1300.85 2955.14 1303.9 2956.57C1312.84 2952.24 1324.83 2938.36 1328.73 2928.71Z"/><path fill="#ECECEC" d="M1328.73 2928.71C1327.94 2920.56 1327.47 2917.59 1331.11 2911.17C1336.92 2907.93 1340.31 2909.09 1347 2909.83C1386.64 2931.59 1441.51 2955.99 1483.37 2975.87C1495.16 2995.4 1511.08 3020.96 1520.16 3041.31C1519.75 3066.64 1472.75 3099.94 1453.99 3123.6L1451.56 3123.64C1424.55 3082.94 1398.15 3041.84 1372.36 3000.36C1359.51 2980.02 1338.42 2948.77 1328.73 2928.71Z"/><path fill="#191717" d="M1412.74 3026C1415.27 3026.07 1417.95 3026.29 1420.06 3027.75C1435.7 3038.58 1479.6 3038 1491.26 3050.25L1491.02 3056.12C1472.09 3059.87 1417.48 3047.45 1412.74 3026Z"/><path fill="#ECECEC" d="M1151.18 3161.24C1138.09 3143.62 1141.56 3108.93 1172.68 3118.12L1174.51 3119.18C1254.49 3164.45 1303.82 3150.77 1357.58 3236.56C1355.17 3256.1 1329.22 3286.06 1307.5 3285.47C1274.73 3274.3 1183.54 3186.56 1151.18 3161.24Z"/><path fill="#191717" d="M1246.31 3026.49C1266.13 3052.77 1369.32 3201.39 1385.77 3207.81C1376.45 3209.08 1359.37 3227.89 1357.58 3236.56C1303.82 3150.77 1254.49 3164.45 1174.51 3119.18L1172.68 3118.12C1180.62 3110.72 1190.19 3100.47 1191.5 3089.36C1182.98 3076.58 1203.41 3048.61 1222.29 3053.91L1225.39 3053.41C1235.43 3045.03 1239.82 3037.34 1246.31 3026.49Z"/><path fill="#ECECEC" d="M1191.5 3089.36C1182.98 3076.58 1203.41 3048.61 1222.29 3053.91C1238.05 3074.61 1264.01 3107.67 1277.63 3128.71C1251.78 3116.8 1216.94 3099.24 1191.5 3089.36Z"/><path fill="#191717" d="M1328.73 2928.71C1338.42 2948.77 1359.51 2980.02 1372.36 3000.36C1398.15 3041.84 1424.55 3082.94 1451.56 3123.64C1442.8 3129.12 1431.55 3141.2 1425.89 3149.71L1425.36 3153.34C1397.68 3094.05 1329.73 3013.09 1303.9 2956.57C1312.84 2952.24 1324.83 2938.36 1328.73 2928.71Z"/><path fill="#ECECEC" d="M2455.2 2569.08C2471.97 2569.54 2481.83 2570.14 2495.5 2583.1C2499.93 2587.31 2507.48 2601.68 2507.54 2608.07C2510.59 2612.37 2531.04 2636.05 2534.7 2638.09C2551.27 2648.17 2585.2 2684.79 2583.68 2705.45C2590.56 2713.3 2603.64 2728.65 2612.91 2733.11C2598.28 2765.94 2520.13 2935.54 2507.06 2949.91C2502.72 2938.88 2489.71 2930.95 2479.21 2926.67L2474.88 2926.9C2460.83 2914.84 2433.24 2893.11 2425.23 2875.57C2422.18 2868.88 2426.44 2860.82 2429.77 2854.69C2422.87 2848.41 2409.31 2835.82 2400.31 2834.07L2397.21 2835.04C2388.88 2833.46 2363.61 2803.11 2363.15 2793.87C2359.85 2786.3 2347.62 2774.29 2341.3 2763.52C2309.58 2755.06 2282.41 2723.67 2304.18 2691.07C2332.05 2662.92 2369.06 2638.69 2397.99 2611.07C2415.06 2594.78 2435.38 2581.76 2455.2 2569.08Z"/><path fill="#ECECEC" d="M2455.2 2569.08C2471.97 2569.54 2481.83 2570.14 2495.5 2583.1C2499.93 2587.31 2507.48 2601.68 2507.54 2608.07C2498.89 2631.73 2477.46 2677.82 2464.63 2700.04C2429.4 2717.86 2374.95 2748.75 2341.3 2763.52C2309.58 2755.06 2282.41 2723.67 2304.18 2691.07C2332.05 2662.92 2369.06 2638.69 2397.99 2611.07C2415.06 2594.78 2435.38 2581.76 2455.2 2569.08Z"/><path fill="#191717" d="M2507.54 2608.07C2510.59 2612.37 2531.04 2636.05 2534.7 2638.09C2505.71 2701.64 2473.62 2763.43 2443.89 2826.59C2439.21 2836.52 2435.79 2845.39 2429.77 2854.69C2422.87 2848.41 2409.31 2835.82 2400.31 2834.07L2397.21 2835.04C2388.88 2833.46 2363.61 2803.11 2363.15 2793.87C2359.85 2786.3 2347.62 2774.29 2341.3 2763.52C2374.95 2748.75 2429.4 2717.86 2464.63 2700.04C2477.46 2677.82 2498.89 2631.73 2507.54 2608.07Z"/><path fill="#ECECEC" d="M2363.15 2793.87C2390.01 2778.6 2413.33 2765 2441.33 2751.88C2427.38 2778.69 2414.16 2808.34 2400.31 2834.07L2397.21 2835.04C2388.88 2833.46 2363.61 2803.11 2363.15 2793.87Z"/><path fill="#191717" d="M2583.68 2705.45C2590.56 2713.3 2603.64 2728.65 2612.91 2733.11C2598.28 2765.94 2520.13 2935.54 2507.06 2949.91C2502.72 2938.88 2489.71 2930.95 2479.21 2926.67C2485.49 2911.42 2495.54 2895.21 2502.43 2880.09C2528.22 2823.46 2563.28 2763.62 2583.68 2705.45Z"/><path fill="#ECECEC" d="M2612.91 2733.11C2625.69 2732.27 2672.53 2796.04 2672.4 2808.48C2677.58 2814.36 2690.65 2830.41 2696.38 2833.44C2711.42 2837.35 2732.71 2863.61 2738.02 2878.04C2745.71 2887.7 2754.11 2898.67 2762.24 2907.8L2769.49 2919.35C2776.04 2928.52 2788.18 2949.48 2795.85 2953.09C2759.56 3013.7 2715.67 3083.89 2675.35 3141.94C2668.9 3135.19 2656.63 3123.08 2647.92 3119.82L2646.14 3121.93L2643.51 3121.71C2639.52 3116.44 2628.7 3101.81 2624.35 3097.82C2612.28 3086.77 2590.63 3076.72 2582.49 3061.87C2575.56 3049.23 2577.14 3043.18 2581 3030.22C2575.29 3023.05 2560.76 3015.53 2552.44 3011.43C2547.92 3014 2550.35 3013.14 2544.75 3012.9C2528.26 3002.79 2516.77 2989.04 2507.25 2972.17C2502.51 2963.77 2504.34 2958.42 2507.06 2949.91C2520.13 2935.54 2598.28 2765.94 2612.91 2733.11Z"/><path fill="#ECECEC" d="M2581 3030.22C2591.42 3014.59 2609.04 2977.86 2624.95 2971.21C2654.88 2958.69 2733.61 2911.25 2762.24 2907.8L2769.49 2919.35C2776.04 2928.52 2788.18 2949.48 2795.85 2953.09C2759.56 3013.7 2715.67 3083.89 2675.35 3141.94C2668.9 3135.19 2656.63 3123.08 2647.92 3119.82L2646.14 3121.93L2643.51 3121.71C2639.52 3116.44 2628.7 3101.81 2624.35 3097.82C2612.28 3086.77 2590.63 3076.72 2582.49 3061.87C2575.56 3049.23 2577.14 3043.18 2581 3030.22Z"/><path fill="#191717" d="M2769.49 2919.35C2776.04 2928.52 2788.18 2949.48 2795.85 2953.09C2759.56 3013.7 2715.67 3083.89 2675.35 3141.94C2668.9 3135.19 2656.63 3123.08 2647.92 3119.82C2653.14 3107.78 2668.12 3089.18 2674.51 3077.99C2694.92 3042.24 2760.3 2955.02 2769.49 2919.35Z"/><path fill="#191717" d="M2624.73 3038.18C2627.56 3038.13 2631.43 3038.48 2634.35 3038.64L2636.57 3041.37C2633.6 3047.95 2628.44 3050.65 2622.49 3055.04C2615.74 3053.25 2608.46 3052.95 2607.81 3045.32C2612.8 3040.11 2617.59 3039.88 2624.73 3038.18Z"/><path fill="#191717" d="M2672.4 2808.48C2677.58 2814.36 2690.65 2830.41 2696.38 2833.44C2711.42 2837.35 2732.71 2863.61 2738.02 2878.04C2745.71 2887.7 2754.11 2898.67 2762.24 2907.8C2733.61 2911.25 2654.88 2958.69 2624.95 2971.21C2609.04 2977.86 2591.42 3014.59 2581 3030.22C2575.29 3023.05 2560.76 3015.53 2552.44 3011.43C2562.74 2988.3 2592.1 2941.18 2606.26 2918.14L2672.4 2808.48Z"/><path fill="#F8F8F5" d="M2696.38 2833.44C2711.42 2837.35 2732.71 2863.61 2738.02 2878.04C2714.22 2889.96 2671.85 2910.81 2647.63 2918.93C2663.59 2889.51 2680.92 2865.2 2696.38 2833.44Z"/><path fill="#ECECEC" d="M2950.22 3155.91C2954.62 3164.76 2965.18 3185.93 2970.32 3193.54C2980.77 3198.86 2994.51 3210.18 3004.01 3217.83C3052.06 3256.53 3119.29 3296.6 3077.46 3366.6C3028.91 3447.83 2921.88 3506.22 2868.6 3392.52C2860.84 3375.95 2826.37 3325.81 2827.29 3310.97C2824.95 3301.78 2803.81 3289.85 2795.18 3284.34C2832.36 3260.97 2918.96 3188.13 2950.22 3155.91Z"/><path fill="#191717" d="M2950.22 3155.91C2954.62 3164.76 2965.18 3185.93 2970.32 3193.54C2958.94 3204.2 2947.01 3214.4 2935.84 3224.89C2948.04 3246.81 2969.43 3268.88 2977.24 3285.83C2955.36 3270.33 2937.44 3254.49 2916.64 3238.46C2901.54 3251.28 2884.58 3267.54 2869.37 3279.27C2888.34 3302.98 2907.13 3344.86 2915.9 3374.06C2885.69 3348.65 2873.1 3327.2 2848.05 3298.83C2843.26 3301.67 2831.79 3308.94 2827.29 3310.97C2824.95 3301.78 2803.81 3289.85 2795.18 3284.34C2832.36 3260.97 2918.96 3188.13 2950.22 3155.91Z"/><path fill="#191717" d="M2991.59 3386.69C3002.59 3389.47 3004.39 3397.22 3006.48 3407.14C3001.74 3408.64 3002.09 3408.72 2997.26 3407.6C2992.42 3402.75 2992.49 3393.99 2991.59 3386.69Z"/><path fill="#ECECEC" d="M1151.18 3161.24C1183.54 3186.56 1274.73 3274.3 1307.5 3285.47C1288.72 3288.51 1280.89 3298.47 1272.63 3315.13C1271.88 3318.22 1217.57 3408.02 1211.26 3421.68C1208.9 3426.8 1195.83 3440.01 1190.58 3443.91C1176.06 3454.67 1157.69 3458.12 1139.7 3455.25C1095.22 3448.17 1052.96 3412.93 1026.85 3377.87C1015.1 3362.09 1003.54 3334.86 1008.46 3314.47C1020.28 3265.42 1082.03 3225.81 1119.71 3196.65C1124.43 3193.01 1124.65 3194.43 1130.06 3195.87C1141.08 3188.72 1148.64 3173.86 1151.18 3161.24Z"/><path fill="#191717" d="M1151.18 3161.24C1183.54 3186.56 1274.73 3274.3 1307.5 3285.47C1288.72 3288.51 1280.89 3298.47 1272.63 3315.13C1262.19 3306.66 1259.83 3305.1 1248 3298.69C1237.43 3310.23 1225.45 3328.26 1214.77 3340.87C1201.06 3357.05 1188.22 3370.85 1173.4 3386C1180.22 3356.14 1208.92 3301.16 1229.15 3280.07C1213.57 3266.12 1196.1 3251.73 1180.12 3238.05C1158.19 3253.23 1139 3275.53 1115.97 3291.87C1126.45 3268.23 1145.99 3248.69 1159.19 3224.02C1152.46 3213.45 1139.06 3206.57 1130.06 3195.87C1141.08 3188.72 1148.64 3173.86 1151.18 3161.24Z"/><path fill="#ECECEC" d="M2795.85 2953.09C2798.16 2953.53 2800.47 2953.97 2802.78 2954.41C2815.52 2966.39 2849.49 3007.23 2852.97 3022.69C2857.33 3027.71 2873.49 3049.23 2876.22 3051.16C2891.32 3052.84 2910.59 3074.15 2904.57 3089.09C2912.17 3097.22 2922.43 3107.44 2928.76 3116.27C2953.04 3115.3 2957.32 3137.5 2950.22 3155.91C2918.96 3188.13 2832.36 3260.97 2795.18 3284.34C2768.1 3284.35 2738.22 3262.27 2740.15 3234.41C2737.52 3225.59 2723.24 3211.61 2714.26 3209.91C2704.08 3206.92 2680.08 3179.82 2675.39 3168.66C2670.39 3156.78 2671.6 3153.94 2675.35 3141.94C2715.67 3083.89 2759.56 3013.7 2795.85 2953.09Z"/><path fill="#ECECEC" d="M2928.76 3116.27C2953.04 3115.3 2957.32 3137.5 2950.22 3155.91C2918.96 3188.13 2832.36 3260.97 2795.18 3284.34C2768.1 3284.35 2738.22 3262.27 2740.15 3234.41C2749.18 3227.5 2773.61 3191.01 2781.58 3179.47C2833.35 3158.73 2877.63 3139.16 2928.76 3116.27Z"/><path fill="#191717" d="M2852.97 3022.69C2857.33 3027.71 2873.49 3049.23 2876.22 3051.16C2891.32 3052.84 2910.59 3074.15 2904.57 3089.09C2912.17 3097.22 2922.43 3107.44 2928.76 3116.27C2877.63 3139.16 2833.35 3158.73 2781.58 3179.47C2773.61 3191.01 2749.18 3227.5 2740.15 3234.41C2737.52 3225.59 2723.24 3211.61 2714.26 3209.91C2727.99 3195.9 2760.81 3147.99 2774.21 3129.24C2800.04 3093.41 2826.3 3057.89 2852.97 3022.69Z"/><path fill="#ECECEC" d="M2876.22 3051.16C2891.32 3052.84 2910.59 3074.15 2904.57 3089.09C2877.33 3102.05 2849.82 3114.4 2822.04 3126.14C2838.58 3100.73 2858 3075.54 2876.22 3051.16Z"/><path fill="#191717" d="M2793.43 3026.91C2798.66 3030.88 2796.34 3028.89 2799.28 3036.33L2801.69 3037.31L2808.01 3033.45L2806.42 3035.03L2807.2 3037.49L2800.29 3048.98C2796.34 3051.91 2796.26 3051.58 2791.35 3052.61C2788.09 3045.31 2789.72 3033.8 2793.43 3026.91Z"/><path fill="#929192" fill-opacity="0.019607844" d="M1261.63 1532.08C1317.37 1520.83 1294.68 1520.47 1342.52 1546.8C1355.66 1559.07 1369.08 1577 1380.52 1591.29L1377.62 1596.46C1361.89 1590.71 1369.14 1580.27 1355.89 1585.55C1355.03 1595.38 1354.18 1603.89 1366.31 1608.05C1365.37 1604.91 1365.01 1603.85 1363.85 1600.91L1365.74 1598.14L1370.15 1597.95L1375.14 1603.27L1374.69 1605.91L1370.18 1607.02C1380.13 1616.86 1384.45 1614.2 1389.59 1628.69C1400.31 1658.97 1445.66 1683.14 1459.06 1711.24C1454.91 1714.47 1457.14 1713.3 1452.44 1714.88C1456.33 1718.11 1457.9 1717.91 1462.94 1719.2C1467.58 1723.58 1467.58 1723.13 1469.55 1729.11C1463.96 1726.96 1463.97 1725.86 1459.55 1721.3L1456.56 1722.57C1433.41 1692.57 1421.44 1682.14 1394.95 1654.97L1390.8 1655.27L1387.74 1659.24C1390.6 1670.93 1400.03 1673.58 1403.84 1683.03C1398.61 1684.7 1400.69 1684.23 1394.74 1683.34C1400.03 1688.64 1397.02 1687.11 1403.65 1688.85C1391.39 1695.29 1360.1 1661.27 1356.94 1650.41L1352.12 1647.29L1352.36 1642.22L1356.56 1640.59C1354.59 1628.62 1352.4 1628.72 1341.66 1623.62L1340.01 1620.03L1341.45 1616.38L1346.99 1614.9L1347.3 1612.2L1338.08 1606.02C1340.5 1598.08 1345.62 1586.27 1343.01 1579.12L1339.5 1577.99C1336.6 1580.25 1333.68 1582.49 1330.74 1584.7C1323.42 1571.15 1311.07 1556.49 1295.1 1554.13C1284.34 1562.47 1299 1559.01 1284.45 1565.12L1282.48 1564.26L1279.84 1554.58L1278.36 1554.86L1274.99 1565.5C1268.6 1563.07 1264.17 1560.77 1257.35 1560.73C1251.85 1567.18 1258.83 1572.92 1256.89 1580.39C1245.18 1579.06 1249.28 1567.39 1239.77 1577.66L1236.95 1577.02L1236.78 1573.71C1231.29 1575.49 1233.4 1575.04 1228.55 1580.3L1228.75 1582.32L1230.06 1578.12C1231.93 1582.52 1231.28 1583.48 1234.09 1584.98L1230.66 1587.24L1234.47 1591.29L1238.03 1591.04C1242.89 1584.4 1241.62 1588.01 1242.05 1579.87C1247.02 1580.85 1244.96 1579.7 1247.96 1583.98L1245.57 1589.09C1255.18 1588.29 1257.36 1588 1265.47 1593.33L1265.25 1595.33C1257.2 1599.08 1236.24 1613.54 1227.99 1610.75L1225.99 1606.58L1225.45 1607.95L1229.44 1610.87L1227.24 1604.68C1229.91 1601.45 1233.56 1598.43 1233.63 1595.18L1229.49 1594.79C1226.98 1597.48 1225.36 1600.5 1223.62 1602.45C1215.91 1611.09 1199.5 1619.37 1212.48 1634.15C1231.72 1636.25 1245.81 1603.68 1266.94 1612.79L1267.14 1615.15C1256.1 1617.63 1247.37 1626.91 1250.12 1638.57L1252.47 1640.09L1256.97 1637.35C1262.57 1670.66 1230.55 1688.93 1227.04 1720.98L1232.77 1723.63C1232.8 1724.16 1220.87 1754.98 1217.86 1757.82L1210.77 1758.78C1207.6 1768.13 1211.79 1762.62 1210.31 1767.24C1207.6 1764.9 1204.54 1763.97 1201.14 1763.17C1193.46 1739.88 1207.71 1708.35 1206.22 1699.94L1200.81 1701.81C1198.89 1695.6 1197.64 1684.09 1196.68 1677.26C1203.22 1669.44 1219.62 1651.62 1220.65 1642.15C1213.12 1641.84 1216.36 1640.87 1210.37 1644.32C1207.49 1652.65 1208.7 1653.68 1202.98 1658.24C1197.28 1658.57 1194.92 1659.44 1190.14 1656.61C1192.23 1648.37 1202.9 1649.02 1199.13 1638.18C1192.25 1638.62 1195.54 1637.68 1189.29 1642.13C1183.73 1659.44 1173.3 1690.04 1170.31 1708.56C1170.49 1707.47 1178.3 1736.07 1178.93 1737.7C1186.34 1725.21 1181.46 1711.14 1190.19 1703.3L1195.56 1703.06L1198.27 1706.05L1197.9 1709.36L1191.72 1711.82C1189.92 1723.25 1192.85 1743.36 1190.76 1760.97C1187.56 1761.78 1187.39 1761.65 1184.77 1763.81C1185.47 1775.59 1188.61 1789.83 1186.1 1800.23L1184.32 1801.36C1177.99 1790.28 1182.09 1773.16 1179.15 1761.5C1178.71 1759.76 1172.6 1748.99 1171.27 1746.42C1168.26 1747.96 1166.68 1747.85 1166.43 1750.72C1163.78 1781.57 1171.08 1826.74 1181.46 1856.05C1184.3 1864.08 1184.82 1862.98 1184.51 1871.6L1178.75 1874.57C1170.96 1856.42 1164.27 1822.35 1161.37 1802.87C1148.89 1719.12 1172.31 1637.57 1223.11 1570.07C1232.87 1562.69 1251.04 1542.3 1261.63 1532.08ZM1209.39 1747.05C1218.29 1712.39 1229.87 1685.15 1248.39 1654.79C1249.83 1652.43 1248.93 1652.36 1247.92 1649.13L1243.53 1646.8C1229.12 1676.18 1197.65 1716.87 1208.29 1748.32L1209.39 1747.05Z"/><path fill="#1E1B1D" fill-opacity="0.039215688" d="M1243.53 1646.8L1247.92 1649.13C1248.93 1652.36 1249.83 1652.43 1248.39 1654.79C1229.87 1685.15 1218.29 1712.39 1209.39 1747.05L1208.29 1748.32C1197.65 1716.87 1229.12 1676.18 1243.53 1646.8Z"/><path fill="#929192" fill-opacity="0.011764706" d="M1314 1638.86C1334.66 1641.04 1377.49 1683.88 1391.39 1700.57C1396.8 1697.3 1396.79 1697.37 1402.9 1695.63C1422.96 1701.69 1419.77 1731.13 1438.89 1731.68L1441.22 1726.83C1450.12 1721.48 1456.46 1739.98 1470.23 1742.71C1474.7 1738.84 1473.41 1738.23 1474.76 1730.77L1477.69 1732.62C1480.01 1739.87 1479.82 1736.03 1476.25 1744.5L1480.1 1748.22C1473.19 1761.79 1453.33 1743.34 1439.01 1755.35C1423.57 1768.28 1431.91 1783.72 1419.54 1797.41C1411.99 1805.76 1398.85 1835.6 1388.47 1837.57C1384.44 1830.49 1385.53 1817.23 1378.89 1804.65L1378 1803C1377.59 1797.41 1369.95 1776.3 1368.15 1768.72C1363 1747.04 1356.59 1724 1353.02 1702.03L1354.72 1699.8C1362.54 1703.86 1371.85 1719.86 1382.15 1728.8L1384.59 1727.21L1384.63 1726.83C1378.4 1720.56 1365.68 1698.49 1368.46 1689.96C1364.55 1689.06 1363.83 1688.93 1360.08 1689.11L1360.71 1680.16L1358.22 1677.71L1353.09 1678.94C1341.06 1694.34 1347.17 1679.91 1331.78 1686.29C1322.85 1702.61 1342.41 1713.72 1337.11 1730.4L1327.42 1732.15L1323.33 1739.54L1319.19 1740.15C1314.43 1730.3 1314.94 1693.67 1316.6 1682.65C1320.72 1682.18 1319.79 1682.49 1323.69 1681.09C1305.34 1673.64 1314.05 1656.89 1314 1638.86ZM1415.84 1794.9C1420.67 1787.03 1420.66 1789.59 1420.47 1781.65C1416.15 1776.88 1415.97 1777.44 1409.57 1775.77C1408.29 1783.03 1408.15 1788.97 1412.96 1795.27L1415.84 1794.9Z"/><path fill="#1E1B1D" fill-opacity="0.019607844" d="M1409.57 1775.77C1415.97 1777.44 1416.15 1776.88 1420.47 1781.65C1420.66 1789.59 1420.67 1787.03 1415.84 1794.9L1412.96 1795.27C1408.15 1788.97 1408.29 1783.03 1409.57 1775.77Z"/><path fill="#929192" fill-opacity="0.019607844" d="M1760.19 1744.7L1763 1736.22C1775.82 1747.85 1785.7 1769.38 1799.69 1770.35C1783.5 1748.46 1773.58 1744.07 1762.94 1716.95C1766.21 1709.21 1767.22 1710.43 1765.49 1704.08C1759.58 1698.25 1757.84 1698.48 1756.15 1691.74L1758 1689.17C1795.05 1691.49 1840.37 1792.91 1862.04 1817.84C1872.63 1830.02 1890.23 1867.92 1902.48 1875.5L1905.26 1873.61L1907.58 1860.33C1908.63 1868.84 1912.67 1877.57 1912.37 1883.32L1914.17 1886.32C1913.79 1892.6 1908.62 1901 1912.92 1906.61C1920.07 1915.96 1927.94 1919.69 1933.38 1930.73L1932.71 1935.06L1929.72 1936.75L1923.17 1931.06L1918.25 1932.44C1908.52 1926.21 1778.52 1765.91 1760.19 1744.7Z"/><path fill="#1E1B1D" fill-opacity="0.027450981" d="M1956.84 1502.67C1967.17 1508.66 2143.17 1518.7 2166.53 1516.36C2173.61 1516.79 2214.92 1516.08 2215.11 1516.17C2236.53 1525.68 2227.6 1526.8 2254.39 1525.92L2256.03 1527.96C2242.11 1535.47 2231.55 1521.04 2225.98 1536.2C2228.78 1544.58 2235.75 1541.81 2243.41 1540.77L2239.2 1547.91C2230.17 1549.59 2232.17 1547.93 2226.12 1553.28C2194.06 1553.29 2147.82 1547.63 2114.93 1544.17C2110.87 1543.74 2109.09 1544.42 2104.6 1543.4C2114.84 1533.96 2145.59 1549.04 2154.85 1535.79L2153.97 1532.38C2140.47 1530.05 2115.04 1530.35 2100.32 1529.74C2073.08 1528.36 2045.86 1526.66 2018.66 1524.64C1994.75 1522.8 1961.19 1514.64 1938.48 1516.09C1931.44 1510.38 1929.44 1509.3 1920.57 1507.44L1921.92 1504.97C1934.19 1504.28 1944.01 1502.88 1956.84 1502.67Z"/><path fill="#1E1B1D" fill-opacity="0.043137256" d="M2364.47 1403C2376.4 1402.77 2399.18 1401.2 2409.21 1405.77L2409.63 1408.54C2394.57 1412.5 2380.1 1417.54 2364.44 1421.71L2362.36 1425.29L2363.91 1428.66C2375.09 1432.62 2383.75 1426.06 2394.74 1428.8C2392.2 1438.39 2375.02 1442.85 2366.4 1446.02C2366.91 1453.91 2366.65 1474.07 2370.8 1478.41C2375.63 1475 2374.37 1469.92 2383 1465.27L2386.9 1467.58C2390.08 1480.7 2371.28 1506.66 2358.36 1500.72C2354.17 1493.69 2355.51 1489.17 2356.02 1480.5C2356.13 1470.5 2355.62 1459.84 2355.32 1449.8C2348.98 1452.26 2342.58 1454.6 2336.15 1456.83C2328.95 1459.23 2325.63 1459.47 2318.75 1456.1C2313.84 1448.59 2316.23 1447.23 2315.1 1436.47C2304.24 1431.19 2256.32 1452.31 2247.66 1451.99L2247.56 1448.65C2264.2 1434.66 2314.85 1417 2337.18 1409.58C2345.65 1406.77 2356.69 1407.08 2364.47 1403Z"/><path fill="#B1B0B1" fill-opacity="0.011764706" d="M2559.14 1479.27C2557.05 1477.65 2556.51 1476.73 2554.78 1474.7C2556.17 1457.64 2559.45 1452.73 2566.41 1438.08C2575.19 1419.6 2562.08 1423.8 2585.21 1412.17L2584.93 1408.5C2575.96 1401.31 2572.65 1398.36 2573.69 1386.24C2574.39 1378.06 2568.8 1354.27 2569.94 1349.97C2575.77 1346.44 2577.47 1346.53 2580.53 1341.16L2577.08 1333.96L2578.93 1331.7L2584.26 1335.31L2589.19 1332.76C2600.98 1337.63 2596.53 1351.93 2611.72 1350.68L2615.29 1345.71C2618.46 1353.19 2621.86 1360.53 2624.06 1368.32C2620.35 1382.29 2606 1418 2605.19 1422.02C2590.51 1441.64 2575.15 1460.73 2559.14 1479.27Z"/><path fill="#1E1B1D" fill-opacity="0.015686275" d="M1877.88 1339.42C1872.29 1340.42 1866.54 1340.6 1862.63 1344.26C1865.09 1354.4 1878.01 1352.61 1887.49 1375.43L1886.35 1377.19C1881.69 1375.04 1877.7 1373.82 1872.87 1372.24L1871.44 1373.78L1877.7 1383.89L1876.39 1385.25C1849.81 1375.83 1853.82 1363.47 1836.29 1348.8C1827.37 1341.32 1810.28 1334.2 1798.51 1325L1799.16 1323.21C1804.29 1322.79 1801.77 1323.23 1806.71 1321.88C1800.8 1316.1 1790.32 1309.57 1781.99 1308.36L1779.84 1310.64C1783.66 1321.12 1781.59 1310.01 1789.62 1318.25C1782.83 1319.12 1778.8 1314.9 1771.06 1314.79C1747.45 1314.44 1726.98 1303.73 1702.68 1301.99L1701 1301.88L1699.56 1299.82C1703.08 1295.14 1702.43 1297.14 1703.58 1291.82C1701.06 1290.54 1699.08 1289.91 1696.38 1289.19L1697.04 1287.92C1706.64 1283.78 1709.61 1287.23 1720.12 1285.81C1727.69 1279.4 1726.03 1279.38 1734.97 1281.95L1736.11 1284.2L1731.54 1286.16C1730.63 1291.42 1729.15 1291.91 1725.35 1296.02C1724.49 1290.55 1725.87 1292.4 1722.42 1289.46C1716.95 1290.4 1718.15 1289.52 1713.8 1292.19C1723.19 1297.68 1777.98 1312.09 1789.94 1306.28C1790.27 1306.12 1832.31 1323.87 1834.29 1324.92L1836.29 1326.02L1838.67 1324.81L1840.01 1315.11C1849.7 1321.6 1868.61 1336.15 1877.88 1339.42Z"/><path fill="#B1B0B1" fill-opacity="0.011764706" d="M2008 1318.24C2009.06 1318.66 2010.11 1319.09 2011.17 1319.51C2027.27 1335.45 2054.26 1323.13 2072.41 1336.7C2075.36 1343.76 2075.08 1340.24 2073.39 1347.62C2069.74 1344.34 2071.13 1345.72 2067.76 1342.16L2065.42 1339.65L2062.68 1341.08C2060.11 1346.25 2061.56 1349.61 2062.63 1355.54L2063.1 1358.09C2059.56 1364.71 2062.17 1361.94 2053.49 1365.11C2050.78 1370.18 2052.89 1378.16 2053.77 1384.34C2054.14 1384.98 2054.68 1387.98 2054.86 1388.85C2044.95 1388.56 2040.96 1389.04 2031.83 1385.54C2025.99 1380.39 2024.68 1369.19 2022.18 1360.6C2019.95 1369.34 2020.3 1370.5 2015.54 1378.14L2012.42 1378.51C2009.55 1372.24 2010.95 1360.36 2011.13 1352.59L2003.32 1350.75C2001.53 1345.98 2001.34 1348.24 2002.91 1343.84L2007.12 1347.07C2009.23 1340.18 2008.14 1326.2 2008 1318.24Z"/><path fill="#B1B0B1" fill-opacity="0.023529412" d="M1293.24 1564.67C1303.57 1570.7 1311.45 1577.78 1320.66 1585.39L1320.93 1584.62C1329.14 1595.39 1327.97 1595.16 1323.06 1606.82C1331.07 1613.75 1344.78 1623.29 1338.97 1635.44C1331.35 1630.6 1329.06 1624.42 1324.57 1616.39C1323.54 1621.05 1323.18 1624.91 1322.61 1629.62C1323.54 1632.5 1323.15 1630.69 1323.1 1635.14C1311.03 1640.42 1303.75 1630.66 1296.11 1622.29C1285.99 1611.21 1264.96 1595.03 1265.21 1579.81C1275.7 1573.5 1289.09 1586.01 1296.36 1572L1293.24 1564.67Z"/><path fill="#191717" fill-opacity="0.011764706" d="M1956.84 1502.67C1967.29 1499.78 2013.38 1506.39 2026.61 1507.19C2058.44 1509.12 2101.17 1514.41 2132.7 1510.92C2134.73 1506.86 2134.15 1509.13 2132.52 1503.41C2124.91 1501.4 2122.59 1502.22 2122.98 1492.74C2123.35 1483.9 2117.73 1482.27 2119.71 1473.51C2135.12 1460.79 2164.33 1477.85 2171.14 1475.69C2181.91 1472.27 2198.32 1459.1 2213.59 1470.74C2206.11 1486.34 2178.81 1476.46 2169.66 1480.36C2165.03 1482.34 2141.61 1500.07 2136.93 1504.27L2138.42 1510.71C2148.34 1514.47 2156.7 1513.6 2166.53 1516.36C2143.17 1518.7 1967.17 1508.66 1956.84 1502.67Z"/><path fill="#1E1B1D" fill-opacity="0.019607844" d="M2432.33 1306.04L2435.34 1302.4C2448.45 1303.2 2481.98 1307.86 2492.1 1305.42C2490.49 1312.64 2489.59 1321.94 2483.53 1326.88C2466.63 1340.68 2443.4 1326.42 2423.01 1327.54C2400.73 1328.76 2377.12 1334.5 2354.56 1333.36L2352.06 1331.14L2350.59 1332.27L2350.65 1332.32L2353.07 1330L2354.14 1332.45L2355.34 1332.49L2355.74 1329.03C2371.39 1323.99 2383.11 1322.43 2398.29 1320.29C2410.32 1318.6 2465.23 1319.81 2470.87 1317.21L2471.11 1312.97C2469.05 1310.59 2467.43 1307.63 2463.17 1308.63C2452.14 1311.2 2443.01 1302.83 2432.33 1306.04Z"/><path fill="#1E1B1D" fill-opacity="0.023529412" d="M1894.88 1390.92C1907.07 1392.58 1928.83 1414.65 1929.83 1426.79L1927.06 1429.45C1916.61 1428.65 1915.76 1427.31 1908.71 1433.18L1909.09 1437.14C1923.31 1446.94 1944.47 1436.81 1951.83 1440.16C1965.23 1447.53 1986.74 1439.64 1998.39 1448.27C2005.12 1453.26 2007.65 1451.73 2013.72 1455.47C2006.67 1456.01 1999.61 1456.36 1992.55 1456.54C1975.48 1452.18 1943.91 1455.79 1930.36 1452.26C1917.92 1449.02 1917.38 1447.68 1901.25 1445.21C1904.05 1438.14 1906.51 1434.68 1902.54 1428.32C1892.27 1426.2 1890.21 1426.5 1884.11 1417.92L1885.93 1415.01C1898.28 1413.24 1899.05 1426.94 1913.82 1418.82C1917.42 1406.81 1903.5 1408.39 1894.88 1390.92Z"/><path fill="#191717" fill-opacity="0.019607844" d="M2356.7 1519.93C2365.98 1520.64 2371.5 1520.08 2374.91 1529.24C2372.79 1539.14 2360.92 1550.85 2353.68 1559.33C2354.85 1566.37 2353.49 1563.09 2359.07 1568.94C2368.68 1567.35 2358.99 1567 2367.74 1562.59L2370.19 1564.89C2368.5 1575.4 2345.48 1610.16 2335.89 1617.11L2334.88 1613.75L2333.49 1611.66L2335.74 1610.05C2336.1 1594.92 2346.18 1583.7 2357.45 1574.58C2356.72 1567.92 2358.25 1570.44 2354.16 1566.15C2343.93 1569.09 2342.66 1578 2333.11 1582.07C2330.45 1567.92 2346.19 1554.73 2350.84 1541.37C2352.01 1538.01 2352.4 1527 2352.55 1522.96L2356.7 1519.93Z"/><path fill="#929192" fill-opacity="0.011764706" d="M1555.24 1289.61L1567.44 1289.97C1569.61 1293.96 1569.02 1291.71 1568.72 1296.84L1578.79 1297.29L1580.17 1299.25C1568.04 1309.94 1545.28 1311.26 1534.68 1317.3C1526.77 1321.81 1520.44 1333.76 1506.74 1341.97L1504.81 1341.55C1504.42 1335.29 1504.14 1329.08 1503.37 1322.85C1521.19 1308.91 1535.55 1300.58 1555.24 1289.61Z"/><path fill="#191717" fill-opacity="0.011764706" d="M1997.28 2025.73L2002.82 2024C2004.73 2015.52 2003.08 2016.26 2008.4 2012.22C2020.03 2015.49 2011.39 2019.52 2025.39 2022.82C2033.09 2015.08 2021.3 2020.63 2030.03 2012.96L2032.25 2013.96L2033.31 2021.8C2039.4 2020.52 2038.38 2019.81 2043.59 2014.57C2049.38 2021.38 2044.73 2034.45 2046.72 2043.88C2041.94 2049.34 2027.81 2049.92 2021.28 2046.67L2018.09 2050.63L2015.2 2048.21L1997.28 2025.73Z"/><path fill="#1E1B1D" fill-opacity="0.011764706" d="M1805.25 1565.67C1813.47 1571.79 1861.19 1664.02 1872.21 1678.97C1874.41 1681.95 1875.25 1689.04 1875.34 1692.93C1853.99 1688.67 1840.77 1642.47 1831.41 1623.46C1824.9 1610.22 1806.29 1578.34 1805.25 1565.67Z"/><defs><linearGradient id="gradient_0" gradientUnits="userSpaceOnUse" x1="2457.188" y1="1531.5251" x2="2468.0459" y2="1538.5743"><stop offset="0" stop-color="#1F1D1F" stop-opacity="0"/><stop offset="1" stop-color="#1B181A" stop-opacity="0.031372551"/></linearGradient></defs><path fill="url(#gradient_0)" d="M2437.22 1582.22C2434.32 1585.72 2428.01 1587.04 2423.76 1587.88L2421.48 1586.09C2423.4 1582.28 2425.45 1579.02 2427.98 1575.59C2424.42 1575.48 2425.85 1576.16 2423.56 1573.87C2432.01 1562.44 2478.17 1503.51 2489.29 1506.51C2486.04 1528.52 2446.96 1545.91 2445.65 1569.84L2442.72 1567.06C2436.17 1569.93 2433.59 1573.91 2432.27 1580.83C2435.4 1583.06 2433.73 1582.71 2437.22 1582.22Z"/><path fill="#191717" fill-opacity="0.031372551" d="M2293.55 1370.04L2295.51 1372.99C2287.27 1400.81 2274.31 1407.67 2246.61 1412.4C2244.3 1410.94 2245.5 1412.09 2244.37 1407.95C2249.93 1392.79 2280.13 1377.68 2293.55 1370.04Z"/><path fill="#1E1B1D" fill-opacity="0.023529412" d="M2226.72 1622.61L2228.42 1622.83L2229.19 1625.1C2205.83 1643.84 2190.05 1669.12 2159.06 1676.68C2155.96 1673.95 2157.11 1675.64 2155.74 1671.52C2164.59 1658.21 2210.19 1632.63 2226.72 1622.61Z"/><path fill="#1E1B1D" fill-opacity="0.027450981" d="M1701.93 1470.03C1725.68 1488.5 1745.59 1535.73 1759.39 1564.08L1757.59 1568.34C1746.05 1551.86 1703.5 1486.54 1701.93 1470.03Z"/><defs><linearGradient id="gradient_1" gradientUnits="userSpaceOnUse" x1="2260.1619" y1="1363.7646" x2="2251.6348" y2="1350.9152"><stop offset="0" stop-color="#1C1A1C" stop-opacity="0.011764706"/><stop offset="1" stop-color="#1E1C1F" stop-opacity="0.06666667"/></linearGradient></defs><path fill="url(#gradient_1)" d="M2303.54 1333.16L2305.18 1333.63L2305.74 1335.98C2293.64 1346.22 2289.11 1340.18 2285.13 1341.97C2259.13 1353.64 2233.38 1366.35 2216.26 1388.57C2214.02 1389.91 2215.46 1389.4 2211.68 1388.95L2210.53 1384.66C2218.32 1368.07 2248.82 1353.23 2263.38 1343.62C2277.74 1334.15 2287.16 1333.76 2303.54 1333.16Z"/><path fill="#1E1B1D" fill-opacity="0.011764706" d="M2243.41 1540.77C2248.9 1543.67 2247.73 1541.64 2249.12 1545.92L2242.81 1550.1C2241.77 1556.44 2244.61 1559.72 2247.81 1565.52C2242.76 1573.3 2215.76 1579.8 2210.65 1565.24L2215.76 1562.97L2214.19 1559.25C2221.41 1557.74 2220.22 1564.74 2226.81 1560.36C2226.65 1557.36 2226.69 1556.24 2226.12 1553.28C2232.17 1547.93 2230.17 1549.59 2239.2 1547.91L2243.41 1540.77Z"/><defs><linearGradient id="gradient_2" gradientUnits="userSpaceOnUse" x1="1898.1919" y1="1854.0961" x2="1908.3602" y2="1848.6758"><stop offset="0" stop-color="#211E20" stop-opacity="0.011764706"/><stop offset="1" stop-color="#1B1A1C" stop-opacity="0.050980393"/></linearGradient></defs><path fill="url(#gradient_2)" d="M1907.58 1860.33C1898.48 1846.32 1893.7 1837.77 1886.2 1822.78L1887.07 1818.79C1901.88 1830.3 1925.26 1867.49 1922.25 1885.95L1920.17 1887.61C1917.83 1883.05 1918.69 1885.37 1917.5 1880.69L1915 1880.67L1914.17 1886.32L1912.37 1883.32C1912.67 1877.57 1908.63 1868.84 1907.58 1860.33Z"/><path fill="#1E1B1D" fill-opacity="0.027450981" d="M1891.8 1584.2C1905.74 1596.34 1937.37 1610.17 1935.09 1636.43C1924.38 1620.42 1891.44 1607.15 1891.8 1584.2Z"/><defs><linearGradient id="gradient_3" gradientUnits="userSpaceOnUse" x1="2446.8877" y1="1314.0989" x2="2451.5527" y2="1294.0033"><stop offset="0" stop-color="#201F1F" stop-opacity="0.011764706"/><stop offset="1" stop-color="#1C191B" stop-opacity="0.074509807"/></linearGradient></defs><path fill="url(#gradient_3)" d="M2432.33 1306.04L2428.72 1309.49C2420.28 1308.51 2417.6 1309.06 2411.62 1303.27C2420.69 1292.1 2479.3 1296.76 2491.25 1302.81L2492.1 1305.42C2481.98 1307.86 2448.45 1303.2 2435.34 1302.4L2432.33 1306.04Z"/><path fill="#1E1B1D" fill-opacity="0.019607844" d="M1804.25 1466.25C1810.94 1468.69 1853.15 1483.97 1856.58 1486.88C1830.02 1489.81 1809.95 1498.13 1804.25 1466.25Z"/><path fill="#191717" fill-opacity="0.019607844" d="M1990.81 1929.72L1996.98 1930.39C2006.42 1937.43 2026.14 1949.84 2018.54 1962.9L2009.92 1964.85C2009.25 1959.82 2010.26 1962 2006.07 1958.58L1996.66 1960.29L1994.53 1958.41C1999.87 1956.11 1998.78 1957.73 2001.46 1953.95C1996.62 1947.18 1990.31 1938.23 1990.81 1929.72Z"/><path fill="#696869" fill-opacity="0.015686275" d="M1607.95 1376.5C1614.73 1377.36 1624.4 1379.63 1627.05 1386.3C1623.68 1391.78 1613.22 1397.57 1607.53 1402.56C1602.5 1398.9 1594.18 1394.16 1592.61 1388.72C1605.74 1382.8 1600.56 1389.21 1607.95 1376.5Z"/><path fill="#1E1B1D" fill-opacity="0.011764706" d="M1802.1 1691.59C1819.74 1697.07 1832.86 1739.65 1840.01 1756.76C1827.66 1751.28 1808.69 1705.74 1802.1 1691.59Z"/><path fill="#191717" fill-opacity="0.011764706" d="M2530.61 1388.89C2538.01 1390.21 2537.57 1390.16 2541.36 1395.77C2543.66 1413.31 2534.23 1431.34 2517.47 1437.91C2515.33 1430.71 2527.63 1423.41 2528.97 1417.87C2531.14 1408.84 2531.03 1397.95 2530.61 1388.89Z"/><path fill="#1E1B1D" fill-opacity="0.027450981" d="M2296.97 1619.91C2299.68 1639.71 2292.98 1654.43 2271.73 1656.02C2269.7 1646.68 2290.68 1626.86 2296.97 1619.91Z"/><path fill="#1E1B1D" fill-opacity="0.027450981" d="M1765.44 1431.53C1756.43 1439.5 1764.95 1435.72 1757.7 1444.99C1745.98 1443.85 1734.81 1434.26 1729.43 1424.09C1731.98 1423.98 1758.52 1429.91 1761.68 1430.9L1763.52 1431.49L1765.44 1431.53Z"/><path fill="#1E1B1D" fill-opacity="0.027450981" d="M2226.39 1711.93C2232.83 1708.84 2238.56 1702.82 2242.63 1701.52C2242.63 1701.57 2233.3 1723.94 2232.56 1725.77C2227.12 1728.72 2230.32 1733.05 2221.01 1735.5C2214.62 1732.26 2216.31 1734.7 2214.43 1729.02C2217.41 1720.59 2223.48 1719.91 2226.39 1711.93Z"/><path fill="#1E1B1D" fill-opacity="0.023529412" d="M2111.37 1888.89C2119.81 1898.67 2104.39 1915.6 2095.87 1921.2L2090.57 1919.32L2089.54 1916.19C2093.25 1904.02 2102.01 1897.65 2111.37 1888.89Z"/><path fill="#191717" fill-opacity="0.011764706" d="M2213.43 1418.93C2217.82 1426.9 2218.93 1431.12 2217.05 1439.55C2212.58 1445.8 2212.81 1446.64 2205.42 1449.05C2200.71 1445.62 2202.6 1447.71 2200.5 1442.03C2201.2 1433.45 2208.08 1426.29 2213.43 1418.93Z"/><path fill="#1E1B1D" fill-opacity="0.019607844" d="M2281.59 1766.12L2282.82 1767.85C2279.6 1774.92 2248.72 1802.87 2240.28 1812.02L2239.2 1807.22C2249.1 1789.25 2265.39 1779.23 2281.59 1766.12Z"/><path fill="#1E1B1D" fill-opacity="0.011764706" d="M2546.64 1388.83L2553.85 1390.6C2565.92 1408.39 2561.72 1417 2547.93 1431.6L2546.11 1430.15C2548.18 1421.23 2550.64 1416.79 2554.51 1408.55C2547.39 1398.89 2546.85 1399.83 2546.64 1388.83Z"/><path fill="#1E1B1D" fill-opacity="0.019607844" d="M2514.69 1316.28C2523.11 1314.41 2531.46 1315.71 2538.16 1321.13C2541.33 1327.62 2541.31 1324.49 2540 1330.61L2535.5 1331.17C2527.99 1328.47 2527.3 1327.08 2522.46 1320.7C2519.73 1322.42 2517.01 1324.17 2514.31 1325.94C2507.21 1326.48 2503.31 1327.81 2497.32 1325.33L2500.86 1320.72C2505.61 1324.06 2505.31 1324.27 2510.93 1325.23C2515.39 1321.49 2513.51 1323.82 2514.69 1316.28Z"/><path fill="#1E1B1D" fill-opacity="0.031372551" d="M1893.75 1525.95C1903.1 1526.75 1911.66 1528.08 1917.79 1535.9C1917.93 1541.79 1918.65 1539.03 1914.92 1544.24C1905.26 1543.41 1895.79 1540.37 1891.65 1530.96L1893.75 1525.95Z"/><path fill="#1E1B1D" fill-opacity="0.011764706" d="M1646.43 1477.59C1651.71 1499.6 1667.53 1501.99 1668.43 1518.81L1663.74 1516.51L1660.61 1519.21C1652.39 1516.81 1643.53 1487.12 1646.43 1477.59Z"/><path fill="#1E1B1D" fill-opacity="0.035294119" d="M2183.25 1857.8L2184.55 1859C2181.43 1868.3 2150.62 1895.94 2141.99 1902.28L2141.4 1901.83C2148.39 1886.86 2170.18 1867.87 2183.25 1857.8Z"/><path fill="#1E1B1D" fill-opacity="0.011764706" d="M1767.46 1333.83C1785.12 1333.26 1804.18 1348.54 1816.23 1360.4C1801.87 1357.61 1779.54 1342.52 1767.46 1333.83Z"/><path fill="#1E1B1D" fill-opacity="0.015686275" d="M2100.52 1357.55C2102.3 1365.15 2108.73 1389.52 2107.68 1395.82L2101.31 1395.04L2102.49 1393.12C2098.78 1398.37 2100.07 1398.46 2099.81 1406.13L2098.77 1407.74L2096.44 1407.21C2095.65 1405.02 2099.76 1361.91 2100.52 1357.55Z"/><path fill="#1E1B1D" fill-opacity="0.015686275" d="M1741.89 1641.53C1760.96 1653.62 1767.03 1667.6 1781.79 1684.16C1762.13 1675.16 1752.51 1659.91 1741.89 1641.53Z"/><path fill="#191717" fill-opacity="0.011764706" d="M2232.56 1725.77C2231.86 1733.81 2221.77 1741.89 2217.41 1750.6C2212.15 1746.02 2206.85 1716.57 2226.39 1711.93C2223.48 1719.91 2217.41 1720.59 2214.43 1729.02C2216.31 1734.7 2214.62 1732.26 2221.01 1735.5C2230.32 1733.05 2227.12 1728.72 2232.56 1725.77Z"/><path fill="#191717" fill-opacity="0.011764706" d="M2194.82 1427.88L2197.69 1428.11L2199.41 1430.77C2195.36 1432.73 2178.61 1444.77 2170.79 1449.11C2168.39 1449.79 2170 1449.53 2165.91 1448.75C2169.47 1437.53 2184.02 1430.4 2194.82 1427.88Z"/><path fill="#191717" fill-opacity="0.023529412" d="M2026.72 1879.14C2033.84 1881.9 2034.43 1881.63 2040.03 1887.13C2042.4 1895.24 2041.83 1892.38 2039.77 1901.42C2025.65 1900.9 2025.31 1889.86 2026.72 1879.14Z"/><path fill="#1E1B1D" fill-opacity="0.015686275" d="M1696.63 1598.15C1699.14 1597.28 1697.53 1597.65 1701.56 1597.77C1707.45 1605.05 1718.61 1617.29 1716.44 1626.58C1707.96 1618.07 1701.73 1608.85 1694.62 1599.17L1696.63 1598.15Z"/><path fill="#191717" fill-opacity="0.031372551" d="M1195.13 1797.87C1201.35 1806.68 1205.04 1834.28 1203.28 1845.7C1197.13 1832.7 1193.97 1812.53 1195.13 1797.87Z"/><path fill="#1E1B1D" fill-opacity="0.019607844" d="M2421.4 1611.81L2422.57 1612.92C2421.18 1622.76 2403.32 1642.97 2396.17 1652L2395.47 1651.14C2395.31 1643.44 2416.05 1618.63 2421.4 1611.81Z"/><path fill="#1E1B1D" fill-opacity="0.011764706" d="M1910.52 1757.56C1923.45 1762.31 1924.38 1767.09 1923.27 1779.36C1917.46 1778.19 1917.68 1777.75 1912.92 1773.97C1909.21 1767.4 1910.04 1765.07 1910.52 1757.56Z"/><path fill="#1E1B1D" fill-opacity="0.023529412" d="M2324.9 1316.51C2332.49 1315.97 2334.18 1315.52 2341.76 1317.42C2335.59 1321.57 2325.12 1322.76 2317.48 1324.26C2311.47 1325.33 2306.68 1326.79 2300.78 1325.51C2308.78 1320.6 2315.9 1319.14 2324.9 1316.51Z"/><path fill="#1E1B1D" fill-opacity="0.023529412" d="M1685.86 1423.23C1695.06 1426.38 1705.73 1439.08 1708.69 1448.35C1696.13 1446.92 1689.43 1433.72 1685.86 1423.23Z"/><path fill="#1E1B1D" fill-opacity="0.023529412" d="M2559.12 1428C2559.01 1432.6 2545.66 1457.02 2541.94 1461.18L2539.03 1459.29C2544.05 1446.74 2549.3 1437.35 2559.12 1428Z"/><path fill="#1E1B1D" fill-opacity="0.027450981" d="M1323.51 1819.39C1329.25 1830.49 1336.14 1837.88 1329.11 1849.03C1322.93 1844.56 1320.3 1826.92 1323.51 1819.39Z"/><path fill="#1E1B1D" fill-opacity="0.011764706" d="M1763.52 1431.49C1769.94 1423.8 1767.18 1424.79 1775.3 1422.83C1782.98 1425.26 1780.13 1423.06 1784.63 1428.92L1784.64 1432.28C1776.67 1436.42 1777.57 1429.11 1765.44 1431.53L1763.52 1431.49Z"/><path fill="#191717" fill-opacity="0.074509807" d="M1937.97 1937.22C1948.22 1942.54 1955.68 1956.75 1961.88 1966.68C1948.59 1961.68 1943.75 1949.46 1937.97 1937.22Z"/><path fill="#191717" fill-opacity="0.050980393" d="M1193.22 1866.88C1200.64 1872.56 1207.36 1899.84 1210.51 1910.54C1202.42 1904.06 1195.37 1877.22 1193.22 1866.88Z"/><path fill="#191717" fill-opacity="0.074509807" d="M2122.33 1437.01C2129.99 1435.73 2140.81 1433.94 2147.72 1437.12L2145.58 1439.99C2136.75 1442.04 2129.05 1444.09 2121.16 1439.52L2122.33 1437.01Z"/><path fill="#1E1B1D" fill-opacity="0.011764706" d="M1579.67 1413.16C1592.02 1416.79 1595.03 1422.41 1600.55 1433.08C1589.07 1429.48 1585.06 1423.41 1579.67 1413.16Z"/><path fill="#1E1B1D" fill-opacity="0.011764706" d="M1317.53 1763.17C1325.82 1771.03 1322.69 1780.53 1321.03 1790.7C1314.69 1779.7 1315.39 1775.83 1317.53 1763.17Z"/><path fill="#1E1B1D" fill-opacity="0.019607844" d="M2545.49 1338.96C2551.26 1339.78 2549.63 1339.52 2555.14 1341.99C2560.01 1347 2559.77 1351.58 2560.81 1358.64C2551.96 1345.78 2551.11 1356.46 2545.49 1338.96Z"/><path fill="#1E1B1D" fill-opacity="0.031372551" d="M2395.62 1290.21C2403.8 1290.1 2404.52 1289.9 2412.12 1292.42L2411.47 1294.45L2405.3 1296.53C2398.79 1296.7 2393.41 1295.82 2386.94 1295.1L2386.77 1293.58L2395.62 1290.21Z"/><path fill="#1E1B1D" fill-opacity="0.031372551" d="M1208.43 1859.4L1212.11 1862.14C1215.09 1868.62 1215.25 1876.02 1215.97 1883.22L1211.4 1881.7C1208.25 1875.21 1208.72 1866.83 1208.43 1859.4Z"/><path fill="#1E1B1D" fill-opacity="0.011764706" d="M1968.59 1861.04C1977.03 1866.63 1981.17 1877.27 1983.48 1886.69C1974.85 1879.84 1972.14 1871.12 1968.59 1861.04Z"/><path fill="#1E1B1D" fill-opacity="0.011764706" d="M1633.23 1485.17C1641.66 1489.7 1643.51 1503.71 1645.78 1512.56C1637.81 1502.55 1635.71 1497.69 1633.23 1485.17Z"/><path fill="#1E1B1D" fill-opacity="0.074509807" d="M2437.22 1582.22C2433.73 1582.71 2435.4 1583.06 2432.27 1580.83C2433.59 1573.91 2436.17 1569.93 2442.72 1567.06L2445.65 1569.84L2437.22 1582.22Z"/><path fill="#1E1B1D" fill-opacity="0.015686275" d="M1696.34 1563.37C1704 1567.23 1709.51 1577.19 1714.55 1584.53L1712.71 1583.49C1701.68 1577.07 1699.49 1575.26 1696.34 1563.37Z"/><path fill="#1E1B1D" fill-opacity="0.011764706" d="M2495.93 1339.24C2506.43 1342.1 2510.35 1345.99 2516.26 1354.7C2505.75 1353.18 2502.06 1347.25 2495.93 1339.24Z"/><path fill="#1E1B1D" fill-opacity="0.011764706" d="M1736.58 1691.28C1743.83 1694.41 1747.25 1698.68 1752.41 1704.46L1750.3 1706.15L1747.88 1708.11C1744.17 1702.46 1740.41 1696.85 1736.58 1691.28Z"/><path fill="#1E1B1D" fill-opacity="0.015686275" d="M2342.39 1290.53L2348.28 1291.84L2349.23 1294.38L2342.62 1299.62L2335.67 1297.65L2334.86 1295.67L2342.39 1290.53Z"/><path fill="#191717" fill-opacity="0.011764706" d="M2525.84 1357.75C2535.95 1360.1 2539.01 1363.83 2544.16 1372.38C2534.26 1368.42 2532.55 1365.88 2525.84 1357.75Z"/><path fill="#1E1B1D" fill-opacity="0.019607844" d="M2470.97 1544.74C2473.6 1545.83 2472.38 1544.95 2474.31 1547.76L2469.16 1557.18L2465.59 1556.86C2465.69 1550.83 2467.16 1550.74 2470.97 1544.74Z"/></svg>
