<?xml version="1.0" encoding="utf-8" ?><svg xmlns="http://www.w3.org/2000/svg" xmlns:xlink="http://www.w3.org/1999/xlink" width="4096" height="4096" viewBox="0 0 4096 4096"><path fill="#ECECEC" d="M2666.25 835.408C2679.23 823.836 2747.88 792.507 2768.7 782.272C2832.22 750.45 2895.97 719.087 2959.95 688.184C2995.33 702.394 3053.43 732.248 3086.43 751.005C3093.21 761.1 3097.29 772.413 3101.93 783.677C3101.39 796.599 3097.68 810.961 3094.93 823.728C3081.7 838.292 3055.49 856.742 3039.04 868.557C3054.29 876.892 3075.51 889.367 3090.74 896.527C3163.33 851.205 3175.64 942.478 3118.37 965.462C3084.5 979.056 3071.67 955.809 3074.73 923.57L3013.62 891.669C2991.18 909.121 2956.42 934.63 2936.99 953.676L2979.64 977.239L2982.03 975.362C3017.66 947.778 3048.06 968.405 3039.39 1011.21C3032.08 1047.29 2974.92 1068.28 2959.26 1028.11C2955.42 1018.67 2960.57 1008.9 2960.17 1004.72C2959.57 998.521 2915.87 978.505 2910.26 975.708C2894.67 987.803 2856.73 1015.07 2845.84 1029.36C2824.12 1057.85 2801.56 1104.65 2784.26 1137.07L2705.52 1283.3C2698.03 1297.47 2670.27 1353.09 2662.82 1362.08C2659.44 1361.33 2656.59 1360.8 2653.12 1360.91L2651.42 1364.92C2653.71 1366.49 2655.98 1368.1 2658.22 1369.73C2653.77 1389.62 2615.69 1448.81 2605.2 1471.7C2557.26 1576.27 2494.9 1676.66 2445.11 1779.99C2449.31 1801.36 2460.77 1816.25 2476.7 1830.23C2503.9 1846.48 2580.78 2187.35 2577.8 2237.28C2580.65 2266.85 2583.23 2296.39 2585.8 2325.99C2587.65 2347.36 2590.41 2368.75 2592.1 2390.14C2592.56 2396.09 2586.28 2399.65 2588.82 2406.33C2595.35 2423.47 2591.4 2443.91 2591.85 2461.89C2590.88 2474.95 2592.75 2510.01 2589.12 2519.81L2583.27 2525.11C2593.15 2545.13 2584.74 2580.8 2582.62 2603.63C2571.38 2725.03 2543.65 2841.66 2502.51 2956.37C2454.93 3093.3 2370.98 3214.71 2259.65 3307.56C2228.54 3333.49 2206.4 3353.4 2168.57 3371.63L2164.75 3371.35L2163.46 3368.02C2161.88 3364.02 2161.55 3363.4 2158.89 3359.85C2150.95 3358.32 2153.73 3358.61 2145.34 3361.29L2143.34 3363.44C2145.97 3373.73 2150.44 3370.05 2153.85 3377.39C2142.46 3386.65 2117.5 3396.6 2102.93 3402.19C1998.56 3442.24 1932.81 3443.05 1826.01 3433.32C1787.18 3430.77 1650.48 3393.1 1617.45 3374.91C1582.75 3362.84 1550.71 3358.66 1513.83 3342.53C1362.87 3276.5 1189.85 3159.94 1101.95 3018.64C1015.71 2879.99 987.65 2733.74 1027.96 2573.98C1038.03 2534.08 1071.34 2428.36 1102.84 2389.38C1104.25 2387.64 1104.72 2391.29 1109.96 2388.19C1107.13 2382.96 1107.65 2385.03 1106.91 2379.32C1156.81 2283.18 1240.94 2180.34 1318.23 2104.9C1481.33 1945.67 1687.12 1817.95 1896.17 1728.29C1928.26 1714.53 2126.2 1632.83 2150.52 1631.67L2152 1635.95C2164.02 1638.1 2174.84 1640.3 2187.12 1640.66L2505.69 1098.81C2550.59 1022.25 2592.44 946.434 2638.71 869.627C2643.3 859.535 2658.46 843.953 2666.25 835.408Z"/><path fill="#1C1B1D" d="M2666.25 835.408C2679.23 823.836 2747.88 792.507 2768.7 782.272C2832.22 750.45 2895.97 719.087 2959.95 688.184C2995.33 702.394 3053.43 732.248 3086.43 751.005C3093.21 761.1 3097.29 772.413 3101.93 783.677C3072.06 800.157 2837.61 952.231 2826.09 966.4C2808.01 988.617 2787.46 1034.05 2772.38 1060.71L2640.12 1294.7L2453.25 1629.2C2349.51 1819.79 2244.51 2009.68 2138.24 2198.86C2165.77 2269 2173.5 2327.57 2141.78 2399.54C2116.31 2456.78 2069.25 2501.62 2010.86 2524.3C1989.48 2532.5 1967.56 2537.12 1945.19 2541.68C1875.98 2669.76 1802.2 2797.51 1731.81 2925.46C1732.48 2926.02 1733.15 2926.6 1733.82 2927.16C1757.03 2946.26 1828.68 2981.99 1840.85 2999.08C1843.61 3002.96 1844.95 3007.11 1845.43 3011.82C1846.86 3025.98 1818.94 3070.08 1808.8 3081.23C1804.75 3085.68 1799.92 3089.69 1793.64 3089.79C1784.18 3089.93 1772.71 3083.68 1764.55 3079.11C1697.29 3041.49 1632.39 2997.83 1566.62 2957.52C1528.76 2934.32 1344.06 2827.2 1324.86 2804.81C1321.03 2800.33 1319.91 2796 1320.56 2790.25C1322.44 2773.85 1346.94 2732.29 1359.95 2722.88C1366.62 2718.04 1374.64 2716.57 1382.7 2718.04C1411.18 2723.24 1454.5 2760.76 1481.16 2775.87C1524.49 2703.85 1567.4 2631.57 1609.87 2559.04C1642.82 2503.36 1678.41 2445.49 1710.26 2389.55C1689.27 2322.14 1687.33 2257.74 1721.41 2193.65C1750.94 2137.46 1801.89 2095.56 1862.72 2077.43C1874.81 2073.84 1885.99 2071.63 1898.36 2069.32C1982.36 1925.98 2070.01 1780.13 2152 1635.95C2164.02 1638.1 2174.84 1640.3 2187.12 1640.66L2505.69 1098.81C2550.59 1022.25 2592.44 946.434 2638.71 869.627C2643.3 859.535 2658.46 843.953 2666.25 835.408Z"/><path fill="#ECECEC" d="M2638.71 869.627C2649.34 872.039 2661.63 879.43 2671.08 885.109L2186.49 1727.96C2118.62 1844.41 2051.51 1961.3 1985.16 2078.62C1978.14 2076.6 1970.11 2074.07 1963.11 2072.4L1814.79 2323.28C1794.44 2357.76 1760.37 2410.77 1743.47 2445.44C1748.63 2452.6 1753.91 2459.67 1759.32 2466.65C1734.89 2515.08 1700.81 2572.17 1672.44 2619.77C1633.91 2684.41 1594.63 2756.59 1554.95 2819.63L1509.51 2791.26L2075.72 1830.91C2112.42 1767.79 2151.35 1704.03 2187.12 1640.66L2505.69 1098.81C2550.59 1022.25 2592.44 946.434 2638.71 869.627Z"/><path fill="#ECECEC" d="M2666.25 835.408C2679.23 823.836 2747.88 792.507 2768.7 782.272C2832.22 750.45 2895.97 719.087 2959.95 688.184C2995.33 702.394 3053.43 732.248 3086.43 751.005C2999.77 808.2 2908.52 865.419 2823.03 923.358C2801.02 911.433 2672.5 846.341 2666.25 835.408Z"/><path fill="#ECECEC" d="M2698.34 901.054C2708.8 905.241 2722.05 911.851 2732.53 916.752C2715.42 953.424 2681.31 1010.61 2660.79 1047.26L2501.64 1328.04L2233.47 1804.31C2176.6 1907.02 2118.52 2009.06 2059.25 2110.4C2052.81 2106.59 2045.04 2102.82 2038.32 2099.34C2011.47 2141.18 1980.74 2198.23 1955.33 2242.35L1804.88 2501.21L1828.66 2516.02L1637.33 2850.39L1628.33 2864.88L1583.86 2836.57C1591.92 2817.72 1614.01 2781.91 1624.91 2763.29L1700.9 2632.9L1979.54 2152.01L2456.36 1319.16L2609.94 1052.89C2639.57 1001.67 2667.26 951.45 2698.34 901.054Z"/><path fill="#ECECEC" d="M2760.27 932.893C2767.26 935.338 2787.84 946.724 2795.47 950.736L1916.12 2528.07C1844.14 2654.76 1775.93 2783.74 1702.43 2909.97L1686.84 2900.4C1677.48 2894.02 1666.16 2887.25 1656.45 2881.13C1720.3 2763.97 1790.97 2645.49 1856.22 2528.01C1865.44 2529.86 1875.45 2532.64 1884.64 2534.98C1905.11 2501.51 1924.07 2464.69 1943.75 2430.51C1996.85 2338.29 2047.08 2241.56 2101.38 2150.22L2086.15 2129.18C2104.94 2091.7 2130.76 2048.27 2151.54 2011.38L2286.77 1772.53L2760.27 932.893Z"/><path fill="#ECECEC" d="M2476.7 1830.23C2503.9 1846.48 2580.78 2187.35 2577.8 2237.28C2580.65 2266.85 2583.23 2296.39 2585.8 2325.99C2587.65 2347.36 2590.41 2368.75 2592.1 2390.14C2592.56 2396.09 2586.28 2399.65 2588.82 2406.33C2595.35 2423.47 2591.4 2443.91 2591.85 2461.89C2590.88 2474.95 2592.75 2510.01 2589.12 2519.81L2583.27 2525.11C2593.15 2545.13 2584.74 2580.8 2582.62 2603.63C2571.38 2725.03 2543.65 2841.66 2502.51 2956.37C2454.93 3093.3 2370.98 3214.71 2259.65 3307.56C2228.54 3333.49 2206.4 3353.4 2168.57 3371.63L2164.75 3371.35L2163.46 3368.02C2161.88 3364.02 2161.55 3363.4 2158.89 3359.85C2150.95 3358.32 2153.73 3358.61 2145.34 3361.29L2143.34 3363.44C2145.97 3373.73 2150.44 3370.05 2153.85 3377.39C2142.46 3386.65 2117.5 3396.6 2102.93 3402.19C1998.56 3442.24 1932.81 3443.05 1826.01 3433.32L1825.87 3430.78C1846.62 3423.32 1882.3 3420.28 1910.39 3410.87C2001.91 3380.2 2089.28 3330.45 2158.96 3263.77C2443.76 2991.21 2510.59 2540.35 2501.52 2163.54C2498.94 2084.95 2490.98 2006.64 2485.14 1928.32C2483.11 1901.16 2475.39 1855.01 2476.7 1830.23Z"/><path fill="#1C1B1D" d="M1617.45 3374.91C1716.79 3397.54 1820.46 3392.34 1917.04 3359.88C2009.72 3328.37 2096.48 3267.48 2163.03 3194.8C2394.92 2941.54 2462.88 2546.03 2461.15 2213.14C2460.67 2121.99 2452.14 2025.2 2445.96 1934.1C2443.26 1894.3 2433.57 1851.12 2432.42 1811.03C2432.23 1804.25 2441.71 1786.87 2445.11 1779.99C2449.31 1801.36 2460.77 1816.25 2476.7 1830.23C2475.39 1855.01 2483.11 1901.16 2485.14 1928.32C2490.98 2006.64 2498.94 2084.95 2501.52 2163.54C2510.59 2540.35 2443.76 2991.21 2158.96 3263.77C2089.28 3330.45 2001.91 3380.2 1910.39 3410.87C1882.3 3420.28 1846.62 3423.32 1825.87 3430.78L1826.01 3433.32C1787.18 3430.77 1650.48 3393.1 1617.45 3374.91Z"/><path fill="#ECECEC" d="M2612.63 724.363C2645.9 722.166 2657.54 736.217 2650.41 767.68C2663.02 773.126 2674.54 778.742 2686.86 784.797C2674.85 790.128 2664.53 797.929 2652.05 801.993C2645.34 804.176 2643.1 801.26 2636.92 797.71C2616.3 796.775 2613.32 817.706 2589.6 808.887C2566 800.113 2565.33 777.244 2574.7 757.144C2583.1 739.141 2594.75 730.883 2612.63 724.363Z"/><path fill="#ECECEC" d="M2742.5 666.416C2783.95 662.06 2785.89 671.61 2785.46 702.732C2785.38 708.579 2807 718.444 2813.34 721.691C2804.78 726.42 2783.4 740.113 2775.33 735.731C2752.37 723.36 2705.25 778.829 2707.99 696.202C2717.77 679.451 2724.93 673.895 2742.5 666.416Z"/></svg>