<?xml version="1.0" encoding="utf-8" ?><svg xmlns="http://www.w3.org/2000/svg" xmlns:xlink="http://www.w3.org/1999/xlink" width="4096" height="4096" viewBox="0 0 4096 4096"><path fill="#ECECEC" d="M2047.36 610.356C2065.61 649.074 2083.46 716 2100.77 758.125C2115.05 765.711 2158.08 775.953 2173.98 777.129C2188.53 765.52 2221.66 726.741 2237.92 710.204C2238.21 744.106 2233.68 775.267 2233.45 807.713C2254.27 817.088 2282.09 840.758 2298.77 840.598C2335.88 823.058 2392.33 788.744 2428.54 775.174C2417.52 795.747 2373.68 889.273 2363.68 902.249C2361.11 915.729 2364 917.757 2371.3 930.013C2376.15 937.535 2380.72 944.278 2384.81 952.274L2395.83 965.79C2431.57 966.858 2457.72 962.641 2491.38 961.765C2476.05 976.468 2431.89 1017.12 2420.85 1031C2426.83 1046.85 2432.04 1064.27 2437.23 1080.49C2438.78 1087.02 2441.32 1093.69 2439.48 1099.77C2488.33 1114.69 2544.35 1136.16 2593.36 1153.37C2540.79 1174.02 2492.48 1189.97 2439.24 1208.7C2438.89 1220.01 2427.37 1262.39 2421.86 1272.24C2443.43 1295.46 2467.96 1318.44 2491.11 1340.24C2460.55 1339.09 2424.56 1335.98 2394.94 1336.02C2392.21 1349.29 2369.83 1380.25 2360.55 1391.44L2424.67 1526.25C2383.19 1504.67 2338.31 1483.69 2297.87 1462.09C2288.54 1461.47 2287.48 1461.46 2278.89 1465.3L2275.06 1468.2C2262.65 1474.62 2250.43 1484.74 2239.23 1493.37C2238.18 1505.24 2236.99 1517.09 2235.64 1528.92C2235.72 1551.32 2236.74 1571.28 2238.04 1593.57C2231.51 1586.97 2214.01 1568.52 2207.64 1563.67C2202.65 1557.16 2197.37 1551.45 2191.9 1545.35L2171.91 1524.72C2159.02 1525.86 2127.19 1531.53 2125.12 1546.29C2124.18 1538.33 2125.61 1538.41 2121.1 1534.07C2112.29 1532.77 2100.12 1537.56 2088.96 1539.59C2085.54 1540.5 2085.12 1540.41 2081.58 1540.74C2074.91 1532.89 2076.98 1523.81 2072.64 1514.07C2063.83 1536.38 2056.41 1558.72 2048.69 1581.41C2041.86 1562.39 2034.1 1538.73 2026.72 1520.31C2022.65 1507.09 2016.51 1491.36 2011.72 1478.13C2001.71 1477.13 2004.67 1475.9 1998.28 1480.79C1995.02 1488.64 1995.22 1489.17 1995.31 1497.88C1995.05 1502.64 1995.47 1500.29 1994.03 1504.91C1978.55 1507.5 1943.15 1494.74 1927.83 1489.42C1914.06 1492.08 1900.06 1494.87 1896.48 1511.04C1886.13 1505.14 1876.3 1498.81 1865.04 1495.13L1861.11 1497.49C1853.68 1487.46 1826.01 1471.5 1813.58 1465.44C1804.22 1460.87 1790.42 1469.71 1779.97 1473.17C1752.59 1483.03 1694.59 1514.63 1668.98 1528.25C1692.1 1483.97 1714.51 1436.71 1737.19 1391.94C1733.55 1388.25 1707.55 1344.09 1702.69 1336.2C1670.17 1337.3 1637.65 1338.75 1605.16 1340.57C1628.57 1317.47 1647.29 1300.81 1670.91 1276.6C1668.54 1269.66 1658.03 1215.96 1658.06 1208.32C1621.81 1199.07 1536.93 1167.54 1502.58 1153.54C1539.58 1137.97 1619.78 1112.19 1659.31 1099.87C1657.29 1083.32 1669.26 1044.26 1673.82 1027.45L1676.25 1028.76L1678.5 1024.44C1683.73 1031.52 1692.59 1034.97 1701.05 1036.32L1709.17 1031.56L1711.3 1027.07C1714.61 1012.39 1725.4 994.036 1732.77 980.298C1724.6 976.418 1721.72 973.07 1724.45 963.846C1728.36 950.627 1728.48 943.251 1726.89 929.672C1730 923.727 1734.1 917.674 1737.74 911.957C1722.24 873.543 1689.95 820.98 1670.51 776.435C1706.23 793.357 1752.93 821.095 1788.28 835.121C1793.99 835.152 1799.68 839.235 1805.2 842.211C1823.19 827.499 1836.92 821.382 1856.08 808.479C1861.23 805.018 1861.71 799.151 1862.69 793.117C1860.41 765.429 1858.02 738.434 1857.16 710.657C1880.01 733.049 1902.34 755.968 1924.12 779.396C1930.65 778.971 1991.04 766.237 1995.1 763.973C2000.84 751.886 2009.28 722.02 2014.02 707.586C2024.95 675.115 2036.07 642.705 2047.36 610.356Z"/><path fill="#181718" d="M2384.81 952.274L2395.83 965.79C2431.57 966.858 2457.72 962.641 2491.38 961.765C2476.05 976.468 2431.89 1017.12 2420.85 1031C2426.83 1046.85 2432.04 1064.27 2437.23 1080.49C2438.78 1087.02 2441.32 1093.69 2439.48 1099.77C2488.33 1114.69 2544.35 1136.16 2593.36 1153.37C2540.79 1174.02 2492.48 1189.97 2439.24 1208.7C2438.89 1220.01 2427.37 1262.39 2421.86 1272.24C2443.43 1295.46 2467.96 1318.44 2491.11 1340.24C2460.55 1339.09 2424.56 1335.98 2394.94 1336.02C2392.21 1349.29 2369.83 1380.25 2360.55 1391.44L2424.67 1526.25C2383.19 1504.67 2338.31 1483.69 2297.87 1462.09C2288.54 1461.47 2287.48 1461.46 2278.89 1465.3L2275.06 1468.2C2273.98 1462.56 2270.97 1454.28 2269.08 1448.54C2268.61 1442.58 2272.48 1437.91 2273.74 1430.7C2354.81 1355.37 2382.43 1311.26 2404.86 1200.53C2377.64 1213.22 2331.99 1229.71 2302.93 1241.58L2300.82 1239.52C2245.03 1184.8 2249.35 1124.88 2305.47 1071.65C2318.82 1077.52 2331.67 1082.54 2345.25 1087.82C2350.4 1089.82 2367.71 1097.06 2372.04 1098.21L2405.08 1111.21C2399.51 1074.52 2395.23 1058.34 2384.44 1023.56C2375.83 1005.3 2370.35 992.344 2360.54 973.807L2373.04 976.215L2375.79 972.327C2376.09 976.218 2375.69 974.193 2377.2 978.356C2378 968.552 2376.89 958.514 2384.81 952.274Z"/><path fill="#ECECEC" d="M2309.44 1102.68C2316.82 1104.75 2324.44 1106.67 2331.87 1108.63C2338.2 1111.68 2341.48 1113.28 2348.11 1115.45C2385.39 1128.43 2430.09 1141.06 2465.31 1157.04L2311.85 1208.93C2277.01 1174.29 2288.45 1139.79 2309.44 1102.68Z"/><path fill="#ECECEC" d="M2297.87 1462.09C2295.42 1460.41 2293.36 1458.36 2291.12 1456.36C2305.13 1443.21 2318.7 1430.37 2332.04 1416.49C2340.3 1407.88 2348.75 1396.33 2357.16 1388.62L2360.55 1391.44L2424.67 1526.25C2383.19 1504.67 2338.31 1483.69 2297.87 1462.09Z"/><path fill="#ECECEC" d="M2438.07 1105.64C2438.1 1103.66 2438.88 1101.81 2439.48 1099.77C2488.33 1114.69 2544.35 1136.16 2593.36 1153.37C2540.79 1174.02 2492.48 1189.97 2439.24 1208.7C2435.44 1204.03 2440.03 1194.63 2441.72 1188.77C2457.18 1180.85 2480.29 1172.21 2496.86 1165.48C2492.61 1158.47 2488.09 1159.96 2481.84 1153.21C2483.86 1146.32 2483.54 1148.28 2490.08 1142.77C2474.82 1135.6 2458.77 1130.6 2442.79 1125.22L2438.07 1105.64Z"/><path fill="#101011" d="M2490.08 1142.77C2497.53 1145.84 2507.11 1148.63 2511.86 1154.65C2509.88 1162.03 2503.72 1162.88 2496.86 1165.48C2492.61 1158.47 2488.09 1159.96 2481.84 1153.21C2483.86 1146.32 2483.54 1148.28 2490.08 1142.77Z"/><path fill="#ECECEC" d="M2413.89 1287.81C2415.39 1282.91 2416.94 1278.02 2418.53 1273.15L2421.86 1272.24C2443.43 1295.46 2467.96 1318.44 2491.11 1340.24C2460.55 1339.09 2424.56 1335.98 2394.94 1336.02C2395.01 1327.19 2401.53 1317.01 2405.77 1308.85C2408.59 1302.14 2411.27 1294.67 2413.89 1287.81Z"/><path fill="#ECECEC" d="M2395.83 965.79C2431.57 966.858 2457.72 962.641 2491.38 961.765C2476.05 976.468 2431.89 1017.12 2420.85 1031C2418.19 1026.98 2410.71 1004.77 2406.87 996.561C2403.37 986.876 2392.77 974.513 2395.83 965.79Z"/><path fill="#101011" d="M2384.81 952.274L2395.83 965.79C2392.77 974.513 2403.37 986.876 2406.87 996.561L2398.11 990.726C2387.87 993.26 2389.71 1014.16 2388.73 1024.79L2388.86 1024.84L2384.54 1023.28L2387.34 1021.42C2384.75 1022.76 2385.57 1021.89 2384.44 1023.56C2375.83 1005.3 2370.35 992.344 2360.54 973.807L2373.04 976.215L2375.79 972.327C2376.09 976.218 2375.69 974.193 2377.2 978.356C2378 968.552 2376.89 958.514 2384.81 952.274Z"/><path fill="#101011" d="M2345.25 1087.82C2350.4 1089.82 2367.71 1097.06 2372.04 1098.21C2370.2 1107.83 2372.08 1105.44 2366.04 1111.27C2360.09 1112.78 2354.12 1114.18 2348.11 1115.45C2341.48 1113.28 2338.2 1111.68 2331.87 1108.63L2332.57 1107.06L2329.61 1103.7C2331.33 1100.11 2340.19 1094.97 2345.25 1087.82Z"/><path fill="#101011" d="M2405.77 1308.85C2396.66 1309.94 2400.06 1311.31 2394.4 1306.92C2389.87 1296.27 2390.13 1278.99 2405.36 1279.53C2410.84 1282.78 2410.92 1282.32 2413.89 1287.81C2411.27 1294.67 2408.59 1302.14 2405.77 1308.85Z"/><path fill="#101011" d="M2437.23 1080.49C2438.78 1087.02 2441.32 1093.69 2439.48 1099.77C2438.88 1101.81 2438.1 1103.66 2438.07 1105.64C2437.96 1113.2 2439.31 1120.36 2431.35 1123.21C2429.99 1121.93 2428.66 1120.93 2427.94 1118.97C2418.17 1092.34 2433 1101.2 2437.23 1080.49Z"/><path fill="#101011" d="M2269.08 1448.54C2274.45 1438.54 2280.49 1437.17 2291.07 1430.16L2294.94 1431.05C2297.48 1437.58 2297.44 1434.31 2294.45 1441.19C2288.58 1446.03 2288.35 1445.8 2281.53 1448.39C2277.69 1453.9 2278.71 1458.4 2278.89 1465.3L2275.06 1468.2C2273.98 1462.56 2270.97 1454.28 2269.08 1448.54Z"/><path fill="#181718" d="M1678.5 1024.44C1683.73 1031.52 1692.59 1034.97 1701.05 1036.32L1709.17 1031.56C1700.25 1059.23 1693.03 1082.37 1690.94 1111.83C1726.47 1098.63 1756.59 1087.28 1791.45 1072.37C1845.15 1123.19 1850.29 1183.29 1797.86 1237.07C1796.64 1238.32 1795.4 1239.56 1794.16 1240.78C1758.92 1229 1725.58 1213.07 1690.48 1201.37C1717.45 1333.76 1796.79 1443.62 1927.83 1489.42C1914.06 1492.08 1900.06 1494.87 1896.48 1511.04C1886.13 1505.14 1876.3 1498.81 1865.04 1495.13L1861.11 1497.49C1853.68 1487.46 1826.01 1471.5 1813.58 1465.44C1804.22 1460.87 1790.42 1469.71 1779.97 1473.17C1752.59 1483.03 1694.59 1514.63 1668.98 1528.25C1692.1 1483.97 1714.51 1436.71 1737.19 1391.94C1733.55 1388.25 1707.55 1344.09 1702.69 1336.2C1670.17 1337.3 1637.65 1338.75 1605.16 1340.57C1628.57 1317.47 1647.29 1300.81 1670.91 1276.6C1668.54 1269.66 1658.03 1215.96 1658.06 1208.32C1621.81 1199.07 1536.93 1167.54 1502.58 1153.54C1539.58 1137.97 1619.78 1112.19 1659.31 1099.87C1657.29 1083.32 1669.26 1044.26 1673.82 1027.45L1676.25 1028.76L1678.5 1024.44Z"/><path fill="#ECECEC" d="M1737.19 1391.94L1740.53 1390.45C1747.57 1396.2 1758.32 1409.81 1765.29 1417.17C1779.66 1432.35 1793.25 1444.27 1808.95 1457.93C1796.31 1463.22 1791 1464.98 1779.97 1473.17C1752.59 1483.03 1694.59 1514.63 1668.98 1528.25C1692.1 1483.97 1714.51 1436.71 1737.19 1391.94Z"/><path fill="#ECECEC" d="M1659.31 1099.87C1658.91 1109.11 1656.94 1115.54 1654.77 1124.46C1633.11 1132.32 1594.11 1145.38 1574.8 1156.12C1598.28 1164.83 1633.39 1177.05 1654.4 1189.08C1657.11 1197.43 1659.53 1200.44 1658.06 1208.32C1621.81 1199.07 1536.93 1167.54 1502.58 1153.54C1539.58 1137.97 1619.78 1112.19 1659.31 1099.87Z"/><path fill="#ECECEC" d="M1670.91 1276.6L1675.9 1274.54C1680.15 1279.7 1680.87 1284.11 1682.81 1290.51C1685.96 1297.72 1689.16 1305.5 1692.64 1312.51C1695.87 1319.28 1701.35 1329.32 1702.69 1336.2C1670.17 1337.3 1637.65 1338.75 1605.16 1340.57C1628.57 1317.47 1647.29 1300.81 1670.91 1276.6Z"/><path fill="#101011" d="M1682.81 1290.51C1688.47 1281.71 1687.27 1280.39 1695.16 1276.65C1705.88 1282.1 1702.91 1296.49 1701.97 1306.95C1697.5 1312.32 1700.26 1310.16 1692.64 1312.51C1689.16 1305.5 1685.96 1297.72 1682.81 1290.51Z"/><path fill="#ECECEC" d="M1773.19 1106.41C1775.47 1105.99 1784.2 1104.21 1785.94 1104.29C1791.59 1113.06 1798.12 1121.43 1801.54 1131.39C1807.8 1149.63 1810.7 1178.12 1800.92 1195.6C1797.75 1201.26 1792.68 1204.68 1786.44 1206.26C1776.2 1208.86 1648.99 1163.68 1635.52 1156.59C1672.91 1138.8 1747.04 1121.07 1773.19 1106.41Z"/><path fill="#101011" d="M1773.19 1106.41C1768.61 1102.46 1766.96 1100.75 1763.01 1096.42L1763.32 1092.99C1775.92 1087.06 1792.48 1086.24 1800.54 1099.22L1800.7 1104.65C1796.02 1109.25 1798.76 1107.97 1792.16 1108.54L1785.94 1104.29C1784.2 1104.21 1775.47 1105.99 1773.19 1106.41Z"/><path fill="#181718" d="M2047.36 610.356C2065.61 649.074 2083.46 716 2100.77 758.125C2115.05 765.711 2158.08 775.953 2173.98 777.129C2188.53 765.52 2221.66 726.741 2237.92 710.204C2238.21 744.106 2233.68 775.267 2233.45 807.713C2254.27 817.088 2282.09 840.758 2298.77 840.598C2335.88 823.058 2392.33 788.744 2428.54 775.174C2417.52 795.747 2373.68 889.273 2363.68 902.249C2361.11 915.729 2364 917.757 2371.3 930.013C2376.15 937.535 2380.72 944.278 2384.81 952.274C2376.89 958.514 2378 968.552 2377.2 978.356C2375.69 974.193 2376.09 976.218 2375.79 972.327L2373.04 976.215L2360.54 973.807C2352.33 960.479 2343.63 947.456 2334.47 934.763C2275.15 854.192 2186.07 808.461 2088.49 793.161C2103.75 831.932 2118.63 870.848 2133.14 909.904C2082.65 966.803 2014.19 965.89 1963.77 910.653C1973.8 882.099 1997.42 820.709 2009.16 793.974C2015.58 786.524 2012.37 778.423 2013.79 767.292L2014.33 763.247C2007.61 763.997 2001.82 763.925 1995.1 763.973C2000.84 751.886 2009.28 722.02 2014.02 707.586C2024.95 675.115 2036.07 642.705 2047.36 610.356Z"/><path fill="#ECECEC" d="M2298.77 840.598C2335.88 823.058 2392.33 788.744 2428.54 775.174C2417.52 795.747 2373.68 889.273 2363.68 902.249C2360.77 906.947 2360.23 909.303 2355.91 911.937C2348.27 902.694 2293.41 845.846 2293.18 844.46L2298.77 840.598Z"/><path fill="#ECECEC" d="M2047.36 610.356C2065.61 649.074 2083.46 716 2100.77 758.125L2100.5 762.958C2081.31 771.897 2070.75 746.651 2065.89 732.67C2060.87 718.244 2055.15 705.329 2048.54 691.591C2041.69 706.367 2022.04 757.872 2014.33 763.247C2007.61 763.997 2001.82 763.925 1995.1 763.973C2000.84 751.886 2009.28 722.02 2014.02 707.586C2024.95 675.115 2036.07 642.705 2047.36 610.356Z"/><path fill="#ECECEC" d="M2237.92 710.204C2238.21 744.106 2233.68 775.267 2233.45 807.713C2228.46 807.509 2178.72 784.877 2173.12 780.92L2173.98 777.129C2188.53 765.52 2221.66 726.741 2237.92 710.204Z"/><path fill="#181718" d="M2371.3 930.013C2376.15 937.535 2380.72 944.278 2384.81 952.274C2376.89 958.514 2378 968.552 2377.2 978.356C2375.69 974.193 2376.09 976.218 2375.79 972.327L2376.29 966.139C2366.5 955.781 2365.63 942.654 2371.3 930.013Z"/><path fill="#ECECEC" d="M2048.28 749.32C2056.76 767.745 2065.16 797.131 2072 816.68C2082 845.247 2092.89 874.334 2102.16 903.028C2083.12 917.563 2074.75 923.278 2050.52 925.168C2024.49 923.083 2015.33 916.877 1995.06 901.749C2008.24 858.436 2032.38 792.988 2048.28 749.32Z"/><path fill="#1E1D1F" d="M1857.16 710.657C1880.01 733.049 1902.34 755.968 1924.12 779.396C1930.65 778.971 1991.04 766.237 1995.1 763.973C2001.82 763.925 2007.61 763.997 2014.33 763.247L2013.79 767.292C2012.37 778.423 2015.58 786.524 2009.16 793.974C1918.72 795.344 1803.39 872.55 1753.65 946.173C1746.11 957.856 1739.69 968.241 1732.77 980.298C1724.6 976.418 1721.72 973.07 1724.45 963.846C1728.36 950.627 1728.48 943.251 1726.89 929.672C1730 923.727 1734.1 917.674 1737.74 911.957C1722.24 873.543 1689.95 820.98 1670.51 776.435C1706.23 793.357 1752.93 821.095 1788.28 835.121C1793.99 835.152 1799.68 839.235 1805.2 842.211C1823.19 827.499 1836.92 821.382 1856.08 808.479C1861.23 805.018 1861.71 799.151 1862.69 793.117C1860.41 765.429 1858.02 738.434 1857.16 710.657Z"/><path fill="#ECECEC" d="M1670.51 776.435C1706.23 793.357 1752.93 821.095 1788.28 835.121C1795.11 840.592 1798.68 843.475 1806.1 847.963C1788.08 863.45 1765.43 882.396 1752.21 901.775C1747.77 905.392 1745.55 907.828 1742 912.167C1738.27 912.271 1739.64 912.657 1737.74 911.957C1722.24 873.543 1689.95 820.98 1670.51 776.435Z"/><path fill="#ECECEC" d="M1857.16 710.657C1880.01 733.049 1902.34 755.968 1924.12 779.396L1922.4 783.34L1918.32 784.873L1912.74 787.079L1909.98 787.918C1892.51 793.382 1878.65 805.084 1866.29 805.547C1862.16 801.924 1863.47 800.509 1862.69 793.117C1860.41 765.429 1858.02 738.434 1857.16 710.657Z"/><path fill="#101011" d="M1752.21 901.775C1759.4 898.847 1762.64 895.912 1768.72 890.999L1768.72 890.941C1765.35 901.159 1758.82 900.505 1756.22 914.609L1768.77 908.015L1766.22 911.794L1766.12 909.223L1766.38 911.696C1762.73 915.87 1754.11 939.533 1753.65 946.173C1746.11 957.856 1739.69 968.241 1732.77 980.298C1724.6 976.418 1721.72 973.07 1724.45 963.846C1728.36 950.627 1728.48 943.251 1726.89 929.672C1730 923.727 1734.1 917.674 1737.74 911.957C1739.64 912.657 1738.27 912.271 1742 912.167C1745.55 907.828 1747.77 905.392 1752.21 901.775Z"/><path fill="#101011" d="M1912.74 787.079L1918.32 784.873L1924.05 791.319C1923.36 799.585 1924.89 796.253 1920.67 802.191C1913.62 805.048 1914.17 805.046 1906.68 803.896L1902.76 799.982C1903.05 792.408 1906.37 791.897 1912.74 787.079Z"/><path fill="#1E1D1F" d="M2273.74 1430.7C2272.48 1437.91 2268.61 1442.58 2269.08 1448.54C2270.97 1454.28 2273.98 1462.56 2275.06 1468.2C2262.65 1474.62 2250.43 1484.74 2239.23 1493.37C2238.18 1505.24 2236.99 1517.09 2235.64 1528.92C2235.72 1551.32 2236.74 1571.28 2238.04 1593.57C2231.51 1586.97 2214.01 1568.52 2207.64 1563.67C2202.65 1557.16 2197.37 1551.45 2191.9 1545.35L2171.91 1524.72C2159.02 1525.86 2127.19 1531.53 2125.12 1546.29C2124.18 1538.33 2125.61 1538.41 2121.1 1534.07C2112.29 1532.77 2100.12 1537.56 2088.96 1539.59C2085.54 1540.5 2085.12 1540.41 2081.58 1540.74C2074.91 1532.89 2076.98 1523.81 2072.64 1514.07C2074.69 1505.16 2081.39 1487.79 2085.31 1479.57L2087.77 1479.76L2091.84 1475.38C2100.05 1475.56 2101.7 1477.82 2108.74 1483.8L2100.9 1506.15C2178.37 1491.75 2210.59 1474.9 2273.74 1430.7Z"/><path fill="#ECECEC" d="M2171.91 1524.72C2175.69 1518.93 2218.93 1501.65 2234.17 1491.18C2234.56 1502.41 2234.63 1518.07 2235.64 1528.92C2235.72 1551.32 2236.74 1571.28 2238.04 1593.57C2231.51 1586.97 2214.01 1568.52 2207.64 1563.67C2202.65 1557.16 2197.37 1551.45 2191.9 1545.35L2171.91 1524.72Z"/><path fill="#ECECEC" d="M1992.92 1422.89C2034.61 1392.84 2062.26 1389.98 2103.91 1422.72C2098.46 1438.81 2088.93 1464.02 2085.31 1479.57C2081.39 1487.79 2074.69 1505.16 2072.64 1514.07C2063.83 1536.38 2056.41 1558.72 2048.69 1581.41C2041.86 1562.39 2034.1 1538.73 2026.72 1520.31C2022.65 1507.09 2016.51 1491.36 2011.72 1478.13C2005.66 1460.19 1999.46 1440.53 1992.92 1422.89Z"/><path fill="#181718" d="M1963.47 1415.12C2011.33 1358.9 2084.49 1358.28 2132.74 1414.44C2124.99 1437.65 2116.99 1460.77 2108.74 1483.8C2101.7 1477.82 2100.05 1475.56 2091.84 1475.38L2087.77 1479.76L2085.31 1479.57C2088.93 1464.02 2098.46 1438.81 2103.91 1422.72C2062.26 1389.98 2034.61 1392.84 1992.92 1422.89C1999.46 1440.53 2005.66 1460.19 2011.72 1478.13C2001.71 1477.13 2004.67 1475.9 1998.28 1480.79C1995.02 1488.64 1995.22 1489.17 1995.31 1497.88C1988.21 1489.1 1968.43 1429.32 1963.47 1415.12Z"/><path fill="#101011" d="M2095.48 1189.95C2101.24 1199.37 2099.06 1205.21 2096.92 1216.8L2099.29 1222.16C2091.71 1227.37 2086.5 1231.27 2078.12 1235.26C2046.69 1246.8 2035.3 1242.96 2005.85 1231.03C1998.34 1226.64 1996.96 1226.19 1991.23 1219.92L1990.21 1212.38C1992.46 1203.94 1997.92 1200.08 2004.33 1193.77C2036.67 1219.43 2065.83 1216.8 2095.48 1189.95Z"/><path fill="#1E1D1F" d="M2005.85 1231.03C2012.39 1226.73 2014.41 1226.99 2022.23 1227C2040.11 1227.02 2065.81 1218.89 2078.12 1235.26C2046.69 1246.8 2035.3 1242.96 2005.85 1231.03Z"/><path fill="#101011" d="M1980.71 1104.73C1988.51 1106.31 1988.16 1106.11 1995.24 1103.58L1997.05 1104.39C1992.54 1116.28 1985.41 1131.87 1987.93 1144.31C1990.95 1147.86 1991.37 1148.19 1995.07 1151.06L1989.13 1154.89L1988.27 1159.79L1984.68 1163.53L1982.79 1163.42C1973.09 1162.92 1972.23 1162.68 1964.62 1168.82C1962.15 1142.32 1965.71 1126.49 1980.71 1104.73Z"/><path fill="#1E1D1F" d="M1988.27 1159.79C1991.41 1171.7 1997.37 1183.62 2004.33 1193.77C1997.92 1200.08 1992.46 1203.94 1990.21 1212.38L1991.23 1219.92C1973.71 1203.23 1970.04 1191.87 1964.62 1168.82C1972.23 1162.68 1973.09 1162.92 1982.79 1163.42L1984.68 1163.53L1988.27 1159.79Z"/><path fill="#1E1D1F" d="M2095.48 1189.95C2103.33 1179.02 2104.43 1174.51 2108.68 1162.13C2124.34 1159.97 2116 1164.4 2125.85 1174.32C2120.43 1198.23 2115.48 1204.18 2099.29 1222.16L2096.92 1216.8C2099.06 1205.21 2101.24 1199.37 2095.48 1189.95Z"/><path fill="#101011" d="M2108.68 1162.13C2111.05 1151.53 2108.69 1120.39 2112.7 1116.89C2126.11 1125.16 2129.91 1159.25 2125.85 1174.32C2116 1164.4 2124.34 1159.97 2108.68 1162.13Z"/><path fill="#181718" d="M1980.71 1104.73C1990.42 1094.29 1998.98 1087.02 2011.97 1080.93L2015.11 1081.51C2011.97 1088.88 2003.03 1096.49 1997.05 1104.39L1995.24 1103.58C1988.16 1106.11 1988.51 1106.31 1980.71 1104.73Z"/><path fill="#101011" d="M2125.54 1252.31C2134.83 1251.58 2134.7 1251.55 2140.96 1255.81C2144.37 1262.59 2143.74 1264.64 2143.49 1272.13L2139.36 1270.81C2138.39 1265.18 2137.44 1264.21 2134.73 1259.24C2131.39 1257.24 2128.49 1254.84 2125.54 1252.31Z"/><path fill="#ECECEC" d="M2072.64 1514.07C2076.98 1523.81 2074.91 1532.89 2081.58 1540.74C2085.12 1540.41 2085.54 1540.5 2088.96 1539.59C2100.12 1537.56 2112.29 1532.77 2121.1 1534.07C2125.61 1538.41 2124.18 1538.33 2125.12 1546.29C2127.67 1585.74 2124.87 1623.72 2126.27 1662.89C2128.2 1716.81 2126.88 1769.81 2126.46 1823.66L2125.12 2175.41C2124.82 2204.11 2124.44 2238.28 2124.93 2267.01C2125.71 2312.51 2132.49 2354.02 2123.66 2400.32L2128 2403.37C2129.04 2415.53 2130.38 2487.67 2128.56 2497.23C2076.88 2492.58 2025.85 2496.42 1973.75 2496.46C1973.22 2495.97 1971.21 2494.36 1971.13 2493.44C1962.68 2400.52 1966.31 2308.92 1974.82 2215.98C1975.89 2204.28 1973.64 2180.13 1976.4 2171.94C1981.47 2168.32 1980.36 2169.62 1984.17 2164.93C1981.89 2159.25 1980.96 2160.52 1973.46 2157.02C1969.21 2142.8 1978.46 2029.04 1976.89 2003.72C1974.98 1972.8 1971.44 1931.38 1970.3 1899.59C1967.41 1875.29 1976.6 1843.11 1974.76 1819.93C1969.32 1751.43 1970.35 1683.57 1970.11 1615.02C1970.56 1611.45 1970.32 1606.29 1970.29 1602.55C1970.79 1590.05 1970.39 1577.19 1970.2 1564.66C1971.95 1555.57 1971.95 1541.35 1972.3 1531.74C1982.75 1534.03 2000.57 1536.92 2008.97 1542.3C2019.35 1533.62 2020.99 1533.09 2026.72 1520.31C2034.1 1538.73 2041.86 1562.39 2048.69 1581.41C2056.41 1558.72 2063.83 1536.38 2072.64 1514.07Z"/><path fill="#181718" d="M2072.64 1514.07C2076.98 1523.81 2074.91 1532.89 2081.58 1540.74C2085.12 1540.41 2085.54 1540.5 2088.96 1539.59C2076.08 1575.72 2062.85 1613.87 2049.15 1649.64C2034.49 1614.34 2021.09 1578.54 2008.97 1542.3C2019.35 1533.62 2020.99 1533.09 2026.72 1520.31C2034.1 1538.73 2041.86 1562.39 2048.69 1581.41C2056.41 1558.72 2063.83 1536.38 2072.64 1514.07Z"/><path fill="#181718" d="M2012.38 2113.43C2017.23 2136.46 2016.25 2165.16 2019.3 2188.59C2031.15 2279.49 2021.78 2359 2012.65 2449.56L2011.1 2452.41C2003.81 2438.64 2006.25 2136.63 2012.38 2113.43Z"/><path fill="#181718" d="M2086.86 1855.33C2092.66 1869.62 2091.36 1901.36 2092.3 1917.93C2096.99 2000.07 2093.29 2080.69 2085.6 2162.64C2071.17 2109.16 2080.75 1912.63 2086.86 1855.33Z"/><path fill="#181718" d="M2044.95 1687.67C2057.42 1699.81 2050.71 1789.07 2047.44 1807.02L2047.13 1808.3C2038.42 1769.86 2040.9 1726.68 2044.95 1687.67Z"/><path fill="#181718" d="M2034.03 2880.76C2055.57 2865.47 2099.93 2848.28 2125.29 2831.83C2127.47 2839.54 2129.48 2847.3 2131.31 2855.1C2135.41 2857.16 2133.44 2856.94 2137.08 2856.54C2137.66 2870.45 2145.53 2928.31 2139.92 2936.19C2136.41 2942.62 2136.98 2959.17 2139.17 2965.79C2149.56 2982.53 2158.11 3017.12 2152.01 3036.43C2150.77 3046.28 2149.4 3071.82 2149.62 3081.82C2137.52 3111.18 2148.14 3152.71 2140.35 3161.21C2137.53 3169.69 2136.82 3182.09 2141.04 3190.19C2141.4 3213.96 2166.58 3259.36 2150.17 3271.99C2147.5 3278.14 2144.23 3290.52 2143.99 3297.21C2143.46 3297.02 2142.93 3296.83 2142.4 3296.64C2096.01 3286.85 2047.96 3271.26 2001.27 3265C1996.62 3264.38 1980.47 3272.81 1975.8 3275.13L1965.43 3280.42C1963.29 3273.93 1957.96 3263.78 1954.82 3257.28L1950.32 3255.63L1945.94 3255.02C1942.69 3246.61 1954.51 3188.43 1956.89 3176.75L1972.78 3167.4C1969.71 3160.43 1968 3151.21 1965.12 3143.23L1959.81 3142.89C1957.03 3137.53 1951.28 3086.67 1949.87 3076.18L1962.77 3059.79L1968.7 3055.49L1963.3 3042.81C1960.79 3036.68 1960.31 3034.48 1955.79 3029.47L1952.67 3029.2C1946.59 3022.13 1947.73 2967.03 1948.07 2954.67C1955.84 2949.86 1965.06 2944.89 1973.1 2940.3C1969.89 2932.14 1969.06 2921.6 1964.06 2915.63C1969.53 2912.54 1974.99 2909.98 1980.62 2907.22L1998.23 2898.36L2009.9 2893.07C2018.52 2887.61 2024.85 2884.9 2034.03 2880.76Z"/><path fill="#ECECEC" d="M2132.15 3085.43C2138.11 3081.6 2139.62 3080.16 2146.69 3078.62L2149.62 3081.82C2137.52 3111.18 2148.14 3152.71 2140.35 3161.21C2137.53 3169.69 2136.82 3182.09 2141.04 3190.19C2141.4 3213.96 2166.58 3259.36 2150.17 3271.99C2147.5 3278.14 2144.23 3290.52 2143.99 3297.21C2143.46 3297.02 2142.93 3296.83 2142.4 3296.64C2096.01 3286.85 2047.96 3271.26 2001.27 3265C1996.62 3264.38 1980.47 3272.81 1975.8 3275.13L1965.43 3280.42C1963.29 3273.93 1957.96 3263.78 1954.82 3257.28L1950.32 3255.63L1945.94 3255.02C1942.69 3246.61 1954.51 3188.43 1956.89 3176.75L1972.78 3167.4C1969.71 3160.43 1968 3151.21 1965.12 3143.23C1970.35 3138.75 1972.86 3137.17 1978.53 3133.59C1985.23 3130.79 1991.85 3127.03 1998.28 3123.58C2013.71 3123.08 2021.18 3122.86 2027.68 3138.01C2057.26 3121.74 2088.35 3107.73 2118.45 3091.24L2132.15 3085.43Z"/><path fill="#181718" d="M2042.04 3241.16C2070.21 3227.13 2112.34 3200.8 2141.04 3190.19C2141.4 3213.96 2166.58 3259.36 2150.17 3271.99C2147.5 3278.14 2144.23 3290.52 2143.99 3297.21C2143.46 3297.02 2142.93 3296.83 2142.4 3296.64C2096.01 3286.85 2047.96 3271.26 2001.27 3265C1996.62 3264.38 1980.47 3272.81 1975.8 3275.13L1965.43 3280.42C1963.29 3273.93 1957.96 3263.78 1954.82 3257.28L1950.32 3255.63C1975.03 3245.58 2011.97 3224.9 2037.7 3212.26C2045.13 3229.64 2032.98 3232.89 2042.04 3241.16Z"/><path fill="#ECECEC" d="M2042.04 3241.16C2070.21 3227.13 2112.34 3200.8 2141.04 3190.19C2141.4 3213.96 2166.58 3259.36 2150.17 3271.99C2140.74 3268.61 2124.68 3266.01 2116.22 3262.81C2103.91 3258.15 2046.8 3249.24 2042.04 3241.16Z"/><path fill="#101011" d="M1954.82 3257.28C1962.19 3256.42 1963.55 3255.76 1970.24 3259.18C1974.84 3265.45 1974.62 3267.55 1975.8 3275.13L1965.43 3280.42C1963.29 3273.93 1957.96 3263.78 1954.82 3257.28Z"/><defs><linearGradient id="gradient_0" gradientUnits="userSpaceOnUse" x1="2060.0447" y1="3247.0562" x2="2109.418" y2="3157.5442"><stop offset="0" stop-color="#060705"/><stop offset="1" stop-color="#2A2728"/></linearGradient></defs><path fill="url(#gradient_0)" d="M2037.7 3212.26C2071.56 3194.53 2105.78 3177.51 2140.35 3161.21C2137.53 3169.69 2136.82 3182.09 2141.04 3190.19C2112.34 3200.8 2070.21 3227.13 2042.04 3241.16C2032.98 3232.89 2045.13 3229.64 2037.7 3212.26Z"/><path fill="#101011" d="M1998.28 3123.58C2013.71 3123.08 2021.18 3122.86 2027.68 3138.01C2009.63 3148.27 1991.33 3158.07 1972.78 3167.4C1969.71 3160.43 1968 3151.21 1965.12 3143.23C1970.35 3138.75 1972.86 3137.17 1978.53 3133.59C1985.23 3130.79 1991.85 3127.03 1998.28 3123.58Z"/><path fill="#ECECEC" d="M2034.03 2880.76C2055.57 2865.47 2099.93 2848.28 2125.29 2831.83C2127.47 2839.54 2129.48 2847.3 2131.31 2855.1C2135.41 2857.16 2133.44 2856.94 2137.08 2856.54C2137.66 2870.45 2145.53 2928.31 2139.92 2936.19C2136.41 2942.62 2136.98 2959.17 2139.17 2965.79C2130.92 2970.97 2121.12 2977.73 2112.27 2981.28C2101.58 2986.87 2086.94 2995.04 2076.12 2999.51C2070.13 2995.96 2070.79 2976.03 2073.88 2970.28C2047.87 2982.68 1993.75 3008.65 1969.68 3022.76C1965.4 3024.81 1959.87 3027.29 1955.79 3029.47L1952.67 3029.2C1946.59 3022.13 1947.73 2967.03 1948.07 2954.67C1955.84 2949.86 1965.06 2944.89 1973.1 2940.3C1969.89 2932.14 1969.06 2921.6 1964.06 2915.63C1969.53 2912.54 1974.99 2909.98 1980.62 2907.22L1998.23 2898.36L2009.9 2893.07C2018.52 2887.61 2024.85 2884.9 2034.03 2880.76Z"/><path fill="#181718" d="M2034.03 2880.76C2055.57 2865.47 2099.93 2848.28 2125.29 2831.83C2127.47 2839.54 2129.48 2847.3 2131.31 2855.1C2135.41 2857.16 2133.44 2856.94 2137.08 2856.54C2095.36 2876.44 2051.75 2901.94 2007.45 2923.08C2000.52 2926.68 1993.45 2930.57 1986.27 2933.59C1981.87 2935.9 1977.61 2938.2 1973.1 2940.3C1969.89 2932.14 1969.06 2921.6 1964.06 2915.63C1969.53 2912.54 1974.99 2909.98 1980.62 2907.22L1998.23 2898.36L2009.9 2893.07C2018.52 2887.61 2024.85 2884.9 2034.03 2880.76Z"/><path fill="#101011" d="M1980.62 2907.22L1998.23 2898.36C2000.69 2900.28 2003.78 2902.7 2007.51 2905.61C2015.24 2905.85 2016.22 2901.91 2020.32 2906.97C2017.49 2911.05 2019.39 2909.76 2014.63 2910.91L2014.93 2914.11C2011.48 2917.89 2010.25 2918.91 2007.45 2923.08C2000.52 2926.68 1993.45 2930.57 1986.27 2933.59C1981.87 2935.9 1977.61 2938.2 1973.1 2940.3C1969.89 2932.14 1969.06 2921.6 1964.06 2915.63C1969.53 2912.54 1974.99 2909.98 1980.62 2907.22Z"/><path fill="#181718" d="M1980.62 2907.22C1988.2 2910.54 1985.97 2907.92 1989 2913.93C1985.34 2924.11 1983.29 2924.69 1986.27 2933.59C1981.87 2935.9 1977.61 2938.2 1973.1 2940.3C1969.89 2932.14 1969.06 2921.6 1964.06 2915.63C1969.53 2912.54 1974.99 2909.98 1980.62 2907.22Z"/><path fill="#1E1D1F" d="M2034.03 2880.76C2044.45 2880.8 2043.28 2879.16 2050.49 2883.94C2054.97 2898.65 2021.88 2904.45 2009.99 2901.92L2008.67 2900.02C2010.62 2894.97 2011.13 2896.65 2009.9 2893.07C2018.52 2887.61 2024.85 2884.9 2034.03 2880.76Z"/><path fill="#181718" d="M2076.01 2969.39C2082.23 2964.9 2133.34 2938.64 2139.92 2936.19C2136.41 2942.62 2136.98 2959.17 2139.17 2965.79C2130.92 2970.97 2121.12 2977.73 2112.27 2981.28C2101.58 2986.87 2086.94 2995.04 2076.12 2999.51C2070.13 2995.96 2070.79 2976.03 2073.88 2970.28L2076.01 2969.39Z"/><path fill="#101011" d="M2076.01 2969.39C2084.23 2969.05 2089.6 2975.12 2108.57 2974.73C2110.16 2977.3 2111.03 2978.52 2112.27 2981.28C2101.58 2986.87 2086.94 2995.04 2076.12 2999.51C2070.13 2995.96 2070.79 2976.03 2073.88 2970.28L2076.01 2969.39Z"/><path fill="#ECECEC" d="M1975.8 3031.3L1987.43 3032.58C1991.17 3037.53 1990.18 3037.02 1991.15 3043.94L2014.31 3032.66C2049.09 3042.36 2087.76 3049.98 2123.91 3059.94C2085.18 3078.39 2035.79 3102.93 1998.28 3123.58C1991.85 3127.03 1985.23 3130.79 1978.53 3133.59C1972.86 3137.17 1970.35 3138.75 1965.12 3143.23L1959.81 3142.89C1957.03 3137.53 1951.28 3086.67 1949.87 3076.18L1962.77 3059.79L1968.7 3055.49L1963.3 3042.81C1971.72 3043.16 1968.99 3044.67 1974.31 3041.05L1975.8 3031.3Z"/><path fill="#F1F0EE" d="M1949.87 3076.18L1962.77 3059.79C1960.55 3078.23 1967.68 3119.52 1978.53 3133.59C1972.86 3137.17 1970.35 3138.75 1965.12 3143.23L1959.81 3142.89C1957.03 3137.53 1951.28 3086.67 1949.87 3076.18Z"/><path fill="#101011" d="M1975.8 3031.3L1987.43 3032.58C1991.17 3037.53 1990.18 3037.02 1991.15 3043.94C1985.93 3046.7 1973.61 3053.66 1968.7 3055.49L1963.3 3042.81C1971.72 3043.16 1968.99 3044.67 1974.31 3041.05L1975.8 3031.3Z"/><path fill="#ECECEC" d="M2112.27 2981.28C2121.12 2977.73 2130.92 2970.97 2139.17 2965.79C2149.56 2982.53 2158.11 3017.12 2152.01 3036.43C2129.59 3038.25 2076.91 3019.17 2048.27 3014.22C2058.33 3009.27 2066.44 3005.23 2076.12 2999.51C2086.94 2995.04 2101.58 2986.87 2112.27 2981.28Z"/><path fill="#1E1D1F" d="M1955.79 3029.47C1959.87 3027.29 1965.4 3024.81 1969.68 3022.76L1970.81 3026.9C1979.07 3028.3 1990.28 3028.33 1996.53 3030.02L1975.8 3031.3L1974.31 3041.05C1968.99 3044.67 1971.72 3043.16 1963.3 3042.81C1960.79 3036.68 1960.31 3034.48 1955.79 3029.47Z"/><path fill="#101011" d="M2118.45 3091.24C2114.25 3083.15 2109.24 3083.85 2107.44 3077.65C2114.86 3074.95 2118.09 3075.44 2126.17 3075.34C2132.12 3079.44 2129.57 3076.72 2132.15 3085.43L2118.45 3091.24Z"/><path fill="#181718" d="M1973.75 2496.46C2025.85 2496.42 2076.88 2492.58 2128.56 2497.23L2126.83 2499.97C2129.17 2509.31 2130.64 2515.76 2134.15 2524.83C2146.14 2527.5 2156.64 2528.58 2163.61 2540.32C2173.36 2556.75 2163.29 2573.78 2149.52 2584.17C2148.51 2596.05 2153.16 2632.73 2150.54 2637.31C2146.47 2655.56 2147.88 2709.44 2142.04 2717.02L2140.76 2721.73L2145.07 2742.43C2151.15 2762.4 2137.73 2814.84 2125.29 2831.83C2099.93 2848.28 2055.57 2865.47 2034.03 2880.76C2024.85 2884.9 2018.52 2887.61 2009.9 2893.07L1998.23 2898.36L1980.62 2907.22C1974.99 2909.98 1969.53 2912.54 1964.06 2915.63L1960.73 2912.68C1959.26 2890.18 1960.03 2867.61 1958.32 2845.12C1959.25 2843.63 1960.18 2842.14 1961.1 2840.65C1954.84 2829.74 1954.93 2824.33 1954.08 2811.62L1951.01 2808.69C1950.72 2786.1 1949.94 2761.25 1956.05 2739.27C1959.09 2728.37 1963.67 2726.51 1973.12 2721.19C1971.03 2712.66 1968.84 2704.16 1966.55 2695.69L1962.66 2694.78C1959.04 2685.11 1959.79 2668.33 1959.7 2657.54L1961.8 2655.69C1962.24 2647.7 1962.08 2639.68 1962.06 2631.67C1957.2 2624.64 1956.43 2619.45 1957.62 2611.45C1957.15 2602.65 1953.01 2592.01 1950.12 2583.48C1940.93 2579.57 1938.77 2575.31 1932.4 2567.33C1933.9 2534.07 1934.9 2528.15 1968.78 2523.89C1971.37 2516.33 1976.67 2502.78 1973.75 2496.46Z"/><path fill="#ECECEC" d="M2001.48 2707.33C2035.01 2691.71 2069.61 2672 2102.93 2655.76C2112.56 2651.07 2139.39 2635.5 2148.3 2633.17L2150.54 2637.31C2146.47 2655.56 2147.88 2709.44 2142.04 2717.02L2140.76 2721.73L2145.07 2742.43C2151.15 2762.4 2137.73 2814.84 2125.29 2831.83C2099.93 2848.28 2055.57 2865.47 2034.03 2880.76C2024.85 2884.9 2018.52 2887.61 2009.9 2893.07L1998.23 2898.36L1980.62 2907.22C1974.99 2909.98 1969.53 2912.54 1964.06 2915.63L1960.73 2912.68C1959.26 2890.18 1960.03 2867.61 1958.32 2845.12C1959.25 2843.63 1960.18 2842.14 1961.1 2840.65C1954.84 2829.74 1954.93 2824.33 1954.08 2811.62L1951.01 2808.69C1950.72 2786.1 1949.94 2761.25 1956.05 2739.27C1959.09 2728.37 1963.67 2726.51 1973.12 2721.19L1997.42 2709.29L2001.48 2707.33Z"/><path fill="#ECECEC" d="M2001.48 2707.33C2035.01 2691.71 2069.61 2672 2102.93 2655.76C2112.56 2651.07 2139.39 2635.5 2148.3 2633.17L2150.54 2637.31C2146.47 2655.56 2147.88 2709.44 2142.04 2717.02L2140.76 2721.73L2145.07 2742.43C2137.53 2744.86 2137.41 2745.04 2130.63 2749.3L2126.57 2746.02C2112.55 2744.09 2112.26 2744.81 2104.04 2735.37L2058.46 2758.34C2053.85 2760.62 2042.98 2765.56 2039.47 2768.41L2019.57 2778.39L1964.46 2806.41L1954.08 2811.62L1951.01 2808.69C1950.72 2786.1 1949.94 2761.25 1956.05 2739.27C1959.09 2728.37 1963.67 2726.51 1973.12 2721.19L1997.42 2709.29L2001.48 2707.33Z"/><path fill="#101011" d="M2114.08 2730.63C2118.83 2727.74 2136.25 2719.82 2142.04 2717.02L2140.76 2721.73L2145.07 2742.43C2137.53 2744.86 2137.41 2745.04 2130.63 2749.3L2126.57 2746.02C2112.55 2744.09 2112.26 2744.81 2104.04 2735.37L2114.08 2730.63Z"/><path fill="#1E1D1F" d="M2140.76 2721.73L2145.07 2742.43C2137.53 2744.86 2137.41 2745.04 2130.63 2749.3L2126.57 2746.02C2112.55 2744.09 2112.26 2744.81 2104.04 2735.37L2114.08 2730.63C2115.43 2733.91 2114.92 2736.5 2114.94 2740.39L2120.6 2743.22C2133.56 2742.37 2139.35 2733.21 2140.76 2721.73Z"/><path fill="#101011" d="M2058.46 2758.34L2104.04 2735.37C2112.26 2744.81 2112.55 2744.09 2126.57 2746.02L2130.63 2749.3C2114.11 2759.79 2071.25 2783.47 2053.28 2791.03C2044.12 2796.04 2037.84 2799.26 2028.15 2803.5C2022.97 2799.36 2021.16 2785.5 2019.57 2778.39L2039.47 2768.41C2042.98 2765.56 2053.85 2760.62 2058.46 2758.34Z"/><path fill="#181718" d="M2039.47 2768.41C2042.98 2765.56 2053.85 2760.62 2058.46 2758.34C2066.62 2762.93 2065.61 2760.73 2068.72 2767.71C2064.94 2775.87 2058.45 2776.07 2050.19 2776.89C2045.87 2771.43 2046.16 2771.16 2039.47 2768.41Z"/><path fill="#1E1D1F" d="M2019.57 2778.39C2021.16 2785.5 2022.97 2799.36 2028.15 2803.5C2018.66 2809.24 2011.27 2812.69 2001.35 2817.36C1990.05 2823.96 1972.02 2835.25 1961.1 2840.65C1954.84 2829.74 1954.93 2824.33 1954.08 2811.62L1964.46 2806.41L2019.57 2778.39Z"/><path fill="#101011" d="M1964.46 2806.41C1970.28 2807.17 1974.29 2807.91 1979.75 2808.84C1988.5 2810.34 1996.61 2807.64 2006.96 2808.73C2007.01 2813.04 2005.4 2813.05 2001.35 2817.36C1990.05 2823.96 1972.02 2835.25 1961.1 2840.65C1954.84 2829.74 1954.93 2824.33 1954.08 2811.62L1964.46 2806.41Z"/><path fill="#ECECEC" d="M1973.75 2496.46C2025.85 2496.42 2076.88 2492.58 2128.56 2497.23L2126.83 2499.97C2129.17 2509.31 2130.64 2515.76 2134.15 2524.83C2146.14 2527.5 2156.64 2528.58 2163.61 2540.32C2173.36 2556.75 2163.29 2573.78 2149.52 2584.17C2109.46 2581.03 2062.1 2582.83 2021.34 2582.33C2003.69 2582.12 1965.17 2581.53 1950.12 2583.48C1940.93 2579.57 1938.77 2575.31 1932.4 2567.33C1933.9 2534.07 1934.9 2528.15 1968.78 2523.89C1971.37 2516.33 1976.67 2502.78 1973.75 2496.46Z"/><path fill="#1E1D1F" d="M1973.75 2496.46C2025.85 2496.42 2076.88 2492.58 2128.56 2497.23L2126.83 2499.97C2129.17 2509.31 2130.64 2515.76 2134.15 2524.83C2082.99 2520.91 2022.02 2524.3 1968.78 2523.89C1971.37 2516.33 1976.67 2502.78 1973.75 2496.46Z"/><path fill="#ECECEC" d="M1957.62 2611.45C1989.83 2609.12 2100.81 2607.16 2131.76 2610.82C2111.96 2623.5 2069.04 2642.28 2045.93 2653.01C2021.11 2645.98 1983.2 2638.82 1962.06 2631.67C1957.2 2624.64 1956.43 2619.45 1957.62 2611.45Z"/><path fill="#F1F0EE" d="M1959.7 2657.54C1978.22 2661.33 1996.63 2665.64 2014.9 2670.48C2002.62 2676.57 1974.6 2691.25 1962.66 2694.78C1959.04 2685.11 1959.79 2668.33 1959.7 2657.54Z"/><path fill="#101011" d="M1997.42 2709.29L1988.97 2708.23C1986.65 2702.28 1985.97 2700.37 1980.55 2696.87L1982.75 2693.1C1991.9 2687.78 2002.61 2682.62 2011.08 2691.23C2010.01 2699.44 2007.7 2699.62 2001.48 2707.33L1997.42 2709.29Z"/><path fill="#ECECEC" d="M1975.8 3275.13C1980.47 3272.81 1996.62 3264.38 2001.27 3265C2047.96 3271.26 2096.01 3286.85 2142.4 3296.64C2142.93 3296.83 2143.46 3297.02 2143.99 3297.21C2145.36 3302.93 2146.39 3306.45 2146.73 3312.42C2147.29 3323.54 2149.83 3332.64 2152.33 3343.46C2163.92 3345.28 2167.58 3347.13 2169.47 3359.18C2174.71 3392.73 2150.66 3422.36 2130.95 3446.92C2114.38 3467.59 2082.68 3484.18 2056.53 3485.99C2047.41 3486.74 2047.53 3486.06 2041.14 3479.87L2037.14 3484.91C2009.95 3489.63 1966.5 3449.47 1953.97 3427.44C1942.13 3406.62 1918.07 3376.6 1933.1 3351.2C1936.7 3345.12 1951.34 3345.2 1957.64 3344.71C1957.62 3334.13 1960.44 3325.44 1961.38 3314.29C1953.17 3301.42 1953.1 3289.57 1965.43 3280.42L1975.8 3275.13Z"/><path fill="#ECECEC" d="M1975.8 3275.13C1980.47 3272.81 1996.62 3264.38 2001.27 3265C2047.96 3271.26 2096.01 3286.85 2142.4 3296.64C2142.93 3296.83 2143.46 3297.02 2143.99 3297.21C2145.36 3302.93 2146.39 3306.45 2146.73 3312.42C2135.01 3318.43 1988.02 3311.57 1961.38 3314.29C1953.17 3301.42 1953.1 3289.57 1965.43 3280.42L1975.8 3275.13Z"/><path fill="#101011" d="M2146.73 3312.42C2147.29 3323.54 2149.83 3332.64 2152.33 3343.46C2136.05 3345.05 2106.13 3344.02 2088.84 3343.97C2045.11 3343.45 2001.37 3343.7 1957.64 3344.71C1957.62 3334.13 1960.44 3325.44 1961.38 3314.29C1988.02 3311.57 2135.01 3318.43 2146.73 3312.42Z"/><path fill="#ECECEC" d="M1831.44 1644.52C1834.98 1645.96 1833.32 1644.89 1836.26 1648C1832 1670.25 1823.07 1691.32 1815.55 1712.67C1787.09 1792.94 1753.45 1871.94 1721.79 1950.98C1709.57 1981.5 1676.47 2069.44 1653.57 2088.44C1634.35 2072.64 1688.48 1962.62 1697.29 1941.17C1726.34 1869.91 1757.17 1799.4 1789.76 1729.69C1803.17 1701.25 1816.02 1671.86 1831.44 1644.52Z"/><path fill="#ECECEC" d="M1544.51 1364.25C1551.17 1363.08 1550.07 1362.46 1556.06 1364.23L1555.52 1366.57C1541.33 1382.01 1516.78 1388.78 1497.52 1397.6C1414.04 1436.05 1330.16 1473.67 1245.01 1508.31C1202.33 1525.67 1167.2 1540.57 1122.34 1552.25C1115.54 1550.13 1117.78 1552.24 1114.41 1547.04C1119.55 1526.21 1229.7 1483.8 1253.19 1482.74L1255.34 1475.96C1262.26 1470.7 1272.22 1467.72 1280.51 1464.61C1348.65 1439.09 1415.73 1410.55 1484.62 1387.13C1504.36 1380.42 1525.36 1372.51 1544.51 1364.25Z"/><path fill="#ECECEC" d="M2259.29 1644.64C2279.96 1650.19 2284.97 1698.26 2293.45 1707.98C2307.98 1724.63 2309.29 1732.53 2317.85 1754.38C2339.01 1808.34 2373.92 1865.93 2389.27 1921.18C2386.07 1925.14 2386.96 1922.95 2386.35 1927.65C2391.22 1926.73 2388.95 1926.49 2393.19 1928.02C2411.45 1971.19 2444.63 2042.11 2448.33 2085.34L2444.61 2085.87C2440.27 2084.09 2440.29 2083.86 2437.01 2080.38C2430.74 2073.76 2425.42 2066.31 2421.2 2058.23C2406.42 2030.47 2364.17 1931.66 2351.55 1893.32C2350.46 1890.02 2354.79 1893.48 2355.14 1886.25L2346.59 1882.26C2328.46 1829.99 2306.45 1780.75 2287.26 1728.82C2275.62 1697.32 2266.51 1678.19 2259.29 1644.64Z"/><path fill="#ECECEC" d="M2267.12 631.888C2286.46 581.309 2304.42 524.208 2329.25 476.449C2337.42 460.731 2334.37 443.486 2345.14 431.668L2350.98 431.817C2350.76 426.101 2345.69 425.012 2349.55 418.207C2365.55 390.042 2415.66 229.174 2444.12 226.109C2453.04 237.918 2438.31 275.55 2432.8 288.001C2382.22 402.234 2335.18 528.193 2277.29 638.367L2267.12 631.888Z"/><path fill="#F1F0EE" d="M2970.13 752.666L2978.95 754.628C2980.39 757.553 2981.25 757.463 2980.23 760.087C2969.53 787.707 2605.42 919.155 2550.51 938.818L2545.07 939.832L2542.44 937.863L2544.22 934.216C2564.06 917.935 2675.14 872.261 2702.99 859.801C2779.8 825.433 2860.26 789.899 2939.1 760.07C2946.91 757.115 2961.48 754.277 2970.13 752.666Z"/><path fill="#ECECEC" d="M2540.83 1362.9C2556.71 1360.97 2612.09 1384.97 2630.14 1391.82C2672.47 1407.81 2714.67 1424.14 2756.73 1440.81C2787.69 1452.94 2839.89 1471.69 2866.08 1490.85L2868.38 1492.56L2872.34 1489.74C2873.82 1489.77 2876.04 1489.71 2877.22 1490.28C2903.3 1502.94 2969.45 1523.59 2983.1 1547.73C2971.92 1552.96 2959.38 1549.52 2948.42 1545.72C2898.59 1528.44 2550.02 1383.79 2540.83 1362.9Z"/><path fill="#ECECEC" d="M1528.31 933.416C1430.41 903.751 1330.65 858.059 1234.99 820.791C1233.18 820.087 1232.55 813.486 1225.55 810.765L1222.59 814.004C1213.26 814.834 1213 811.006 1210.69 804.323L1206.17 807.713C1185 799.882 1120.67 774.501 1113.06 754.999C1145.87 740.29 1363.99 852.609 1411.47 868.808C1444.47 880.068 1500.83 910.268 1534.8 925.308L1528.31 933.416Z"/><path fill="#ECECEC" d="M2468.78 1570.57C2484.71 1573.45 2603.1 1687.17 2620.78 1705.32C2645.81 1731.04 2771.4 1845.37 2768.52 1872.45C2734.77 1864.87 2659.83 1782.6 2633.31 1755.31C2632.15 1754.11 2628.3 1744.09 2624.82 1739.03L2616.41 1737.77C2592.49 1714.59 2484.61 1604.86 2470.52 1579.57C2470.43 1575.85 2470.06 1574.07 2468.78 1570.57Z"/><path fill="#ECECEC" d="M1802.09 604.54C1758.25 513.757 1718.98 417.761 1679.36 324.905C1671.13 305.611 1644.42 246.209 1653.64 228.466L1657.34 227.814C1676.16 239.974 1700.38 303.622 1709.95 326.763C1729.84 375.195 1748.94 423.943 1767.25 472.99C1781.52 510.831 1799.29 550.208 1812.23 587.405C1811.41 599.912 1814.05 600.066 1802.09 604.54Z"/><path fill="#ECECEC" d="M1092.35 1138.31C1130.61 1140.27 1428.91 1136.13 1439.05 1152.47C1426.58 1159.07 1397.75 1159.14 1382.49 1160.37C1368.65 1159.98 1346.85 1163.41 1333.82 1163.59C1282.91 1164.29 1072.38 1178.48 1041.26 1153.34L1041.94 1149.67C1059.18 1139.26 1077.59 1146.38 1092.35 1138.31Z"/><path fill="#ECECEC" d="M2818.05 1139C2821.12 1138.38 2855.38 1138.46 2860.43 1138.59C2890.47 1139.34 3045.98 1132.14 3056.28 1151.95C3040.47 1170.8 2925.79 1167.28 2897.5 1166.03C2858.27 1166.78 2676.66 1165.99 2654.01 1150.44L2656 1148.48C2667.99 1147.33 2706.54 1142.86 2715.79 1144.07L2716.91 1147.52C2738.22 1144.82 2749.68 1137.83 2774.88 1140.75C2784.26 1141.84 2807.36 1139.5 2818.05 1139Z"/><path fill="#ECECEC" d="M2761.3 435.806L2764.36 436.161L2765.3 438.773C2747.33 485.386 2642.28 574.438 2604.89 614.064C2586.52 633.525 2485.64 727.068 2469.36 731.621C2478.15 701.023 2599.52 585.55 2627.13 556.129C2636.35 546.308 2637.7 560.528 2643.54 536.641C2644.47 535.945 2658.98 526.902 2657.08 529.449C2682.36 495.536 2724.62 455.794 2761.3 435.806Z"/><path fill="#ECECEC" d="M1595.37 1594.37C1598.97 1598.84 1600.82 1601.67 1605.57 1605.02C1583.81 1629.09 1561.89 1653.03 1539.84 1676.83C1498.48 1720.95 1455.86 1763.86 1412.02 1805.52C1395.23 1821.69 1353.66 1870.07 1330.76 1870.8L1328.88 1867.98C1332.37 1849.79 1372.2 1805.49 1386.78 1794.17L1388.86 1798.09L1391.16 1797.09C1392.59 1793.21 1397.05 1781.66 1399.93 1779.06C1451.29 1732.84 1497.15 1681.09 1549.11 1635.52C1564.62 1621.92 1579.83 1607.97 1595.37 1594.37Z"/><path fill="#ECECEC" d="M2047.25 148.716L2050.13 150.094C2064.04 171.851 2062.06 257.279 2061.48 285.857L2056.69 290.082C2064.12 307.279 2060.55 321.587 2060.38 340.76C2059.77 410.833 2063.04 479.795 2050.96 549.023C2047.77 546.995 2047.35 547.281 2045.67 543.514C2033.75 516.912 2031.22 226.342 2036.13 184.495C2037.62 171.795 2042.45 160.449 2047.25 148.716Z"/><path fill="#ECECEC" d="M1326.69 430.442C1335.5 436.088 1347.57 441.643 1355.07 447.347C1387.68 472.177 1417.73 502.026 1446.2 531.438C1478.27 564.561 1510.42 596.962 1542.96 629.529C1556.18 642.761 1570.6 662.153 1584.31 676.607C1586.5 682.633 1588.02 686.632 1590.75 692.411C1585.02 694.736 1581.12 691.018 1574.6 690.912C1565.27 685.38 1536.82 658.377 1527.76 648.724C1465.08 581.884 1368.7 512.044 1326.69 430.442Z"/><path fill="#ECECEC" d="M1779.77 1553.58L1781.15 1554.97C1780.27 1559.28 1779.81 1567.7 1777.93 1571.13C1725.57 1666.53 1660.08 1754.63 1598.25 1843.99C1591.1 1854.33 1580.62 1863.84 1571.32 1872.13C1570.75 1869.95 1569.44 1862.63 1569.63 1861C1571.88 1842.31 1604.36 1796.42 1615.62 1784.93L1621.55 1785.58C1620.95 1783.01 1619.51 1777.41 1620.8 1775.24C1631.73 1756.88 1644.39 1736.46 1656.3 1718.93C1688.85 1671.03 1719.53 1621.31 1755.56 1576.02C1762.54 1567.25 1769.9 1558.84 1779.77 1553.58Z"/><path fill="#ECECEC" d="M2338.03 1590.5C2333.05 1583.48 2320.26 1561.49 2323.43 1553.43C2333.8 1555.78 2348.36 1571.74 2351.91 1581.7C2414.57 1654.25 2465.12 1750.18 2520.99 1828.91C2528.42 1839.37 2535.33 1851.69 2535.21 1864.78L2532.88 1866.59C2509.46 1857.61 2466.71 1785.55 2450.86 1762.67C2421.4 1720.66 2393.02 1677.9 2365.77 1634.43C2359.2 1623.98 2342.82 1599.68 2338.03 1590.5Z"/><path fill="#ECECEC" d="M1206.05 972.397C1251.14 970.518 1330.39 993.116 1378.4 1001.3C1433.14 1010.63 1493.36 1024.94 1546.97 1039.89C1561.18 1043.85 1565.39 1045 1570.93 1056.26C1554.52 1057.68 1520.5 1051.86 1502.87 1049.12C1435.06 1038.43 1367.79 1023.92 1301.22 1007.22C1282.55 1002.53 1211.43 992.67 1204.07 977.962L1206.05 972.397Z"/><path fill="#ECECEC" d="M2757.25 665.949C2762.4 665.865 2759.96 665.273 2764.57 667.807C2764.57 670.029 2764.73 670.252 2763.82 672.675C2757.65 689.158 2565.08 815.648 2539.05 831.884C2512.89 848.021 2486.22 863.309 2459.07 877.725L2453.3 876.916L2451.8 873.121C2462.47 846.952 2719.72 683.479 2757.25 665.949Z"/><path fill="#ECECEC" d="M2524.21 1248.39C2557.74 1243.88 2881.04 1306.93 2895.21 1326.44L2893.52 1331.28C2888.43 1331.87 2883.29 1332.07 2878.17 1331.87C2851.57 1331.04 2818.78 1321.88 2792.22 1317C2709.04 1301.73 2625.01 1286.42 2543.87 1262.4C2535.53 1259.93 2532.03 1253.18 2524.21 1248.39Z"/><path fill="#ECECEC" d="M1543.59 1256.66C1551.54 1255.51 1566.38 1255.44 1574.92 1255.14C1571.52 1258.77 1565.24 1265.73 1560.87 1267.41C1520.76 1282.8 1477.72 1291.06 1436.31 1299.85C1369.87 1314.03 1303.26 1327.42 1236.5 1340.01C1226.14 1340.35 1213.88 1342.19 1205.23 1337.82L1204.24 1334.67C1216.28 1317.19 1296.87 1307.32 1318.22 1302.86C1359.38 1294.27 1401.03 1283.07 1442.11 1274.22C1472.97 1267.58 1508.79 1264.45 1539.8 1257.53L1543.59 1256.66Z"/><path fill="#ECECEC" d="M2557.47 1029.91C2565.05 1026.16 2563.32 1028.52 2569.99 1026.57C2614.14 1013.7 2865.66 955.516 2892.6 967.024L2892.96 969.285C2873.35 987.569 2806.01 996.444 2778.16 1002.26L2622.08 1036.46C2608.1 1039.45 2591.22 1039.75 2578.21 1043.78C2567.04 1047.59 2539.13 1052.9 2529.82 1044.99L2530.26 1040.77C2535.54 1035.23 2550.09 1030.03 2557.47 1029.91Z"/><path fill="#ECECEC" d="M2458.33 1418.46C2489.58 1425.24 2667.69 1549 2698.73 1573.99C2697.94 1578.01 2697.85 1576.14 2698.64 1579.61L2705.71 1578.5C2725.21 1588.44 2758.27 1613.25 2769.95 1632.15C2766.17 1632.94 2763.05 1633.24 2759.24 1632.31C2734.65 1626.3 2466.42 1446.2 2456.22 1427.09C2454.69 1424.22 2457.16 1421.24 2458.33 1418.46Z"/><path fill="#ECECEC" d="M1562.62 438.688C1584.93 444.286 1631.58 522.229 1645.98 543.698C1666.51 574.316 1776.2 726.686 1772.58 749.79L1766.72 751.417C1756.49 742.12 1749.43 732.262 1740.98 721.236C1694.25 660.208 1654.39 593.776 1611.33 530.087C1613.51 533.305 1612.73 518.262 1612.77 518.48C1610.16 518.539 1607.54 518.565 1604.92 518.559C1591.41 502.574 1561.02 459.392 1562.62 438.688Z"/><path fill="#ECECEC" d="M2344.09 692.758C2353.65 673.513 2367.81 654.612 2379.35 636.396C2408.55 590.311 2440.1 545.731 2473.13 502.317C2488.02 482.747 2506.17 445.404 2528.34 435.838L2533.18 436.081C2536.71 449.643 2476.66 532.283 2464.35 549.565C2429.4 598.631 2393.33 662.904 2355.19 708.511C2345.99 725.205 2327.33 742.11 2312.23 753.456C2319.19 728.745 2329.57 714.023 2344.09 692.758Z"/><path fill="#ECECEC" d="M1920.24 618.74C1897.85 547.437 1887.77 466.615 1871.76 393.493C1867.86 375.689 1854.5 325.825 1865.26 312.784L1868.78 314.872C1887.93 345.723 1926.12 549.753 1935.42 594.387L1942.8 638.28C1945.26 651.096 1947.64 658.973 1943.67 671.44L1940.43 672.297C1931.94 665.029 1929.83 652.983 1926.74 642.171C1923.59 633.323 1922.29 627.94 1920.24 618.74Z"/><path fill="#ECECEC" d="M2224.38 307.427L2228.01 309.974C2229.48 331.616 2223.83 381.262 2215.71 400.276L2208.62 401.196C2209.94 404.507 2210.5 404.455 2213.12 406.876C2212.34 422.815 2201.88 472.554 2198.63 489.849C2187.22 550.755 2174.22 609.421 2157.71 669.098L2154.46 672.802L2150.41 673.028C2138.59 656.768 2174.01 485.841 2183.04 457.921C2195.54 419.277 2199.74 336.635 2224.38 307.427Z"/><path fill="#ECECEC" d="M1588.35 1455.28C1595.61 1455.67 1597.31 1454.06 1603.29 1450.6C1608.06 1455.07 1608.05 1457.07 1612.8 1462C1605.24 1465 1547.57 1507.76 1534.73 1516.08C1498.02 1539.87 1462.03 1564.44 1424.39 1587.67C1393.11 1606.98 1372.09 1623.08 1337.96 1639.64C1331.66 1638.59 1334.38 1640.05 1330.09 1634.19C1333.54 1620.96 1401.53 1573.95 1414.93 1572.21L1416.92 1575.91L1419.05 1568.97C1433.41 1554.52 1572.37 1458.23 1588.35 1455.28Z"/><path fill="#ECECEC" d="M2167.79 1641.15C2178.99 1655.66 2198.82 1768.02 2203.2 1789.81L2224.02 1898.53C2228.21 1920.69 2242.06 1975.42 2233.96 1994.36C2214.85 1989.62 2205.29 1908.15 2200.76 1886.81C2186.78 1820.86 2165.6 1753.72 2168.83 1685.91C2169.52 1671.53 2167.63 1656.04 2167.79 1641.15Z"/><path fill="#ECECEC" d="M1582.26 856.722L1408.43 737.736C1391.08 725.803 1333.99 694.888 1331.14 673.629L1333.93 671.803C1342.15 672.784 1353.99 677.756 1361 682.416C1425.68 725.438 1491.19 767.568 1554.8 812.182C1564.51 818.99 1587.45 833.65 1594.69 841.875C1597.47 846.869 1599.19 850.052 1601.56 855.336L1600.52 858.155C1592.11 859.078 1590.75 858.463 1582.26 856.722Z"/><path fill="#ECECEC" d="M1726.89 929.672C1728.48 943.251 1728.36 950.627 1724.45 963.846C1721.72 973.07 1724.6 976.418 1732.77 980.298C1725.4 994.036 1714.61 1012.39 1711.3 1027.07L1709.17 1031.56L1701.05 1036.32C1692.59 1034.97 1683.73 1031.52 1678.5 1024.44L1676.25 1028.76L1673.82 1027.45C1666.84 1018.83 1618.28 973.549 1606.61 962.198C1635.27 962.155 1670.25 965.716 1700.76 966.443C1705.93 962.234 1722.11 936.828 1726.89 929.672Z"/><path fill="#181718" d="M1726.89 929.672C1728.48 943.251 1728.36 950.627 1724.45 963.846C1721.72 973.07 1724.6 976.418 1732.77 980.298C1725.4 994.036 1714.61 1012.39 1711.3 1027.07L1709.17 1031.56L1701.05 1036.32C1692.59 1034.97 1683.73 1031.52 1678.5 1024.44C1681.99 1014 1683.37 1010.01 1688.6 1000.42C1691.85 991.03 1698.58 979.802 1702.85 969.553L1700.76 966.443C1705.93 962.234 1722.11 936.828 1726.89 929.672Z"/><path fill="#101011" d="M1688.6 1000.42C1695.95 994.313 1695.15 992.694 1702.19 992.977C1709.88 1002.53 1705.83 1011.41 1711.3 1027.07L1709.17 1031.56L1701.05 1036.32C1692.59 1034.97 1683.73 1031.52 1678.5 1024.44C1681.99 1014 1683.37 1010.01 1688.6 1000.42Z"/><path fill="#ECECEC" d="M1925.28 1693.46C1925.41 1694.11 1925.59 1694.75 1925.68 1695.41C1929.17 1722.67 1926.58 1762.15 1923.85 1789.51C1920.47 1823.4 1896.2 1973.57 1878.02 1993.15C1875.59 1995.76 1873.12 1994.89 1869.8 1995.03C1868.58 1951.58 1876.62 1933.29 1885.83 1891.59C1888.77 1882.72 1887.96 1851.42 1891.08 1844.84C1900.65 1824.69 1898.14 1813.08 1902.21 1793.74C1908.96 1761.63 1915.23 1724.49 1925.28 1693.46Z"/><defs><linearGradient id="gradient_1" gradientUnits="userSpaceOnUse" x1="1924.9974" y1="1469.6637" x2="2015.7029" y2="1533.016"><stop offset="0" stop-color="#110F11"/><stop offset="1" stop-color="#2C2B2B"/></linearGradient></defs><path fill="url(#gradient_1)" d="M2011.72 1478.13C2016.51 1491.36 2022.65 1507.09 2026.72 1520.31C2020.99 1533.09 2019.35 1533.62 2008.97 1542.3C2000.57 1536.92 1982.75 1534.03 1972.3 1531.74C1971.95 1541.35 1971.95 1555.57 1970.2 1564.66C1969.71 1555.63 1969.98 1544.64 1969.96 1535.44C1956.15 1530.77 1937.7 1527.43 1923.09 1524.35L1922.12 1521.24C1913.89 1516.86 1905.28 1514.17 1896.48 1511.04C1900.06 1494.87 1914.06 1492.08 1927.83 1489.42C1943.15 1494.74 1978.55 1507.5 1994.03 1504.91C1995.47 1500.29 1995.05 1502.64 1995.31 1497.88C1995.22 1489.17 1995.02 1488.64 1998.28 1480.79C2004.67 1475.9 2001.71 1477.13 2011.72 1478.13Z"/><path fill="#101011" d="M1916.87 1499.82C1920.53 1502.43 1920.31 1502.2 1922.3 1506.24C1919.69 1512.8 1921.88 1510.25 1914.83 1513.53L1911.64 1511.77C1908.31 1509.31 1907.44 1509.26 1903.51 1507.9L1903.05 1505.46L1916.87 1499.82Z"/><path fill="#A3A2A3" fill-opacity="0.011764706" d="M1970.11 1615.02C1965.49 1618.77 1962.88 1621.83 1957.06 1622.47C1956.13 1615.29 1956.28 1612.44 1952.62 1606.09C1950.42 1610.75 1950.45 1611.46 1946.96 1615.14C1945.45 1607.3 1944.29 1599.89 1943.09 1592L1941.16 1592.96C1939.19 1602.55 1937.3 1621.52 1925.1 1620.89C1914.87 1614.2 1908.32 1596.82 1903.48 1585.58C1902.19 1586.4 1900.89 1587.22 1899.59 1588.02C1893.61 1591.73 1889.53 1595.24 1883.51 1593.83L1882.26 1589.13C1886.26 1581.33 1905.71 1561.75 1915.65 1563.29C1919.84 1568.5 1919.4 1572.79 1920.13 1579.67L1920.42 1582.69L1922.19 1582.4C1924.32 1576.63 1925.96 1562.89 1924.21 1556.48C1921.09 1553.85 1921.38 1554.83 1919.8 1551.5C1924.37 1546.42 1927.6 1541.7 1933.81 1539.22C1937.97 1548.28 1928.47 1564.81 1936.29 1570.95C1940.21 1563.56 1940.85 1557.32 1942.45 1549.16L1944.52 1548.67L1947.21 1553.91C1951.17 1555.06 1949.79 1554.12 1951.79 1555.9L1948.55 1560.83C1952.62 1574.04 1961.7 1592.07 1970.29 1602.55C1970.32 1606.29 1970.56 1611.45 1970.11 1615.02Z"/><path fill="#ECECEC" d="M1861.11 1497.49L1865.04 1495.13C1876.3 1498.81 1886.13 1505.14 1896.48 1511.04C1905.28 1514.17 1913.89 1516.86 1922.12 1521.24L1923.09 1524.35C1902.72 1547 1879.1 1571.09 1857.94 1593.19C1858.89 1562.12 1863.36 1528.64 1861.11 1497.49Z"/><path fill="#A3A2A3" fill-opacity="0.011764706" d="M2279.49 775.658L2283.21 777.225C2292.16 767.827 2282.65 755.111 2287.09 747.613L2289.75 748.439C2296.11 767.007 2292.59 771.426 2288.98 788L2293.28 791.619L2296.78 790.671C2300.33 784.365 2303.31 776.68 2309 773.854L2311.87 775.109L2314.78 783.323L2319.07 772.999L2319.14 776.018C2319.36 783.276 2318.57 787.292 2322.68 793.025C2329.11 796.124 2329.33 795.988 2336.01 797.252C2336.86 808.76 2310.14 820.777 2300.27 823.373L2301.09 823.687C2292.47 824.315 2292.86 824.563 2285.08 821.104L2280.43 815.732L2283.82 817.045C2281.39 812.418 2278.03 807.321 2277.3 802.499C2281.04 793.388 2278.11 786.994 2279.49 775.658Z"/><path fill="#F1F0EE" fill-opacity="0.98823529" d="M1812.23 587.405C1820.44 610.151 1832.71 641.298 1836.79 664.495C1826.32 652.632 1806.26 619.039 1802.09 604.54C1814.05 600.066 1811.41 599.912 1812.23 587.405Z"/><path fill="#ECECEC" d="M1588.35 1455.28C1596.81 1447.67 1633.39 1424.6 1643.65 1425.25C1645.22 1435.71 1620.15 1453.49 1612.8 1462C1608.05 1457.07 1608.06 1455.07 1603.29 1450.6C1597.31 1454.06 1595.61 1455.67 1588.35 1455.28Z"/><path fill="#F1F0EE" d="M1584.31 676.607C1594.98 688.079 1621.55 713.664 1624.69 726.924C1614.82 730.917 1583.38 697.991 1574.6 690.912C1581.12 691.018 1585.02 694.736 1590.75 692.411C1588.02 686.632 1586.5 682.633 1584.31 676.607Z"/><path fill="#757476" fill-opacity="0.011764706" d="M1928.56 1626.63L1933.67 1627.21C1943.58 1632.8 1951.27 1660.32 1946.8 1670.97C1943.71 1669.51 1941.71 1668.43 1938.75 1666.8C1937.78 1672.1 1938.07 1674.28 1934.4 1678.05C1930.5 1665.99 1926.11 1638.71 1928.56 1626.63Z"/><path fill="#F1F0EE" d="M1594.69 841.875C1605.8 849.95 1632.16 866.964 1635.23 879.186C1627.05 886.68 1590.18 862.644 1582.26 856.722C1590.75 858.463 1592.11 859.078 1600.52 858.155L1601.56 855.336C1599.19 850.052 1597.47 846.869 1594.69 841.875Z"/><path fill="#F1F0EE" d="M1595.37 1594.37C1605.05 1586.71 1615.36 1576.87 1626.09 1572.33L1627.76 1574.09C1621.99 1587.94 1615.63 1593.82 1605.57 1605.02C1600.82 1601.67 1598.97 1598.84 1595.37 1594.37Z"/><path fill="#1E1D1F" fill-opacity="0.027450981" d="M2265.98 675.005C2271.16 672.995 2269.05 673.373 2274.81 674.176L2274.39 678.792C2269.43 685.312 2270.37 683.377 2260.98 686.512C2262.11 688.856 2263.37 690.696 2264.94 692.75L2256.17 697.595C2251.09 691.978 2251.81 694.864 2250.91 688.814L2254.81 687.214C2252.48 683.516 2252.16 681.96 2251.34 677.658L2250.04 678.623L2250.88 680.662L2250.66 677.632C2256.91 678.636 2258.55 679.03 2265.02 678.943L2265.98 675.005Z"/><path fill="#1E1D1F" fill-opacity="0.035294119" d="M2191.9 1545.35C2197.37 1551.45 2202.65 1557.16 2207.64 1563.67C2204.78 1563.44 2200.14 1562.32 2197.17 1561.72C2191.78 1563.42 2193.81 1563.23 2188.26 1562.33C2182.85 1558.62 2181.41 1558.34 2178.3 1552.57C2182.8 1548.72 2180.24 1550.29 2188.86 1550.87L2191.9 1545.35Z"/><path fill="#101011" fill-opacity="0.011764706" d="M2102.08 625.49C2110.87 632.648 2112.83 665.959 2113.14 677.531L2108.41 673.653C2105.75 657.675 2103.64 641.612 2102.08 625.49Z"/><path fill="#1E1D1F" fill-opacity="0.023529412" d="M2277.3 802.499C2271.49 794.197 2274.1 752.002 2276.43 740.884C2277.54 752.467 2278.56 764.059 2279.49 775.658C2278.11 786.994 2281.04 793.388 2277.3 802.499Z"/><path fill="#F1F0EE" fill-opacity="0.98431373" d="M2267.12 631.888L2277.29 638.367C2274.16 644.311 2271.47 650.444 2265.89 654.078L2263.3 652.633C2261.57 644.656 2264.3 640.055 2267.12 631.888Z"/><path fill="#ECECEC" fill-opacity="0.98823529" d="M1534.8 925.308C1542.06 928.797 1547.61 930.362 1551.83 937.003L1550.47 940.079C1544.11 941.205 1533.61 936.728 1528.31 933.416L1534.8 925.308Z"/><path fill="#1E1D1F" fill-opacity="0.011764706" d="M2133.5 714.024C2134.95 715.992 2134.22 714.645 2134.69 718.46C2131.27 721.591 2128.95 722.919 2124.84 725.063L2124.69 732.703C2120.91 728.939 2120.91 728.198 2118.43 723.366L2119.94 720.369C2125.97 718.218 2127.95 717.019 2133.5 714.024Z"/><path fill="#101011" fill-opacity="0.015686275" d="M2296.69 635.187C2300.05 643.797 2292.03 657.07 2287.51 664.694C2284.29 656.698 2293.02 642.698 2296.69 635.187Z"/><path fill="#181718" fill-opacity="0.035294119" d="M2149.35 1681.29L2153 1685.33C2153.07 1691.66 2154.52 1704.42 2152.62 1709.15L2151.17 1708.67C2147.56 1703.17 2149.26 1689.38 2149.35 1681.29Z"/><path fill="#101011" fill-opacity="0.015686275" d="M2181.2 743.646C2181.7 753.39 2174.87 758.847 2168.15 764.599C2167.89 763.741 2168.03 760.181 2168.03 759.107C2173.18 750.771 2173.8 750.287 2181.2 743.646Z"/></svg>
