<svg width="733" height="733" viewBox="0 0 733 733" fill="none" xmlns="http://www.w3.org/2000/svg">
<g clip-path="url(#clip0_129_2785)">
<path d="M0 366.239V732.478H366.239H732.478V366.239V-0.000183105H366.239H0V366.239ZM591.476 141.917C596.054 147.411 599.716 158.856 599.716 167.096C599.716 179.457 596.969 184.035 584.609 191.817C576.368 196.853 565.381 207.383 559.43 214.707C553.936 222.49 545.696 228.899 541.576 228.899C531.962 228.899 499 197.311 499 188.613C499 185.408 509.988 170.301 523.264 155.194C546.154 128.641 547.985 127.726 565.381 130.015C576.826 131.388 586.898 135.966 591.476 141.917ZM509.53 218.828L521.89 231.646L450.932 304.436C412.477 344.264 381.804 379.057 383.177 381.346C384.551 384.093 402.863 367.612 423.921 345.18L461.919 304.436L462.834 329.615C465.581 403.32 457.799 444.522 432.62 496.711C414.308 534.709 377.226 578.199 351.589 591.018C313.592 610.245 260.945 607.041 222.948 582.777C195.022 564.923 157.941 524.179 144.664 496.711C128.641 464.208 128.184 415.681 142.833 385.008C168.47 333.277 243.549 282.919 317.712 268.27C355.252 260.487 406.067 258.656 415.223 264.607C418.886 266.896 390.502 299.4 331.904 359.372L243.549 450.931L237.597 437.197C233.477 426.668 231.646 425.295 230.273 431.704C226.152 448.642 266.439 495.796 291.16 501.747C310.845 506.783 308.556 500.374 286.582 489.387C275.137 483.893 265.523 477.942 265.523 477.026C265.523 473.821 297.569 439.029 374.021 359.829C410.188 322.29 438.571 290.702 436.74 288.871C435.366 287.497 394.622 326.868 346.554 376.768C298.027 426.668 257.283 467.412 255.452 466.954C243.549 466.497 261.861 444.522 342.433 361.203C391.876 309.929 445.896 254.078 461.919 236.682C478.4 219.743 492.591 206.009 494.422 206.009C495.796 206.009 502.663 211.961 509.53 218.828Z" fill="#151515"/>
<path d="M224.321 331.903C140.087 388.67 131.846 464.207 201.889 534.708C248.127 581.404 297.569 593.306 341.976 567.67C366.239 553.936 400.574 516.854 397.369 507.698C396.454 504.951 387.756 512.276 377.684 524.179C338.771 571.79 297.111 584.15 251.332 560.803C212.419 541.575 175.795 498.542 164.35 458.714C159.314 441.775 159.772 435.366 167.097 412.934C173.506 392.791 180.831 381.346 201.889 361.202C216.539 347.011 234.851 332.819 242.633 329.614C249.958 326.41 256.367 322.29 256.367 320.001C256.367 312.676 248.585 315.423 224.321 331.903Z" fill="#151515"/>
<path d="M338.771 363.95C320.001 382.72 305.809 398.285 307.183 398.285C308.098 398.285 324.579 382.72 343.349 363.95C362.119 345.181 376.31 329.615 374.937 329.615C374.021 329.615 357.541 345.181 338.771 363.95Z" fill="#6B6B6B"/>
<path d="M306.725 383.177L276.968 414.308L308.098 384.551C325.037 368.528 338.771 354.336 338.771 353.878C338.771 350.216 334.193 354.794 306.725 383.177Z" fill="#6B6B6B"/>
<path d="M527.841 153.82C514.107 168.012 503.578 183.577 503.578 189.071C503.578 199.6 529.215 224.321 539.744 224.321C546.153 224.321 590.102 186.782 596.511 175.337C605.209 160.229 580.488 128.184 559.887 128.184C555.309 128.184 540.66 139.629 527.841 153.82Z" fill="#ECECEC"/>
<path d="M395.538 309.93C340.602 367.154 286.582 423.006 276.052 433.535C265.065 444.064 256.367 455.967 256.367 459.63C256.367 463.292 295.738 425.295 343.807 374.937C391.875 325.037 433.077 283.835 435.366 283.835C450.016 283.835 436.74 299.858 324.579 414.308C267.812 472.906 266.896 473.821 276.51 481.146C281.546 485.266 290.702 489.844 296.653 491.676C307.183 495.338 309.929 501.289 302.147 505.867C285.208 516.397 216.081 447.269 226.61 430.331C231.646 422.548 237.597 425.295 240.802 436.74C243.091 447.269 247.211 444.064 296.653 392.333C326.41 362.119 365.781 320.917 385.466 301.231L420.259 265.981H376.768C352.505 265.981 321.374 268.728 307.183 272.39C271.474 282.004 233.477 297.569 233.477 303.52C233.477 306.267 232.104 307.183 230.73 305.352C226.152 301.231 191.817 325.952 172.59 347.469C143.749 379.057 135.05 400.574 135.508 439.486C135.508 483.893 147.411 509.53 185.866 547.985C229.357 591.933 292.075 615.281 321.832 598.8C327.326 595.596 333.735 593.765 335.566 594.222C350.216 598.343 409.73 539.744 428.499 502.205C455.052 450.016 470.617 366.239 457.341 349.3C453.22 344.264 452.763 342.891 456.883 345.18C460.545 347.469 462.376 344.722 462.376 335.108C462.376 327.784 461.003 320.459 459.172 318.628C457.341 317.254 439.944 331.446 420.717 350.674C396.911 374.021 384.551 383.635 382.262 379.973C379.973 376.31 399.2 353.42 435.366 316.339C466.954 284.751 498.085 252.247 504.952 244.464L517.312 230.73L506.783 217.912L495.796 205.551L395.538 309.93ZM256.367 317.712C256.367 321.374 247.669 329.157 236.682 335.566C211.961 350.216 181.288 383.177 171.674 405.609C155.651 444.522 171.216 492.133 213.792 531.046C272.848 585.066 317.712 585.066 368.07 530.588C390.96 506.325 402.863 497.627 402.863 506.783C402.405 513.65 372.648 549.358 356.167 562.177C335.108 578.657 303.062 588.271 282.004 584.151C273.306 582.32 256.825 575.91 244.922 569.959C233.477 563.55 221.117 559.888 218.37 561.261C215.165 563.092 214.25 563.092 216.081 560.803C217.912 558.972 208.756 545.238 195.48 531.046C181.746 516.397 167.096 496.711 162.518 487.098C150.616 461.919 151.073 415.681 163.434 391.418C174.879 369.443 211.045 334.193 236.224 320.917C257.283 309.472 256.367 309.472 256.367 317.712Z" fill="#ECECEC"/>
</g>
<defs>
<clipPath id="clip0_129_2785">
<rect width="732.478" height="732.478" fill="white"/>
</clipPath>
</defs>
</svg>
