<svg width="733" height="733" viewBox="0 0 733 733" fill="none" xmlns="http://www.w3.org/2000/svg">
<g clip-path="url(#clip0_129_2774)">
<path d="M0 366.239V732.478H366.239H732.478V366.239V-0.000183105H366.239H0V366.239ZM139.629 91.5596C150.616 98.8843 164.35 111.703 170.301 119.485C175.795 127.268 186.324 139.171 192.733 145.58C199.142 152.447 218.828 178.541 235.766 203.72C253.163 228.899 282.004 271.017 299.858 297.569C318.17 324.121 348.842 369.443 368.528 398.285C388.213 427.126 411.561 460.545 420.717 472.906C441.318 500.374 457.341 521.89 469.244 538.371C474.279 545.696 487.555 561.719 499 574.537C539.745 620.317 537.456 616.655 531.962 629.473C526.926 640.918 501.747 659.23 491.218 659.23C488.471 659.23 481.604 651.447 475.653 641.833C470.159 632.677 458.256 615.739 449.1 604.752C431.704 583.235 380.888 504.952 309.014 388.213C284.751 348.842 260.945 313.134 255.909 308.556C251.331 304.436 247.211 296.195 247.211 291.16C247.211 275.137 185.408 181.288 178.084 185.866C172.132 189.528 160.229 178.999 160.229 169.843C160.229 165.723 156.109 159.772 151.074 156.567C146.038 153.362 138.255 142.375 133.219 131.388C107.125 71.4164 107.125 69.1274 139.629 91.5596ZM618.028 84.6926C618.028 95.6797 595.596 143.291 585.067 154.278C580.031 159.772 573.164 169.385 570.417 174.879C567.212 180.83 561.261 184.95 556.683 184.95C547.069 184.035 485.266 275.137 485.266 290.702C485.266 296.195 481.146 304.436 476.568 308.556C471.533 313.134 453.678 339.229 437.198 366.696C420.259 394.164 405.152 417.512 403.321 418.428C401.489 419.801 394.622 411.561 387.298 400.574C377.684 385.466 375.853 379.057 379.973 374.479C384.093 369.443 426.668 307.64 501.289 197.311C514.108 178.541 530.589 156.567 537.913 148.327C545.696 140.086 555.31 128.183 559.888 121.316C568.128 109.871 607.956 78.2834 614.823 77.8256C616.655 77.8256 618.028 81.0302 618.028 84.6926ZM252.705 127.268C264.608 135.508 275.595 146.495 276.968 151.531C278.799 156.109 282.462 160.229 285.666 160.229C294.364 160.229 308.098 177.168 305.352 184.035C304.436 187.239 306.725 194.106 311.303 199.142C320.001 208.756 334.193 253.162 334.193 270.101C334.193 279.257 333.277 279.257 317.254 265.981C307.641 258.198 295.28 251.789 289.786 251.789C282.462 251.789 271.932 240.344 247.669 205.551C220.659 166.181 216.081 157.483 220.201 150.158C225.237 141.002 224.321 129.099 217.454 113.076C212.876 102.547 224.321 106.667 252.705 127.268ZM511.819 122.69C507.241 134.593 507.241 139.628 512.277 147.411C517.77 156.109 515.481 161.145 486.182 203.262C463.292 236.682 451.389 249.958 443.607 250.873C437.655 251.789 424.837 258.656 415.681 265.981C395.538 282.004 394.622 279.715 405.61 235.308C410.645 215.623 416.139 204.178 422.09 200.973C428.042 197.769 430.331 192.733 428.957 187.697C426.21 177.626 437.198 160.229 446.354 160.229C449.558 160.229 454.136 156.109 455.51 150.616C458.256 142.375 511.819 103.005 515.481 106.667C516.397 107.583 514.566 114.907 511.819 122.69ZM70.9588 162.518C93.8487 186.324 103.005 192.275 113.992 192.275C121.317 192.275 129.099 194.564 130.93 197.311C132.762 200.516 142.375 201.431 157.941 199.142L182.204 196.395L207.841 237.139C235.308 281.088 236.682 284.751 227.526 302.147C223.863 308.556 221.117 327.784 220.659 345.18C220.659 372.648 222.49 379.973 236.224 406.067C245.38 422.548 251.331 436.74 250.416 438.113C249.042 439.029 234.393 433.993 217.454 426.21C200.974 418.428 185.408 412.019 183.577 412.019C181.746 412.019 178.084 407.441 175.337 401.947C172.59 395.538 166.639 391.418 159.772 391.418C151.074 391.418 148.327 388.671 147.411 378.599C146.038 366.696 145.122 366.239 138.255 372.19C132.304 377.684 129.099 378.141 123.606 374.021C109.414 362.576 77.8258 316.796 77.8258 307.64C77.8258 302.147 75.079 297.569 71.4166 297.569C63.1762 297.569 53.1046 272.848 56.3092 260.945C57.6826 255.909 55.8514 250.416 53.1046 248.127C44.8643 243.549 39.8285 221.117 45.7799 217.454C48.9844 215.623 48.9844 212.418 46.6955 209.214C41.6597 202.805 34.7927 132.761 38.9129 132.761C40.2863 132.761 54.9358 146.038 70.9588 162.518ZM693.107 170.301C691.276 188.613 688.071 206.009 685.782 209.214C683.035 212.418 683.493 215.623 686.698 217.454C693.107 221.574 688.529 243.549 679.831 248.127C676.626 250.416 674.795 255.909 676.169 260.945C679.373 272.848 669.302 297.569 661.061 297.569C657.399 297.569 654.652 302.147 654.652 307.64C654.652 316.796 623.064 362.576 608.872 374.021C603.379 378.141 600.174 377.684 594.223 372.19C587.356 366.239 586.44 366.696 585.067 378.599C584.151 388.213 581.404 391.418 573.622 390.96C568.128 390.96 561.719 395.08 558.514 400.116C553.478 409.272 486.64 442.691 482.52 438.113C481.146 436.74 487.555 423.006 496.254 406.983C510.445 380.888 512.277 374.021 511.819 345.638C511.361 328.241 508.614 308.556 504.952 302.147C495.796 284.751 497.169 281.546 525.095 237.139L551.189 195.938L574.995 199.142C590.102 200.973 599.716 200.058 602.005 197.311C603.379 194.564 611.161 192.275 618.944 192.275C630.389 192.275 638.171 186.782 658.772 165.265C693.565 128.641 696.769 129.557 693.107 170.301ZM344.722 473.364C359.372 496.253 360.287 493.049 319.086 553.936C245.838 663.35 243.091 665.181 215.165 645.496C191.818 629.015 193.191 621.232 226.152 583.693C242.633 564.923 264.608 537.913 275.137 523.264C312.219 472.448 326.868 453.22 329.615 453.22C330.988 453.22 337.398 462.376 344.722 473.364Z" fill="#151515"/>
<path d="M118.57 90.1856C126.81 118.569 143.291 151.073 151.073 153.362C155.651 154.735 160.229 162.06 161.603 169.385C163.892 179.456 167.096 182.661 177.168 184.034C187.239 184.95 195.022 193.648 220.659 234.85C238.055 262.318 250.873 286.123 249.5 288.412C248.584 290.244 251.331 296.653 255.909 302.604C260.487 308.555 297.569 367.154 338.771 432.619C379.515 498.084 425.752 569.043 441.775 590.559C457.34 612.076 473.821 635.424 478.399 642.291C485.266 652.82 488.929 654.651 498.542 652.362C504.952 650.531 515.939 643.206 522.806 635.424L535.166 621.232L501.747 581.861C483.435 560.345 457.34 526.925 444.064 508.156C430.33 489.386 414.765 467.412 408.814 460.087C393.249 439.944 394.622 442.233 349.758 375.394C283.377 276.51 267.812 254.077 265.523 251.788C264.149 250.415 249.042 227.525 231.188 200.515C213.792 173.505 195.48 150.157 190.902 148.784C186.324 146.953 180.372 140.086 178.083 133.219C175.794 126.352 162.976 112.618 149.7 102.546C115.365 75.9938 114.449 75.536 118.57 90.1856Z" fill="#ECECEC"/>
<path d="M601.548 87.8973C579.115 104.378 553.936 129.557 553.936 135.508C553.936 138.255 549.358 143.749 543.407 147.411C537.914 151.531 516.855 178.999 496.254 208.756C476.111 238.971 441.318 289.786 419.344 321.832L378.6 380.888L388.213 397.369C393.249 406.525 399.201 414.765 401.49 415.223C403.321 415.681 418.428 394.165 434.909 367.612C451.39 340.602 469.702 312.676 475.195 305.809C481.146 298.942 485.267 290.244 484.351 287.497C482.978 284.293 496.254 260.03 512.735 233.477C537.914 194.107 545.696 184.951 555.768 184.035C564.924 182.662 568.586 179.457 570.875 169.385C572.248 162.061 576.826 154.736 581.404 153.363C589.187 151.074 605.668 118.57 613.908 90.1863C618.028 75.0789 618.028 75.0789 601.548 87.8973Z" fill="#ECECEC"/>
<path d="M219.743 111.702C219.743 112.618 221.574 119.027 224.321 125.436C227.068 133.677 227.068 141.002 223.863 148.326C219.285 157.94 221.574 163.892 247.211 199.142C262.776 221.116 276.51 242.175 277.884 245.837C279.715 249.958 284.751 251.789 291.16 250.415C298.485 249.042 306.267 252.704 316.339 262.776L330.988 276.968L328.699 256.367C326.41 237.597 317.712 213.792 307.183 196.853C304.894 193.191 301.689 184.492 300.316 178.083C298.485 169.843 293.907 164.807 286.124 162.976C279.715 161.145 274.679 156.567 274.679 151.989C274.679 147.869 264.607 137.797 252.705 130.014C225.695 112.16 219.743 108.956 219.743 111.702Z" fill="#ECECEC"/>
<path d="M487.098 124.979C474.737 133.219 462.834 144.664 460.087 150.615C457.798 156.109 450.932 161.603 444.98 163.434C438.571 164.807 433.993 170.301 432.162 178.083C430.788 184.492 427.584 193.191 425.295 196.853C414.308 213.792 406.067 237.597 403.778 256.367L401.489 276.968L416.139 263.234C424.837 254.993 434.909 249.958 440.86 250.873C449.1 251.789 456.883 242.633 482.52 205.551C509.988 164.349 513.192 157.94 508.614 148.326C505.41 141.002 505.41 133.677 508.614 125.436C510.903 118.569 512.277 112.16 511.361 111.245C510.445 110.329 499.458 116.738 487.098 124.979Z" fill="#ECECEC"/>
<path d="M40.7439 139.171C39.8283 140.544 40.2861 155.651 42.5751 172.59C44.4063 189.528 46.2375 212.876 45.7797 223.406C45.7797 239.886 47.1531 244.006 54.9356 245.838C61.8026 247.669 63.176 249.958 59.5136 254.078C51.731 263.234 59.5136 288.413 71.8742 294.364C77.8256 297.111 81.9457 302.605 81.4879 306.725C80.1146 314.05 106.667 352.963 123.148 368.07C130.472 374.937 134.135 375.395 139.171 371.274C144.206 367.154 146.495 368.528 150.616 379.973C154.278 391.418 157.025 393.707 164.807 391.418C171.216 389.586 173.963 390.502 173.963 395.538C173.963 404.236 190.444 413.85 197.769 409.272C200.516 407.441 201.431 407.898 200.058 410.645C197.311 414.765 241.717 437.197 245.38 433.535C246.295 433.077 239.886 418.428 231.188 401.031C214.25 368.07 211.961 357.541 220.659 348.842C224.321 345.18 224.779 340.602 220.659 332.362C216.539 323.206 217.454 317.712 224.779 302.147L233.935 283.377L211.961 248.127C180.372 196.853 178.541 195.022 157.94 200.973C144.206 204.636 138.713 204.178 130.93 199.142C125.894 195.48 115.365 192.275 108.04 192.275C97.0531 192.275 88.8127 186.782 68.6696 164.807C54.4778 149.7 42.1173 138.255 40.7439 139.171Z" fill="#ECECEC"/>
<path d="M659.23 169.385C643.207 187.239 634.967 192.275 624.437 192.275C617.113 192.275 606.583 195.479 601.09 199.142C593.765 204.178 588.271 205.093 579.115 201.431C572.706 199.142 564.466 196.853 561.261 196.853C555.768 196.853 537.456 221.574 511.361 263.691L499.916 282.461L508.157 301.689C514.108 314.049 515.939 324.121 513.192 330.53C511.361 336.023 511.819 346.095 514.566 353.42C518.686 365.323 517.313 370.816 502.663 399.658C493.049 417.512 486.64 433.077 487.556 433.992C488.471 435.366 504.952 428.499 524.18 419.801C552.105 406.524 558.514 401.489 558.514 392.791C558.514 385.008 559.888 384.092 564.008 388.213C572.706 396.911 576.826 394.622 582.32 379.972C585.982 369.443 588.271 367.154 592.849 370.816C596.054 373.563 601.547 374.479 604.752 373.105C615.281 368.527 654.652 312.218 651.905 305.351C650.532 301.689 654.194 297.111 660.603 294.364C672.964 288.412 680.747 263.234 672.964 254.078C669.302 249.957 670.675 247.668 677.542 245.837C685.325 244.006 686.698 239.886 686.698 223.405C686.698 212.876 687.614 190.901 689.445 174.878C692.649 139.17 687.614 138.255 659.23 169.385Z" fill="#ECECEC"/>
<path d="M320.459 465.581C316.338 470.159 300.315 491.675 284.75 513.65C268.727 535.624 253.162 556.225 250.415 559.429C247.211 562.634 233.935 578.199 220.201 594.222L195.479 623.063L206.467 634.508C212.418 640.918 222.947 649.158 229.814 652.82C241.717 659.23 242.175 658.772 273.305 615.739C310.845 563.55 339.686 520.974 347.926 505.409C353.42 495.795 352.962 492.133 344.264 477.026C332.819 456.883 329.157 455.051 320.459 465.581Z" fill="#ECECEC"/>
</g>
<defs>
<clipPath id="clip0_129_2774">
<rect width="732.478" height="732.478" fill="white"/>
</clipPath>
</defs>
</svg>
