<svg width="733" height="733" viewBox="0 0 733 733" fill="none" xmlns="http://www.w3.org/2000/svg">
<g clip-path="url(#clip0_129_2696)">
<path d="M0 366.239V732.478H366.239H732.478V366.239V6.10352e-05H366.239H0V366.239ZM401.947 97.969C432.62 113.992 451.847 151.531 446.354 185.866C444.065 203.263 439.029 211.503 418.428 232.104C377.226 273.764 379.973 260.945 379.973 407.441C379.973 479.315 378.599 561.261 376.768 589.187C374.479 634.051 373.106 640.918 366.239 640.918C358.914 640.918 357.541 632.678 354.794 561.719C352.963 518.686 352.505 430.789 353.421 367.155L354.794 251.789L383.177 223.864C414.766 192.733 422.09 174.879 411.103 152.905C403.321 135.966 379.057 119.943 364.408 121.317C346.096 123.606 325.495 138.255 320.459 152.447C314.05 170.759 314.508 176.71 323.206 195.48C330.073 209.672 330.073 211.961 324.121 218.37C312.676 229.357 298.942 221.575 290.244 199.142C276.51 162.519 291.16 121.774 326.868 100.258C343.807 89.7286 383.635 88.3552 401.947 97.969ZM389.129 151.989C407.441 171.675 394.165 201.431 366.239 201.431C350.674 201.431 334.193 186.324 334.193 171.675C334.193 157.483 350.674 141.918 366.239 141.918C374.021 141.918 383.635 146.038 389.129 151.989Z" fill="#151515"/>
</g>
<defs>
<clipPath id="clip0_129_2696">
<rect width="732.478" height="732.478" fill="white"/>
</clipPath>
</defs>
</svg>
