<svg width="733" height="733" viewBox="0 0 733 733" fill="none" xmlns="http://www.w3.org/2000/svg">
<g clip-path="url(#clip0_129_2684)">
<path d="M0 366.239V732.478H366.239H732.478V366.239V6.10352e-05H366.239H0V366.239ZM408.814 86.524C439.487 99.3423 488.013 114.908 534.251 127.726C569.959 137.34 568.586 129.557 566.297 297.111C564.923 423.006 563.55 449.558 556.683 466.039C534.251 523.722 503.121 568.128 458.256 604.752C423.006 633.593 379.515 659.23 366.239 659.23C352.963 659.23 309.472 633.593 274.221 604.752C229.357 567.67 198.227 523.722 175.795 466.039C168.928 449.558 167.554 423.006 166.181 298.485C163.892 131.388 162.976 137.34 198.685 127.726C242.175 115.823 301.689 96.1378 327.326 85.1506C362.576 70.501 369.443 70.501 408.814 86.524Z" fill="#151515"/>
<path d="M320.459 121.774C298.943 130.473 262.319 142.833 239.429 149.242L196.854 161.603V292.533C196.854 455.052 200.058 468.786 250.874 536.54C275.137 569.044 349.758 627.184 366.697 627.184C375.395 627.184 446.354 577.742 460.546 561.719C496.712 521.433 515.024 491.218 526.926 451.389C534.709 427.126 535.624 406.983 535.624 292.533V161.603L498.085 151.074C477.026 145.122 439.487 132.304 414.766 122.69C389.587 113.076 366.697 105.294 364.408 105.752C361.661 105.752 341.976 113.076 320.459 121.774ZM396.911 140.086C425.753 151.074 457.341 161.603 500.374 174.879L517.312 179.915V286.582C517.312 404.694 512.735 439.944 491.218 483.893C470.159 526.926 390.96 599.716 365.323 599.716C352.505 599.716 293.449 554.394 271.475 527.842C224.321 471.533 215.165 432.62 215.165 286.124V179.457L230.273 174.879C238.055 172.59 256.367 167.097 270.559 162.976C284.751 158.856 311.303 149.242 330.073 141.918C348.843 134.593 364.408 128.641 364.866 128.184C365.781 128.184 379.973 133.677 396.911 140.086Z" fill="#151515"/>
<path d="M359.371 187.24C357.998 192.275 354.793 196.853 352.962 196.853C341.975 196.853 338.771 225.695 338.771 327.326V434.909L326.868 430.331C309.014 423.464 306.725 424.379 306.725 439.487C306.725 452.763 307.64 453.221 326.868 453.221H346.553L349.3 482.52C350.673 498.543 350.673 519.144 349.3 528.3L346.553 544.78H366.238C385.466 544.78 385.466 544.78 382.719 530.589C381.346 522.806 381.346 502.205 382.719 484.809L385.924 453.221H405.609C424.837 453.221 425.752 452.763 425.752 439.487C425.752 424.379 423.463 423.464 405.609 430.331L393.706 434.909V326.868C393.706 214.708 392.791 210.13 373.105 188.613C362.576 177.626 362.576 177.626 359.371 187.24Z" fill="#151515"/>
</g>
<defs>
<clipPath id="clip0_129_2684">
<rect width="732.478" height="732.478" fill="white"/>
</clipPath>
</defs>
</svg>
