<svg width="70" height="58" viewBox="0 0 70 58" fill="none" xmlns="http://www.w3.org/2000/svg">
<path d="M30.3668 1.55572C28.2282 2.40382 25.352 3.39941 23.9139 3.76815C20.2265 4.69 19.4522 5.05874 18.9728 5.94371C18.6778 6.5337 18.5672 9.96297 18.6778 17.8171C18.7516 28.0312 18.8253 29.0636 19.5628 31.2761C21.3696 36.5859 26.0157 42.1539 31.4362 45.4357C34.4598 47.2425 35.4923 47.4268 36.7092 46.2838C36.9673 46.0625 37.8154 45.5463 38.5528 45.1407C41.429 43.7026 45.6326 39.499 47.8082 35.9591C50.6106 31.3498 50.795 30.2805 50.9425 17.6327C51.0531 6.68119 51.0531 6.34933 50.2787 5.57497C49.8731 5.09561 49.0619 4.65313 48.5088 4.5425C45.3376 3.8419 36.8566 0.928864 36.1192 0.265133C35.4923 -0.287975 34.3492 -0.0298576 30.3668 1.55572ZM36.1192 2.69881C36.9304 3.03067 37.8891 3.43629 38.2947 3.62066C39.4378 4.13689 44.4895 5.79622 45.3008 5.90684C45.7064 5.98059 46.2226 6.12808 46.407 6.2387C46.6282 6.3862 47.2182 6.57057 47.8082 6.71806L48.8038 6.93931V16.8953C48.8038 27.9206 48.5088 30.0224 46.5176 34.0047C44.6739 37.6921 38.2579 43.6657 35.4186 44.3663C32.9111 44.9932 25.4257 38.6877 23.0658 33.9679C21.0377 29.9855 20.7428 27.8099 20.8534 16.9321C20.964 8.74613 21.0377 7.16055 21.5171 6.90244C21.8121 6.75494 24.0614 5.98059 26.4951 5.24311C28.9288 4.46876 31.3256 3.65753 31.8418 3.43629C32.358 3.17817 33.1693 2.80943 33.6855 2.58819C34.2017 2.36694 34.6442 2.18258 34.6442 2.18258C34.6811 2.1457 35.3448 2.40382 36.1192 2.69881Z" fill="#ECECEC"/>
<path d="M32.395 5.50122C30.2932 6.31244 25.5365 7.86115 24.0247 8.19301L22.9922 8.41426V17.8908C22.9922 26.2243 23.0659 27.6256 23.7297 29.8011C25.0203 34.1891 28.892 38.9458 33.1694 41.4533L34.7918 42.412L36.4143 41.4533C40.6917 38.9458 44.5634 34.1891 45.854 29.8011C46.5177 27.6256 46.5915 26.2243 46.5915 17.8908V8.41426L45.5959 8.19301C43.7153 7.75053 40.9129 6.86555 38.0367 5.79621C34.6812 4.5425 34.7918 4.5425 32.395 5.50122ZM36.0824 9.77859L37.0043 11.1798V19.9558V28.7686L38.2949 28.5474C39.5854 28.2893 39.5854 28.2893 39.5854 29.6167C39.5854 30.9073 39.5854 30.9073 37.963 30.9073H36.3405L36.193 33.4148C36.0824 34.7791 36.1562 35.9222 36.3405 35.9959C36.488 36.0697 36.6355 36.549 36.6355 37.0284C36.6355 37.8396 36.488 37.9134 34.7918 37.9134C33.0956 37.9134 32.9481 37.8396 32.9481 37.0284C32.9481 36.549 33.0956 36.0697 33.2431 35.9959C33.4275 35.9222 33.5012 34.7791 33.3906 33.3779L33.2431 30.9073H31.6207C29.9982 30.9073 29.9982 30.9073 29.9982 29.5799C29.9982 28.2524 29.9982 28.2524 31.2888 28.4737L32.5794 28.7318V19.9558V11.1798L33.5012 9.77859C34.0175 9.04111 34.6075 8.41426 34.7918 8.41426C34.9762 8.41426 35.5662 9.04111 36.0824 9.77859Z" fill="#ECECEC"/>
<path d="M8.41625 0.517368C8.41625 0.851086 7.80444 1.74099 7.02577 2.57527C4.96786 4.80004 2.90995 8.69338 1.40824 13.3098C-1.20586 21.3745 -0.0934783 32.6652 4.02234 39.8401C5.69091 42.6767 9.19491 47.3487 10.4742 48.4054C19.262 55.6915 25.7694 58.0832 35.7809 57.6938C42.3995 57.4713 45.1805 56.8039 49.8525 54.4123C58.6403 49.9628 64.5916 42.9548 67.7062 33.4995C68.8186 30.1067 69.0411 28.2157 69.0411 23.0431C69.0411 19.5947 68.8186 16.6469 68.5405 16.4801C68.2624 16.3132 68.0956 19.0942 68.0956 22.7094C68.0956 28.2157 67.8731 29.8843 66.7051 33.4439C65.5371 37.0035 62.0331 43.511 60.7538 44.5121C60.587 44.679 59.2521 46.0138 57.8616 47.5711C56.4712 49.0729 55.1363 50.4077 54.9138 50.4077C54.6914 50.4633 53.1896 51.4089 51.5211 52.4656C49.9081 53.5224 46.9047 54.8016 44.9024 55.3578C42.8445 55.914 41.1203 56.5258 41.0091 56.6927C40.8978 56.8595 38.1169 56.9708 34.8909 56.9708C30.1077 56.8595 28.1054 56.5814 24.3789 55.3578C13.7001 51.7982 6.13586 44.234 2.52062 33.3883C1.18576 29.3837 0.963285 27.8264 1.0189 23.0987C1.07452 16.9806 2.68748 10.9738 5.3572 6.69109C6.13586 5.46747 6.74767 4.35508 6.74767 4.18823C6.74767 4.02137 7.35948 3.18708 8.13815 2.3528C9.63987 0.79546 9.86234 0.0167961 8.97244 0.0167961C8.69434 0.0167961 8.41625 0.239273 8.41625 0.517368Z" fill="#ECECEC" fill-opacity="0.7"/>
</svg>
