<svg width="70" height="58" viewBox="0 0 70 58" fill="none" xmlns="http://www.w3.org/2000/svg">
<path d="M32.0606 2.25586C30.8276 2.65474 29.0871 4.21402 28.3618 5.59198C27.2377 7.76771 28.108 12.0466 29.7035 12.0466C30.6826 12.0466 30.8639 11.3214 30.2837 9.90718C29.631 8.3479 30.0299 6.46227 31.2991 5.1931C32.0606 4.43159 32.5682 4.25028 34.055 4.25028C35.6868 4.25028 36.0131 4.39533 36.956 5.44693C37.79 6.38975 38.0076 6.96994 38.0076 8.27538C38.0076 9.79839 37.8262 10.0885 35.8681 12.1917C34.6714 13.4246 33.5473 14.8388 33.366 15.3102C33.1484 15.8542 33.1122 21.9462 33.2572 30.7217C33.4385 43.2684 33.5473 45.2265 34.0187 45.2265C34.4901 45.2265 34.5989 43.4497 34.7802 32.3535C34.9253 25.2823 35.0341 18.6826 35.0703 17.7398C35.1066 16.108 35.2879 15.7817 37.246 13.751C39.8569 10.995 40.1833 10.3786 40.1833 8.1666C40.1833 4.14149 35.9406 1.02295 32.0606 2.25586Z" fill="#ECECEC"/>
<path d="M32.567 6.60734C32.1682 7.00622 31.8418 7.73146 31.8418 8.23913C31.8418 9.327 33.0022 10.5962 34.0175 10.5962C35.0329 10.5962 36.1933 9.327 36.1933 8.23913C36.1933 7.15127 35.0329 5.88209 34.0175 5.88209C33.6186 5.88209 32.9659 6.20845 32.567 6.60734Z" fill="#ECECEC"/>
<path d="M8.41625 0.500568C8.41625 0.834286 7.80444 1.72419 7.02577 2.55847C4.96786 4.78324 2.90995 8.67658 1.40824 13.293C-1.20586 21.3577 -0.0934783 32.6484 4.02234 39.8233C5.69091 42.6599 9.19491 47.3319 10.4742 48.3886C19.262 55.6747 25.7694 58.0664 35.7809 57.677C42.3995 57.4545 45.1805 56.7871 49.8525 54.3955C58.6403 49.946 64.5916 42.938 67.7062 33.4827C68.8186 30.0899 69.0411 28.1989 69.0411 23.0263C69.0411 19.5779 68.8186 16.6301 68.5405 16.4633C68.2624 16.2964 68.0956 19.0774 68.0956 22.6926C68.0956 28.1989 67.8731 29.8675 66.7051 33.4271C65.5371 36.9867 62.0331 43.4942 60.7538 44.4953C60.587 44.6622 59.2521 45.997 57.8616 47.5543C56.4712 49.0561 55.1363 50.3909 54.9138 50.3909C54.6914 50.4465 53.1896 51.3921 51.5211 52.4488C49.9081 53.5056 46.9047 54.7848 44.9024 55.341C42.8445 55.8972 41.1203 56.509 41.0091 56.6759C40.8978 56.8427 38.1169 56.954 34.8909 56.954C30.1077 56.8427 28.1054 56.5646 24.3789 55.341C13.7001 51.7814 6.13586 44.2172 2.52062 33.3715C1.18576 29.3669 0.963285 27.8096 1.0189 23.0819C1.07452 16.9638 2.68748 10.957 5.3572 6.67429C6.13586 5.45067 6.74767 4.33828 6.74767 4.17143C6.74767 4.00457 7.35948 3.17028 8.13815 2.336C9.63987 0.77866 9.86234 -3.8147e-06 8.97244 -3.8147e-06C8.69434 -3.8147e-06 8.41625 0.222473 8.41625 0.500568Z" fill="#ECECEC" fill-opacity="0.7"/>
</svg>
