<svg width="733" height="733" viewBox="0 0 733 733" fill="none" xmlns="http://www.w3.org/2000/svg">
<g clip-path="url(#clip0_129_2764)">
<path d="M0 366.239V732.478H366.239H732.478V366.239V-0.000183105H366.239H0V366.239ZM656.941 81.0302C648.701 138.255 632.678 176.71 604.752 203.72C594.223 213.334 585.982 223.406 585.982 225.237C585.982 227.526 593.307 227.984 602.005 226.152C613.45 224.321 618.028 224.779 618.028 229.357C618.028 232.561 604.752 262.776 587.813 296.653C555.31 363.492 534.709 388.671 476.111 432.162C443.607 456.425 443.607 456.425 493.965 445.896L509.988 442.691L500.374 455.967C494.88 463.75 477.026 483.435 461.003 499.916C431.704 529.215 393.707 552.105 345.638 569.043L327.326 575.91L359.372 579.115C377.226 580.488 394.622 582.32 398.285 583.235C407.899 584.609 359.83 615.281 325.037 629.015C287.955 644.122 261.403 647.327 222.032 640.918C146.496 628.557 145.122 628.557 123.148 649.158C112.161 659.23 96.1377 668.844 87.8973 670.675C73.7056 673.422 73.2478 672.964 73.2478 659.23C73.2478 650.074 78.2836 638.629 86.9817 627.642C105.751 604.294 108.04 586.44 96.5955 542.949C82.4037 489.387 83.7771 447.727 100.716 398.285C113.992 359.372 134.135 318.628 141.918 313.592C144.207 312.218 147.411 318.628 148.785 328.241C154.736 363.492 156.567 364.865 164.807 338.313C168.928 325.037 177.168 304.436 183.119 292.991C194.107 271.474 245.38 210.587 252.247 210.587C254.536 210.587 256.367 221.117 256.367 234.393V258.198L276.51 231.188C287.497 216.081 301.689 198.227 308.098 191.36C320.917 177.626 370.359 144.664 401.489 129.099L420.259 119.027L415.681 135.508C411.561 151.531 414.308 162.061 420.259 152.905C424.837 145.58 482.062 107.125 499.916 98.8843C530.589 85.1504 607.499 65.9228 656.483 59.9714C658.314 59.5136 658.772 69.1274 656.941 81.0302Z" fill="#151515"/>
<path d="M485.266 231.188C458.714 257.74 435.366 279.257 433.077 279.257C430.788 279.257 430.33 271.932 431.704 263.234C435.366 239.886 432.161 243.549 423.006 272.848C416.139 294.822 407.44 305.809 354.336 360.745L293.449 423.464L292.533 389.129C292.075 370.359 290.702 359.83 289.786 366.239C277.426 439.487 278.341 438.113 232.561 483.893L189.986 526.926L187.239 502.663C184.95 480.688 184.492 479.773 184.035 496.711C182.661 524.179 175.336 544.78 161.603 560.345L148.784 574.537L164.807 560.803C206.925 524.179 208.756 524.179 181.746 560.803C174.421 571.333 182.203 564.923 200.058 545.696C217.454 527.842 233.477 512.734 235.766 512.734C238.513 512.734 255.909 506.325 274.679 499C307.182 485.724 303.978 484.351 263.692 493.965L246.295 498.085L257.282 486.182C340.602 394.164 396.911 338.313 412.476 332.362C431.246 324.579 437.197 317.712 421.174 321.832C409.729 324.579 409.729 321.374 420.259 311.761C441.317 292.075 536.54 187.24 534.708 185.408C533.793 184.493 511.361 205.094 485.266 231.188Z" fill="#151515"/>
<path d="M478.399 234.392L455.509 258.656L479.772 235.766C501.746 214.707 505.867 210.587 502.204 210.587C501.746 210.587 490.759 221.574 478.399 234.392Z" fill="#6B6B6B"/>
<path d="M313.592 399.2L290.702 423.463L314.965 400.573C336.94 379.514 341.06 375.394 337.398 375.394C336.94 375.394 325.953 386.381 313.592 399.2Z" fill="#6B6B6B"/>
<path d="M258.198 454.136L244.922 469.243L260.029 455.967C273.763 443.149 276.968 439.486 273.305 439.486C272.39 439.486 265.981 446.353 258.198 454.136Z" fill="#6B6B6B"/>
<path d="M621.233 67.296C602.005 70.9584 580.489 75.9941 573.164 78.741C566.297 81.4877 558.972 83.3189 557.141 83.3189C555.31 82.8611 547.07 86.0657 538.829 90.1859C530.589 94.3061 521.891 97.5107 519.144 97.0529C509.072 95.2217 481.147 109.871 444.065 137.797C407.441 164.807 406.068 165.265 408.814 152.904C410.188 145.58 412.935 135.966 414.766 130.93C417.513 124.063 412.935 124.979 389.587 137.797C374.479 146.037 361.661 154.278 361.661 156.109C361.661 157.94 356.625 160.687 350.216 162.06C335.567 165.723 298.027 203.262 273.764 239.428L254.078 267.812L251.789 240.802L249.5 213.334L230.273 235.308C219.286 247.669 211.961 259.114 213.334 261.403C214.708 263.692 212.419 265.523 208.756 265.523C199.6 265.523 179.915 299.4 167.097 337.397L157.025 367.612L151.989 352.504C148.785 344.264 146.496 331.904 146.496 325.494C146.038 314.049 146.038 313.592 139.171 322.748C124.979 341.06 104.836 385.924 104.378 400.116C103.921 407.898 101.632 415.681 98.8848 417.512C90.6444 423.005 88.3554 488.928 94.7646 521.89C109.414 593.764 108.499 607.04 86.982 631.762C79.1994 640.918 73.248 652.82 73.248 660.145C73.248 671.59 74.1636 672.048 86.982 668.385C94.7646 666.096 108.956 657.398 119.486 648.7C142.833 628.557 152.447 626.726 195.938 634.508C248.127 643.664 287.956 642.749 299.401 632.219C311.303 621.69 332.362 614.365 327.326 622.606C325.495 625.81 338.771 620.774 356.625 611.161C386.84 595.138 395.538 585.066 379.515 582.777C375.853 582.319 360.746 580.488 345.638 578.657L318.17 575.91L347.927 565.839C407.441 545.238 438.113 524.637 480.689 475.652L505.41 447.269L481.604 450.473C468.328 452.305 454.136 454.594 449.558 455.967C441.318 458.714 460.546 439.944 485.725 421.174C510.446 402.862 535.625 379.057 535.625 374.937C535.625 372.19 542.949 363.034 551.648 354.336C560.803 345.18 569.044 331.904 570.875 324.579C572.248 317.254 574.995 311.303 576.369 311.303C579.573 311.303 595.596 279.257 610.704 242.633L617.113 226.61L598.343 228.441L579.573 229.814L601.548 205.551C613.45 192.275 627.184 173.963 631.762 165.265C639.545 148.784 661.977 65.007 658.772 62.718C657.857 61.8024 640.918 64.0914 621.233 67.296ZM567.213 154.278C556.225 168.469 488.929 243.091 452.305 281.088C433.078 301.231 417.97 318.627 418.428 319.543C419.344 320.001 429.415 317.254 441.318 313.592C466.955 304.893 480.231 306.725 457.341 315.881C406.983 335.566 394.165 343.806 361.203 378.141C316.339 424.379 277.426 466.954 265.523 482.061C254.994 494.88 252.247 494.88 299.858 482.977C314.508 479.315 330.073 476.11 334.193 476.11C342.434 476.568 279.715 501.747 254.078 508.614C239.887 512.276 226.153 523.263 192.733 557.598C155.652 596.053 151.989 598.8 166.639 577.741C176.253 564.007 183.12 552.105 182.204 551.189C181.289 550.273 171.217 557.598 160.23 567.67C130.473 593.764 126.81 590.102 154.736 561.718C175.795 540.202 178.542 535.624 179 517.312C179 505.867 180.831 486.182 183.12 473.821C186.324 452.305 186.324 453.678 187.24 489.844L187.698 528.757L230.731 482.977C271.017 439.944 274.222 435.366 279.257 409.729C291.16 349.3 292.076 347.469 292.534 384.55L293.449 418.885L354.336 357.082C413.392 296.653 415.681 293.906 425.753 261.403C431.246 243.091 436.74 228.899 437.656 229.814C438.571 230.73 437.656 242.175 435.367 254.993L431.704 278.799L500.832 212.418C567.67 148.784 580.489 137.797 567.213 154.278Z" fill="#ECECEC"/>
</g>
<defs>
<clipPath id="clip0_129_2764">
<rect width="732.478" height="732.478" fill="white"/>
</clipPath>
</defs>
</svg>
