<svg width="70" height="58" viewBox="0 0 70 58" fill="none" xmlns="http://www.w3.org/2000/svg">
<g transform="translate(17, 10) scale(0.7)">
<path d="M48.3118 0.421547C46.6167 0.744434 44.7197 1.1884 44.074 1.43057C43.4685 1.67273 42.8228 1.83418 42.6613 1.83418C42.4999 1.79381 41.7734 2.07634 41.0469 2.43959C40.3204 2.80283 39.5535 3.08536 39.3114 3.045C38.4234 2.88355 35.9614 4.1751 32.6922 6.6371C29.4634 9.01839 29.3423 9.05875 29.5844 7.96901C29.7055 7.32324 29.9477 6.47566 30.1091 6.03169C30.3513 5.42628 29.9477 5.507 27.8893 6.6371C26.5574 7.3636 25.4273 8.09009 25.4273 8.25154C25.4273 8.41298 24.9833 8.65514 24.4183 8.77623C23.1267 9.09911 19.8171 12.4087 17.678 15.5972L15.9425 18.0996L15.7407 15.7183L15.5389 13.2966L13.8437 15.2339C12.8751 16.3237 12.2293 17.3327 12.3504 17.5345C12.4715 17.7363 12.2697 17.8978 11.9468 17.8978C11.1396 17.8978 9.40406 20.8845 8.27396 24.2344L7.38602 26.8982L6.94205 25.5663C6.65953 24.8398 6.45772 23.7501 6.45772 23.185C6.41736 22.176 6.41736 22.1356 5.81195 22.9429C4.56077 24.5573 2.78489 28.5126 2.74453 29.7638C2.70417 30.45 2.50237 31.1361 2.2602 31.2975C1.53371 31.7819 1.33191 37.5938 1.89696 40.4998C3.1885 46.8364 3.10778 48.0069 1.21082 50.1864C0.52469 50.9936 0 52.043 0 52.6887C0 53.6978 0.0807215 53.7381 1.21082 53.4152C1.89696 53.2134 3.14814 52.4466 4.07644 51.6797C6.13484 49.9038 6.98241 49.7424 10.8167 50.4285C15.4178 51.2357 18.9292 51.155 19.9382 50.2267C20.9876 49.2984 22.8442 48.6527 22.4002 49.3792C22.2388 49.6617 23.4092 49.2177 24.9833 48.3701C27.6471 46.9575 28.414 46.0696 27.0014 45.8678C26.6785 45.8274 25.3466 45.666 24.0147 45.5045L21.593 45.2624L24.2165 44.3744C29.4634 42.5582 32.1675 40.7419 35.9211 36.4233L38.1006 33.921L36.0018 34.2035C34.8313 34.3649 33.5802 34.5668 33.1765 34.6878C32.4501 34.93 34.1452 33.2752 36.365 31.6204C38.5445 30.006 40.7644 27.9072 40.7644 27.544C40.7644 27.3018 41.4101 26.4946 42.177 25.7277C42.9842 24.9205 43.7107 23.7501 43.8722 23.1043C43.9932 22.4585 44.2354 21.9338 44.3565 21.9338C44.639 21.9338 46.0516 19.1086 47.3835 15.8797L47.9486 14.4671L46.2938 14.6285L44.639 14.7496L46.5763 12.6105C47.6257 11.44 48.8365 9.82561 49.2401 9.05875C49.9263 7.60576 51.9039 0.219746 51.6214 0.0179405C51.5407 -0.0627823 50.0473 0.139023 48.3118 0.421547ZM43.5493 8.09009C42.5806 9.34128 36.6476 15.9201 33.4187 19.27C31.7236 21.0459 30.3917 22.5796 30.432 22.6603C30.5127 22.7007 31.4007 22.4585 32.4501 22.1356C34.7103 21.3688 35.8807 21.5302 33.8627 22.3374C29.423 24.073 28.2929 24.7994 25.3869 27.8265C21.4316 31.9029 18.0009 35.6565 16.9515 36.9884C16.0232 38.1185 15.7811 38.1185 19.9786 37.0691C21.2701 36.7462 22.6424 36.4637 23.0056 36.4637C23.7321 36.5041 18.2027 38.7239 15.9425 39.3293C14.6913 39.6522 13.4805 40.6209 10.5342 43.6479C7.26494 47.0382 6.94205 47.2804 8.2336 45.4238C9.08117 44.213 9.68658 43.1636 9.60586 43.0829C9.52514 43.0022 8.6372 43.6479 7.66855 44.5359C5.0451 46.8364 4.72221 46.5135 7.18422 44.0112C9.04081 42.1142 9.28298 41.7106 9.32334 40.0962C9.32334 39.0872 9.48478 37.3516 9.68658 36.2619C9.96911 34.3649 9.96911 34.486 10.0498 37.6745L10.0902 41.1052L13.8841 37.0691C17.4359 33.2752 17.7184 32.8716 18.1623 30.6114C19.2117 25.2838 19.2924 25.1223 19.3328 28.3916L19.4135 31.4186L24.7815 25.9699C29.988 20.6423 30.1899 20.4001 31.0778 17.5345C31.5621 15.9201 32.0464 14.6689 32.1272 14.7496C32.2079 14.8303 32.1272 15.8394 31.9254 16.9695L31.6025 19.0682L37.697 13.2159C43.5896 7.60576 44.7197 6.6371 43.5493 8.09009Z" fill="#ECECEC"/>
</g>
</svg>
