<svg width="733" height="733" viewBox="0 0 733 733" fill="none" xmlns="http://www.w3.org/2000/svg">
<g clip-path="url(#clip0_129_2743)">
<path d="M0 366.239V732.478H366.239H732.478V366.239V-0.000183105H366.239H0V366.239ZM478.4 119.485C499 137.797 499 151.989 478.4 176.252L462.834 194.564L428.499 176.252C390.502 156.109 390.502 157.025 420.259 124.521C442.691 100.716 455.51 99.7999 478.4 119.485ZM558.972 161.145C581.862 186.324 578.2 193.649 520.975 247.669C446.354 317.712 442.691 319.085 419.343 293.906C408.814 282.004 412.477 275.595 429.415 278.341C462.377 282.919 496.254 262.776 501.747 234.393C504.494 221.574 503.121 219.285 488.013 210.129L471.075 200.058L481.604 188.155C513.65 151.073 519.601 146.495 532.42 146.495C541.118 146.495 549.816 151.073 558.972 161.145ZM414.308 182.661C434.451 194.106 456.425 206.467 462.377 209.672C485.266 222.032 490.76 227.984 487.555 238.055C478.857 264.607 430.788 273.306 392.791 254.536L371.275 244.006L357.083 258.656L343.349 272.848L363.492 285.666C381.346 296.653 384.551 301.689 389.587 321.832C392.333 335.108 396.454 348.385 398.285 352.047C400.116 355.709 396.911 368.985 390.96 383.177C379.057 410.187 377.684 416.597 384.551 416.597C387.298 416.597 394.622 405.609 401.032 392.333L412.934 368.07L441.318 372.19C480.689 378.141 479.315 377.226 494.88 402.863C508.156 424.837 509.988 425.753 529.215 425.753C540.202 425.753 549.358 427.126 549.358 429.415C549.358 431.246 534.251 448.185 515.939 466.954C483.893 500.374 482.062 501.747 448.185 509.072C405.152 519.143 406.525 519.601 393.249 506.783C386.84 501.289 362.576 480.231 339.229 460.087C315.423 439.944 284.751 413.392 270.559 401.489L244.922 379.515L246.753 314.507C247.669 279.257 249.5 246.295 251.331 242.175C254.994 231.646 338.771 162.061 350.216 159.314C364.408 156.567 374.937 160.229 414.308 182.661ZM596.054 236.682C607.499 248.584 610.703 258.198 609.33 275.137C609.33 278.799 590.56 296.195 567.67 313.134C545.238 330.53 522.348 348.385 516.855 352.963C503.578 364.408 486.182 363.95 472.906 351.589C452.305 332.362 457.799 320.917 511.819 270.559C566.297 219.285 575.911 215.623 596.054 236.682ZM619.401 325.952C634.509 346.553 627.642 358.456 583.235 386.84C562.177 400.574 540.66 412.019 536.082 412.019C524.637 412.019 511.819 396.453 511.819 382.262C511.819 368.07 509.53 370.359 553.478 336.94C591.476 307.64 604.294 305.809 619.401 325.952ZM242.633 404.694C242.633 406.067 248.585 415.681 255.909 426.668C291.16 480.231 311.761 513.65 310.387 515.023C309.93 515.939 292.076 508.614 271.017 498.542C249.958 488.929 232.104 480.688 230.73 480.688C227.526 480.688 221.117 473.821 200.058 447.727L183.119 426.21L197.769 416.139C206.009 410.187 216.539 401.947 221.575 397.369C228.899 390.96 231.188 390.502 236.224 395.996C239.886 399.2 242.633 403.32 242.633 404.694ZM296.653 440.402C357.541 493.507 374.021 507.698 384.093 516.397C395.08 525.095 395.538 525.553 387.755 537.455C383.177 544.322 378.142 548.9 376.31 547.985C374.479 546.611 365.323 542.491 355.71 537.913C341.976 531.504 331.904 520.517 314.05 492.591C278.342 437.197 269.186 421.174 271.932 421.174C273.306 421.174 284.293 429.873 296.653 440.402ZM197.311 465.581C211.045 482.52 225.237 499.916 228.899 504.036C232.562 507.698 247.211 525.095 260.945 542.033C274.679 559.43 292.076 579.573 298.942 587.813C321.832 613.45 321.832 615.739 304.436 631.304C287.955 645.954 278.799 645.954 265.523 632.22C261.861 628.099 247.211 614.823 233.477 602.463C178.541 553.02 119.028 493.964 119.028 488.471C119.028 479.773 124.521 473.821 148.785 453.678C161.603 443.607 171.674 435.366 172.132 434.908C172.132 434.908 183.577 448.642 197.311 465.581ZM298.485 526.01C324.579 537.913 350.216 549.358 356.167 551.189C361.661 553.02 366.239 556.683 366.239 559.887C366.239 566.754 333.735 599.716 327.326 599.258C325.037 599.258 311.761 585.524 298.485 568.586C285.208 551.647 268.27 530.131 260.487 520.517C252.705 511.361 247.669 503.578 249.042 503.578C250.416 503.578 272.39 513.65 298.485 526.01Z" fill="#151515"/>
<path d="M420.259 129.099C395.08 156.109 395.08 155.652 435.367 178.084L461.003 192.275L478.4 171.674C491.218 155.652 494.88 148.327 492.591 139.629C489.845 128.184 460.545 105.294 449.1 105.294C445.438 105.294 432.62 115.823 420.259 129.099Z" fill="#ECECEC"/>
<path d="M498.085 173.048L472.448 199.6L488.013 208.298C500.832 215.165 503.578 219.286 503.578 230.731C503.121 258.656 476.568 279.257 440.86 279.257C427.584 279.257 416.597 281.088 416.597 282.92C416.597 290.244 437.655 306.725 446.811 306.725C458.256 306.267 572.248 196.853 572.248 185.866C572.248 174.879 543.407 146.496 532.42 146.496C527.384 146.496 511.819 158.398 498.085 173.048Z" fill="#ECECEC"/>
<path d="M338.771 168.012C332.362 172.132 326.411 176.71 325.037 178.084C323.664 179.915 308.099 192.733 289.787 207.383C271.933 222.032 255.91 236.682 254.994 240.344C253.621 243.549 250.874 276.053 249.043 312.219L246.296 377.684L270.559 398.285C283.835 409.73 319.544 439.944 349.301 465.581C384.551 495.796 408.357 512.734 414.766 512.734C427.584 512.734 472.448 501.289 483.893 495.338C488.471 492.591 505.41 476.11 521.433 458.256L550.274 425.753H527.842C505.868 425.753 505.41 425.295 492.592 403.778C480.231 382.72 478.858 381.804 450.474 376.31C434.451 373.106 419.802 370.817 417.513 370.817C415.224 370.817 408.814 380.888 402.863 393.707C395.538 408.814 389.129 416.597 383.635 416.597C372.648 416.597 373.106 413.85 387.298 384.551C398.743 360.287 399.201 359.372 391.876 337.398C387.756 325.037 384.551 312.219 384.551 309.014C384.551 305.352 374.022 296.196 361.661 287.955L338.313 272.848L354.336 256.825L370.359 240.802L394.165 252.247C410.188 259.572 425.753 263.234 440.86 262.776C460.546 262.776 465.581 260.487 477.026 247.669C487.556 235.766 489.387 231.646 484.809 226.152C482.062 222.49 477.942 219.743 476.569 219.743C474.737 219.743 449.558 206.467 420.717 189.986C391.876 173.506 364.408 160.229 359.372 160.229C354.336 160.229 344.723 163.892 338.771 168.012Z" fill="#ECECEC"/>
<path d="M512.276 273.306C484.808 299.858 462.376 325.495 462.376 329.615C462.376 338.313 485.266 361.661 494.422 361.661C505.867 361.661 604.294 283.835 607.04 272.39C610.245 260.029 595.138 231.646 583.235 227.068C568.127 221.116 560.803 225.694 512.276 273.306Z" fill="#ECECEC"/>
<path d="M584.15 315.423C582.319 317.712 565.838 331.446 547.069 345.638C508.614 374.479 504.036 386.382 524.637 402.405C535.624 411.103 537.455 411.103 549.815 405.152C572.248 393.249 623.063 356.167 625.81 349.758C631.761 333.735 592.391 301.689 584.15 315.423Z" fill="#ECECEC"/>
<path d="M211.045 408.814C200.058 417.512 191.359 426.211 191.359 428.042C191.359 429.873 198.226 440.402 206.467 451.847C218.827 468.328 229.814 476.568 260.945 491.218C282.461 500.832 302.147 510.445 304.436 511.819C307.182 513.65 304.893 508.614 300.315 501.29C295.28 493.507 279.257 467.87 264.149 444.065C249.042 420.259 235.308 399.2 233.477 396.911C232.103 395.08 221.574 400.574 211.045 408.814Z" fill="#ECECEC"/>
<path d="M282.919 439.487C288.413 448.185 302.605 471.075 314.507 490.302C331.904 518.686 339.686 527.384 356.167 535.167C376.31 545.238 377.226 545.238 385.466 536.54C393.706 528.3 393.249 527.384 349.3 489.387C324.579 468.328 297.111 444.522 288.413 437.198L272.848 423.464L282.919 439.487Z" fill="#ECECEC"/>
<path d="M164.35 445.438C130.93 471.075 123.605 478.857 123.605 487.555C123.605 494.422 138.255 511.361 170.759 540.66C196.395 564.008 224.779 590.56 233.935 599.716C264.607 629.473 279.257 640.918 285.208 640.918C288.413 640.918 297.111 634.967 303.978 627.642L316.796 613.908L271.932 559.888C246.753 529.673 219.285 496.254 210.587 485.266C177.626 443.607 172.132 439.029 164.35 445.438Z" fill="#ECECEC"/>
<path d="M256.367 510.446C256.367 512.277 265.065 523.722 276.053 536.54C286.582 549.358 303.063 568.586 312.219 579.573L329.157 599.716L345.18 582.32C354.336 573.164 361.661 563.55 361.661 561.719C361.661 559.888 341.518 548.901 317.254 537.456C292.533 526.011 268.728 514.566 264.608 512.277C260.03 509.988 256.367 509.072 256.367 510.446Z" fill="#ECECEC"/>
</g>
<defs>
<clipPath id="clip0_129_2743">
<rect width="732.478" height="732.478" fill="white"/>
</clipPath>
</defs>
</svg>
