<svg width="503" height="536" viewBox="0 0 503 536" fill="none" xmlns="http://www.w3.org/2000/svg">
<path d="M296.654 23.8057C271.475 50.8158 271.475 50.358 311.761 72.7902L337.398 86.9819L354.794 66.381C367.612 50.358 371.275 43.0333 368.986 34.3351C366.239 22.8901 336.94 0.000205994 325.495 0.000205994C321.833 0.000205994 309.014 10.5296 296.654 23.8057Z" fill="#ECECEC"/>
<path d="M374.479 67.7545L348.843 94.3068L364.408 103.005C377.226 109.872 379.973 113.992 379.973 125.437C379.515 153.363 352.963 173.964 317.255 173.964C303.978 173.964 292.991 175.795 292.991 177.626C292.991 184.951 314.05 201.432 323.206 201.432C334.651 200.974 448.643 91.56 448.643 80.5728C448.643 69.5856 419.801 41.2021 408.814 41.2021C403.778 41.2021 388.213 53.1049 374.479 67.7545Z" fill="#ECECEC"/>
<path d="M215.166 62.7186C208.757 66.8387 202.805 71.4167 201.432 72.7901C200.058 74.6213 184.493 87.4397 166.181 102.089C148.327 116.739 132.304 131.388 131.389 135.051C130.015 138.255 127.268 170.759 125.437 206.925L122.69 272.39L146.954 292.991C160.23 304.436 195.938 334.651 225.695 360.288C260.946 390.502 284.751 407.441 291.16 407.441C303.979 407.441 348.843 395.996 360.288 390.045C364.866 387.298 381.804 370.817 397.827 352.963L426.669 320.459H404.237C382.262 320.459 381.804 320.001 368.986 298.485C356.626 277.426 355.252 276.511 326.869 271.017C310.846 267.812 296.196 265.523 293.907 265.523C291.618 265.523 285.209 275.595 279.258 288.413C271.933 303.521 265.524 311.303 260.03 311.303C249.043 311.303 249.501 308.556 263.692 279.257C275.137 254.994 275.595 254.078 268.27 232.104C264.15 219.743 260.946 206.925 260.946 203.721C260.946 200.058 250.416 190.902 238.056 182.662L214.708 167.554L230.731 151.531L246.754 135.509L270.559 146.954C286.582 154.278 302.147 157.941 317.255 157.483C336.94 157.483 341.976 155.194 353.421 142.376C363.95 130.473 365.781 126.353 361.204 120.859C358.457 117.197 354.337 114.45 352.963 114.45C351.132 114.45 325.953 101.174 297.112 84.6929C268.27 68.2122 240.802 54.936 235.767 54.936C230.731 54.936 221.117 58.5984 215.166 62.7186Z" fill="#ECECEC"/>
<path d="M388.671 168.012C361.203 194.564 338.771 220.201 338.771 224.321C338.771 233.019 361.66 256.367 370.816 256.367C382.261 256.367 480.688 178.541 483.435 167.096C486.639 154.736 471.532 126.352 459.629 121.774C444.522 115.823 437.197 120.401 388.671 168.012Z" fill="#ECECEC"/>
<path d="M460.545 210.13C458.714 212.419 442.233 226.153 423.463 240.344C385.008 269.186 380.43 281.088 401.031 297.111C412.018 305.809 413.849 305.809 426.21 299.858C448.642 287.955 499.458 250.874 502.205 244.464C508.156 228.442 468.785 196.396 460.545 210.13Z" fill="#ECECEC"/>
<path d="M87.4392 303.521C76.4521 312.219 67.7539 320.917 67.7539 322.748C67.7539 324.579 74.6209 335.109 82.8613 346.554C95.2218 363.035 106.209 371.275 137.339 385.924C158.856 395.538 178.541 405.152 180.83 406.525C183.577 408.357 181.288 403.321 176.71 395.996C171.674 388.213 155.651 362.577 140.544 338.771C125.437 314.966 111.703 293.907 109.871 291.618C108.498 289.787 97.9686 295.28 87.4392 303.521Z" fill="#ECECEC"/>
<path d="M159.314 334.193C164.807 342.891 178.999 365.781 190.902 385.009C208.298 413.392 216.081 422.091 232.562 429.873C252.705 439.945 253.62 439.945 261.861 431.247C270.101 423.006 269.643 422.091 225.695 384.093C200.973 363.035 173.506 339.229 164.807 331.904L149.242 318.17L159.314 334.193Z" fill="#ECECEC"/>
<path d="M40.7441 340.145C7.32478 365.781 0 373.564 0 382.262C0 389.129 14.6496 406.068 47.1533 435.367C72.79 458.714 101.173 485.267 110.329 494.423C141.002 524.18 155.652 535.625 161.603 535.625C164.807 535.625 173.506 529.673 180.373 522.348L193.191 508.614L148.327 454.594C123.148 424.379 95.6799 390.96 86.9817 379.973C54.0202 338.313 48.5267 333.735 40.7441 340.145Z" fill="#ECECEC"/>
<path d="M132.762 405.152C132.762 406.983 141.46 418.428 152.447 431.247C162.976 444.065 179.457 463.293 188.613 474.28L205.552 494.423L221.575 477.027C230.731 467.871 238.055 458.257 238.055 456.426C238.055 454.594 217.912 443.607 193.649 432.162C168.928 420.717 145.122 409.272 141.002 406.983C136.424 404.694 132.762 403.779 132.762 405.152Z" fill="#ECECEC"/>
</svg>
