<svg width="733" height="733" viewBox="0 0 733 733" fill="none" xmlns="http://www.w3.org/2000/svg">
<g clip-path="url(#clip0_129_2717)">
<path d="M0 366.239V732.478H366.239H732.478V366.239V-0.000183105H366.239H0V366.239ZM460.088 34.3347C490.302 40.7439 522.348 48.5265 531.046 51.2733C574.537 65.0072 631.762 87.8972 636.34 93.8485C645.496 104.836 650.99 211.503 645.496 279.257C642.749 313.134 638.629 349.3 635.882 359.372C610.245 457.341 592.849 498.085 553.478 555.767C508.614 622.148 401.489 709.588 365.323 709.588C345.18 709.588 278.799 664.266 235.308 620.775C192.275 577.284 173.506 552.563 148.785 505.867C98.8845 411.561 76.9102 287.497 86.5239 159.314C88.8129 127.268 92.4753 98.4265 94.3065 95.6797C102.089 82.8614 192.733 51.2733 269.643 34.3347C336.94 19.6852 390.96 19.6852 460.088 34.3347Z" fill="#151515"/>
<path d="M320.001 69.1271C303.063 71.4161 277.426 76.4519 262.777 80.5721C247.669 84.6923 228.442 89.7281 219.743 91.5593C211.045 93.8483 189.529 101.631 171.675 108.956C126.81 127.268 126.353 128.641 126.353 233.477C126.353 323.205 133.22 369.443 156.109 435.824C187.24 524.637 262.777 615.281 342.891 658.772C360.745 668.386 364.408 668.843 380.431 663.808C390.045 660.603 398.285 656.025 398.285 653.736C398.285 651.905 400.574 650.074 403.321 650.074C422.548 650.074 535.624 537.455 535.624 517.77C535.624 515.481 536.998 512.734 539.287 511.818C544.78 509.529 571.333 452.305 580.947 421.174C601.09 356.167 606.125 321.374 605.668 233.477C605.668 180.83 603.836 144.206 600.632 136.424C595.596 124.521 586.44 119.027 543.865 101.631C518.228 91.1015 444.98 73.7051 407.441 69.1271C364.866 63.6335 363.034 63.6335 320.001 69.1271ZM411.103 85.1501C463.292 93.3905 528.3 111.245 561.261 126.352L585.067 137.339L590.56 184.035C599.258 254.536 587.356 355.251 562.177 428.041C551.647 457.798 529.215 502.662 512.277 527.384C481.146 571.79 401.947 640.918 374.022 647.785C336.94 657.398 236.224 563.55 191.36 478.399C152.447 403.32 131.388 280.172 141.918 187.697L147.869 136.881L166.639 128.641C199.6 113.534 275.595 92.0171 313.592 86.5235C333.735 83.7767 351.132 80.5721 352.047 79.6565C355.252 76.4519 363.95 77.3676 411.103 85.1501Z" fill="#151515"/>
<path d="M302.147 196.853V251.789H249.5H196.854V313.592V375.395H249.5H302.147V464.665V553.936H366.239H430.331V464.665V375.395H482.978H535.624V313.592V251.789H482.978H430.331V196.853V141.917H366.239H302.147V196.853ZM402.863 219.743V274.679H457.799H512.735V313.592V352.505H457.799H402.863V441.775V531.046H363.95H325.037V441.775V352.505H270.101H215.165V313.592V274.679H270.101H325.037V219.743V164.807H363.95H402.863V219.743Z" fill="#151515"/>
<path d="M347.927 242.633V297.569H292.991H238.056V313.592V329.615H292.991H347.927V418.886V508.156H366.239H384.551V418.886V329.615H437.198H489.845V313.592V297.569H437.198H384.551V242.633V187.697H366.239H347.927V242.633Z" fill="#151515"/>
<path d="M216.996 313.592C216.996 336.024 217.454 346.096 218.369 335.566C219.285 325.037 219.285 306.267 218.369 294.365C217.454 282.462 216.996 290.702 216.996 313.592Z" fill="#6B6B6B"/>
<path d="M490.302 312.219L489.844 329.157L436.282 330.989L382.262 332.362L436.282 333.278C494.88 334.193 496.711 333.278 493.049 308.099C491.676 297.112 491.218 298.027 490.302 312.219Z" fill="#6B6B6B"/>
<path d="M264.607 332.82C280.172 333.735 305.809 333.735 321.832 332.82C337.397 331.904 324.578 331.446 292.99 331.446C261.402 331.446 248.584 331.904 264.607 332.82Z" fill="#6B6B6B"/>
<path d="M244.006 378.599C250.873 379.515 261.86 379.515 269.185 378.599C276.052 377.684 270.101 376.768 256.367 376.768C242.633 376.768 236.681 377.684 244.006 378.599Z" fill="#6B6B6B"/>
<path d="M461.46 378.599C466.954 379.515 475.194 379.515 479.772 378.599C483.892 377.226 479.314 376.31 469.243 376.768C459.171 376.768 455.509 377.684 461.46 378.599Z" fill="#6B6B6B"/>
<path d="M251.788 591.476C262.776 603.836 272.389 613.45 273.305 613.45C276.967 613.45 273.305 609.33 253.162 590.56L231.188 569.959L251.788 591.476Z" fill="#6B6B6B"/>
<path d="M476.11 592.849C465.123 604.294 456.883 613.45 458.256 613.45C459.63 613.45 469.701 604.294 480.688 592.849C491.675 581.404 499.916 572.248 498.542 572.248C497.169 572.248 487.098 581.404 476.11 592.849Z" fill="#6B6B6B"/>
<path d="M641.834 137.34C641.834 146.038 642.75 149.701 644.123 145.123C645.039 141.002 645.039 133.678 644.123 129.1C642.75 124.979 641.834 128.642 641.834 137.34Z" fill="#C1C1C1"/>
<path d="M299.4 143.291C298.485 146.496 298.027 171.675 298.942 199.6L300.316 249.5L301.231 195.938L302.147 142.376L367.612 140.544L432.62 139.171L367.154 138.255C316.797 137.798 301.231 138.713 299.4 143.291Z" fill="#C1C1C1"/>
<path d="M345.181 189.071C344.265 192.276 343.807 217.455 344.723 245.38L346.096 295.28L347.012 241.718L347.927 188.155L367.613 186.324L386.84 184.493L367.155 184.035C354.794 183.577 347.012 185.409 345.181 189.071Z" fill="#C1C1C1"/>
<path d="M326.41 254.078C326.41 266.439 327.326 271.475 328.241 264.15C329.157 257.283 329.157 247.211 328.241 241.26C327.326 235.766 326.41 241.26 326.41 254.078Z" fill="#C1C1C1"/>
<path d="M345.18 421.175C345.18 470.159 346.095 490.302 346.553 465.581C347.469 441.318 347.469 401.032 346.553 376.31C346.095 352.047 345.18 372.19 345.18 421.175Z" fill="#C1C1C1"/>
<path d="M327.326 441.776V528.758L361.661 529.215H395.996L363.034 527.842L329.615 526.011L328.242 440.402L326.868 354.794L327.326 441.776Z" fill="#C1C1C1"/>
<path d="M299.4 466.955C299.4 515.939 300.316 536.082 300.774 511.361C301.689 487.098 301.689 446.811 300.774 422.09C300.316 397.827 299.4 417.97 299.4 466.955Z" fill="#C1C1C1"/>
<path d="M322.748 27.4678C217.913 43.4908 105.294 80.1147 96.1381 101.631C88.8134 119.028 83.7776 214.25 87.8978 267.812C96.5959 381.346 125.437 471.99 177.168 547.985C215.166 604.752 292.534 674.795 347.47 702.721C362.577 710.503 384.551 709.13 384.551 700.432C384.551 697.685 387.756 695.854 391.876 695.854C404.694 695.854 457.799 657.856 461.004 646.412C462.377 640.002 464.666 637.713 466.497 640.46C471.533 647.785 535.167 580.489 559.43 542.491C585.067 502.205 601.09 467.87 596.97 461.461C595.139 458.714 595.596 457.798 598.343 459.172C604.295 462.834 624.438 402.863 633.594 354.794C645.496 293.449 649.159 218.37 643.665 157.483C640.918 126.81 635.883 98.8844 632.678 95.222C625.811 86.9816 549.817 57.2247 546.154 61.3449C544.323 62.7183 540.203 61.3449 536.083 58.1403C531.962 54.478 514.566 48.5266 496.712 44.4064C479.316 40.744 453.679 34.7926 440.403 32.0458C427.126 28.8412 409.272 27.4678 400.574 28.3834C392.334 29.299 386.382 28.3834 387.298 26.5522C390.045 21.9742 354.794 22.8898 322.748 27.4678ZM461.919 75.5367C475.195 79.1991 488.472 81.0303 490.303 79.6569C492.592 78.2835 494.423 79.1991 494.423 81.4881C494.423 84.2349 501.29 87.4395 509.53 88.8129C517.313 90.1862 539.745 97.511 558.515 104.836C605.21 122.69 606.126 125.437 607.957 218.37C610.704 351.589 586.898 447.269 529.673 533.335C505.868 568.586 448.643 625.353 413.85 648.243C368.07 678 346.554 673.422 278.8 617.57C267.355 607.956 256.368 601.547 254.536 603.378C252.705 605.21 251.79 604.294 252.705 602.005C253.621 599.258 244.465 585.982 233.02 572.248C153.363 477.026 120.859 371.275 124.522 218.37C126.353 125.895 127.726 122.69 172.133 105.751C200.516 94.7642 278.342 72.7899 311.303 66.8385C333.736 62.7183 437.656 68.6697 461.919 75.5367Z" fill="#ECECEC"/>
<path d="M297.569 91.1017C252.247 100.258 198.227 116.281 170.759 129.099C153.363 137.339 151.074 140.544 146.953 160.687C136.424 208.756 143.749 326.868 160.23 386.84C183.577 468.785 218.37 531.046 270.101 581.862C296.653 607.956 356.167 650.074 366.239 650.074C369.443 650.074 386.382 640.46 404.694 628.557C525.553 547.985 591.018 410.187 590.56 235.308C590.102 170.759 585.524 143.749 574.079 135.05C561.719 125.894 471.99 97.9686 427.584 89.7283C381.804 80.5723 347.927 81.0301 297.569 91.1017ZM431.246 193.191L432.62 249.5H485.267H537.913L539.287 314.965L540.66 379.973H485.267H430.331V466.954V553.936H363.95H297.569V466.954V379.973H244.922H191.818L193.191 314.965L194.564 249.5L246.296 250.873L297.569 252.705V198.227C297.569 168.012 298.942 141.917 300.774 140.544C302.147 138.713 331.904 137.339 366.697 137.339H429.873L431.246 193.191Z" fill="#ECECEC"/>
<path d="M328.242 168.012C326.411 169.385 326.411 194.106 328.242 222.948L330.989 274.679H275.596H219.744V313.592V352.505H274.68H329.616V439.487V526.468H366.24H402.864V439.487V352.505H457.799H512.735V313.592V274.679H457.799H402.864V219.743V164.807H367.155C347.47 164.807 329.616 166.181 328.242 168.012ZM384.552 238.055V292.991H439.487H494.423V313.592V334.193H439.487H384.552V421.175V508.156H363.951H343.35V421.175V334.193H290.703H238.056V313.592V292.991H290.703H343.35V241.26C343.35 212.418 344.723 187.697 346.554 186.324C347.928 184.493 357.542 183.119 367.155 183.119H384.552V238.055Z" fill="#ECECEC"/>
</g>
<defs>
<clipPath id="clip0_129_2717">
<rect width="732.478" height="732.478" fill="white"/>
</clipPath>
</defs>
</svg>
