<svg width="733" height="733" viewBox="0 0 733 733" fill="none" xmlns="http://www.w3.org/2000/svg">
<g clip-path="url(#clip0_129_2706)">
<path d="M0 366.239V732.478H366.239H732.478V366.239V-0.000183105H366.239H0V366.239ZM418.886 79.6568C467.412 103.462 471.533 106.667 503.121 148.784C531.504 185.866 531.504 185.866 546.612 242.633C576.368 353.878 594.68 419.343 613.45 478.857C623.064 508.156 619.401 523.264 598.801 542.949C577.284 563.092 547.069 585.982 542.034 585.982C540.202 585.982 535.167 589.187 531.046 592.849C520.059 602.921 377.684 672.964 368.07 672.964C352.047 672.964 194.107 591.933 174.879 573.621C171.674 570.417 167.096 567.67 165.265 567.67C158.398 567.67 120.401 528.299 117.196 518.686C113.534 507.698 127.726 447.269 142.375 409.73C144.207 404.694 147.869 392.333 150.616 382.262C173.963 290.244 191.36 227.526 200.516 201.431C209.214 176.252 233.935 141.46 264.15 111.245C281.546 94.7642 349.3 59.9714 366.239 59.5136C372.19 59.5136 395.996 68.6696 418.886 79.6568Z" fill="#151515"/>
<path d="M336.482 197.311C278.341 216.539 268.27 222.948 250.415 253.62C229.814 288.871 206.009 336.94 189.986 375.395C173.505 414.308 146.495 489.845 146.495 496.711C146.495 505.867 178.541 535.624 214.707 559.888C264.607 593.765 347.011 633.593 366.238 633.593C397.369 633.593 524.637 564.008 566.754 523.722C585.524 505.41 586.897 502.663 584.608 487.098C581.862 470.617 564.923 422.09 548.9 385.924C543.864 374.937 540.202 364.866 540.202 363.034C540.202 357.541 488.928 258.656 476.11 240.344C461.918 219.743 431.704 205.094 370.816 189.986C367.154 189.071 351.589 192.275 336.482 197.311ZM409.729 208.298C455.967 224.779 461.003 228.442 474.737 251.331C504.036 300.774 504.951 303.063 504.036 336.482L503.12 368.528L474.737 398.285C459.172 414.766 455.509 419.344 466.954 408.356C478.399 397.827 489.386 389.129 491.217 389.129C494.88 389.129 490.76 433.993 484.808 457.799C482.061 469.701 471.99 482.062 448.184 503.578C417.054 531.046 415.223 531.962 418.427 519.601C420.716 509.53 420.259 507.699 416.596 512.734C414.307 516.397 412.018 523.722 412.018 529.215C412.018 539.287 383.177 558.514 367.612 558.514C355.251 558.514 329.615 545.238 326.41 537.456C325.037 533.793 321.832 531.046 318.627 531.046C315.881 531.046 299.4 517.312 282.919 499.916C249.958 466.955 242.633 449.558 244.006 406.983C244.006 394.165 241.259 382.262 236.681 375.395C223.863 357.083 226.152 311.761 241.259 285.209C271.016 231.188 271.932 230.273 311.303 213.792C357.998 193.649 367.612 193.191 409.729 208.298Z" fill="#151515"/>
<path d="M265.523 318.17C265.523 319.085 277.426 328.699 291.618 339.229C320.001 360.287 327.784 366.696 350.674 385.924L365.781 399.2L383.178 386.382C392.791 379.057 406.983 368.07 414.766 361.661C431.247 348.385 441.318 340.144 459.63 325.952C466.955 320.459 471.533 315.881 470.617 315.881C468.328 315.881 436.74 322.29 405.152 328.699C381.346 333.735 328.7 330.988 299.858 323.206C271.017 315.423 265.523 314.507 265.523 318.17Z" fill="#151515"/>
<path d="M265.523 404.694C265.523 406.525 272.848 415.223 281.546 423.921C290.245 432.162 297.569 437.655 297.569 435.824C297.569 433.535 290.245 425.295 281.546 416.596C272.848 407.898 265.523 402.862 265.523 404.694Z" fill="#151515"/>
<path d="M332.82 75.0789C287.04 95.222 268.728 107.125 254.078 125.895C247.669 135.05 237.14 147.411 230.73 154.278C215.165 170.759 199.6 206.467 188.613 249.5C170.759 320.001 156.567 373.106 149.7 393.707C122.69 476.11 115.365 511.361 123.148 526.01C129.099 536.998 169.385 568.128 210.587 593.307C250.416 617.57 344.264 663.35 361.203 666.555C372.648 668.844 389.129 662.892 446.354 634.509C485.266 615.281 517.312 597.885 517.312 596.054C517.312 593.765 520.059 591.933 523.264 591.933C531.504 591.933 584.609 553.936 601.547 536.54C618.028 518.686 618.486 499.916 602.463 450.474C591.476 416.139 573.164 353.42 562.177 313.592C555.767 290.244 548.9 265.065 545.696 256.367C544.78 252.705 542.949 245.38 542.491 239.886C539.287 219.285 530.588 192.275 524.179 185.866C520.517 182.204 517.312 177.168 517.312 174.879C517.312 173.048 505.867 157.025 492.133 139.628C466.039 106.667 442.691 90.644 392.791 70.9587L366.697 60.4293L332.82 75.0789ZM401.031 195.022C460.087 214.707 468.328 220.201 488.471 254.994C515.023 299.858 541.118 355.709 564.923 418.886C594.222 495.338 594.68 498.543 576.826 519.143C557.599 541.118 499 579.573 441.776 607.956C363.492 646.869 372.19 646.411 306.267 614.366C237.14 580.946 187.24 548.443 161.603 520.517C144.207 501.289 142.833 498.543 146.495 485.724C149.242 477.942 152.905 465.123 155.651 457.341C172.59 401.489 208.756 321.832 249.5 248.585C264.15 222.032 278.341 213.334 331.904 195.022C349.758 189.071 364.408 184.035 364.408 183.577C364.865 183.577 381.346 188.613 401.031 195.022Z" fill="#ECECEC"/>
<path d="M327.326 211.045C281.546 227.526 272.848 234.393 255.451 265.523C248.127 279.257 239.429 293.449 237.14 296.653C234.393 299.858 232.562 317.254 233.019 335.566L233.477 368.528L265.523 398.285L298.027 428.042L313.134 482.977L328.241 537.913L347.927 547.527C367.612 557.141 368.07 557.141 386.382 548.9L405.152 540.66L421.175 485.266L437.197 429.415L468.328 399.658L499.458 370.359L501.747 339.686C504.036 309.93 503.578 308.098 482.52 271.017C469.701 249.042 455.509 230.273 448.642 226.61C439.486 222.032 364.408 195.938 363.95 197.311C363.95 197.311 347.469 203.72 327.326 211.045ZM292.991 318.17C301.689 319.543 321.374 324.121 336.94 327.784C356.625 332.362 370.359 332.819 385.008 330.073C464.665 313.592 471.532 312.676 471.532 317.712C471.075 320.459 462.376 329.157 451.847 336.94C441.318 344.722 417.97 362.576 400.116 376.768L367.154 402.405L329.157 372.648C304.436 353.42 290.244 345.18 287.955 348.385C286.124 352.047 283.835 350.674 282.004 344.722C280.173 339.686 275.137 331.904 270.101 327.326C258.656 317.254 258.198 309.93 269.185 313.134C273.306 314.05 284.293 316.339 292.991 318.17Z" fill="#ECECEC"/>
<path d="M244.465 404.236C245.838 410.187 248.127 426.21 249.958 440.402C252.705 464.665 254.536 467.87 285.209 497.627C302.605 514.565 315.881 525.095 314.508 520.975C313.134 516.397 307.183 495.796 301.689 475.195C292.991 443.149 287.955 433.993 270.559 415.223C247.669 391.418 240.344 388.213 244.465 404.236Z" fill="#ECECEC"/>
<path d="M465.581 415.223C447.727 433.993 442.691 443.149 434.909 471.533C429.415 490.302 423.922 509.988 422.548 515.024C421.175 520.975 430.789 514.108 449.101 496.712C475.653 471.991 478.857 466.497 484.351 441.776C487.556 426.668 489.387 409.73 488.929 403.779C487.556 394.165 485.724 395.08 465.581 415.223Z" fill="#ECECEC"/>
</g>
<defs>
<clipPath id="clip0_129_2706">
<rect width="732.478" height="732.478" fill="white"/>
</clipPath>
</defs>
</svg>
