<svg width="70" height="58" viewBox="0 0 70 58" fill="none" xmlns="http://www.w3.org/2000/svg">
<path d="M32.2731 4.20892C26.2435 5.13047 19.7664 7.23687 19.2398 8.47437C18.8185 9.47491 18.5289 14.9515 18.7658 18.0321C19.2661 24.562 20.9249 29.7753 23.9002 34.1461C26.0856 37.411 30.5353 41.4395 33.6949 43.0456C34.5638 43.4932 35.8276 43.4142 35.8276 42.9139C35.8276 42.756 36.0119 42.6507 36.2489 42.6507C36.9862 42.6507 40.0404 40.4653 40.2247 39.807C40.3037 39.4384 40.4354 39.3067 40.5407 39.4647C40.8303 39.886 44.4902 36.0155 45.8857 33.8301C47.3602 31.5131 48.2817 29.5383 48.0447 29.1697C47.9394 29.0117 47.9657 28.9591 48.1237 29.0381C48.466 29.2487 49.6245 25.7995 50.1511 23.0348C50.8357 19.5066 51.0464 15.1885 50.7304 11.6866C50.5724 9.92252 50.2828 8.31639 50.0985 8.10575C49.7035 7.63181 45.3328 5.92037 45.1221 6.15734C45.0168 6.23633 44.7798 6.15734 44.5429 5.97303C44.3059 5.76239 43.3053 5.4201 42.2785 5.18313C41.2779 4.97249 39.8035 4.6302 39.0399 4.47222C38.2763 4.28791 37.2495 4.20892 36.7492 4.26158C36.2752 4.31424 35.933 4.26158 35.9856 4.15626C36.1436 3.89296 34.1162 3.94562 32.2731 4.20892ZM40.2774 6.97356C41.041 7.1842 41.8045 7.28952 41.9099 7.21054C42.0415 7.13155 42.1468 7.1842 42.1468 7.31585C42.1468 7.47383 42.5418 7.65815 43.0157 7.73713C43.4633 7.81612 44.7535 8.2374 45.833 8.65868C48.5187 9.68555 48.5713 9.84353 48.6767 15.1885C48.8346 22.8505 47.4655 28.3535 44.1742 33.3035C42.8051 35.3309 39.5138 38.5958 37.5128 39.9123C34.8798 41.6238 33.6423 41.3605 29.7454 38.1482C29.0872 37.5953 28.4553 37.2267 28.3499 37.332C28.2446 37.4373 28.192 37.3847 28.2446 37.253C28.2973 37.095 27.7707 36.3315 27.1124 35.5416C22.531 30.0649 20.6616 23.9827 20.8722 15.1885C20.9775 9.86986 21.0565 9.68555 23.6105 8.71134C25.243 8.07942 29.7191 6.81559 31.6148 6.4733C32.905 6.23633 38.8819 6.57862 40.2774 6.97356Z" fill="#ECECEC"/>
<path d="M30.8238 7.86879C28.2171 8.39539 25.1102 9.31694 23.5304 10.0542C22.5298 10.5281 22.3982 10.7124 22.1612 11.8709C21.5556 14.6356 21.9769 21.4287 22.9248 24.8779C24.2676 29.591 26.2687 33.1719 29.244 36.0945C30.7711 37.5953 34.194 40.0177 34.7733 40.0177C34.9576 40.0177 35.9318 39.4647 36.985 38.7802C43.9361 34.1461 47.7013 26.2208 47.6749 16.1627C47.6486 12.4502 47.3853 10.8967 46.7271 10.3965C46.0161 9.86987 40.8555 8.26374 38.3015 7.78981C35.6685 7.26321 33.7201 7.28954 30.8238 7.86879ZM38.5121 13.7404L38.5911 16.979H41.619H44.647L44.726 20.7441L44.805 24.483H41.619H38.4595V29.4857V34.4884H34.6416H30.8238V29.4857V24.483H27.7958H24.7415L24.8205 20.7441L24.8995 16.979L27.8748 17.0579L30.8238 17.1633V14.03C30.8238 12.2922 30.9028 10.7914 31.0081 10.7124C31.0871 10.6071 32.7985 10.5281 34.7996 10.5281H38.4331L38.5121 13.7404Z" fill="#ECECEC"/>
<path d="M32.5898 12.2922C32.4845 12.3712 32.4845 13.793 32.5898 15.4518L32.7478 18.4271H29.5619H26.3496V20.6651V22.9032H29.5092H32.6688V27.9059V32.9086H34.7752H36.8816V27.9059V22.9032H40.0412H43.2008V20.6651V18.4271H40.0412H36.8816V15.2675V12.1079H34.8279C33.6957 12.1079 32.6688 12.1869 32.5898 12.2922ZM35.8284 16.3207V19.4803H38.988H42.1476V20.6651V21.85H38.988H35.8284V26.8527V31.8554H34.6435H33.4587V26.8527V21.85H30.4308H27.4028V20.6651V19.4803H30.4308H33.4587V16.505C33.4587 14.8462 33.5377 13.4244 33.643 13.3454C33.722 13.2401 34.2749 13.1611 34.8279 13.1611H35.8284V16.3207Z" fill="#ECECEC"/>
<path d="M8.41625 0.500584C8.41625 0.834301 7.80444 1.7242 7.02577 2.55849C4.96786 4.78325 2.90995 8.67659 1.40824 13.293C-1.20586 21.3578 -0.0934783 32.6484 4.02234 39.8233C5.69091 42.6599 9.19491 47.3319 10.4742 48.3886C19.262 55.6748 25.7694 58.0664 35.7809 57.677C42.3995 57.4546 45.1805 56.7871 49.8525 54.3955C58.6403 49.946 64.5916 42.938 67.7062 33.4827C68.8186 30.09 69.0411 28.1989 69.0411 23.0263C69.0411 19.5779 68.8186 16.6301 68.5405 16.4633C68.2624 16.2964 68.0956 19.0774 68.0956 22.6926C68.0956 28.1989 67.8731 29.8675 66.7051 33.4271C65.5371 36.9867 62.0331 43.4942 60.7538 44.4953C60.587 44.6622 59.2521 45.997 57.8616 47.5544C56.4712 49.0561 55.1363 50.3909 54.9138 50.3909C54.6914 50.4466 53.1896 51.3921 51.5211 52.4488C49.9081 53.5056 46.9047 54.7848 44.9024 55.341C42.8445 55.8972 41.1203 56.509 41.0091 56.6759C40.8978 56.8428 38.1169 56.954 34.8909 56.954C30.1077 56.8428 28.1054 56.5647 24.3789 55.341C13.7001 51.7814 6.13586 44.2172 2.52062 33.3715C1.18576 29.3669 0.963285 27.8096 1.0189 23.0819C1.07452 16.9638 2.68748 10.957 5.3572 6.6743C6.13586 5.45068 6.74767 4.3383 6.74767 4.17144C6.74767 4.00459 7.35948 3.1703 8.13815 2.33601C9.63987 0.778675 9.86234 1.14441e-05 8.97244 1.14441e-05C8.69434 1.14441e-05 8.41625 0.222488 8.41625 0.500584Z" fill="#ECECEC" fill-opacity="0.7"/>
</svg>
