<svg width="70" height="58" viewBox="0 0 70 58" fill="none" xmlns="http://www.w3.org/2000/svg">
<path d="M31.4737 1.13512C27.9264 2.69591 26.5075 3.61819 25.3724 5.07256C24.8758 5.78201 24.0599 6.73977 23.5633 7.27186C22.3572 8.54887 21.1512 11.3157 20.2998 14.6501C18.9164 20.1129 17.8167 24.2277 17.2847 25.824C15.1918 32.209 14.6242 34.9404 15.2273 36.0755C15.6884 36.9269 18.81 39.339 22.0025 41.29C25.0886 43.17 32.3605 46.7173 33.6729 46.9656C34.5598 47.1429 35.8368 46.6818 40.2708 44.4825C43.286 42.9926 45.7691 41.6447 45.7691 41.5028C45.7691 41.3254 45.9819 41.1836 46.2302 41.1836C46.8687 41.1836 50.9835 38.2393 52.296 36.8914C53.573 35.508 53.6085 34.0536 52.3669 30.2226C51.5156 27.5621 50.0967 22.7024 49.2454 19.6163C48.7488 17.8072 48.2167 15.8562 47.9684 15.1822C47.8974 14.8984 47.7555 14.3309 47.7201 13.9052C47.4717 12.309 46.7978 10.2161 46.3012 9.71946C46.0174 9.43568 45.7691 9.04548 45.7691 8.86812C45.7691 8.72623 44.8823 7.4847 43.8181 6.13674C41.7961 3.58272 39.987 2.34118 36.1205 0.815868L34.0986 0L31.4737 1.13512ZM36.7591 10.4289C41.335 11.9542 41.9735 12.3799 43.5343 15.0758C45.5917 18.5521 47.6136 22.8798 49.4582 27.775C51.7284 33.6989 51.7639 33.9472 50.3805 35.5434C48.8906 37.2461 44.3502 40.2258 39.9161 42.4251C33.8503 45.4402 34.5243 45.4048 29.4163 42.9217C24.0599 40.3322 20.1934 37.8137 18.2069 35.6498C16.859 34.16 16.7526 33.9472 17.0364 32.9539C17.2492 32.3509 17.533 31.3577 17.7458 30.7546C19.0583 26.427 21.8606 20.2548 25.0177 14.5792C26.1528 12.5218 27.2524 11.8478 31.4027 10.4289C32.7861 9.96777 33.9213 9.57757 33.9213 9.5421C33.9567 9.5421 35.2337 9.9323 36.7591 10.4289Z" fill="#ECECEC"/>
<path d="M31.0471 11.6704C27.4999 12.9474 26.8259 13.4795 25.478 15.8917C24.9104 16.9558 24.2364 18.0555 24.0591 18.3038C23.8462 18.5521 23.7043 19.9 23.7398 21.3189L23.7753 23.873L26.2584 26.1787L28.7769 28.4844L29.9475 32.7411L31.1181 36.9978L32.6434 37.7427C34.1687 38.4876 34.2042 38.4876 35.6231 37.8491L37.0775 37.2106L38.319 32.9184L39.5605 28.5908L41.9727 26.2851L44.3848 24.0148L44.5622 21.6382C44.7395 19.3325 44.704 19.1906 43.0723 16.3173C42.0791 14.6146 40.9794 13.1603 40.4473 12.8765C39.7379 12.5218 33.9204 10.4998 33.8849 10.6063C33.8849 10.6063 32.6079 11.1029 31.0471 11.6704ZM28.3867 19.971C29.0607 20.0774 30.586 20.4321 31.7921 20.7159C33.3174 21.0706 34.3816 21.1061 35.5167 20.8933C41.6889 19.6163 42.221 19.5453 42.221 19.9355C42.1855 20.1483 41.5115 20.8223 40.6957 21.4254C39.8798 22.0284 38.0707 23.4118 36.6873 24.5115L34.1332 26.4979L31.189 24.1922C29.2735 22.7024 28.1739 22.0639 27.9965 22.3122C27.8546 22.5959 27.6773 22.4895 27.5354 22.0284C27.3935 21.6382 27.0033 21.0352 26.6131 20.6804C25.7263 19.9 25.6908 19.3325 26.5421 19.5808C26.8614 19.6517 27.7127 19.8291 28.3867 19.971Z" fill="#ECECEC"/>
<path d="M24.6264 26.6398C24.7328 27.101 24.9102 28.3425 25.0521 29.4422C25.2649 31.3222 25.4068 31.5705 27.7835 33.8762C29.1314 35.1887 30.1601 36.0046 30.0537 35.6853C29.9473 35.3306 29.4861 33.7343 29.0605 32.1381C28.3865 29.655 27.9963 28.9455 26.6483 27.4912C24.8747 25.6466 24.3072 25.3983 24.6264 26.6398Z" fill="#ECECEC"/>
<path d="M41.7604 27.4912C40.377 28.9456 39.9868 29.655 39.3838 31.8543C38.9581 33.3087 38.5325 34.834 38.426 35.2242C38.3196 35.6853 39.0645 35.1532 40.4834 33.8053C42.5408 31.8898 42.7892 31.4641 43.2148 29.5486C43.4631 28.378 43.605 27.0655 43.5695 26.6044C43.4631 25.8595 43.3212 25.9304 41.7604 27.4912Z" fill="#ECECEC"/>
<path d="M8.41625 0.517399C8.41625 0.851116 7.80444 1.74102 7.02577 2.5753C4.96786 4.80007 2.90995 8.69341 1.40824 13.3098C-1.20586 21.3746 -0.0934783 32.6653 4.02234 39.8401C5.69091 42.6767 9.19491 47.3487 10.4742 48.4055C19.262 55.6916 25.7694 58.0832 35.7809 57.6939C42.3995 57.4714 45.1805 56.804 49.8525 54.4123C58.6403 49.9628 64.5916 42.9548 67.7062 33.4995C68.8186 30.1068 69.0411 28.2157 69.0411 23.0431C69.0411 19.5948 68.8186 16.6469 68.5405 16.4801C68.2624 16.3132 68.0956 19.0942 68.0956 22.7094C68.0956 28.2157 67.8731 29.8843 66.7051 33.4439C65.5371 37.0035 62.0331 43.511 60.7538 44.5121C60.587 44.679 59.2521 46.0138 57.8616 47.5712C56.4712 49.0729 55.1363 50.4078 54.9138 50.4078C54.6914 50.4634 53.1896 51.4089 51.5211 52.4657C49.9081 53.5224 46.9047 54.8017 44.9024 55.3579C42.8445 55.914 41.1203 56.5259 41.0091 56.6927C40.8978 56.8596 38.1169 56.9708 34.8909 56.9708C30.1077 56.8596 28.1054 56.5815 24.3789 55.3579C13.7001 51.7982 6.13586 44.234 2.52062 33.3883C1.18576 29.3837 0.963285 27.8264 1.0189 23.0988C1.07452 16.9807 2.68748 10.9738 5.3572 6.69112C6.13586 5.4675 6.74767 4.35511 6.74767 4.18826C6.74767 4.0214 7.35948 3.18711 8.13815 2.35283C9.63987 0.79549 9.86234 0.0168266 8.97244 0.0168266C8.69434 0.0168266 8.41625 0.239304 8.41625 0.517399Z" fill="#ECECEC" fill-opacity="0.7"/>
</svg>
