<svg width="733" height="733" viewBox="0 0 733 733" fill="none" xmlns="http://www.w3.org/2000/svg">
<g clip-path="url(#clip0_129_2756)">
<path d="M0 366.239V732.478H366.239H732.478V366.239V-0.000183105H366.239H0V366.239ZM427.584 98.4265C465.581 107.125 475.653 111.703 513.192 135.966C590.102 185.866 634.509 261.861 639.545 352.963C645.496 453.678 599.716 541.576 513.192 597.427C392.791 674.337 236.224 646.869 147.869 533.335C70.9588 434.451 73.7056 290.702 154.736 191.817C173.963 168.012 216.539 134.135 247.211 118.57C295.738 93.3907 369.901 85.1504 427.584 98.4265Z" fill="#151515"/>
<path d="M306.268 135.05C252.247 150.158 191.818 194.564 162.977 241.26C128.184 298.027 119.028 373.564 139.629 436.74C153.363 479.315 168.012 503.121 198.685 533.793C261.861 597.427 354.794 619.859 437.656 592.391C480.689 577.742 502.663 564.466 533.336 533.335C564.466 502.663 579.116 478.399 592.849 436.74C619.86 354.336 598.801 265.981 537.914 203.72C499.916 164.807 470.617 147.411 422.091 134.593C392.792 126.81 335.109 127.268 306.268 135.05ZM430.331 166.639C488.014 188.155 524.637 217.454 546.154 259.572C558.057 282.462 555.31 287.04 540.66 267.354C495.796 206.009 427.584 182.662 363.492 206.467C318.628 223.406 279.257 268.27 279.257 302.147C279.257 325.037 286.582 334.193 304.436 334.193C316.797 334.193 325.953 329.157 347.927 309.472C385.009 276.51 408.814 265.523 445.896 265.523C477.484 265.523 499.001 272.39 518.686 289.329C535.625 303.978 529.673 308.556 509.072 296.196C496.712 288.871 485.267 286.582 462.835 286.582C414.308 287.04 393.249 301.231 351.132 363.492C341.518 377.684 326.868 394.164 319.086 400.116C272.39 435.824 211.045 421.632 185.409 368.986C174.879 347.469 173.048 338.771 174.879 314.965C179.457 242.633 246.754 176.252 331.904 159.772C355.71 155.194 410.188 158.856 430.331 166.639ZM502.205 316.797C521.891 325.037 547.07 353.878 553.021 374.937C566.297 418.428 552.105 468.328 515.024 507.699C474.737 550.732 424.38 572.248 363.492 572.248C296.196 572.248 238.513 542.949 198.685 488.471C175.795 457.798 170.759 437.655 192.734 465.123C264.608 556.225 385.009 560.345 451.848 474.279C466.039 456.425 472.906 429.873 467.413 415.223C456.426 386.84 426.211 388.671 393.249 419.801C360.746 450.474 324.579 466.954 291.618 466.954C256.825 466.954 233.478 460.087 213.334 443.149C189.987 423.921 193.191 418.886 219.744 432.62C236.682 441.318 249.501 444.065 270.101 444.065C315.881 444.065 341.976 426.668 377.684 371.275C399.201 338.313 406.983 330.073 428.042 319.086C444.523 310.387 484.351 309.014 502.205 316.797Z" fill="#151515"/>
<path d="M360.287 94.3063C359.83 95.2219 350.674 96.1375 341.06 96.5953C282.462 99.3421 229.815 124.521 178.084 175.337C124.979 226.61 96.1377 285.666 96.1377 342.891C96.1377 434.451 119.943 502.663 168.47 550.732C182.662 565.381 201.889 581.404 210.587 586.44C219.286 591.933 227.526 597.885 228.899 599.258C232.562 604.752 271.932 622.148 296.196 629.473C341.976 643.207 415.681 637.713 471.075 616.655C484.351 611.619 507.241 598.8 521.433 588.271C618.944 515.481 656.025 414.308 626.726 297.569C613.908 244.922 598.343 218.37 556.225 176.252C505.867 125.437 452.305 99.7999 385.924 94.7642C372.648 93.8485 361.203 93.3907 360.287 94.3063ZM412.934 130.472C461.003 140.086 500.374 161.603 535.624 196.853C573.164 234.85 592.391 271.474 602.921 325.037C610.245 363.95 610.245 368.528 602.921 407.441C592.391 461.003 573.164 497.627 535.624 535.624C499.458 572.248 459.63 592.849 405.152 603.378C368.986 610.245 363.492 610.245 327.326 603.378C272.848 592.849 233.019 572.248 196.853 535.624C159.314 497.627 140.086 461.003 129.557 407.441C122.232 368.528 122.232 363.95 129.557 325.037C140.086 271.474 159.314 234.85 196.853 196.853C231.188 162.518 271.475 140.544 315.881 130.93C355.709 122.232 373.106 122.232 412.934 130.472Z" fill="#ECECEC"/>
<path d="M289.328 179.457C225.237 207.84 190.444 245.838 178.999 300.316C173.963 325.952 179.914 359.372 194.564 381.346C211.96 408.356 257.282 423.006 290.244 412.018C314.049 404.236 330.072 389.128 359.372 347.927C392.791 300.316 418.885 283.835 462.376 283.835C483.435 283.835 498.085 286.582 510.445 292.991L528.757 301.689L515.023 290.702C467.87 251.789 405.609 260.029 349.758 311.761C317.254 341.975 300.316 346.553 283.835 328.699C265.065 308.556 277.883 267.354 312.676 235.308C335.566 213.792 354.794 204.178 390.044 196.853C438.113 187.239 493.507 208.298 531.504 250.415C553.02 275.137 551.647 269.643 526.926 236.682C507.24 210.587 461.003 178.541 426.21 168.012C412.476 163.434 386.839 160.229 366.696 160.229C336.024 160.229 326.868 162.518 289.328 179.457Z" fill="#ECECEC"/>
<path d="M433.078 320.459C408.357 332.819 401.032 340.144 376.311 377.226C349.759 417.512 333.278 432.619 304.894 442.233C277.884 451.389 246.296 449.1 219.286 435.824L199.143 426.21L214.708 439.486C231.189 453.678 266.439 466.954 287.04 466.954C319.544 466.954 365.324 444.522 391.418 416.597C439.029 365.323 494.423 400.116 462.835 461.461C453.679 479.315 422.549 510.445 402.863 521.432C387.298 530.131 348.843 540.202 330.073 540.202C287.498 540.202 218.828 507.241 195.023 475.195C188.613 466.039 188.613 466.954 195.48 479.773C204.179 495.796 237.14 528.757 256.368 540.66C288.414 560.803 322.291 569.959 361.661 569.501C383.178 569.043 403.779 567.67 407.441 566.754C411.104 565.381 421.175 562.634 428.958 560.803C437.198 558.972 446.354 554.394 449.101 551.189C451.848 547.527 456.426 544.78 458.715 544.78C468.786 544.78 512.277 509.53 527.384 489.386C536.54 476.568 547.07 454.594 551.648 438.113C558.973 410.645 558.973 406.983 552.105 383.177C542.95 351.589 526.011 330.988 499.916 320.001C474.738 309.014 455.968 309.472 433.078 320.459Z" fill="#ECECEC"/>
</g>
<defs>
<clipPath id="clip0_129_2756">
<rect width="732.478" height="732.478" fill="white"/>
</clipPath>
</defs>
</svg>
