<svg width="70" height="58" viewBox="0 0 70 58" fill="none" xmlns="http://www.w3.org/2000/svg">
<path d="M33.8239 0.119198C33.8239 0.485096 33.5494 1.30837 33.2293 1.94869C32.8634 2.58902 31.1254 5.97358 29.2959 9.49536C27.4206 13.0171 25.5454 16.5846 25.0423 17.4079C24.5392 18.1855 24.219 19.1002 24.3105 19.3746C24.4477 19.832 24.9051 19.0545 30.485 8.35192C33.8696 1.94869 33.8696 1.94869 34.1898 2.8177C34.4642 3.64097 38.2604 9.12946 39.2666 10.2729C40.593 11.645 42.514 15.9443 43.0628 18.6428C43.5202 21.0212 43.6574 21.1584 44.8923 21.1584C46.2187 21.1584 46.2644 21.1126 45.9443 19.1917C45.7613 18.1397 44.938 15.9443 44.069 14.2978C42.331 10.9132 37.6201 5.47047 36.8883 5.92784C36.6596 6.06505 36.5681 6.01932 36.7053 5.74489C36.8425 5.51621 36.6138 4.83015 36.2022 4.18982C35.7906 3.59524 35.0588 2.26885 34.6471 1.26263C34.2355 0.256409 33.8696 -0.246702 33.8239 0.119198Z" fill="#ECECEC"/>
<path d="M18.7312 21.387L19.7832 22.5305L18.7312 23.6739C17.9537 24.4972 17.8622 24.8174 18.3196 24.8174C18.6855 24.8174 19.2344 24.5887 19.5545 24.2685C19.9204 23.9026 20.1034 23.9026 20.1034 24.2228C20.1034 25.0918 23.1678 24.8174 24.0368 23.8569C24.7686 23.0336 25.6376 22.9879 37.3006 22.9879C48.0489 22.9879 49.7869 23.0793 49.5582 23.6739C49.3295 24.2228 49.5582 24.2228 51.159 23.5824C52.211 23.1708 53.0343 22.7134 53.0343 22.4847C53.0343 22.3018 52.3482 21.8902 51.5707 21.57C50.7474 21.2498 49.8784 20.8839 49.6497 20.7925C49.421 20.6553 49.3753 20.9297 49.5125 21.3413C49.7869 22.0274 48.6892 22.0731 37.3006 22.0731C25.6376 22.0731 24.7686 22.0274 24.0368 21.2041C23.1678 20.2436 20.1034 19.9692 20.1034 20.8382C20.1034 21.1584 19.9204 21.1584 19.5545 20.7925C19.2344 20.4723 18.6855 20.2436 18.3196 20.2436C17.8622 20.2436 17.9537 20.5638 18.7312 21.387Z" fill="#ECECEC"/>
<path d="M43.2454 26.5554C42.8795 29.8028 40.4554 34.9253 37.8942 37.8525C37.4368 38.3556 36.3848 39.9564 35.4701 41.4658L33.8693 44.1185L29.0668 34.6052C26.4141 29.3454 24.2644 25.2748 24.2644 25.5492C24.2187 25.8236 26.2769 30.1686 28.7924 35.154C31.308 40.1851 33.5491 44.8503 33.7778 45.6279L34.1437 47L34.7383 45.1705C35.3786 43.2038 36.3848 41.7402 39.3577 38.5386C43.0167 34.6052 45.3036 30.3516 46.1269 26.0523L46.4928 23.9026H45.0292C43.5656 23.9026 43.5656 23.9484 43.2454 26.5554Z" fill="#ECECEC"/>
<path d="M8.41625 0.517429C8.41625 0.851147 7.80444 1.74105 7.02577 2.57533C4.96786 4.8001 2.90995 8.69344 1.40824 13.3098C-1.20586 21.3746 -0.0934783 32.6653 4.02234 39.8401C5.69091 42.6767 9.19491 47.3487 10.4742 48.4055C19.262 55.6916 25.7694 58.0832 35.7809 57.6939C42.3995 57.4714 45.1805 56.804 49.8525 54.4124C58.6403 49.9628 64.5916 42.9548 67.7062 33.4996C68.8186 30.1068 69.0411 28.2157 69.0411 23.0432C69.0411 19.5948 68.8186 16.647 68.5405 16.4801C68.2624 16.3133 68.0956 19.0942 68.0956 22.7095C68.0956 28.2157 67.8731 29.8843 66.7051 33.4439C65.5371 37.0036 62.0331 43.511 60.7538 44.5122C60.587 44.679 59.2521 46.0139 57.8616 47.5712C56.4712 49.0729 55.1363 50.4078 54.9138 50.4078C54.6914 50.4634 53.1896 51.4089 51.5211 52.4657C49.9081 53.5225 46.9047 54.8017 44.9024 55.3579C42.8445 55.9141 41.1203 56.5259 41.0091 56.6927C40.8978 56.8596 38.1169 56.9708 34.8909 56.9708C30.1077 56.8596 28.1054 56.5815 24.3789 55.3579C13.7001 51.7983 6.13586 44.2341 2.52062 33.3883C1.18576 29.3838 0.963285 27.8264 1.0189 23.0988C1.07452 16.9807 2.68748 10.9738 5.3572 6.69115C6.13586 5.46753 6.74767 4.35514 6.74767 4.18829C6.74767 4.02143 7.35948 3.18715 8.13815 2.35286C9.63987 0.795521 9.86234 0.0168571 8.97244 0.0168571C8.69434 0.0168571 8.41625 0.239334 8.41625 0.517429Z" fill="#ECECEC" fill-opacity="0.7"/>
</svg>
