<svg width="733" height="733" viewBox="0 0 733 733" fill="none" xmlns="http://www.w3.org/2000/svg">
<g clip-path="url(#clip0_129_2699)">
<path d="M0 366.239V732.478H366.239H732.478V366.239V-0.000183105H366.239H0V366.239ZM357.083 141.917C357.083 157.483 370.359 178.999 399.658 210.587C443.149 257.74 471.533 309.014 471.533 340.144C471.533 350.674 469.701 352.505 458.714 352.505C447.269 352.505 444.522 349.758 440.402 334.651C437.198 325.037 434.909 314.05 434.909 310.845C434.909 299.858 412.934 262.318 381.804 220.201C365.781 197.769 352.505 177.626 352.505 174.421C352.505 161.603 343.807 172.59 323.664 211.961C311.303 234.85 291.16 274.221 278.342 298.484C265.981 323.206 253.62 343.349 251.331 343.349C244.007 343.349 246.753 334.651 262.776 305.351C271.017 289.786 289.786 254.078 304.436 226.61C319.086 198.684 333.735 171.216 336.94 164.807C340.602 158.398 343.349 150.158 343.349 146.038C343.349 141.917 344.722 137.339 346.554 135.966C352.047 130.015 357.083 132.761 357.083 141.917ZM254.536 352.963C263.234 361.203 272.39 361.661 384.093 361.661C500.374 361.661 504.036 361.203 501.289 352.963C498.543 344.264 499.458 344.264 524.179 353.878C537.913 359.372 549.358 364.865 549.358 366.239C549.358 367.612 537.913 373.106 524.179 378.599C499.458 388.213 498.543 388.213 501.289 379.515C504.036 371.274 500.374 370.817 381.346 370.817C263.692 370.817 258.198 371.274 252.705 379.973C248.127 387.755 242.175 389.129 215.165 389.129H182.662L192.275 379.057C203.72 366.696 203.72 365.781 192.275 353.878C181.288 341.518 186.324 339.229 219.743 341.975C235.766 343.349 248.127 347.469 254.536 352.963ZM473.364 399.2C466.955 444.522 447.727 480.688 403.778 528.299C374.479 560.803 357.083 586.898 357.083 600.174C357.083 613.45 347.011 608.414 342.433 592.849C340.602 585.524 318.17 537.913 292.533 486.64C266.439 435.824 246.753 392.333 248.585 390.96C250.416 389.129 252.705 388.671 253.62 389.586C254.536 390.502 276.51 433.077 302.147 484.351L348.842 577.284L357.541 560.803C362.576 552.105 375.395 532.877 386.382 518.228C415.223 481.146 432.62 445.896 439.487 410.645C445.896 379.973 445.896 379.973 461.003 379.973H476.111L473.364 399.2Z" fill="#151515"/>
<path d="M347.927 141.918C347.927 145.58 345.18 153.82 341.975 160.229C338.313 166.639 320.917 200.516 302.605 235.766C283.835 271.017 265.065 306.725 260.029 314.965C254.994 322.748 251.789 331.904 252.705 334.651C254.078 339.229 258.656 331.446 314.508 224.321C348.385 160.229 348.385 160.229 351.589 168.928C354.336 177.168 392.333 232.104 402.405 243.549C415.681 257.283 434.909 300.316 440.402 327.326C444.98 351.131 446.354 352.505 458.714 352.505C471.99 352.505 472.448 352.047 469.243 332.82C467.412 322.29 459.172 300.316 450.474 283.835C433.077 249.958 385.924 195.48 378.599 200.058C376.31 201.431 375.395 200.974 376.768 198.227C378.142 195.938 375.853 189.071 371.732 182.662C367.612 176.71 360.287 163.434 356.167 153.362C352.047 143.291 348.385 138.255 347.927 141.918Z" fill="#ECECEC"/>
<path d="M196.853 354.794L207.382 366.239L196.853 377.684C189.07 385.924 188.155 389.129 192.733 389.129C196.395 389.129 201.889 386.84 205.093 383.635C208.756 379.973 210.587 379.973 210.587 383.178C210.587 391.876 241.259 389.129 249.958 379.515C257.282 371.275 265.981 370.817 382.719 370.817C490.302 370.817 507.698 371.733 505.409 377.684C503.12 383.178 505.409 383.178 521.432 376.768C531.962 372.648 540.202 368.07 540.202 365.781C540.202 363.95 533.335 359.83 525.552 356.625C517.312 353.421 508.614 349.758 506.325 348.843C504.036 347.469 503.578 350.216 504.951 354.336C507.698 361.203 496.711 361.661 382.719 361.661C265.981 361.661 257.282 361.203 249.958 352.963C241.259 343.349 210.587 340.602 210.587 349.3C210.587 352.505 208.756 352.505 205.093 348.843C201.889 345.638 196.395 343.349 192.733 343.349C188.155 343.349 189.07 346.554 196.853 354.794Z" fill="#ECECEC"/>
<path d="M442.233 406.525C438.571 439.029 414.307 490.302 388.671 519.601C384.093 524.637 373.563 540.66 364.407 555.768L348.384 582.32L300.316 487.098C273.763 434.451 252.247 393.707 252.247 396.454C251.789 399.2 272.39 442.691 297.569 492.591C322.748 542.949 345.18 589.645 347.469 597.427L351.131 611.161L357.083 592.849C363.492 573.164 373.563 558.514 403.32 526.468C439.944 487.098 462.834 444.522 471.074 401.489L474.737 379.973H460.087C445.438 379.973 445.438 380.431 442.233 406.525Z" fill="#ECECEC"/>
</g>
<defs>
<clipPath id="clip0_129_2699">
<rect width="732.478" height="732.478" fill="white"/>
</clipPath>
</defs>
</svg>
