<svg width="733" height="733" viewBox="0 0 733 733" fill="none" xmlns="http://www.w3.org/2000/svg">
<g clip-path="url(#clip0_129_2689)">
<path d="M0 366.239V732.478H366.239H732.478V366.239V6.10352e-05H366.239H0V366.239ZM435.366 132.762C506.783 154.736 561.719 209.672 586.898 284.293C600.632 325.037 600.174 393.707 586.44 432.162C574.079 466.955 557.141 495.338 536.998 516.855C511.361 543.407 508.614 558.514 525.553 577.742C529.215 582.32 536.998 585.982 542.491 585.982C556.683 585.982 567.212 598.801 558.056 604.752C547.985 611.161 181.746 610.246 174.879 603.379C167.554 596.054 176.252 585.982 189.986 585.982C196.396 585.982 205.094 580.489 210.587 573.622C222.948 557.599 219.743 543.865 197.311 519.601C155.652 474.279 136.424 423.922 136.424 359.372C135.966 287.04 157.941 233.935 208.298 185.409C232.562 162.519 280.631 134.593 308.556 128.184C338.313 120.859 405.61 123.148 435.366 132.762Z" fill="#151515"/>
<path d="M321.832 146.953C258.656 159.314 190.902 216.539 169.843 274.679C150.616 328.242 147.411 362.119 158.398 404.694C184.951 506.325 265.981 572.248 365.323 572.248C467.87 572.248 550.274 505.867 574.995 403.778C582.778 370.817 582.778 347.469 574.995 315.881C561.261 260.487 547.527 236.224 510.445 200.516C462.377 153.363 390.502 133.219 321.832 146.953ZM352.505 157.941C352.505 158.856 344.722 164.35 335.566 168.928C300.774 187.24 269.186 223.406 263.234 251.331C260.945 261.861 261.403 265.523 265.065 263.692C268.27 261.403 268.728 269.643 266.897 290.244C264.15 321.375 268.27 338.771 284.751 362.577C300.316 385.009 281.088 372.19 260.945 347.011C242.633 324.121 238.971 315.881 246.753 315.881C248.585 315.881 250.416 302.147 249.958 284.751C249.5 250.874 259.572 222.948 281.088 200.516C303.52 177.168 352.505 147.869 352.505 157.941ZM432.62 164.808C431.246 167.097 423.464 168.928 415.223 168.47C392.333 167.554 349.758 182.662 337.855 195.48L327.326 206.925L338.771 203.72C347.927 200.974 346.554 203.263 330.531 217.454C320.001 226.61 305.809 243.549 299.4 254.536C292.991 265.523 286.582 274.679 285.666 274.679C282.004 274.679 298.027 240.802 305.352 232.562C309.93 227.526 310.845 224.321 307.641 224.321C283.835 224.321 332.362 181.288 370.817 168.012C393.707 160.23 437.198 157.483 432.62 164.808ZM263.692 193.191C252.247 206.467 242.633 219.743 242.633 222.49C242.633 225.237 239.429 230.273 235.308 233.477C229.357 238.971 228.899 238.055 234.393 226.153C246.753 197.311 269.186 171.217 282.92 169.386C283.835 169.386 275.137 180.373 263.692 193.191ZM489.844 206.925C510.903 216.081 531.046 231.646 531.046 238.971C531.046 241.26 524.179 238.055 516.397 232.104C498.085 218.37 477.484 211.045 482.977 220.201C485.724 224.321 484.351 224.779 477.942 222.032C473.364 220.201 459.172 215.623 446.354 211.961C409.73 201.889 363.492 215.623 336.482 244.465C309.014 273.764 299.858 302.605 309.014 331.904C312.219 343.349 313.134 351.589 311.303 350.216C309.472 348.843 305.352 337.855 302.147 325.953C297.569 306.725 298.027 300.774 306.725 278.342C321.832 238.055 354.794 211.961 406.067 199.6C436.282 192.275 460.088 194.564 489.844 206.925ZM225.237 221.117C191.36 291.16 214.25 373.106 278.342 410.645C293.449 419.801 305.809 423.006 323.206 423.464C338.771 423.464 344.722 424.837 340.144 427.584C336.482 429.415 322.29 429.873 308.556 428.042C221.575 417.512 165.265 289.787 216.081 218.37C226.61 203.72 233.019 205.552 225.237 221.117ZM455.51 224.779C509.072 238.971 556.225 281.088 564.923 322.748C567.67 335.566 567.212 335.566 558.972 319.543C546.154 293.907 524.637 269.186 508.156 259.114L493.049 250.416L496.254 263.234C499 274.679 498.543 275.595 492.591 270.559C488.929 267.354 483.435 265.523 480.689 266.439C478.4 266.897 487.555 279.715 501.289 294.365C551.189 347.927 564.466 435.824 529.215 481.604C517.312 496.712 510.445 498.085 518.228 483.893C531.046 461.003 536.082 439.944 536.082 407.441C536.54 368.528 522.348 328.699 499.916 305.352C464.666 268.728 393.707 254.078 363.492 276.968C344.722 291.618 341.06 291.618 350.674 276.968C364.408 255.909 383.635 248.585 419.343 249.5C437.198 250.416 458.714 252.247 466.497 254.078C484.809 258.198 484.351 252.247 465.581 238.971C447.269 227.068 417.97 225.695 389.129 235.766C378.142 239.429 368.528 241.718 367.612 240.802C365.781 239.429 385.924 231.188 412.019 222.49C423.464 218.828 436.282 219.743 455.51 224.779ZM457.799 295.28C473.822 303.521 520.059 370.817 509.53 370.817C508.156 370.817 504.036 367.155 500.832 362.577C494.88 355.252 494.88 355.252 494.88 363.95C494.88 368.986 497.627 377.226 501.289 381.804C509.072 391.876 510.903 437.198 503.578 432.62C501.289 431.246 499 432.62 499 435.824C499 447.269 477.026 488.471 462.377 505.41C448.185 521.433 406.067 549.358 395.996 549.358C393.707 549.358 401.947 542.491 414.308 533.793C427.126 525.095 443.607 511.361 451.847 503.121C468.328 485.267 489.844 444.98 489.844 431.246C489.844 416.597 473.822 423.922 467.412 442.233C464.208 450.932 459.63 457.799 457.341 457.799C455.052 457.799 456.425 450.474 460.088 441.318C463.75 432.162 466.955 420.717 466.955 415.681C466.955 409.272 469.244 407.441 473.822 409.272C492.591 416.139 483.435 359.372 461.003 327.326L451.389 313.592L464.208 321.832C476.568 330.073 476.568 330.073 471.533 320.917C468.786 315.881 459.172 306.267 449.558 299.858C431.246 287.498 436.74 284.293 457.799 295.28ZM173.506 355.252C173.963 370.359 207.383 420.717 223.406 431.246C241.718 442.691 241.718 440.86 224.321 418.886C216.539 409.272 211.503 400.574 212.876 399.2C214.25 397.827 218.37 401.032 222.032 406.067C225.695 411.561 236.224 420.259 244.922 425.753C253.62 431.246 260.945 438.571 260.945 442.233C260.945 450.932 290.702 463.75 302.605 460.088C312.219 456.883 309.93 448.643 299.4 448.643C295.738 448.643 288.871 444.522 283.835 439.487C276.968 432.62 276.51 430.331 281.088 430.331C284.751 430.331 290.702 433.535 294.822 437.198C305.352 448.185 350.216 446.354 367.612 433.993C375.853 428.957 385.009 421.175 387.755 417.512C390.96 413.392 394.622 411.561 395.996 412.477C401.032 417.97 371.275 445.896 352.505 453.678C340.144 458.714 335.566 461.919 341.06 462.377C348.843 462.377 348.843 463.292 343.349 466.955C339.687 469.244 322.29 471.533 304.436 471.533C280.173 471.533 266.897 468.786 249.5 460.545C206.009 440.402 173.048 395.538 167.554 350.216C165.723 334.193 166.181 330.073 168.928 336.482C171.217 341.518 173.506 349.758 173.506 355.252ZM434.909 395.08C434.909 440.86 412.019 471.533 355.252 501.747C323.664 518.228 323.206 518.228 293.449 513.65C256.825 507.241 211.961 485.267 196.853 465.581L185.408 450.932L203.72 465.123C227.068 482.978 249.042 493.049 272.39 496.254C288.871 498.543 289.329 498.543 278.342 493.965C257.741 486.182 263.692 481.146 285.209 488.471C346.096 509.988 416.139 469.701 428.042 406.983C430.788 391.876 428.499 376.768 418.886 350.216C417.055 345.18 419.801 347.011 425.295 354.794C432.162 364.866 434.909 375.395 434.909 395.08ZM203.263 444.98C206.009 446.811 206.925 449.558 205.094 450.932C200.516 455.51 169.385 415.681 169.385 405.61C169.385 398.743 173.506 402.405 184.035 418.886C191.818 431.246 200.516 443.149 203.263 444.98ZM441.776 455.967C437.655 465.581 431.246 477.484 427.126 482.062C419.801 489.845 419.801 489.845 427.126 487.098C441.318 482.062 435.366 495.338 416.139 513.192C391.876 535.167 355.71 549.358 321.832 549.358C290.702 549.358 291.16 546.154 322.748 542.949C357.083 539.745 386.84 528.3 401.032 512.277L409.73 502.205L398.285 505.867C388.671 508.614 390.044 505.867 407.441 489.387C418.886 478.4 432.162 461.461 437.198 452.305C448.185 430.789 451.389 433.078 441.776 455.967ZM497.169 501.29C484.351 523.264 452.763 549.358 439.944 548.901C433.993 548.901 434.451 547.985 441.318 543.407C459.172 532.42 485.266 506.783 494.88 491.676C509.53 467.87 511.361 477.026 497.169 501.29Z" fill="#151515"/>
<path d="M233.934 570.417C231.187 576.826 228.898 582.778 228.898 583.693C228.898 585.067 244.921 585.524 264.607 585.524C283.834 585.067 295.737 583.693 291.159 582.778C286.581 581.404 276.052 576.826 268.269 572.706C243.09 558.514 239.428 558.514 233.934 570.417Z" fill="#151515"/>
<path d="M468.786 569.501C458.715 575.453 446.354 581.404 441.318 582.778C436.74 583.693 448.643 585.067 468.328 585.524C487.556 585.524 503.579 585.067 503.579 583.693C503.579 579.115 492.592 558.514 490.303 558.514C488.929 558.972 479.316 563.55 468.786 569.501Z" fill="#151515"/>
</g>
<defs>
<clipPath id="clip0_129_2689">
<rect width="732.478" height="732.478" fill="white"/>
</clipPath>
</defs>
</svg>
