<svg width="70" height="58" viewBox="0 0 70 58" fill="none" xmlns="http://www.w3.org/2000/svg">
<path d="M30.8203 4.35615C25.2561 5.4448 19.2887 10.4849 17.4339 15.6056C15.7405 20.3231 15.4582 23.3068 16.4259 27.0566C18.7645 36.0077 25.9012 41.8139 34.6508 41.8139C43.6826 41.8139 50.9402 35.9674 53.1175 26.9759C53.803 24.0729 53.803 22.0165 53.1175 19.2344C51.9079 14.3556 50.6983 12.2186 47.4324 9.07365C43.1987 4.92064 36.8684 3.14653 30.8203 4.35615ZM33.5218 5.32384C33.5218 5.40448 32.8363 5.88833 32.0299 6.29153C28.9656 7.90435 26.1835 11.0897 25.6593 13.5492C25.4577 14.4766 25.498 14.7992 25.8206 14.6379C26.1028 14.4363 26.1431 15.162 25.9819 16.9765C25.7399 19.7183 26.1028 21.2504 27.5544 23.3471C28.9253 25.3228 27.2318 24.1938 25.4577 21.9762C23.8449 19.9602 23.5223 19.2344 24.2078 19.2344C24.369 19.2344 24.5303 18.0248 24.49 16.4926C24.4497 13.5089 25.3367 11.0493 27.2318 9.07365C29.2075 7.0173 33.5218 4.43679 33.5218 5.32384ZM40.5779 5.92865C40.4569 6.13025 39.7715 6.29153 39.0457 6.25121C37.0297 6.17057 33.2799 7.50114 32.2315 8.63012L31.3042 9.63813L32.3122 9.35589C33.1186 9.11396 32.9976 9.31557 31.5864 10.5655C30.659 11.3719 29.4091 12.8638 28.8446 13.8315C28.2801 14.7992 27.7156 15.6056 27.635 15.6056C27.3124 15.6056 28.7237 12.6218 29.3688 11.8961C29.772 11.4526 29.8526 11.1703 29.5704 11.1703C27.4737 11.1703 31.7477 7.38018 35.1346 6.21089C37.1506 5.52544 40.9811 5.28352 40.5779 5.92865ZM25.6996 8.42852C24.6916 9.59781 23.8449 10.7671 23.8449 11.009C23.8449 11.2509 23.5626 11.6945 23.1997 11.9767C22.6756 12.4606 22.6353 12.3799 23.1191 11.3316C24.2078 8.7914 26.1835 6.49313 27.3931 6.33185C27.4737 6.33185 26.7076 7.29955 25.6996 8.42852ZM45.6179 9.63813C47.4727 10.4445 49.2468 11.8154 49.2468 12.4606C49.2468 12.6622 48.642 12.3799 47.9565 11.8558C46.3437 10.6461 44.5293 10.001 45.0131 10.8074C45.255 11.1703 45.1341 11.2106 44.5696 10.9687C44.1664 10.8074 42.9165 10.4042 41.7875 10.0817C38.5618 9.19461 34.4895 10.4042 32.1106 12.9444C29.6913 15.5249 28.8849 18.0651 29.6913 20.6456C29.9736 21.6536 30.0542 22.3794 29.8929 22.2584C29.7317 22.1375 29.3688 21.1698 29.0865 20.1215C28.6833 18.428 28.7237 17.9038 29.4897 15.9281C30.8203 12.3799 33.7234 10.0817 38.2393 8.993C40.9004 8.34788 42.9971 8.54948 45.6179 9.63813ZM22.3127 10.8881C19.329 17.0571 21.345 24.2745 26.9899 27.5807C28.3205 28.3872 29.4091 28.6694 30.9413 28.7097C32.3122 28.7097 32.8363 28.8307 32.4331 29.0726C32.1106 29.2339 30.8606 29.2742 29.651 29.1129C21.9901 28.1856 17.0307 16.9361 21.5063 10.6461C22.4337 9.35589 22.9981 9.51717 22.3127 10.8881ZM42.5939 11.2106C47.3114 12.4606 51.4644 16.17 52.2305 19.8392C52.4724 20.9682 52.4321 20.9682 51.7063 19.557C50.5774 17.299 48.6823 15.1217 47.2308 14.2347L45.9002 13.4686L46.1824 14.5975C46.4243 15.6056 46.384 15.6862 45.8599 15.2427C45.5373 14.9604 45.0534 14.7992 44.8115 14.8798C44.6099 14.9201 45.4163 16.0491 46.6259 17.3393C51.0209 22.0568 52.1902 29.7984 49.0855 33.8304C48.0372 35.161 47.4324 35.282 48.1178 34.032C49.2468 32.016 49.6903 30.1613 49.6903 27.2985C49.7306 23.8713 48.4807 20.3634 46.505 18.307C43.4003 15.0814 37.1506 13.7911 34.4895 15.8072C32.8363 17.0974 32.5138 17.0974 33.3605 15.8072C34.5701 13.9524 36.2636 13.3073 39.4086 13.3879C40.9811 13.4686 42.8761 13.6299 43.5616 13.7911C45.1744 14.154 45.1341 13.6299 43.4809 12.4606C41.8681 11.4122 39.2876 11.2913 36.7474 12.1783C35.7797 12.5009 34.933 12.7025 34.8524 12.6218C34.6911 12.5009 36.4652 11.7751 38.7635 11.009C39.7715 10.6865 40.9004 10.7671 42.5939 11.2106ZM42.7955 17.42C44.2067 18.1458 48.2791 24.0729 47.3517 24.0729C47.2308 24.0729 46.8679 23.7503 46.5856 23.3471C46.0615 22.702 46.0615 22.702 46.0615 23.4681C46.0615 23.9116 46.3034 24.6374 46.6259 25.0406C47.3114 25.9276 47.4727 29.9193 46.8275 29.5161C46.6259 29.3952 46.4243 29.5161 46.4243 29.7984C46.4243 30.8064 44.489 34.4352 43.1987 35.9271C41.9488 37.3383 38.2393 39.7978 37.3522 39.7978C37.1506 39.7978 37.8764 39.193 38.9651 38.427C40.094 37.6609 41.5456 36.4512 42.2713 35.7255C43.7229 34.153 45.6179 30.6048 45.6179 29.3952C45.6179 28.1049 44.2067 28.75 43.6422 30.3629C43.36 31.1289 42.9568 31.7338 42.7552 31.7338C42.5536 31.7338 42.6745 31.0886 42.9971 30.2822C43.3197 29.4758 43.6019 28.4678 43.6019 28.0243C43.6019 27.4598 43.8035 27.2985 44.2067 27.4598C45.8599 28.0646 45.0534 23.0649 43.0777 20.2424L42.231 19.0328L43.36 19.7586C44.4486 20.4843 44.4486 20.4843 44.0051 19.6779C43.7632 19.2344 42.9165 18.3877 42.0697 17.8232C40.4569 16.7345 40.9408 16.4523 42.7955 17.42ZM17.7565 22.702C17.7968 24.0325 20.7402 28.4678 22.1514 29.3952C23.7642 30.4032 23.7642 30.2419 22.2321 28.3065C21.5466 27.4598 21.1031 26.6937 21.224 26.5727C21.345 26.4518 21.7079 26.734 22.0305 27.1775C22.353 27.6614 23.2804 28.4275 24.0465 28.9113C24.8126 29.3952 25.4577 30.0403 25.4577 30.3629C25.4577 31.1289 28.0785 32.2579 29.1269 31.9354C29.9736 31.6531 29.772 30.9273 28.8446 30.9273C28.5221 30.9273 27.9172 30.5645 27.4737 30.1209C26.8689 29.5161 26.8286 29.3145 27.2318 29.3145C27.5544 29.3145 28.0785 29.5968 28.4414 29.9193C29.3688 30.887 33.3202 30.7257 34.8524 29.6371C35.5781 29.1936 36.3845 28.5081 36.6265 28.1856C36.9087 27.8227 37.2313 27.6614 37.3522 27.742C37.7958 28.2259 35.1749 30.6854 33.5218 31.3709C32.4331 31.8144 32.0299 32.0966 32.5138 32.137C33.1992 32.137 33.1992 32.2176 32.7154 32.5402C32.3928 32.7418 30.8606 32.9434 29.2881 32.9434C27.1512 32.9434 25.9819 32.7014 24.4497 31.9757C20.6192 30.2016 17.7162 26.2502 17.2323 22.2584C17.071 20.8472 17.1114 20.4843 17.3533 21.0488C17.5549 21.4924 17.7565 22.2181 17.7565 22.702ZM40.7795 26.2098C40.7795 30.2419 38.7635 32.9434 33.7637 35.6045C30.9816 37.0561 30.9413 37.0561 28.3205 36.6529C25.0948 36.0884 21.1434 34.153 19.8128 32.4192L18.8048 31.1289L20.4176 32.3789C22.474 33.9514 24.4094 34.8384 26.4657 35.1207C27.9172 35.3223 27.9576 35.3223 26.9899 34.9191C25.1755 34.2336 25.6996 33.7901 27.5947 34.4352C32.9573 36.3303 39.1263 32.7821 40.1747 27.2582C40.4166 25.9276 40.215 24.597 39.3683 22.2584C39.207 21.8149 39.4489 21.9762 39.9327 22.6616C40.5376 23.5487 40.7795 24.4761 40.7795 26.2098ZM20.3773 30.6048C20.6192 30.7661 20.6999 31.008 20.5386 31.1289C20.1354 31.5322 17.3936 28.0243 17.3936 27.1372C17.3936 26.5324 17.7565 26.855 18.6839 28.3065C19.3693 29.3952 20.1354 30.4435 20.3773 30.6048ZM41.3843 31.5725C41.0214 32.4192 40.4569 33.4675 40.094 33.8707C39.4489 34.5562 39.4489 34.5562 40.094 34.3143C41.344 33.8707 40.8198 35.04 39.1263 36.6125C36.9894 38.5479 33.804 39.7978 30.8203 39.7978C28.0785 39.7978 28.1188 39.5156 30.901 39.2334C33.925 38.9511 36.5458 37.9431 37.7958 36.5319L38.5618 35.6448L37.5538 35.9674C36.7071 36.2093 36.8281 35.9674 38.3602 34.5159C39.3683 33.5482 40.5376 32.0563 40.9811 31.2499C41.9488 29.3548 42.231 29.5564 41.3843 31.5725ZM46.2631 35.5642C45.1341 37.4996 42.352 39.7978 41.223 39.7575C40.6988 39.7575 40.7392 39.6769 41.344 39.2737C42.9165 38.306 45.2147 36.048 46.0615 34.7175C47.3517 32.6208 47.513 33.4272 46.2631 35.5642Z" fill="#FCE9CE"/>
<path d="M23.0783 41.6526C22.8364 42.2171 22.6348 42.7412 22.6348 42.8219C22.6348 42.9428 24.046 42.9832 25.7798 42.9832C27.4732 42.9428 28.5216 42.8219 28.1184 42.7412C27.7151 42.6203 26.7878 42.2171 26.1023 41.8542C23.8847 40.6043 23.5621 40.6043 23.0783 41.6526Z" fill="#FCE9CE"/>
<path d="M43.7632 41.572C42.8762 42.0961 41.7875 42.6203 41.344 42.7412C40.9408 42.8219 41.9891 42.9428 43.7229 42.9832C45.4164 42.9832 46.8276 42.9428 46.8276 42.8219C46.8276 42.4187 45.8599 40.6043 45.6583 40.6043C45.5373 40.6446 44.6906 41.0478 43.7632 41.572Z" fill="#FCE9CE"/>
<path d="M8.41625 0.500568C8.41625 0.834286 7.80444 1.72419 7.02577 2.55847C4.96786 4.78324 2.90995 8.67658 1.40824 13.293C-1.20586 21.3577 -0.0934783 32.6484 4.02234 39.8233C5.69091 42.6599 9.19491 47.3319 10.4742 48.3886C19.262 55.6747 25.7694 58.0664 35.7809 57.677C42.3995 57.4545 45.1805 56.7871 49.8525 54.3955C58.6403 49.946 64.5916 42.938 67.7062 33.4827C68.8186 30.0899 69.0411 28.1989 69.0411 23.0263C69.0411 19.5779 68.8186 16.6301 68.5405 16.4633C68.2624 16.2964 68.0956 19.0774 68.0956 22.6926C68.0956 28.1989 67.8731 29.8675 66.7051 33.4271C65.5371 36.9867 62.0331 43.4942 60.7538 44.4953C60.587 44.6622 59.2521 45.997 57.8616 47.5543C56.4712 49.0561 55.1363 50.3909 54.9138 50.3909C54.6914 50.4465 53.1896 51.3921 51.5211 52.4488C49.9081 53.5056 46.9047 54.7848 44.9024 55.341C42.8445 55.8972 41.1203 56.509 41.0091 56.6759C40.8978 56.8427 38.1169 56.954 34.8909 56.954C30.1077 56.8427 28.1054 56.5646 24.3789 55.341C13.7001 51.7814 6.13586 44.2172 2.52062 33.3715C1.18576 29.3669 0.963285 27.8096 1.0189 23.0819C1.07452 16.9638 2.68748 10.957 5.3572 6.67429C6.13586 5.45067 6.74767 4.33828 6.74767 4.17143C6.74767 4.00457 7.35948 3.17028 8.13815 2.336C9.63987 0.77866 9.86234 -3.8147e-06 8.97244 -3.8147e-06C8.69434 -3.8147e-06 8.41625 0.222473 8.41625 0.500568Z" fill="#FCE9CE" fill-opacity="0.7"/>
</svg>
