<svg width="50" height="66" viewBox="0 0 50 66" fill="none" xmlns="http://www.w3.org/2000/svg">
<path d="M1.33545 27.9308C2.54422 34.4351 3.00427 41.0571 2.70656 47.6667C2.70656 47.6667 -0.154496 50.5358 2.93508 55.1742L2.67914 60.1883H47.2587L47.0027 55.1742C50.1106 50.5083 47.2587 47.6667 47.2587 47.6667C46.9631 41.0663 47.4231 34.4536 48.6298 27.9583L47.3227 26.9867C47.7219 25.7838 48.0545 24.5597 48.319 23.32L47.4415 12.6867C44.8364 13.75 43.1545 9.80835 43.1545 9.80835H6.80163C6.80163 9.80835 5.11973 13.75 2.51461 12.6867L1.64624 23.265C1.91014 24.5058 2.24587 25.7301 2.65172 26.9317L1.33545 27.9308Z" fill="#242424"/>
<path d="M24.9826 65.3217C31.7741 65.3217 37.2769 61.4258 37.2769 56.6225C37.2769 51.8192 31.7924 47.9233 24.9826 47.9233C18.1727 47.9233 12.6791 51.8192 12.6791 56.6225C12.6791 61.4258 18.1635 65.3217 24.9826 65.3217ZM24.9826 63.03C19.5529 63.03 14.9277 60.0967 14.9277 56.6133C14.9277 53.13 19.4981 50.1967 24.9826 50.1967C30.467 50.1967 35.0374 53.13 35.0374 56.6133C35.0374 60.0967 30.467 63.03 25.0283 63.03" fill="#202020"/>
<path d="M1.88384 28.2333C2.15352 28.0399 2.41003 27.8286 2.65167 27.6008C3.06757 31.3041 3.24466 35.0305 3.18183 38.7567C2.85276 35.3375 2.46885 30.195 1.88384 28.2333ZM3.31894 58.0067C4.80514 58.2741 6.22259 58.8384 7.48713 59.6658H3.18183C3.18183 59.2717 3.2641 58.7033 3.31894 58.0067M3.44691 56.265C3.79426 56.6683 4.14161 57.035 4.47068 57.365C4.1141 57.2685 3.75034 57.2011 3.38293 57.1633C3.38293 56.8792 3.38293 56.5767 3.44691 56.2467M0.704682 58.08C0.813705 58.2645 0.961988 58.4226 1.13895 58.543C1.31592 58.6635 1.5172 58.7432 1.72845 58.7767C1.54212 58.642 1.38893 58.4664 1.28055 58.2633C1.18 58.08 1.28055 57.9975 1.36282 57.9517H1.59134C1.75879 57.9424 1.92663 57.9424 2.09408 57.9517C1.98439 59.345 1.90212 60.1883 1.89298 60.2342L1.829 60.885H9.47068C10.1288 61.3708 10.5676 61.8842 10.0008 62.1408C9.5934 62.2947 9.15142 62.3325 8.72388 62.25C8.29634 62.1675 7.89992 61.9679 7.57854 61.6733C8.73942 63.1858 11.0977 63.3417 11.4908 62.645C11.8838 61.9483 10.6955 60.8483 10.6955 60.8483L10.5859 60.775C10.1471 60.4358 9.67178 60.1058 9.21474 59.7758L9.05934 59.6658C8.37379 59.2075 7.66995 58.7492 6.96611 58.4008C5.67016 57.4309 4.51364 56.2865 3.52918 55V55C3.42558 54.8717 3.33418 54.7433 3.25496 54.615L3.16355 54.4775C2.481 53.5108 2.04764 52.3897 1.90212 51.2142C1.81721 50.2204 2.0579 49.2259 2.58768 48.3817C2.58768 49.7383 2.54198 51.04 2.49627 52.2408C2.77081 52.9848 3.13946 53.6902 3.59316 54.34C3.72114 52.0208 4.68092 32.1017 3.69371 26.5192C4.08245 26.0145 4.35461 25.4295 4.49055 24.8065C4.62649 24.1836 4.62283 23.5381 4.47982 22.9167C3.93583 21.6206 3.51352 20.2764 3.21839 18.9017C2.80502 17.6236 2.52623 16.3055 2.38658 14.9692L1.64618 23.265V23.3842C1.91546 24.1881 2.13225 25.0087 2.29518 25.8408C2.69317 25.5141 3.00672 25.0959 3.20925 24.6217C3.08128 24.0992 2.94417 23.595 2.77964 23.1183L2.93503 21.4042C3.25496 22.3667 3.57488 23.1183 3.60231 23.1825C3.7649 23.866 3.68742 24.5847 3.38293 25.2175C3.1794 25.7332 2.86766 26.1991 2.46885 26.5833C2.07648 26.9989 1.63791 27.368 1.16172 27.6833L0.878357 27.8575L0.978905 28.1783C1.73759 30.6625 2.5694 46.1725 2.5694 46.1725V46.8783C2.01933 47.4554 1.59666 48.1422 1.32892 48.894C1.06118 49.6458 0.954376 50.4457 1.01547 51.2417C1.17364 52.5092 1.62774 53.7215 2.34088 54.78C2.29518 55.6142 2.24947 56.375 2.20377 57.0442H2.03923C1.12516 56.9708 0.357333 57.475 0.741245 58.0983M3.38293 17.4167C2.91629 15.9604 2.60978 14.4573 2.46885 12.9342V12.6867L2.84362 12.5675C3.7577 12.2925 6.25313 11.1834 6.25313 9.76252V9.16669H43.6663V9.76252C43.6663 11.1834 46.18 12.2925 47.0667 12.5675L47.4414 12.6867V12.9342C47.3226 14.4543 47.0406 15.9572 46.6005 17.4167L46.3445 13.5667C45.3756 13.2092 42.999 12.1642 42.5603 10.3492H7.40487C6.96611 12.1825 4.59865 13.2092 3.62059 13.5667L3.38293 17.4167ZM47.3043 27.6008C47.546 27.8286 47.8025 28.0399 48.0721 28.2333C47.5328 30.195 47.1032 35.3375 46.7833 38.7567C46.7172 35.0307 46.8912 31.3043 47.3043 27.6008M42.478 59.6842C43.7393 58.8569 45.1537 58.2927 46.637 58.025C46.6919 58.7217 46.7467 59.29 46.7833 59.6842H42.478ZM46.5091 56.2833C46.5091 56.595 46.5091 56.8975 46.5731 57.2C46.2056 57.2377 45.8419 57.3052 45.4853 57.4017C45.8235 57.0717 46.1709 56.705 46.5091 56.3017M45.4853 22.9167C45.3507 23.5309 45.353 24.1674 45.4921 24.7806C45.6311 25.3938 45.9035 25.9687 46.2897 26.4642C45.3025 32.0467 46.2897 51.9658 46.3902 54.285C46.8439 53.6352 47.2126 52.9298 47.4871 52.1858C47.4871 50.985 47.414 49.6833 47.3957 48.3267C47.9255 49.1709 48.1662 50.1654 48.0813 51.1592C47.9348 52.3329 47.505 53.4531 46.829 54.4225L46.7376 54.56L46.4634 54.945C45.4767 56.238 44.3171 57.3885 43.0173 58.3642C42.2757 58.7594 41.5556 59.1939 40.8601 59.6658V59.6658L40.7138 59.7758C40.2385 60.1058 39.7998 60.4358 39.3336 60.775L39.2239 60.8483C39.2239 60.8483 38.0447 61.9117 38.4378 62.6083C38.8308 63.305 41.18 63.1492 42.35 61.6367C42.0262 61.9302 41.6282 62.129 41.1995 62.2115C40.7708 62.2939 40.3277 62.2568 39.9186 62.1042C39.361 61.8475 39.7997 61.3342 40.4487 60.8483H48.0813L48.0082 60.1975C48.0082 60.1517 47.9167 59.2808 47.8071 57.915C47.9776 57.9059 48.1484 57.9059 48.3189 57.915V57.915H48.5475C48.648 57.9608 48.7303 58.0433 48.6297 58.2267C48.5214 58.4298 48.3682 58.6053 48.1818 58.74C48.3931 58.7066 48.5944 58.6268 48.7713 58.5064C48.9483 58.3859 49.0966 58.2278 49.2056 58.0433C49.5895 57.42 48.8034 56.9158 47.9168 56.9892H47.7431C47.7431 56.32 47.6517 55.5592 47.606 54.725C48.3267 53.6705 48.7815 52.4563 48.9314 51.1867C48.9925 50.3907 48.8857 49.5908 48.6179 48.839C48.3502 48.0872 47.9275 47.4004 47.3774 46.8233V46.1175C47.3774 46.1175 48.2093 30.6075 48.9771 28.1233L49.0685 27.8025L48.7851 27.6283C48.3124 27.3292 47.8741 26.9788 47.478 26.5833C47.0807 26.2049 46.769 25.7454 46.5639 25.2358C46.2552 24.6048 46.1682 23.8877 46.3171 23.2008C46.3171 23.1367 46.6645 22.385 46.9844 21.4225L47.1398 23.1367C46.9844 23.6133 46.8473 24.1175 46.7193 24.64C46.9179 25.1164 47.2321 25.5355 47.6334 25.8592C47.7963 25.027 48.0131 24.2064 48.2824 23.4025V23.2833L47.542 15.0334C47.4023 16.3697 47.1235 17.6877 46.7102 18.9659C46.4215 20.3171 46.0115 21.6395 45.4853 22.9167M15.074 60.8483C14.9088 60.6672 14.7531 60.4775 14.6078 60.28V60.225C14.4736 60.0482 14.3485 59.8646 14.233 59.675C13.6576 58.7596 13.3416 57.7044 13.3189 56.6225C13.3189 52.1767 18.5475 48.565 24.9826 48.565C31.4177 48.565 36.637 52.1767 36.637 56.6225C36.6191 57.7051 36.3027 58.7616 35.723 59.675C35.6133 59.8583 35.4853 60.0417 35.3573 60.225L35.3116 60.28C35.1663 60.4775 35.0107 60.6672 34.8455 60.8483C32.7888 63.14 29.1233 64.6708 24.946 64.6708C20.7687 64.6708 17.1032 63.14 15.0374 60.8483M34.5347 62.865C35.271 62.2865 35.9233 61.6077 36.4725 60.8483H38.52L40.01 59.6658H38.6572C38.9444 58.8591 39.1227 58.0175 39.1873 57.1633C39.5034 57.6807 39.9891 58.0716 40.5612 58.2689C41.1333 58.4663 41.7561 58.4578 42.3226 58.245C41.957 58.3458 40.4944 58.5658 39.169 55.7792C39.0755 54.5586 38.535 53.4158 37.6517 52.5708C38.1501 53.5147 38.4576 54.5481 38.5565 55.6115C38.6553 56.675 38.5435 57.7475 38.2275 58.7675C38.1329 58.8881 38.0121 58.9855 37.8743 59.0522C37.7365 59.119 37.5853 59.1533 37.4323 59.1525C37.7592 58.3426 37.9298 57.4779 37.935 56.6042C37.935 51.4525 32.1215 47.2633 24.9917 47.2633C17.8619 47.2633 12.0392 51.4708 12.0392 56.6225C12.0384 57.495 12.2028 58.3598 12.5237 59.1708C12.3709 59.1702 12.2202 59.1354 12.0825 59.0687C11.9449 59.0021 11.8239 58.9055 11.7284 58.7858C11.0954 56.7252 11.3024 54.497 12.3043 52.5892C11.421 53.4341 10.8805 54.5769 10.7869 55.7975V55.7975C9.46154 58.5475 7.98987 58.3642 7.63338 58.2633C8.1986 58.4756 8.81989 58.4837 9.39043 58.2863C9.96096 58.0889 10.4451 57.6983 10.7595 57.1817C10.833 58.0345 11.0111 58.875 11.2897 59.6842H9.90944L11.3994 60.8667H13.4378C13.9777 61.6279 14.6242 62.307 15.3573 62.8833C15.3116 62.8833 11.5639 65.0833 8.68457 63.2133C8.68457 63.2133 9.52552 64.955 12.286 64.845H12.4506C15.6224 64.5333 17.0941 65.8808 17.0941 65.8808C16.9156 65.4531 16.6284 65.0799 16.2611 64.7984C15.8938 64.5169 15.4592 64.337 15.0008 64.2767C15.3208 64.1575 15.6498 64.0292 15.9972 63.8733C16.9232 64.0567 17.7477 64.5796 18.3098 65.34L23.0539 65.8808C24.344 66.0397 25.6486 66.0397 26.9387 65.8808V65.8808L31.6827 65.34C32.2422 64.5854 33.0588 64.0633 33.9771 63.8733C34.3244 64.0292 34.6535 64.1575 34.9734 64.2767C34.5143 64.3381 34.0791 64.5184 33.7105 64.7996C33.3418 65.0809 33.0526 65.4535 32.871 65.8808C32.871 65.8808 34.3518 64.5333 37.5237 64.845H37.6882C40.4305 64.955 41.2897 63.2133 41.2897 63.2133C38.4652 65.0467 34.8089 62.9933 34.6261 62.8833" fill="#FFEED5"/>
<rect x="2.46814" y="0.916687" width="45.2468" height="18.3333" rx="7.27778" fill="#242424"/>
<path d="M24.9802 19.9033C17.6552 19.9031 11.6826 15.5993 11.6823 10.3066C11.6877 9.40904 11.8632 8.52041 12.1989 7.68842C12.0418 7.68765 11.8864 7.72245 11.7448 7.79095C11.6032 7.8595 11.4787 7.95998 11.3815 8.08392C11.057 9.13175 10.9421 10.2336 11.0437 11.3261C11.1452 12.4187 11.4612 13.4804 11.9733 14.4501C11.0659 13.5821 10.511 12.4081 10.4148 11.1542C9.0532 8.29158 7.55046 8.51644 7.17452 8.62006C7.75653 8.40145 8.39639 8.39291 8.98409 8.59564C9.5717 8.79837 10.0705 9.20008 10.3952 9.73138C10.4616 8.85409 10.6451 7.98965 10.9401 7.16107H9.55049L11.0817 5.94525L13.1853 5.94525C13.6789 5.26281 14.2536 4.64373 14.8962 4.1015L15.0817 3.85443C14.8892 3.73878 11.136 1.63367 8.23604 3.51556C8.25025 3.48714 9.14155 1.72768 11.9362 1.83978H12.1052C15.3638 2.15989 16.8855 0.77533 16.8855 0.77533C16.699 1.21421 16.4017 1.59676 16.0231 1.88568C15.6445 2.17463 15.197 2.3606 14.7253 2.42377C15.0539 2.54617 15.392 2.67777 15.7487 2.83783C16.6922 2.64262 17.5314 2.1063 18.1062 1.33099L22.9802 0.77533C24.3056 0.612064 25.646 0.612078 26.9714 0.77533L31.8454 1.33099C32.4228 2.11213 33.2702 2.64939 34.2214 2.83783C34.5783 2.67772 34.9171 2.5462 35.2458 2.42377C34.775 2.3618 34.3282 2.17671 33.9509 1.88763C33.5735 1.59842 33.2778 1.21474 33.0944 0.77533C33.0944 0.77533 34.6071 2.16 37.8659 1.83978H38.0349C40.8562 1.72742 41.7261 3.49718 41.7351 3.51556C38.7851 1.59969 34.9477 3.84184 34.8796 3.85443C35.6327 4.44648 36.2965 5.14472 36.8513 5.9267L38.946 5.9267L40.4763 7.14154H39.0583C39.3446 7.97286 39.5277 8.83661 39.6032 9.71283C39.9263 9.18217 40.4234 8.7809 41.0095 8.57806C41.5957 8.37524 42.2344 8.38344 42.8151 8.6015C42.4489 8.49791 40.9366 8.30955 39.5749 11.1347C39.4788 12.3887 38.9238 13.5634 38.0163 14.4316C39.0457 12.4714 39.2576 10.1815 38.6071 8.06439C38.5091 7.94174 38.385 7.84272 38.2439 7.77435C38.1025 7.70594 37.9477 7.66952 37.7907 7.66888C38.1203 8.50206 38.2886 9.3907 38.2878 10.287C38.2878 15.58 32.3055 19.9033 24.9802 19.9033ZM24.9899 18.5654C31.6015 18.5654 36.9733 14.8548 36.9733 10.287C36.95 9.17564 36.6251 8.0917 36.0339 7.15131C35.9152 6.95652 35.787 6.7675 35.6491 6.58588V6.52924C35.5746 6.42793 35.4974 6.32859 35.4177 6.23138L35.2077 5.94525C33.0853 3.591 29.3195 2.01861 25.028 2.01849C20.7361 2.01849 16.9692 3.59074 14.8562 5.94525C14.6865 6.13127 14.5269 6.32639 14.3776 6.52924L14.3308 6.58588C14.1993 6.77424 14.0675 6.96295 13.9548 7.15131C13.3593 8.08963 13.0348 9.17497 13.0163 10.287C13.0163 14.8548 18.3784 18.5654 24.9899 18.5654ZM46.6355 20.4306C46.7689 16.5464 46.9193 13.4713 46.9655 12.6328C47.4316 13.3002 47.8104 14.0248 48.0925 14.789C48.0455 16.0227 47.9987 17.3601 47.9987 18.7538C48.543 17.8865 48.7911 16.8647 48.7038 15.8437C48.5543 14.6361 48.1082 13.4843 47.4069 12.4911L47.3132 12.3495C47.2319 12.2178 47.1383 12.0858 47.0319 11.954C46.0205 10.6323 44.8321 9.45641 43.5007 8.4599C42.7777 8.1021 42.0545 7.63186 41.3503 7.16107L41.1901 7.04779C40.7207 6.70886 40.2326 6.36976 39.7819 6.02142L39.6687 5.94525C39.6473 5.92543 38.4512 4.80895 38.8513 4.09955C39.2551 3.38378 41.6791 3.54366 42.8718 5.0976C42.5417 4.79507 42.1341 4.59064 41.695 4.5058C41.2558 4.42102 40.8011 4.45998 40.3825 4.6181C39.8005 4.88184 40.2513 5.40904 40.9274 5.90814L48.778 5.90814L48.7126 6.57709C48.7028 6.62881 48.6189 7.49445 48.5065 8.92181C48.6785 8.9313 48.8512 8.93131 49.0231 8.92181H49.2575C49.342 8.87474 49.4456 8.78973 49.3425 8.6015C49.2311 8.39285 49.073 8.21253 48.8815 8.07416C49.0985 8.1085 49.3053 8.19075 49.487 8.31439C49.6235 8.40725 49.7438 8.52169 49.8425 8.65326L49.8962 8.77142C50.2902 9.41171 49.5012 9.92976 48.5622 9.85443H48.3933C48.3463 10.5419 48.2996 11.3237 48.2526 12.1806C48.9852 13.268 49.4514 14.5133 49.614 15.8154C49.6767 16.633 49.5677 17.4552 49.2927 18.2275C49.0176 18.9998 48.5833 19.7059 48.0183 20.2988V20.4306L46.6355 20.4306ZM1.98116 20.3554C1.416 19.7625 0.981826 19.0565 0.706743 18.2841C0.431688 17.5117 0.321713 16.6898 0.384478 15.872C0.538462 14.5678 1.00551 13.3205 1.74581 12.2372C1.69886 11.3804 1.60522 10.5985 1.60518 9.91107H1.42647C0.515926 9.9862 -0.29135 9.46815 0.102251 8.82806C0.214254 8.63851 0.366744 8.47522 0.54854 8.3515C0.730358 8.22778 0.937946 8.1466 1.15499 8.11224C0.963548 8.25061 0.805395 8.43094 0.694048 8.63959C0.591081 8.82767 0.675776 8.91284 0.779009 8.9599L1.01338 8.9599C1.18857 8.9693 1.36457 8.9693 1.53975 8.9599C1.42705 7.55661 1.33272 6.66129 1.33272 6.6142L1.25752 5.94525L9.09932 5.94525C9.76611 5.4461 10.2171 4.91892 9.64424 4.65521C9.22392 4.49847 8.76826 4.46018 8.32784 4.54486C7.88752 4.6296 7.47882 4.83418 7.1462 5.13568C8.3483 3.5817 10.7619 3.42186 11.1657 4.13763C11.5663 4.84814 10.3757 5.92936 10.3581 5.94525L10.2458 6.02142C9.76684 6.36989 9.31522 6.70874 8.82686 7.04779L8.67745 7.16107C7.96282 7.64595 7.22256 8.09192 6.46065 8.49799C5.12521 9.50036 3.93336 10.6822 2.91963 12.0107L2.63838 12.4062L2.54463 12.5478C1.85015 13.5437 1.408 14.6944 1.25752 15.9003C1.17028 16.9214 1.4183 17.9431 1.9626 18.8105C1.94381 17.4167 1.86788 16.0793 1.86788 14.8456C2.14988 14.0815 2.52883 13.3568 2.99483 12.6894C3.03102 13.524 3.17696 16.5733 3.31026 20.4306H1.98116V20.3554ZM2.7419 8.84662C4.26573 8.57159 5.71854 7.99135 7.01436 7.14154L2.59151 7.14154C2.62907 7.54652 2.68555 8.13085 2.7419 8.84662ZM47.2478 8.86517C47.3041 8.14973 47.3883 7.56601 47.3884 7.16107L42.9655 7.16107C44.2646 8.01108 45.721 8.5904 47.2478 8.86517ZM2.87276 10.6171C3.2201 10.2029 3.57717 9.82618 3.92452 9.48724C3.55833 9.58631 3.18463 9.65553 2.80733 9.69427C2.84015 9.84949 2.85673 10.0047 2.86495 10.1611L2.87276 10.6171ZM47.1159 10.6738C47.1817 10.3347 47.1823 10.0233 47.1823 9.73138C46.8048 9.69262 46.4305 9.62349 46.0642 9.52435C46.3177 9.77864 46.5825 10.0539 46.8493 10.3505L47.1159 10.6738Z" fill="#FFEED5"/>
<path d="M25.3199 0.910156C26.3296 0.910156 27.153 1.73121 27.153 2.75C27.153 3.76878 26.3296 4.58984 25.3199 4.58984C24.3103 4.58982 23.4879 3.76877 23.4879 2.75C23.4879 1.73123 24.3103 0.91018 25.3199 0.910156Z" fill="#242424" stroke="#FFEED5" stroke-width="1.81944"/>
</svg>
