<svg xmlns="http://www.w3.org/2000/svg" width="288" height="518" viewBox="0 0 288 518" fill="none">
<path d="M286.422 12.0386C286.002 11.9182 285.3 11.6908 284.458 11.3831V29.4678C285.721 24.0103 287.046 16.7336 286.422 12.0787M282.51 6.72822C280.795 6.17979 276.431 4.52113 275.683 1.73888H273.048C274.046 5.02943 278.753 7.6244 282.51 9.21617V6.72822ZM5.83007 6.72822V9.12257C9.55551 7.5308 14.1071 4.97592 15.0891 1.73888H12.6574C11.9092 4.52113 7.54471 6.17979 5.83007 6.72822M1.71495 12.0787C1.06027 17.0279 2.55668 24.8396 3.88162 30.3773V11.3564C2.94637 11.6908 2.18257 11.9449 1.71495 12.0787M12.6263 516.228H16.5388C11.4728 513.847 7.79411 509.299 5.83007 506.316V511.171C7.54471 511.72 11.9092 513.378 12.6574 516.174M282.51 511.171V506.316C280.577 509.299 276.867 513.847 271.786 516.187H275.683C276.431 513.392 280.795 511.733 282.51 511.185M281.201 505.553C281.824 504.63 282.261 503.881 282.51 503.413V19.1948C281.686 24.2792 281.249 29.4042 281.201 34.5373V505.553ZM5.83007 14.5399C7.13245 21.1715 7.83598 27.8796 7.9344 34.6042V506.69C10.5064 510.262 15.1047 515.184 21.1527 516.187H267.187C273.235 515.224 277.834 510.248 280.421 506.677V34.4972C280.514 27.7729 281.212 21.0648 282.51 14.4329V10.5404C278.301 8.82829 272.456 5.75173 271.443 1.56498H16.6946C15.697 5.68485 10.0231 8.73466 5.78331 10.4602L5.83007 14.5399ZM5.83007 503.427C6.09506 503.881 6.53151 504.63 7.15502 505.567V34.5641C7.10093 29.4307 6.65835 24.3057 5.83007 19.2216V503.427ZM284.458 35.7144V512.402L283.773 512.509C282.042 512.977 277.538 514.689 277.538 516.95V517.859H10.8181V517.017C10.8181 514.756 6.31329 513.004 4.58306 512.576L3.89721 512.402V36.4233C2.88402 33.0124 -0.981709 18.9273 0.234124 11.45V11.0354L0.701752 10.915C0.701752 10.915 2.04229 10.527 3.81927 9.84485V5.45746L4.50513 5.27022C6.25094 4.81543 10.7402 3.11664 10.7402 0.82931V-8.05424e-06H277.46V0.82931C277.46 3.10326 281.98 4.84218 283.695 5.27022L284.38 5.45746V9.92511C286.064 10.5538 287.264 10.9016 287.295 10.915L287.763 11.0354V11.45C288.916 18.5126 285.55 31.3671 284.318 35.7144" fill="#666666"/>
</svg>