<svg width="70" height="58" viewBox="0 0 70 58" fill="none" xmlns="http://www.w3.org/2000/svg">
<path d="M24.8306 13.5367C24.0299 13.7654 23.1911 15.405 23.458 16.1294C23.6105 16.5107 24.1443 16.7395 24.8306 16.7395C25.4407 16.7395 26.0889 16.892 26.2033 17.1208C26.3177 17.3114 27.1946 17.502 28.1478 17.502C29.0629 17.502 29.8255 17.6546 29.8255 17.8833C29.8255 18.074 29.6348 18.2646 29.3679 18.2646C29.1392 18.2646 29.0248 18.3409 29.1392 18.4552C29.5586 18.8747 31.1981 17.8071 31.8463 16.7013C32.7995 14.9856 32.6851 14.5661 31.0837 14.2992C30.283 14.1849 29.2917 14.0323 28.8723 13.918C27.1946 13.5367 25.4026 13.3842 24.8306 13.5367Z" fill="#242424"/>
<path d="M33.257 28.9406C32.9519 29.1313 32.075 29.3219 31.3124 29.3219C29.5585 29.3219 28.5671 30.0463 28.7578 31.2283C28.834 31.8003 29.2535 32.2578 29.9398 32.4866C30.9311 32.7916 31.1599 32.7153 32.1131 31.6477C32.9138 30.8089 33.562 30.4658 34.4008 30.4658C35.2396 30.4658 35.8878 30.8089 36.6885 31.6477C37.6417 32.7153 37.8705 32.7916 38.8618 32.4866C40.0057 32.1053 40.5014 30.6945 39.7769 29.9701C39.5482 29.7413 38.5568 29.4363 37.5655 29.2838C36.536 29.1313 35.3159 28.9025 34.7821 28.75C34.2483 28.6356 33.562 28.7118 33.257 28.9406Z" fill="#242424"/>
<path d="M31.6937 0.306065C28.8341 0.877993 24.6399 3.73763 25.0593 4.84336C25.1737 5.11026 25.0593 5.22465 24.8306 5.11026C23.8392 4.46207 21.4371 9.34253 21.4371 11.9734C21.4371 13.1935 21.3609 13.3079 20.2933 13.3079C18.0818 13.3079 17.7768 16.1294 19.5307 20.743C19.7976 21.4293 19.8739 21.4293 20.2551 20.4379C20.4839 19.8279 20.6746 18.9128 20.6746 18.3409C20.6746 17.7689 20.8652 17.0445 21.0558 16.7395C21.3609 16.2819 21.4371 16.3963 21.4371 17.197C21.4371 18.6459 22.1616 20.1329 23.6105 21.6962C24.2968 22.4206 24.8687 23.3357 24.8687 23.6789C24.8687 25.3184 25.2118 25.4709 27.0039 24.4796C27.919 23.9458 28.9484 23.0307 29.2535 22.4587C30.0542 20.8955 30.7405 20.5523 30.5117 21.8106C30.3211 22.6875 30.5498 22.9163 32.3419 23.8314L34.4008 24.8608L36.3073 23.9458C38.4806 22.8782 38.9 21.5818 37.2605 20.9336C36.4216 20.6286 36.3073 20.3235 36.231 18.4552C36.0785 13.918 35.9641 14.2992 37.6418 14.0323C38.4806 13.8798 40.0438 13.6129 41.0733 13.3842C42.5603 13.0791 43.2085 13.0791 44.0473 13.4985L45.1149 14.0323L44.8862 12.4309C44.7718 11.554 44.6193 9.45691 44.543 7.77926L44.4286 4.7671L42.7891 3.31822C41.874 2.51752 40.9589 1.90746 40.7302 1.98372C40.5014 2.05998 40.1201 1.90746 39.9295 1.60243C39.4719 0.992378 35.8116 -0.0370922 34.2102 0.00103569C33.6001 0.0391655 32.4563 0.153551 31.6937 0.306065ZM28.8722 13.7273C29.5204 13.918 30.588 14.1086 31.3124 14.1467C31.9987 14.1849 32.6469 14.4518 32.7613 14.6805C32.9901 15.2906 31.1599 18.1121 30.2448 18.6459C29.0247 19.2941 28.4909 19.1034 29.2153 18.3027C29.8635 17.5783 29.8254 17.5783 27.6521 17.3495C26.432 17.2351 25.0975 17.1207 24.6781 17.1207C22.886 17.0445 22.4285 15.4431 23.8392 14.1849C25.25 12.8885 25.8982 12.8504 28.8722 13.7273Z" fill="#ECECEC" fill-opacity="0.7"/>
<path d="M47.0596 12.2403C46.9833 13.8036 47.3265 14.223 48.1272 13.6129C48.5847 13.3079 48.5847 13.2698 48.0509 13.4604C47.5552 13.6129 47.3646 13.346 47.2502 12.2403L47.0977 10.8295L47.0596 12.2403Z" fill="#ECECEC" fill-opacity="0.7"/>
<path d="M49.9191 15.6337C50.0335 16.5488 50.186 17.3876 50.2622 17.4639C50.6054 17.8452 50.3766 14.9855 50.0716 14.4899C49.8428 14.1086 49.7666 14.528 49.9191 15.6337Z" fill="#ECECEC" fill-opacity="0.7"/>
<path d="M21.0937 21.8868C21.0556 22.3062 20.4455 24.5558 19.7211 26.8435C18.9967 29.1694 18.3866 31.8384 18.3866 32.8297C18.3866 34.4311 19.5686 38.0915 20.1024 38.0915C20.2168 38.0915 20.5218 37.6339 20.7506 37.0239L21.17 35.9944L21.475 37.672C21.6657 38.5871 22.0088 39.5403 22.2376 39.8454C22.4663 40.1504 22.5426 40.3792 22.3901 40.3792C22.1995 40.3792 22.3901 40.7223 22.7714 41.1417C23.1527 41.5612 23.7246 41.9043 24.0296 41.9043C24.3728 41.9043 24.4872 42.0187 24.3728 42.1331C24.2203 42.2856 24.8684 42.8575 25.7454 43.3913C27.4993 44.5352 29.0626 45.2596 32.9136 46.7848C33.9812 47.2042 35.9257 46.9754 35.9257 46.4035C35.9257 46.2128 36.1164 46.1747 36.3451 46.2891C36.7264 46.556 39.3573 45.4884 39.3573 45.1071C39.3573 44.9927 39.2048 44.9927 39.0141 45.1071C38.8235 45.2596 38.7472 44.9927 38.8616 44.5733C39.0523 43.8489 39.0904 43.8107 39.5861 44.4589C40.0817 45.1071 40.1199 45.1071 39.853 44.3827C39.6242 43.7345 39.6623 43.6964 40.1961 44.1158C40.6918 44.5352 41.1112 44.4208 42.6363 43.582C45.6104 41.9424 46.983 40.2267 46.983 38.2058C46.983 37.6339 47.1355 36.9095 47.3262 36.6044C47.5931 36.185 47.7837 36.2994 48.2031 37.1382C48.6225 37.9389 48.8513 38.0533 49.0801 37.7102C49.2707 37.367 49.2326 37.1382 48.9657 37.0239C48.6988 36.9476 48.6225 36.6807 48.7369 36.4901C48.8894 36.2232 48.8132 36.185 48.5844 36.3375C48.3175 36.4901 48.1269 36.4138 48.1269 36.2232C48.1269 35.6512 48.6225 35.6894 49.2326 36.2613C49.652 36.6426 49.7283 36.6426 49.4995 36.2613C49.347 36.0325 49.4232 35.8037 49.652 35.8037C49.8808 35.8037 49.9951 35.6512 49.8426 35.4606C49.7283 35.2699 49.8045 35.003 50.0333 34.8505C50.6433 34.4692 50.4908 31.1139 49.8045 29.4744C49.4614 28.6356 48.775 26.4241 48.3175 24.5558C47.4787 21.1624 47.4405 21.1243 47.1736 22.6494C47.0211 23.4882 46.4492 24.8609 45.9154 25.6616C45.3053 26.5385 44.8097 27.9111 44.6572 29.0931C44.5046 30.542 44.3903 30.847 44.1615 30.2751C43.0176 27.1867 42.3694 26.2716 40.8062 25.509C38.8997 24.594 37.8703 24.5558 36.8408 25.3184C35.8495 26.0428 33.2567 26.0428 32.151 25.2803C30.4733 24.0602 26.813 25.3184 25.7073 27.4917C25.4785 27.9493 25.0591 28.8644 24.8303 29.5125L24.3728 30.6564L24.1059 28.6737C23.9152 27.4917 23.4196 26.2335 22.8095 25.3947C22.2757 24.7083 21.8182 23.7933 21.78 23.3738C21.78 22.9926 21.6275 22.3062 21.4369 21.8868C21.0937 21.1243 21.0937 21.1243 21.0937 21.8868ZM37.7559 29.0931C39.6242 29.4744 39.9673 29.7032 40.3105 30.6183C40.6155 31.5333 40.5393 31.7621 39.7386 32.4103C38.4422 33.3635 37.6415 33.3254 36.7264 32.1434C36.2307 31.4952 35.4682 31.0758 34.4768 30.9614C33.2186 30.8089 32.9136 30.8852 32.3798 31.7621C31.6172 32.8678 30.0539 33.0966 28.9101 32.2578C28.3381 31.8384 28.2619 31.5333 28.5669 30.6564C28.8719 29.7032 29.2151 29.5125 31.3503 29.0931C32.6848 28.7881 33.943 28.4068 34.1337 28.2162C34.4006 27.9493 34.7056 27.9493 35.0488 28.2543C35.3157 28.4831 36.5358 28.8644 37.7559 29.0931Z" fill="#ECECEC" fill-opacity="0.7"/>
<path d="M8.41625 0.517429C8.41625 0.851147 7.80444 1.74105 7.02577 2.57533C4.96786 4.8001 2.90995 8.69344 1.40824 13.3098C-1.20586 21.3746 -0.0934783 32.6653 4.02234 39.8401C5.69091 42.6767 9.19491 47.3487 10.4742 48.4055C19.262 55.6916 25.7694 58.0832 35.7809 57.6939C42.3995 57.4714 45.1805 56.804 49.8525 54.4124C58.6403 49.9628 64.5916 42.9548 67.7062 33.4996C68.8186 30.1068 69.0411 28.2157 69.0411 23.0432C69.0411 19.5948 68.8186 16.647 68.5405 16.4801C68.2624 16.3133 68.0956 19.0942 68.0956 22.7095C68.0956 28.2157 67.8731 29.8843 66.7051 33.4439C65.5371 37.0036 62.0331 43.511 60.7538 44.5122C60.587 44.679 59.2521 46.0139 57.8616 47.5712C56.4712 49.0729 55.1363 50.4078 54.9138 50.4078C54.6914 50.4634 53.1896 51.4089 51.5211 52.4657C49.9081 53.5225 46.9047 54.8017 44.9024 55.3579C42.8445 55.9141 41.1203 56.5259 41.0091 56.6927C40.8978 56.8596 38.1169 56.9708 34.8909 56.9708C30.1077 56.8596 28.1054 56.5815 24.3789 55.3579C13.7001 51.7983 6.13586 44.2341 2.52062 33.3883C1.18576 29.3838 0.963285 27.8264 1.0189 23.0988C1.07452 16.9807 2.68748 10.9738 5.3572 6.69115C6.13586 5.46753 6.74767 4.35514 6.74767 4.18829C6.74767 4.02143 7.35948 3.18715 8.13815 2.35286C9.63987 0.795521 9.86234 0.0168571 8.97244 0.0168571C8.69434 0.0168571 8.41625 0.239334 8.41625 0.517429Z" fill="#ECECEC" fill-opacity="0.7"/>
</svg>
