<svg width="70" height="58" viewBox="0 0 70 58" fill="none" xmlns="http://www.w3.org/2000/svg">
<path d="M46.0123 5.08928C46.0123 5.28957 46.3628 6.29102 46.7633 7.29247C47.1639 8.24385 47.5144 9.49567 47.5144 10.0465C47.5144 11.1981 45.0609 15.955 44.46 15.955C43.6589 15.955 42.7575 18.2584 42.5072 21.1125L42.2568 24.0167L39.5028 25.1183L36.7488 26.2199L36.5986 30.6763L36.4484 35.1328L34.4455 34.8324L32.4927 34.582L33.6944 35.5334C34.8461 36.4347 34.9963 36.8853 35.0964 41.3919L35.2467 46.2489L39.9535 41.6923C42.5072 39.1887 44.5101 36.8853 44.3098 36.5849C43.9593 35.984 44.9607 30.8266 45.5115 30.4761C45.7619 30.3258 46.0623 27.5718 46.2126 24.3672C46.4128 19.2598 46.6131 18.2584 47.7147 16.606C50.0681 13.0007 49.9179 9.44559 47.2641 6.19088C46.5631 5.33965 46.0123 4.88899 46.0123 5.08928Z" fill="#151515"/>
<path d="M26.3336 24.7678C26.1333 24.9681 26.5339 25.619 27.1348 26.27C27.9359 27.1212 28.7871 27.4717 30.2893 27.4717C31.3909 27.4717 32.5426 27.7221 32.8931 28.0726C33.3437 28.5232 33.494 28.4231 33.494 27.5718C33.494 26.7206 32.9432 26.1698 31.3909 25.4688C29.2378 24.4673 26.9345 24.1669 26.3336 24.7678Z" fill="#151515"/>
<path d="M23.5296 26.8708C23.4795 27.2213 23.2792 27.4216 22.9788 27.2213C21.9273 26.5704 23.8801 30.476 25.6326 32.4789C27.9861 35.283 28.0862 34.3817 25.6827 31.3273C24.6813 30.0755 23.9803 28.8236 24.1305 28.6234C24.2306 28.4231 24.1805 27.7721 23.9302 27.2213C23.7299 26.6705 23.5296 26.5203 23.5296 26.8708Z" fill="#151515"/>
<path d="M44.5599 1.13356C43.8088 2.53559 43.7087 3.83748 44.2595 7.34256L44.6601 9.9964L42.3567 12.1495C41.1049 13.3513 39.7529 15.0037 39.3023 15.8048L38.5512 17.2068L38.5011 15.7047C38.5011 14.8534 38.8516 13.6517 39.3023 13.0508C39.7529 12.3999 39.9532 11.7489 39.7529 11.5486C39.3023 11.098 30.6898 11.098 30.1891 11.5486C30.0389 11.7489 30.2392 12.5 30.6898 13.151C31.1405 13.852 31.491 15.0537 31.491 15.8048L31.4409 17.2068L30.6898 15.8048C30.2392 15.0037 28.8872 13.4013 27.6855 12.2497C25.282 9.94633 25.0316 8.84473 26.0331 5.4398C26.4837 3.98769 26.4336 3.28668 25.9329 2.13501C25.1318 0.482616 24.3306 0.282326 24.0302 1.68436C23.93 2.23516 23.0287 3.98769 21.9772 5.59002C18.8226 10.397 19.4235 14.3026 23.8299 18.7591C25.4322 20.3614 25.8328 20.9623 25.1818 20.9623C24.6811 20.9623 23.8799 20.6118 23.3792 20.111C22.528 19.36 22.4779 19.41 22.4779 21.3629C22.4779 23.6161 22.2276 23.8164 20.7754 22.7148C18.5723 21.0624 18.4721 22.114 20.2247 27.1713C21.877 31.778 22.4779 32.9797 23.2791 32.9797C23.9801 32.9797 24.2305 33.6807 24.7312 36.5348C25.0817 38.3875 27.2348 41.1916 27.9859 40.7409C28.1862 40.5907 28.5367 41.0414 28.6869 41.7424C28.8872 42.4434 29.3379 42.9942 29.7384 42.9942C30.139 42.9942 30.4895 43.2946 30.4895 43.5951C30.4895 44.3462 34.0947 47 35.0962 47C36.0476 46.9499 37.75 45.598 37.3495 45.1473C37.1492 44.947 36.6985 45.0972 36.3981 45.3977C35.1963 46.5994 34.9961 45.9485 34.9961 41.3418C34.9961 36.7852 34.9961 36.7351 33.4939 35.7337C31.7413 34.5319 31.541 33.7308 33.1434 34.1814C35.7471 34.9826 35.7471 34.9826 35.8974 30.7264C35.9975 28.5733 36.2979 26.4703 36.5483 26.1698C36.8487 25.8193 38.2007 25.1684 39.5527 24.7177C41.8059 23.9666 42.0062 23.7663 42.0062 22.2141C42.0062 19.6103 42.557 17.6074 43.5585 16.5058C47.1136 12.7003 47.8146 9.74604 45.9619 5.9906C45.4111 4.78886 45.1107 3.68726 45.311 3.53704C45.5113 3.33675 45.7616 3.48697 45.8618 3.83748C46.012 4.18798 46.6129 4.98915 47.2138 5.59002C47.7645 6.19089 48.7159 7.64299 49.2167 8.84473C50.118 10.7976 50.118 11.2983 49.5672 13.3513C49.2167 14.6531 48.4155 16.4057 47.7145 17.307C46.6129 18.7591 46.5127 19.36 46.5127 24.217C46.5127 27.8723 46.3124 29.8752 45.8117 30.6263C45.4111 31.2272 44.9605 33.0798 44.7602 34.6822C44.4097 37.5363 44.2094 37.8868 41.1049 41.1916C37.75 44.6466 37.7 45.1473 40.9547 42.2431C44.3095 39.2388 44.9104 38.3875 45.4612 35.3832C45.8117 33.7809 46.2624 32.5791 46.5127 32.7293C47.1136 33.1299 48.2152 31.2772 49.5171 27.7221C51.2196 23.1154 51.2696 22.6647 50.0679 22.6647C49.5171 22.6647 49.2167 22.865 49.3168 23.0653C49.467 23.2656 49.1165 23.4659 48.5657 23.4659C47.6644 23.4659 47.5142 23.1655 47.5142 21.1626C47.5142 19.6103 47.8647 18.3585 48.5657 17.3571C49.1666 16.5559 49.9177 14.9035 50.3182 13.6517C51.1194 10.9478 50.4184 8.59437 47.7645 4.93907C46.8132 3.63719 46.012 1.98479 46.012 1.23371C46.012 -0.368614 45.3611 -0.41869 44.5599 1.13356ZM31.6412 25.1684C33.2936 25.9195 33.4939 26.1698 33.4939 27.8723C33.4438 29.3745 33.3437 29.5748 32.9431 28.8237C32.5926 28.2729 31.8415 27.9724 30.5396 27.9724C29.1876 27.9724 28.2363 27.5719 27.0345 26.5203C25.5323 25.1684 25.4823 25.0182 26.3335 24.5174C27.385 23.8665 28.9373 24.0668 31.6412 25.1684ZM22.8284 26.32C23.1289 27.0711 23.1789 27.0211 23.5294 26.1698C23.7798 25.4187 23.9801 25.7192 24.2805 27.4216C24.4808 28.7235 25.2319 30.2758 26.0831 31.2772C27.0846 32.4289 27.6354 33.6807 27.7856 35.0827L28.036 37.2359L27.2348 35.4833C26.7842 34.5319 25.7827 33.0298 24.9815 32.2286C23.4794 30.6764 21.2261 25.4688 22.0273 25.4688C22.2776 25.4688 22.6782 25.8694 22.8284 26.32Z" fill="#ECECEC"/>
<path d="M8.41625 0.517399C8.41625 0.851116 7.80444 1.74102 7.02577 2.5753C4.96786 4.80007 2.90995 8.69341 1.40824 13.3098C-1.20586 21.3746 -0.0934783 32.6653 4.02234 39.8401C5.69091 42.6767 9.19491 47.3487 10.4742 48.4055C19.262 55.6916 25.7694 58.0832 35.7809 57.6939C42.3995 57.4714 45.1805 56.804 49.8525 54.4123C58.6403 49.9628 64.5916 42.9548 67.7062 33.4995C68.8186 30.1068 69.0411 28.2157 69.0411 23.0431C69.0411 19.5948 68.8186 16.6469 68.5405 16.4801C68.2624 16.3132 68.0956 19.0942 68.0956 22.7094C68.0956 28.2157 67.8731 29.8843 66.7051 33.4439C65.5371 37.0035 62.0331 43.511 60.7538 44.5121C60.587 44.679 59.2521 46.0138 57.8616 47.5712C56.4712 49.0729 55.1363 50.4078 54.9138 50.4078C54.6914 50.4634 53.1896 51.4089 51.5211 52.4657C49.9081 53.5224 46.9047 54.8017 44.9024 55.3579C42.8445 55.914 41.1203 56.5259 41.0091 56.6927C40.8978 56.8596 38.1169 56.9708 34.8909 56.9708C30.1077 56.8596 28.1054 56.5815 24.3789 55.3579C13.7001 51.7982 6.13586 44.234 2.52062 33.3883C1.18576 29.3837 0.963285 27.8264 1.0189 23.0988C1.07452 16.9807 2.68748 10.9738 5.3572 6.69112C6.13586 5.4675 6.74767 4.35511 6.74767 4.18826C6.74767 4.0214 7.35948 3.18711 8.13815 2.35283C9.63987 0.79549 9.86234 0.0168266 8.97244 0.0168266C8.69434 0.0168266 8.41625 0.239304 8.41625 0.517399Z" fill="#ECECEC"/>
</svg>
