<svg width="48" height="48" viewBox="0 0 48 48" fill="none" xmlns="http://www.w3.org/2000/svg">
<rect width="48" height="48" fill="white" fill-opacity="0.1"/>
<rect x="0.5" y="0.5" width="47" height="47" stroke="white" stroke-opacity="0.2"/>
<g opacity="0.4">
<path d="M21.3551 20.0566C20.9511 20.4885 20.6307 20.8925 20.6586 20.9621C20.6725 21.0318 20.6307 21.0875 20.5472 21.0875C20.4078 21.0875 18.2904 23.2328 17.7611 23.9154L17.4546 24.2915L17.9143 24.8209C18.165 25.0995 19.2098 26.2278 20.2407 27.3144L22.1074 29.2925L23.6954 29.2786C25.0606 29.2647 25.2835 29.2368 25.2835 29.0418C25.2696 28.9164 24.6566 28.1642 23.8905 27.3562C23.1243 26.5482 22.4974 25.8517 22.4974 25.7821C22.4974 25.6846 25.4646 25.6428 29.0726 25.6846L30.8418 25.6985V24.2915L30.8557 22.8845L29.6995 22.8985C26.3283 22.9542 22.4835 22.8845 22.5253 22.7731C22.5531 22.7034 23.18 21.979 23.9323 21.1711C24.6706 20.3492 25.2835 19.5969 25.2835 19.4855C25.2835 19.3183 25.0049 19.2765 23.6954 19.2765H22.1074L21.3551 20.0566Z" fill="#ECECEC"/>
</g>
</svg>
