<svg width="13" height="15" viewBox="0 0 13 15" fill="none" xmlns="http://www.w3.org/2000/svg">
<path d="M5.13451 0.143023C3.77673 0.551459 3.23583 1.36833 3.10336 3.17871C3.05921 3.75273 2.98194 4.27155 2.93778 4.33778C2.63973 4.74622 2.79428 5.75076 3.26895 6.4462C3.44557 6.72218 3.69946 7.18581 3.83193 7.48386C3.96439 7.78191 4.12998 8.09099 4.21829 8.15723C4.3066 8.22346 4.37283 8.32281 4.37283 8.36696C4.37283 8.42216 3.94232 8.66501 3.41245 8.91891C1.10533 10.0228 0.884555 10.1773 0.409885 11.1046C0.155991 11.6013 -0.0758249 12.7825 0.0235248 13.0474C0.0676802 13.1578 0.222224 13.2903 0.387807 13.3455C0.895594 13.5442 2.87155 13.9085 3.18064 13.8643C3.34622 13.8312 3.50076 13.8643 3.52284 13.9305C3.567 14.063 7.45267 14.0961 8.66694 13.9637C9.59421 13.8754 11.4598 13.5221 11.8903 13.3455C12.2877 13.202 12.3429 12.9812 12.1994 12.1643C12.0779 11.4578 11.515 10.365 11.1286 10.0669C10.952 9.92344 10.5325 9.7137 8.61175 8.79748L7.93838 8.47735L8.33578 7.67152C8.55656 7.241 8.88772 6.66698 9.0533 6.40205C9.46174 5.80595 9.61629 4.93388 9.40655 4.45921C9.31824 4.27155 9.21889 3.68649 9.18577 3.15663C9.07538 1.39041 8.44617 0.496265 7.02216 0.0988665C6.48125 -0.0446386 5.71957 -0.0335989 5.13451 0.143023Z" fill="#ECECEC"/>
</svg>
