<svg width="32" height="34" viewBox="0 0 32 34" fill="none" xmlns="http://www.w3.org/2000/svg">
<path d="M14.4115 5.39153C12.0133 6.0125 9.83083 6.58452 9.55565 6.68333C8.98467 6.87491 8.76627 6.85593 12.025 7.04603C13.0611 7.10222 14.6844 7.21791 15.6466 7.29729C16.6087 7.37667 17.5356 7.42337 17.6921 7.42427C17.8692 7.4312 18.1024 6.93944 18.4157 5.86645C18.6627 5.02044 18.8469 4.31284 18.8263 4.30682C18.785 4.29477 16.8038 4.79119 14.4115 5.39153Z" fill="#2A2A2A"/>
<path d="M19.2414 6.10747C18.9281 7.18046 18.86 7.72042 19.0337 7.81591C19.4248 8.08688 22.3212 9.67154 22.6393 9.8092C22.7983 9.87804 23.7079 10.3675 24.6733 10.8958C25.6121 11.4386 26.4366 11.8361 26.4633 11.8215C26.5372 11.7983 21.0351 5.86981 19.8403 4.66999C19.7491 4.5986 19.4944 5.24082 19.2414 6.10747Z" fill="#2A2A2A"/>
<path d="M16.6304 8.14442C16.3174 8.14261 15.2813 8.08642 14.3132 8.02767C13.351 7.94829 11.8102 7.8567 10.904 7.81603C9.99771 7.77535 8.79654 7.67097 8.25658 7.60288C6.51289 7.36249 6.60929 7.03234 6.80113 12.6643C6.82673 13.3436 6.83501 14.4657 6.83997 15.139C6.86557 15.8183 6.88936 16.8105 6.93047 17.36L7.00156 18.3436L7.52104 17.8683C7.80315 17.5924 8.51271 16.9262 9.08295 16.3537C10.5322 14.9182 11.0964 14.3663 12.5336 12.9721C13.2225 12.2999 13.8108 11.6655 13.8349 11.583C13.8651 11.4798 13.9571 11.3947 14.0723 11.3836C14.1669 11.3664 14.7191 10.8558 15.328 10.2274C15.937 9.59907 16.6792 8.89765 16.9819 8.62775C17.5694 8.14985 17.5341 8.11716 16.6304 8.14442Z" fill="#2A2A2A"/>
<path d="M18.925 8.72468C18.9069 8.78658 19.0967 9.67055 19.3475 10.7291C19.5982 11.7876 19.788 12.6716 19.7699 12.7335C19.7579 12.7748 19.9219 13.5169 20.1504 14.3449C20.3728 15.1937 20.725 16.5953 20.9001 17.4526C21.3947 19.7468 21.7666 21.311 21.9658 22.0858L22.1479 22.7659L22.7371 21.9751C23.0468 21.528 24.2468 19.7958 25.3728 18.0868C26.4988 16.3777 27.6008 14.7512 27.8149 14.4779C28.3147 13.84 28.1712 13.6413 26.8695 13.0373C26.3778 12.8042 25.3092 12.2458 24.5234 11.7925C23.7376 11.3391 22.3896 10.5872 21.5359 10.1364C20.6883 9.66499 19.7641 9.14882 19.4847 8.95528C19.1786 8.77634 18.9431 8.66277 18.925 8.72468Z" fill="#2A2A2A"/>
<path d="M17.5787 9.11549C17.4601 9.21519 17.4179 9.35964 17.4617 9.43961C17.4995 9.54023 17.5795 9.4964 17.6156 9.37259C17.7542 8.898 18.0594 9.23342 18.1262 9.92475C18.1682 10.3177 18.2782 10.7081 18.3633 10.8001C18.4484 10.8922 18.4356 10.5525 18.3472 10.0117C18.1402 9.0331 17.9469 8.7751 17.5787 9.11549Z" fill="#2A2A2A"/>
<path d="M15.5269 11.1587C15.1613 11.567 14.8878 11.8903 14.9497 11.9083C15.0942 11.9505 16.3533 10.7058 16.2803 10.5725C16.2571 10.4986 15.9131 10.7564 15.5269 11.1587Z" fill="#2A2A2A"/>
<path d="M18.6157 12.0833C18.7102 12.6035 18.8493 13.0472 18.8906 13.0593C18.9525 13.0774 18.9165 12.6638 18.8221 12.1435C18.7277 11.6233 18.5885 11.1796 18.5472 11.1675C18.4853 11.1495 18.5213 11.563 18.6157 12.0833Z" fill="#2A2A2A"/>
<path d="M13.9467 12.7352C13.5872 13.1229 13.3343 13.4522 13.3962 13.4702C13.4374 13.4823 13.7935 13.1832 14.153 12.7955C14.5125 12.4078 14.7654 12.0786 14.7035 12.0605C14.6623 12.0484 14.3062 12.3476 13.9467 12.7352Z" fill="#2A2A2A"/>
<path d="M19.0988 14.262C19.2078 14.8089 19.3591 15.2114 19.4184 15.1615C19.5517 15.0885 19.1601 13.3618 19.0157 13.3196C18.9538 13.3016 19.0104 13.7212 19.0988 14.262Z" fill="#2A2A2A"/>
<path d="M4.36985 14.9329L2.85506 20.0442L4.27478 19.6301C5.03494 19.4042 5.77447 19.1723 5.90777 19.0992C6.14167 18.9884 6.18069 17.8577 6.02754 15.2377C6.01052 14.6057 5.94818 13.1319 5.93132 11.9626L5.86401 9.81552L4.36985 14.9329Z" fill="#2A2A2A"/>
<path d="M26.6177 17.7338C26.0964 18.5221 24.9618 20.1839 24.1369 21.3986C23.2913 22.6073 22.6263 23.7344 22.6521 23.8762C22.6572 24.0121 23.123 24.6408 23.6981 25.2789L24.7339 26.4099L26.21 21.3545C27.0233 18.5688 27.6654 16.293 27.6448 16.287C27.6035 16.275 27.145 16.9249 26.6177 17.7338Z" fill="#2A2A2A"/>
<path d="M12.5037 14.1502C12.2095 14.4674 11.7494 14.8929 11.512 15.0923C11.2686 15.3124 11.1258 15.4946 11.1877 15.5127C11.3116 15.5488 12.6825 14.3816 12.9861 13.9552C13.3878 13.423 13.08 13.5571 12.5037 14.1502Z" fill="#2A2A2A"/>
<path d="M19.7107 16.7696C19.6806 16.8728 19.7906 17.2632 19.9332 17.6183C20.099 18.0474 20.1755 18.0922 20.1094 17.7818C19.9574 16.9984 19.777 16.5426 19.7107 16.7696Z" fill="#2A2A2A"/>
<path d="M20.1332 18.3932C20.079 18.5789 20.5093 20.2497 20.6125 20.2798C20.6744 20.2979 20.6435 20.0201 20.5748 19.6418C20.3644 18.7518 20.1814 18.2281 20.1332 18.3932Z" fill="#2A2A2A"/>
<path d="M7.57076 19.0025C7.35056 19.2965 7.83976 19.4617 14.3396 21.3596C20.8395 23.2574 21.3407 23.3813 21.3133 23.015C21.297 22.764 21.2205 22.7192 21.1164 22.8456C20.9108 23.1662 7.82862 19.3465 7.82787 18.9656C7.80814 18.8031 7.71958 18.7996 7.57076 19.0025Z" fill="#2A2A2A"/>
<path d="M4.85916 20.3157C4.01044 20.5382 3.31218 20.7822 3.28808 20.8647C3.26398 20.9472 3.55708 21.3239 3.96539 21.6895C4.34705 22.0696 5.06308 22.8385 5.56764 23.4113C6.07823 23.9635 6.53896 24.4563 6.60086 24.4744C6.66277 24.4925 7.14413 24.9913 7.64869 25.5641C8.15325 26.1369 8.61399 26.6297 8.65526 26.6418C8.71716 26.6599 9.06358 27.0073 9.43318 27.4288C9.80279 27.8502 10.12 28.1444 10.1381 28.0825C10.1561 28.0206 9.82961 27.2982 9.44464 26.4692C8.11095 23.7509 6.85377 21.0773 6.59427 20.5088L6.36142 19.9258L4.85916 20.3157Z" fill="#2A2A2A"/>
<path d="M8.2474 21.977C9.12217 23.8896 10.5632 26.9304 11.3891 28.6271L11.8995 29.7166L13.0639 29.0265C15.0582 27.7949 17.5032 26.2471 19.1424 25.1581L20.7222 24.119L14.0779 22.179L7.45427 20.2451L8.2474 21.977Z" fill="#2A2A2A"/>
<path d="M21.3388 24.7692C21.1074 24.948 20.0582 25.627 19.0211 26.2647C15.9509 28.1898 14.9671 28.7983 14.5637 29.106C14.1664 29.3931 14.6926 29.278 19.4238 28.1066C20.7515 27.7776 22.295 27.3997 22.8746 27.2555C23.4275 27.1258 23.9039 26.9514 23.922 26.8895C23.9702 26.7244 23.8559 26.579 22.5674 25.2399L21.7809 24.4056L21.3388 24.7692Z" fill="#2A2A2A"/>
<path d="M17.6717 3.81295C12.9672 4.96981 12.355 5.14933 12.4391 5.39785C12.4589 5.56037 12.4116 5.56895 12.2912 5.44424C12.1915 5.32555 11.2844 5.44137 10.2877 5.71022C9.27047 5.97303 8.40111 6.18946 8.3392 6.17139C8.2773 6.15331 7.74502 6.28901 7.16801 6.50123C6.25391 6.79417 6.04922 6.95834 5.72313 7.69169C5.19657 8.88156 3.52828 15.5156 3.79141 15.4581C3.89202 15.4203 3.96251 15.4856 3.92636 15.6094C3.89624 15.7126 3.75692 15.8063 3.62106 15.8114C3.43791 15.8251 3.11438 16.6264 2.64791 18.1473L1.94647 20.473L2.41835 21.081C2.6762 21.425 3.33635 22.1552 3.85296 22.6868C4.3902 23.2243 5.2945 24.1154 5.86096 24.7063C6.43345 25.2765 7.09962 25.9861 7.34889 26.2828C7.58611 26.6208 7.93343 26.8117 8.18451 26.7955C8.43559 26.7792 8.5121 26.8239 8.38739 26.9443C8.11131 27.1996 10.99 30.3019 11.671 30.5007C12.0011 30.5971 13.1714 30.4237 14.4638 30.0621C15.6884 29.703 16.7675 29.4583 16.8913 29.4944C16.9945 29.5246 17.2284 29.4137 17.3858 29.2581C17.5699 29.0879 17.6971 29.0355 17.667 29.1387C17.6369 29.2419 17.7667 29.2574 17.9413 29.1964C18.1012 29.1087 18.8966 28.9155 19.686 28.7429C22.6011 28.116 24.0233 27.7699 24.6124 27.5165L25.2427 27.275L27.2129 20.5276L29.189 13.7595L28.7232 13.1308C28.492 12.7722 28.0725 12.2914 27.8318 12.042C27.5851 11.8132 25.927 10.0526 24.1339 8.14067C21.2406 5.01174 19.726 3.44983 19.5403 3.39561C19.499 3.38356 18.6623 3.56475 17.6717 3.81295ZM18.9319 4.94229C18.5756 6.31621 18.1797 7.3651 17.9725 7.46134C17.8658 7.51978 17.3431 7.54629 16.8177 7.50486C14.436 7.30211 8.62703 6.94963 8.36992 6.98653C8.22804 7.01228 8.46798 6.88079 8.88247 6.68831C9.31761 6.50185 9.72006 6.35063 9.82323 6.38076C9.90577 6.40486 10.8697 6.17126 11.9403 5.87922C13.0169 5.56655 13.9336 5.34153 13.9955 5.35961C14.0367 5.37166 15.1486 5.09167 16.441 4.73005C17.7541 4.37446 18.8866 4.10049 18.9898 4.13062C19.0723 4.15472 19.0318 4.52358 18.9319 4.94229ZM20.6661 5.29188C21.1062 5.77868 21.4793 6.11155 21.5034 6.02901C21.5275 5.94647 21.598 6.01184 21.6444 6.15975C21.7689 6.5768 23.1159 8.02258 23.446 8.11898C23.6111 8.16718 23.7521 8.29792 23.7632 8.41314C23.7709 8.61692 25.98 11.0982 26.2276 11.1705C26.3101 11.1946 26.5947 11.524 26.8465 11.8886L27.3209 12.5646L26.2704 11.9444C25.3376 11.3809 22.2263 9.6887 19.7065 8.34834C19.2414 8.10057 18.815 7.79693 18.7566 7.69029C18.5521 7.31706 19.4437 4.26316 19.712 4.34149C19.7945 4.36558 20.2321 4.78445 20.6661 5.29188ZM16.9936 8.74308C16.536 9.2365 14.8761 10.8568 11.6095 14.0682C9.9435 15.7092 9.13588 16.4811 8.1528 17.4705C7.54988 18.0782 6.98913 18.5415 6.90659 18.5174C6.82405 18.4933 6.75628 17.9585 6.77451 17.3592C6.79876 16.7392 6.70433 16.219 6.62179 16.1949C6.51862 16.1648 6.50145 16.0702 6.59348 15.9851C6.68551 15.9 6.72031 14.477 6.6649 12.8261C6.61551 11.1545 6.57817 9.44171 6.56883 9.01351C6.58013 8.59133 6.55363 8.06854 6.52532 7.85873C6.48074 7.39784 6.9356 7.3739 10.1883 7.58464C11.3955 7.66839 12.8211 7.77112 13.3671 7.81857C17.9362 8.12255 17.6413 8.05884 16.9936 8.74308ZM20.4122 9.38293C21.2658 9.83373 22.2726 10.374 22.6405 10.571C23.0085 10.768 24.1889 11.4038 25.2515 11.9828C28.1065 13.5554 28.477 13.8203 28.1915 14.1848C28.0547 14.3464 27.7511 14.7728 27.5334 15.1347C27.2951 15.4906 26.2706 17.0054 25.2728 18.5055C24.2543 19.9996 23.1584 21.6055 22.8367 22.0938C22.5296 22.6087 22.2173 22.9878 22.1348 22.9637C22.0523 22.9396 21.8289 22.2474 21.6477 21.4107C21.4605 20.5947 21.2304 19.5422 21.1179 19.0839C21.0054 18.6255 20.7692 17.5937 20.5966 16.8043C20.424 16.0149 20.2076 15.1455 20.15 14.8824C20.0719 14.6132 19.8847 13.7972 19.7353 13.0818C19.5652 12.3603 19.2775 11.0447 19.0938 10.1401C18.8834 9.25008 18.7546 8.54067 18.7959 8.55272C18.8165 8.55874 19.5585 8.93213 20.4122 9.38293ZM18.2669 9.13726C18.3184 9.42102 18.6465 10.9052 19.0097 12.4221C20.3271 17.9572 20.9059 20.5 21.2511 22.0787L21.5414 23.4623L14.34 21.3596L7.13854 19.257L8.12764 18.2469C8.6652 17.7097 9.63623 16.7616 10.2658 16.1392C10.916 15.5229 11.7684 14.6745 12.2079 14.243C12.6474 13.8115 13.9599 12.5375 15.121 11.3986C16.2821 10.2596 17.4105 9.15593 17.6066 8.94446C17.8088 8.71237 18.0134 8.54819 18.0753 8.56627C18.1373 8.58434 18.2214 8.83286 18.2669 9.13726ZM6.21242 16.5233C6.23365 17.4476 6.25743 18.4399 6.25306 18.6849C6.24779 19.0864 6.09642 19.2214 5.38957 19.4181C4.92522 19.5512 4.5666 19.7824 4.59838 19.9037C4.63874 20.0722 4.59145 20.0808 4.47111 19.9561C4.3714 19.8374 3.99652 19.8175 3.65341 19.9189C3.31031 20.0202 2.98528 20.0597 2.95606 20.0064C2.93286 19.9324 3.46998 17.9395 4.15681 15.5872C4.88325 13.0225 5.34295 11.1413 5.26132 10.9607C5.16507 10.7534 5.22186 10.6356 5.39642 10.5746C5.51767 10.5429 5.71121 10.2635 5.82222 9.95998C5.98745 9.47078 6.10898 11.4321 6.21242 16.5233ZM26.2736 21.5969C25.4319 24.1728 24.7168 26.3153 24.6695 26.3239C24.5835 26.3883 22.3271 23.9156 22.3573 23.8125C22.3633 23.7918 23.0454 22.7594 23.8704 21.5447C24.7013 20.3093 25.9134 18.5358 26.5301 17.5738C28.1654 15.1177 28.1317 15.8469 26.2736 21.5969ZM20.9324 24.0907C20.8902 24.2351 18.4539 25.8303 15.3957 27.7141C14.3852 28.3372 13.2027 29.0893 12.7848 29.3703C12.3728 29.6307 11.9729 29.8499 11.8904 29.8258C11.7872 29.7956 11.2003 28.6613 10.5764 27.2699C9.94658 25.8992 9.31927 24.5963 9.20842 24.3624C8.64467 23.3021 7.27755 20.2381 7.3137 20.1143C7.33177 20.0524 10.4244 20.8882 14.1592 21.9787C17.9147 23.0752 20.9505 24.0287 20.9324 24.0907ZM23.4667 25.9951C23.863 26.4019 24.1707 26.8052 24.1405 26.9084C24.1164 26.991 23.0278 27.3449 21.7474 27.6652C20.4403 28.0002 18.8641 28.4133 18.2166 28.5602C17.5837 28.7337 17.0308 28.8634 16.9689 28.8453C16.907 28.8272 16.3008 28.9861 15.5939 29.1828C13.6359 29.7532 13.2198 29.7212 14.2036 29.1128C14.6628 28.8438 15.0748 28.5833 15.1547 28.5395C15.2347 28.4957 15.706 28.1854 16.2306 27.8459C16.7346 27.5004 17.6651 26.9212 18.2903 26.5439C18.9155 26.1666 19.9647 25.4876 20.6346 25.0338L21.8559 24.2259L22.2899 24.7333C22.5246 25.0034 23.0498 25.5822 23.4667 25.9951ZM7.29004 21.6525C7.67154 22.5701 8.09266 23.2753 8.21391 23.2435C8.33515 23.2117 8.39103 23.2504 8.34027 23.3476C8.15878 23.5857 9.2673 25.9248 9.51582 25.8406C9.6577 25.8148 9.66628 25.8621 9.57425 25.9472C9.45557 26.0469 9.55346 26.4786 9.76658 26.8991C10.7677 28.9157 10.7763 28.963 9.73706 27.9206C8.76227 26.9642 4.83226 22.8607 3.67614 21.605C3.31512 21.2309 3.06931 20.8456 3.14071 20.7545C3.30157 20.5104 5.87441 19.8284 6.27248 19.9222C6.44358 19.9498 6.90853 20.735 7.29004 21.6525Z" fill="#ECECEC"/>
<path d="M15.2146 11.9188C13.89 13.234 12.4795 14.6137 12.0787 14.9893C11.6986 15.371 10.9443 16.1136 10.4127 16.6302C9.90184 17.1529 9.15959 17.8543 8.81814 18.1801C8.45606 18.4998 8.13524 18.8316 8.11114 18.9142C8.08102 19.0174 10.9518 19.9227 14.4596 20.947C17.9881 21.9772 20.8744 22.7527 20.8985 22.6702C20.9647 22.4432 20.3953 20.3287 20.2105 20.118C20.1108 19.9993 20.1142 19.9108 20.1968 19.9349C20.2999 19.965 20.2871 19.6253 20.1686 19.1876C20.0441 18.7706 19.8654 18.0018 19.7443 17.4962C19.6172 17.0112 19.43 16.1952 19.3295 15.6956C19.2024 15.2106 18.8306 13.6464 18.5111 12.2096C18.2063 10.7993 17.8558 9.62211 17.7733 9.59801C17.6701 9.56789 16.5331 10.6243 15.2146 11.9188Z" fill="#ECECEC"/>
</svg>
