<svg width="14" height="20" viewBox="0 0 14 20" fill="none" xmlns="http://www.w3.org/2000/svg">
<path d="M4.86851 0.110628C2.98196 0.414909 1.58227 0.881475 1.03456 1.4089C0.324567 2.0986 0 3.94458 0 7.37282C0 12.6673 1.76483 16.7041 4.92936 18.7124C6.99848 20.0107 9.53416 19.0167 11.5019 16.1361C12.4756 14.6959 12.7393 14.067 13.287 11.937C13.6927 10.3345 13.7941 9.46222 13.7941 7.33225C13.7941 4.55314 13.4898 2.32174 13.0233 1.57118C12.3741 0.556908 7.56647 -0.315367 4.86851 0.110628ZM1.60255 5.99341L2.53568 6.01369L1.72426 6.29769C1.27798 6.45997 0.89256 6.60197 0.89256 6.60197C0.811418 6.60197 0.405709 7.79881 0.344853 8.22481C0.304282 8.5088 0.263711 7.8191 0.243425 6.7034C0.243425 5.01971 0.283996 4.77628 0.44628 5.32399C0.649134 5.95284 0.730276 5.99341 1.60255 5.99341ZM13.571 6.74397C13.5507 7.83938 13.4898 8.5088 13.4493 8.22481C13.3884 7.79881 12.9827 6.60197 12.9015 6.60197C12.9015 6.60197 12.5161 6.45997 12.0698 6.29769L11.2584 6.01369L12.2321 5.99341C13.145 5.99341 13.2058 5.95284 13.3275 5.38484C13.3884 5.03999 13.4695 4.77628 13.5101 4.77628C13.5507 4.77628 13.571 5.66884 13.571 6.74397ZM8.39818 7.14968C8.19532 7.47425 7.87075 8.44795 7.68819 9.34051L7.34333 10.9633L7.32305 9.68536C7.30276 8.34652 7.46505 7.83938 8.17504 7.04825C8.74303 6.43969 8.84446 6.48026 8.39818 7.14968ZM4.90908 8.02195C5.41621 8.6508 5.21336 8.83337 3.93538 8.83337C3.10367 8.83337 2.73854 8.73194 2.43425 8.42766C1.66341 7.65681 1.98797 7.3931 3.52967 7.49453C4.28023 7.55539 4.64537 7.6771 4.90908 8.02195ZM11.441 7.5351C11.9076 7.71767 11.8467 8.14366 11.3193 8.5088C10.873 8.83337 8.9256 8.97537 8.66189 8.71166C8.45903 8.48852 8.9256 7.8191 9.39216 7.61624C9.91959 7.41339 10.9947 7.37282 11.441 7.5351ZM6.49134 12.3225C6.79563 12.5253 6.97819 12.505 7.3839 12.2819C7.6679 12.1399 7.97218 12.079 8.05332 12.1602C8.25618 12.363 7.54619 12.8905 7.07962 12.8905C6.53191 12.8905 5.67993 12.5253 5.67993 12.2819C5.67993 12.0182 6.00449 12.0182 6.49134 12.3225ZM8.58075 14.493C9.39216 14.9393 9.57473 15.4059 8.82417 15.1219C8.54017 15.0204 7.6679 14.919 6.89705 14.919C6.12621 14.919 5.25393 15.0204 4.96994 15.1219C4.21937 15.4059 4.38166 14.9596 5.19308 14.493C5.96392 14.0467 7.76933 14.0467 8.58075 14.493ZM7.70847 15.9333C7.54619 16.0347 7.18105 16.1361 6.89705 16.1361C6.61306 16.1361 6.24792 16.0347 6.08564 15.9333C5.86249 15.7913 6.10592 15.7304 6.89705 15.7304C7.68819 15.7304 7.93161 15.7913 7.70847 15.9333Z" fill="#606060"/>
</svg>
