<svg width="20" height="16" viewBox="0 0 20 16" fill="none" xmlns="http://www.w3.org/2000/svg">
<path d="M8.38016 0.0988588C8.33154 0.148262 7.95882 0.214132 7.55369 0.247068C6.51655 0.312939 5.26874 0.806969 4.5233 1.44921C4.18299 1.74563 3.89129 2.05851 3.89129 2.14085C3.89129 2.22319 4.16678 2.3714 4.50709 2.48667C5.34977 2.76662 5.96557 3.26065 6.41932 4.0511C6.88927 4.85801 6.93789 5.43438 6.53276 5.43438C6.3545 5.41791 6.09521 5.1215 5.86834 4.611C5.38218 3.55707 4.60433 3.04657 3.48616 3.06304C2.10871 3.07951 1.05537 3.88642 0.39095 5.40145C-0.0303881 6.3401 -0.143825 7.67398 0.212691 7.47637C0.358539 7.39403 0.358539 7.4105 0.212691 7.57518C0.0668437 7.73986 0.083049 7.9704 0.326128 8.61264C0.925724 10.1935 2.01148 10.951 3.71304 10.951H4.75017L4.94464 10.2923C5.36598 8.81025 6.51655 7.83866 8.07226 7.64105C8.65565 7.57518 9.09319 7.4105 9.33627 7.17995C9.53074 6.99881 9.80623 6.7518 9.96828 6.66946C10.2276 6.50478 10.2276 6.45538 9.98448 5.71433C9.48212 4.19931 9.7252 2.73369 10.6813 1.49861L11.1999 0.839904L10.8272 0.642292C10.4706 0.44468 8.97976 5.34058e-05 8.65565 5.34058e-05C8.55842 5.34058e-05 8.44498 0.0494556 8.38016 0.0988588Z" fill="#606060"/>
<path d="M12.3938 1.09558C11.7733 1.30654 11.5121 1.5175 10.9243 2.29645C10.4835 2.86443 10.4345 3.05917 10.4345 4.09776C10.4345 5.67188 10.6957 6.04512 11.8713 6.19118C12.8836 6.30477 13.7326 6.71047 13.8795 7.14863C14.0428 7.63547 13.8142 7.66793 13.0795 7.29468C11.9039 6.67802 10.81 6.74293 9.92837 7.47319C9.47122 7.87889 9.07937 8.04117 8.52425 8.10608C7.51197 8.21968 6.35275 8.80389 5.91192 9.40433C5.38945 10.1508 5.32414 11.3192 5.7813 12.0495C5.97723 12.3578 6.35275 12.7311 6.63031 12.8771C7.5283 13.3315 9.07937 13.3315 10.2059 12.8771C10.3855 12.796 10.5978 12.9745 10.9407 13.5262C11.4468 14.3214 12.6387 15.149 13.0468 14.9868C13.1775 14.9381 13.2917 14.9868 13.2917 15.0679C13.2917 15.1815 13.455 15.214 13.7489 15.149C13.9938 15.0841 14.3857 15.003 14.6142 14.9705C15.7735 14.7758 16.9164 13.9157 17.3898 12.8609C17.9123 11.7412 17.847 11.6438 16.6878 11.6438C15.5122 11.6438 14.2714 11.0596 14.2714 10.5078C14.2714 10.0859 14.402 10.1021 15.3979 10.6052C16.8184 11.3517 18.1246 10.9135 18.8266 9.48547C19.2021 8.70652 19.2838 7.50565 18.9736 7.37582C18.8103 7.31091 18.8103 7.27845 18.9572 7.27845C19.3491 7.246 18.598 5.5096 17.945 4.90916C17.749 4.73065 17.4878 4.26004 17.3735 3.87057C17.1123 3.04294 16.0673 1.90698 15.0877 1.42014C14.304 1.01444 13.0958 0.884612 12.3938 1.09558Z" fill="#606060"/>
</svg>
