<svg width="239" height="48" viewBox="0 0 239 48" fill="none" xmlns="http://www.w3.org/2000/svg">
<mask id="path-1-inside-1_225_1536" fill="white">
<path d="M233.377 0C233.377 2.9949 235.805 5.42282 238.8 5.42285C238.867 5.42285 238.934 5.4194 239 5.41699V42.6045C238.934 42.6021 238.867 42.5996 238.8 42.5996C235.812 42.5996 233.39 45.0152 233.378 48H5.42188C5.41041 45.1088 3.13714 42.7515 0.279297 42.6064L0 42.5996V5.42285C2.90121 5.4228 5.27066 3.14439 5.41602 0.279297L5.42285 0H233.377Z"/>
</mask>
<path d="M233.377 0C233.377 2.9949 235.805 5.42282 238.8 5.42285C238.867 5.42285 238.934 5.4194 239 5.41699V42.6045C238.934 42.6021 238.867 42.5996 238.8 42.5996C235.812 42.5996 233.39 45.0152 233.378 48H5.42188C5.41041 45.1088 3.13714 42.7515 0.279297 42.6064L0 42.5996V5.42285C2.90121 5.4228 5.27066 3.14439 5.41602 0.279297L5.42285 0H233.377Z" fill="#2F2F2F"/>
<path d="M233.377 0C233.377 2.9949 235.805 5.42282 238.8 5.42285C238.867 5.42285 238.934 5.4194 239 5.41699V42.6045C238.934 42.6021 238.867 42.5996 238.8 42.5996C235.812 42.5996 233.39 45.0152 233.378 48H5.42188C5.41041 45.1088 3.13714 42.7515 0.279297 42.6064L0 42.5996V5.42285C2.90121 5.4228 5.27066 3.14439 5.41602 0.279297L5.42285 0H233.377Z" fill="url(#paint0_radial_225_1536)"/>
<path d="M233.377 0L234.328 -9.82023e-07V-0.951049H233.377V0ZM238.8 5.42285L238.8 6.3739H238.8V5.42285ZM239 5.41699H239.951V4.4308L238.965 4.46657L239 5.41699ZM239 42.6045L238.965 43.5549L239.951 43.5907V42.6045H239ZM238.8 42.5996V41.6486H238.8L238.8 42.5996ZM233.378 48V48.951H234.325L234.329 48.0038L233.378 48ZM5.42188 48L4.47083 48.0038L4.47459 48.951H5.42188V48ZM0.279297 42.6064L0.327504 41.6566L0.315042 41.656L0.302567 41.6557L0.279297 42.6064ZM0 42.5996H-0.951049V43.5277L-0.0232705 43.5504L0 42.5996ZM0 5.42285L-1.61216e-05 4.4718L-0.951049 4.47182V5.42285H0ZM5.41602 0.279297L6.36584 0.327484L6.36647 0.315032L6.36678 0.302567L5.41602 0.279297ZM5.42285 0V-0.951049H4.4948L4.47209 -0.0232705L5.42285 0ZM233.377 0L232.426 9.82023e-07C232.426 3.52016 235.28 6.37387 238.8 6.3739L238.8 5.42285L238.8 4.4718C236.33 4.47178 234.328 2.46964 234.328 -9.82023e-07L233.377 0ZM238.8 5.42285V6.3739C238.89 6.3739 238.988 6.36912 239.035 6.36742L239 5.41699L238.965 4.46657C238.88 4.46969 238.844 4.4718 238.8 4.4718V5.42285ZM239 5.41699H238.049V42.6045H239H239.951V5.41699H239ZM239 42.6045L239.035 41.6541C238.972 41.6518 238.887 41.6486 238.8 41.6486V42.5996V43.5507C238.846 43.5507 238.896 43.5524 238.965 43.5549L239 42.6045ZM238.8 42.5996L238.8 41.6486C235.288 41.6486 232.441 44.488 232.427 47.9962L233.378 48L234.329 48.0038C234.339 45.5424 236.336 43.5507 238.8 43.5507L238.8 42.5996ZM233.378 48V47.049H5.42188V48V48.951H233.378V48ZM5.42188 48L6.37292 47.9962C6.35944 44.5977 3.68751 41.8271 0.327504 41.6566L0.279297 42.6064L0.23109 43.5563C2.58677 43.6758 4.46138 45.6199 4.47083 48.0038L5.42188 48ZM0.279297 42.6064L0.302567 41.6557L0.0232705 41.6488L0 42.5996L-0.0232705 43.5504L0.256026 43.5572L0.279297 42.6064ZM0 42.5996H0.951049V5.42285H0H-0.951049V42.5996H0ZM0 5.42285L1.61216e-05 6.3739C3.41025 6.37384 6.19495 3.69593 6.36584 0.327484L5.41602 0.279297L4.46619 0.231109C4.34637 2.59285 2.39216 4.47176 -1.61216e-05 4.4718L0 5.42285ZM5.41602 0.279297L6.36678 0.302567L6.37362 0.0232705L5.42285 0L4.47209 -0.0232705L4.46525 0.256026L5.41602 0.279297ZM5.42285 0V0.951049H233.377V0V-0.951049H5.42285V0Z" fill="#00A59D" mask="url(#path-1-inside-1_225_1536)"/>
<path d="M233.377 0L234.328 -9.82023e-07V-0.951049H233.377V0ZM238.8 5.42285L238.8 6.3739H238.8V5.42285ZM239 5.41699H239.951V4.4308L238.965 4.46657L239 5.41699ZM239 42.6045L238.965 43.5549L239.951 43.5907V42.6045H239ZM238.8 42.5996V41.6486H238.8L238.8 42.5996ZM233.378 48V48.951H234.325L234.329 48.0038L233.378 48ZM5.42188 48L4.47083 48.0038L4.47459 48.951H5.42188V48ZM0.279297 42.6064L0.327504 41.6566L0.315042 41.656L0.302567 41.6557L0.279297 42.6064ZM0 42.5996H-0.951049V43.5277L-0.0232705 43.5504L0 42.5996ZM0 5.42285L-1.61216e-05 4.4718L-0.951049 4.47182V5.42285H0ZM5.41602 0.279297L6.36584 0.327484L6.36647 0.315032L6.36678 0.302567L5.41602 0.279297ZM5.42285 0V-0.951049H4.4948L4.47209 -0.0232705L5.42285 0ZM233.377 0L232.426 9.82023e-07C232.426 3.52016 235.28 6.37387 238.8 6.3739L238.8 5.42285L238.8 4.4718C236.33 4.47178 234.328 2.46964 234.328 -9.82023e-07L233.377 0ZM238.8 5.42285V6.3739C238.89 6.3739 238.988 6.36912 239.035 6.36742L239 5.41699L238.965 4.46657C238.88 4.46969 238.844 4.4718 238.8 4.4718V5.42285ZM239 5.41699H238.049V42.6045H239H239.951V5.41699H239ZM239 42.6045L239.035 41.6541C238.972 41.6518 238.887 41.6486 238.8 41.6486V42.5996V43.5507C238.846 43.5507 238.896 43.5524 238.965 43.5549L239 42.6045ZM238.8 42.5996L238.8 41.6486C235.288 41.6486 232.441 44.488 232.427 47.9962L233.378 48L234.329 48.0038C234.339 45.5424 236.336 43.5507 238.8 43.5507L238.8 42.5996ZM233.378 48V47.049H5.42188V48V48.951H233.378V48ZM5.42188 48L6.37292 47.9962C6.35944 44.5977 3.68751 41.8271 0.327504 41.6566L0.279297 42.6064L0.23109 43.5563C2.58677 43.6758 4.46138 45.6199 4.47083 48.0038L5.42188 48ZM0.279297 42.6064L0.302567 41.6557L0.0232705 41.6488L0 42.5996L-0.0232705 43.5504L0.256026 43.5572L0.279297 42.6064ZM0 42.5996H0.951049V5.42285H0H-0.951049V42.5996H0ZM0 5.42285L1.61216e-05 6.3739C3.41025 6.37384 6.19495 3.69593 6.36584 0.327484L5.41602 0.279297L4.46619 0.231109C4.34637 2.59285 2.39216 4.47176 -1.61216e-05 4.4718L0 5.42285ZM5.41602 0.279297L6.36678 0.302567L6.37362 0.0232705L5.42285 0L4.47209 -0.0232705L4.46525 0.256026L5.41602 0.279297ZM5.42285 0V0.951049H233.377V0V-0.951049H5.42285V0Z" fill="white" fill-opacity="0.3" mask="url(#path-1-inside-1_225_1536)"/>
<mask id="path-3-inside-2_225_1536" fill="white">
<path d="M230.34 2.99982C230.414 5.47865 232.351 7.48681 234.8 7.67365V40.3475C232.358 40.5337 230.425 42.5312 230.34 44.9998H8.64948C8.57189 42.7406 6.94675 40.8745 4.79987 40.4315V7.58966C6.95373 7.1451 8.58283 5.26896 8.65045 2.99982H230.34Z"/>
</mask>
<path d="M230.34 2.99982C230.414 5.47865 232.351 7.48681 234.8 7.67365V40.3475C232.358 40.5337 230.425 42.5312 230.34 44.9998H8.64948C8.57189 42.7406 6.94675 40.8745 4.79987 40.4315V7.58966C6.95373 7.1451 8.58283 5.26896 8.65045 2.99982H230.34Z" fill="#00A59D"/>
<path d="M230.34 2.99982C230.414 5.47865 232.351 7.48681 234.8 7.67365V40.3475C232.358 40.5337 230.425 42.5312 230.34 44.9998H8.64948C8.57189 42.7406 6.94675 40.8745 4.79987 40.4315V7.58966C6.95373 7.1451 8.58283 5.26896 8.65045 2.99982H230.34Z" fill="url(#paint1_radial_225_1536)"/>
<path d="M230.34 2.99982L232.036 2.94928L231.987 1.3032H230.34V2.99982ZM234.8 7.67365H236.496V6.10154L234.929 5.98195L234.8 7.67365ZM234.8 40.3475L234.929 42.0392L236.496 41.9196V40.3475H234.8ZM230.34 44.9998V46.6964H231.979L232.036 45.058L230.34 44.9998ZM8.64948 44.9998L6.95386 45.058L7.01012 46.6964H8.64948V44.9998ZM4.79987 40.4315H3.10325V41.8137L4.45696 42.0931L4.79987 40.4315ZM4.79987 7.58966L4.45691 5.92807L3.10325 6.20747V7.58966H4.79987ZM8.65045 2.99982V1.3032H7.00364L6.95459 2.94928L8.65045 2.99982ZM230.34 2.99982L228.644 3.05035C228.744 6.40064 231.361 9.11284 234.671 9.36534L234.8 7.67365L234.929 5.98195C233.341 5.86079 232.084 4.55666 232.036 2.94928L230.34 2.99982ZM234.8 7.67365H233.103V40.3475H234.8H236.496V7.67365H234.8ZM234.8 40.3475L234.671 38.6558C231.371 38.9075 228.759 41.605 228.644 44.9416L230.34 44.9998L232.036 45.058C232.09 43.4574 233.346 42.1599 234.929 42.0392L234.8 40.3475ZM230.34 44.9998V43.3032H8.64948V44.9998V46.6964H230.34V44.9998ZM8.64948 44.9998L10.3451 44.9416C10.2402 41.8878 8.04472 39.3687 5.14277 38.7699L4.79987 40.4315L4.45696 42.0931C5.84878 42.3803 6.90356 43.5934 6.95386 45.058L8.64948 44.9998ZM4.79987 40.4315H6.49648V7.58966H4.79987H3.10325V40.4315H4.79987ZM4.79987 7.58966L5.14282 9.25125C8.05361 8.65045 10.2549 6.11797 10.3463 3.05035L8.65045 2.99982L6.95459 2.94928C6.91076 4.41995 5.85384 5.63974 4.45691 5.92807L4.79987 7.58966ZM8.65045 2.99982V4.69643H230.34V2.99982V1.3032H8.65045V2.99982Z" fill="#00A59D" mask="url(#path-3-inside-2_225_1536)"/>
<path d="M230.34 2.99982L232.036 2.94928L231.987 1.3032H230.34V2.99982ZM234.8 7.67365H236.496V6.10154L234.929 5.98195L234.8 7.67365ZM234.8 40.3475L234.929 42.0392L236.496 41.9196V40.3475H234.8ZM230.34 44.9998V46.6964H231.979L232.036 45.058L230.34 44.9998ZM8.64948 44.9998L6.95386 45.058L7.01012 46.6964H8.64948V44.9998ZM4.79987 40.4315H3.10325V41.8137L4.45696 42.0931L4.79987 40.4315ZM4.79987 7.58966L4.45691 5.92807L3.10325 6.20747V7.58966H4.79987ZM8.65045 2.99982V1.3032H7.00364L6.95459 2.94928L8.65045 2.99982ZM230.34 2.99982L228.644 3.05035C228.744 6.40064 231.361 9.11284 234.671 9.36534L234.8 7.67365L234.929 5.98195C233.341 5.86079 232.084 4.55666 232.036 2.94928L230.34 2.99982ZM234.8 7.67365H233.103V40.3475H234.8H236.496V7.67365H234.8ZM234.8 40.3475L234.671 38.6558C231.371 38.9075 228.759 41.605 228.644 44.9416L230.34 44.9998L232.036 45.058C232.09 43.4574 233.346 42.1599 234.929 42.0392L234.8 40.3475ZM230.34 44.9998V43.3032H8.64948V44.9998V46.6964H230.34V44.9998ZM8.64948 44.9998L10.3451 44.9416C10.2402 41.8878 8.04472 39.3687 5.14277 38.7699L4.79987 40.4315L4.45696 42.0931C5.84878 42.3803 6.90356 43.5934 6.95386 45.058L8.64948 44.9998ZM4.79987 40.4315H6.49648V7.58966H4.79987H3.10325V40.4315H4.79987ZM4.79987 7.58966L5.14282 9.25125C8.05361 8.65045 10.2549 6.11797 10.3463 3.05035L8.65045 2.99982L6.95459 2.94928C6.91076 4.41995 5.85384 5.63974 4.45691 5.92807L4.79987 7.58966ZM8.65045 2.99982V4.69643H230.34V2.99982V1.3032H8.65045V2.99982Z" fill="#00A59D" mask="url(#path-3-inside-2_225_1536)"/>
<defs>
<radialGradient id="paint0_radial_225_1536" cx="0" cy="0" r="1" gradientUnits="userSpaceOnUse" gradientTransform="translate(64.7999) rotate(90) scale(19.5822 76.2442)">
<stop stop-color="#464646"/>
<stop offset="1" stop-color="#C84B2F" stop-opacity="0"/>
</radialGradient>
<radialGradient id="paint1_radial_225_1536" cx="0" cy="0" r="1" gradientUnits="userSpaceOnUse" gradientTransform="translate(64.7998 2.85314) rotate(90) scale(17.4666 68.0076)">
<stop stop-color="#00B9B0"/>
<stop offset="1" stop-color="#00B9B0" stop-opacity="0"/>
</radialGradient>
</defs>
</svg>
