<svg width="70" height="58" viewBox="0 0 70 58" fill="none" xmlns="http://www.w3.org/2000/svg">
<path d="M31.0664 0.284222C26.2756 1.33318 21.8643 4.76612 20.0618 8.8189C19.2555 10.5831 19.0183 12.0611 19.0183 15.4464C18.9709 19.2608 18.876 19.8806 18.1645 19.8806C17.0261 19.8806 16.694 20.6435 16.7415 23.0752C16.8363 26.1267 18.117 29.941 19.5401 31.133C20.3939 31.8482 20.8208 32.9449 21.2477 35.3289C21.7694 38.428 21.8643 38.6188 25.8487 42.7192C29.7857 46.8674 29.928 46.9627 32.5369 47.2488C37.0431 47.821 38.8455 47.1058 42.7825 43.1483C44.6799 41.2411 46.2452 39.4293 46.2452 39.0956C46.2452 38.7618 46.4349 38.4757 46.6721 38.4757C46.9093 38.4757 47.3362 37.0453 47.6682 35.2812C48.0951 32.9925 48.6169 31.8005 49.3284 31.2284C50.4194 30.3702 51.6526 27.1756 52.2218 23.838C52.5539 21.6924 51.8424 19.8806 50.704 19.8806C50.1348 19.8806 50.0399 19.4038 50.3245 17.0198C50.5142 15.4464 50.4668 14.159 50.2296 14.159C49.9925 14.159 49.7553 13.3485 49.7553 12.3472C49.6604 10.2016 48.2374 7.24547 46.1978 4.86148C43.162 1.38086 35.9047 -0.812412 31.0664 0.284222ZM42.1659 3.09733C48.2374 6.38723 49.8027 11.3459 48.6643 23.5043C48.3323 27.0326 48.1425 27.557 46.2452 30.0364C44.4902 32.3727 44.1107 33.374 43.3517 37.3791C42.5454 41.4795 42.2133 42.2424 40.7429 43.8159C39.6045 44.9125 38.2763 45.723 36.9008 46.1045C34.3868 46.7243 34.1022 46.5813 34.8611 45.1509C35.1457 44.5787 35.288 43.5775 35.1457 42.9576C34.9086 42.0517 34.5291 41.8133 33.4381 41.8133C32.2997 41.8133 32.0151 41.6226 32.0151 40.812C32.0151 40.0491 32.2048 39.9061 32.9638 40.1445C34.2445 40.5736 35.8098 40.0015 35.8098 39.1432C35.8098 38.6188 35.0034 38.4757 32.3946 38.428L28.9319 38.3804L30.5921 37.6652C31.4933 37.236 32.8689 36.95 33.5804 36.95C34.624 36.9976 34.8611 36.8069 34.6714 36.2824C34.5291 35.8533 34.3868 35.2335 34.3868 34.8997C34.3868 34.5183 33.6278 33.9938 32.7266 33.6601C30.4498 32.8018 30.4498 31.5622 32.774 31.9436C35.6675 32.4204 35.8098 32.2297 35.8098 26.9372C35.8098 22.5507 35.9047 22.1216 36.9956 21.0726C37.6123 20.4051 38.5609 19.8806 39.0827 19.8806C39.6519 19.8806 41.0275 19.6422 42.1659 19.3085C44.0632 18.8317 44.3004 18.5933 44.5376 17.0675C45.5337 11.1075 43.3043 5.62436 38.7507 2.66821L36.5213 1.19014L38.1815 1.5239C39.0827 1.71461 40.8852 2.42981 42.1659 3.09733ZM27.082 19.3561C27.8409 19.5945 29.264 19.9283 30.2126 20.119C32.6792 20.5004 33.1535 22.2646 31.351 24.0764C30.687 24.7916 30.1178 25.0777 30.1178 24.7439C30.1178 24.3625 29.3114 24.1718 27.6986 24.1718C26.3705 24.1718 24.9001 23.9334 24.3783 23.695C22.8604 22.8368 21.5797 23.8857 21.5797 25.9836C21.5797 27.3187 22.054 28.4153 23.3822 30.2271C24.7103 31.9913 25.3744 33.4693 25.8013 35.6626C26.1333 37.3314 26.5602 39.477 26.7974 40.3352C27.0346 41.2411 27.1769 42.0994 27.0346 42.1947C26.9397 42.2901 25.8962 41.3842 24.7103 40.1445C22.7655 38.0466 22.5758 37.6175 22.2912 34.709C22.054 32.7541 21.5323 30.7993 20.8208 29.5596C20.0618 28.2246 19.6824 26.8419 19.6824 25.2207C19.6824 22.9798 19.8247 22.7414 21.9592 20.8819C24.3309 18.8317 24.9001 18.6886 27.082 19.3561Z" fill="#ECECEC" />
<path d="M8.41625 0.660526C8.41625 0.994244 7.80444 1.88414 7.02577 2.71843C4.96786 4.9432 2.90995 8.83654 1.40824 13.4529C-1.20586 21.5177 -0.0934783 32.8084 4.02234 39.9832C5.69091 42.8198 9.19491 47.4918 10.4742 48.5486C19.262 55.8347 25.7694 58.2263 35.7809 57.837C42.3995 57.6145 45.1805 56.9471 49.8525 54.5555C58.6403 50.1059 64.5916 43.0979 67.7062 33.6427C68.8186 30.2499 69.0411 28.3588 69.0411 23.1863C69.0411 19.7379 68.8186 16.7901 68.5405 16.6232C68.2624 16.4564 68.0956 19.2373 68.0956 22.8526C68.0956 28.3588 67.8731 30.0274 66.7051 33.587C65.5371 37.1467 62.0331 43.6541 60.7538 44.6553C60.587 44.8221 59.2521 46.157 57.8616 47.7143C56.4712 49.216 55.1363 50.5509 54.9138 50.5509C54.6914 50.6065 53.1896 51.552 51.5211 52.6088C49.9081 53.6655 46.9047 54.9448 44.9024 55.501C42.8445 56.0572 41.1203 56.669 41.0091 56.8358C40.8978 57.0027 38.1169 57.1139 34.8909 57.1139C30.1077 57.0027 28.1054 56.7246 24.3789 55.501C13.7001 51.9414 6.13586 44.3772 2.52062 33.5314C1.18576 29.5268 0.963285 27.9695 1.0189 23.2419C1.07452 17.1238 2.68748 11.1169 5.3572 6.83425C6.13586 5.61063 6.74767 4.49824 6.74767 4.33139C6.74767 4.16453 7.35948 3.33024 8.13815 2.49596C9.63987 0.938618 9.86234 0.159954 8.97244 0.159954C8.69434 0.159954 8.41625 0.382431 8.41625 0.660526Z" fill="#ECECEC" />
</svg>
