<svg width="24" height="23" viewBox="0 0 24 23" fill="none" xmlns="http://www.w3.org/2000/svg">
<path d="M14.3348 3.4692C14.7638 3.70633 15.1471 3.96204 15.1818 4.01438C15.2282 4.12834 14.7528 6.87401 14.4905 7.99104L14.3775 8.52887L12.3807 7.93417C9.56398 7.08894 9.66278 7.16828 9.66653 5.31934C9.64942 4.46241 9.57157 3.74987 9.47785 3.74821C9.3681 3.73979 8.88191 4.17725 8.40335 4.73121L7.49349 5.72683L6.65164 5.25932C6.19736 4.99265 5.57081 4.59685 5.25837 4.35209C4.71624 3.93516 4.72299 3.91912 5.06225 3.38208C5.24538 3.08148 5.71122 2.33334 6.06819 1.70933C6.42515 1.08533 6.84883 0.527163 6.99234 0.455363C7.20422 0.355686 7.9464 0.611308 10.3874 1.67615C12.1294 2.42794 13.8898 3.22532 14.3348 3.4692Z" fill="#606060"/>
<path d="M9.18104 5.88931C9.22857 6.85345 9.31563 7.22997 9.60273 7.44518C9.94726 7.70344 11.12 8.10248 12.4498 8.39763C13.013 8.54016 13.013 8.54016 12.7565 9.14979C12.365 10.0803 12.5687 10.808 13.7917 12.9276C15.0933 15.1747 15.4294 15.5427 16.9071 16.4288C17.8477 16.9757 18.0479 17.1732 18.2346 17.7616C18.5092 18.5002 18.3329 19.1436 17.8585 19.2839C17.1628 19.501 15.47 19.2609 13.7273 18.7353C11.8082 18.1355 10.8447 17.598 8.91685 16.0315C8.46423 15.6711 6.98909 14.8239 5.40927 14.0459C3.90291 13.3177 2.5384 12.6114 2.35938 12.4983C1.65683 12.0138 2.1714 10.3421 3.54545 8.69202C4.00121 8.14735 4.65018 7.09861 5.00881 6.38089C5.54969 5.23002 5.66532 5.08984 5.84942 5.2806C5.97355 5.38948 6.39829 5.68149 6.79515 5.90512C7.58888 6.35237 7.46816 6.41488 8.64137 5.1524L9.13597 4.60519L9.18104 5.88931Z" fill="#606060"/>
<path d="M1.95915 12.8209C2.15675 12.9795 3.17928 13.4664 4.24739 13.9347C6.37433 14.8485 7.25081 15.3683 9.36189 16.993C11.4223 18.5586 13.7392 19.5146 15.985 19.7419C16.8631 19.8093 17.7158 19.847 17.8618 19.8141C18.2679 19.7017 18.3735 20.1238 18.0529 20.7064C17.8453 21.11 17.6266 21.2257 16.9597 21.285C16.519 21.3451 16.1121 21.3249 16.0842 21.2565C16.0563 21.1881 15.9145 21.1662 15.7684 21.1992C14.6574 21.506 10.5632 19.9721 9.19517 18.7356C7.99266 17.6443 6.46087 16.5277 6.16369 16.516C6.03114 16.5169 5.7813 16.7516 5.62771 17.0269L5.35683 17.5361L3.43845 16.71C0.619132 15.4671 0.635174 15.4739 0.475533 15.1801C0.315891 14.8864 1.17814 12.5678 1.45674 12.5339C1.55045 12.5356 1.7683 12.6462 1.95915 12.8209Z" fill="#606060"/>
</svg>
