<svg width="16" height="18" viewBox="0 0 16 18" fill="none" xmlns="http://www.w3.org/2000/svg">
<path d="M0.729504 0.173167C0.537357 0.269241 0.393247 0.445375 0.393247 0.573473C0.393247 0.701571 0.297173 0.877707 0.2011 0.941756C-0.119146 1.1339 -0.0390843 2.03059 0.329198 2.63905L0.665455 3.18347L3.00324 3.05537C6.02956 2.87924 10.3689 2.86323 11.6178 3.02335L12.5946 3.15145L12.4345 2.49494C12.2583 1.88648 12.3544 1.22998 12.7227 0.381326C12.8188 0.12513 12.6746 0.109118 11.0574 0.109118C10.0807 0.109118 9.28005 0.157155 9.28005 0.221204C9.28005 0.285253 8.25527 0.285253 7.00631 0.221204C2.82711 0.0290568 1.06576 0.0130444 0.729504 0.173167Z" fill="#606060"/>
<path d="M13.6355 0.0450459C13.4593 0.109095 12.9629 0.909708 12.9629 1.11787C12.9629 1.1659 13.2031 1.21394 13.4753 1.24596C14.1799 1.31001 14.5001 1.93449 14.2439 2.73511C14.1478 3.03934 13.9237 3.3756 13.7636 3.45566C13.5714 3.55173 12.7067 3.55173 11.2656 3.43964C9.18405 3.27952 4.89276 3.32756 2.61902 3.55173L1.64227 3.6478L1.8024 4.4324C1.88246 4.86474 2.02657 5.21701 2.10663 5.21701C2.18669 5.21701 2.2027 5.31308 2.12264 5.40915C1.91448 5.7294 2.0746 11.5258 2.29878 11.6699C2.42687 11.75 2.39485 11.8461 2.2027 11.9902C2.02657 12.1343 1.93049 12.5026 1.88246 13.1751L1.83442 14.1518L2.52295 14.2479C3.99608 14.4401 9.44024 14.5201 11.0255 14.376C12.9629 14.1839 13.2191 14.2639 13.3793 15.0966C13.5234 15.8972 13.2992 16.4896 12.8028 16.5537C12.2424 16.6337 12.0983 16.8259 12.3064 17.2102C12.7228 17.9788 13.5234 17.9628 13.9397 17.1942C14.34 16.4576 14.388 15.689 14.1639 13.8636C13.8756 11.6539 13.8596 9.42823 14.0998 7.61884C14.2599 6.43394 14.2599 6.2578 14.0198 6.09768C13.6835 5.84148 13.6995 5.74541 14.0518 5.66535C14.292 5.6013 14.4201 5.26504 14.6442 4.1602C15.0926 1.90247 15.1086 1.4221 14.8044 0.71756C14.6442 0.381302 14.4681 0.0930824 14.388 0.0930824C14.324 0.0930824 14.1799 0.061058 14.0518 0.0290337C13.9397 -0.0190029 13.7475 -0.00299072 13.6355 0.0450459Z" fill="#606060"/>
<path d="M12.8029 2.01464C12.8029 2.52703 13.1551 3.15151 13.4273 3.10347C13.6995 3.05543 13.9077 2.41494 13.7956 1.9666C13.6995 1.55028 12.8029 1.5823 12.8029 2.01464Z" fill="#606060"/>
<path d="M0.425466 14.9846C0.249331 15.2408 0.217307 15.4169 0.329393 15.561C0.425466 15.6891 0.409454 15.7692 0.233319 15.8493C-0.295085 16.0414 0.153258 17.5786 0.793748 17.7547C0.969883 17.8028 1.49829 17.7867 1.96264 17.7227C2.41099 17.6747 4.86086 17.6266 7.3908 17.6426L11.9863 17.6586L11.7461 17.0982C11.4899 16.4577 11.4579 15.6571 11.6661 15.0807C11.8262 14.6964 11.8102 14.6964 11.2337 14.7925C10.4331 14.9366 5.6935 14.9206 2.93939 14.7604C0.681662 14.6163 0.681662 14.6163 0.425466 14.9846Z" fill="#606060"/>
<path d="M12.1943 15.0646C11.9061 15.6891 11.9381 16.3296 12.2584 16.2015C12.4025 16.1534 12.6107 16.1054 12.7388 16.1054C13.027 16.1054 13.043 15.1286 12.7708 14.8564C12.4986 14.5842 12.4025 14.6162 12.1943 15.0646Z" fill="#606060"/>
</svg>
