<svg width="15" height="21" viewBox="0 0 15 21" fill="none" xmlns="http://www.w3.org/2000/svg">
<g opacity="0.3">
<path d="M4.88335 0.620494C4.73192 0.961212 4.42906 1.62372 4.22085 2.09694C3.9937 2.57016 3.8612 3.00552 3.89906 3.08124C4.01263 3.2516 6.01908 3.89517 6.13265 3.7816C6.39766 3.49767 7.32517 1.03693 7.24945 0.847639C7.17374 0.620494 6.60587 0.336562 6.20837 0.298704C6.15158 0.298704 6.01908 0.241918 5.94337 0.147274C5.62158 -0.174515 5.12943 0.0526299 4.88335 0.620494Z" fill="#ECECEC"/>
<path d="M7.34432 2.66479L6.66288 4.16017L7.30646 4.36839C8.00683 4.59553 8.23397 5.04982 8.04468 5.86376C7.87433 6.62091 7.19289 7.18878 6.22752 7.37806L5.39465 7.52949L6.09502 7.85128C6.49252 8.02164 6.92789 8.15414 7.09824 8.15414C7.2686 8.15414 7.89325 7.09413 8.80184 5.20125C9.57792 3.57338 10.2215 2.17265 10.2215 2.078C10.2215 1.79407 9.02898 1.15049 8.5179 1.15049C8.10147 1.15049 7.95004 1.35871 7.34432 2.66479Z" fill="#ECECEC"/>
<path d="M10.7325 2.94874C10.5621 3.08124 10.4107 3.23267 10.4107 3.28946C10.4107 3.34625 9.89962 4.46304 9.25604 5.76913C8.55567 7.22665 8.15817 8.26773 8.21496 8.49488C8.3096 8.77881 9.25604 9.28989 9.71033 9.28989C9.88069 9.28989 10.5432 8.21095 11.7925 5.86377C12.9661 3.63018 12.985 3.66803 11.6411 2.9866C11.1678 2.75945 10.9975 2.74052 10.7325 2.94874Z" fill="#ECECEC"/>
<path d="M2.65003 3.85734C2.30931 4.14127 2.2336 4.27378 0.965369 6.77238C0.435362 7.81346 0 8.79776 0 8.93026C0 9.08169 0.984297 10.5013 2.17681 12.0914C4.61863 15.3471 4.42934 14.7035 3.93719 17.8836C3.78576 18.9436 3.78576 19.2275 4.0129 19.4547C4.69434 20.1172 9.74833 20.2686 10.7326 19.644C10.8651 19.5493 10.9787 19.5682 10.9787 19.6818C10.9787 19.8143 11.168 19.7954 11.5466 19.6818L12.1144 19.4736V17.5618V15.6311L12.9662 14.2303C13.4773 13.3596 13.8369 12.5078 13.9127 11.9589C13.9884 11.4856 14.1209 10.6528 14.2345 10.1417C14.3291 9.6117 14.3859 9.00597 14.367 8.7599C14.3102 8.40025 14.1587 8.53275 13.4394 9.6117C12.8527 10.4824 12.4362 10.9178 12.1334 10.9556C11.5844 11.0314 10.7326 10.6906 10.2973 10.2174C10.1269 10.0281 9.78619 9.85777 9.57797 9.85777C9.35082 9.83884 8.83975 9.68741 8.42331 9.47919C7.21187 8.8924 6.39793 9.0249 7.06044 9.70634C7.68509 10.3499 8.51796 11.7128 8.63153 12.2996C8.70724 12.6782 8.68832 12.9053 8.59367 12.8296C8.49903 12.7728 7.81759 11.8831 7.0983 10.8231C5.81114 8.98704 5.73542 8.91133 4.5997 8.4949L3.42611 8.05953L3.80469 7.22667C4.06969 6.62095 4.24005 6.43166 4.4672 6.5263C5.28113 6.82916 6.20864 6.84809 6.75758 6.56416C7.32544 6.28023 7.74188 5.39057 7.43902 5.12557C7.2308 4.93628 3.99398 3.78163 3.40718 3.68698C3.14218 3.64913 2.80146 3.70591 2.65003 3.85734Z" fill="#ECECEC"/>
<path d="M12.9659 5.27699C12.8713 5.35271 12.682 5.57985 12.5684 5.78807C12.4548 5.99628 11.9627 6.90487 11.4705 7.81345L10.5809 9.47918L11.0919 9.9524C11.3759 10.2174 11.7545 10.4067 11.9059 10.3878C12.2277 10.331 14.7452 6.71558 14.7641 6.31807C14.7641 6.18557 14.4423 5.86378 14.0638 5.59878C13.2877 5.0877 13.2498 5.06877 12.9659 5.27699Z" fill="#ECECEC"/>
</g>
</svg>
