<svg width="112" height="21" viewBox="0 0 112 21" fill="none" xmlns="http://www.w3.org/2000/svg">
<path d="M-0.000156224 17.468L0.0878438 2.706L0.0218438 0.285997C0.219844 0.263997 0.439844 0.263997 0.659844 0.263997C3.84984 0.153998 8.64584 -3.09944e-06 8.88784 4.136C8.95384 5.302 8.62384 6.314 7.91984 7.106C7.76584 7.26 7.61184 7.414 7.43584 7.568C7.74384 7.744 8.02984 7.986 8.31584 8.25C9.45984 9.35 10.0098 10.846 9.94384 12.716C9.89984 14.168 9.37184 15.356 8.35984 16.236C6.92984 17.446 4.86184 17.732 3.07984 17.732C1.89184 17.732 0.835844 17.6 0.197844 17.512L-0.000156224 17.468ZM6.44584 4.268C6.40184 3.278 5.56584 2.838 3.87184 2.706L3.84984 6.38C5.19184 6.182 5.80784 5.786 6.09384 5.478C6.26984 5.28 6.48984 4.95 6.44584 4.268ZM6.77584 14.366C7.25984 13.97 7.50184 13.398 7.52384 12.628C7.54584 11.484 7.25984 10.626 6.62184 10.01C5.85184 9.262 4.70784 9.02 3.82784 8.954L3.80584 15.268C4.92784 15.202 6.07184 14.982 6.77584 14.366ZM17.2023 7.722C18.9843 8.602 20.3703 9.57 20.3703 12.122C20.3703 15.202 18.9843 17.754 16.3883 17.754C16.3883 17.754 14.2323 17.754 11.0643 17.754L11.2623 0.263997C12.6923 0.153998 14.1443 0.153998 14.1443 0.153998C17.5103 0.0439963 18.7423 2.398 18.7423 4.444C18.7423 5.984 18.0163 6.71 17.2023 7.722ZM13.3083 2.662L13.2643 6.248C13.6823 6.248 14.2323 6.248 14.2323 6.248C15.3103 6.248 16.3883 5.06 16.3883 4.048C16.3883 3.014 15.1123 2.574 14.4963 2.618C14.4963 2.618 13.8803 2.618 13.3083 2.662ZM15.1563 15.092C17.2023 15.092 17.9283 13.838 17.9283 12.386C17.9283 10.934 16.3883 9.878 15.5303 9.922C15.5303 9.922 14.6503 9.922 13.8583 9.988L13.7703 15.092C14.3643 15.092 15.1563 15.092 15.1563 15.092ZM29.5807 3.212H24.9167V6.006H27.7987V9.064H24.9167V14.124H29.5807V17.732H24.9167H21.4627V14.124V9.064V6.006V3.212V0.153998H24.9167H29.5807V3.212ZM40.3815 13.882H41.4595V20.284H38.9955V17.71H32.7035V20.284H30.2395V13.882H31.8455C32.2855 10.604 32.3735 5.544 32.4395 2.75C32.4615 1.584 32.4615 0.659998 32.5055 0.153998L40.1395 0.263997L40.3815 13.882ZM34.8815 4.026C34.7935 7.656 34.6615 11.198 34.3315 13.882H36.5535L36.3555 4.048L34.8815 4.026ZM52.5535 0.945997L52.7075 17.754H50.3975L50.3535 8.316L45.7115 16.984H45.6675L42.5435 16.918L42.7415 0.153998L45.0955 0.219997L45.1175 10.362L50.1335 0.945997H52.5535ZM62.569 0.989997V4.488H59.753L59.841 16.72H56.673L56.585 4.488H53.593V0.989997H62.569ZM71.5612 3.212H66.8972V6.006H69.7792V9.064H66.8972V14.124H71.5612V17.732H66.8972H63.4432V14.124V9.064V6.006V3.212V0.153998H66.8972H71.5612V3.212ZM88.8407 0.945997L88.9947 17.754H86.6847L86.6407 8.316L81.9987 16.984H81.9547L78.8307 16.918L79.0287 0.153998L81.3827 0.219997L81.4047 10.362L86.4207 0.945997H88.8407ZM92.9162 17.754H90.3862L90.3202 0.153998L92.7842 0.197997L95.4902 8.404L98.3722 0.307997L100.836 0.241996L101.474 17.49L98.9442 17.578L98.5702 7.194L96.2162 12.892L94.6542 12.87L92.8722 8.536L92.9162 17.754ZM111.625 16.17L108.303 16.192L108.281 10.428L105.201 16.082H102.363L106.125 8.932C103.859 8.316 103.397 5.852 103.397 4.774C103.397 3.762 103.925 2.816 104.849 2.134C106.125 1.166 108.391 0.747996 111.515 0.945997L111.625 16.17ZM105.267 5.082C105.267 6.204 105.773 7.216 108.237 7.524L108.215 2.904C107.533 2.992 106.235 2.97 105.575 4.004C105.421 4.246 105.267 4.774 105.267 5.082Z" fill="#FFEED5"/>
</svg>
