<svg width="291" height="139" viewBox="0 0 291 139" fill="none" xmlns="http://www.w3.org/2000/svg">
<g opacity="0.3">
<path d="M283.364 0.756128C283.431 0.957852 283.559 1.29406 283.731 1.6975L273.6 1.6975C276.657 1.09233 280.733 0.457276 283.341 0.756128M286.339 2.63141C286.646 3.45325 287.575 5.54522 289.134 5.90384L289.134 7.16649C287.29 6.68832 285.837 4.43199 284.945 2.63141L286.339 2.63141ZM286.339 135.247L284.997 135.247C285.889 133.461 287.32 131.279 289.134 130.809L289.134 131.974C287.575 132.333 286.646 134.425 286.339 135.247M283.341 137.219C280.569 137.533 276.192 136.816 273.09 136.181L283.746 136.181C283.559 136.629 283.416 136.995 283.341 137.219M0.914197 131.989L0.914197 130.114C2.24803 132.542 4.79579 134.305 6.46682 135.247L3.74671 135.247C3.43948 134.425 2.5103 132.333 0.944171 131.974M3.74671 2.63141L6.46682 2.63141C4.79579 3.55785 2.24803 5.33602 0.936679 7.77165L0.936679 5.90383C2.5028 5.54521 3.43199 3.45325 3.73922 2.63141M6.89395 3.25901C7.41099 2.96016 7.83063 2.75095 8.0929 2.63141L279.355 2.63141C276.506 3.02621 273.635 3.23586 270.76 3.25901L6.89395 3.25901ZM281.962 135.247C278.247 134.622 274.489 134.285 270.722 134.238L6.25701 134.238C4.25626 133.005 1.49868 130.801 0.936678 127.902L0.936679 9.97568C1.47621 7.07682 4.26376 4.8728 6.2645 3.63257L270.782 3.63257C274.549 3.58826 278.307 3.25354 282.022 2.63141L284.203 2.63141C285.162 4.64866 286.886 7.45039 289.231 7.93603L289.231 130.039C286.923 130.517 285.215 133.237 284.248 135.269L281.962 135.247ZM8.0854 135.247C7.83062 135.12 7.41099 134.91 6.88645 134.612L270.745 134.612C273.621 134.637 276.492 134.85 279.34 135.247L8.0854 135.247ZM270.1 1.6975L3.05732 1.6975L2.99737 2.02624C2.7351 2.85555 1.77594 5.01475 0.509554 5.01475L1.58632e-06 5.01475L6.18331e-08 132.856L0.472086 132.856C1.73847 132.856 2.72011 135.015 2.9599 135.844L3.05732 136.173L269.703 136.173C271.614 136.659 279.505 138.512 283.693 137.929L283.926 137.929L283.993 137.705C283.993 137.705 284.21 137.062 284.593 136.21L287.05 136.21L287.155 135.882C287.41 135.045 288.362 132.893 289.643 132.893L290.108 132.893L290.108 5.05211L289.643 5.05211C288.369 5.05211 287.395 2.88544 287.155 2.0636L287.05 1.73486L284.548 1.73486C284.195 0.927965 284.001 0.35268 283.993 0.337738L283.926 0.113597L283.693 0.113597C279.737 -0.439277 272.536 1.17452 270.1 1.76475" fill="white"/>
</g>
</svg>
