<svg width="258" height="41" viewBox="0 0 258 41" fill="none" xmlns="http://www.w3.org/2000/svg">
<g clip-path="url(#clip0_224_1083)">
<path d="M1.37256 20.673C1.37256 10.169 9.88773 1.65385 20.3917 1.65385H26.2683C36.7723 1.65385 45.2875 10.169 45.2875 20.673C45.2875 31.177 36.7723 39.6922 26.2683 39.6922H20.3917C9.88772 39.6922 1.37256 31.177 1.37256 20.673Z" fill="#2D2D2D"/>
<path d="M8.23389 11.5769H259.372V17.3951C259.372 27.8827 250.87 36.3845 240.383 36.3845H8.23389V11.5769Z" fill="#2D2D2D"/>
<path d="M8.23389 4.96153H240.383C250.87 4.96153 259.372 13.4634 259.372 23.9509V29.7691H8.23389V4.96153Z" fill="#2D2D2D"/>
<path d="M22.113 11.1731C20.232 11.6673 19.4827 12.6559 19.2992 14.8467C19.238 15.5413 19.131 16.1692 19.0698 16.2493C18.6569 16.7436 18.871 17.9592 19.5286 18.8008C19.7733 19.1348 20.125 19.6958 20.3085 20.0565C20.492 20.4172 20.7214 20.7912 20.8437 20.8714C20.9661 20.9515 21.0578 21.0717 21.0578 21.1252C21.0578 21.192 20.4614 21.4859 19.7274 21.7931C16.5313 23.129 16.2254 23.316 15.5678 24.4381C15.2161 25.0392 14.895 26.4686 15.0326 26.7892C15.0938 26.9228 15.3079 27.0831 15.5372 27.1499C16.2407 27.3903 18.9781 27.8312 19.4062 27.7777C19.6356 27.7376 19.8497 27.7777 19.8803 27.8579C19.9415 28.0182 25.3244 28.0583 27.0066 27.898C28.2912 27.7911 30.8756 27.3636 31.472 27.1499C32.0226 26.9762 32.099 26.709 31.9002 25.7205C31.732 24.8656 30.9521 23.5431 30.4168 23.1824C30.1722 23.0087 29.591 22.7549 26.9302 21.6462L25.9973 21.2588L26.5478 20.2836C26.8537 19.7626 27.3125 19.068 27.5419 18.7474C28.1077 18.026 28.3218 16.9707 28.0312 16.3963C27.9089 16.1692 27.7712 15.4612 27.7254 14.82C27.5724 12.6826 26.7008 11.6005 24.728 11.1196C23.9787 10.946 22.9235 10.9593 22.113 11.1731Z" fill="#E0D0B8"/>
<path d="M38.2058 6.19011C34.9874 5.41914 31.8375 4.36091 28.7903 3.02695H34.8082C36.0437 3.94659 37.1784 5.00746 38.1914 6.19011M51.062 5.58472C48.3646 6.89322 45.3625 7.34558 42.424 6.88631C42.1361 6.4474 41.8337 6.00849 41.517 5.58472H51.062ZM256.013 12.1078V14.3326C253.407 10.2614 248.037 7.26467 244.294 5.58472H250.499C251.921 8.11211 253.793 10.3271 256.013 12.1078ZM250.499 35.4153H244.309C248.052 33.7353 253.422 30.7538 256.028 26.6674V28.9225C253.805 30.6929 251.928 32.8974 250.499 35.4153ZM42.3952 34.1137C45.3337 33.6623 48.3336 34.1144 51.0332 35.4153H41.4882C41.8049 34.9915 42.1073 34.5677 42.3952 34.1137ZM34.8226 37.9731H28.7903C31.8375 36.6391 34.9874 35.5809 38.2058 34.8099C37.1928 35.9925 36.0581 37.0534 34.8226 37.9731ZM45.3321 8.17276C47.5217 11.8838 48.7294 16.1419 48.8305 20.5076C48.7267 24.8728 47.5192 29.1302 45.3321 32.8424C44.6603 32.8424 43.9261 32.8424 43.1294 32.8424C45.2389 29.0934 46.3526 24.8179 46.3543 20.4622C46.3614 16.1228 45.2681 11.8598 43.187 8.11222C43.9788 8.11222 44.7131 8.11222 45.3897 8.11222M241.372 5.58472C244.827 6.93171 253.897 10.9727 256.013 16.7542V24.2156C253.897 30.0122 244.827 34.038 241.372 35.385H53.02C51.1751 33.8466 48.9093 32.9713 46.5558 32.8878C48.6746 29.1248 49.8302 24.8492 49.9103 20.4773C49.8329 16.105 48.677 11.8286 46.5558 8.06681C48.9125 7.98756 51.181 7.10589 53.02 5.55445L241.372 5.58472ZM2.8763 20.5076C2.87427 17.0786 3.65827 13.6997 5.16189 10.6568C6.66552 7.61392 8.8445 4.99677 11.5143 3.02695H23.1324C28.3535 5.13783 33.7731 6.65983 39.2999 7.56737C41.997 11.2692 43.4638 15.7993 43.475 20.4622C43.4638 25.125 41.997 29.6552 39.2999 33.357C33.778 34.2655 28.3633 35.7875 23.1468 37.8974H11.5143C8.8547 35.9382 6.6818 33.3359 5.17855 30.3096C3.67531 27.2833 2.88573 23.9216 2.8763 20.5076ZM10.2762 0.257291C7.11385 2.4849 4.52205 5.49701 2.7298 9.02751C0.937542 12.558 0 16.4982 0 20.5C0 24.5018 0.937542 28.442 2.7298 31.9725C4.52205 35.503 7.11385 38.5151 10.2762 40.7427L10.6505 41H35.7007L36.0607 40.7427C37.4002 39.8047 38.6405 38.7189 39.7606 37.5039H251.608L251.881 36.9893C252.716 35.4758 255.322 31.5257 257.424 30.4814L258 30.1938V10.8062L257.424 10.5338C255.322 9.48948 252.716 5.46364 251.881 4.01071L251.593 3.51126H39.7606C38.6465 2.29095 37.4109 1.20003 36.0751 0.257291L35.7007 0H10.6361L10.2762 0.257291Z" fill="#FCE9CE"/>
<path opacity="0.5" d="M57.1841 25.5769V15.3951H60.7438C61.4531 15.3951 62.0381 15.5177 62.4988 15.763C62.9595 16.0049 63.3025 16.3314 63.5279 16.7424C63.7533 17.15 63.8659 17.6025 63.8659 18.0996C63.8659 18.5371 63.7881 18.8984 63.6323 19.1834C63.4798 19.4685 63.2776 19.6938 63.0257 19.8596C62.7772 20.0253 62.507 20.1479 62.2154 20.2275V20.3269C62.5269 20.3468 62.8401 20.4562 63.155 20.655C63.4699 20.8539 63.7334 21.1389 63.9455 21.5101C64.1576 21.8813 64.2637 22.3354 64.2637 22.8723C64.2637 23.3828 64.1477 23.8418 63.9157 24.2495C63.6837 24.6571 63.3174 24.9803 62.8169 25.2189C62.3165 25.4576 61.6652 25.5769 60.8631 25.5769H57.1841ZM58.4171 24.4831H60.8631C61.6685 24.4831 62.2402 24.3274 62.5783 24.0158C62.9197 23.7009 63.0904 23.3198 63.0904 22.8723C63.0904 22.5276 63.0025 22.2095 62.8269 21.9178C62.6512 21.6228 62.401 21.3875 62.0762 21.2118C61.7514 21.0329 61.3669 20.9434 60.9228 20.9434H58.4171V24.4831ZM58.4171 19.8695H60.704C61.0752 19.8695 61.41 19.7966 61.7083 19.6508C62.0099 19.5049 62.2485 19.2994 62.4242 19.0343C62.6032 18.7691 62.6926 18.4576 62.6926 18.0996C62.6926 17.6522 62.5369 17.2727 62.2253 16.9611C61.9138 16.6463 61.4199 16.4888 60.7438 16.4888H58.4171V19.8695ZM66.1305 25.5769V17.9405H69.2527C70.0746 17.9405 70.7276 18.1261 71.2115 18.4973C71.6954 18.8686 71.9373 19.3591 71.9373 19.9689C71.9373 20.4329 71.7998 20.7926 71.5247 21.0478C71.2496 21.2997 70.8966 21.4704 70.4657 21.5598C70.7475 21.5996 71.0209 21.699 71.286 21.8581C71.5545 22.0172 71.7766 22.236 71.9522 22.5144C72.1279 22.7895 72.2157 23.1276 72.2157 23.5286C72.2157 23.9197 72.1163 24.2694 71.9174 24.5776C71.7186 24.8858 71.4335 25.1294 71.0623 25.3084C70.6911 25.4874 70.247 25.5769 69.7299 25.5769H66.1305ZM67.2441 24.503H69.7299C70.1343 24.503 70.4508 24.4069 70.6795 24.2147C70.9082 24.0224 71.0225 23.7606 71.0225 23.4292C71.0225 23.0347 70.9082 22.7249 70.6795 22.4995C70.4508 22.2708 70.1343 22.1564 69.7299 22.1564H67.2441V24.503ZM67.2441 21.1422H69.2527C69.5675 21.1422 69.8377 21.0991 70.063 21.013C70.2884 20.9235 70.4608 20.7975 70.5801 20.6351C70.7027 20.4694 70.764 20.2739 70.764 20.0485C70.764 19.727 70.6298 19.4751 70.3613 19.2928C70.0929 19.1072 69.7233 19.0144 69.2527 19.0144H67.2441V21.1422ZM77.1935 25.736C76.4577 25.736 75.823 25.5736 75.2894 25.2488C74.7591 24.9206 74.3498 24.4633 74.0614 23.8766C73.7764 23.2866 73.6339 22.6006 73.6339 21.8184C73.6339 21.0362 73.7764 20.3468 74.0614 19.7502C74.3498 19.1503 74.7508 18.6829 75.2646 18.3482C75.7816 18.0101 76.3848 17.8411 77.0742 17.8411C77.4719 17.8411 77.8647 17.9074 78.2525 18.04C78.6403 18.1725 78.9933 18.388 79.3114 18.6863C79.6296 18.9812 79.8832 19.3723 80.0721 19.8596C80.261 20.3468 80.3555 20.9467 80.3555 21.6593V22.1564H74.4691V21.1422H79.1623C79.1623 20.7114 79.0761 20.3269 78.9038 19.9888C78.7347 19.6508 78.4928 19.3839 78.1779 19.1884C77.8664 18.9928 77.4985 18.8951 77.0742 18.8951C76.6069 18.8951 76.2025 19.0111 75.8612 19.2431C75.5231 19.4718 75.2629 19.7701 75.0806 20.138C74.8983 20.5059 74.8072 20.9003 74.8072 21.3212V21.9973C74.8072 22.574 74.9066 23.0629 75.1055 23.464C75.3076 23.8617 75.5877 24.165 75.9457 24.3738C76.3036 24.5793 76.7196 24.682 77.1935 24.682C77.5018 24.682 77.7802 24.6389 78.0288 24.5527C78.2807 24.4633 78.4978 24.3307 78.68 24.155C78.8623 23.976 79.0032 23.754 79.1026 23.4888L80.2362 23.807C80.1168 24.1915 79.9163 24.5295 79.6346 24.8212C79.3529 25.1096 79.0049 25.3349 78.5906 25.4973C78.1763 25.6564 77.7106 25.736 77.1935 25.736ZM81.3249 27.7644V24.4831H81.9613C82.1171 24.3207 82.2513 24.1451 82.364 23.9562C82.4767 23.7672 82.5745 23.5435 82.6573 23.285C82.7435 23.0231 82.8164 22.705 82.8761 22.3304C82.9357 21.9526 82.9888 21.4969 83.0352 20.9633L83.2937 17.9405H88.146V24.4831H89.3192V27.7644H88.146V25.5769H82.4982V27.7644H81.3249ZM83.2937 24.4831H86.9727V19.0343H84.3874L84.1886 20.9633C84.1057 21.762 84.003 22.4597 83.8803 23.0563C83.7577 23.6529 83.5621 24.1285 83.2937 24.4831ZM92.0499 23.8468L95.7289 17.9405H97.0811V25.5769H95.9078V19.6706L92.2488 25.5769H90.8766V17.9405H92.0499V23.8468ZM98.1911 19.0343V17.9405H104.396V19.0343H101.89V25.5769H100.717V19.0343H98.1911ZM108.912 25.736C108.176 25.736 107.542 25.5736 107.008 25.2488C106.478 24.9206 106.069 24.4633 105.78 23.8766C105.495 23.2866 105.353 22.6006 105.353 21.8184C105.353 21.0362 105.495 20.3468 105.78 19.7502C106.069 19.1503 106.47 18.6829 106.983 18.3482C107.5 18.0101 108.104 17.8411 108.793 17.8411C109.191 17.8411 109.583 17.9074 109.971 18.04C110.359 18.1725 110.712 18.388 111.03 18.6863C111.348 18.9812 111.602 19.3723 111.791 19.8596C111.98 20.3468 112.074 20.9467 112.074 21.6593V22.1564H106.188V21.1422H110.881C110.881 20.7114 110.795 20.3269 110.623 19.9888C110.453 19.6508 110.212 19.3839 109.897 19.1884C109.585 18.9928 109.217 18.8951 108.793 18.8951C108.326 18.8951 107.921 19.0111 107.58 19.2431C107.242 19.4718 106.982 19.7701 106.799 20.138C106.617 20.5059 106.526 20.9003 106.526 21.3212V21.9973C106.526 22.574 106.625 23.0629 106.824 23.464C107.026 23.8617 107.306 24.165 107.664 24.3738C108.022 24.5793 108.438 24.682 108.912 24.682C109.221 24.682 109.499 24.6389 109.748 24.5527C109.999 24.4633 110.217 24.3307 110.399 24.155C110.581 23.976 110.722 23.754 110.821 23.4888L111.955 23.807C111.836 24.1915 111.635 24.5295 111.353 24.8212C111.072 25.1096 110.724 25.3349 110.309 25.4973C109.895 25.6564 109.429 25.736 108.912 25.736ZM118.97 23.8468L122.649 17.9405H124.001V25.5769H122.828V19.6706L119.169 25.5769H117.797V17.9405H118.97V23.8468ZM130.326 23.986L132.991 17.9405H134.105L130.803 25.5769H129.849L126.607 17.9405H127.701L130.326 23.986ZM127.323 17.9405V25.5769H126.15V17.9405H127.323ZM133.329 25.5769V17.9405H134.502V25.5769H133.329ZM141.244 25.5769V19.0144H139.215C138.758 19.0144 138.398 19.1204 138.137 19.3326C137.875 19.5447 137.744 19.8364 137.744 20.2076C137.744 20.5722 137.861 20.8588 138.097 21.0677C138.335 21.2765 138.662 21.3809 139.076 21.3809H141.542V22.4746H139.076C138.559 22.4746 138.113 22.3835 137.739 22.2012C137.364 22.0189 137.076 21.7587 136.874 21.4206C136.672 21.0793 136.57 20.6749 136.57 20.2076C136.57 19.7369 136.677 19.3326 136.889 18.9945C137.101 18.6564 137.404 18.3963 137.798 18.214C138.196 18.0317 138.669 17.9405 139.215 17.9405H142.357V25.5769H141.244ZM136.153 25.5769L138.32 21.7786H139.593L137.426 25.5769H136.153Z" fill="#FCE9CE"/>
</g>
<defs>
<clipPath id="clip0_224_1083">
<rect width="258" height="41" fill="white"/>
</clipPath>
</defs>
</svg>
