<?xml version="1.0" encoding="UTF-8"?>
<svg id="_Слой_2" data-name="Слой 2" xmlns="http://www.w3.org/2000/svg" viewBox="0 0 100.68 91.07">
  <defs>
    <style>
      .cls-1 {
        fill: #00b0a8;
      }

      .cls-2 {
        fill: #fff;
      }
    </style>
  </defs>
  <g id="white_logo" data-name="white logo">
    <g>
      <path class="cls-2" d="M78.85,45.32l-12.53-6.46-.36.36c0-.32-.04-.59-.36-.75l-5.34-2.8c-.44-.13.28.71.14.89-.6.25-.9-.22-1.32-.34-.67-.19-1.93-.32-2.54-.57-.07-.03-1.18-.95-1.23-1.01-.25-.34.15-1-.78-.96-.34.02-.64.33-.92-.14-.16-.31.07-.97.05-1.34-3.95-1.95-7.84-4.05-11.75-6.09l-.05.12-.07-.11c-.19-.1-1.2-.61-1.3-.68h0c-.22.05-.25.03-.24-.2-.22-.06-.49-.16-.7-.28h0c-.23.05-.25.04-.24-.2-.08-.04-.17-.06-.23-.09l-.13-.05s-.07-.03-.1-.04c-.22-.12-.49-.23-.59-.28l-.06-.05s0-.02,0-.02l-.05-.04c-.51-.27-1.04-.77-1.67-.98h0s-.09-.02-.14-.03c-.11-.01-.23-.03-.36-.05-.06,0-.13-.01-.19-.02-.07,0-.14-.02-.2-.04,0,0-.02,0-.02,0h0s.03.39.03.39c.07.75.17,1.5.21,2.25.25,3.98.56,7.94.85,11.93.1,1.41.05,3.34.24,4.91.04.37.1.73.17,1.06,0,.02.01.03.01.05s0,.03.01.05c.02.06.05.11.08.15.03.03.05.06.08.09.2.18.47.17.48.62,0,.09-.03.14-.07.17-.13.11-.38.07-.47.23-.05.09,0,2,.07,2.07.1-.06.19-.1.28-.14.05-.02.1-.04.15-.05.25-.09.49-.14.76-.16.12-.01.24-.01.37,0,.04.12.05.21.05.28,0,.02,0,.04-.01.05-.04.15-.21.11-.22.14h0s.02.16.02.22c0,.18.04.37.05.56.09.07.53-.14.86-.13.04,0,.08,0,.11,0,.03.01.07.02.1.03.03.01.05.03.08.05.02.01.04.04.05.06.06.09.07.23.03.44-.03.17-.16.41-.29.62-.05.11-.12.22-.17.3-.03.04-.04.08-.05.12-.02.03-.03.06-.02.08,0,.06.02.12.05.16.02.05.05.08.07.11.02.02.04.04.05.07.03.02.04.04.05.07.02.01.03.03.03.05v.06c.02.14-.07.27-.04.35.05.18.33.11.42.17.14.09.17.26.28.46.11.2.3.43.75.67.22.11.23,0,.48.29.06-.02.19,0,.22-.02.08-.06.01-.24.36-.24.29,0,.32.2.45.39h0s.05-.01.07-.01c.02-.01.05-.01.06-.01.07,0,.12,0,.16.03.02,0,.03.02.05.04.03.03.05.08.07.11.02.04.03.08.04.11,0,.02,0,.02.02.03.31.25.42.44.63.63.03.02.11.02.2.04.02,0,.02,0,.04.01.02,0,.05.02.08.04.02.01.03.03.04.05.03.05.03.12.01.21-.02.03-.04.05-.07.08-.03.02-.05.04-.08.05-.03.02-.05.03-.08.04-.05.02-.1.04-.14.07-.02.01-.04.04-.05.06,0,0-.01.03-.02.05,0,.05,0,.12.04.21.13.01.31-.07.49-.02.15.03.83.71.94.86.55.81.09.79,1.15,1.3.02,0,.06,0,.1,0,.04-.01.09-.02.11,0,0,0,.02.02.02.04.03.09,0,.27.04.41.01.02.02.05.04.07,0,0,.03.03.05.06.13.13.47.47.71.71.05.05.1.1.13.13.02.02.04.04.05.05.02.02.04.04.04.04,0,0,.02.02.04.04.12.09.29.13.3.18.03.09.03.17.01.22-.01.03-.03.06-.05.08-.02.03-.06.04-.11.05-.01,0-.04.01-.06.01-.04,0-.09,0-.14,0-.05,0-.11-.01-.15-.02-.05,0-.1,0-.14-.01-.07-.02-.12-.01-.14,0,.03.12,0,.34.02.5,0,.07.02.13.05.16.02.01.28.05.43.15.03.02.06.04.08.07.04.04.06.12-.02.21h0s-.09.07-.15.07c-.05,0-.09,0-.14-.01-.05,0-.11-.02-.16-.04-.02,0-.03,0-.05-.02-.04-.01-.08-.03-.12-.05-.05-.03-.11-.06-.17-.1-.07-.04-.13-.09-.19-.14-.05-.05-.11-.1-.16-.16-.17-.18-.26-.38-.21-.55h0c-.07-.03-.14-.01-.21.01-.17.06-.33.2-.49.26-.04.02-.09.03-.12.04-.06,0-.11,0-.17-.04-.12-.08-.19-.38-.13-.61.01-.06.03-.11.06-.15.02-.03.05-.06.08-.08s.05-.03.09-.03h.05c-.05-.37-.11-.57-.19-.89h-.02s-.1-.01-.14-.05c-.03-.02-.04-.04-.06-.07-.03-.02-.04-.04-.06-.07-.04-.04-.07-.11-.1-.16-.03-.06-.06-.12-.09-.17-.03-.05-.05-.09-.08-.12-.06-.09-.09-.17-.13-.23-.03-.05-.05-.08-.07-.11-.02-.03-.03-.05-.05-.07-.02-.01-.03-.03-.04-.04,0,0,0,0,0,0-.03-.01-.05-.01-.09-.02,0,0-.02,0-.04,0-.06-.01-.16-.04-.31-.12-.02,0-.03-.01-.04-.03-.03-.02-.08-.05-.12-.09-.11-.09-.26-.2-.4-.3-.05-.04-.1-.08-.16-.12h0c-.05-.03-.11-.07-.16-.1-.13-.06-.24-.1-.31-.07-.02,0-.02,0-.03.01,0,0-.01.02-.02.03-.02,0-.02.02-.02.03,0,.02-.01.05-.02.07,0,.03,0,.07,0,.11,0,.04,0,.09,0,.14.01.14.03.3-.03.44-.01.04-.03.08-.06.11-.02.03-.04.04-.07.06,0,.02-.01.02-.02.02-.03.03-.07.04-.12.05-.08.02-.18.03-.3.03-.04,0-.09,0-.12-.01-.05-.01-.1-.02-.14-.04-.04-.02-.08-.03-.11-.05,0,0-.02,0-.03-.01-.05-.04-.1-.08-.15-.13-.13-.14-.24-.31-.39-.43-.04-.03-.09-.06-.13-.08-.22-.11-.48-.13-.57-.38-.04-.09-.05-.23-.03-.41h0s.27-.02.5,0c.09,0,.17,0,.23.03.07,0,.12.02.15.03.12.06.63.9.97.55,0,0,0-.02.02-.03.01-.03.03-.08.06-.15.06-.16.13-.39.14-.57.01-.13,0-.24-.07-.27-.58-.4-1.14-.47-1.62-.99-.09-.1-.07-.31-.08-.32-.02-.02-.04.04-.24-.2-.08-.1-.18-.26-.26-.32,0,0-.02,0-.03,0s-.03.01-.05.02c-.05.03-.11.04-.16-.22-.01-.07,0-.15-.02-.22l-1.1-.85s-.08-.03-.13-.06c-.02,0-.03-.01-.04-.02-.09-.04-.18-.09-.26-.14-.1-.06-.2-.11-.3-.16-.04-.02-.08-.04-.13-.05-.08-.04-.17-.07-.25-.07-.02,0-.06-.01-.08,0-.07-.01-.13-.01-.2,0,0,.55.26,1.21-.07,1.71.03.18.02.38.05.56,0,.02.11.02.14.25.23,1.54.09,3.09.4,4.61.66.06.41.53.69.95.15.24.37.23.5.38.21.25.45.85.56.96.04.05.83.28.9.25.29-.09.23-.52.28-.56.07-.07.33-.02.46-.07.17-.07.16-.26.23-.33.5-.56.33.29.45.56.1.22.51.09.51.64,0,.25-.21.2-.27.3-.09.19.03.41-.04.56-.03.08-.4.09-.27.44.67.53.44-.45.71-.57.21-.09.54.1.75.04.11-.03.33-.82,1.07-.65.05,0,.81.33.85.36.14.09.45.63.35.75l-1.36-.1c-.1.59,1.07.79,1.02,1.21-.01.11-1.05.41-.82,1.04.58.18.79-.79,1.02-.88.2-.08.58.08.64.34.05.24-.32.17-.54.38-.28.23-.26.63-.43.79-.1.09-.64.19-.36.47.03.04.52-.38.79.24.24.52-.3.31-.43.63-.31.71.99-.15,1.06-.09-.47,2.21-2.37-.17-3.38-.25-.27,0-.82.17-1.16.14-.23.36.2.83-.3.99-.52.17-.33-.17-.59-.4-.17-.17-.43-.14-.5-.2-.1-.08-.05-.33-.26-.39-.58-.16-.49.28-.62.49-.09.15-.25.12-.27.14-.09.09-.18.1-.21.13,0,0,.05.16,0,.21-.1.08-.39.02-.44.06-.15.17.73,3.98.41,4.61.23.19,3.96-2.46,4.52-2.72.11-.88.16-.38.66-.48.27-.06,2.32-1.41,2.74-1.67.81-.53,1.49-1.1,2.28-1.53.34-.19,1.39-.77,1.63-1,.17-.16.33-.65.58-.79.25-.14.6-.05.78-.18.29-.21-.12-.35-.21-.5-.09-.15-.09-.47-.28-.54-.39-.14-.23.33-.32.57-.12.33-1.43,1.21-1.62,1.08-.03-.03-.02-.3-.15-.38-.13-.08-.41.02-.45-.02-.05-.04.05-.75-.37-.87-.27-.07-.13.46-.47.39-.1-.08.29-1.07.34-1.11.2-.18.89.29.74-.38-.07-.28-.43-.46-.48-.71h0s-.01-.06-.02-.1c-.01-.06-.02-.13-.02-.19,0-.02,0-.03,0-.05,0,0,0,0,0,0l-.11-.05s-.02-.06-.02-.09c0-.11.06-.09.22-.1.03-.02.16,0,.23-.02-.13-.32.39-.4.33-.03.32.03.73.26,1.13.21.05.02.1.05.15.08.05.03.09.06.14.1.09.07.16.15.23.25.22,0,.49-.22.71-.17.16.03.16.3.28.3.16,0,1-.24,1.04-.21.02.41-.2.88-.65.86-.22-.02-.31-.24-.53-.19.05.56.72.83.69,1.41l.42-.12,6.08-3.86c.39-.36.11-.38.13-.72,0-.1.14-.18.14-.36,0-.09-.18-.35-.12-.41.21-.24.53.33.57.48.03.12-.08.34-.05.38.02,0,.33-.01.34-.03.06-.09-.04-1.18.46-1.44.28-.13.79.04,1.13-.17.2.04.17.48.46.26l7.59-4.73c2.25-1.99,5.98-3.78,8.55-5.57.14-.1.69-.39.52-.56ZM65.32,39.98s.09-.06.14-.08c.12-.05.24-.05.33.03.09.07-.02.48-.1.71-.02.07-.03.11-.04.15-.02.07-.06.2-.12.32-.01.03-.03.06-.04.08-.01.03-.03.06-.05.07-.04.05-.08.08-.14.07-.07-.02-.12-.04-.17-.07-.04-.02-.08-.04-.1-.07-.09-.07-.14-.16-.17-.24-.02-.06-.03-.13-.02-.19,0-.05,0-.1.03-.15,0-.04.02-.08.04-.12.09-.21.24-.4.4-.51ZM64.78,44.23c.09-.04.18-.06.26-.07.04,0,.07,0,.11,0,.02,0,.05,0,.07,0,.04,0,.08.02.12.04.12.05.21.15.26.27.01.02.02.05.03.08.02.05.03.11.04.16.01.16-.04.3-.15.33-.12.04-.74-.44-.89-.55-.02-.07,0-.14.04-.18.01-.02.03-.04.05-.05.02-.02.05-.03.07-.04ZM64.24,39.86c.01-.07.03-.12.06-.18.01-.03.03-.07.06-.09,0-.02.01-.03.02-.03.02-.03.06-.06.09-.07.14-.06.24-.04.31.03.02.02.04.04.05.08.09.22-.06.62-.42.57-.06,0-.09-.03-.12-.06-.03-.05-.04-.08-.04-.14,0-.02,0-.06,0-.1ZM57.37,42.04s-.01-.08,0-.12c0-.02.01-.05.03-.07.02-.03.04-.07.07-.1.02-.03.05-.06.07-.09.03-.03.05-.04.08-.06,0,0,.02-.02.03-.02.03-.02.06-.03.09-.03.02,0,.03,0,.05.01l.04.45-.45.04h0ZM56.21,42.24c.03-.07.06-.13.1-.18.04-.06.08-.11.11-.16,0,0,0,0,0,0,.04-.04.06-.09.08-.12.03-.06.04-.13.05-.2.03-.15.04-.31.14-.41.02-.03.05-.04.08-.06.05-.02.11-.03.18-.03.14.12.2.31.22.52,0,.1,0,.22-.01.32-.02.1-.04.2-.08.28-.03.06-.05.12-.08.17-.01.03-.03.04-.04.06-.02.03-.04.06-.07.08-.02.03-.04.04-.07.06-.02.02-.05.04-.08.05-.07.04-.15.05-.23.04-.06,0-.11-.01-.15-.03-.04-.01-.07-.03-.1-.05-.12-.07-.1-.18-.05-.32ZM55.96,41.81s.04.04.05.08c0,0,0,0,0,.02.01.03.02.07.03.11s0,.09-.01.15h0c-.12.05-.18.04-.21,0-.06-.07,0-.25-.06-.29-.09-.06-.48.08-.57-.13-.14-.36.24-.47.52-.45,0,.02,0,.03,0,.05,0,0,0,0,0,0-.02.15.04.25.1.32.05.05.1.1.13.16ZM54.88,40.21c.02-.07.05-.12.1-.18.12-.16.31-.25.47-.18.04.02.09.06.12.1.03.04.04.11.05.19.01.15,0,.35.03.47-.18.04-.33.05-.45.04-.06,0-.11-.01-.15-.03-.06-.02-.1-.04-.13-.07-.03-.03-.05-.05-.06-.08-.04-.08-.03-.17,0-.27ZM52.88,38.51s.03-.09.04-.13c.01-.02.02-.04.03-.06.06-.1.14-.16.23-.09.32.2.02.96-.27.7-.04-.04-.05-.15-.05-.26,0-.05,0-.1.02-.15ZM52.93,40.45s.06.03.09.06c.03.03.05.06.07.1.04.07.08.14.13.17h0c.26.18.79.59,1.05.68.03.01.06.02.09.02.03,0,.07.01.1,0,.09,0,.18,0,.25,0,.02,0,.03,0,.05,0,.02,0,.03,0,.05.01.03.01.04.04.06.07.03.03.05.08.06.14.05.15.08.35.08.54,0,.05,0,.1,0,.14,0,.07-.02.15-.04.2,0,.02-.02.05-.03.08,0,.02-.03.04-.04.06-.01.02-.19.09-.39.17-.06.03-.12.05-.18.07-.21.08-.39.15-.41.15-.35,0-.93-.51-1.11-.53-.12-.02-.26.08-.39.09-.03,0-.07,0-.11-.01-.06-.02-.12-.06-.17-.15-.09-.16-.06-.32-.03-.45.02-.1.06-.18.03-.21h0s-.17-.06-.31-.13c-.03-.01-.05-.03-.08-.04-.03-.01-.05-.04-.08-.06-.05-.04-.09-.09-.11-.15-.2-.57.9-1.19,1.37-1ZM55.15,46.31h0s-.09.06-.16.07h-.03s-.05,0-.08,0c-.02,0-.05-.01-.07-.03,0,0-.02,0-.03-.01-.03-.01-.04-.03-.05-.05,0,0,0-.02-.02-.03,0-.02-.01-.02-.01-.04-.02-.06-.03-.14,0-.24.11-.53.65.12.46.34ZM53.15,49.33h-.04s0,0,0,0c-.41-.04-.12-.96.31-.93.09.22.06.91-.26.93ZM52.76,48.3s-.03-.01-.05-.03c-.02,0-.04-.02-.05-.04-.07-.06-.11-.13-.12-.21-.02-.18.11-.34.3-.36s.34.11.36.3c0,.09-.02.16-.08.23-.06.07-.14.11-.23.12-.04,0-.09,0-.13-.01ZM51.13,39.98s.01-.03.02-.03c.05-.05.11-.09.19-.1.16-.01.3.1.31.26s-.1.3-.26.31c-.08,0-.15-.02-.21-.06,0,0-.02-.02-.03-.03-.04-.04-.07-.11-.08-.17s.01-.13.05-.18ZM45.85,38.28c.05-.74.57-.46.89-.51.32-.04.44-.36.97-.29.16.03,1.01.53,1.04.63.07.25-.33.34-.38.45-.26.52-.01.31-.52.86-.25.28-.14.61-.79.46-.34-.08-.16-.6-.27-.74-.07-.1-1-.02-.94-.87ZM41.96,31.81c.11.04.18.1.23.16.05.06.08.12.1.19.04.13.03.28.08.36,0,0,.02.02.04.04.03.02.05.04.08.05.19.09.55.18.68.18.04.04,0,.18-.05.32-.03.09-.09.18-.15.25-.03.03-.06.07-.1.09-.08.05-.15.06-.22,0-.02,0-.03-.02-.04-.04-.17-.23,0-.63-.55-.52h0s0,.02-.01.05c0,.02-.02.06-.04.06-.88.22-.57-1.38-.04-1.18ZM41.05,35.6s.06.09.09.14c.04.05.07.11.09.16.04.08.07.16.09.24.01.04.01.08.02.12,0,.05,0,.1-.01.14,0,.05-.02.09-.05.12-.02.03-.04.04-.07.06-.04.02-.07.01-.1,0-.09-.06-.16-.21-.22-.36-.02-.04-.03-.08-.04-.11-.03-.07-.04-.13-.06-.17,0-.02-.01-.05-.01-.06-.03-.11-.05-.34.01-.42.02-.04.08-.05.17,0h0s.07.07.11.13ZM37.89,29.41c0-.1,0-.23.02-.35.02-.07.04-.15.09-.21.02-.03.04-.06.07-.08.02-.03.05-.05.08-.06.05-.03.12-.03.19-.03.51.09-.31.96-.43.83h0s-.01-.07-.01-.11ZM38.06,44.45c-.38.18-.1-.67.13-.46.08.07.01.39-.13.46ZM37.95,35.75c-.35-.71.6-.42.32-.88-.09-.16-.36-.1-.44-.16-.09-.08-.02-.27-.05-.31,0,0-.15.05-.19,0-.1-.1-.01-.41-.19-.59-.2-.21-.78-.02-.86-.48.17-.31.11-.85.19-1.08.08-.21.4-.23.53-.39.17-.21.51-1.31.09-.91-.02.02-.17.63-.42.38-.19-.18.15-.8.14-.98-.01-.16-.36-.36-.27-.48.16-.19.76.65.95.48,0-.81.37-.3.68-.41.23-.09.16-.74.84-.61.71.14.36.9.44,1.22.04.17.25.31.33.48.12.29.88,1.64.46,1.78-.26.09-1.8-.62-.79.96.22.36,1.1.57.87,1.08-.61.13-.45-.04-.65-.32-.15-.22-.51-.07-.24.4.06.09.21.13.29.29.06.13.01.42.07.47.04.04.28-.05.32-.01.09.06-.1,1.26-.22,1.36-.08.05-.28-.08-.38-.05-.22.05-.1.81-.54.49-.15-.11-.64-1.05-.85-1.31-.1-.14-.31-.12-.44-.39ZM40.31,39.6s0,.02-.01.04c-.01.03-.03.06-.05.09h0s-.06.05-.14.08c-.25.11-.76.31-.8.3-.17-.07-.39-.45-.38-.71,0-.02,0-.05,0-.07,0-.04.02-.08.05-.11.01-.02.04-.04.08-.05.09-.04.2-.06.32-.07.31-.03.66.03.83.19.09.07.13.18.08.31ZM40.22,45.45c-.05.04-.12.06-.2.07-.07.01-.13.02-.19.02-.17.02-.27,0-.5-.08-.05-.02-.18.08-.23-.04-.17-.48.12-.36.19-.4.29-.21.26-.37.5-.35.06,0,.15.03.27.06h0s.03,0,.05-.01c.05-.01.09-.02.14.01.22.18.26.44.1.62-.03.04-.07.08-.13.11h0ZM41,46.23c-.06.06-.14.11-.25.12-.09,0-.18-.02-.25-.07-.07-.06-.12-.14-.13-.24s.02-.19.08-.26c.06-.06.14-.11.23-.12.1,0,.19.02.26.07.07.06.12.14.13.24s-.02.19-.08.26ZM43.74,48.13c-.05-.04-.11-.07-.17-.11-.28-.2-.62-.44-.88-.64-.04-.02-.08-.05-.11-.08-.13-.11-.23-.19-.28-.22-.12-.12-.27-.3-.27-.48.14-.05.23-.03.3.02.05.04.1.08.17.11s.13.06.21.09c.13.07.28.13.43.2.13.06.25.13.38.21.02,0,.03.01.05.03.11.06.21.13.31.21.03.02.06.05.09.07.07.05.12.1.17.16.06.06.13.16.19.28.09.16.14.34.09.42-.04.05-.13.06-.31-.01-.03-.01-.07-.03-.13-.07-.07-.04-.15-.1-.26-.18ZM45.08,53.48c-.04.06-.12.1-.2.11-.17.02-.31-.1-.32-.26,0-.08.02-.15.07-.21.04-.05.11-.09.2-.1.06,0,.12.01.17.04.02,0,.03.01.03.02.06.04.11.11.11.19,0,.09-.02.16-.07.21ZM44.79,46.72s-.09.02-.13.03c-.1.03-.22.04-.33.03-.03,0-.06,0-.09,0-.06,0-.1,0-.14,0-.04,0-.07,0-.1-.02,0,0-.02,0-.02,0,0,0,0,0,0-.02,0-.02-.01-.06-.02-.11l-.02-.18s0-.1,0-.14c.01-.07.02-.12.03-.18.02-.06.04-.1.07-.13.01-.02.03-.03.04-.04.12-.05.83.35.86.39h0c.04.06.06.11.06.15.01.12-.09.18-.23.23ZM47.19,49.16s-.08-.02-.12-.04c-.03-.02-.07-.05-.1-.08-.03-.03-.05-.07-.08-.11-.07-.13-.08-.31-.03-.52h0s-.07,0-.1,0-.05.01-.07.03c-.03.01-.04.04-.05.09-.01.04,0,.1,0,.15.02.11.06.22.04.29,0,0,0,.02-.01.03-.16-.04-.33-.03-.46-.04-.07,0-.13-.02-.17-.06-.05-.04-.09-.11-.08-.23,0-.02,0-.05,0-.07h0s-.65.29-.65.29h0c-.07-.36-.04-.6.08-.74.17-.21.52-.22.97-.15h0s-.3-.88-.3-.88c.33-.12.75.16.93.44.03.05.06.11.08.17.02.05.03.11.05.16.01.05.02.11.02.16.01.06.02.1.02.15,0,.06,0,.1.02.14,0,.02,0,.04.01.05,0,.02.01.05.02.06,0,0,.02.01.03.02.04.02.13.02.21.07.03.01.05.04.07.07s.04.07.05.12c.02.08.02.14,0,.2,0,.02,0,.05-.02.07,0,.02-.02.05-.03.07-.03.03-.06.05-.1.07-.05.02-.1.03-.17.02-.02,0-.04,0-.07-.01ZM50.95,58.45c-.58.15-.83-.24-1.16-.31-.03,0-.07,0-.11-.01-.19-.02-.47-.01-.73-.03-.1,0-.19-.02-.27-.04-.11-.01-.2-.05-.29-.09-.03-.01-.07-.03-.1-.06-.04-.03-.08-.07-.11-.11-.07-.11-.1-.26-.06-.46.08-.43.53-.3.79-.39.17-.06.31-.24.43-.26.1,0,.18.03.25.09.02,0,.04.03.07.06.02.02.04.05.06.07.06.07.12.13.17.18.04.04.07.07.12.1,0,0,.03.02.05.04.08.04.2.1.34.18.07.03.14.08.22.12.08.04.15.08.23.13.22.13.4.28.47.41.01.03.02.06.02.09.01.12-.1.23-.41.31ZM50.39,47.98c-.55.06-.51-.27-.55-.28-.36-.14-.34-.11-.71-.28-.14-.06-.54-.27-.56-.28-.23-.07-1.11.01-1.16-.02-.03-.01.01-.2-.02-.22,0,0-.03-.02-.08-.05-.05-.02-.1-.05-.17-.07-.06-.03-.11-.05-.17-.08-.08-.03-.13-.06-.18-.09-.06-.03-.15.05-.2,0-.03-.01-.03-.06-.02-.15,0-.05,0-.08.01-.11,0-.03.02-.06.03-.08,0-.02.02-.03.04-.04.01-.02.03-.03.04-.04.08-.05.15-.03.17-.05.01-.02.04-.04.05-.07,0-.02.01-.03.03-.03,0,0,.01-.02.02-.02h0c.01-.29-.23-.18-.49-.41-.1-.09-.15-.15-.18-.21s-.04-.12-.09-.22c-.12-.24-.16-.57-.22-.66-.1-.11-1.17-.49-1.41-.56-.17-.06-.35-.03-.32-.29-.08-.03-.17-.06-.22-.09-.24.06-.63,0-.84.07,0,0-.02.01-.03.03-.01.02-.02.03-.03.06,0,.06-.02.15-.04.23-.01.05-.02.1-.05.13-.01.02-.03.03-.05.04-.09.03-.37-.23-.74-.16h0s0,.1-.02.15c-.02.09-.08.18-.14.27-.13.17-.32.31-.52.4-.05.02-.09.04-.14.05-.06.01-.16.01-.22.02-.08,0-.15.02-.23.02-.06-.19-.08-.31-.06-.39,0-.05.02-.08.04-.11h0s.04-.04.06-.04c.02,0,.05-.02.06-.02.02,0,.05-.01.06-.03.02,0,.02-.03.04-.05.03-.06.04-.13.11-.19.12-.1.34-.12.37-.15.06-.09-.04-.4-.03-.55.02-.42.39-.25.28-.64-.14-.26-.75-.13-.98-.31-.02-.02-.05-.05-.08-.09-.11-.14-.26-.42-.32-.64-.01-.06-.03-.1-.03-.15-.01-.15.03-.25.21-.23h0c.05.1.12.19.22.27.19.16.45.26.71.31.05,0,.1.02.15.01.12.01.22,0,.33-.02.02,0,.04-.03.05-.06,0-.02.01-.07.01-.11,0-.09.02-.19.07-.26.02-.03.04-.04.07-.06,0,0,0,0,.02,0,.04-.03.08-.04.11-.06.09-.03.17-.05.26-.06.03-.01.06-.01.09-.02.04-.01.07-.02.1-.03.04-.01.07-.03.09-.05.03-.02.05-.04.07-.07.03-.06.05-.13.04-.22,0-.03-.01-.06-.02-.1-.05-.03-.12-.03-.2-.04-.08,0-.16-.02-.22-.07-.12-.1-.18-.2-.19-.3,0-.04,0-.08.01-.11,0-.02.01-.04.02-.06.01-.03.03-.06.05-.08,0-.02.02-.03.03-.03.01-.02.02-.03.04-.04.04-.05.1-.1.15-.15.1-.09.2-.16.3-.24.07-.06.13-.12.18-.17.03-.03.05-.06.06-.09.03-.07-.06-.29-.03-.33h0s.21,0,.22-.03h0s0-.03,0-.04c0-.02.01-.05.02-.08,0-.02.01-.04.01-.06.01-.05.02-.11.04-.16,0-.02,0-.06,0-.1s-.02-.08-.01-.12c.11-.03.17-.03.2,0,0,0,.02.01.02.03.01.03.01.06,0,.1,0,.04,0,.07,0,.09.02.02.04.04.06.07.03.04.06.07.09.12.05.06.1.11.12.13.02.02.38-.11.24.37-.07.23-.39.2-.41.22-.26.36.37.3.56.37.43.15,1.01.52,1.47.73.13.06.34.02.45.08.44.26-.12,1.31.97.76.14.11-.52.54.09.95,1.39.93.81-.27,1.06-.67.42-.68.81.5.77.91-.82-.33-.56.74-.32,1.18.11.21.31.28.45.46.12.15.15.47.17.48.08.05.38-.2.55-.12.04.02.5.55.54.62.38.7-.19.7-.75.72.25-1.54-.42-.81-.64.03-.13.48.04.63.03.81.49-.12.71-.04.73.5.06,0,.12,0,.18.02.03,0,.07.01.09.02.02,0,.06.02.09.03.07.03.13.08.2.13.03.02.05.04.07.07.07.07.09.16.06.22-.03.08-.13.13-.33.15ZM51.85,56.3s-.06.03-.09.03c-.04,0-.07,0-.11-.01-.06-.03-.11-.07-.15-.12-.02-.03-.03-.06-.03-.1,0-.02,0-.04.01-.06,0,0,0-.02,0-.02,0-.02,0-.03.01-.05,0-.02.02-.03.04-.05.04-.05.1-.09.18-.1.04,0,.07,0,.11.01s.06.03.08.05c.06.04.09.1.1.17,0,.1-.05.2-.14.25ZM59.02,52.61c0,.08,0,.15,0,.22,0,0,0,0,0,0,0,.07-.02.12-.03.16v.02c-.09.06-.44.24-.71.38-.03.01-.06.03-.09.04-.02.01-.05.02-.07.03-.05.03-.1.05-.13.06-.04.02-.06.03-.07.03-.02,0-.03-.01-.04-.04-.02-.03-.04-.09-.08-.13,0-.02-.03-.05-.05-.05-.17-.07-.26-.11-.32-.13-.08-.05-.08-.07-.11-.09,0-.02-.04-.04-.08-.07-.39-.27-.39-.25-.74-.62-.14.02-.26.04-.35.07-.09.02-.16.05-.21.07-.02,0-.04.02-.05.03-.02.02-.04.03-.04.04-.02.03-.01.06.02.09.1.11.47.21.48.24.04.12.14.59-.19.51.01.04,0,.08,0,.11.05.16.11.38.16.55.03.09.1.2.14.32.05.02.12.04.19.06.14.04.29.08.4.16.03.02.05.04.07.07.03.02.04.04.05.08.05.15-.32.79-.03.95h0c.08.03.41-.08.45-.04.11.09.18,1.12-.55.71-.22-.12-.15-.23-.21-.31-.02-.02,0-.08,0-.11-.02,0-.06,0-.09,0-.06,0-.12,0-.19-.01-.07-.01-.13-.02-.2-.05-.07-.02-.13-.04-.18-.06-.02,0-.05-.01-.07-.03h0c-.12-.08-.08-.22-.1-.22h0s-.03-.04-.06-.04c-.04-.03-.1-.07-.17-.11-.09-.06-.19-.12-.26-.17-.05-.03-.09-.06-.11-.09-.22-.04-.32-.01-.38.07-.01.02-.03.04-.04.07-.02.05-.04.11-.06.17,0,.02-.02.05-.04.08-.03.05-.08.1-.17.14,0,0-.02,0-.04-.03-.03-.02-.05-.04-.08-.07-.17-.18-.41-.53-.43-.61-.07-.26.14-.34.15-.45.04-.4-.45-.11-.67-.1h-.04s-.06-.02-.08-.04c0,0,0,0,0,0-.06-.04-.12-.11-.19-.18-.08-.08-.16-.17-.25-.24-.1-.08-.2-.14-.3-.17-.06-.02-.11-.03-.18-.03,0,0-.02,0-.02,0-.18.02-.23.28-.44.24-.01-.07-.03-.13-.03-.2,0-.04,0-.07,0-.11,0-.04,0-.07,0-.1,0-.05,0-.09.03-.12.02-.05.05-.09.08-.14.03-.03.07-.06.11-.08.05-.03.11-.05.18-.06-.03-.06,0-.17-.02-.23-.25-.57-.92-.09-.88-.94.52.05,1.52.3,1.68.85.05.03.12.04.2.04.14,0,.33-.01.5-.02.04,0,.07,0,.1,0,.06,0,.13,0,.19,0,.04,0,.07.02.11.03.03.01.07.03.09.05.02.01.03.03.04.04.01.03.01.06,0,.1l.51.63c.41.03.26-.04.34-.27.05-.12.08-.23.09-.32.01-.04.02-.07.02-.11.02-.1,0-.18-.01-.23-.01-.04-.02-.07-.04-.09,0,0,0-.02-.02-.02,0-.02-.03-.02-.03-.03-.02-.02-.04-.04-.07-.04-.02,0-.05-.02-.07-.03-.17-.06-.38-.08-.51-.3-.08-.14-.12-.31-.09-.45,0-.03.01-.06.02-.09s.03-.06.05-.08c.02-.03.04-.04.07-.05.05-.02.09-.03.16-.02.02,0,.04,0,.06,0,.02,0,.04.01.06.03.03.01.04.03.06.05.04.04.07.08.1.13.04.05.07.1.12.13.11.09.29.09.65-.2h0c-.04-.2-.06-.48-.06-.68-.07.04-.12.03-.16,0-.02,0-.03-.02-.04-.04-.02-.01-.03-.03-.03-.05-.03-.06-.05-.12-.08-.12-.04,0-.08.02-.12.04-.05.02-.11.05-.17.08-.06.03-.12.05-.2.06-.06,0-.14,0-.24-.04-.12-.05-.2-.17-.28-.29-.02-.02-.04-.05-.07-.07-.02-.02-.04-.04-.08-.07-.09-.05-.21-.06-.38,0-.07.03-.14.07-.23.12-.3-.4-.14-1.22.46-.93.12.05.05.59.51.4.03-.07.14-.18.2-.25.02-.2.13-.54.06-.73h0s0-.02-.03-.02c-.15-.05-.79-.17-.46-.8.17-.32.49.05.69.06.21,0,.43-.22.64-.16.02,0,.03.01.04.02.02,0,.03.02.04.04.05.04.1.11.13.2,0,.02.02.04.03.06.03.05.04.1.06.15.04.12.08.23.11.34.03.11.06.2.09.26h0c.19-.13.31-.2.4-.24.09-.02.14-.02.19,0,.08.06.1.18.22.24.28.14.71-.25.39.78.07.1.07.36.17.41.08.05.28,0,.42.05.08.03.11.14.13.16.04.02.15-.05.2,0,0,0,.02.01.03.02,0,.02.01.03.01.05s0,.05,0,.08c0,.04,0,.07-.02.11-.09.22-.38.27-.35.47.02.13.05.23.11.31.02.04.05.08.07.11.06.09.15.15.23.2.08.05.16.07.23.1.03,0,.06.02.07.03.02,0,.03.01.03.02.02.05.03.2.04.34ZM61.35,49.03s0,0,0,0c-.01.02-.03.04-.04.06-.01.03-.03.03-.04.05-.04.04-.07.06-.11.08,0,0,0,0,0,0-.05.01-.09.03-.13.04s-.1,0-.14-.01c-.04-.02-.08-.05-.12-.08-.08-.08-.14-.21-.17-.42.06,0,.14-.01.21-.03.1,0,.19-.02.29-.02h0c.1,0,.16.03.21.06.09.06.09.16.05.24ZM61.54,48.12c-.28.1-.6-.22-.84-.16-.05.01-.27.52-.56.6-.26.08-.49-.18-.78-.15-.27.02-.42.33-.64.29-.39-.08-.41-1.01-.3-1.33-.75-.06-.28.27-.45.61-.21.39-.59-.27-.55-.55.03-.25.5-.37.36-.83-.01-.07-.18-.06-.23-.14-.33-.52-.17-.73-.94-.28-.17-.67.33-1.16.28-1.84-.45.02-.93.23-1.26-.18-.12-.25.28-.15.43-.26.19-.13.3-.8.84-.69.07.35.35,1.2.75,1.26.12.01.22-.13.43-.02.31.16.43.64.65.86.45.46,1.04.49,1.43.7.15.08.26.53.44.67.14.12.39.08.52.24s.5,1.08.4,1.21ZM61.53,45.09c0,.06-.01.12-.03.19-.02.07-.04.12-.07.17-.01.03-.03.06-.05.08-.04.05-.08.1-.13.12-.04.03-.09.04-.16.03h0s-.02-.09-.04-.13c-.02-.05-.03-.09-.05-.13,0-.02-.02-.02-.03-.04s-.02-.02-.03-.03c-.04-.01-.35.12-.24-.36.05-.19.13-.2.2-.17.02,0,.03.02.05.04.03.01.06.04.07.04.1,0,.43-.06.45-.04.04.04.06.13.05.24ZM62.06,43.54c-.4.24-.75.07-1.16,0,0,.05-.04.14-.12.25-.04.05-.08.11-.13.17-.04.06-.1.12-.16.19-.11.12-.22.24-.31.33-.04.04-.08.08-.11.11-.03.02-.05.04-.06.04-.14.04-.31.08-.46.1-.11.01-.22.01-.32,0-.05,0-.09,0-.14-.03-.04,0-.08-.02-.12-.04-.13-.05-.22-.15-.27-.29-.02-.08-.04-.17-.03-.28t0,0s.02-.1.03-.15.02-.11.03-.15c.25-.7.84.84,1.22.52,0,0,.01-.03.02-.05,0-.02.02-.07.03-.11,0-.03.02-.07.02-.1.01-.06.02-.11.05-.18.01-.07.04-.13.07-.19.01-.03.03-.07.04-.09.03-.05.06-.09.08-.14l.06-.07s.04-.04.06-.05c.03-.03.06-.05.09-.06,0,0,.02,0,.02,0,.03-.01.07-.02.11-.03h.04s0-.11,0-.11c0-.05,0-.1.02-.13,0-.04.02-.07.02-.09,0-.02.02-.04.03-.06.06-.06.13.04.15.26.04,0,.07-.01.11-.01l.32-.14c.24-.38.59-.33.86-.48.04-.02.07-.05.1-.1.1-.1.19-.26.3-.36.04-.04.09-.08.14-.1.04-.02.07-.03.11-.03.03,0,.06,0,.1,0,.04.01.07.03.12.05h0c.2.12.34.88.33,1.12s-.2.2-.25.3c0,0-.01.03-.01.05,0,.02,0,.03-.01.05,0,.02,0,.03-.01.05-.03.12-.06.28-.11.38-.04.06-.09.1-.15.08-.04-.01-.08-.05-.13-.11-.05-.06-.06-.15-.07-.25-.04-.13-.02-.26-.06-.36-.02-.09-.08-.12-.19-.06-.04.02-.08.05-.13.08-.05.04-.04.2-.17.29ZM63.68,50.98s-.03.08-.06.1c-.01.02-.04.04-.05.04-.03.03-.06.05-.1.06-.02.01-.05.02-.08.03-.02.01-.04.01-.06.01-.06.02-.12.03-.18.03s-.12.01-.18,0h0c-.14-.48.77-1.26.76-.47,0,.06-.01.12-.04.17ZM63.93,50.18c-.16.01-.3-.11-.31-.27s.1-.3.26-.31c.09,0,.16.02.21.06.05.05.09.12.1.2s-.02.15-.06.21-.11.1-.2.11ZM64.01,42.27s-.09-.02-.12-.03c0,0,0,0,0,0-.05-.02-.1-.05-.14-.08-.04-.04-.09-.09-.13-.15-.03-.05-.06-.1-.08-.16-.02-.05-.04-.13-.05-.2-.03-.1-.02-.17-.01-.23t0-.02s.04-.08.08-.1c.05-.03.13-.03.22,0,.16.03.33.11.42.11.11,0,.35-.12.45-.13.02,0,.03,0,.04.01,0,0,0,0,0,.02,0,0,.01.02.01.04.02.04.03.09.04.14.03.1.05.22.07.33.03.21.07.39.07.46h0c-.14,0-.26,0-.38.01-.04,0-.08,0-.11,0-.04,0-.09,0-.13,0-.09,0-.16,0-.23-.02ZM65.68,50.06c-.06.44-.81.06-.58-.23.03-.03.19-.05.33-.02.06.01.11.02.15.05l.05.04s.05.07.06.11c0,.02,0,.03,0,.05ZM65.95,46.96c.13.23.36.2.52.33,0,0,.03.02.03.03,0,.02.02.02.03.04.02.03.04.06.05.1.01.04.02.09.03.15.1,1.11-1.87-.59-.66-.65ZM66.45,40.11s-.09.02-.13.03c-.05,0-.1,0-.15-.01-.05-.01-.09-.03-.12-.05-.09-.06-.15-.16-.16-.32,0-.04,0-.07.01-.11.01-.05.03-.09.06-.13,0-.02.01-.03.02-.03.03-.03.06-.06.1-.08.02,0,.04-.02.05-.03.04-.02.08-.03.12-.04.06-.01.13-.03.19-.03.03,0,.06,0,.08,0,.06,0,.11.01.15.03,0,0,.02.01.02.01.02,0,.04.03.06.04.09.12.11.23.09.33,0,.06-.04.12-.08.18-.07.09-.19.17-.31.2ZM67.72,43.14c.36.02,1.03,1.05.44,1.1,0,0-.02,0-.05-.01-.05-.01-.13-.04-.23-.08-.24-.08-.55-.19-.57-.21-.3-.21-.12-.85.41-.81ZM68.58,45.79h0c-.09.11-.21.11-.32.05-.03-.02-.08-.04-.11-.07-.04-.04-.07-.07-.1-.11-.03-.04-.05-.08-.07-.12-.02-.04-.03-.08-.03-.12,0-.02,0-.05,0-.06,0-.02,0-.02.01-.04.02-.07.07-.13.16-.16.13-.05.23-.01.31.07t.02.01c.14.17.17.49.12.55ZM70.24,44.06c.01.06,0,.16-.02.25,0,.04-.02.09-.03.13-.04.14-.1.27-.17.32-.02.02-.05.03-.08.03-.02,0-.03,0-.04,0-.02,0-.03-.02-.05-.03-.03-.02,0-.16-.02-.2v-.02s0,0,0,0c0,0-.07.01-.13,0-.02,0-.04,0-.06-.02h0s-.43-.6-.43-.6h0c.09.02.18.02.26.02.08,0,.16,0,.24,0,.1,0,.19-.03.28-.05.07-.01.14-.04.22-.06,0,.08,0,.14.02.22ZM69.96,42.71c-.05-.03-.1-.06-.15-.1-.09-.06-.15-.15-.19-.23-.04-.09-.06-.2-.01-.3.06-.05.15-.06.24-.05l.1.02c.07.01.14.04.22.08.03.01.07.03.1.05.21.12.41.28.49.41.01.02.02.03.03.05.02.04.03.06.02.09-.03.27-.5.22-.84.01Z"/>
      <path class="cls-1" d="M81.15,52.02s-.09-.23-.16-.38c-.03-.05-.06-.11-.08-.14-.02-.01-.03-.02-.03-.03-.03-.01-.16.05-.21.01-.05-.05-.04-.32-.06-.44-.11.02-.22.01-.33.03-.2.03-.27.09-.44.15h0s.02.06.02.09c.02.22-.26.19-.44.29-1.97,1.06-3.95,2.5-5.76,3.66-.29.19-1.93,1.2-2,1.34-.11.22,0,.52.23.6.43.16.85-.34,1.26.1.11.13.13.37.15.38.14.11.98-.66,1.07.88.04.62-.6.62-1.07.55-.38-.06-.64-.4-.9-.42-.4-.02-1.1.67-1.62.08-.16-.19-.41-1.21-.71-1.13-.12.03-1.88,1.09-2.03,1.22-.71.6-1.14.7-1.93,1.19-1.43.9-3.62,2.62-5,3.15.02.32-.48.53-.72.69-1.58,1.04-3.23,1.99-4.77,3.08h0s-.04.06-.06.09c-.01.03-.03.05-.04.07-.06.1-.1.18-.1.27-.06.38.38.54.4,1.04-.41.01-.69-.23-1.06-.09-.05.02-.12.05-.18.09,0,0,0,0,0,0-.04.07-.15.15-.2.24-.04.05-.06.09-.09.12-.18.24-.23.17-.31.27-.04.04-.02.15,0,.25,0,.06.02.13.02.18h0c-.04.29-.11.44-.16.7l.12.05c.02.09.03.13,0,.16-.02.03-.09.03-.21.03-.03.09-.07.26-.08.34-.08.73.38.57.48,1.29.92.4.85.56,1.8.09-.01-.32.2-.23.2-.31,0-.14-.2-.33-.17-.53.01-.12.22-.08.22-.08.01-.03.04-.67.22-.02.08-.02.33-.05.34-.03l.22.09s0,0,0,0c.1-.03.22-.01.33-.03h0c0-.08.07-.16.15-.24.02-.03.05-.06.07-.09.05-.05.1-.11.13-.16.01-.03.03-.06.04-.08.01-.03.02-.07,0-.09-.01-.02-.04-.04-.06-.07-.03-.02-.08-.04-.13-.06-.02-.01-.04-.02-.07-.03-.07-.03-.13-.05-.17-.09h0c-.12-.11-.21-.33-.31-.37-.2-.09-.94.04-.84-.49,0-.03.02-.06.03-.08.04-.05.09-.08.16-.09.03-.01.07-.01.1-.02.06-.01.11-.02.17-.03.09,0,.17-.02.23-.04.2-.08.23-.37.55-.37.57,0,.59,1.01.53,1.43h0s.05-.02.07-.03c.08-.04.15-.07.2-.08.04-.02.08-.03.12-.04.04-.01.08-.02.11-.03.13-.03.21-.02.28.01,0,0,.02,0,.03.02.06.03.1.08.13.15.02.01.03.05.03.07.02.05.04.09.05.15.02.08.05.16.09.24.01.03.02.05.04.08.01.02.03.05.05.07,0,.02.03.04.04.05.02.03.04.05.08.07.05.04.16.07.3.09.18.04.4.08.55.11.03,0,.07.02.1.02.29.07.37.37.88.12,0,0,.09.02.21-.13h0s-.04-.14,0-.2c.38-.47.86-.76,1.49-.73-.03-.11,0-.24-.03-.33,0,0-.04-.02-.08-.04-.07-.03-.14-.08-.06-.17.01-.02.02-.03.04-.04.11-.07.19.13.2.13h0c.08,0,.18,0,.26-.02.07-.01.14-.02.21-.03.03,0,.06,0,.09,0,.19.65-.25.47-.4.6h0s0,.02-.01.03c-.02.03-.04.1-.06.17-.06.19-.14.45-.19.55-.05.09-.12.17-.19.24-.02.03-.05.06-.07.09-.02.03-.04.05-.06.08-.02.03-.04.05-.05.08-.03.07-.04.14-.04.22,0,.05,0,.11.03.17h0s.08-.04.11-.05t.02,0s0,0,0,0c.09-.03.16-.04.23-.03.02,0,.06.01.08.02.03,0,.06.02.08.03.03.01.05.03.08.04.15.1.26.24.38.25.23.01.94-.41.75.31-.02.11-.36.2-.28.47,0,.02,0,.03.01.04.03.09.1.18.24.31.02.01.04.04.08.06.14.07.42.13.69.21.07.03.14.05.22.08.13.05.27.1.38.18.06.04.13.08.18.13.17.12.31.22.44.34.17.15.33.31.52.53h0s.09.06.12.1h.06c.09-.01.18,0,.25.03.06.01.11.04.15.07.04.03.08.06.1.09.07.08.13.19.16.31h0c.1.01.24-.05.33-.03.36.06.78.08,1.2.12.2.01.41.04.6.06.19.02.37.05.52.09.07.01.13.04.21.1.08.06.16.12.23.2.05.05.1.11.14.17.05.06.08.12.1.18.02.04.03.08.03.11,0,.04,0,.08-.01.11-.05.26-.32.49-.33.73,0,.26.24.71.17,1.04.44-.13.74.05,1.14.12h0s.01-.03,0-.04c-.01-.14-.4-.43-.29-.61l.03-.02s.08-.04.15-.06c.03-.01.08-.02.12-.03.05-.02.09-.03.15-.05.13-.04.27-.08.36-.1.06-.01.12-.03.13-.03.02,0,.05,0,.06,0t.02,0s.03,0,.05.01c0,0,0,0,0,0,.02,0,.02,0,.03.01.03.01.05.04.07.07.14.19.12.59.01.97-.02.07-.04.15-.08.22-.02.05-.04.1-.07.15-.02.05-.05.09-.08.14-.02.03-.04.05-.06.08-.01.03-.04.04-.05.06-.02.03-.04.04-.06.05-.04.04-.1.06-.15.05-.15-.01-.52-.42-.68-.3,0,0-.01.02-.02.03h0s-.02.02,0,.03c-.02,0-.02.03-.02.04,0,.02-.01.03-.01.06,0,.07,0,.18.01.32,0,.04.02.09.02.13-.03.02-.06.04-.09.04-.05.02-.1.03-.14.01-.02,0-.03,0-.06-.01-.02,0-.03,0-.04-.02-.02,0-.03-.02-.04-.03-.05-.04-.09-.08-.12-.13-.02-.03-.04-.05-.05-.08,0-.02-.03-.05-.05-.07-.02-.02-.03-.05-.05-.06,0-.02-.03-.02-.03-.03-.02-.01-.03-.02-.05-.02s-.03.01-.05.03c-.01.02-.04.04-.06.09-.01.02-.04.05-.06.09-.03.06-.05.12-.07.17-.03.09-.05.17-.06.24,0,.02-.01.05-.01.07,0,.03,0,.06,0,.08.02.09.05.16.11.21.02.02.04.04.07.05.03.02.08.04.12.05.05.02.1.03.15.03.06.01.11.02.18.04.03,0,.07,0,.11.01.1.02.19.04.27.07.03.01.06.03.08.05.02.01.03.03.05.04.03.01.04.04.05.06.02.03.03.05.04.08.03.07.03.13,0,.18-.03.11-.13.2-.25.26-.05.03-.11.06-.17.07-.06.02-.12.04-.19.04-.03,0-.06,0-.1,0h-.07s-.05,0-.07-.01c-.03,0-.07-.02-.1-.05-.03-.01-.05-.04-.08-.05-.21-.13-.48-.35-.69-.4-.04-.01-.07-.02-.11-.01-.03,0-.05.01-.08.03-.02.01-.05.03-.07.07,0,0-.01.02-.02.03-.02.03-.03.08-.04.15-.02.07-.02.17-.02.28,0,.06,0,.12,0,.19-.53-.23-.66.24-.83.29h0s-.06,0-.11-.02c0,0,0,0,0,0-.07-.01-.15-.03-.23-.07-.05-.01-.09-.02-.13-.04-.08-.02-.15-.05-.19-.06-.02,0-.04-.01-.05-.02-.26-.13-.35-.23-.35-.35,0-.05,0-.1.04-.14.02-.04.04-.08.06-.12.03-.04.06-.08.07-.12.04-.05.05-.12.07-.18,0-.03.01-.07,0-.1,0-.07-.02-.14-.05-.2-.01-.03-.03-.06-.05-.09-.05-.09-.11-.18-.15-.28-.02-.02-.02-.05-.03-.09v-.06c-.03-.28.11-.64,0-.78-.17-.19-.62.03-.87-.09-.09-.04-1.26-.88-1.59-1.15-.03-.03-.04-.04-.06-.05-.02-.01-.03-.01-.03-.02-.05-.08-.1-.15-.15-.23-.06-.09-.1-.18-.15-.27-.04-.08-.09-.15-.14-.24-.05-.08-.09-.14-.15-.22,0,0-.02-.02-.03-.04-.04-.04-.08-.09-.12-.13-.17-.19-.34-.35-.53-.51-.1-.08-.19-.15-.29-.21-.1-.07-.2-.13-.31-.18s-.21-.1-.33-.14c-.11-.05-.22-.07-.34-.09-.08-.02-.16-.03-.24-.03-.1,0-.2,0-.3,0-.14.01-.3.04-.45.1-.12.04-.2.1-.26.16-.17.2-.12.45-.28.52-.04.02-.09.03-.14.04-.06,0-.13,0-.19,0-.19-.02-.41-.08-.52-.03-.01.02-.03.03-.04.04-.03.03-.04.07-.04.13v.05s.08.07.13.1c.1,0,.18,0,.25.05,0,0,.02,0,.02.01.06.05.09.14.1.25.08.07.16.43.31.5.15.08.4-.02.66.15.25.16.86.93,1.19,1.19.52.43,1.43.87,1.96,1.24,2.2,1.6,4.1,3.61,6.35,5.03.01-.94.88-.42.97-.54.11-.14-.28-.93-.21-1.26.01-.04.31-.49.47-.73.02-.02.04-.04.04-.05.03-.05.05-.07.06-.08h0c.18-.11.43-.06.59-.14.28-.13.36-.4.88-.38.06,0,.34.52.55.28.04-.04.02-.08-.02-.13,0-.02-.03-.03-.04-.04-.06-.07-.14-.13-.2-.2-.05-.05-.09-.1-.11-.16-.02-.02-.03-.05-.02-.09,0-.02,0-.05,0-.07,0-.03.02-.06.04-.08.08-.09.25-.11.41-.12.05-.01.1-.02.15-.03.04,0,.07-.01.09-.02.02,0,.05-.02.07-.03.02-.01.08-.11.15-.26.02-.03.04-.08.06-.12.13-.25.28-.59.4-.86.03-.1.06-.18.09-.26.01-.03.02-.06.02-.08.01-.03.02-.05.02-.07.01-.04.02-.07.02-.1h0c-.34-.11-.48-.3-.5-.53,0-.06,0-.11,0-.18,0-.08.03-.16.07-.25.04-.1.09-.19.14-.29.06-.09.12-.18.18-.27.04-.04.06-.09.1-.12.25-.29.4-.35.5-.29,0,0,.02,0,.03.02h0s.04.07.05.12c.01.03.02.06.02.1.05.24.02.61.02.83-.02.1-.02.16,0,.19.01.03.03.06.05.08.03.04.08.06.13.06.03.01.07,0,.11,0,.09,0,.18-.03.27-.06.05-.02.1-.04.15-.06.08-.03.16-.07.24-.11.19-.1.37-.21.46-.27.02,0,.03-.02.04-.03.01-.02.04-.04.05-.06.03-.04.05-.1.07-.15s.05-.11.09-.16c.05-.08.13-.13.27-.14-.14-.62.15-.62.47-1.06.14-.21,0-.46.64-.39.02-.03-.03-.1,0-.11-.03-.19-.04-.24.09-.25.03,0,.06,0,.12,0h0c0-.08-.04-.16-.02-.23-.22-.16-.17-.25.09-.23.02-.1-.04-.23-.03-.33-.02-.09-.05-.16-.08-.22-.01-.03-.02-.05-.04-.08-.01-.02-.03-.04-.04-.05l-.05-.04c-.07-.04-.14-.03-.23-.03-.05,0-.11,0-.18-.03h0c-.13-.08-.18-.34-.15-.39.03-.03.69.1.89-.19,0-.11-.01-.24-.03-.34-.02-.09-.38-.36.08-.34,0-.34,0-.69.02-1.02-.18-.14-.17-.23,0-.24.02,0,.06,0,.1,0h0c.02-.15-.05-.31-.04-.45-.22-.17-.17-.25.09-.23.02-.14-.05-.31-.04-.45h0c-.21-.17-.17-.26.09-.24.02-.14-.04-.31-.04-.45-.04-.04-.07-.07-.1-.1s-.04-.04-.04-.07c0-.04.04-.07.12-.08.03,0,.06,0,.11,0h0c0-.19-.07-.39-.05-.56l-.42-.87.56-.05c.02-.4-.02-.86,0-1.24-.05.01-.09,0-.13-.01-.06-.02-.1-.06-.15-.11-.04-.04-.06-.07-.11-.11-.04-.04-.07-.07-.11-.1-.08-.04-.15-.07-.25-.03-.02,0-.03.01-.05.02-.01,0-.04.03-.06.05-.01.02-.04.04-.05.06-.09.11-.19.26-.28.32-.17.11-.64.39-.8.47-.05.03-.22.1-.42.19-.07.03-.14.06-.21.09-.29.11-.56.23-.61.23-.07-.01-.11-.03-.13-.05-.06-.07-.06-.17-.03-.29.02-.07.04-.13.06-.2,0-.02.02-.06.03-.09.02-.06.04-.12.05-.16,0-.05,0-.08,0-.1h0s0,0,0,0c-.07.04-.13.07-.19.08-.25.07-.49.02-.74.01-.06,0-.12,0-.18,0,0,.08.02.14.02.22.02.26.06.52.07.78h0s0,0,.02,0c.04-.02.13,0,.23.02.04.01.07.03.11.05.04.01.08.03.1.06.02.01.03.03.04.04.02.04.02.09-.01.13,0,.02-.04.03-.08.04-.03.01-.07.02-.11.03-.05.01-.09.03-.13.04h-.02s-.09.03-.13.05c-.04.01-.08.03-.1.04-.31.17-.45.45-.91.43-.05,0-.1,0-.16-.02h0s-.03-.06-.03-.09c-.03-.11-.02-.21.01-.31.04-.1.1-.18.16-.26l.06-.07s.03-.04.04-.06c.01-.02.02-.03.03-.04.01-.04.02-.11.03-.18.01-.11.03-.24.06-.37.01-.06.01-.11.03-.15.01-.05.02-.09.04-.12.02-.05.04-.09.07-.13.02-.03.05-.06.08-.08.06-.05.14-.06.22-.07s.18,0,.28,0h0c0-.17,0-.29.04-.4.03-.07.05-.12.09-.16.03-.03.06-.06.11-.07.05-.02.1-.03.16-.04.1,0,.22,0,.38.02h0s.05.02.07.05c.06.07.09.19.14.22.44.25,1.22-1.09,1.51-1.24.05-.03.09-.04.14-.05.18-.04.34-.01.46,0,.07,0,.12,0,.15-.02h0s.06-.08.06-.13c0-.04,0-.08,0-.12,0-.04,0-.09,0-.12s0-.06,0-.09c0-.02,0-.04.01-.06.04-.06.17-.02.21-.03.34-.17.65-.35.97-.54-.04-.16-.17-.28-.26-.43-.16-.25-.17,0-.27-.54h0s0-.02-.02-.01c-.04-.04-.15-.1-.07-.21.16-.19.47-.1.61-.22.2-.15-.05-.53.12-.63.03-.03.08-.04.16-.03,0-.49,0-.96-.02-1.47-.02-.44-.28-1.02.25-.93l-.03-.34s-.07-.06-.11-.13c-.02-.03-.03-.07-.03-.12,0-.08,0-.2.01-.33,0-.09.02-.18.04-.25.02-.07.05-.13.09-.17.03-.03.08-.05.13-.03.01-.14-.04-.3-.04-.45-.04-.04-.07-.07-.1-.09-.03-.03-.04-.04-.04-.07,0-.06.08-.09.23-.08.02-.35-.02-.74.01-1.13-.21-.15-.16-1.03.14-.92l-.03-.34s0,0-.02-.02c-.02-.02-.06-.05-.08-.09,0-.02-.02-.04-.02-.06,0-.09-.02-.21-.02-.34v-.05c0-.09,0-.18.03-.25,0-.03.02-.06.03-.08,0-.02.02-.03.03-.05,0-.02.02-.03.04-.04,0,0,.01-.02.02-.02.03-.02.07-.03.12-.02,0-.14-.03-.3-.04-.45,0-.02-.1-.06-.11-.16,0-.04,0-.09,0-.14,0-.02,0-.06,0-.1,0-.14.02-.31.07-.41.01-.03.02-.04.03-.06.01-.02.02-.03.04-.04,0,0,.01,0,.01,0,.03-.02.06-.01.1,0,0-.15-.03-.3-.04-.45,0,0,0,0-.02-.01,0-.02-.02-.02-.03-.03-.03-.02-.06-.06-.07-.11,0-.02,0-.05,0-.08,0-.16,0-.38.08-.5.01-.03.03-.04.05-.06.04-.03.08-.03.14-.01,0-.14-.01-.33-.04-.45ZM55.24,71.21s-.17.03-.33-.02c-.04-.01-.08-.02-.12-.04-.02,0-.03-.01-.04-.02-.05-.02-.09-.05-.13-.08-.05-.04-.09-.09-.09-.14,0,0,0-.02,0-.03,0-.03.01-.06.02-.08.01-.02.03-.03.04-.05.01-.02.04-.03.06-.04.14-.05.35.04.49.17.05.04.09.1.11.14.03.07.04.14-.01.19ZM60.06,70.44c-.06,0-.11,0-.16,0-.02,0-.05,0-.07-.02-.02,0-.04-.02-.07-.03-.03-.01-.04-.04-.06-.06-.03-.03-.03-.08-.03-.13,0-.02.02-.03.03-.04.01-.02.02-.03.04-.04.06-.09.12-.16.21-.2.2-.08.65-.09.62.2-.05.2-.3.32-.52.33ZM69.65,67.21s-.07-.07-.1-.12c-.02-.03-.03-.07-.05-.09-.02-.05-.04-.08-.06-.09h0c-.07-.04-.13-.04-.21-.04-.12.01-.26.06-.39.1-.29.09-.59.18-.84-.01h0c-.1-.09-.11-.23-.13-.27h0c-.06-.07-.2-.19-.31-.31-.04-.04-.07-.07-.11-.11-.04-.04-.07-.08-.08-.1h0c-.07-.03-.14-.05-.2-.08-.03-.02-.07-.04-.09-.06-.03-.02-.05-.04-.07-.07-.33-.36.26-.96.58-1.33.03-.03.07-.07.13-.12.03-.03.06-.05.1-.08.03-.03.07-.05.1-.08.19-.15.37-.3.39-.32.01-.03.02-.07.02-.1s-.01-.06-.03-.1c-.01-.06-.05-.1-.08-.15-.03-.05-.06-.08-.08-.13-.02-.04-.05-.08-.06-.12-.01-.02-.02-.04-.02-.06-.01-.04-.01-.08-.01-.12.02-.08.62-.83.71-.88.76-.4.91.24,1.32.27.11.01.22,0,.33-.03.02,0,.03-.01.05-.01.06-.01.12-.03.17-.05.07-.03.15-.05.22-.07.02,0,.03-.01.05-.01.09-.02.18-.04.28-.02.04,0,.1.02.15.04.09.04.19.09.29.16.03.02.07.04.09.06.07.04.13.09.19.14.06.05.11.1.16.15.03.03.06.06.09.09.03.03.04.05.05.08.03.04.04.07.04.09,0,.1-.14.11-.58-.08-.16.71.16,1.38.44,2.02.02.03.03.06.06.1.06.1.14.2.21.3.07.11.15.2.19.3.02.03.03.06.04.09.03.16.01.31-.01.47-.03.18-.06.35,0,.52.07.19.93.82.75,1.03-.29.14-.48.07-.62-.06-.03-.03-.06-.06-.09-.09-.05-.07-.1-.14-.14-.2-.04-.05-.08-.1-.11-.12-.08-.04-.29.15-.46.13-.15-.03-.28-.26-.4-.28-.19-.02-.39.44-.72.38-.03,0-.07-.02-.1-.04-.15-.09-.32-.31-.48-.4-.14-.07-.36-.02-.52-.12ZM72.09,72.89c-.61.05-1.56-.45-1.62-1.11.07,0,.15,0,.23.01.19.01.4.05.6.11.06.02.12.04.18.06.21.06.4.15.58.24.07.03.13.07.19.1h0c.09.06.16.13.19.19.02.03.03.06.03.09.01.15-.13.28-.38.3ZM73.72,79.75c-.08.19.14.2.15.44,0,.06,0,.14-.02.23-.01.05-.03.1-.05.14-.03.07-.05.14-.09.2-.03.06-.06.11-.09.15-.04.05-.08.09-.12.11-.01.02-.04.02-.05.02-.02.01-.05.01-.08,0-.02,0-.03-.01-.05-.02s-.03-.02-.05-.04-.03-.03-.05-.05c-.05-.08-.1-.18-.13-.32-.02-.03-.02-.07-.03-.11-.01-.04-.02-.09-.02-.13s-.02-.1-.02-.16c-.03-.15-.04-.32-.03-.47.01-.04.02-.09.03-.12.01-.04.02-.08.05-.11.11-.15.35-.16.43-.26.04-.04.06-.08.07-.12.02-.04.02-.09.04-.13,0-.04,0-.09.03-.12,0-.02.01-.04.02-.06,0-.02.01-.03.03-.04.02-.02.05-.04.09-.06.02-.01.06-.03.09-.04.03-.02.07-.03.1-.04.06-.02.13-.04.2-.04.05,0,.1,0,.14,0,.03,0,.06.01.09.02h0s.03.02.05.03c.03.01.07.04.09.07.03.02.05.06.06.1.2.66-.7.45-.89.93ZM78.02,73.18s.09-.03.12-.03c.26-.04.33.17.28.38,0,.03-.02.06-.03.08-.03.08-.09.16-.17.19-.03.02-.06.03-.1.03-.05,0-.1,0-.16-.03-.04-.02-.08-.06-.12-.09-.03-.03-.06-.07-.1-.11-.04-.04-.06-.09-.1-.14,0,0,0-.02.02-.04.01-.03.07-.07.12-.1.08-.05.17-.1.24-.13ZM76.81,69.21c.01-.07.06-.13.14-.19.01-.02.03-.03.05-.04.11-.07.18-.08.26-.06.02,0,.02,0,.03.01.02,0,.02,0,.03.02.03.01.04.03.05.05.02.01.04.04.05.07.03.05.05.12.06.18.05.18.04.38.02.41-.16.19-.7-.08-.72-.39,0-.02,0-.05,0-.07ZM77.38,75.74s.03.01.03.03c0,0,0,0,0,.02.02.02.03.05.05.08.05.11.08.26.09.41.02.21.01.42.03.53-.76.31-.94-.89-.48-1.08.12-.05.21-.03.27.02ZM76.21,70.7s.04-.02.06-.01c.06-.01.1-.02.14-.01.02,0,.05,0,.07.01s.04.01.06.03c0,0,.02,0,.02.01.06.03.1.09.15.15.04.06.07.14.09.21.02.05.03.1.04.15.01.07.02.15.02.22,0,.04,0,.07,0,.1,0,.06-.02.12-.05.16-.01.03-.03.04-.05.05-.29-.05-.95-.91-.54-1.07ZM76.09,74.3s.03-.05.06-.06h0s.02-.03.04-.03c.09-.05.22-.04.38.01.32.13.25.43.17.71-.14.03-.26.02-.36,0-.07-.03-.13-.06-.18-.1-.13-.12-.19-.3-.15-.44,0-.04.03-.07.05-.1ZM74.23,63.71s-.86-.44-.89-.49c-.08-.11-.11-.65-.04-.77.39-.71,1.99,1.43.93,1.26ZM76.71,56.14c.46.17.23.67.59,1.03,0,.17-.48.27-.54.22-.03-.02.02-.4-.15-.5-.07-.04-.16-.04-.26-.03-.15.01-.3.05-.32.04-.09-.06-.23-1.09.68-.75ZM76,57.69c.12-.06.22.01.32.04.06.01.15.03.25.05.07.02.14.04.2.06.11.05.18.11.16.22.11.01.16.07.23.09.1.04.16.06.18.08.02,0,.03.01.03.02,0,0,0,.02,0,.02,0,.02-.02.07.07.15,0,0,.02.01.03.03.04.02.1.04.15.06.03.02.07.03.09.04,0,0,0,0,0,0,.02.01.03.03.04.04.04.12-.08.21-.17.3l-.02.03s-.03.03-.04.04c0,.02-.01.03-.02.04-.01.04-.02.09-.03.13,0,.05,0,.1,0,.16.01.15.04.31.01.41,0,0,0,.02-.02.03h0c-.02.06-.08.09-.19.08,0,.14.05.34.04.45-.01.07-.04.12-.07.16-.01.02-.03.03-.04.04-.01.02-.04.03-.06.04-.05.03-.13.04-.19.03,0,0,0,0-.02-.01-.02,0-.03-.02-.04-.04,0,0-.01-.02-.01-.04-.01-.05,0-.11-.01-.13h0s0,0,0-.02c0,0-.03,0-.06,0-.09,0-.25.05-.29.03,0,0,0-.02,0-.06,0,0,0-.02,0-.02,0-.02,0-.05,0-.09,0-.02,0-.06,0-.08,0-.05.01-.11,0-.16,0-.09,0-.18-.02-.28,0-.04-.01-.07-.03-.1-.01-.07-.04-.13-.09-.18-.03-.03-.05-.06-.1-.08.03-.05.06-.09.09-.12.04-.04.1-.06.16-.06.05-.01.12-.02.19-.03h.11s-.03-.34-.03-.34c-.04,0-.1,0-.16,0s-.14,0-.21-.01c-.1,0-.21,0-.29-.01-.02,0-.05,0-.06,0-.02,0-.03-.01-.04-.02-.08-.05-.03-.2-.05-.21-.02,0-.16.05-.22-.01,0,0-.02-.01-.02-.03s-.01-.02-.01-.04c0-.03,0-.06,0-.1,0-.04.02-.07.03-.11.02-.07.05-.15.08-.22.03-.07.04-.12.05-.18.01-.03.02-.06.02-.08ZM75.65,57.66c-.11.06-.21.09-.29.1-.06,0-.1,0-.15-.01-.04-.01-.08-.03-.12-.06-.09-.06-.14-.17-.18-.3-.03-.13-.03-.28,0-.43,0-.02,0-.03.01-.04.01-.02.02-.03.04-.03.06-.04.16-.01.17-.02.01-.02-.04-.13,0-.19,0-.02.02-.03.05-.04.02-.01.05-.02.09-.02.56-.04.9.75.37,1.05ZM74.76,55.06c0-.06.01-.11.03-.15,0-.02,0-.03.02-.05.01-.03.03-.05.04-.07.01-.03.04-.05.06-.07.05-.04.11-.04.17-.03.04.01.09.03.13.06.11.06.19.18.2.29,0,.05,0,.09-.04.12-.01.02-.03.03-.05.05-.02.02-.05.03-.08.04-.03.01-.07,0-.11-.01-.12-.02-.27-.09-.39-.05,0-.05,0-.1.01-.14ZM74.56,55.66h0s.03.03.04.05h0s.02.1.01.16c0,.06-.02.13-.06.19-.02.03-.04.06-.06.09-.04.04-.08.08-.12.1-.05.01-.1,0-.14-.03,0-.02-.03-.04-.05-.06-.02-.01-.03-.05-.04-.08-.01-.03-.02-.06-.02-.09-.1-.38.32-.42.43-.33ZM74.63,60.07s-.05-.05-.07-.08c-.12-.17-.12-.31-.05-.42.01-.03.04-.05.07-.08.03-.03.06-.05.09-.07.14-.08.31-.14.47-.15.14-.01.27,0,.33.06.26.22-.54.91-.83.75ZM78.21,64.73l.05.56c-.67.2-.84-.61-.05-.56ZM79.22,62.22c-.1.22-.61.18-.7.33-.13.21.1.96.04,1.02-.02.03-.38,0-.55.11-.07.04-.14.11-.22.2l-.12.15c-.04.05-.1.1-.14.16-.2.23-.41.47-.63.62l-.09.06s-.05.03-.08.04c-.09.04-.18.06-.27.05l-.1-.02s-.11-.04-.16-.07c-.03-.01-.05-.04-.07-.06-.04-.04-.07-.07-.11-.12-.04-.04-.06-.08-.08-.13-.05-.06-.08-.13-.1-.19-.02-.04-.04-.07-.04-.11-.02-.05-.02-.09-.02-.13.01-.15.2-.06.22-.09.03-.03.06-.08.1-.12v-.02s-.02-.09,0-.14c0,0,.01-.03.02-.03.01-.02.02-.03.04-.04.04-.03.08-.05.13-.07.04-.02.09-.03.13-.04.03-.01.06-.01.1-.02.21-.04.45-.04.65-.09.06-.01.11-.03.16-.05.05-.02.09-.05.13-.08.03-.03.06-.05.09-.08.04-.06.08-.14.12-.21.01-.04.02-.08.04-.12.02-.08.05-.17.08-.26.02-.08.06-.16.1-.23.13-.2.33-.28.47-.44.11-.11.18-.32.28-.43.07-.07.14-.1.26,0,.06.04.12.1.19.19.16.23.19.37.13.46ZM80.29,54.52c-.19.06-.36.05-.49-.05-.04-.04-.08-.08-.11-.13h0c-.03-.06-.04-.13-.06-.21-.01-.14,0-.22.04-.29.03-.06.09-.09.15-.09.25-.03.67.33.63.71-.06.03-.12.05-.17.07Z"/>
      <path class="cls-1" d="M33.23,65.72c-.07-.72-.06-1.82-.22-2.47-.22-.08-.36-.11-.46-.1h-.03s-.02,0-.03.01c-.02,0-.02,0-.03.01-.02.01-.04.02-.05.04-.02.02-.04.04-.05.06-.03.04-.04.08-.06.14-.02.05-.03.11-.06.16-.02.05-.05.1-.08.14-.39.42-.48-.43-.42-.72.02-.12.24-.09.32-.17.03-.03.06-.06.08-.1.04-.06.06-.12.07-.17.01-.11-.02-.2-.04-.28-.03-.1-.05-.2-.02-.3.12-.32.61-.25.61-.28l-.2-2.2c-.04-.45,0-.88,0-1.3,0-.15-.04-.3-.04-.45-.23-.14-.57-.84-.65-.9-.05-.04-1.17-.3-1.36-.36-.22-.04-.47.04-.72-.02-.32-.07-.51-.43-.71-.5-.45-.15-1.08.22-1.3-.51-.01-.04,0-.08,0-.11-.46.1-.16-.63-.19-.83-.04-.32-.34.28-.38.3-.46.37-1.28.67-1.79,1.1-.45.36-.03.57-1,.4-.75-.13-.48-.27-.79-.54-.68-.57-.65-.35-1.07-1.2-.13-.25-.47-.46-.34-.86.27-.34.76.24.88-.16.16-.54-.65.01-.73-.5-.09-.51.5-.45.64-.81.12-.31.11-.92-.33-.85.04.27.12.94-.21,1.03-.12.04-.5-.26-.52-.35-.06-.24.57-.67.65-.89.08-.25-.13-1.11.39-.6.07.06.58.93.6,1.02.06.21.02.45.07.66.07.24.26.4.29.66.04.35-.37.12-.45.22-.19.25.38.44.4.48.04.17-.15.51-.06.73.04.04.27-.17.45-.11.19.08.22.49.43.38.05-.04.72-.99.74-1.05.12-.45-.26-.15-.44-.24-.06-.02-.48-.78-.59-.91-.12-.14-.33-.05-.44-.4-.25-.77.13-.53.54-.89.16-.14.4-.43.34-.65-.02-.09-.22-.08-.29-.16-.2-.21-.64-.74-.82-.87-.2-.16-.68-.04-.61-.58.06-.07.71.19.86.15.24-.09-.04-.67.48-.44.43.19.14.58.23.83.08.21.38.33.44.49.05.16-.1.46-.05.49.21.2.2-.36.43-.26h0s0-.04,0-.06c0-.08.03-.19.06-.29.01-.07.03-.12.04-.18.02-.05.03-.1.04-.14,0,0,.01-.03.01-.03,0-.04-.06-.13,0-.2.09-.1.6-.14.5-.52-.56.19-.57-.15-.84-.32-.24-.15-.61-.07-.6-.52,0-.2.23-.35.18-.71-.02-.13-.33-.71-.41-.75-.39-.22-1.29.2-1.63.2-.21,0-.6-.4-1.01-.32.01-.32-.38-.78-.42-.98-.04-.23.16-.38.17-.58.07-.69-.47-.61-.52-.75-.09-.26.03-.68-.14-.94-.13-.2-.4-.12-.5-.2-.39-.28-.18-.25-.82-.58-.89-.45-.14-.76-.13-.86.1-.63-.08-1.05-.73-1.1-.73-.04-1.05.4-1.7.54-.22.18.08.75-.22.87-.19.08-.41-.13-.59-.14-.2-.02-.34.11-.48.12h0c-.01.07.05.2.02.23-.04.04-.43,0-.56.06.18.25.09.8-.22.9-.04.02-.78.05-.82.03-.08-.02-.84-.57-.86-.77-.04,0-.09.02-.11,0-.39-.09-.34-.46-.47-.74-.09-.18-.41-.32-.28-.55.06-.09.27-.15.33-.25.23-.44-.32-.39-.51-.52-.19-.14-.27-.42-.45-.59-.51-.5-1.09-.35-1.7-.14-.46.18-.77.61-1.15.89-.63.47-1.21.94-1.82,1.42l-.1.12c-.32.25-.5.34-.85.64h0s-.05.07-.05.07l-.05.05c-1.16.99-2.58,1.95-3.81,2.96h0s0,0,0,0c.01.04.02.07.02.09.01.13-.05.16-.23.14-.09.12-.37.11-.44.15l-.04.04-.06.07v.02c-.14.11-.22.28-.32.36l-.1.12c-.15.12-.21.21-.32.3-.16.14-1.03.38-.8.79,1.45.99,2.93,2.22,4.44,3.13h0s.05.06.05.06c.03.01.04.04.07.05.07.03.17.06.23.09.14.08.72.38.76.37.43-.02.73-.66,1.13-.77h0c.11-.15.21-.31.31-.46.05-.08.11-.16.16-.23.06-.08.12-.15.17-.22.07-.06.14-.12.22-.16.02-.01.04-.02.05-.03h0c-.11-.32.16-.21.2-.25.06-.05.14-.14.22-.24.07-.09.14-.19.19-.25.01-.03-.05-.16,0-.21.16-.14.46.02.73-.54.04-.09.06-.17.07-.26.01-.03.02-.07.03-.11.01-.04.02-.08.05-.12.03-.06.07-.13.13-.2h0s0,0,0,0c0,0,.01-.03.02-.05,0-.02.02-.06.04-.09,0-.02.02-.03.04-.04.01-.02.03-.02.05-.03.13-.04.24-.04.32-.03.03,0,.07.01.09.02.03,0,.06.02.08.04.03.01.05.04.07.06.03.02.05.06.08.11.08.15.11.37.16.61.17.11.27.2.48.29,0,0,0,0,0,0,.05.02.2-.04.29.08.12.17.36.97.39,1.22.07.07.74-.56,1.07-.1.36.51-.1.54-.12.58-.03.03.09.31-.31.25.04.49.72.5,1.05.3.23-.15.16-.5.18-.52.19-.27.3.28.26.43.28-.09.22.18.24.2.17-.07.59.04.9.12.03,0,.07.01.09.02.18.05.3.08.33.08.47-.13-.19-.32-.26-.43-.32-.5.31-.79.53-.5.16.21-.39.89.56.37.21-.11.26-.36.51-.35.1.22.19.44.09.61-.03.06-.11.12-.21.16,0,0-.02.01-.05.01-.02.01-.05.01-.07.01-.06.01-.12.02-.18.03-.06,0-.12.02-.16.05-.07.04-.1.1,0,.19.13.11.87.02.82.38.02,0,.03,0,.06,0,.06,0,.13-.04.17-.02.13-.77.44-.06.69.11.25.16.53.32.71.45.03.01.12-.02.18.03,1,.82,0,.5-.08.94-.08.38.96.63.28,1.26-.35-.22-.61-.7-1.07-.59-.73.18.58.81-.14,1.15-.2.1-.16-.21-.24-.2-.09,0-.21.12-.32.12-.22,0-.46-.09-.69-.04-.21.04-.5.87-1.16.34-.12.03-.44.06-.56.05-.29-.03-.51-.28-.48-.57.02-.18.33-.33.36-.52.02-.18-.16-.36-.13-.52.03-.19.48-.27.4-.5-.45-.1-.58-.4-.86-.6-.13-.1-.35-.11-.46-.2-.16-.14-.37-.72-.89-.54-.67.24.53.66.58.7.46.51-.16,1.01-.72.9l.13-.92c-.38-.08-.96.06-1.04-.36-.01-.05-.03-.18-.02-.22-.29-.06-.52-.34-.86-.24-.38.11-.47,1.06-1.34.3-.64-.55.1-.63.4-.88.49-.41.91-.88,1.07-1.51.17-.66-.9-.52-1.26-.79.26.95-.37.28-.72.85h0s0,.17.02.23c0,.02.03.05.05.08.04.04.07.09.09.14.02.06.04.13.01.22l-1.02-.02c-.03.08,0,.25-.08.34-.04.69.38,0,.71.33.53.54-1.1.44-1.21.4-.02,0-.01-.06-.02-.11,0-.04,0-.07,0-.1v-.02s0,0,0,0c0-.02-.32.02-.33.03,0,0,.04.15-.02.19-.36.26-.88.43-.34.93.09.06.67.47.72.48.17.05.39-.16.58-.05.19.11.12.59.16.62.1.09.63-.32.76.47l7.81,5.39c.51.28.22-.49.58-.45.15.02.47.54.47.69,0,.05-.4.08-.15.41.26.35,1.6.85,1.94,1.29.25.03.15-.12.13-.28-.06-.38-.69-1.09-.25-1.28.69-.3.82.2,1.27.43.22.13.5.12.71.28.09.06,1.21,1.76,1.23,1.87.02.09.02.19.02.28-.38.09-.96-.11-.73.39l3.11,2.05c.52.13,1.11-.11,1.62-.07.07,0,.91.21.94.24.58.65-1.25.33-1.48.54.74.7,1.64,1.18,2.45,1.78.16.11.33.15.34.39,1.06.69,2.16,1.4,3.24,2.09.17.11.26.14.48.29.26.19.38.27.61.51h0c.13.02.19,0,.21-.05.05-.07-.01-.21,0-.34.02-.32.01-.72,0-1.15,0-.28-.03-.57-.04-.85-.02-.42-.06-.84-.09-1.18s-.47-1.02.08-1.08ZM9.39,45.9s-.04.09-.07.13c-.06.07-.14.11-.24.12-.04,0-.09,0-.13-.01-.04,0-.08-.02-.12-.05-.02,0-.03-.01-.05-.03-.02,0-.04-.02-.06-.04-.06-.04-.11-.1-.14-.18-.04-.07-.06-.15-.07-.26,0-.09,0-.18.02-.29.15-.02.26-.05.41,0h0s0,0,.02.02c0,.02.02.04.03.06.01.02.03.04.04.05.1.06.27-.02.3.08.03.09.05.16.06.22s0,.12-.02.18ZM9.48,44.52h0c-.1.05-.2.04-.29,0-.04-.02-.08-.04-.12-.07-.03-.02-.06-.05-.08-.08-.03-.03-.05-.06-.06-.09-.08-.15-.08-.33.1-.39.08-.03.14-.04.19-.03.02,0,.05.02.07.03.03.01.04.02.05.04.02,0,.04.04.05.06.03.05.05.09.06.15.02.09.03.19.03.28.01.03.01.06,0,.1ZM12.68,49.33c-.11-.15-.13-.38-.21-.47,0,0-.02-.02-.04-.04-.04-.04-.13-.08-.22-.14-.05-.03-.1-.06-.15-.09-.21-.13-.44-.28-.56-.39h0c-.25-.24-.11-.13-.25-.32,0,0-.15.05-.2,0-.09-.09-.04-.4-.1-.57-.04-.12-1.39-1.21-.37-1.19.25,0,.45.38.76.28.04.23-.14.45-.15.66,0,.16.12.23.12.24h0c.06,0,.13.01.19.02.06.02.12.05.18.08.04.03.08.06.11.09.09.07.16.17.23.27.06.1.12.21.17.32.04.06.06.13.08.19s.04.12.06.18c.29.09.47.02.69.36.36.57.24,1.25-.32.51ZM13.9,54.06s-.05.1-.09.13c-.07.06-.18.08-.33.05-.43-.11-.16-1.39.28-1.15.08.03.28.65.14.97ZM15.38,56.98c-.04.07-.1.12-.2.15-.47.12-.47-.79-.25-.99.25-.2.62.49.45.83ZM16.99,55.72c-.09,0-.16-.02-.23-.08-.02,0-.03-.02-.04-.04-.02-.01-.03-.03-.04-.04-.02-.04-.03-.09-.04-.13,0-.09.02-.18.07-.25.06-.07.13-.11.21-.12.18-.02.34.12.36.3s-.11.34-.3.36ZM19.04,58.03s-.07.06-.1.09c-.16.11-.36.18-.5.16-.03-.01-.06-.02-.08-.03-.02-.01-.03-.03-.04-.04-.09-.11-.12-.22-.1-.33.01-.06.03-.11.07-.16.02-.03.04-.06.07-.09s.06-.05.09-.06.07-.03.1-.04c.04-.01.07-.02.11-.03.06,0,.1,0,.15.01.09.02.18.06.26.15.03.03.07.06.09.1,0,.1-.03.19-.11.27ZM21.72,47.28c.08-.02.15-.01.22-.02h0c.08-.02.15-.01.21-.02h0s0,0,0,0c.06-.17.1-.28.15-.35,0-.02.02-.04.03-.05.02-.03.04-.04.05-.01.02,0,.03.04.03.08.02.09.04.24.08.31h0s.07.11.12.17c.05.06.1.12.13.16,0,0,.06,0,.13.01,0,0,.02,0,.03,0,.07,0,.15.04.19.14.03.08.03.18.02.29,0,.05-.02.09-.04.14-.02.05-.04.1-.07.14-.02.04-.05.08-.09.11-.01.02-.04.04-.06.05-.05.02-.1.04-.15.05-.06.02-.12.03-.16.02-.04,0-.07,0-.1-.02-.06-.04-.08-.12-.09-.17,0-.02,0-.03-.01-.05,0,0,0,0-.02,0-.02,0-.05,0-.08.02-.07.01-.16.03-.22,0-.02,0-.03-.02-.04-.04-.1-.13-.22-.44-.29-.67-.03-.11-.03-.21-.01-.25ZM22.07,49.9s-.02.07-.04.1c-.02.03-.05.05-.09.06-.02,0-.04.02-.05.02-.02.01-.06.01-.08.02-.11.01-.23-.02-.34-.07-.08-.04-.15-.11-.18-.18-.03-.05-.03-.09-.03-.15h0c.21-.13.85-.18.8.21ZM20.93,46.28s-.03.09-.05.13c-.02.04-.05.08-.07.13,0,0-.01.02-.01.03-.04.05-.09.1-.13.14-.04.04-.1.08-.14.1l-.09.03s-.09.02-.13,0c-.03-.01-.06-.02-.08-.03-.06-.03-.11-.11-.14-.22-.01-.04-.02-.08-.03-.13-.04-.25.02-.4.14-.5.01-.02.04-.03.05-.04.04-.03.08-.05.12-.06.03-.02.07-.03.12-.03.13-.04.27-.05.42-.05.08.17.08.35.03.51ZM17.4,42.05c.39-.37,1.36-.07,1.56.26.16.27.07.91.16,1,.04.04.22-.01.32.06.15.11.55.57.64.61.23.11.84-.15.54.35-.36.59-1.11-.43-1.47-.51-.47-.09-2.47.3-2.53-.33,0-.08.67-1.34.77-1.44ZM15.8,46.9h0c-.2.11-.35.12-.46.05-.06-.03-.1-.08-.14-.13-.05-.07-.09-.15-.1-.25-.02-.05-.03-.11-.03-.17s0-.11,0-.17c0-.07.01-.13.02-.18.01-.03.02-.05.03-.07,0-.02.01-.03.03-.05.02-.02.03-.03.05-.04,0,0,0,0,0,0,.08-.05.17-.01.25.06.03.03.07.07.1.11.04.04.06.1.09.14.02.05.05.11.07.16s.04.11.06.16c.01.03.02.06.02.09.02.12.02.21,0,.27ZM14.66,44.23v-.16c.35-.1.55-1.33,1.1-.9.22.63,1.3,1.27.64,1.95-.89.91-1.06-.51-1.74-.89ZM19.55,49.3c-.1.15-.15.61-.25.7-.25.21-1,.15-1.05.2-.07.08.23.78-.11.69-.61-.19-.31-1.05-.29-1.4,0-.21-.37-.7.1-.74.17,0,.37.26.58.18.4-.14-.14-.65-.14-.89l-.54.27c.17-1.71-.45-.83-.66-.96-.03-.02.01-.19-.02-.22-.13-.15-.27-.14-.35-.19l-.57.05c-.21-.59.16-.55.18-.59.01-.03.04-.14.09-.23.17-.3.05-.41.51-.32.04.01.09.02.14.04h0c.17.04.29.08.37.14.11.09.14.23.14.48h0c.86.06,1.21.83,1.74,1.28.05.05.25.03.36.12.3.24.09.61.13.66.04.04,1.24.32.87.89-.45.34-1.01-.33-1.25-.16ZM22.09,57.1s-.06,0-.09,0c-.02,0-.05-.01-.07-.03-.03,0-.07-.02-.09-.03-.07-.03-.13-.07-.2-.11-.26-.18-.54-.45-.69-.69-.03-.04-.05-.07-.06-.1-.02-.03-.03-.07-.04-.1,0-.02-.01-.03-.01-.05-.01-.07-.01-.14.02-.18,0-.02.02-.04.04-.05.02-.03.04-.04.07-.05.05-.01.09-.02.14,0,.03,0,.07.02.11.02.04.02.08.04.12.05.03.01.05.03.08.04s.07.03.1.04c.05.01.09.02.13,0,0,0,.02,0,.03-.01,0,0,0,0,0-.02,0-.03,0-.1.02-.15.02-.06.06-.09.12-.06.03.01.06.03.09.06.29.25.56,1.1.17,1.41ZM28.36,59.87c-.06-.02-.12-.05-.19-.1h0s-.03-.02-.03-.04c-.02-.01-.03-.03-.04-.04-.02-.03-.03-.06-.05-.08-.02-.03-.04-.05-.05-.08-.03-.01-.05-.02-.09-.02-.03,0-.08,0-.14.04-.05.02-.08.05-.12.08-.05.04-.1.09-.12.15-.02.03-.04.05-.04.08-.02.03-.03.05-.03.08-.02.03-.03.07-.03.11-.02.07-.02.13-.01.19,0,.04.01.08.03.12.05.04.12.1.21.16,0,0,.02.01.03.02.02.01.03.03.06.05.29.23.67.55.86.77.04.05.06.09.08.13.07.01.12.03.17.06.03.01.05.03.06.05.03.02.04.04.06.06.04.04.06.09.09.14.11.29,0,.65-.43.43-.05-.04-.07-.1-.09-.15-.01-.03-.01-.05-.02-.08,0-.02,0-.03,0-.04h0c-.09-.06-.19-.11-.29-.17-.1-.06-.2-.13-.32-.24-.35-.02-.95.45-.91-.03-.04,0-.09.02-.12.01h0s0,0-.02-.01c-.06-.02-.13-.12-.21-.25-.06-.09-.13-.2-.2-.31h0c-.07-.11-.14-.22-.22-.31-.04-.04-.07-.08-.11-.12h0c-.11-.11-.22-.19-.34-.25-.3-.17-.6-.25-.8-.39l-.05-.04s-.04-.03-.06-.05c0-.02,0-.02-.02-.02h0s-.04-.05-.06-.09c-.02-.03-.05-.06-.07-.11-.08-.13-.19-.29-.31-.47-.06-.1-.13-.2-.2-.31-.06-.08-.11-.16-.16-.23-.08-.12-.15-.23-.2-.31-.02-.04-.04-.07-.05-.09-.02-.02-.03-.04-.03-.05-.01-.06-.03-.11-.01-.15,0,0,0-.02,0-.02t0-.02h0s.02-.05.04-.07c.02,0,.02-.02.04-.02.03-.01.07-.02.1-.03.04-.01.08-.02.12-.02.03,0,.06,0,.09-.02.02,0,.05,0,.06-.01.03,0,.05-.01.08-.03.02,0,.03-.02.04-.04.02,0,.02-.02.03-.03h0c.03-.05.02-.12.02-.19,0-.02,0-.06,0-.08,0-.02,0-.05,0-.07,0-.02,0-.04.01-.06,0-.02.01-.05.03-.07t0-.02s0,0,.01-.02c.01-.03.04-.04.06-.05.05-.03.09-.02.14-.01.04,0,.08.03.12.06.03.01.04.04.07.05.04.04.09.06.14.08.02.01.05.02.07.03.05.01.1,0,.15-.01.02-.01.05-.02.07-.04h0s0,0,0,.02c0,.05-.02.18-.07.32,0,.03-.02.07-.03.1,0,0,0,.02,0,.03-.02.05-.03.1-.05.12,0,.02-.01.03-.02.03-.02.03-.06.05-.1.06-.08.03-.17.04-.22.09-.01.02-.02.03-.04.06-.02.06,0,.14.05.28.11.28.98.05,1.03.08.03.02.26.64.3.76.01.04,0,.07,0,.11.05-.01.09-.02.13-.02.09,0,.11.02.12.11,0,.03,0,.07,0,.12.04,0,.07-.01.1,0,.13.03.34.14.5.16.05.01.1.02.13,0,.02,0,.04,0,.06-.01h0s.27-.62.27-.66c0-.08-.01-.15-.03-.2-.02-.05-.05-.09-.08-.11-.03-.03-.07-.04-.12-.05-.07-.02-.15-.02-.24-.03-.13-.01-.26-.02-.34-.09-.03-.02-.06-.05-.08-.08-.04-.07-.05-.16-.05-.3.24.11.52-.04.72-.06.03,0,.06,0,.09,0,.04,0,.07.03.11.05.03.02.07.06.1.09.02.01.03.03.05.04.03.03.06.05.09.06h0s.03.01.05.01c0,0,.02,0,.04,0,.22-.02.62-.28.9-.12.1.06.2.46.2.85,0,.11,0,.22-.01.32,0,.1-.03.2-.06.27-.01.03-.03.06-.06.09-.02.03-.04.05-.07.06-.01.02-.03.03-.05.03-.05.02-.12.02-.2,0ZM31.51,66.78c-.06,0-.16-.02-.28-.04-.09-.02-.19-.05-.29-.07-.07-.02-.13-.04-.19-.06-.03,0-.07-.02-.09-.03-.06-.02-.12-.05-.16-.08-.11-.06-.17-.14-.16-.23,0-.02.01-.05.03-.07.03-.04.07-.07.13-.08.03-.01.06-.01.09-.02.09,0,.19,0,.29.02.07.02.15.04.22.07.08.03.14.07.21.11.04.03.09.06.11.09.03.02.06.06.08.1.04.08.06.18,0,.28ZM31.31,65.41h0s-.04-.04-.05-.06c-.13-.15-.1-.32,0-.47.01-.02.03-.03.04-.04.03-.03.06-.06.09-.09.04-.03.07-.05.11-.07.18-.09.38-.11.49.04.32.42-.16,1.13-.68.69Z"/>
      <path class="cls-1" d="M23.08,69.8s0,0,0,0h0s-.08.02-.11.01c-.22-.08-.6-.31-1.06-.59-.23-.14-.48-.3-.74-.48-.26-.17-.52-.35-.79-.54-.13-.09-.27-.19-.4-.28-.52-.37-1.02-.74-1.41-1.05-.1-.08-.19-.15-.28-.22-.08-.07-.16-.13-.23-.19-.06-.06-.12-.11-.17-.15-.12-.12-.31-.24-.49-.41h0s0,0,0,0c-.02,0-.02.01-.04.01-.04,0-.08,0-.11,0-.07,0-.14-.04-.21-.09-.07-.04-.13-.09-.19-.14-.03-.03-.06-.05-.09-.07-.05-.04-.09-.07-.13-.08-.05-.01-.08,0-.1,0,0,0-.02,0-.02,0h0s0,0,0,0c-.02,0-.02.03-.02.05-.02.12.05.34-.16.29-.02,0-.12-.04-.25-.09-.08-.03-.17-.07-.26-.1-.08-.04-.15-.07-.2-.09-.02,0-.03-.02-.03-.02-.03-.03-.06-.08-.08-.15-.03-.1-.06-.22-.09-.35,0,0,0-.02,0-.02-.01-.07-.03-.14-.05-.2-.01-.02-.02-.05-.03-.08,0-.02-.02-.05-.03-.06-.04-.06-.93-.84-1.04-.93-.04-.03-.09-.06-.12-.1l-.13-.1s-.07-.07-.12-.1c-.06-.04-.28.02-.34-.16-.01-.04-.02-.09-.02-.15-.03,0-.09.02-.11.01-.37-.13-.38-.22-.53-.34-.02-.02-.04-.04-.08-.06s-.07-.07-.12-.1c-.05-.04-.56-.21-.58-.18.12.29.16.48.07.79-.7.07-.95-.45-1.53-.67.22-.73-.25-1.19-.98-1.24-1-.07-.39.36-.72.74-.15.17-.5.19-.7.29,0,.06,0,.17.02.22.02-.01.04-.01.06-.01.08-.02.12,0,.15.01.02.01.03.04.03.07,0,.05,0,.1.01.14h0c.98,1.53,1.88,3.1,2.84,4.63,4.62,7.27,9.58,14.37,14.23,21.65.2.13.28-.1.37-.22.91-1.21,2.14-3.62,2.8-5.01.05-.11.11-.16.2-.23,0-.02-.01-.04-.01-.05-.01-.07-.01-.12.01-.15.02-.03.06-.04.1-.04.03,0,.06,0,.1,0h0s-.02-.1-.01-.12c0-.02-.01-.05-.01-.07-.01-.07-.01-.11.01-.14.03-.03.09-.03.21-.03h0c.06-.3.11-.23.29-.48.04-.05.06-.09.1-.12.01-.03-.03-.09-.01-.12-.05-.24-.04-.25.2-.24,0-.03-.03-.1,0-.11-.01-.03-.01-.05-.01-.07,0-.05,0-.08,0-.1,0-.03.01-.05.04-.05.02-.01.05-.01.1-.02.02,0,.05,0,.07,0,.03-.08.02-.16.1-.23h0c0-.11,0-.19.05-.26.05-.07.13-.11.25-.11.05-.2-.1-.25.18-.47-.05-.18,0-.26.15-.25.02,0,.03,0,.05,0h0c0-.06-.01-.08,0-.11h0c.02-.1-.04-.24.03-.34l1.78-2.89-.04-.44-9.6-6.84ZM15.85,66.41h0s-.03.08-.05.1c-.14.19-.57.18-.71,0-.05-.07-.06-.16-.02-.27,0-.02.01-.03.02-.03,0-.02,0,0,0,0,0-.02.01-.03.04-.04.02-.03.04-.04.08-.05.05-.03.09-.06.15-.08.05-.02.12-.03.17-.04.03,0,.06,0,.1,0,0,0,.02,0,.03,0,0,0,.02,0,.02,0,.02,0,.05.01.07.03.03.01.06.03.08.07,0,.02.02.03.03.05,0,.02.01.03.01.05.01.06.01.14-.01.23ZM21.02,71.94c-.02.06-.05.12-.09.15-.03.02-.06.05-.1.06-.02,0-.03.01-.05.01-.02,0-.05,0-.07-.01-.09-.02-.18-.1-.24-.21-.04-.05-.06-.12-.07-.17-.04-.16-.01-.33.13-.38.04-.02.08-.02.12-.03.03,0,.06,0,.1,0,.05.01.08.02.12.05.03.03.07.06.09.1,0,.02.02.05.03.07.03.08.04.16.04.25,0,.03-.01.07-.02.09ZM25.21,79.68l-.46.04-.05-.56.46-.04.05.56ZM27.48,85.31c-.09.1-.23.15-.36.1-.04-.02-.09-.06-.13-.1-.08-.1-.1-.18-.1-.26,0-.02,0-.03,0-.05,0-.02,0-.04.02-.06,0-.02.02-.05.04-.07.01-.03.04-.04.06-.06.02-.02.04-.04.08-.05.12-.06.28-.05.36.06.14.19.12.37.03.49ZM28.52,83.8h0c-.05.03-.11.05-.16.06-.04,0-.08,0-.12-.01-.12-.03-.22-.12-.27-.22-.07-.11-.08-.24-.02-.35.04-.07.17-.12.29-.14.1-.03.2-.03.22-.01h0s.02.54.06.68ZM28.24,82.02s-.05-.16-.03-.29c0-.03.01-.07.02-.09.01-.06.04-.11.08-.14.04-.04.09-.07.15-.06.03,0,.06.01.08.02.03.01.05.03.06.05.19.19-.14.71-.37.51ZM28.62,78.62c-.06,0-.14,0-.19-.02-.06-.02-.12-.05-.17-.09-.03-.03-.07-.07-.09-.11-.03-.03-.05-.07-.06-.11-.01-.03-.02-.07-.03-.11,0-.07,0-.14.02-.2.02-.06.05-.12.09-.16.09-.1.2-.16.34-.17.27-.02.51.17.54.45s-.18.51-.45.53Z"/>
      <path class="cls-1" d="M60.85.06c-.19-.02-.38-.05-.57-.06-.32.22-.9.21-1.29.23-.14,0-.29.07-.36.02-.04-.02-.06-.08-.05-.2-.22.03-.45.02-.67.06,0,0,0,.02-.02.06,0,0-.01.03-.04.04-.02,0-.04.01-.07.02,0,0-.02,0-.03.01-.03.01-.09.02-.15.01-.35.05-1.09.13-1.15.1,0,0,0-.02-.01-.03,0-.04,0-.11,0-.17v-.03c-.23.03-.45.03-.68.06h0v.02s0,.05-.06.09c-.02.01-.05.03-.09.03-.03.01-.09.02-.17.01-.36.04-1.09.13-1.13.1-.02-.01,0-.17-.02-.23-.37.04-.76.07-1.12.1-.37.04-.39.1-.9.08-.15,0-.3.04-.45.04-.06.03-.12.05-.19.06-.04.01-.08.02-.12.04-.03.01-.06.01-.09.02-.13.03-.25.05-.39.06h-.03c-.21.02-.42.02-.63.03-.03,0-.06,0-.1,0-.26,0-.51-.01-.75,0-.14,0-.28.07-.36.02-.04-.03-.06-.09-.05-.21-.97.04-1.95.11-2.93.15-.36.23-.98.22-1.4.24-.19,0-.39.13-.41-.09,0-.02,0-.06,0-.1h0c-.83.04-1.65.08-2.48.11-.44.23-1.13.23-1.63.26-.22.01-.44.15-.41-.19-.15.01-.29.03-.45.04h0s-.02.04-.04.06c-.02.03-.06.05-.1.06-.04.02-.09.03-.13.04-.13.01-.25-.03-.3-.11l-.68.06s-.04.1-.04.15c-.02.08-.04.16-.06.25-.02.09-.03.17-.06.25-.02.08-.04.16-.07.24-.01.04-.03.07-.05.11-.01.03-.03.07-.06.1-.03.04-.06.09-.11.12-.03.03-.07.05-.11.08-.03.02-.06.04-.1.06-.03.01-.07.03-.1.04-.04.01-.08.02-.12.03-.08.02-.16.03-.22.02-.03,0-.06-.01-.09-.02-.04-.01-.08-.04-.1-.07-.03-.03-.05-.06-.07-.11-.04-.08,0-.23-.03-.33h0s-.09.02-.12.02c-.1,0-.12-.01-.13-.11,0-.03,0-.07,0-.12-.02-.02,0-.24-.03-.33l-.45.04c0,.14.05.31.04.45,0,.2-.06.35-.07.46,0,.1,0,.25,0,.4,0,.06,0,.13,0,.18,0,.04,0,.08,0,.12,0,.08-.02.15-.04.2,0,.02-.01.03-.02.05-.01.03-.03.04-.04.05-.01.02-.05.03-.07.03s-.04,0-.06,0h0c-.01.13.07.32.04.48-.04.33-.69.45-.99.35-.03-.01-.57-.49-.59-.52-.27-.38-.38-1.97-.35-2.51-1.07.07-2.14.14-3.21.18-1.65.06-3.32.05-4.97.11-.19,0-.93-.02-.84.24.21.51.99,1.52,1.33,2.09h.05s.02,0,.02,0c.07-.01.12-.01.15.01.03.03.03.09.03.21.03.02,0,.16.02.22.3-.1.4.38.51.63h0c.02.07,0,.17.02.23.03-.01.06-.01.09-.02.06,0,.1,0,.12.04.03.02.05.06.07.11.02.05.03.09.04.14.02.05.03.11.06.15.13.25.26.51.4.76.23-.05.25-.02.24.2h0c.06.09.36.75.42.87.05-.01.08-.02.11-.02.12-.01.14.04.13.22h0c.17.15,1.64,2.64,1.85,3.01.29-.1.31.19.38.41h0s0,.08,0,.11c.05-.01.09-.02.12-.02.04,0,.07,0,.09.02,0,0,.02.01.02.03.02.02.02.06.02.11,0,.02,0,.04,0,.06h0c.07.11.61,1.29.7,1.42l.1.09s.02,0,.02,0c.25.41.43.59.66,1.07h.02s.08,0,.11.01c.04,0,.07.03.1.05.03.01.04.04.06.06.03.02.04.04.05.08.02.02.03.05.05.08.03.07.05.15.07.22.01.05.02.09.03.13.01.04.02.08.03.12h.11c.09-.03.19-.06.28-.09.19-.06.35-.16.53-.24.09-.04.18-.08.28-.11.07-.02.17,0,.22-.02l.03-.02,1.16-.72s.08-.04.12-.03c.06.02.09.07.1.07.06-.02.15,0,.22-.02.11-.56,1.09-.62,1.5-.94.26-.46-1.38-1.01-1.68-1.16-.16-.08-.31-.3-.45-.33-.24-.04-.44.24-.69.27-.09.02-.26-.03-.34-.08-.04-.02-.09-.06-.12-.09-.07-.07-.13-.15-.16-.23-.07-.19-.03-.38.21-.36-.03-.12-.07-.21-.14-.32-.1,0-.18-.03-.26-.06-.08-.04-.16-.09-.24-.14-.06-.03-.12-.07-.18-.11-.28-.2-.56-.44-.76-.57-.05-.04-.09-.08-.12-.1h0s-.13-.01-.21-.04c-.02,0-.05-.02-.07-.04-.02-.03-.02-.09.04-.16,0-.02.01-.03.03-.04.01-.02.03-.03.05-.05.03-.03.07-.07.12-.11.11-.1.31-.16.43-.26.02-.02-.06-.19.04-.23.1-.03.16-.04.21-.03.02,0,.04.02.04.03.05.05.01.17.05.2.06.06.14.08.24.2.2,0,.35.08.44.23.02.03.03.06.03.09,0,.02.01.06.01.08h0s.03,0,.05,0c.08,0,.19,0,.29-.02.02,0,.05,0,.06-.01.02,0,.03-.01.05-.01,0,0,.03-.01.05-.02.02-.02.04-.04.08-.05.04-.02.07-.04.1-.05.07-.04.14-.05.21-.03.01-.03.02-.04.03-.06.07-.14.09-.16.17-.3,0-.02.01-.03.02-.05.01-.04.02-.08.03-.11,0-.02,0-.04.02-.06s.02-.03.04-.05c.05-.05.14-.08.3-.1-.02-.18-.02-.38-.05-.56-.07-.38-.37-1.04-.01-1.27.04-.04.11-.06.19-.07.21-.03.34,0,.42.07.27.25-.01.96-.03,1.17-.02.17.01.34.03.52,0,.1.01.21,0,.31,0,.04,0,.07-.02.11,0,.02-.01.03-.02.03,0,.02-.01.03-.02.03-.04.04-.07.05-.12.07-.05.02-.09.04-.13.06-.02,0-.02.01-.04.03-.02,0-.03.01-.05.03-.02.01-.04.04-.05.06-.01.02-.03.04-.03.08h0c.05.17.02.39.05.56.16.82.26.37.71.65.03.02.38.43.39.46.01.04,0,.07-.04.11,0,.02-.02.03-.03.03,0,0-.02,0-.02,0h0c.02.05.05.11.07.15.06.1.11.2.15.27.03.05.04.08.05.12.5-.15.49.41.74.55.12.07.8.23.94.2l15.58-7.85c.06-.09-.52-.65-.24-.89.56-.5.88.4,1.35.33.49-.08.14-.57.43-.7.28-.13.5.2.76.13.51-.12,2.04-1.12,2.66-1.43.71-.34,1.45-.74,2.19-1.03.09-.03.24,0,.33-.03h0s.19-.35.19-.35c-.43.11-.84.04-1.24,0ZM37.28,9.71c-.06.02-.13.02-.18,0-.02,0-.06-.03-.09-.06-.07-.05-.12-.13-.18-.22-.03-.05-.06-.09-.09-.14-.03-.05-.05-.12-.07-.17-.02-.06-.04-.12-.06-.18-.05-.16-.09-.31-.12-.45-.01-.07-.02-.13-.02-.18v-.13c-.02-.14,0-.32.05-.47,0-.02.01-.05.03-.08,0-.02.02-.05.03-.07,0,0,0-.02,0-.02l.04-.05c.04-.05.09-.08.14-.09.02,0,.04,0,.07.01.02,0,.04,0,.06.02.04.02.09.06.15.1.44.39-.14.7-.12.93.02.21.58.77.56,1.07-.07.08-.13.13-.2.15ZM42.44,5.62s-.08-.03-.1-.07c-.03-.03-.06-.07-.09-.13-.02-.05-.04-.13-.04-.2,0-.06,0-.14,0-.22l.73-.17h0s.01.06.02.09c.01.03.01.06.02.09.04.45-.29.69-.54.59Z"/>
      <path class="cls-1" d="M20.33,4.6l-1.16,2.04c0,.1,0,.19-.01.28,0,.09-.03.17-.06.25-.11.3-.32.51-.51.75-.05.05-.1.11-.15.18-.05.06-.09.13-.13.2h0c-.17.3-.33.59-.48.89-.11.21-.22.42-.32.63-.13.26-.26.53-.38.8-.13.26-.25.53-.38.8-.3.64-.61,1.27-.94,1.86-.09.16-.09.34-.34.37,0,0-.01,0-.03.01-.01.03.02.08,0,.1h0c.03.19.04.24-.08.25-.03,0-.08,0-.13,0,0,.03.02.09,0,.11.01.05.02.09.03.12.01.12-.04.12-.23.12,0,.03,0,.08,0,.11.01.04.03.07.05.1.04.06.09.11.14.16.03.02.06.04.09.07.16.12.31.22.15.4-.02.03-.06.05-.1.08-.04.04-.1.07-.17.11-.11.07-.21.11-.28.14-.05.01-.1.03-.14.05-.03.01-.07.03-.1.05-.02.01-.05.03-.07.05s-.04.04-.06.08c-.02,0-.02.02-.02.03-.03.03-.05.06-.06.1-.02.03-.04.07-.05.11-.02.04-.04.09-.06.14-.03.07-.04.14-.06.2-.01.06-.02.11-.03.15,0,.08.01.14.03.19.01.03.03.06.05.08.04.04.06.08.08.14,0,.02.02.05.02.09v.06s0,.09,0,.15c0,.05-.01.11-.03.17-.04.2-.11.41-.19.6-.05.12-.12.24-.2.31-.04.04-.07.07-.1.09h0c-.15.08-.31.07-.45.1-.05,0-.09.02-.13.03-.02,0-.06.04-.09.08-.14.15-.35.5-.59.96-.06.12-.12.24-.18.36-.1.18-.19.38-.29.58-.03.07-.07.13-.1.2-.03.08-.07.15-.11.23-.04.06-.06.12-.09.18-.07.13-.13.27-.2.4-.04.09-.08.18-.12.26-.27.56-.51,1.05-.66,1.33-.04.07-.07.13-.1.17-.11.16-.12.35-.39.36-.92,1.94-2.6,4.84-3.24,6.75,0,.02-.01.04-.03.07-.02.08-.06.22-.1.36-.07.25-.14.51-.14.54.06.3.45.36.58.48.02.01.03.03.04.05,0,.02-.01.06-.03.12-.05.17-.17.54-.22.89-.01.06-.01.11-.02.16-.01.15,0,.28.06.36.43-.09,1.07.06,1.47-.02.49-.08,1.26-.83,1.71-1.17-.01-.14.16-.35,0-.46-.1-.07-.33-.23-.56-.41-.03-.03-.06-.06-.1-.08-.07-.06-.13-.12-.19-.18-.04-.04-.09-.09-.12-.13-.15-.16-.24-.32-.18-.43h0s.02-.02.04-.03c.06-.03.18-.08.24-.21.03-.07.06-.19.08-.32.04-.22.08-.48.12-.52.06-.05.22-.07.4-.06.08,0,.16,0,.25.03.05.01.1.02.15.03.09.03.17.06.23.12.08.06.12.13.11.22l-.45.04c-.05.26.24.39.27.59.01.13-.09.29-.05.44.11.37.71.55,1.03.32.4-.32.64-.48,1.06-.77.23-.53-.13-.43-.24-.59-.04-.05-.07-.1-.1-.15-.07-.1-.13-.2-.19-.29-.06-.09-.14-.17-.22-.24-.09-.08-.19-.14-.31-.19-.06-.03-.13-.05-.21-.07-.29-.07-.89.17-1.15-.35-.21-.41.92-.04,1.01-.07.5-.17.91-.83.4-1.24-.03-.02-.06-.04-.1-.05-.03-.01-.04-.02-.06-.02-.04,0-.08,0-.13-.01-.04,0-.08,0-.12,0-.17,0-.34.01-.5-.02-.06-.02-.12-.04-.16-.07-.13-.08-.2-.24-.19-.5.64-.27,1.04.48,1.59.27.05-.01.1-.04.15-.08.02,0,.03-.03.04-.04.09-.1.07-.27.29-.33.13-.04.28-.07.44-.08.17-.03.34-.05.52-.05.36-.04.72-.07,1-.15-.01.06,0,.12,0,.18,0,.09.02.17.05.27.02.09.05.18.07.27.06.21.11.42.09.59,0,0,0,.02,0,.02,0,.03-.02.07-.03.11-.02.03-.04.08-.08.11-.02.03-.04.04-.07.06-.06.05-.13.08-.22.1,0,.04.27.73.31.76.04.04.24-.03.33-.02.11-.1.31-.17.43-.26-.05-.24-.02-.26.2-.25h0s.28-.15.43-.26c-.02-.35.26-.4.52-.5.03-.01.07,0,.11-.01-.06-.22-.02-.26.2-.25.12-.12.57-.4.75-.52-.03-.09-.02-.16.01-.21.03-.03.06-.05.11-.07.09-.03.2-.06.3-.09h0s.08,0,.1-.01h0s0,0,.02,0l10.38-8.57-8.31-12.9ZM16.53,23.05c-.17.02-.33-.11-.35-.29s.12-.32.29-.34c.04,0,.09,0,.12.01.04.01.08.03.11.06.06.05.1.12.11.21.02.17-.11.33-.28.35ZM17.57,17.24s0,.05-.01.07h0c-.2.06-.45.03-.71-.05-.08-.02-.16-.05-.24-.08-.08-.03-.17-.07-.25-.12-.08-.03-.14-.08-.21-.13,0,0-.03-.01-.04-.03-.07-.04-.13-.09-.18-.14-.06-.05-.11-.1-.17-.16-.09-.1-.16-.23-.19-.34-.01-.04-.02-.08-.02-.11v-.05c-.01-.17,0-.31.05-.41.02-.03.03-.07.06-.09.16-.22.47-.22.87-.09.07.02.13.05.2.11.04.03.08.06.11.09.03.03.07.07.11.11.05.06.11.13.16.2.13.18.25.4.34.61s.13.42.12.58v.02Z"/>
      <path class="cls-1" d="M63.25,88.87c-.26.12-.4.55-.86.33l-.16-.62.79-.07-.15-.26-9.92-3.54-.35-.02c.39.94.07,1.69-.71.67-.29-.36-.31-.75-.48-1.05-.11-.18-.39-.11-.35-.39-.31-.09-.62-.16-.93-.25h0c-.1-.03-.22.1-.24-.09,0-.02,0-.06,0-.11h0c-1.22-.33-2.41-.69-3.6-1.1-.32-.12-.85-.49-1.15-.49-.46-.03-1.33.46-1.66.8-.01.02.12.32-.22.26,0,0-.02,0-.04-.01,0,0-.02,0-.03-.01-.03-.01-.04-.04-.05-.07,0-.02-.01-.03-.02-.05,0-.02-.01-.03-.02-.04-.01-.03-.03-.05-.05-.08,0,0-.02-.01-.03-.02-.09-.05-.19,0-.3.04-.05.01-.1.03-.15,0-.03-.01-.07-.03-.08-.06-.02-.01-.04-.04-.04-.05-.07-.07-.1-.18-.15-.29-.02-.04-.04-.08-.05-.12-.01-.02-.02-.05-.04-.07-.04-.06-.09-.1-.16-.12-.04,0-.09,0-.14.01-.02,0-.04,0-.06.01h0c-.1.21-.2.32-.29.48-.03.05.09.2-.04.23-.19.04-.35,0-.41-.19-.03-.09-.11-.86-.08-.9,0-.05-.02-.09-.02-.13,0-.1-.02-.16,0-.19.03-.04.09-.05.2-.04,0-.3-.05-.59.03-.9-.11-.01-.23.04-.33.03-.08,0-.14,0-.18,0s-.06-.01-.06-.08c-.01-.03-.01-.08-.01-.14-.28-.1-.46-.1-.69-.16-.49-.13-1.75-.68-2.08-.7-.53-.02-.51.89-.67,1.17-.08.14-.4.33-.57.57-1.72,2.62-4.19,6.52-5.56,9.28-.05.12-.32.63-.23.69l33.95-1.47c-.21-.85-.76-1.09-1.56-.73ZM42.76,88.84s-.38.19-.42.17h0s-.03-.08-.05-.14c-.16-.31-.57-.85-.74-1.32,0-.02-.01-.05-.02-.07-.06-.18-.07-.35,0-.47.01-.03.04-.06.07-.09.04-.04.09-.07.16-.1h0s.04-.02.06-.02c.74-.19,1.03,1.86.93,2.05ZM45.08,84.82c-.11.01-.22-.03-.3-.09-.04-.04-.07-.07-.1-.12-.03-.05-.04-.1-.05-.16,0-.04,0-.08.01-.12,0-.04.02-.07.03-.11.03-.04.06-.09.1-.12.04-.04.09-.06.14-.08.03-.02.05-.02.09-.02.08,0,.17,0,.24.06.02,0,.04.02.06.04.08.07.13.16.14.28.02.22-.15.42-.37.44ZM46.52,85.08s.06-.06.09-.09c.04-.04.1-.07.15-.09.04-.01.07-.02.11-.03.06,0,.14,0,.21,0,.06.01.11.02.16.04.02,0,.04.01.07.03.02,0,.05.02.08.03.04.02.08.05.13.08.06.05.12.1.17.16.04.04.07.09.1.14.02.03.04.06.06.09,0,0,0,.02,0,.02.02.04.04.06.04.09,0,0,0,.02,0,.02.02.05.03.12.04.17v.06c-.63.15-1.19-.11-1.41-.72ZM52.57,89.54s-.02.03-.04.04c-.05.04-.13.06-.23.03-.02,0-.03-.02-.04-.04-.02-.04-.04-.08-.07-.12,0-.02-.02-.05-.04-.06,0-.02-.03-.04-.04-.04-.15-.07-.35,0-.44-.04-.03-.01-.04-.04-.06-.1-.02-.04-.03-.09-.05-.13,0-.02-.01-.03-.02-.05-.02-.04-.04-.08-.07-.13-.03-.04-.06-.07-.1-.11-.1-.1-.23-.16-.43-.17-.1,0-.17.08-.24.17-.01.02-.04.04-.05.06-.03.03-.07.06-.11.08-.03.03-.07.05-.11.06h-.04s-.06,0-.07-.01c-.02,0-.03-.02-.04-.04-.03-.05-.04-.11-.08-.14,0,0-.02-.01-.03-.02h-.08c-.11,0-.26.05-.29.03-.05-.04-.06-1.04-.11-1.23.28-.08.4.28.59.34.26.08.49-.04.75.09.19.1,1.03.92,1.21,1.12.05.06.26.07.31.17h0s.02.05.02.07c.03.07.02.13-.02.18ZM59.9,89.09c-.14.08-.68.04-.92-.05-.03-.01-.07-.03-.08-.04-.02-.01-.03-.03-.04-.04-.01-.05-.02-.09-.01-.12,0-.02,0-.02,0-.03,0-.02,0-.03.01-.05s.01-.03.04-.04c.03-.03.06-.05.1-.07.06-.02.13-.04.2-.04.12-.01.24,0,.3-.01.02,0,.02,0,.03-.01s.02,0,.03-.01c.08-.04.15-.15.24-.18.68-.26.5.48.09.71Z"/>
      <path class="cls-1" d="M30.28,26.53c-.08-.65-.08-1.36-.17-2.02-.04-.33-.1-.65-.21-.95h0s-.08,0-.11.01c0,.17-.07.29-.19.39-.06.05-.12.09-.19.13-.16.09-.34.16-.46.24-.36.24-.71.51-1.06.77.08.27-.08.26-.31.26-.44.33-.84.69-1.26,1.02.01.05.02.09.02.12.01.12-.04.12-.23.12,0,.02-.09,0-.11.01.08.3-.05.24-.31.25-.11.08-.21.17-.31.25,0,.09,0,.16-.04.21-.02.04-.05.08-.09.11-.02.02-.05.04-.08.05-.09.06-.21.09-.32.13-.03.01-.08,0-.11.01.01.05.02.09.02.12.01.12-.04.12-.22.12h0s-.08,0-.1,0c0,.02,0,.06,0,.08,0,.04,0,.08-.02.11,0,.04-.03.07-.06.09-.03.03-.2.14-.37.24-.09.06-.17.11-.24.15-.06.04-.11.07-.14.08h0s-.07,0-.11.01c.05.23.03.25-.2.24-.01.02-.31.18-.43.26.01.03.01.06,0,.09,0,.02,0,.05,0,.07,0,.02-.01.04-.03.05-.02.03-.04.04-.08.05-.08.05-.22.06-.32.12-.18.09-.28.15-.43.26.05.24.04.25-.2.24-.01.02-.07,0-.11.01h0c.01.06.02.09.03.13,0,.04,0,.07-.02.09-.02.02-.06.02-.13.03-.02,0-.05,0-.07,0h0s-.36.23-.43.26h0c.05.24.04.25-.2.25-.01.02-.07,0-.11.01h0s0,.08,0,.12c-.01.05-.02.09-.05.13,0,0-.01.02-.03.03-.02.03-.04.04-.07.06h0c-.07.05-.16.08-.26.12-.03.01-.07.02-.1.03-.02.01-.07,0-.11.01.04.18.04.24-.08.25-.03,0-.07,0-.12,0h0s-.12.07-.2.14h0s0,.03,0,.05c0,.02,0,.05,0,.06,0,.03.01.06.02.08.01.02.02.04.03.05,0,.02.03.05.04.06.03.04.06.07.1.1.1.1.2.18.23.3.08.39-.31.37-.39.62-.02.07-.04.14-.04.2-.01.06-.01.11,0,.16,0,.25.07.47.16.68.06.16.13.32.2.49.01.05.03.11.05.16-.12.07-1-.13-1.13-.19-.06-.03-.11-.06-.15-.11-.03-.03-.07-.07-.1-.1-.05-.08-.09-.15-.11-.2-.01-.02-.01-.04-.02-.05h0v-.02s-.02,0-.02,0c-.47-.33-.14,1.09-.17,1.15-.24.47-1.25.58-1-.36-.18.08-.33.12-.46.13-.06,0-.12,0-.18,0-.06,0-.13-.01-.19-.03-.1-.02-.2-.05-.3-.08-.05-.01-.09-.02-.14-.04-.05-.02-.11-.03-.16-.04-.05-.01-.11-.02-.16-.03h0c-.1.1-.21.16-.31.26-.04.04-.07.07-.09.1-.02.02-.04.04-.05.06-.01.03-.04.05-.06.07-.04.05-.1.11-.19.17-.04.03-.09.06-.14.09-.02.02-.08,0-.11.01.03.11.03.16,0,.19-.04.04-.13.04-.2.07-.03.01-.05.02-.07.04-.03.03-.05.04-.07.07-.01.02-.04.04-.05.06-.1.12-.14.21-.44.33-.03.01-.08,0-.11,0,.02.11.03.17,0,.21-.01.03-.06.04-.13.04-.02,0-.04,0-.07,0,0,.02-.07,0-.11.01h0c.02.07.03.12.01.16,0,.02-.02.03-.04.05-.07.09-.26.09-.39.16-.08.05-.16.1-.21.13h0c.1.32-.22.28-.42.38-.08.05-.14.08-.21.13v.46c.51-.26,1.17-.21,1.11.51-.02.27-.05.55-.07.79-.02.19-.31.28-.27.5.19-.07.38.22.44.24.95.14.58-.24.71-.52.16-.3.5.01.72.02.24.03.66.05.89.05.2,0,.39-.16.52-.16.07,0,.32.56.67.36.32-.19.6-.98.44-1.35-1.07.66-1.24-1.24-.07-.79-.34-1.45.72-.6,1.35-.29.18.08.43.03.61.14.22.11.26.39.46.56.49.4,1.15.61,1.64,1.02l.48-.03-.06-.79c.09-.11.81.28.88.38.13.19.05.48.17.67.08.14.35.16.48.29.15.17.16.44.39.65.43.36,1.01.05,1.1.12.03.03,0,.34.04.45.02.08.12.13.14.33.3-.07.26.17.26.38.02.42-.01.85,0,1.31,0,.06.01.14.02.22.63,1.03.78.43,1.44.3.27-.04,1.18.06,1.35,0,.2-.07.25-.74.39-.93.14-.18.42-.17.59-.33.16-.17.16-.57.35-.64.38-.16,1.19.8,1.76.22.18-.18.03-.84,0-1.14-.01-.22-.15-.44.2-.41-.06-.48-.09-.96-.13-1.46-.02-.22-.05-.45-.07-.68l-.05-.59c-.02-.15-.03-.29-.05-.44-.07-.73-.14-1.46-.2-2.19,0-.09-.01-.17-.01-.25,0,0,0-.02,0-.02t0-.02s0,0,0,0t0-.02s0-.02,0-.02c0,0,0-.02,0-.02,0,0,0-.02,0-.02t0-.02s0,0,0,0c0,0,0-.02,0-.02,0,0,0-.02,0-.02,0,0,0,0,0,0,0,0,0-.02,0-.02t0-.02s0-.02,0-.02c-.02-.27-.05-.53-.06-.8l-.09-.97c-.09-.95-.2-1.91-.28-2.87-.03-.38-.06-.76-.08-1.16,0-.05,0-.1-.02-.14-.03-.17-.07-.29.21-.27-.05-.45-.07-.9-.12-1.35,0,0-.12-.12-.14-.26ZM20.96,37.78c-.07-.01-.14-.01-.2-.03-.19-.03-.34-.1-.35-.23,0-.03,0-.06.02-.1,0-.02.01-.04.03-.07.01-.03.04-.08.08-.13.19-.27.35-.32.47-.25.03.01.05.04.07.06.02.02.03.05.05.07.02.02.03.05.04.08.02.05.03.09.04.14.04.15.04.33.02.48-.08,0-.16-.02-.25-.03ZM24.12,37.32c-.14.04-.34.06-.5.05-.04,0-.07,0-.11-.02,0,0-.02,0-.02,0-.03-.01-.06-.03-.08-.05-.03-.03-.06-.06-.08-.1-.02-.05-.03-.11-.02-.18.05-.41.93-.2.81.31ZM27.64,42.49s0,.1-.03.15c-.01.04-.03.08-.06.1-.04.03-.78.32-.85.33-.33.09-.48-.2-.4-.43.01-.03.03-.05.04-.08.01-.03.03-.05.05-.07,0,0,.04-.03.08-.06.02-.02.04-.04.08-.05.17-.13.42-.31.44-.31.06-.02.58.14.6.16.04.05.06.16.05.26ZM28.46,34.66c-.12.04-.29.07-.5.04,0-.06,0-.11-.02-.17-.02-.09-.03-.17-.02-.26,0-.02,0-.03,0-.05,0-.08.01-.15.05-.21.02-.04.05-.07.09-.1.11.01.2.04.28.07.04,0,.07.03.1.04.04.02.08.04.1.06.14.09.2.22.17.34-.02.1-.09.19-.25.24Z"/>
      <path class="cls-1" d="M67.6,83.46c-.81-.72-.74-.51-1.5-.95-.15-.09-.25-.34-.44-.47-.12-.07-.35-.04-.38-.09-.08-.07-.02-.43-.07-.6-.08-.28-.93-.52-1.25-.73-.27-.18-.81-.83-.94-.88-.22-.09-.41.03-.7-.15-.21-.13-.38-.53-.62-.75-.69-.64-1.78-1.22-2.5-1.85-.44-.39-.84-.99-1.25-1.38-.71-.68-1.26-.61-1.79-1.64-.66-.25-1.16-.95-1.85-1.09-.09.02-.04.23-.04.24.04.16.14.32.26.43h0s0,.02.02.01c.02,0,.06,0,.11,0,.02,0,.04,0,.07.01.02,0,.04.01.06.03.02,0,.03.02.05.04s.03.04.04.06c0,.02.02.05.02.09,0,.07-.08.38-.2.68-.05.12-.11.25-.18.35,0,.02-.01.03-.02.03-.02.03-.03.06-.06.08-.03.03-.06.06-.08.08-.03.02-.05.03-.08.03h0c-.26.1-.15-.18-.19-.21-.38-.35-1.28.51-1.32-.79-.42-.01-.1.49-.21.8-.04.11-.18.27-.31.25-.27-.51-1.54-.62-.8-1.27.2-.1.17.19.25.21.22.02.33-.15.37-.15h0c0-.51-.81-.23-.93-.39-.07-.09-.02-.33-.08-.46-.08-.15-.27-.26-.41-.4-.07-.07-.06-.26-.11-.3-.06-.05-.59.05-.81.03-.2-.04-1.47-.43-1.59-.51h0c-.2-.01-.31.1-.39.22-.04.06-.06.11-.11.16-.01.02-.03.04-.05.06-.01.03-.03.03-.04.04-.05.02-.1.04-.16.05-.08.02-.17.04-.27.06-.05.01-.09.02-.15.05-.05.01-.1.03-.15.06-.13.08-1,.7-1.02.76h0s0,0,0,0c0,.04.12.21.1.37-.01.06-.04.12-.09.17-.02.03-.05.05-.08.07-.43.26-.67-.12-.83-.08-.08.02-1.18.7-1.29.8-.3.25-.31.4-.14.58.06.07.15.14.25.23.55.27,1.11.51,1.69.73,1.7.66,3.48,1.19,5.19,1.88h.03s.06-.02.09-.03c.08-.04.11-.15.11-.27,0-.03.01-.07,0-.1,0-.1-.02-.2-.04-.3-.03-.22-.06-.44,0-.54.01-.03.03-.05.05-.06.01-.02.04-.03.06-.04.05-.02.09-.03.15-.04.2-.02.45.05.59.07,0,0,.06,0,.1-.13.03-.09.06-.17.08-.23.01-.03.03-.06.04-.08,0-.02.02-.04.04-.06.01-.03.03-.03.05-.03.04,0,.07.08.11.25.01.04.02.08.03.13v.08c.04.32-.06.59-.05.71.01.17.06.45.13.72.06.27.15.52.26.62h0c.15.12,1.93.78,2.14.8.33.02.59-.33.68-.27h0s0,0,0,.02c.02.05.06.2.12.3.02.01.03.03.04.04.04.04.09.1.14.14.1.09.24.16.38.25,0,0,0,0,.02,0,.21.11.44.2.68.29.27.1.56.2.84.29.12.05.25.08.36.13.11.04.22.08.31.12.03.01.06.02.09.03.05,0,.09.02.12.03.02,0,.03.01.04.02.02,0,.03.01.03.03.03.03.05.09.04.18.51.15,1.05.31,1.56.42.22.05.38.14.63.06-.27-.42-.22-.58-.31-1-.01-.03,0-.07-.01-.11-.49.06-1.2-.61-1.08-.97.01-.03.03-.07.06-.09.03-.03.07-.05.12-.07.05-.02.1-.04.17-.05.36-.05,1.06.4,1.14.7.02.06.02.15.02.22.24.04.7.49.85.66.11.13.19.28.28.42.08.15.15.28.24.38h0c.05.05.16.12.24.2.02.02.04.04.06.07.14.14.34.36.41.44l.03.02s.06.01.11,0c.05,0,.1,0,.15.01.06,0,.11.01.14.05.06.03.09.11.08.22.26.11,1,.33,1.05.35.11-.02.17-.03.21,0,.03.02.04.06.04.14,0,.02,0,.05,0,.07.15.03.32.03.46.07.01-.02.02-.03.03-.05.02,0,.01-.03.01-.03.04-.1.02-.19,0-.27-.01-.04-.03-.07-.05-.11-.08-.14-.18-.25-.17-.37,0-.02,0-.02.02-.04.06-.1.24-.17.35-.18.03,0,.05,0,.07.02.03.02.12.53.28.69.15.14.52.07.72.29.18.19.1.35.15.5.01.04,0,.08,0,.11h0s.12.11.12.11c.02,0,.29.07.34.08v.02s.02,0,.02,0c0,0,0,0,0,.02,0,0,0,.02.02.02l.05.04s0,0,.02,0h0s0,0,0,0c.32.04.78-.12,1.11-.1,0-.37-.46-.44-.67-.62ZM50.47,76.06c-.21-.98,0-1.29.94-.82.07.22-.65.91-.94.82ZM58.85,77.46s-.09.07-.13.12c-.1.09-.22.19-.33.29-.06.05-.11.11-.17.14-.11.09-.22.17-.31.21-.05.03-.08.04-.12.04s-.06,0-.07,0c0,0-.02,0-.02,0h0s-.01-.04-.01-.07c0-.06-.01-.16-.04-.25-.01-.05-.02-.09-.05-.12-.02-.02-.04-.04-.07-.06-.03-.02-.06-.04-.09-.06-.04-.01-.08-.03-.12-.04,0,0-.02-.01-.03-.01-.04-.03-.09-.05-.13-.08-.02-.01-.03-.03-.05-.05-.1-.13.05-.21.05-.22-.02-.17-.07-.42-.05-.56l-.12-.05h0s-.01-.05-.01-.07c0-.04,0-.06.02-.08.05-.04.17-.01.2-.03h0s-.03-.21.09-.3c.28-.23.55-.2.79-.05.05.04.1.07.15.12.05.04.1.09.14.14.19.21.36.48.47.72.03.05.05.1.08.15.01.04.03.08.05.12-.03.02-.07.05-.11.08Z"/>
      <path class="cls-1" d="M79.22,78.57c0-.06,0-.15-.02-.22-.61-.1-.35.29-.52.44-.15.13-.63.26-.92.42-.05.03-.08.05-.11.07-.04.04-.08.07-.13.12-.07.07-.12.15-.17.23-.04.06-.07.12-.1.18-.1.19-.2.4-.35.56-.04.03-.05.07-.1.12v.05s0,.07,0,.1c0,.07-.05.11-.12.13-.03.03-.07.03-.1.04-.04.01-.07.02-.09.04-.14.13-.27.26-.41.38-.39.34-.34.45-.99.31-.04.12-.01.23.05.34.01.04.04.07.07.1.06.07.13.15.22.2.27.2.62.33.8.28.07-.01.42-.98.9-.76.07.35.59.87.56,1.28,0,.02,0,.05-.01.07,0,.02,0,.02,0,.03,0,.02-.01.04-.03.06,0,.02-.02.05-.04.08,0,.02-.02.03-.04.04-.01.02-.03.03-.05.04-.03.02-.05.04-.08.05-.35.15-.55-.61-.57-.95-.16-.02-.22.07-.27.18-.02.04-.04.09-.06.13h0s-.05.09-.09.12c-.47.37-.79.18-1.03-.02-.16-.13-.28-.26-.39-.24-.06.02-.11.05-.15.09-.02.02-.04.04-.06.07-.15.21-.16.59-.29.84-.02.03-.04.06-.06.08-.02.03-.04.05-.07.07-.03.03-.07.04-.12.05,0,.03,0,.08,0,.11l-.25.7-.25.7h0s0,0,0,0l-.15-.44h0c-.05.04-.13.08-.21.12-.15.05-.32.08-.43.05-.14-.02-.08-.21-.09-.22-.05-.04-.19-.05-.23-.09l-.45.04s.07.14.12.24c.02.03.03.06.03.09,0,.03,0,.06,0,.09-.02.1-.06.18-.08.26-.03.11.13.27-.2.24.05.02.08.3.23.32.72-.02,2.74,1.23,3.28.9.34-.22.03-.88.3-1,.46-.19.36.55.63.62.5.13.46-.55.73-.51.32.04.34.52.18.77-.27.4-1.4.33-.4.86.18.1,1.17.46,1.3.42.19-.07.28-1.95.31-2.29-.22-.17-.28-.66.06-.57,0-.07,0-.15-.02-.22-.02-.09-.38-.37.08-.35,0-.11-.01-.22-.03-.33-.03-.13-.4-.48.07-.46,0-.25.05-.64.04-.8,0,0-.03-.04-.06-.07-.03-.04-.06-.07-.07-.11-.01-.03-.02-.06,0-.09,0,0,.01-.03.03-.03.04-.03.1-.04.2-.04,0-.18-.05-.36-.05-.56-.11-.09-.16-.15-.13-.19,0,0,0-.02.01-.02.02-.03.09-.04.21-.03-.01-.12-.01-.24-.03-.34-.03-.13-.41-.48.07-.46-.01-.07,0-.16-.02-.22-.03-.13-.38-.36.08-.35,0-.11-.04-.23-.03-.33-.09-.06-.14-.12-.14-.16,0-.02,0-.03.02-.04,0,0,.02-.02.05-.02.04-.01.1,0,.17,0,0-.28.05-.81.02-1.02h0s-.4-.35.08-.35ZM74.63,85.25s-.04.05-.05.07c-.03.04-.07.08-.1.09-.04.02-.07.01-.1,0-.02,0-.03-.02-.04-.04-.03-.02-.05-.06-.05-.11,0-.02-.01-.05-.01-.07-.04-.17-.01-.4.07-.51.01-.02.03-.03.04-.04.05-.02.09-.02.16.02.07.05.14.48.06.6Z"/>
      <path class="cls-1" d="M31.61,45.14c.1,1.46.24,2.93.39,4.38-.46,1.14.66,2.03-.65,2.89-.07,0-.15,0-.22.02-.42.07-1.36.56-1.69.82-.15.13-.17.33-.24.4-.5.53-.33-.62-.41-.68-.07-.06-.76.22-1.04-.07s0-.54-.07-.77c-.06-.18-1.31-.98-.29-1.52.27-.15.07.44.16.67.04.1.59.71.66.72.27.05.97-.71,1.07-.95.34-.81-.59-1.08-.59-1.62,0-.21.23-.39.26-.62.1-.75.1-.83.34-1.54,0-.02.16-.07.19-.2.04-.23-.03-.48-.04-.71-.18.02-.38.02-.56.05-.14.02-.53.18-.55.16-.02-.02,0-.26-.05-.37-.08-.15-.69-.35-.49-.6.22-.26.55.36.67.39.32.07.99-1.05.81-1.47-.09-.2-.43-.04-.36-.38.32.12.75-.13,1.01-.04.31.11,1.15.98,1.68,1.04Z"/>
      <path class="cls-1" d="M86.92,68.37l.69.73c.55.09.19-1.44.13-1.71.16-.05.86-.04.9-.08.04-.05-.11-.83-.09-1.01.8.22.54-.03.88-.36.64-.61.91-.35,1.16.4-.34.16-.53-.37-.85-.25-.05.02-.76.71-.78.76-.41.88,1.22.07,1.16.61-.03.28-.73.34-.75.52-.01.13.19.22.23.33.08.27-.65,1.33-.82,1.66-1.08,2.17-2.15,4.45-3.24,6.54-.12.24-.66,1.37-.71,1.43-.28.28-.28-.51-.28-.7.04-1.06.21-4.25.47-5.11.11-.36.43-.6.51-.82s-.03-.51.16-.7c.27-.27.72.05,1.11-.11.25-.1.74-.66.4-.92-.44-.34-.59-.02-.88-.06-.14-.02-.25-.18-.49-.17-.15.01-.55.23-.61.18-.03-.03,0-.34-.04-.45-.02-.06,0-.15-.02-.22l.35-2.62c.93-.16,1.87-.3,1.77.96-.41-.01-.77-.08-1.08.24-.05.05,0,.17,0,.2-.09.16-.3.13-.18.5.05.14.43.23.47.27.02.02.15.64.22-.02.07,0,.15-.02.22-.02Z"/>
      <path class="cls-1" d="M6.39,34.16c.14.42-.09.43-.28.7-.25.36-.77.73-.46,1.17-.08.07-.14.27-.29.32l-2.04,1.47,1.91-3.91c.34,0,.84.25,1.15.24Z"/>
      <path class="cls-1" d="M56.42,73.03c.4.21.5.17.96.59.02.01-.03.16.04.2.08.05.3-.05.33.05.1.36.05.45-.31.42-.42-.31-.99-.63-1.12-1.14.04-.02.08-.08.1-.12Z"/>
      <path class="cls-1" d="M69.13,84.69c-.15.17-.74-.24-.6-.4.15-.17.74.24.6.4Z"/>
      <path class="cls-2" d="M41.26,61.83c-.09.64.33.83.57,1.31-.23.12-.98-.16-1,.15-.05.64.59.09.77.32.57.7-.64.51-.86.52-.18.01-.52.2-.59.17-.04-.02-.15-.36-.4-.46-.41-.16-1.45.13-1.23-.52.15.13,1.01-.17,1.05-.21.07-.08-.05-.48-.15-.61-.18-.23-.58-.2-.61-.28-.17-.48.39-.89.87-.79.23.05.73.63,1.12.65.19.01.24-.3.46-.25Z"/>
      <path class="cls-2" d="M44.52,62.78c-.34.01-1.32.43-1.25-.27.05-.5,1.47-.42,1.25.27Z"/>
      <path class="cls-2" d="M39.09,65.42s-.45.11-.55.16l-.05-.56c.27-.16.78.14.6.4Z"/>
      <rect class="cls-2" x="42.06" y="62.99" width=".34" height=".22" transform="translate(-5.47 4.03) rotate(-5.13)"/>
      <path class="cls-1" d="M26.73,44.77c.13.06.31-.11.46-.11.23,0,.43.25.75.02.17.83-1,.64-1.21,1.13-.17.4.34.41.36.76-1.25.49-.71,0-1.08-.51-.18-.25-.6-.1-.59-.47.35.03,1.24-.11.86-.59-.09-.11-.52-.49-.11-.61.31-.09.51.36.56.39Z"/>
      <rect class="cls-1" x="14.44" y="41.69" width=".34" height=".22" transform="translate(-3.68 1.47) rotate(-5.13)"/>
      <path class="cls-1" d="M14.44,41.14c.08.03.08.07.01.11v-.11Z"/>
      <path class="cls-1" d="M79.17,32.8c-.67-.43-1.09-.39-.89-1.36-.23.04-.48.21-.72.19-.12-.01-.06-.17-.07-.23h0s0,0,0,0c-.02-.01-.03-.02-.03-.02-.03-.03-.04-.04-.09-.07h0s-.15.04-.19-.01c-.1-.09-.37-.47-.4-.57-.08-.39.26-.37.28-.41.05-.04-.06-.27.25-.36.38-.11.91-.06,1.3-.05-.32-1.12-.33-2.45-.66-3.57-.09-.31-.46-.15-.39-.53.02-.07.26.04.2-.47-.18-1.43-.58-3.24-.89-4.67-.13-.59-.08-.6-.55-.84-.72-.38.2-.68.2-.73,0-.1-.24-.92-.29-1.02-.14-.27-.41-.14-.33-.95.19-2.17-.84-5.52-1.28-7.82-.53-2.8-1.02-5.61-1.55-8.41l-29.47,14.66c-.18.27.69,1.62.88,1.92.04.05.23.08.3.18.48.67.4,1.45-.52.87-.18-.11-.38-.49-.52-.49-.16-.02-.28.37-.64.16-.12-.07-.16-.28-.27-.29-.12,0-.32.19-.49.11-.04-.02-.1-.23-.21-.31-.17-.11-.36-.11-.51-.2-.11-.08-.15-.35-.35-.37-.06,0-1.06.19-1.19.23-.46.14-1.17.58-1.59.85l11.26,5.93c.59.32.88-.04,1.22.65l29.4,15.31.15-.18-1.34-7.1ZM41.98,18.74l.62-.06c.24.75-.77.74-.62.06ZM44.15,19.59c-.03.16-.18.14-.27.19-.02,0-.03.02-.04.04,0,.05.06.17-.07.22-.04.03-.1.03-.2.03-.03,0-.07-.01-.09-.02-.04-.01-.07-.03-.08-.06,0-.02-.02-.03-.02-.05s0-.03,0-.05c0-.02,0-.04,0-.05t-.02,0s-.09.02-.14,0c-.02,0-.02,0-.04-.02,0,0-.02-.01-.03-.04-.04-.1-.05-.2-.04-.28,0-.05.02-.09.04-.13,0-.02.02-.04.03-.06s.01-.03.04-.05c.01-.03.04-.04.05-.06.02-.03.05-.04.09-.06.04-.02.08-.03.12-.03.02,0,.05,0,.07,0,.07.03.13.1.14.24.03,0,.07-.01.11-.01.06,0,.17-.04.25-.03.02,0,.03,0,.05.01,0,0,.02,0,.03.02,0,0,.02.01.02.02.02.09.02.15,0,.2ZM45.78,20.21c-.18.02-.34-.11-.36-.3s.11-.33.3-.35.33.11.35.29-.11.34-.29.35ZM47.98,19.33h0c-.41.24-1.18-.52-.67-.72.12-.05.55,0,.59.07.03.04.04.11.05.2.01.15,0,.34.03.45ZM71.7,9.18s.02-.07.05-.09c.02-.03.06-.06.09-.08.03-.03.08-.04.12-.04.09,0,.17.02.22.08.06.05.1.12.11.2.01.17-.11.31-.28.33-.09,0-.16-.02-.21-.07-.06-.04-.11-.12-.11-.21,0-.04,0-.08.02-.11ZM69.74,11.95c.07-.04.14-.04.21-.02.02,0,.05.01.07.03.02.01.04.02.06.03.03.03.08.06.11.09.04.04.08.07.11.09.11.1.22.18.3.15.03-.04.08-.14.13-.22.03-.06.08-.12.12-.17.02-.03.04-.05.07-.07,0,0,0,0,0,0,.08-.07.18-.1.25-.03.01.02.02.09.02.17,0,.04,0,.07.02.1,0,.02,0,.04.01.05.01.02.01.04.02.05,0,.02.02.04.03.05,0,.02.03.05.05.07s.04.05.07.07c.04.04.1.09.14.13.04.04.08.07.11.1.03.03.05.07.07.1.05.09.03.19-.13.28-.03.02-.06.04-.09.05-.07.03-.16.06-.27.1-.23.06-.43.09-.61.07-.07,0-.14-.01-.2-.05-.06,0-.12-.03-.18-.07-.12-.05-.21-.14-.29-.25t0,0s-.05-.09-.07-.14c-.02-.05-.04-.1-.06-.15-.01-.06-.03-.12-.04-.17-.03-.13-.04-.27-.04-.42ZM51.73,22.06c-.54.14-.7-.25-.45-.5.01-.03.04-.04.07-.06.04-.03.08-.05.14-.07.05-.02.12-.04.18-.05l.06.68ZM54.57,15.8c-.11.13-.26.1-.4,0-.04-.04-.09-.08-.12-.13,0,0,0,0,0,0-.03-.05-.06-.1-.08-.15-.04-.14,0-.29.16-.35.07-.03.13-.04.18-.02.09.02.16.1.2.2,0,.02.02.05.03.07.01.02.02.05.02.08.04.14.04.27.01.3ZM58.85,24.22s0,.1-.02.14c-.03.08-.09.14-.17.18-.1.04-.24.04-.34-.03-.11-.07-.16-.21-.06-.42.03-.05.2-.13.35-.12.02,0,.04,0,.05,0,.05,0,.09.02.12.05.02.02.03.05.04.07.02.05.03.09.04.13h0ZM62.19,12.4l-.46.04-.05-.56.46-.04.05.56ZM65.01,11.01l-.05-.56s.05-.01.06-.01c.02,0,.04-.01.05-.01.04,0,.07,0,.1,0,.02,0,.06,0,.07.02.03.01.06.03.08.05.03.02.04.04.05.08,0,.02.02.03.02.05,0,.02.01.03.01.05.03.09.04.18.03.29l-.44.05ZM70.67,33.3s-.01.05-.03.07c-.01.03-.04.05-.08.07-.05.02-.13.04-.22.03-.02,0-.05,0-.07,0-.12-.01-.24-.07-.3-.17-.02-.02-.03-.05-.03-.08,0-.02,0-.04,0-.06.03-.36.82-.2.73.14ZM68.94,13.88c-.02.17-.04.34-.01.47,0,.02.01.03.01.05h0c-.37.12-.23-.54-.4-.76-.1,0-.15.03-.19.07,0,0-.02,0-.01.02,0,0,0,0,0,0-.02.03-.03.06-.04.08-.03.07-.05.13-.12.17-.04.02-.09.02-.18.02-.66-.09-1.76-.64-1.68-1.41.26.12,1.27-.14,1.33-.11,0,0,.03.04.06.08s.08.1.12.17c.04.07.08.13.11.17.04.05.06.09.06.1.01.02.02.05.02.08.01.14-.05.32-.05.37t0,.02s.04.04.06.06c.04.02.07.02.09,0,.02,0,.02-.03.03-.05.01-.03.03-.07.02-.12,0-.05,0-.1,0-.14,0-.04,0-.07,0-.09,0,0,0,0,.02,0,.09,0,.67.09.74.16.12.13.08.38.05.62ZM72.02,32.4s-.03.09-.07.13c-.02.03-.05.04-.08.06-.04.03-.09.05-.14.06-.18.06-.41.07-.57.1-.05,0-.1,0-.13.02,0-.06.03-.11.08-.19.03-.03.06-.08.09-.11.05-.05.11-.11.17-.16.07-.05.13-.1.2-.14,0,0,0,0,0,0,.11-.06.21-.09.29-.08.02,0,.04,0,.07.01.03.02.05.04.06.08.02.05.02.09.03.13,0,.03,0,.06,0,.1ZM74.9,27.9c-.06.45-.23.24-.38.4-.04.04-.06.17-.09.31-.02.07-.04.12-.06.19-.03.06-.06.1-.09.14-.06.05-.15.09-.25.11s-.19.05-.24.11c-.01.02-.02.03-.03.05,0,.02-.01.03-.02.06,0,.02-.01.03-.01.06,0,.02,0,.03-.01.05v.03s0,.09,0,.13c0,.04,0,.07,0,.11-.01.05-.02.09-.03.13-.01.05-.02.08-.06.11-.02.02-.05.03-.08.04-.09.03-.22.04-.34.07-.05.01-.1.03-.14.05-.17.1-.27.41-.42.49-.13.08-.49.04-.56-.02-.18-.22.41-.95-.04-1.01-.05,0-.1.03-.16.11-.02.03-.04.05-.06.08-.11.15-.23.35-.4.44-.02.02-.05.03-.08.04-.09.04-.2.03-.31-.01-.02-.3-.1-.62-.03-.91.01-.04.02-.08.05-.12.03-.08.09-.14.15-.18.03-.03.05-.04.07-.06.05-.04.1-.07.14-.13.32-.46.62-.77,1.02-1.21.66-.73.65-.18,1.03-.12.13.02.28-.12.37-.12.08,0,.15-.02.23-.02.12,0,.26,0,.38.04.07,0,.14.04.2.06.05.03.09.06.13.08.03.03.05.06.07.09.02.03.04.07.04.11.02.05.03.12.02.17,0,.02,0,.03,0,.05ZM75.94,25.99c-.04.05-.11.1-.2.11s-.17-.02-.22-.08c-.06-.05-.1-.13-.11-.21-.01-.17.11-.31.28-.32.08,0,.15.02.21.07s.1.12.11.21c0,.08-.02.15-.06.21,0,0,0,0,0,0Z"/>
      <path class="cls-1" d="M78.66,30.62c.08.07.01.4-.13.46-.38.18-.1-.67.13-.46Z"/>
      <path class="cls-1" d="M31.07,55.49c-.72-.25-1.5-.54-1.38-1.46.07-.1,1.05.59,1.13.69.19.24.25.46.24.77Z"/>
      <path class="cls-1" d="M26.18,53.33c.54-.17.62,1.28-.11,1.25-.38-.07.03-1.23.11-1.25Z"/>
      <path class="cls-1" d="M95.64,33.37c-.68-1.03-2.97-5.04-3.72-5.51-.38-.23-1.01-.25-1.02-.87,0-.28.32-.54.06-.83l-10.41-15.97-.22.08,2.8,14.56c.11.34.83.36.88.05.02-.16-.29-.98-.31-1.23-.09-.87.35-.3.58-.32.18-.02.36-.23.6-.28.07-.01.15-.01.22-.02.12-.2,1.03-.39,1.1-.33h0c.05.27.07.39.04.44,0,.02-.01.03-.03.04-.01.02-.05.02-.08.04-.03.01-.07.03-.11.06-.19.14-.24.26-.29.48-.02.09-.11.42-.07.46.99-.56,1.29.45.29.51-.28.02-.66-.42-1.06-.16-.31.19-.1.61-.21.88-.1.27-.37.03-.35.59.08.02.19-.07.31,0,.07.03.4.48.43.61.1-.03.19-.03.26,0,.13,0,.2.05.27.13.03.02.05.04.08.07.08.07.17.15.34.19.18-.14.37-.2.56-.22.14-.01.26,0,.39.05.05.02.1.04.14.07.05.03.09.06.14.09.02,0,.03.01.05.04.02.01.03.03.04.04.05.05.1.1.14.16.05.08.1.16.13.25.01.03.03.05.03.09.02.08.04.16.05.25.05.51-.35.42-.75.45-.02-.05-.03-.1-.02-.16,0-.04,0-.07.01-.11,0-.08.04-.16.05-.23.01-.03.02-.07.02-.1v-.02s-.01-.02-.02-.03c0,0-.02-.01-.03-.02,0,0-.02,0-.05,0-.03,0-.08,0-.1,0h-.02s-.02,0-.02,0h0c-.29.02-.51.06-.69.09-.1.02-.19.03-.28.02-.06,0-.11,0-.16-.02-.11-.02-.22-.08-.35-.19-.08-.06-.17-.15-.25-.25-.03-.03-.05-.06-.06-.1-.05-.1-.07-.23-.08-.27v-.02s0,0,0,0h0s-.26,0-.39-.22c-.11-.19-.13-.42-.15-.64-.31-.07-.61-.06-.92-.26-.14.24.74,3.9.85,4.52.41,2.14.78,4.35,1.19,6.44.34,1.75.72,3.49.99,5.25,0,.1.14.28.2.27l2.24-.2c.18-.02.24-.49-.07-.67-.4-.23-.6.17-.56-.75.89-.28,1.11,1.27,2,1.25,2.38-.29,4.78-.56,7.18-.78.83-.08,1.85,0,2.69-.18.15-.03.42-.07.36-.3-1.61-2.43-3.26-4.83-4.86-7.25ZM87,22.62l-.56.05-.06-.67c.26-.11.71.53.62.62ZM85.45,28.81s-.03.03-.04.04c-.01.02-.04.03-.06.04-.06.03-.13.03-.19,0-.04-.01-.07-.03-.11-.04-.07-.04-.13-.09-.18-.15-.03-.03-.05-.06-.07-.1-.05-.07-.08-.15-.11-.21-.03-.1-.03-.2,0-.27,0-.02.03-.04.05-.06.02-.02.05-.03.08-.04.12-.03.26,0,.37.1.04.03.08.06.1.09.03.03.06.07.08.1.04.05.07.11.09.16s.04.12.04.16c0,.02,0,.06,0,.08,0,.04-.03.07-.06.1ZM87.99,32c.02.05.04.12.03.19,0,.02,0,.03-.01.05-.01.04-.03.08-.08.11-.03.02-.07.03-.11.04-.05.02-.09.02-.13,0-.02,0-.04-.02-.06-.04-.02-.02-.04-.06-.05-.09,0-.02-.01-.04-.02-.06-.01-.04-.02-.06-.03-.09,0,0,0-.02-.01-.02h0s0,0,0,0c-.02,0-.05.01-.09.02s-.09,0-.11-.03c0,0-.01-.02-.02-.04-.01-.04-.02-.07-.03-.11,0-.05,0-.1,0-.14,0-.06.02-.13.05-.2.02-.04.04-.08.06-.1,0,0,0-.02,0,0,0-.02,0-.02.01-.03,0-.02.02-.03.04-.04.04-.05.1-.09.16-.11.04-.02.08-.03.12-.04.04,0,.07,0,.11,0,.28.05.14.24.11.31,0,0,0,.02,0,.02l.03.33s.01.03.03.07ZM87.61,21.89c-.09.11-.58.15-.47-.34.01-.07.04-.12.07-.15,0,0,.01-.02.02-.03,0,0,.01,0,.01,0,.05-.03.11-.02.17.02.02,0,.04.03.05.04.03.01.04.03.05.05.04.04.07.08.08.14.02.02.02.04.03.06.02.08.02.17-.02.22ZM91.86,35.56h.02s.06,0,.09.01c.02,0,.03,0,.04.02.04.02.08.07.11.12.02.03.03.06.03.1.03.1.03.21,0,.31-.03.09-.08.16-.16.19-.02.01-.05.02-.09.02-.46.04-.61-.68-.05-.78ZM91.08,36.52c-1.05.24-.64-.26-.91-.7-.09-.15-.4-.21-.54-.34-.32-.3-.53-.87-.49-1.2,0-.05,0-.09.03-.12.01-.03.03-.06.06-.08.04-.03.08-.04.13-.04.02,0,.03,0,.05,0,.03,0,.06.02.09.03.07.02.13.06.22.12.11.08.2.14.28.21.04.03.08.06.1.09.05.04.1.09.12.13.03.03.05.06.07.09.06.08.09.16.1.26.01.03.02.06.02.09.01.05.03.11.04.18.01.03.01.07.03.1.02.08.05.16.09.26.01.02.03.05.05.08.04.05.1.1.15.16.18.18.4.38.32.69ZM90.05,29.15c-.06,0-.11,0-.16,0-.1-.02-.17-.06-.22-.13-.02-.02-.03-.05-.04-.08,0-.02-.02-.05-.02-.09-.02-.17.08-.4.38-.67.2-.18.36-.23.48-.2.03.01.05.02.07.03.02,0,.03.01.03.02.03.02.04.04.06.07.02.03.04.06.06.1h0s.01.05.02.07c.01.03.01.06.02.1,0,.06,0,.12,0,.18-.01.07-.03.12-.06.18-.02.03-.04.07-.07.1-.16.21-.36.3-.53.31ZM91.96,37.6c-.05-.02-.09-.04-.14-.06-.07-.03-.13-.06-.18-.1-.03-.01-.04-.03-.06-.04-.03-.03-.07-.06-.09-.08-.09-.1-.15-.23-.15-.36.07-.01.15-.02.22-.03.15-.01.3-.02.45-.03.02,0,.02,0,.04-.01.02,0,.05,0,.07,0h0c-.1-.26.12-.31.36-.27.03,0,.05.02.07.03.02.03.01.07.02.11,0,.03,0,.06,0,.08.1.19.2.3.16.55,0,.02-.01.05-.03.07,0,.02-.01.03-.02.04-.06.1-.18.14-.31.16-.06,0-.12,0-.19,0-.07,0-.15-.02-.24-.05ZM93.28,38.45s-.01.04-.02.07c-.05.11-.15.22-.27.28-.02.03-.05.04-.08.04-.08.03-.17.03-.24,0-.09-.04-.18-.12-.23-.28-.03-.09-.06-.2-.06-.35.2.01.63-.13.76-.06.13.07.18.18.15.29ZM94.32,38.26s-.09.09-.14.12c-.05.02-.12.04-.18.05s-.13,0-.19-.02c-.06-.02-.11-.05-.16-.09-.1-.08-.15-.19-.16-.31-.02-.25.17-.49.43-.51s.49.17.51.43c.01.13-.03.24-.11.34ZM94.34,35.62s-.04.04-.06.05h-.02s-.05.02-.06.02c-.03,0-.06,0-.09-.02-.02,0-.04-.02-.07-.04-.02-.01-.03-.03-.04-.04-.02-.02-.04-.05-.06-.09-.01-.02-.02-.05-.02-.08-.02-.08-.03-.17-.02-.27.05,0,.1,0,.16-.02.1-.02.21-.03.27,0h0s0,0,0,.01c0,0,0,.02.02.03.02.01.04.05.05.09.04.08.08.19.07.21-.05.07-.1.12-.15.16ZM97.99,39.09s-.03.08-.06.11c-.06.07-.13.11-.23.12s-.18-.02-.25-.07-.11-.13-.12-.22c-.02-.18.12-.35.3-.36.1,0,.18.02.25.07.07.05.12.13.13.23,0,.05,0,.09-.02.13Z"/>
      <path class="cls-1" d="M95.52,46.88s.13.41-.25.49c-.39.07-.37-.27-.54-.36-.41-.21-2.41.26-2.96.32-.67.08-4.58.31-4.78.49-.13.11-.22,1.38-.19,1.6.03.21.28.42.26.54-.02.14-.29.2-.36.33-.18.38-.12,2.24-.16,2.77-.08,1.04-.33,2.33-.37,3.34,0,.52.28,1.26.26,1.55-.02.12-.26.02-.32.1-.04.04-.21,1.02-.21,1.13-.02.43.32,1.41.31,1.49-.03.13-.26.15-.3.29-.15.44-.06,1.3-.11,1.77-.08.86-.24,1.76-.19,2.65.13.5.54.11.84.1.37,0,1.79.3,1.87-.14.04-.22-.36-.59-.07-.88.68-.69.82.1,1.45-.19-.02-.05-.01-.14-.02-.21,0-.02-.02-.05-.05-.08,0-.02-.02-.03-.03-.05,0-.02-.02-.05-.01-.08,0-.04.04-.08.13-.15.04-.03.09-.05.15-.08.06-.03.12-.05.16-.06.37-.11.26.16.31.2.15.13.25-.16.27.54.01.42-.19.19-.6.28-.35.07.68,1.1,1.12.79l2.13-4.21c.02-.2-.58-.34-.35-.91.22-.58.66.11.88-.2l6.88-13.63-5.16.46ZM86.73,63.32s-.06,0-.1,0-.06-.01-.08-.02c-.05-.01-.09-.02-.13-.04-.02-.01-.03-.02-.05-.03-.08-.03-.13-.08-.17-.17-.02-.05-.03-.09-.04-.16,0-.07,0-.15.01-.24h0s.03-.03.05-.04c.05-.01.09-.02.15,0,.03,0,.07.01.1.02.06.01.11.04.17.07.06.03.11.06.16.1.03.02.07.05.1.08.23.18.4.39.35.46-.07-.01-.13-.01-.19,0-.11,0-.23-.01-.33-.03ZM87.86,64.44s0,.02,0,.02c-.01.03-.03.06-.06.09-.01.03-.04.04-.07.06h0s-.01.02-.03.02c-.05.03-.1.04-.15.03,0,0-.02,0-.03,0-.07-.02-.14-.07-.2-.17-.03-.05-.05-.1-.06-.15-.01-.02-.01-.05-.01-.07-.01-.04-.01-.07-.02-.11,0-.03,0-.07,0-.11.15,0,.28,0,.37.03.03,0,.06.01.08.02.02,0,.03.01.04.02.02,0,.03.01.05.03,0,0,0,0,.02.01.02,0,.03.02.03.03.03.02.04.04.04.07,0,.02.01.02.01.03,0,.02.02.03.01.05,0,.03,0,.06-.02.09ZM86.92,58.87c.27-.11,1.22.48,1.23.83,0,1.27-1.95-.55-1.23-.83ZM90.53,60.57l-.45.04-.04-.45.45-.04.04.45Z"/>
      <path class="cls-1" d="M65.61,89.64s-.25,0-.34.03l-.04-.45.36.25c0,.06.03.15.02.17Z"/>
      <path class="cls-2" d="M48.02,46.27c-.04-.11-.09-.14-.13-.21-.31-.53-1.16-1.29.26-.99.73.15.5,1.1-.12,1.21Z"/>
      <path class="cls-2" d="M47.1,44.89c-.14.14-.63-.18-.7-.35-.1-.28.51-.98.73-.36.08.24-.07.48-.03.71Z"/>
      <path class="cls-1" d="M11.48,50.46l-.07.57c-.17-.07-.97.01-1.01-.02-.03-.03-.02-.44-.05-.56h1.13Z"/>
      <path class="cls-1" d="M19.41,47.94l.04.45c-.45.04-.48-.41-.04-.45Z"/>
    </g>
  </g>
</svg>