<svg width="46" height="67" viewBox="0 0 46 67" fill="none" xmlns="http://www.w3.org/2000/svg">
<path d="M9.09087 19.098C7.96121 19.4207 6.77777 21.7338 7.15432 22.7559C7.36949 23.2938 8.12259 23.6166 9.09087 23.6166C9.95156 23.6166 10.866 23.8318 11.0274 24.1545C11.1888 24.4235 12.426 24.6925 13.7709 24.6925C15.0619 24.6925 16.1378 24.9076 16.1378 25.2304C16.1378 25.4994 15.8688 25.7683 15.4922 25.7683C15.1695 25.7683 15.0081 25.8759 15.1695 26.0373C15.7612 26.629 18.0743 25.1228 18.9888 23.5628C20.3336 21.1421 20.1722 20.5504 17.9129 20.1739C16.7833 20.0125 15.3847 19.7973 14.7929 19.6359C12.426 19.098 9.89776 18.8828 9.09087 19.098Z" fill="#242424"/>
<path d="M20.9791 40.8304C20.5487 41.0994 19.3115 41.3683 18.2356 41.3683C15.7611 41.3683 14.3625 42.3904 14.6315 44.058C14.7391 44.8649 15.3308 45.5104 16.2991 45.8331C17.6977 46.2635 18.0204 46.1559 19.3653 44.6497C20.4949 43.4663 21.4094 42.9821 22.5929 42.9821C23.7763 42.9821 24.6908 43.4663 25.8204 44.6497C27.1653 46.1559 27.488 46.2635 28.8866 45.8331C30.5004 45.2952 31.1997 43.3049 30.1777 42.2828C29.8549 41.96 28.4563 41.5297 27.0577 41.3145C25.6053 41.0994 23.8839 40.7766 23.1308 40.5614C22.3777 40.4001 21.4094 40.5076 20.9791 40.8304Z" fill="#242424"/>
<path d="M18.774 0.431805C14.7396 1.2387 8.82233 5.27318 9.41405 6.83317C9.57543 7.20972 9.41405 7.3711 9.09129 7.20972C7.69267 6.29524 4.30371 13.1808 4.30371 16.8925C4.30371 18.6138 4.19613 18.7752 2.68992 18.7752C-0.430072 18.7752 -0.860416 22.7559 1.61406 29.2649C1.99061 30.2331 2.0982 30.2331 2.63613 28.8345C2.95889 27.9738 3.22785 26.6828 3.22785 25.8759C3.22785 25.069 3.49682 24.0469 3.76578 23.6166C4.19613 22.9711 4.30371 23.1325 4.30371 24.2621C4.30371 26.3063 5.32578 28.4042 7.36992 30.6097C8.33819 31.6318 9.14509 32.9228 9.14509 33.4069C9.14509 35.72 9.62922 35.9352 12.1575 34.5366C13.4485 33.7835 14.9009 32.4924 15.3313 31.6856C16.4609 29.48 17.4292 28.9959 17.1065 30.7711C16.8375 32.0083 17.1602 32.3311 19.6885 33.6221L22.5933 35.0745L25.283 33.7835C28.3492 32.2773 28.9409 30.4483 26.6278 29.5338C25.4444 29.1035 25.283 28.6731 25.1754 26.0373C24.9602 19.6359 24.7989 20.1738 27.1657 19.7973C28.3492 19.5821 30.5547 19.2056 32.0071 18.8828C34.105 18.4525 35.0195 18.4525 36.203 19.0442L37.7092 19.7973L37.3864 17.538C37.225 16.3007 37.0099 13.3421 36.9023 10.9752L36.7409 6.72559L34.4278 4.68145C33.1368 3.5518 31.8457 2.69111 31.523 2.79869C31.2002 2.90628 30.6623 2.69111 30.3933 2.26077C29.7478 1.40008 24.5837 -0.0523338 22.3244 0.00145721C21.4637 0.0552521 19.8499 0.216633 18.774 0.431805ZM14.7934 19.367C15.7078 19.6359 17.214 19.9049 18.2361 19.9587C19.2044 20.0125 20.1189 20.389 20.2802 20.7118C20.603 21.5725 18.0209 25.5531 16.7299 26.3063C15.0085 27.2207 14.2554 26.9518 15.2775 25.8221C16.192 24.8 16.1382 24.8 13.072 24.4773C11.3506 24.3159 9.46784 24.1545 8.87612 24.1545C6.34785 24.0469 5.70233 21.7876 7.69267 20.0125C9.68302 18.1835 10.5975 18.1297 14.7934 19.367Z" fill="#ECECEC" fill-opacity="0.7"/>
<path d="M40.4526 17.269C40.345 19.4745 40.8292 20.0663 41.9588 19.2056C42.6043 18.7752 42.6043 18.7214 41.8512 18.9904C41.1519 19.2056 40.883 18.829 40.7216 17.269L40.5064 15.2787L40.4526 17.269Z" fill="#ECECEC" fill-opacity="0.7"/>
<path d="M44.4869 22.0566C44.6483 23.3476 44.8635 24.5311 44.9711 24.6387C45.4552 25.1766 45.1325 21.1421 44.7021 20.4428C44.3794 19.9049 44.2718 20.4966 44.4869 22.0566Z" fill="#ECECEC" fill-opacity="0.7"/>
<path d="M3.8193 30.8787C3.76551 31.4704 2.90482 34.6442 1.88276 37.8718C0.860688 41.1531 0 44.9187 0 46.3173C0 48.5766 1.66758 53.7407 2.42069 53.7407C2.58207 53.7407 3.01241 53.0952 3.33517 52.2345L3.92689 50.7821L4.35724 53.149C4.6262 54.44 5.11034 55.7849 5.4331 56.2152C5.75585 56.6455 5.86344 56.9683 5.64827 56.9683C5.3793 56.9683 5.64827 57.4524 6.1862 58.0442C6.72413 58.6359 7.53102 59.12 7.96137 59.12C8.44551 59.12 8.60688 59.2814 8.44551 59.4428C8.23033 59.658 9.14481 60.4648 10.3821 61.2179C12.8565 62.8317 15.062 63.8538 20.4951 66.0055C22.0013 66.5973 24.7448 66.2745 24.7448 65.4676C24.7448 65.1986 25.0138 65.1448 25.3365 65.3062C25.8744 65.6828 29.5862 64.1766 29.5862 63.6386C29.5862 63.4773 29.371 63.4773 29.102 63.6386C28.8331 63.8538 28.7255 63.4773 28.8869 62.8855C29.1558 61.8635 29.2096 61.8097 29.9089 62.7242C30.6082 63.6386 30.662 63.6386 30.2855 62.6166C29.9627 61.7021 30.0165 61.6483 30.7696 62.24C31.4689 62.8317 32.0606 62.6704 34.2124 61.4869C38.4082 59.1738 40.3448 56.7531 40.3448 53.9021C40.3448 53.0952 40.5599 52.0731 40.8289 51.6428C41.2055 51.0511 41.4744 51.2124 42.0661 52.3959C42.6579 53.5255 42.9806 53.6869 43.3034 53.2028C43.5724 52.7186 43.5186 52.3959 43.142 52.2345C42.7655 52.1269 42.6579 51.7504 42.8193 51.4814C43.0344 51.1049 42.9268 51.0511 42.6041 51.2662C42.2275 51.4814 41.9586 51.3738 41.9586 51.1049C41.9586 50.298 42.6579 50.3518 43.5186 51.1587C44.1103 51.6966 44.2179 51.6966 43.8951 51.1587C43.6799 50.8359 43.7875 50.5131 44.1103 50.5131C44.433 50.5131 44.5944 50.298 44.3792 50.029C44.2179 49.76 44.3255 49.3835 44.6482 49.1683C45.5089 48.6304 45.2937 43.8966 44.3255 41.5835C43.8413 40.4 42.873 37.2801 42.2275 34.6442C41.0441 29.8566 40.9903 29.8028 40.6137 31.9545C40.3986 33.138 39.5917 35.0745 38.8386 36.2042C37.9779 37.4414 37.2786 39.378 37.0634 41.0456C36.8482 43.0897 36.6868 43.52 36.3641 42.7131C34.7503 38.3559 33.8358 37.0649 31.6303 35.989C28.9406 34.698 27.4882 34.6442 26.0358 35.7201C24.6372 36.7421 20.9793 36.7421 19.4193 35.6663C17.0524 33.9449 11.8883 35.7201 10.3283 38.7863C10.0055 39.4318 9.41378 40.7228 9.09102 41.6373L8.44551 43.2511L8.06895 40.4538C7.79999 38.7863 7.10068 37.0111 6.23999 35.8276C5.48689 34.8594 4.84137 33.5683 4.78758 32.9766C4.78758 32.4387 4.57241 31.4704 4.30344 30.8787C3.8193 29.8028 3.8193 29.8028 3.8193 30.8787ZM27.3269 41.0456C29.9627 41.5835 30.4469 41.9062 30.931 43.1973C31.3613 44.4883 31.2537 44.8111 30.1241 45.7256C28.2951 47.0704 27.1655 47.0166 25.8744 45.349C25.1751 44.4345 24.0993 43.8428 22.7007 43.6814C20.9255 43.4662 20.4951 43.5738 19.742 44.8111C18.6662 46.3711 16.4607 46.6938 14.8469 45.5104C14.04 44.9187 13.9324 44.4883 14.3627 43.2511C14.7931 41.9062 15.2772 41.6373 18.2896 41.0456C20.1724 40.6152 21.9476 40.0773 22.2165 39.8083C22.5931 39.4318 23.0234 39.4318 23.5076 39.8621C23.8841 40.1849 25.6055 40.7228 27.3269 41.0456Z" fill="#ECECEC" fill-opacity="0.7"/>
</svg>
