<svg width="45" height="66" viewBox="0 0 45 66" fill="none" xmlns="http://www.w3.org/2000/svg">
<path d="M37.7647 7.11687C37.7647 7.39695 38.2548 8.79738 38.815 10.1978C39.3752 11.5282 39.8653 13.2787 39.8653 14.049C39.8653 15.6595 36.4343 22.3115 35.594 22.3115C34.4737 22.3115 33.2133 25.5325 32.8632 29.5237L32.5131 33.5849L28.6619 35.1254L24.8107 36.6659L24.6006 42.8978L24.3906 49.1297L21.5897 48.7096L18.8589 48.3595L20.5394 49.6899C22.1499 50.9502 22.36 51.5804 22.5 57.8824L22.7101 64.6744L29.2921 58.3025C32.8632 54.8014 35.664 51.5804 35.3839 51.1603C34.8938 50.3201 36.2942 43.1079 37.0644 42.6177C37.4146 42.4076 37.8347 38.5565 38.0447 34.0751C38.3248 26.9329 38.6049 25.5325 40.1454 23.2218C43.4364 18.1802 43.2263 13.2087 39.5152 8.65734C38.5349 7.46698 37.7647 6.83678 37.7647 7.11687Z" fill="#151515"/>
<path d="M10.2462 34.6353C9.96611 34.9153 10.5263 35.8256 11.3665 36.7359C12.4869 37.9263 13.6772 38.4164 15.7779 38.4164C17.3184 38.4164 18.9288 38.7665 19.419 39.2567C20.0492 39.8869 20.2593 39.7468 20.2593 38.5565C20.2593 37.3661 19.489 36.5959 17.3184 35.6156C14.3074 34.2151 11.0865 33.795 10.2462 34.6353Z" fill="#151515"/>
<path d="M6.32504 37.5762C6.25502 38.0663 5.97493 38.3464 5.55481 38.0663C4.08436 37.156 6.81519 42.6177 9.26594 45.4186C12.5569 49.3398 12.697 48.0794 9.33596 43.8081C7.93553 42.0575 6.95523 40.307 7.1653 40.0269C7.30534 39.7468 7.23532 38.8366 6.88521 38.0663C6.60513 37.2961 6.32504 37.086 6.32504 37.5762Z" fill="#151515"/>
<path d="M35.7337 1.58517C34.6834 3.54577 34.5434 5.36633 35.3136 10.2678L35.8738 13.979L32.6528 16.9899C30.9023 18.6704 29.0117 20.9811 28.3815 22.1014L27.3312 24.062L27.2611 21.9614C27.2611 20.771 27.7513 19.0905 28.3815 18.2503C29.0117 17.34 29.2918 16.4297 29.0117 16.1496C28.3815 15.5194 16.3378 15.5194 15.6376 16.1496C15.4275 16.4297 15.7076 17.48 16.3378 18.3903C16.968 19.3706 17.4581 21.0511 17.4581 22.1014L17.3881 24.062L16.3378 22.1014C15.7076 20.9811 13.817 18.7404 12.1365 17.1299C8.77549 13.9089 8.42539 12.3685 9.82581 7.60701C10.456 5.57639 10.386 4.5961 9.68577 2.9856C8.56543 0.674896 7.44509 0.394814 7.02496 2.35541C6.88492 3.12564 5.62453 5.57639 4.15408 7.81708C-0.257265 14.5391 0.582991 20.0008 6.74487 26.2327C8.98556 28.4734 9.54573 29.3136 8.63545 29.3136C7.93524 29.3136 6.81489 28.8235 6.11468 28.1233C4.92432 27.073 4.8543 27.143 4.8543 29.8738C4.8543 33.0248 4.50419 33.3049 2.47357 31.7644C-0.607372 29.4537 -0.747415 30.9241 1.70333 37.9963C4.01404 44.4383 4.8543 46.1188 5.97464 46.1188C6.95494 46.1188 7.30504 47.0991 8.00526 51.0903C8.49541 53.6811 11.5063 57.6023 12.5566 56.9721C12.8367 56.762 13.3269 57.3922 13.5369 58.3725C13.817 59.3528 14.4472 60.1231 15.0074 60.1231C15.5676 60.1231 16.0577 60.5432 16.0577 60.9633C16.0577 62.0136 21.0993 65.7248 22.4997 65.7248C23.8301 65.6547 26.2108 63.7642 25.6506 63.134C25.3706 62.8539 24.7404 63.0639 24.3202 63.4841C22.6397 65.1646 22.3596 64.2543 22.3596 57.8123C22.3596 51.4404 22.3596 51.3704 20.259 49.97C17.8083 48.2894 17.5282 47.1691 19.7689 47.7993C23.41 48.9196 23.41 48.9196 23.62 42.9678C23.7601 39.9569 24.1802 37.016 24.5303 36.5959C24.9504 36.1057 26.841 35.1954 28.7316 34.5652C31.8825 33.5149 32.1626 33.2348 32.1626 31.0642C32.1626 27.4231 32.9329 24.6222 34.3333 23.0817C39.3048 17.7601 40.2851 13.6289 37.6943 8.37725C36.9241 6.69674 36.504 5.15627 36.784 4.9462C37.0641 4.66611 37.4142 4.87618 37.5543 5.36633C37.7643 5.85648 38.6046 6.97682 39.4449 7.81708C40.2151 8.65733 41.5455 10.688 42.2457 12.3685C43.5061 15.0993 43.5061 15.7995 42.7359 18.6704C42.2457 20.4909 41.1254 22.9417 40.1451 24.2021C38.6046 26.2327 38.4646 27.073 38.4646 33.865C38.4646 38.9766 38.1845 41.7774 37.4843 42.8278C36.9241 43.668 36.2939 46.2588 36.0138 48.4995C35.5237 52.4907 35.2436 52.9809 30.9023 57.6023C26.2108 62.4338 26.1408 63.134 30.6922 59.0727C35.3836 54.8714 36.2239 53.6811 36.9941 49.4798C37.4843 47.2391 38.1145 45.5586 38.4646 45.7687C39.3048 46.3288 40.8453 43.738 42.6658 38.7665C45.0466 32.3246 45.1166 31.6944 43.4361 31.6944C42.6658 31.6944 42.2457 31.9745 42.3858 32.2545C42.5958 32.5346 42.1057 32.8147 41.3354 32.8147C40.0751 32.8147 39.865 32.3946 39.865 29.5937C39.865 27.4231 40.3551 25.6725 41.3354 24.2721C42.1757 23.1518 43.226 20.8411 43.7862 19.0905C44.9065 15.3094 43.9262 12.0184 40.2151 6.9068C38.8847 5.08624 37.7643 2.77554 37.7643 1.72522C37.7643 -0.515465 36.8541 -0.585487 35.7337 1.58517ZM17.6682 35.1954C19.9789 36.2458 20.259 36.5959 20.259 38.9766C20.189 41.0772 20.0489 41.3573 19.4888 40.307C18.9986 39.5368 17.9483 39.1166 16.1277 39.1166C14.2372 39.1166 12.9068 38.5565 11.2262 37.086C9.1256 35.1954 9.05558 34.9854 10.2459 34.2852C11.7164 33.3749 13.8871 33.655 17.6682 35.1954ZM5.34445 36.8059C5.76457 37.8563 5.8346 37.7862 6.32474 36.5959C6.67485 35.5455 6.95494 35.9657 7.37507 38.3464C7.65515 40.167 8.70547 42.3376 9.89583 43.738C11.2963 45.3485 12.0665 47.0991 12.2766 49.0597L12.6267 52.0706L11.5063 49.6198C10.8761 48.2894 9.47571 46.1888 8.35536 45.0685C6.25472 42.8978 3.10376 35.6156 4.2241 35.6156C4.57421 35.6156 5.13438 36.1757 5.34445 36.8059Z" fill="#FFEED5"/>
</svg>
