<svg width="92" height="77" viewBox="0 0 92 77" fill="none" xmlns="http://www.w3.org/2000/svg">
<path d="M11.1421 0.662689C11.1421 1.10448 10.3322 2.28262 9.3013 3.38712C6.57687 6.33244 3.85244 11.4868 1.86434 17.5983C-1.59642 28.2751 -0.123754 43.2227 5.3251 52.7214C7.5341 56.4767 12.173 62.6619 13.8666 64.0609C25.5006 73.7068 34.1157 76.8731 47.3697 76.3576C56.132 76.0631 59.8137 75.1795 65.9989 72.0133C77.6329 66.1226 85.5117 56.8448 89.6351 44.3272C91.1078 39.8356 91.4023 37.332 91.4023 30.4841C91.4023 25.9189 91.1078 22.0163 90.7396 21.7954C90.3715 21.5745 90.1506 25.2562 90.1506 30.0423C90.1506 37.332 89.856 39.541 88.3097 44.2535C86.7634 48.9661 82.1245 57.5812 80.431 58.9066C80.2101 59.1275 78.4429 60.8947 76.6021 62.9564C74.7612 64.9445 72.994 66.7117 72.6995 66.7117C72.405 66.7853 70.4169 68.0371 68.2079 69.4361C66.0725 70.8351 62.0963 72.5287 59.4455 73.265C56.7211 74.0014 54.4385 74.8113 54.2912 75.0322C54.1439 75.2531 50.4623 75.4004 46.1915 75.4004C39.8591 75.2531 37.2083 74.885 32.2749 73.265C18.1373 68.5525 8.12317 58.5384 3.33701 44.1799C1.56981 38.8783 1.27528 36.8166 1.34891 30.5578C1.42254 22.4581 3.55791 14.5057 7.0923 8.83597C8.12317 7.21604 8.93313 5.74338 8.93313 5.52248C8.93313 5.30157 9.7431 4.19707 10.774 3.09258C12.7621 1.03085 13.0566 -7.62939e-06 11.8785 -7.62939e-06C11.5103 -7.62939e-06 11.1421 0.294525 11.1421 0.662689Z" fill="#FFEED5"/>
</svg>
