<svg width="82" height="94" viewBox="0 0 82 94" fill="none" xmlns="http://www.w3.org/2000/svg">
<path d="M68.7235 10.0496L40.1995 1.33319L11.6756 10.0496C11.6756 10.0496 10.5134 24.8845 0.430054 26.9354L0.430054 47.171C0.430054 47.171 9.88108 84.7026 40.1995 92.8037C70.5351 84.7026 79.969 47.171 79.969 47.171V26.9354C69.8857 24.8845 68.7235 10.0496 68.7235 10.0496" fill="#3A3A3A"/>
<path d="M42.4709 86.3433C42.2976 86.1229 42.0772 85.944 41.8258 85.8198C41.5745 85.6956 41.2985 85.6292 41.0182 85.6255C40.7403 85.6293 40.4669 85.6959 40.2183 85.8202C39.9697 85.9444 39.7524 86.1233 39.5826 86.3433C16.8523 78.2764 7.94816 50.1105 6.83728 46.3847V32.3189C7.19848 32.1743 7.50759 31.924 7.72411 31.6007C7.94063 31.2775 8.05447 30.8963 8.0507 30.5073C8.06032 30.4164 8.06032 30.3247 8.0507 30.2338C14.3571 26.0807 16.7156 18.2702 17.5188 14.5273L39.5484 7.79345C39.7209 8.02145 39.9427 8.20752 40.1972 8.33773C40.4517 8.46795 40.7324 8.53896 41.0182 8.54545C41.3047 8.54281 41.5867 8.47348 41.8418 8.34295C42.097 8.21243 42.3182 8.02429 42.488 7.79345L64.5517 14.5273C65.355 18.2702 67.7135 26.0807 74.0199 30.2338C74.0199 30.2338 74.0199 30.4047 74.0199 30.5073C74.0156 30.8919 74.1253 31.2692 74.3352 31.5916C74.5451 31.914 74.8457 32.1671 75.1991 32.3189V46.3847C74.1224 50.1105 65.2012 78.2764 42.488 86.3433M65.8164 13.8436V13.4335L42.881 6.44327C42.881 5.9492 42.6848 5.47536 42.3354 5.126C41.9861 4.77663 41.5122 4.58036 41.0182 4.58036C40.5241 4.58036 40.0503 4.77663 39.7009 5.126C39.3516 5.47536 39.1553 5.9492 39.1553 6.44327L16.3054 13.4335V13.8436C15.6389 17.2618 13.4855 24.9698 7.40127 29.0033C7.07555 28.7275 6.6657 28.5708 6.23911 28.5589C5.9812 28.5543 5.72497 28.6015 5.48558 28.6976C5.24618 28.7936 5.02845 28.9367 4.84525 29.1183C4.66205 29.2999 4.51709 29.5164 4.41893 29.755C4.32077 29.9935 4.27139 30.2493 4.27371 30.5073C4.27456 30.8953 4.39023 31.2744 4.60617 31.5968C4.82211 31.9192 5.12864 32.1704 5.48713 32.3189V46.4873V46.6753C6.46129 50.0935 15.5192 79.3018 39.1041 87.6935C39.1302 88.1847 39.3428 88.6475 39.6985 88.9874C40.0542 89.3272 40.5262 89.5185 41.0182 89.5222C41.5183 89.5177 41.9965 89.3158 42.3486 88.9605C42.7006 88.6052 42.8982 88.1253 42.8981 87.6251C52.5542 84.2069 60.8773 77.08 67.6451 66.3127C71.4609 60.196 74.4438 53.5978 76.5151 46.6924V32.3189C76.8749 32.1724 77.1827 31.9216 77.3989 31.5987C77.6151 31.2759 77.7299 30.8958 77.7285 30.5073C77.733 30.2545 77.6874 30.0033 77.5943 29.7682C77.5012 29.5331 77.3625 29.3188 77.1861 29.1377C77.0097 28.9565 76.7992 28.8121 76.5667 28.7127C76.3342 28.6134 76.0843 28.5611 75.8314 28.5589C75.4049 28.5708 74.995 28.7275 74.6693 29.0033C68.6022 24.9698 66.4317 17.1764 65.7823 13.8436M79.4546 47.0171C78.8394 49.5636 69.0636 83.7455 41.0182 91.4705C12.9728 83.7455 3.19701 49.5636 2.5134 47.0171L2.5134 27.9436C11.1612 25.4142 13.2291 14.2709 13.6393 11.0578L40.984 2.68327L68.3287 11.0578C68.7389 14.3222 70.8068 25.4142 79.4717 27.9436L79.4546 47.0171ZM81.0269 25.6364C72.0032 23.8076 70.7727 10.0665 70.7727 9.92982V9.05818L41.0182 0L11.315 9.09236V9.964C11.315 10.1007 10.1016 23.8418 1.06071 25.6705L0.00109863 25.8756L0.00109863 47.188L0.00109863 47.4956C0.137822 47.8545 10.0161 85.8647 40.7106 94H41.0182H41.3258C72.0886 85.8135 81.8986 47.8545 82.0011 47.4444V25.8244L81.0269 25.6364Z" fill="#FCE9CE"/>
</svg>
