<svg width="129" height="62" viewBox="0 0 129 62" fill="none" xmlns="http://www.w3.org/2000/svg">
<g opacity="0.5" filter="url(#filter0_f_225_1147)">
<rect x="13.1062" y="12.8492" width="102.408" height="35.7207" fill="black"/>
<rect x="13.6202" y="13.3631" width="101.38" height="34.6927" stroke="black" stroke-width="1.02793"/>
<rect x="13.6202" y="13.3631" width="101.38" height="34.6927" stroke="black" stroke-width="1.02793"/>
</g>
<mask id="path-3-inside-1_225_1147" fill="white">
<path d="M124.957 2.56984C124.957 4.52978 126.496 6.12997 128.432 6.22804L128.62 6.23292V34.5894C126.597 34.5894 124.957 36.2293 124.957 38.2525H3.66309C3.66309 36.2925 2.124 34.6924 0.188477 34.5942L0 34.5894V6.23292C2.02312 6.23289 3.66308 4.59296 3.66309 2.56984H124.957Z"/>
</mask>
<path d="M124.957 2.56984C124.957 4.52978 126.496 6.12997 128.432 6.22804L128.62 6.23292V34.5894C126.597 34.5894 124.957 36.2293 124.957 38.2525H3.66309C3.66309 36.2925 2.124 34.6924 0.188477 34.5942L0 34.5894V6.23292C2.02312 6.23289 3.66308 4.59296 3.66309 2.56984H124.957Z" fill="#2F2F2F"/>
<path d="M124.957 2.56984C124.957 4.52978 126.496 6.12997 128.432 6.22804L128.62 6.23292V34.5894C126.597 34.5894 124.957 36.2293 124.957 38.2525H3.66309C3.66309 36.2925 2.124 34.6924 0.188477 34.5942L0 34.5894V6.23292C2.02312 6.23289 3.66308 4.59296 3.66309 2.56984H124.957Z" fill="url(#paint0_radial_225_1147)"/>
<path d="M124.957 2.56984L125.471 2.56984V2.05587H124.957V2.56984ZM128.432 6.22804L128.406 6.7415L128.418 6.74183L128.432 6.22804ZM128.62 6.23292H129.134V5.7321L128.633 5.71913L128.62 6.23292ZM128.62 34.5894V35.1033H129.134V34.5894H128.62ZM124.957 38.2525V38.7664H125.471V38.2525H124.957ZM3.66309 38.2525H3.14912V38.7664H3.66309V38.2525ZM0.188477 34.5942L0.21451 34.0808L0.201787 34.0805L0.188477 34.5942ZM0 34.5894H-0.513966V35.0902L-0.0133107 35.1032L0 34.5894ZM0 6.23292L-8.0529e-06 5.71896L-0.513966 5.71896V6.23292H0ZM3.66309 2.56984V2.05587H3.14912L3.14912 2.56984L3.66309 2.56984ZM124.957 2.56984L124.443 2.56984C124.443 4.80494 126.198 6.62949 128.406 6.74135L128.432 6.22804L128.458 5.71473C126.794 5.63044 125.471 4.25463 125.471 2.56984L124.957 2.56984ZM128.432 6.22804L128.418 6.74183L128.607 6.74672L128.62 6.23292L128.633 5.71913L128.445 5.71424L128.432 6.22804ZM128.62 6.23292H128.106V34.5894H128.62H129.134V6.23292H128.62ZM128.62 34.5894V34.0754C126.313 34.0754 124.443 35.9454 124.443 38.2525H124.957H125.471C125.471 36.5132 126.881 35.1033 128.62 35.1033V34.5894ZM124.957 38.2525V37.7385H3.66309V38.2525V38.7664H124.957V38.2525ZM3.66309 38.2525H4.17705C4.17705 36.0174 2.42198 34.1929 0.214502 34.0809L0.188477 34.5942L0.162451 35.1076C1.82602 35.1919 3.14912 36.5677 3.14912 38.2525H3.66309ZM0.188477 34.5942L0.201787 34.0805L0.0133107 34.0756L0 34.5894L-0.0133107 35.1032L0.175166 35.108L0.188477 34.5942ZM0 34.5894H0.513966V6.23292H0H-0.513966V34.5894H0ZM0 6.23292L8.0529e-06 6.74689C2.30697 6.74685 4.17705 4.87682 4.17705 2.56984L3.66309 2.56984L3.14912 2.56984C3.14912 4.3091 1.73927 5.71893 -8.0529e-06 5.71896L0 6.23292ZM3.66309 2.56984V3.0838H124.957V2.56984V2.05587H3.66309V2.56984Z" fill="black" mask="url(#path-3-inside-1_225_1147)"/>
<path d="M124.957 2.56984L125.471 2.56984V2.05587H124.957V2.56984ZM128.432 6.22804L128.406 6.7415L128.418 6.74183L128.432 6.22804ZM128.62 6.23292H129.134V5.7321L128.633 5.71913L128.62 6.23292ZM128.62 34.5894V35.1033H129.134V34.5894H128.62ZM124.957 38.2525V38.7664H125.471V38.2525H124.957ZM3.66309 38.2525H3.14912V38.7664H3.66309V38.2525ZM0.188477 34.5942L0.21451 34.0808L0.201787 34.0805L0.188477 34.5942ZM0 34.5894H-0.513966V35.0902L-0.0133107 35.1032L0 34.5894ZM0 6.23292L-8.0529e-06 5.71896L-0.513966 5.71896V6.23292H0ZM3.66309 2.56984V2.05587H3.14912L3.14912 2.56984L3.66309 2.56984ZM124.957 2.56984L124.443 2.56984C124.443 4.80494 126.198 6.62949 128.406 6.74135L128.432 6.22804L128.458 5.71473C126.794 5.63044 125.471 4.25463 125.471 2.56984L124.957 2.56984ZM128.432 6.22804L128.418 6.74183L128.607 6.74672L128.62 6.23292L128.633 5.71913L128.445 5.71424L128.432 6.22804ZM128.62 6.23292H128.106V34.5894H128.62H129.134V6.23292H128.62ZM128.62 34.5894V34.0754C126.313 34.0754 124.443 35.9454 124.443 38.2525H124.957H125.471C125.471 36.5132 126.881 35.1033 128.62 35.1033V34.5894ZM124.957 38.2525V37.7385H3.66309V38.2525V38.7664H124.957V38.2525ZM3.66309 38.2525H4.17705C4.17705 36.0174 2.42198 34.1929 0.214502 34.0809L0.188477 34.5942L0.162451 35.1076C1.82602 35.1919 3.14912 36.5677 3.14912 38.2525H3.66309ZM0.188477 34.5942L0.201787 34.0805L0.0133107 34.0756L0 34.5894L-0.0133107 35.1032L0.175166 35.108L0.188477 34.5942ZM0 34.5894H0.513966V6.23292H0H-0.513966V34.5894H0ZM0 6.23292L8.0529e-06 6.74689C2.30697 6.74685 4.17705 4.87682 4.17705 2.56984L3.66309 2.56984L3.14912 2.56984C3.14912 4.3091 1.73927 5.71893 -8.0529e-06 5.71896L0 6.23292ZM3.66309 2.56984V3.0838H124.957V2.56984V2.05587H3.66309V2.56984Z" fill="white" fill-opacity="0.3" mask="url(#path-3-inside-1_225_1147)"/>
<mask id="path-5-inside-2_225_1147" fill="white">
<path d="M122.902 4.49721C122.902 6.21836 124.233 7.62732 125.922 7.75405V33.0675C124.233 33.1942 122.902 34.6042 122.902 36.3253C122.902 36.3381 122.903 36.3507 122.903 36.3634H5.84485C5.84499 36.3507 5.84582 36.3381 5.84583 36.3253C5.84583 34.5608 4.44746 33.1227 2.69836 33.0597V7.76186C4.44745 7.69882 5.84582 6.26169 5.84583 4.49721H122.902Z"/>
</mask>
<path d="M122.902 4.49721C122.902 6.21836 124.233 7.62732 125.922 7.75405V33.0675C124.233 33.1942 122.902 34.6042 122.902 36.3253C122.902 36.3381 122.903 36.3507 122.903 36.3634H5.84485C5.84499 36.3507 5.84582 36.3381 5.84583 36.3253C5.84583 34.5608 4.44746 33.1227 2.69836 33.0597V7.76186C4.44745 7.69882 5.84582 6.26169 5.84583 4.49721H122.902Z" fill="#00A59D"/>
<path d="M122.902 4.49721C122.902 6.21836 124.233 7.62732 125.922 7.75405V33.0675C124.233 33.1942 122.902 34.6042 122.902 36.3253C122.902 36.3381 122.903 36.3507 122.903 36.3634H5.84485C5.84499 36.3507 5.84582 36.3381 5.84583 36.3253C5.84583 34.5608 4.44746 33.1227 2.69836 33.0597V7.76186C4.44745 7.69882 5.84582 6.26169 5.84583 4.49721H122.902Z" fill="url(#paint1_radial_225_1147)"/>
<path d="M122.902 4.49721L123.819 4.49721V3.58033H122.902V4.49721ZM125.922 7.75405H126.839V6.90339L125.991 6.83973L125.922 7.75405ZM125.922 33.0675L125.991 33.9818L126.839 33.9182V33.0675H125.922ZM122.902 36.3253H121.986V36.3254L122.902 36.3253ZM122.903 36.3634V37.2803H123.831L123.82 36.3529L122.903 36.3634ZM5.84485 36.3634L4.92802 36.3529L4.91734 37.2803H5.84485V36.3634ZM5.84583 36.3253L6.76271 36.3254V36.3253H5.84583ZM2.69836 33.0597H1.78148V33.9442L2.66535 33.976L2.69836 33.0597ZM2.69836 7.76186L2.66534 6.84557L1.78148 6.87743V7.76186H2.69836ZM5.84583 4.49721V3.58033H4.92894L4.92894 4.49721L5.84583 4.49721ZM122.902 4.49721L121.986 4.49721C121.986 6.70225 123.69 8.50604 125.853 8.66836L125.922 7.75405L125.991 6.83973C124.776 6.74859 123.819 5.73447 123.819 4.49721L122.902 4.49721ZM125.922 7.75405H125.005V33.0675H125.922H126.839V7.75405H125.922ZM125.922 33.0675L125.853 32.1532C123.69 32.3155 121.986 34.1206 121.986 36.3253H122.902H123.819C123.819 35.0877 124.777 34.0729 125.991 33.9818L125.922 33.0675ZM122.902 36.3253L121.986 36.3254C121.986 36.3498 121.986 36.3708 121.987 36.377C121.987 36.3796 121.987 36.3798 121.987 36.3814C121.987 36.3823 121.987 36.3825 121.987 36.3823C121.987 36.382 121.987 36.3788 121.987 36.374L122.903 36.3634L123.82 36.3529C123.82 36.3417 123.82 36.3321 123.82 36.3255C123.819 36.3196 123.819 36.3132 123.819 36.3118C123.819 36.3091 123.819 36.3099 123.819 36.3117C123.819 36.3138 123.819 36.3186 123.819 36.3253L122.902 36.3253ZM122.903 36.3634V35.4465H5.84485V36.3634V37.2803H122.903V36.3634ZM5.84485 36.3634L6.76167 36.374C6.76162 36.3788 6.76152 36.382 6.76151 36.3823C6.7615 36.3825 6.76151 36.3823 6.76154 36.3814C6.7616 36.3798 6.7616 36.3796 6.7617 36.377C6.76192 36.3708 6.76271 36.3498 6.76271 36.3254L5.84583 36.3253L4.92894 36.3253C4.92894 36.3186 4.92905 36.3138 4.9291 36.3117C4.92914 36.3099 4.92918 36.3091 4.92908 36.3118C4.92904 36.3132 4.9288 36.3196 4.92862 36.3255C4.92841 36.3321 4.92815 36.3417 4.92802 36.3529L5.84485 36.3634ZM5.84583 36.3253H6.76271C6.76271 34.0657 4.9721 32.2242 2.73138 32.1434L2.69836 33.0597L2.66535 33.976C3.92283 34.0213 4.92894 35.056 4.92894 36.3253H5.84583ZM2.69836 33.0597H3.61525V7.76186H2.69836H1.78148V33.0597H2.69836ZM2.69836 7.76186L2.73139 8.67815C4.97173 8.59741 6.76271 6.75717 6.76271 4.49721L5.84583 4.49721L4.92894 4.49721C4.92894 5.76621 3.92317 6.80024 2.66534 6.84557L2.69836 7.76186ZM5.84583 4.49721V5.4141H122.902V4.49721V3.58033H5.84583V4.49721Z" fill="black" mask="url(#path-5-inside-2_225_1147)"/>
<path d="M122.902 4.49721L123.819 4.49721V3.58033H122.902V4.49721ZM125.922 7.75405H126.839V6.90339L125.991 6.83973L125.922 7.75405ZM125.922 33.0675L125.991 33.9818L126.839 33.9182V33.0675H125.922ZM122.902 36.3253H121.986V36.3254L122.902 36.3253ZM122.903 36.3634V37.2803H123.831L123.82 36.3529L122.903 36.3634ZM5.84485 36.3634L4.92802 36.3529L4.91734 37.2803H5.84485V36.3634ZM5.84583 36.3253L6.76271 36.3254V36.3253H5.84583ZM2.69836 33.0597H1.78148V33.9442L2.66535 33.976L2.69836 33.0597ZM2.69836 7.76186L2.66534 6.84557L1.78148 6.87743V7.76186H2.69836ZM5.84583 4.49721V3.58033H4.92894L4.92894 4.49721L5.84583 4.49721ZM122.902 4.49721L121.986 4.49721C121.986 6.70225 123.69 8.50604 125.853 8.66836L125.922 7.75405L125.991 6.83973C124.776 6.74859 123.819 5.73447 123.819 4.49721L122.902 4.49721ZM125.922 7.75405H125.005V33.0675H125.922H126.839V7.75405H125.922ZM125.922 33.0675L125.853 32.1532C123.69 32.3155 121.986 34.1206 121.986 36.3253H122.902H123.819C123.819 35.0877 124.777 34.0729 125.991 33.9818L125.922 33.0675ZM122.902 36.3253L121.986 36.3254C121.986 36.3498 121.986 36.3708 121.987 36.377C121.987 36.3796 121.987 36.3798 121.987 36.3814C121.987 36.3823 121.987 36.3825 121.987 36.3823C121.987 36.382 121.987 36.3788 121.987 36.374L122.903 36.3634L123.82 36.3529C123.82 36.3417 123.82 36.3321 123.82 36.3255C123.819 36.3196 123.819 36.3132 123.819 36.3118C123.819 36.3091 123.819 36.3099 123.819 36.3117C123.819 36.3138 123.819 36.3186 123.819 36.3253L122.902 36.3253ZM122.903 36.3634V35.4465H5.84485V36.3634V37.2803H122.903V36.3634ZM5.84485 36.3634L6.76167 36.374C6.76162 36.3788 6.76152 36.382 6.76151 36.3823C6.7615 36.3825 6.76151 36.3823 6.76154 36.3814C6.7616 36.3798 6.7616 36.3796 6.7617 36.377C6.76192 36.3708 6.76271 36.3498 6.76271 36.3254L5.84583 36.3253L4.92894 36.3253C4.92894 36.3186 4.92905 36.3138 4.9291 36.3117C4.92914 36.3099 4.92918 36.3091 4.92908 36.3118C4.92904 36.3132 4.9288 36.3196 4.92862 36.3255C4.92841 36.3321 4.92815 36.3417 4.92802 36.3529L5.84485 36.3634ZM5.84583 36.3253H6.76271C6.76271 34.0657 4.9721 32.2242 2.73138 32.1434L2.69836 33.0597L2.66535 33.976C3.92283 34.0213 4.92894 35.056 4.92894 36.3253H5.84583ZM2.69836 33.0597H3.61525V7.76186H2.69836H1.78148V33.0597H2.69836ZM2.69836 7.76186L2.73139 8.67815C4.97173 8.59741 6.76271 6.75717 6.76271 4.49721L5.84583 4.49721L4.92894 4.49721C4.92894 5.76621 3.92317 6.80024 2.66534 6.84557L2.69836 7.76186ZM5.84583 4.49721V5.4141H122.902V4.49721V3.58033H5.84583V4.49721Z" fill="black" mask="url(#path-5-inside-2_225_1147)"/>
<defs>
<filter id="filter0_f_225_1147" x="0.25704" y="0" width="128.106" height="61.419" filterUnits="userSpaceOnUse" color-interpolation-filters="sRGB">
<feFlood flood-opacity="0" result="BackgroundImageFix"/>
<feBlend mode="normal" in="SourceGraphic" in2="BackgroundImageFix" result="shape"/>
<feGaussianBlur stdDeviation="6.42458" result="effect1_foregroundBlur_225_1147"/>
</filter>
<radialGradient id="paint0_radial_225_1147" cx="0" cy="0" r="1" gradientUnits="userSpaceOnUse" gradientTransform="translate(64.3101 2.56984) rotate(90) scale(13.2283 51.505)">
<stop stop-color="#464646"/>
<stop offset="1" stop-color="#C84B2F" stop-opacity="0"/>
</radialGradient>
<radialGradient id="paint1_radial_225_1147" cx="0" cy="0" r="1" gradientUnits="userSpaceOnUse" gradientTransform="translate(64.3102 4.49721) rotate(90) scale(11.7994 45.941)">
<stop stop-color="#00B9B0"/>
<stop offset="1" stop-color="#00B9B0" stop-opacity="0"/>
</radialGradient>
</defs>
</svg>
