<svg width="28" height="28" viewBox="0 0 28 28" fill="none" xmlns="http://www.w3.org/2000/svg">
<path d="M17.6156 1.63282V3.26563H19.6389H21.6621L19.4259 5.53738L17.1896 7.80913L15.3438 6.95722C12.6461 5.71486 11.4393 5.57288 9.13203 6.2828C7.5702 6.74424 6.96677 7.09921 6.6828 7.84462C6.36334 8.55454 6.29235 8.59004 6.39883 8.0221C6.54082 7.20569 6.32784 7.1702 4.76602 7.80913C2.31679 8.80301 0.470997 11.6427 0.329013 14.6244C0.293517 15.6892 0.151533 17.3221 0.0450446 18.245C-0.203428 20.2327 0.577485 22.2915 2.35229 24.3503C3.73663 25.9121 5.04998 26.6575 6.18586 26.48C6.6828 26.3735 6.93127 26.48 6.78929 26.693C6.57631 27.048 6.6828 27.0835 8.31562 27.1545C8.84806 27.1545 9.48699 27.3674 9.69996 27.6159C10.1614 28.0419 11.5458 28.0064 13.8885 27.5449C16.6217 26.977 20.2423 23.5694 20.6682 21.1911C20.7747 20.6232 20.9167 20.0553 21.0232 19.9133C21.0942 19.7713 21.0232 19.5228 20.8102 19.4163C20.5617 19.2743 20.5617 19.0259 20.7392 18.7774C21.6976 17.5705 21.8751 15.8312 21.3072 13.9144C20.9877 12.8496 20.4553 11.5362 20.0648 11.0393L19.4259 10.1164L21.7331 7.84462L24.0049 5.60837V7.63165V9.65492H25.6022H27.235L27.1285 4.86296C27.022 0.53244 26.951 0.0709915 26.3831 0.0709915C26.0281 0.0709915 25.8507 0.212976 25.9571 0.425953C26.0636 0.638929 25.9216 0.674425 25.6377 0.567936C25.2827 0.425953 25.0697 0.53244 25.0697 0.816408C25.0697 1.13587 24.9633 1.17137 24.7858 0.958393C24.6438 0.745417 24.1468 0.567936 23.6499 0.53244C23.153 0.461449 21.5911 0.319464 20.2068 0.212976L17.6156 0V1.63282ZM14.3854 10.1519C17.7576 11.9267 19.2839 16.5766 17.6511 20.1617C16.2312 23.2854 12.1847 25.3797 9.13203 24.5632C6.93127 23.9953 5.36945 22.9304 4.26907 21.2621C3.34617 19.9133 3.23969 19.4873 3.23969 16.9316C3.23969 14.4469 3.34617 13.9144 4.19808 12.7431C6.50532 9.37095 10.8003 8.30607 14.3854 10.1519Z" fill="#ECECEC"/>
</svg>
