<svg width="20" height="30" viewBox="0 0 20 30" fill="none" xmlns="http://www.w3.org/2000/svg">
<path d="M8.15643 0.11157C5.14699 0.589706 2.3063 2.61475 1.01252 5.25856C0.112503 7.08673 0 7.64924 0 9.95554C0 13.865 2.58756 17.4651 6.44077 18.8151L7.9033 19.3495V20.9527V22.5839H5.93451H3.96571V24.2715V25.959H5.93451H7.9033V27.8997V29.8404L9.30958 29.9529C10.0971 29.981 10.8565 29.981 10.9971 29.9529C11.1659 29.8966 11.2784 28.9685 11.2784 27.8997V25.959H13.2472H15.216V24.2715V22.5839H13.2472H11.2784V20.9245C11.2784 19.3776 11.3346 19.2651 12.0096 19.0964C14.7378 18.3932 17.1004 16.3682 18.3942 13.5837C19.0973 12.0368 19.2098 11.4181 19.2098 9.64616C19.1536 7.19923 18.7879 6.01795 17.466 4.04916C15.4972 1.15222 11.6721 -0.450941 8.15643 0.11157ZM12.3472 3.99291C13.9784 4.83668 15.1316 6.24296 15.6378 8.01487C16.0597 9.50553 16.0597 9.75866 15.6378 11.1931C14.7941 14.1181 12.5722 15.8338 9.59084 15.8338C6.60952 15.8338 4.3876 14.1181 3.54383 11.1931C3.12194 9.75866 3.12194 9.50553 3.54383 8.01487C4.05009 6.27108 5.17512 4.8648 6.77828 4.02103C8.12831 3.28977 10.9409 3.28977 12.3472 3.99291Z" fill="#FCE9CE"/>
</svg>
