<svg width="220" height="225" viewBox="0 0 220 225" fill="none" xmlns="http://www.w3.org/2000/svg">
<path d="M4.07969 100.181C3.87834 100.282 3.72733 100.467 3.72733 100.601C3.72733 100.735 3.62666 100.92 3.52598 100.987C3.1904 101.188 3.2743 102.128 3.66022 102.765L4.01258 103.336L6.46232 103.202C9.63356 103.017 14.1807 103 15.4894 103.168L16.513 103.302L16.3452 102.614C16.1606 101.977 16.2613 101.289 16.6472 100.4C16.7479 100.131 16.5969 100.114 14.9022 100.114C13.8787 100.114 13.0397 100.165 13.0397 100.232C13.0397 100.299 11.9658 100.299 10.6571 100.232C6.27775 100.03 4.43205 100.014 4.07969 100.181Z" fill="#606060"/>
<path d="M17.6027 100.047C17.4181 100.114 16.8979 100.953 16.8979 101.171C16.8979 101.222 17.1496 101.272 17.4349 101.306C18.1731 101.373 18.5087 102.027 18.2403 102.866C18.1396 103.185 17.9047 103.537 17.7369 103.621C17.5355 103.722 16.6295 103.722 15.1194 103.604C12.9381 103.437 8.4413 103.487 6.05868 103.722L5.03516 103.822L5.20295 104.645C5.28684 105.098 5.43785 105.467 5.52175 105.467C5.60564 105.467 5.62242 105.567 5.53853 105.668C5.3204 106.004 5.48819 112.078 5.7231 112.229C5.85733 112.313 5.82377 112.413 5.62242 112.564C5.43785 112.715 5.33718 113.101 5.28684 113.806L5.2365 114.829L5.958 114.93C7.50168 115.132 13.2066 115.215 14.8677 115.064C16.8979 114.863 17.1664 114.947 17.3342 115.819C17.4852 116.658 17.2503 117.279 16.7302 117.346C16.1429 117.43 15.9919 117.632 16.21 118.034C16.6463 118.84 17.4852 118.823 17.9215 118.018C18.3409 117.246 18.3913 116.44 18.1564 114.527C17.8543 112.212 17.8376 109.88 18.0893 107.984C18.257 106.742 18.257 106.557 18.0054 106.39C17.653 106.121 17.6698 106.02 18.0389 105.937C18.2906 105.869 18.4248 105.517 18.6597 104.359C19.1296 101.994 19.1463 101.49 18.8275 100.752C18.6597 100.4 18.4752 100.097 18.3913 100.097C18.3242 100.097 18.1731 100.064 18.0389 100.03C17.9215 99.98 17.7201 99.9968 17.6027 100.047Z" fill="#606060"/>
<path d="M16.7305 102.111C16.7305 102.648 17.0996 103.302 17.3849 103.252C17.6701 103.202 17.8882 102.53 17.7708 102.061C17.6701 101.624 16.7305 101.658 16.7305 102.111Z" fill="#606060"/>
<path d="M3.76017 115.702C3.5756 115.97 3.54204 116.155 3.65949 116.306C3.76017 116.44 3.74339 116.524 3.55882 116.608C3.00511 116.809 3.47492 118.42 4.14608 118.605C4.33065 118.655 4.88436 118.638 5.37095 118.571C5.84077 118.521 8.40796 118.471 11.0591 118.487L15.8746 118.504L15.623 117.917C15.3545 117.246 15.3209 116.407 15.5391 115.803C15.7068 115.4 15.6901 115.4 15.086 115.501C14.2471 115.652 9.28047 115.635 6.39448 115.467C4.02863 115.316 4.02863 115.316 3.76017 115.702Z" fill="#606060"/>
<path d="M16.0938 115.786C15.7917 116.44 15.8253 117.111 16.1609 116.977C16.3119 116.927 16.53 116.876 16.6642 116.876C16.9663 116.876 16.983 115.853 16.6978 115.568C16.4126 115.282 16.3119 115.316 16.0938 115.786Z" fill="#606060"/>
<path d="M15.0216 51.5335C15.4711 51.782 15.8728 52.05 15.9091 52.1048C15.9578 52.2242 15.4595 55.1014 15.1847 56.2719L15.0663 56.8355L12.9738 56.2123C10.0222 55.3266 10.1258 55.4097 10.1297 53.4722C10.1118 52.5743 10.0302 51.8276 9.932 51.8259C9.81699 51.8171 9.30752 52.2755 8.80605 52.8559L7.85261 53.8992L6.97044 53.4094C6.49441 53.1299 5.83786 52.7152 5.51045 52.4587C4.94237 52.0218 4.94944 52.005 5.30495 51.4422C5.49684 51.1272 5.98499 50.3433 6.35905 49.6894C6.73311 49.0355 7.17708 48.4506 7.32746 48.3753C7.54949 48.2709 8.32721 48.5388 10.8851 49.6546C12.7105 50.4424 14.5553 51.278 15.0216 51.5335Z" fill="#606060"/>
<path d="M9.62149 54.0695C9.67129 55.0798 9.76252 55.4744 10.0634 55.6999C10.4244 55.9705 11.6533 56.3887 13.0468 56.698C13.6369 56.8473 13.6369 56.8473 13.3682 57.4861C12.9579 58.4612 13.1713 59.2237 14.4529 61.4449C15.8168 63.7996 16.1691 64.1852 17.7175 65.1137C18.7032 65.6868 18.9129 65.8937 19.1086 66.5103C19.3963 67.2844 19.2116 67.9585 18.7144 68.1055C17.9855 68.3331 16.2116 68.0814 14.3855 67.5307C12.3744 66.9022 11.3648 66.3389 9.34465 64.6974C8.87035 64.3198 7.32457 63.4319 5.66909 62.6167C4.0906 61.8536 2.66075 61.1135 2.47316 60.995C1.73696 60.4873 2.27618 58.7355 3.71602 57.0064C4.19361 56.4357 4.87366 55.3367 5.24946 54.5846C5.81624 53.3787 5.93741 53.2318 6.13032 53.4317C6.2604 53.5458 6.70548 53.8517 7.12135 54.0861C7.95308 54.5548 7.82659 54.6203 9.05597 53.2973L9.57426 52.7239L9.62149 54.0695Z" fill="#606060"/>
<path d="M2.05333 61.333C2.26039 61.4993 3.33188 62.0095 4.45115 62.5002C6.67994 63.4578 7.59839 64.0025 9.81057 65.705C11.9696 67.3455 14.3975 68.3473 16.7509 68.5855C17.671 68.6561 18.5645 68.6957 18.7175 68.6611C19.1431 68.5433 19.2538 68.9857 18.9177 69.5962C18.7002 70.0191 18.4711 70.1404 17.7722 70.2025C17.3104 70.2654 16.884 70.2443 16.8548 70.1727C16.8256 70.101 16.6769 70.078 16.5239 70.1126C15.3597 70.434 11.0694 68.8267 9.63586 67.531C8.37577 66.3874 6.77063 65.2174 6.45921 65.2051C6.32032 65.206 6.05851 65.452 5.89757 65.7405L5.61372 66.274L3.60347 65.4084C0.649141 64.106 0.665951 64.1131 0.498665 63.8053C0.331379 63.4974 1.23492 61.0678 1.52686 61.0324C1.62506 61.0341 1.85334 61.15 2.05333 61.333Z" fill="#606060"/>
<g opacity="0.3">
<path d="M6.7823 1.65015C6.62362 2.00718 6.30625 2.70142 6.08806 3.1973C5.85004 3.69318 5.71119 4.14939 5.75087 4.22873C5.86988 4.40725 7.97241 5.08165 8.09142 4.96263C8.36912 4.66511 9.34104 2.08652 9.2617 1.88817C9.18236 1.65015 8.58731 1.35262 8.17077 1.31295C8.11126 1.31295 7.97241 1.25344 7.89307 1.15427C7.55587 0.817069 7.04016 1.05509 6.7823 1.65015Z" fill="#ECECEC"/>
<path d="M9.35944 3.79237L8.64537 5.35935L9.31977 5.57754C10.0537 5.81556 10.2917 6.29161 10.0933 7.14452C9.91482 7.93793 9.20075 8.53299 8.18916 8.73134L7.31641 8.89002L8.05031 9.22722C8.46685 9.40574 8.92306 9.54459 9.10158 9.54459C9.2801 9.54459 9.93466 8.43381 10.8867 6.45029C11.7 4.74446 12.3744 3.27665 12.3744 3.17747C12.3744 2.87994 11.1248 2.20555 10.5892 2.20555C10.1528 2.20555 9.99416 2.42373 9.35944 3.79237Z" fill="#ECECEC"/>
<path d="M12.9113 4.08987C12.7328 4.22872 12.5741 4.3874 12.5741 4.44691C12.5741 4.50641 12.0385 5.67669 11.3641 7.04533C10.6302 8.57264 10.2137 9.66358 10.2732 9.9016C10.3724 10.1991 11.3641 10.7347 11.8402 10.7347C12.0187 10.7347 12.7129 9.60407 14.0221 7.1445C15.2518 4.80394 15.2717 4.84361 13.8634 4.12954C13.3675 3.89152 13.189 3.87169 12.9113 4.08987Z" fill="#ECECEC"/>
<path d="M4.441 5.04197C4.08396 5.3395 4.00462 5.47835 2.67566 8.0966C2.12027 9.18754 1.66406 10.219 1.66406 10.3578C1.66406 10.5165 2.6955 12.0041 3.94512 13.6703C6.50386 17.082 6.30551 16.4076 5.78979 19.7399C5.63111 20.8507 5.63111 21.1482 5.86913 21.3862C6.5832 22.0804 11.8792 22.2391 12.9106 21.5846C13.0495 21.4854 13.1685 21.5052 13.1685 21.6242C13.1685 21.7631 13.3669 21.7432 13.7636 21.6242L14.3586 21.406V19.4027V17.3795L15.2512 15.9117C15.7868 14.9993 16.1636 14.1067 16.243 13.5315C16.3223 13.0356 16.4612 12.1628 16.5802 11.6273C16.6793 11.0719 16.7388 10.4372 16.719 10.1793C16.6595 9.80243 16.5008 9.94128 15.7471 11.0719C15.1322 11.9843 14.6958 12.4405 14.3785 12.4802C13.8032 12.5595 12.9106 12.2025 12.4544 11.7066C12.2759 11.5083 11.9189 11.3297 11.7007 11.3297C11.4627 11.3099 10.9271 11.1512 10.4907 10.933C9.22129 10.3181 8.36837 10.457 9.06261 11.1711C9.71717 11.8455 10.5899 13.2736 10.7089 13.8885C10.7883 14.2852 10.7684 14.5232 10.6693 14.4439C10.5701 14.3844 9.85602 13.4521 9.10228 12.3413C7.75348 10.4173 7.67414 10.338 6.48403 9.90161L5.25424 9.4454L5.65095 8.57265C5.92864 7.93792 6.10716 7.73957 6.34518 7.83874C7.1981 8.15611 8.17002 8.17594 8.74524 7.87841C9.3403 7.58088 9.77668 6.64863 9.45931 6.37093C9.24113 6.17258 5.8493 4.96263 5.23441 4.86346C4.95671 4.82379 4.59968 4.88329 4.441 5.04197Z" fill="#ECECEC"/>
<path d="M15.2512 6.52962C15.152 6.60896 14.9537 6.84699 14.8347 7.06518C14.7156 7.28336 14.1999 8.23545 13.6842 9.18755L12.752 10.933L13.2875 11.4289C13.585 11.7066 13.9817 11.905 14.1404 11.8851C14.4776 11.8256 17.1157 8.0371 17.1355 7.62056C17.1355 7.48172 16.7983 7.14452 16.4016 6.86682C15.5884 6.33127 15.5487 6.31144 15.2512 6.52962Z" fill="#ECECEC"/>
</g>
<path d="M180.159 5.49323C180.077 5.41138 180.056 5.37046 180.016 5.37046C179.893 5.37046 179.75 5.37046 179.606 5.39092C179.484 5.39092 179.34 5.43184 179.218 5.47276C178.952 5.55461 178.686 5.7183 178.42 6.10705C177.847 6.92549 177.356 8.6442 177.356 12.3067C177.356 18.0767 177.99 18.3631 178.849 18.3631C180.466 18.3631 180.752 14.4346 180.916 12.143C181.202 8.19406 180.65 6.12751 180.159 5.49323ZM178.911 20.7161C176.721 20.7161 175.637 19.3248 175.125 17.6061C174.859 16.7467 174.737 15.8055 174.675 14.8848C174.614 13.964 174.614 13.0433 174.614 12.2453C174.614 6.33212 176.189 3.01746 179.872 3.01746C180.813 3.01746 181.632 3.4676 182.266 4.28603C183.473 5.84106 183.924 8.68513 183.658 12.3885C183.289 17.6061 181.816 20.7161 178.911 20.7161ZM190.489 5.49323C190.407 5.41138 190.387 5.37046 190.346 5.37046C190.223 5.37046 190.08 5.37046 189.937 5.39092C189.814 5.39092 189.671 5.43184 189.548 5.47276C189.282 5.55461 189.016 5.7183 188.75 6.10705C188.177 6.92549 187.686 8.6442 187.686 12.3067C187.686 18.0767 188.32 18.3631 189.18 18.3631C190.796 18.3631 191.082 14.4346 191.246 12.143C191.533 8.19406 190.98 6.12751 190.489 5.49323ZM189.241 20.7161C187.052 20.7161 185.967 19.3248 185.456 17.6061C185.19 16.7467 185.067 15.8055 185.006 14.8848C184.944 13.964 184.944 13.0433 184.944 12.2453C184.944 6.33212 186.52 3.01746 190.203 3.01746C191.144 3.01746 191.962 3.4676 192.597 4.28603C193.804 5.84106 194.254 8.68513 193.988 12.3885C193.62 17.6061 192.146 20.7161 189.241 20.7161Z" fill="white"/>
<path d="M47.9315 13.2258C47.9315 13.9624 48.0952 14.6126 48.4225 15.1764C48.759 15.7402 49.1955 16.1813 49.732 16.4995C50.2686 16.8178 50.8506 16.977 51.478 16.977C51.9327 16.977 52.3465 16.9178 52.7193 16.7996C53.1013 16.6814 53.4468 16.5177 53.756 16.3086C54.0652 16.0903 54.3289 15.8402 54.5472 15.5583V17.0861C54.147 17.4407 53.7105 17.7045 53.2377 17.8772C52.7648 18.05 52.1783 18.1364 51.478 18.1364C50.8142 18.1364 50.1913 18.0182 49.6093 17.7818C49.0364 17.5362 48.5317 17.1952 48.0952 16.7587C47.6587 16.3131 47.3177 15.7902 47.0721 15.19C46.8266 14.5899 46.7038 13.9351 46.7038 13.2258C46.7038 12.5165 46.8266 11.8617 47.0721 11.2615C47.3177 10.6614 47.6587 10.143 48.0952 9.70652C48.5317 9.26092 49.0364 8.91991 49.6093 8.68347C50.1913 8.43794 50.8142 8.31518 51.478 8.31518C52.1783 8.31518 52.7648 8.40157 53.2377 8.57435C53.7105 8.74713 54.147 9.01085 54.5472 9.3655V10.8932C54.3289 10.6113 54.0652 10.3658 53.756 10.1567C53.4468 9.93841 53.1013 9.77017 52.7193 9.65195C52.3465 9.53374 51.9327 9.47463 51.478 9.47463C50.8506 9.47463 50.2686 9.63377 49.732 9.95205C49.1955 10.2703 48.759 10.7114 48.4225 11.2752C48.0952 11.8299 47.9315 12.4801 47.9315 13.2258ZM61.7708 12.8166L56.5874 18.4774L56.6556 16.9088L61.839 11.2479L61.7708 12.8166ZM57.6786 11.7253V16.977L56.5874 18.4774V11.7253H57.6786ZM61.839 11.2479V18H60.7478V12.7484L61.839 11.2479ZM69.4494 11.7253V18H68.3582V12.7484H65.1526V15.8175C65.1526 16.3086 65.0753 16.7178 64.9207 17.0452C64.7752 17.3634 64.5479 17.6044 64.2387 17.7681C63.9295 17.9227 63.5385 18 63.0656 18V17.0042C63.3384 17.0042 63.5703 16.9178 63.7613 16.7451C63.9613 16.5723 64.0614 16.2631 64.0614 15.8175V11.7253H69.4494ZM72.0495 16.1585C72.0495 16.3768 72.1087 16.5632 72.2269 16.7178C72.3451 16.8633 72.5042 16.977 72.7043 17.0588C72.9044 17.1315 73.1272 17.1679 73.3727 17.1679C73.7364 17.1679 74.0593 17.1134 74.3412 17.0042C74.6231 16.8951 74.8413 16.7223 74.9959 16.4859C75.1596 16.2495 75.2414 15.9357 75.2414 15.5447L75.4597 16.2267C75.4597 16.6268 75.3506 16.9724 75.1323 17.2634C74.9232 17.5453 74.6413 17.7636 74.2866 17.9182C73.9319 18.0637 73.5364 18.1364 73.0999 18.1364C72.7088 18.1364 72.3496 18.0637 72.0223 17.9182C71.6949 17.7727 71.4312 17.559 71.2311 17.277C71.0401 16.986 70.9447 16.6268 70.9447 16.1994C70.9447 15.7538 71.0538 15.3765 71.272 15.0673C71.4903 14.7581 71.7995 14.5216 72.1996 14.358C72.5997 14.1852 73.0726 14.0988 73.6182 14.0988C74.0183 14.0988 74.3594 14.1534 74.6413 14.2625C74.9323 14.3625 75.1641 14.4807 75.3369 14.6171C75.5097 14.7444 75.6279 14.849 75.6916 14.9309V15.572C75.3824 15.3537 75.0687 15.1946 74.7504 15.0946C74.4321 14.9854 74.0729 14.9309 73.6728 14.9309C73.309 14.9309 73.0044 14.9809 72.7589 15.0809C72.5224 15.1809 72.3451 15.3219 72.2269 15.5038C72.1087 15.6856 72.0495 15.9039 72.0495 16.1585ZM72.0495 13.1985L71.5176 12.3664C71.754 12.1937 72.0723 12.0209 72.4724 11.8481C72.8725 11.6753 73.3545 11.5889 73.9183 11.5889C74.4003 11.5889 74.8186 11.6662 75.1732 11.8208C75.537 11.9663 75.8189 12.18 76.019 12.4619C76.2281 12.7438 76.3327 13.0894 76.3327 13.4986V18H75.2414V13.4986C75.2414 13.1803 75.105 12.9439 74.8322 12.7893C74.5685 12.6256 74.2639 12.5438 73.9183 12.5438C73.6182 12.5438 73.3454 12.5847 73.0999 12.6665C72.8543 12.7393 72.6406 12.8302 72.4588 12.9393C72.286 13.0394 72.1496 13.1258 72.0495 13.1985Z" fill="white"/>
<path d="M180.159 55.4932C180.077 55.4114 180.056 55.3705 180.016 55.3705C179.893 55.3705 179.75 55.3705 179.606 55.3909C179.484 55.3909 179.34 55.4318 179.218 55.4728C178.952 55.5546 178.686 55.7183 178.42 56.1071C177.847 56.9255 177.356 58.6442 177.356 62.3067C177.356 68.0767 177.99 68.3631 178.849 68.3631C180.466 68.3631 180.752 64.4346 180.916 62.143C181.202 58.1941 180.65 56.1275 180.159 55.4932ZM178.911 70.7161C176.721 70.7161 175.637 69.3248 175.125 67.6061C174.859 66.7467 174.737 65.8055 174.675 64.8848C174.614 63.964 174.614 63.0433 174.614 62.2453C174.614 56.3321 176.189 53.0175 179.872 53.0175C180.813 53.0175 181.632 53.4676 182.266 54.286C183.473 55.8411 183.924 58.6851 183.658 62.3885C183.289 67.6061 181.816 70.7161 178.911 70.7161ZM190.489 55.4932C190.407 55.4114 190.387 55.3705 190.346 55.3705C190.223 55.3705 190.08 55.3705 189.937 55.3909C189.814 55.3909 189.671 55.4318 189.548 55.4728C189.282 55.5546 189.016 55.7183 188.75 56.1071C188.177 56.9255 187.686 58.6442 187.686 62.3067C187.686 68.0767 188.32 68.3631 189.18 68.3631C190.796 68.3631 191.082 64.4346 191.246 62.143C191.533 58.1941 190.98 56.1275 190.489 55.4932ZM189.241 70.7161C187.052 70.7161 185.967 69.3248 185.456 67.6061C185.19 66.7467 185.067 65.8055 185.006 64.8848C184.944 63.964 184.944 63.0433 184.944 62.2453C184.944 56.3321 186.52 53.0175 190.203 53.0175C191.144 53.0175 191.962 53.4676 192.597 54.286C193.804 55.8411 194.254 58.6851 193.988 62.3885C193.62 67.6061 192.146 70.7161 189.241 70.7161Z" fill="white"/>
<path d="M54.2518 58.4516V68H53.0923V59.5428H48.8637V64.7263C48.8637 65.3083 48.7728 65.8493 48.5909 66.3495C48.4181 66.8496 48.1544 67.2498 47.7998 67.5499C47.4542 67.85 47.0222 68 46.5039 68V67.0042C46.7131 67.0042 46.8949 66.9406 47.0495 66.8133C47.2041 66.686 47.336 66.5086 47.4451 66.2813C47.5542 66.0448 47.6361 65.772 47.6906 65.4628C47.7452 65.1537 47.7725 64.8172 47.7725 64.4534V58.4516H54.2518ZM55.8232 64.8627C55.8232 64.2261 55.9642 63.6623 56.2461 63.1712C56.5371 62.6802 56.9281 62.2937 57.4192 62.0118C57.9102 61.7299 58.4604 61.5889 59.0697 61.5889C59.688 61.5889 60.2382 61.7299 60.7202 62.0118C61.2112 62.2937 61.5977 62.6802 61.8796 63.1712C62.1706 63.6623 62.3161 64.2261 62.3161 64.8627C62.3161 65.4901 62.1706 66.0539 61.8796 66.5541C61.5977 67.0452 61.2112 67.4316 60.7202 67.7135C60.2382 67.9955 59.688 68.1364 59.0697 68.1364C58.4604 68.1364 57.9102 67.9955 57.4192 67.7135C56.9281 67.4316 56.5371 67.0452 56.2461 66.5541C55.9642 66.0539 55.8232 65.4901 55.8232 64.8627ZM56.9281 64.8627C56.9281 65.2992 57.019 65.6856 57.2009 66.0221C57.3919 66.3586 57.6465 66.6268 57.9648 66.8269C58.2922 67.0179 58.6604 67.1134 59.0697 67.1134C59.4789 67.1134 59.8426 67.0179 60.1609 66.8269C60.4883 66.6268 60.7429 66.3586 60.9248 66.0221C61.1158 65.6856 61.2112 65.2992 61.2112 64.8627C61.2112 64.4262 61.1158 64.0397 60.9248 63.7032C60.7429 63.3577 60.4883 63.0894 60.1609 62.8984C59.8426 62.7074 59.4789 62.612 59.0697 62.612C58.6604 62.612 58.2922 62.7074 57.9648 62.8984C57.6465 63.0894 57.3919 63.3577 57.2009 63.7032C57.019 64.0397 56.9281 64.4262 56.9281 64.8627ZM64.4563 64.7263H66.2705C66.707 64.7263 67.098 64.7717 67.4436 64.8627C67.7892 64.9536 68.062 65.1127 68.262 65.3401C68.4621 65.5674 68.5621 65.8857 68.5621 66.2949C68.5621 66.7678 68.403 67.1725 68.0847 67.5089C67.7755 67.8363 67.2617 68 66.5433 68H64.4563V67.0452H66.2705C66.6797 67.0452 66.9798 66.9588 67.1708 66.786C67.3709 66.6132 67.4709 66.4041 67.4709 66.1585C67.4709 66.0312 67.4436 65.9175 67.389 65.8175C67.3436 65.7175 67.2708 65.6265 67.1708 65.5447C67.0799 65.4628 66.9571 65.4037 66.8025 65.3674C66.657 65.3219 66.4797 65.2992 66.2705 65.2992H64.4563V64.7263ZM64.4563 64.9991V64.358H66.1341C66.2978 64.358 66.4433 64.3398 66.5706 64.3034C66.707 64.2579 66.8207 64.1943 66.9116 64.1124C67.0026 64.0306 67.0708 63.9396 67.1162 63.8396C67.1708 63.7305 67.1981 63.6168 67.1981 63.4986C67.1981 63.2531 67.1026 63.0576 66.9116 62.9121C66.7207 62.7575 66.4615 62.6802 66.1341 62.6802H64.4563V61.7253H66.1341C66.5251 61.7253 66.8798 61.7844 67.1981 61.9027C67.5255 62.0118 67.7892 62.1937 67.9892 62.4483C68.1893 62.6938 68.2893 63.0212 68.2893 63.4304C68.2893 63.7851 68.1893 64.0806 67.9892 64.317C67.7892 64.5444 67.5255 64.7172 67.1981 64.8354C66.8798 64.9445 66.5251 64.9991 66.1341 64.9991H64.4563ZM63.8152 61.7253H64.9065V68H63.8152V61.7253ZM69.9279 61.7253H71.0191V68H69.9279V61.7253ZM73.338 61.7253H74.7021L71.974 64.317L74.9749 68H73.6109L70.6099 64.317L73.338 61.7253ZM75.2584 64.8627C75.2584 64.2261 75.3993 63.6623 75.6812 63.1712C75.9722 62.6802 76.3633 62.2937 76.8543 62.0118C77.3454 61.7299 77.8956 61.5889 78.5049 61.5889C79.1232 61.5889 79.6734 61.7299 80.1554 62.0118C80.6464 62.2937 81.0329 62.6802 81.3148 63.1712C81.6058 63.6623 81.7513 64.2261 81.7513 64.8627C81.7513 65.4901 81.6058 66.0539 81.3148 66.5541C81.0329 67.0452 80.6464 67.4316 80.1554 67.7135C79.6734 67.9955 79.1232 68.1364 78.5049 68.1364C77.8956 68.1364 77.3454 67.9955 76.8543 67.7135C76.3633 67.4316 75.9722 67.0452 75.6812 66.5541C75.3993 66.0539 75.2584 65.4901 75.2584 64.8627ZM76.3633 64.8627C76.3633 65.2992 76.4542 65.6856 76.6361 66.0221C76.8271 66.3586 77.0817 66.6268 77.4 66.8269C77.7273 67.0179 78.0956 67.1134 78.5049 67.1134C78.9141 67.1134 79.2778 67.0179 79.5961 66.8269C79.9235 66.6268 80.1781 66.3586 80.36 66.0221C80.5509 65.6856 80.6464 65.2992 80.6464 64.8627C80.6464 64.4262 80.5509 64.0397 80.36 63.7032C80.1781 63.3577 79.9235 63.0894 79.5961 62.8984C79.2778 62.7074 78.9141 62.612 78.5049 62.612C78.0956 62.612 77.7273 62.7074 77.4 62.8984C77.0817 63.0894 76.8271 63.3577 76.6361 63.7032C76.4542 64.0397 76.3633 64.4262 76.3633 64.8627ZM83.7415 64.8627C83.7415 65.2992 83.8324 65.6856 84.0143 66.0221C84.2052 66.3586 84.4599 66.6268 84.7781 66.8269C85.1055 67.0179 85.4738 67.1134 85.883 67.1134C86.2195 67.1134 86.5332 67.0633 86.8242 66.9633C87.1243 66.8542 87.3835 66.7132 87.6017 66.5405C87.82 66.3586 87.9746 66.1676 88.0655 65.9676V67.3316C87.8473 67.5862 87.5335 67.7863 87.1243 67.9318C86.7242 68.0682 86.3104 68.1364 85.883 68.1364C85.2737 68.1364 84.7236 67.9955 84.2325 67.7135C83.7415 67.4316 83.3504 67.0452 83.0594 66.5541C82.7775 66.0539 82.6366 65.4901 82.6366 64.8627C82.6366 64.2261 82.7775 63.6623 83.0594 63.1712C83.3504 62.6802 83.7415 62.2937 84.2325 62.0118C84.7236 61.7299 85.2737 61.5889 85.883 61.5889C86.3104 61.5889 86.7242 61.6617 87.1243 61.8072C87.5335 61.9436 87.8473 62.1391 88.0655 62.3937V63.7578C87.9746 63.5486 87.82 63.3577 87.6017 63.1849C87.3835 63.0121 87.1243 62.8757 86.8242 62.7757C86.5332 62.6665 86.2195 62.612 85.883 62.612C85.4738 62.612 85.1055 62.7074 84.7781 62.8984C84.4599 63.0894 84.2052 63.3577 84.0143 63.7032C83.8324 64.0397 83.7415 64.4262 83.7415 64.8627ZM88.8095 61.7253H92.4924V62.7484H88.8095V61.7253ZM90.1053 61.9981H91.1966V68H90.1053V61.9981ZM93.5874 61.7253H94.6787V68H93.5874V61.7253ZM94.2285 65.0536V64.0988H96.1791C96.8248 64.0988 97.3659 64.2579 97.8024 64.5762C98.2479 64.8854 98.4707 65.3765 98.4707 66.0494C98.4707 66.495 98.3707 66.8633 98.1706 67.1543C97.9706 67.4453 97.6978 67.659 97.3522 67.7954C97.0066 67.9318 96.6156 68 96.1791 68H94.2285V67.0452H96.1791C96.4428 67.0452 96.6611 67.0088 96.8339 66.936C97.0157 66.8542 97.1521 66.7405 97.2431 66.595C97.334 66.4404 97.3795 66.2586 97.3795 66.0494C97.3795 65.7311 97.2795 65.4856 97.0794 65.3128C96.8793 65.14 96.5792 65.0536 96.1791 65.0536H94.2285Z" fill="white"/>
<path d="M35.1582 8L36.6864 10.8966L39.9135 11.4549L37.6309 13.8034L38.0971 17.0451L35.1582 15.6L32.2193 17.0451L32.6855 13.8034L30.4029 11.4549L33.63 10.8966L35.1582 8Z" fill="#D9D9D9"/>
<path d="M35.1582 8L36.6864 10.8966L39.9135 11.4549L37.6309 13.8034L38.0971 17.0451L35.1582 15.6L32.2193 17.0451L32.6855 13.8034L30.4029 11.4549L33.63 10.8966L35.1582 8Z" fill="white"/>
<path d="M180.159 105.493C180.077 105.411 180.056 105.37 180.016 105.37C179.893 105.37 179.75 105.37 179.606 105.391C179.484 105.391 179.34 105.432 179.218 105.473C178.952 105.555 178.686 105.718 178.42 106.107C177.847 106.925 177.356 108.644 177.356 112.307C177.356 118.077 177.99 118.363 178.849 118.363C180.466 118.363 180.752 114.435 180.916 112.143C181.202 108.194 180.65 106.128 180.159 105.493ZM178.911 120.716C176.721 120.716 175.637 119.325 175.125 117.606C174.859 116.747 174.737 115.806 174.675 114.885C174.614 113.964 174.614 113.043 174.614 112.245C174.614 106.332 176.189 103.017 179.872 103.017C180.813 103.017 181.632 103.468 182.266 104.286C183.473 105.841 183.924 108.685 183.658 112.389C183.289 117.606 181.816 120.716 178.911 120.716ZM190.489 105.493C190.407 105.411 190.387 105.37 190.346 105.37C190.223 105.37 190.08 105.37 189.937 105.391C189.814 105.391 189.671 105.432 189.548 105.473C189.282 105.555 189.016 105.718 188.75 106.107C188.177 106.925 187.686 108.644 187.686 112.307C187.686 118.077 188.32 118.363 189.18 118.363C190.796 118.363 191.082 114.435 191.246 112.143C191.533 108.194 190.98 106.128 190.489 105.493ZM189.241 120.716C187.052 120.716 185.967 119.325 185.456 117.606C185.19 116.747 185.067 115.806 185.006 114.885C184.944 113.964 184.944 113.043 184.944 112.245C184.944 106.332 186.52 103.017 190.203 103.017C191.144 103.017 191.962 103.468 192.597 104.286C193.804 105.841 194.254 108.685 193.988 112.389C193.62 117.606 192.146 120.716 189.241 120.716Z" fill="white"/>
<path d="M55.5738 109.747L47.2531 118.477L47.3213 116.704L55.642 107.974L55.5738 109.747ZM48.4125 108.452V116.977L47.2531 118.477V108.452H48.4125ZM55.642 107.974V118H54.4826V109.475L55.642 107.974ZM58.4028 115.204V114.181H63.0406V115.204H58.4028ZM62.3313 111.725H63.4225V118H62.3313V111.725ZM57.7617 111.725H58.8529V118H57.7617V111.725ZM64.5196 111.725H68.2026V112.748H64.5196V111.725ZM65.8155 111.998H66.9067V118H65.8155V111.998ZM69.2478 115.135V114.208H73.4355C73.3991 113.881 73.3081 113.594 73.1626 113.349C73.0262 113.094 72.8307 112.898 72.5761 112.762C72.3306 112.617 72.0259 112.544 71.6622 112.544C71.2984 112.544 70.9665 112.621 70.6664 112.776C70.3663 112.93 70.1253 113.153 69.9435 113.444C69.7707 113.726 69.6843 114.062 69.6843 114.453L69.657 114.863C69.657 115.345 69.7389 115.754 69.9025 116.09C70.0662 116.427 70.2981 116.681 70.5982 116.854C70.8983 117.027 71.253 117.113 71.6622 117.113C71.9714 117.113 72.2442 117.068 72.4806 116.977C72.7261 116.877 72.9444 116.745 73.1354 116.581C73.3263 116.409 73.49 116.209 73.6264 115.981L74.5131 116.54C74.3039 116.859 74.072 117.141 73.8174 117.386C73.5628 117.623 73.2536 117.809 72.8898 117.945C72.5261 118.073 72.0714 118.136 71.5258 118.136C70.962 118.136 70.4527 117.995 69.998 117.714C69.5524 117.432 69.1978 117.045 68.9341 116.554C68.6794 116.054 68.5521 115.49 68.5521 114.863C68.5521 114.744 68.5567 114.631 68.5658 114.522C68.5749 114.413 68.5885 114.303 68.6067 114.194C68.6976 113.676 68.8795 113.221 69.1523 112.83C69.4251 112.439 69.7752 112.135 70.2026 111.916C70.6391 111.698 71.1256 111.589 71.6622 111.589C72.2533 111.589 72.7716 111.721 73.2172 111.984C73.6628 112.248 74.0084 112.621 74.2539 113.103C74.4994 113.576 74.6222 114.144 74.6222 114.808C74.6222 114.863 74.6222 114.917 74.6222 114.972C74.6222 115.026 74.6176 115.081 74.6085 115.135H69.2478ZM81.615 111.725V118H80.5238V112.748H77.3182V115.818C77.3182 116.309 77.2409 116.718 77.0863 117.045C76.9408 117.363 76.7135 117.604 76.4043 117.768C76.0951 117.923 75.7041 118 75.2312 118V117.004C75.504 117.004 75.7359 116.918 75.9269 116.745C76.127 116.572 76.227 116.263 76.227 115.818V111.725H81.615ZM89.2212 111.725V118H88.13V112.748H84.9245V115.818C84.9245 116.309 84.8472 116.718 84.6926 117.045C84.5471 117.363 84.3197 117.604 84.0105 117.768C83.7014 117.923 83.3103 118 82.8374 118V117.004C83.1103 117.004 83.3422 116.918 83.5331 116.745C83.7332 116.572 83.8332 116.263 83.8332 115.818V111.725H89.2212ZM91.4804 115.135V114.208H95.668C95.6317 113.881 95.5407 113.594 95.3952 113.349C95.2588 113.094 95.0633 112.898 94.8087 112.762C94.5631 112.617 94.2585 112.544 93.8948 112.544C93.531 112.544 93.1991 112.621 92.899 112.776C92.5989 112.93 92.3579 113.153 92.176 113.444C92.0033 113.726 91.9169 114.062 91.9169 114.453L91.8896 114.863C91.8896 115.345 91.9714 115.754 92.1351 116.09C92.2988 116.427 92.5307 116.681 92.8308 116.854C93.1309 117.027 93.4855 117.113 93.8948 117.113C94.2039 117.113 94.4767 117.068 94.7132 116.977C94.9587 116.877 95.177 116.745 95.3679 116.581C95.5589 116.409 95.7226 116.209 95.859 115.981L96.7456 116.54C96.5365 116.859 96.3046 117.141 96.05 117.386C95.7953 117.623 95.4862 117.809 95.1224 117.945C94.7587 118.073 94.304 118.136 93.7583 118.136C93.1945 118.136 92.6853 117.995 92.2306 117.714C91.785 117.432 91.4303 117.045 91.1666 116.554C90.912 116.054 90.7847 115.49 90.7847 114.863C90.7847 114.744 90.7892 114.631 90.7983 114.522C90.8074 114.413 90.8211 114.303 90.8393 114.194C90.9302 113.676 91.1121 113.221 91.3849 112.83C91.6577 112.439 92.0078 112.135 92.4352 111.916C92.8717 111.698 93.3582 111.589 93.8948 111.589C94.4858 111.589 95.0042 111.721 95.4498 111.984C95.8954 112.248 96.2409 112.621 96.4865 113.103C96.732 113.576 96.8548 114.144 96.8548 114.808C96.8548 114.863 96.8548 114.917 96.8548 114.972C96.8548 115.026 96.8502 115.081 96.8411 115.135H91.4804ZM98.2822 111.725H99.3735V118H98.2822V111.725ZM101.692 111.725H103.056L100.328 114.317L103.329 118H101.965L98.9643 114.317L101.692 111.725ZM103.403 111.725H107.086V112.748H103.403V111.725ZM104.699 111.998H105.79V118H104.699V111.998Z" fill="white"/>
<path d="M180.159 155.493C180.077 155.412 180.056 155.371 180.016 155.371C179.893 155.371 179.75 155.371 179.606 155.391C179.484 155.391 179.34 155.432 179.218 155.473C178.952 155.555 178.686 155.718 178.42 156.107C177.847 156.926 177.356 158.644 177.356 162.307C177.356 168.077 177.99 168.363 178.849 168.363C180.466 168.363 180.752 164.435 180.916 162.143C181.202 158.194 180.65 156.128 180.159 155.493ZM178.911 170.716C176.721 170.716 175.637 169.325 175.125 167.606C174.859 166.747 174.737 165.806 174.675 164.885C174.614 163.964 174.614 163.043 174.614 162.245C174.614 156.332 176.189 153.018 179.872 153.018C180.813 153.018 181.632 153.468 182.266 154.286C183.473 155.841 183.924 158.685 183.658 162.389C183.289 167.606 181.816 170.716 178.911 170.716ZM190.489 155.493C190.407 155.412 190.387 155.371 190.346 155.371C190.223 155.371 190.08 155.371 189.937 155.391C189.814 155.391 189.671 155.432 189.548 155.473C189.282 155.555 189.016 155.718 188.75 156.107C188.177 156.926 187.686 158.644 187.686 162.307C187.686 168.077 188.32 168.363 189.18 168.363C190.796 168.363 191.082 164.435 191.246 162.143C191.533 158.194 190.98 156.128 190.489 155.493ZM189.241 170.716C187.052 170.716 185.967 169.325 185.456 167.606C185.19 166.747 185.067 165.806 185.006 164.885C184.944 163.964 184.944 163.043 184.944 162.245C184.944 156.332 186.52 153.018 190.203 153.018C191.144 153.018 191.962 153.468 192.597 154.286C193.804 155.841 194.254 158.685 193.988 162.389C193.62 167.606 192.146 170.716 189.241 170.716Z" fill="white"/>
<path d="M48.9188 161.548L48.2095 168H47.0501L48.2095 157.974L52.0289 164.89L55.8482 157.974L57.0077 168H55.8482L55.1389 161.548L52.0289 167.113L48.9188 161.548ZM62.87 161.725L58.7778 171.001H57.5501L59.2688 167.113L56.8681 161.725H58.164L60.1555 166.636L59.7053 166.582L61.6423 161.725H62.87ZM66.4964 163.608L64.655 167.591H63.4273L66.4964 161.248L69.5656 167.591H68.3379L66.4964 163.608ZM69.2928 168H63.7683V169.228H62.6089V166.977H70.384V169.228H69.2928V168ZM73.0477 171.001H71.9564V161.725H73.0477V171.001ZM78.2993 164.863C78.2993 165.536 78.1583 166.118 77.8764 166.609C77.5945 167.1 77.2171 167.477 76.7443 167.741C76.2805 168.005 75.7621 168.137 75.1892 168.137C74.6709 168.137 74.2117 168.005 73.8115 167.741C73.4205 167.477 73.1113 167.1 72.884 166.609C72.6657 166.118 72.5566 165.536 72.5566 164.863C72.5566 164.181 72.6657 163.599 72.884 163.117C73.1113 162.626 73.4205 162.248 73.8115 161.985C74.2117 161.721 74.6709 161.589 75.1892 161.589C75.7621 161.589 76.2805 161.721 76.7443 161.985C77.2171 162.248 77.5945 162.626 77.8764 163.117C78.1583 163.599 78.2993 164.181 78.2993 164.863ZM77.1944 164.863C77.1944 164.381 77.0944 163.972 76.8943 163.635C76.7033 163.299 76.4442 163.044 76.1168 162.871C75.7985 162.698 75.4439 162.612 75.0528 162.612C74.7345 162.612 74.4208 162.698 74.1116 162.871C73.8024 163.044 73.5478 163.299 73.3477 163.635C73.1477 163.972 73.0477 164.381 73.0477 164.863C73.0477 165.345 73.1477 165.754 73.3477 166.09C73.5478 166.427 73.8024 166.682 74.1116 166.854C74.4208 167.027 74.7345 167.113 75.0528 167.113C75.4439 167.113 75.7985 167.027 76.1168 166.854C76.4442 166.682 76.7033 166.427 76.8943 166.09C77.0944 165.754 77.1944 165.345 77.1944 164.863ZM79.2584 164.863C79.2584 164.226 79.3993 163.662 79.6812 163.171C79.9722 162.68 80.3633 162.294 80.8543 162.012C81.3454 161.73 81.8956 161.589 82.5049 161.589C83.1232 161.589 83.6734 161.73 84.1554 162.012C84.6464 162.294 85.0329 162.68 85.3148 163.171C85.6058 163.662 85.7513 164.226 85.7513 164.863C85.7513 165.49 85.6058 166.054 85.3148 166.554C85.0329 167.045 84.6464 167.432 84.1554 167.714C83.6734 167.996 83.1232 168.137 82.5049 168.137C81.8956 168.137 81.3454 167.996 80.8543 167.714C80.3633 167.432 79.9722 167.045 79.6812 166.554C79.3993 166.054 79.2584 165.49 79.2584 164.863ZM80.3633 164.863C80.3633 165.299 80.4542 165.686 80.6361 166.022C80.8271 166.359 81.0817 166.627 81.4 166.827C81.7273 167.018 82.0956 167.113 82.5049 167.113C82.9141 167.113 83.2778 167.018 83.5961 166.827C83.9235 166.627 84.1781 166.359 84.36 166.022C84.5509 165.686 84.6464 165.299 84.6464 164.863C84.6464 164.426 84.5509 164.04 84.36 163.703C84.1781 163.358 83.9235 163.09 83.5961 162.899C83.2778 162.708 82.9141 162.612 82.5049 162.612C82.0956 162.612 81.7273 162.708 81.4 162.899C81.0817 163.09 80.8271 163.358 80.6361 163.703C80.4542 164.04 80.3633 164.426 80.3633 164.863ZM87.7415 164.863C87.7415 165.299 87.8324 165.686 88.0143 166.022C88.2052 166.359 88.4599 166.627 88.7781 166.827C89.1055 167.018 89.4738 167.113 89.883 167.113C90.2195 167.113 90.5332 167.063 90.8242 166.963C91.1243 166.854 91.3835 166.713 91.6017 166.541C91.82 166.359 91.9746 166.168 92.0655 165.968V167.332C91.8473 167.586 91.5335 167.786 91.1243 167.932C90.7242 168.068 90.3104 168.137 89.883 168.137C89.2737 168.137 88.7236 167.996 88.2325 167.714C87.7415 167.432 87.3504 167.045 87.0594 166.554C86.7775 166.054 86.6366 165.49 86.6366 164.863C86.6366 164.226 86.7775 163.662 87.0594 163.171C87.3504 162.68 87.7415 162.294 88.2325 162.012C88.7236 161.73 89.2737 161.589 89.883 161.589C90.3104 161.589 90.7242 161.662 91.1243 161.807C91.5335 161.944 91.8473 162.139 92.0655 162.394V163.758C91.9746 163.549 91.82 163.358 91.6017 163.185C91.3835 163.012 91.1243 162.876 90.8242 162.776C90.5332 162.667 90.2195 162.612 89.883 162.612C89.4738 162.612 89.1055 162.708 88.7781 162.899C88.4599 163.09 88.2052 163.358 88.0143 163.703C87.8324 164.04 87.7415 164.426 87.7415 164.863ZM92.8095 161.725H96.4924V162.748H92.8095V161.725ZM94.1053 161.998H95.1966V168H94.1053V161.998ZM97.5874 161.725H98.6787V168H97.5874V161.725ZM98.2285 165.054V164.099H100.179C100.825 164.099 101.366 164.258 101.802 164.576C102.248 164.886 102.471 165.377 102.471 166.05C102.471 166.495 102.371 166.863 102.171 167.154C101.971 167.445 101.698 167.659 101.352 167.796C101.007 167.932 100.616 168 100.179 168H98.2285V167.045H100.179C100.443 167.045 100.661 167.009 100.834 166.936C101.016 166.854 101.152 166.741 101.243 166.595C101.334 166.441 101.379 166.259 101.379 166.05C101.379 165.731 101.279 165.486 101.079 165.313C100.879 165.14 100.579 165.054 100.179 165.054H98.2285Z" fill="white"/>
<path d="M180.159 205.493C180.077 205.411 180.056 205.37 180.016 205.37C179.893 205.37 179.75 205.37 179.606 205.391C179.484 205.391 179.34 205.432 179.218 205.473C178.952 205.555 178.686 205.718 178.42 206.107C177.847 206.925 177.356 208.644 177.356 212.307C177.356 218.077 177.99 218.363 178.849 218.363C180.466 218.363 180.752 214.435 180.916 212.143C181.202 208.194 180.65 206.128 180.159 205.493ZM178.911 220.716C176.721 220.716 175.637 219.325 175.125 217.606C174.859 216.747 174.737 215.806 174.675 214.885C174.614 213.964 174.614 213.043 174.614 212.245C174.614 206.332 176.189 203.017 179.872 203.017C180.813 203.017 181.632 203.468 182.266 204.286C183.473 205.841 183.924 208.685 183.658 212.389C183.289 217.606 181.816 220.716 178.911 220.716ZM190.489 205.493C190.407 205.411 190.387 205.37 190.346 205.37C190.223 205.37 190.08 205.37 189.937 205.391C189.814 205.391 189.671 205.432 189.548 205.473C189.282 205.555 189.016 205.718 188.75 206.107C188.177 206.925 187.686 208.644 187.686 212.307C187.686 218.077 188.32 218.363 189.18 218.363C190.796 218.363 191.082 214.435 191.246 212.143C191.533 208.194 190.98 206.128 190.489 205.493ZM189.241 220.716C187.052 220.716 185.967 219.325 185.456 217.606C185.19 216.747 185.067 215.806 185.006 214.885C184.944 213.964 184.944 213.043 184.944 212.245C184.944 206.332 186.52 203.017 190.203 203.017C191.144 203.017 191.962 203.468 192.597 204.286C193.804 205.841 194.254 208.685 193.988 212.389C193.62 217.606 192.146 220.716 189.241 220.716Z" fill="white"/>
<path d="M52.2977 208.452H53.6618L50.8382 212.994L53.8664 218H52.5023L50.2516 214.003L47.9327 218H46.5686L49.6787 212.994L46.9097 208.452H48.2737L50.2652 211.984L52.2977 208.452ZM55.5126 216.159C55.5126 216.377 55.5717 216.563 55.6899 216.718C55.8082 216.863 55.9673 216.977 56.1674 217.059C56.3674 217.132 56.5902 217.168 56.8358 217.168C57.1995 217.168 57.5223 217.113 57.8042 217.004C58.0861 216.895 58.3044 216.722 58.459 216.486C58.6227 216.249 58.7045 215.936 58.7045 215.545L58.9228 216.227C58.9228 216.627 58.8136 216.972 58.5954 217.263C58.3862 217.545 58.1043 217.764 57.7497 217.918C57.395 218.064 56.9994 218.136 56.5629 218.136C56.1719 218.136 55.8127 218.064 55.4853 217.918C55.158 217.773 54.8942 217.559 54.6942 217.277C54.5032 216.986 54.4077 216.627 54.4077 216.199C54.4077 215.754 54.5169 215.376 54.7351 215.067C54.9533 214.758 55.2625 214.522 55.6627 214.358C56.0628 214.185 56.5357 214.099 57.0813 214.099C57.4814 214.099 57.8224 214.153 58.1043 214.262C58.3953 214.363 58.6272 214.481 58.8 214.617C58.9728 214.744 59.091 214.849 59.1547 214.931V215.572C58.8455 215.354 58.5317 215.195 58.2135 215.095C57.8952 214.985 57.536 214.931 57.1358 214.931C56.7721 214.931 56.4675 214.981 56.2219 215.081C55.9855 215.181 55.8082 215.322 55.6899 215.504C55.5717 215.686 55.5126 215.904 55.5126 216.159ZM55.5126 213.199L54.9806 212.366C55.2171 212.194 55.5353 212.021 55.9355 211.848C56.3356 211.675 56.8176 211.589 57.3814 211.589C57.8633 211.589 58.2817 211.666 58.6363 211.821C59.0001 211.966 59.282 212.18 59.482 212.462C59.6912 212.744 59.7958 213.089 59.7958 213.499V218H58.7045V213.499C58.7045 213.18 58.5681 212.944 58.2953 212.789C58.0316 212.626 57.7269 212.544 57.3814 212.544C57.0813 212.544 56.8085 212.585 56.5629 212.667C56.3174 212.739 56.1037 212.83 55.9218 212.939C55.7491 213.039 55.6126 213.126 55.5126 213.199ZM62.6651 221.001H61.5738V211.725H62.6651V221.001ZM67.9167 214.863C67.9167 215.536 67.7758 216.118 67.4939 216.609C67.2119 217.1 66.8346 217.477 66.3617 217.741C65.8979 218.005 65.3796 218.136 64.8067 218.136C64.2883 218.136 63.8291 218.005 63.429 217.741C63.0379 217.477 62.7287 217.1 62.5014 216.609C62.2831 216.118 62.174 215.536 62.174 214.863C62.174 214.181 62.2831 213.599 62.5014 213.117C62.7287 212.626 63.0379 212.248 63.429 211.984C63.8291 211.721 64.2883 211.589 64.8067 211.589C65.3796 211.589 65.8979 211.721 66.3617 211.984C66.8346 212.248 67.2119 212.626 67.4939 213.117C67.7758 213.599 67.9167 214.181 67.9167 214.863ZM66.8118 214.863C66.8118 214.381 66.7118 213.971 66.5117 213.635C66.3208 213.299 66.0616 213.044 65.7342 212.871C65.4159 212.698 65.0613 212.612 64.6702 212.612C64.352 212.612 64.0382 212.698 63.729 212.871C63.4199 213.044 63.1652 213.299 62.9652 213.635C62.7651 213.971 62.6651 214.381 62.6651 214.863C62.6651 215.345 62.7651 215.754 62.9652 216.09C63.1652 216.427 63.4199 216.681 63.729 216.854C64.0382 217.027 64.352 217.113 64.6702 217.113C65.0613 217.113 65.4159 217.027 65.7342 216.854C66.0616 216.681 66.3208 216.427 66.5117 216.09C66.7118 215.754 66.8118 215.345 66.8118 214.863ZM74.6731 212.817L69.4896 218.477L69.5578 216.909L74.7413 211.248L74.6731 212.817ZM70.5809 211.725V216.977L69.4896 218.477V211.725H70.5809ZM74.7413 211.248V218H73.65V212.748L74.7413 211.248ZM79.0779 214.863V214.181C79.4962 214.181 79.7963 214.103 79.9782 213.949C80.1601 213.785 80.251 213.59 80.251 213.362C80.251 213.117 80.1601 212.926 79.9782 212.789C79.7963 212.644 79.5417 212.571 79.2143 212.571C78.9415 212.571 78.7142 212.626 78.5323 212.735C78.3595 212.835 78.2322 212.962 78.1504 213.117C78.0685 213.262 78.0276 213.408 78.0276 213.553H76.9227C76.9227 213.199 77.0227 212.871 77.2228 212.571C77.4229 212.271 77.6957 212.035 78.0412 211.862C78.3868 211.68 78.7778 211.589 79.2143 211.589C79.6235 211.589 79.9918 211.666 80.3192 211.821C80.6466 211.975 80.9012 212.18 81.0831 212.435C81.2741 212.689 81.3695 212.971 81.3695 213.28C81.3695 213.735 81.1649 214.112 80.7557 214.413C80.3556 214.713 79.7963 214.863 79.0779 214.863ZM79.187 218.136C78.4504 218.136 77.8594 217.936 77.4138 217.536C76.9773 217.136 76.7226 216.631 76.6499 216.022H77.7548C77.8184 216.322 77.9548 216.59 78.164 216.827C78.3732 217.063 78.7142 217.182 79.187 217.182C79.478 217.182 79.7236 217.141 79.9236 217.059C80.1328 216.977 80.2919 216.859 80.4011 216.704C80.5102 216.55 80.5647 216.372 80.5647 216.172C80.5647 215.954 80.5056 215.767 80.3874 215.613C80.2783 215.458 80.1101 215.34 79.8827 215.258C79.6645 215.176 79.3962 215.135 79.0779 215.135V214.453C79.86 214.453 80.4829 214.59 80.9467 214.863C81.4105 215.135 81.6423 215.567 81.6423 216.159C81.6423 216.568 81.5287 216.922 81.3013 217.222C81.0831 217.513 80.7875 217.741 80.4147 217.905C80.0419 218.059 79.6326 218.136 79.187 218.136ZM89.2361 218L88.2131 213.021L88.8269 211.248L90.4638 218H89.2361ZM85.9624 217.059L88.8269 211.248L88.9633 213.43L86.3716 218.423L85.9624 217.059ZM86.3716 218.423L83.8208 213.43L83.9572 211.248L86.7808 217.059L86.3716 218.423ZM82.3203 218L83.9572 211.248L84.571 213.021L83.548 218H82.3203ZM92.0518 216.159C92.0518 216.377 92.1109 216.563 92.2292 216.718C92.3474 216.863 92.5065 216.977 92.7066 217.059C92.9066 217.132 93.1294 217.168 93.375 217.168C93.7387 217.168 94.0615 217.113 94.3434 217.004C94.6254 216.895 94.8436 216.722 94.9982 216.486C95.1619 216.249 95.2437 215.936 95.2437 215.545L95.462 216.227C95.462 216.627 95.3529 216.972 95.1346 217.263C94.9254 217.545 94.6435 217.764 94.2889 217.918C93.9342 218.064 93.5387 218.136 93.1022 218.136C92.7111 218.136 92.3519 218.064 92.0245 217.918C91.6972 217.773 91.4335 217.559 91.2334 217.277C91.0424 216.986 90.9469 216.627 90.9469 216.199C90.9469 215.754 91.0561 215.376 91.2743 215.067C91.4926 214.758 91.8017 214.522 92.2019 214.358C92.602 214.185 93.0749 214.099 93.6205 214.099C94.0206 214.099 94.3616 214.153 94.6435 214.262C94.9345 214.363 95.1664 214.481 95.3392 214.617C95.512 214.744 95.6302 214.849 95.6939 214.931V215.572C95.3847 215.354 95.0709 215.195 94.7527 215.095C94.4344 214.985 94.0752 214.931 93.6751 214.931C93.3113 214.931 93.0067 214.981 92.7611 215.081C92.5247 215.181 92.3474 215.322 92.2292 215.504C92.1109 215.686 92.0518 215.904 92.0518 216.159ZM92.0518 213.199L91.5198 212.366C91.7563 212.194 92.0746 212.021 92.4747 211.848C92.8748 211.675 93.3568 211.589 93.9206 211.589C94.4026 211.589 94.8209 211.666 95.1755 211.821C95.5393 211.966 95.8212 212.18 96.0212 212.462C96.2304 212.744 96.335 213.089 96.335 213.499V218H95.2437V213.499C95.2437 213.18 95.1073 212.944 94.8345 212.789C94.5708 212.626 94.2661 212.544 93.9206 212.544C93.6205 212.544 93.3477 212.585 93.1022 212.667C92.8566 212.739 92.6429 212.83 92.461 212.939C92.2883 213.039 92.1519 213.126 92.0518 213.199Z" fill="white"/>
<path d="M9.1329 200.116C7.15601 200.435 5.68929 200.924 5.11535 201.476C4.37136 202.199 4.03125 204.133 4.03125 207.726C4.03125 213.274 5.8806 217.504 9.19667 219.608C11.3649 220.969 14.022 219.927 16.0839 216.909C17.1042 215.4 17.3806 214.741 17.9545 212.509C18.3796 210.829 18.4859 209.915 18.4859 207.683C18.4859 204.771 18.1671 202.433 17.6782 201.646C16.9979 200.584 11.9601 199.669 9.1329 200.116ZM5.71054 206.28L6.68836 206.302L5.83808 206.599C5.37043 206.769 4.96655 206.918 4.96655 206.918C4.88152 206.918 4.45639 208.172 4.39262 208.619C4.3501 208.916 4.30759 208.193 4.28633 207.024C4.28633 205.26 4.32885 205.005 4.4989 205.579C4.71147 206.238 4.7965 206.28 5.71054 206.28ZM18.2521 207.067C18.2308 208.215 18.1671 208.916 18.1246 208.619C18.0608 208.172 17.6356 206.918 17.5506 206.918C17.5506 206.918 17.1467 206.769 16.6791 206.599L15.8288 206.302L16.8491 206.28C17.8057 206.28 17.8695 206.238 17.997 205.643C18.0608 205.281 18.1458 205.005 18.1883 205.005C18.2308 205.005 18.2521 205.94 18.2521 207.067ZM12.8316 207.492C12.619 207.832 12.2789 208.852 12.0876 209.788L11.7262 211.488L11.705 210.149C11.6837 208.746 11.8538 208.215 12.5978 207.386C13.193 206.748 13.2992 206.791 12.8316 207.492ZM9.17541 208.406C9.70683 209.065 9.49426 209.256 8.15508 209.256C7.28355 209.256 6.90093 209.15 6.58207 208.831C5.77431 208.023 6.11442 207.747 7.72994 207.853C8.51645 207.917 8.89907 208.045 9.17541 208.406ZM16.0201 207.896C16.509 208.087 16.4453 208.534 15.8926 208.916C15.4249 209.256 13.3843 209.405 13.1079 209.129C12.8954 208.895 13.3843 208.193 13.8732 207.981C14.4259 207.768 15.5525 207.726 16.0201 207.896ZM10.8334 212.913C11.1523 213.125 11.3436 213.104 11.7687 212.87C12.0663 212.721 12.3852 212.657 12.4702 212.742C12.6828 212.955 11.9388 213.508 11.4499 213.508C10.876 213.508 9.98317 213.125 9.98317 212.87C9.98317 212.594 10.3233 212.594 10.8334 212.913ZM13.0229 215.187C13.8732 215.655 14.0645 216.144 13.278 215.846C12.9804 215.74 12.0663 215.633 11.2586 215.633C10.4508 215.633 9.53678 215.74 9.23918 215.846C8.45268 216.144 8.62273 215.676 9.47301 215.187C10.2808 214.719 12.1726 214.719 13.0229 215.187ZM12.1089 216.696C11.9388 216.803 11.5562 216.909 11.2586 216.909C10.961 216.909 10.5784 216.803 10.4083 216.696C10.1745 216.547 10.4296 216.484 11.2586 216.484C12.0876 216.484 12.3427 216.547 12.1089 216.696Z" fill="#606060"/>
<circle cx="157.5" cy="12.5" r="9" stroke="black"/>
<circle cx="157.5" cy="12.5" r="9" stroke="#FFEED5"/>
<circle cx="210.5" cy="12.5" r="9" stroke="black"/>
<circle cx="210.5" cy="12.5" r="9" stroke="#FFEED5"/>
<path d="M206.95 12.8577V11.6885H214.038V12.8577H206.95ZM209.873 8.69231H211.115V15.8538H209.873V8.69231Z" fill="white"/>
<path d="M206.95 12.8577V11.6885H214.038V12.8577H206.95ZM209.873 8.69231H211.115V15.8538H209.873V8.69231Z" fill="#FFEED5"/>
<path d="M9.85764 152.662C9.80669 152.714 9.41612 152.783 8.99159 152.817C7.90478 152.886 6.59722 153.404 5.81608 154.077C5.45947 154.388 5.15381 154.715 5.15381 154.802C5.15381 154.888 5.44249 155.043 5.7991 155.164C6.68213 155.457 7.32742 155.975 7.8029 156.803C8.29535 157.649 8.3463 158.253 7.92176 158.253C7.73497 158.236 7.46327 157.925 7.22553 157.39C6.71609 156.286 5.90099 155.751 4.72928 155.768C3.28586 155.785 2.18208 156.631 1.48584 158.218C1.04433 159.202 0.925459 160.6 1.29905 160.393C1.45188 160.306 1.45188 160.324 1.29905 160.496C1.14622 160.669 1.1632 160.91 1.41792 161.583C2.04623 163.24 3.18398 164.034 4.96701 164.034H6.05382L6.2576 163.344C6.69911 161.791 7.90478 160.772 9.53499 160.565C10.1463 160.496 10.6048 160.324 10.8595 160.082C11.0633 159.892 11.352 159.633 11.5218 159.547C11.7935 159.375 11.7935 159.323 11.5388 158.546C11.0124 156.959 11.2671 155.423 12.269 154.129L12.8124 153.438L12.4218 153.231C12.0482 153.024 10.4859 152.558 10.1463 152.558C10.0444 152.558 9.92556 152.61 9.85764 152.662Z" fill="#606060"/>
<path d="M14.0639 153.706C13.4138 153.927 13.14 154.148 12.5241 154.965C12.0622 155.56 12.0109 155.764 12.0109 156.852C12.0109 158.502 12.2846 158.893 13.5164 159.046C14.5772 159.165 15.4669 159.59 15.6208 160.049C15.7919 160.559 15.5524 160.593 14.7825 160.202C13.5507 159.556 12.4044 159.624 11.4805 160.389C11.0014 160.814 10.5908 160.985 10.0091 161.053C8.94835 161.172 7.73362 161.784 7.27168 162.413C6.7242 163.195 6.65576 164.42 7.13481 165.185C7.34012 165.508 7.73362 165.899 8.02447 166.052C8.96546 166.528 10.5908 166.528 11.7713 166.052C11.9595 165.967 12.1819 166.154 12.5412 166.732C13.0716 167.566 14.3206 168.433 14.7483 168.263C14.8851 168.212 15.0049 168.263 15.0049 168.348C15.0049 168.467 15.176 168.501 15.484 168.433C15.7406 168.365 16.1512 168.28 16.3907 168.246C17.6055 168.042 18.8031 167.14 19.2992 166.035C19.8467 164.862 19.7783 164.76 18.5636 164.76C17.3317 164.76 16.0314 164.148 16.0314 163.569C16.0314 163.127 16.1683 163.144 17.212 163.671C18.7004 164.454 20.0691 163.994 20.8048 162.498C21.1983 161.682 21.2839 160.423 20.9588 160.287C20.7877 160.219 20.7877 160.185 20.9417 160.185C21.3523 160.151 20.5653 158.332 19.881 157.703C19.6756 157.516 19.4019 157.022 19.2821 156.614C19.0084 155.747 17.9134 154.557 16.8869 154.046C16.0657 153.621 14.7996 153.485 14.0639 153.706Z" fill="#606060"/>
<line x1="154" y1="12.5" x2="161" y2="12.5" stroke="#FCE9CE"/>
</svg>
