<svg width="46" height="21" viewBox="0 0 46 21" fill="none" xmlns="http://www.w3.org/2000/svg">
<path d="M4.25 3.95L3.95 20L1.76951e-08 19.925L0.4 -2.98023e-07H9.425V3.95H4.25ZM17.3248 1.2H20.6498V19.8H17.3248V11.95H14.3748L14.2498 20.1L10.9248 20.05L11.1998 -2.98023e-07L14.5498 0.0499991L14.4498 7.3H17.3248V1.2ZM27.9303 4.975C26.8303 4.975 24.7803 4.975 24.7803 10.175C24.7803 14.125 25.3553 14.75 26.7303 14.75C28.5303 14.75 29.0803 11.825 29.2803 10.075C29.5553 7.3 29.0053 5.725 28.4053 5.175C28.2053 5 28.0553 4.975 27.9303 4.975ZM26.6553 18.8C21.9053 18.8 21.9053 13.775 21.9053 10.45C21.9053 4.3 23.8553 1.3 27.8303 1.3C28.8053 1.3 29.6803 1.7 30.3553 2.45C31.7303 3.95 32.2803 6.75 31.9553 10.55C31.5053 16.025 29.7053 18.8 26.6553 18.8ZM36.2625 20H33.3875L33.3125 -2.98023e-07L36.1125 0.0499991L39.1875 9.375L42.4625 0.174999L45.2625 0.0999984L45.9875 19.7L43.1125 19.8L42.6875 8L40.0125 14.475L38.2375 14.45L36.2125 9.525L36.2625 20Z" fill="#FFEED5"/>
</svg>
