<svg width="421" height="722" viewBox="0 0 421 722" fill="none" xmlns="http://www.w3.org/2000/svg">
<rect width="421" height="722" rx="20" fill="url(#paint0_linear_129_1517)"/>
<path d="M54.0865 38.62V32.68C58.4365 32.68 65.7265 32.68 66.2065 39.31C66.3265 41.26 65.7265 42.94 64.4065 44.17C62.9965 45.52 61.0465 46.12 59.1865 46.36V55H54.0865V38.62ZM62.1565 41.8C62.7565 41.23 62.9965 40.51 62.9365 39.55C62.7865 37.6 61.5565 36.7 59.1865 36.28V43.03C60.4165 42.82 61.4965 42.43 62.1565 41.8ZM75.7688 31.24L79.0688 54.64L75.2888 54.88L74.5388 49.48L70.8788 49.6L69.7688 55L65.3588 54.88L70.1288 31L75.7688 31.24ZM71.3588 44.71L74.0588 44.47L72.8288 35.65L71.3588 44.71ZM88.9292 53.92C88.7492 53.92 88.5692 53.92 88.3892 53.92C83.9792 53.71 79.5092 49.87 79.5092 41.77C79.5092 38.41 80.4992 35.71 82.3592 33.91C83.8592 32.47 85.7792 31.75 87.9092 31.84C91.8092 31.99 94.2092 33.67 95.2892 36.94L90.9992 38.32C90.6992 37.39 90.3992 36.43 87.7292 36.34C86.8292 36.31 86.0792 36.58 85.4792 37.15C84.5192 38.05 84.0092 39.7 84.0092 41.77C84.0092 47.26 86.4692 49.33 88.5992 49.42C90.1892 49.48 90.3992 49.24 91.2992 48.01C91.3892 47.89 91.4792 47.77 91.5992 47.65L95.1392 50.38C95.0492 50.5 94.9892 50.62 94.8992 50.74C93.8192 52.15 92.4992 53.92 88.9292 53.92ZM106.911 31.24L110.211 54.64L106.431 54.88L105.681 49.48L102.021 49.6L100.911 55L96.5014 54.88L101.271 31L106.911 31.24ZM102.501 44.71L105.201 44.47L103.971 35.65L102.501 44.71Z" fill="#FFEED5"/>
<g opacity="0.3">
<path d="M416.721 698.073C416.113 698.237 415.1 698.549 413.884 698.97V674.226C415.708 681.693 417.622 691.649 416.721 698.018M411.07 705.339C408.593 706.089 402.289 708.358 401.208 712.165H397.403C398.844 707.663 405.644 704.112 411.07 701.934V705.339ZM11.4212 705.339V702.062C16.8024 704.24 23.3769 707.736 24.7954 712.165H21.283C20.2022 708.358 13.8979 706.089 11.4212 705.339ZM5.47714 698.018C4.5315 691.246 6.69298 680.558 8.60679 672.981V699.006C7.25586 698.549 6.15261 698.201 5.47714 698.018ZM21.2379 8.23279H26.8893C19.5718 11.4905 14.2582 17.713 11.4212 21.7942V15.1508C13.8979 14.4004 20.2022 12.131 21.283 8.30599M411.07 15.1508V21.7942C408.278 17.713 402.919 11.4905 395.579 8.28769H401.208C402.289 12.1127 408.593 14.3821 411.07 15.1325M409.179 22.8374C410.079 24.1002 410.71 25.1251 411.07 25.7657V688.281C409.88 681.325 409.248 674.313 409.179 667.29V22.8374ZM11.4212 694.65C13.3024 685.577 14.3186 676.399 14.4608 667.198V21.2818C18.1758 16.3953 24.8179 9.66031 33.5539 8.28769H388.937C397.673 9.6054 404.315 16.4136 408.053 21.3001V667.344C408.186 676.545 409.195 685.723 411.07 694.797V700.123C404.991 702.465 396.548 706.675 395.084 712.403H27.1145C25.6735 706.766 17.4779 702.593 11.3537 700.232L11.4212 694.65ZM11.4212 25.7474C11.804 25.1251 12.4344 24.1002 13.335 22.8191V667.253C13.2569 674.277 12.6176 681.289 11.4212 688.245V25.7474ZM413.884 665.679V13.467L412.894 13.3206C410.395 12.6801 403.888 10.3375 403.888 7.2445V6H18.6262V7.153C18.6262 10.246 12.1192 12.6435 9.61998 13.2291L8.6293 13.467V664.709C7.1658 669.376 1.58198 688.648 3.33818 698.878V699.445L4.01364 699.61C4.01364 699.61 5.94997 700.141 8.51673 701.074V707.077L9.50741 707.333C12.0291 707.956 18.5136 710.28 18.5136 713.409V714.544H403.775V713.409C403.775 710.298 410.304 707.919 412.781 707.333L413.772 707.077V700.964C416.203 700.104 417.937 699.628 417.982 699.61L418.658 699.445V698.878C420.324 689.215 415.46 671.627 413.682 665.679" fill="white"/>
</g>
<line x1="40" y1="71.5" x2="381" y2="71.5" stroke="url(#paint1_linear_129_1517)"/>
<line x1="40" y1="519.5" x2="381" y2="519.5" stroke="url(#paint2_linear_129_1517)"/>
<rect x="399" y="99" width="6" height="71" rx="3" fill="white"/>
<defs>
<linearGradient id="paint0_linear_129_1517" x1="47.5" y1="222.878" x2="366.081" y2="385.276" gradientUnits="userSpaceOnUse">
<stop stop-color="#121212"/>
<stop offset="0.528673" stop-color="#272727"/>
<stop offset="1" stop-color="#121212"/>
</linearGradient>
<linearGradient id="paint1_linear_129_1517" x1="40" y1="72.5" x2="381" y2="72.5" gradientUnits="userSpaceOnUse">
<stop stop-color="#747474" stop-opacity="0"/>
<stop offset="0.500188" stop-color="#A7A7A7"/>
<stop offset="1" stop-color="#DADADA" stop-opacity="0"/>
</linearGradient>
<linearGradient id="paint2_linear_129_1517" x1="40" y1="520.5" x2="381" y2="520.5" gradientUnits="userSpaceOnUse">
<stop stop-color="#747474" stop-opacity="0"/>
<stop offset="0.500188" stop-color="#A7A7A7"/>
<stop offset="1" stop-color="#DADADA" stop-opacity="0"/>
</linearGradient>
</defs>
</svg>
