<svg width="48" height="63" viewBox="0 0 48 63" fill="none" xmlns="http://www.w3.org/2000/svg">
<path d="M18.9703 0.376282C12.6279 1.76498 6.78779 6.30979 4.40152 11.6752C3.33398 14.0107 3.01999 15.9675 3.01999 20.4492C2.9572 25.499 2.8316 26.3196 1.88965 26.3196C0.382536 26.3196 -0.0570406 27.3296 0.005756 30.5488C0.131349 34.5886 1.82686 39.6384 3.71075 41.2165C4.84109 42.1633 5.40626 43.6152 5.97143 46.7713C6.66219 50.8742 6.78779 51.1267 12.0627 56.5552C17.2748 62.0469 17.4632 62.1731 20.917 62.5519C26.8827 63.3094 29.269 62.3625 34.4811 57.1234C36.993 54.5985 39.0652 52.1998 39.0652 51.7579C39.0652 51.3161 39.3164 50.9374 39.6304 50.9374C39.9444 50.9374 40.5096 49.0437 40.9491 46.7081C41.5143 43.6783 42.2051 42.1002 43.147 41.3427C44.5913 40.2065 46.224 35.9773 46.9776 31.5588C47.4172 28.7183 46.4752 26.3196 44.9681 26.3196C44.2146 26.3196 44.089 25.6884 44.4657 22.5323C44.7169 20.4492 44.6541 18.7449 44.3402 18.7449C44.0262 18.7449 43.7122 17.6718 43.7122 16.3463C43.5866 13.5057 41.7027 9.59216 39.0024 6.43604C34.9835 1.8281 25.3756 -1.07553 18.9703 0.376282ZM33.6647 4.10051C41.7027 8.45596 43.775 15.0207 42.2679 31.1169C41.8283 35.788 41.5771 36.4823 39.0652 39.7647C36.7418 42.8577 36.2394 44.1833 35.2346 49.4855C34.1671 54.9141 33.7275 55.924 31.7808 58.0071C30.2737 59.4589 28.5154 60.532 26.6943 61.0369C23.3661 61.8575 22.9893 61.6682 23.9941 59.7745C24.3708 59.017 24.5592 57.6915 24.3708 56.8709C24.0569 55.6715 23.5545 55.3559 22.1102 55.3559C20.603 55.3559 20.2263 55.1034 20.2263 54.0304C20.2263 53.0204 20.4774 52.831 21.4822 53.1466C23.1777 53.7147 25.25 52.9573 25.25 51.8211C25.25 51.1267 24.1824 50.9374 20.7286 50.8742L16.1445 50.8111L18.3424 49.8643C19.5355 49.2962 21.3566 48.9174 22.2985 48.9174C23.6801 48.9806 23.9941 48.7281 23.7429 48.0337C23.5545 47.4656 23.3661 46.645 23.3661 46.2032C23.3661 45.6982 22.3613 45.0038 21.1682 44.562C18.154 43.4258 18.154 41.7846 21.231 42.2896C25.0616 42.9208 25.25 42.6683 25.25 35.6617C25.25 29.8545 25.3756 29.2864 26.8199 27.8977C27.6363 27.014 28.8922 26.3196 29.583 26.3196C30.3365 26.3196 32.1576 26.004 33.6647 25.5621C36.1766 24.9309 36.4906 24.6153 36.8046 22.5954C38.1233 14.7051 35.1718 7.446 29.1434 3.53241L26.1919 1.57561L28.3898 2.01747C29.583 2.26995 31.9692 3.21679 33.6647 4.10051ZM13.6954 25.6253C14.7002 25.9409 16.5841 26.3827 17.84 26.6352C21.1054 27.1402 21.7334 29.4757 19.3471 31.8744C18.468 32.8212 17.7144 33.1999 17.7144 32.7581C17.7144 32.2531 16.6469 32.0006 14.5118 32.0006C12.7535 32.0006 10.8068 31.685 10.116 31.3694C8.10652 30.2332 6.41101 31.6219 6.41101 34.3993C6.41101 36.1667 7.03897 37.6185 8.79728 40.0172C10.5556 42.3527 11.4347 44.3095 11.9999 47.2131C12.4395 49.4224 13.0047 52.2629 13.3186 53.3991C13.6326 54.5985 13.821 55.7347 13.6326 55.8609C13.507 55.9871 12.1255 54.7878 10.5556 53.1466C7.98092 50.3693 7.72974 49.8011 7.35296 45.9507C7.03897 43.3627 6.34821 40.7746 5.40626 39.1335C4.40152 37.366 3.89914 35.5355 3.89914 33.3893C3.89914 30.4226 4.08753 30.1069 6.91338 27.6452C10.0532 24.9309 10.8068 24.7415 13.6954 25.6253Z" fill="#ECECEC" fill-opacity="0.7"/>
</svg>
