<svg width="28" height="69" viewBox="0 0 28 69" fill="none" xmlns="http://www.w3.org/2000/svg">
<path d="M12.6034 1.32538C15.4015 3.31348 18.2732 6.62697 19.5986 9.49866C21.0712 12.5913 21.8076 19.3655 21.1449 23.8571L20.6294 27.097L15.4015 28.0542C8.03816 29.3796 7.52273 30.1896 7.4491 39.6147C7.4491 47.7879 7.0073 48.6715 3.32564 47.2725C-0.945087 45.6526 -1.16599 47.1989 3.03111 49.187C5.53463 50.3651 5.97643 50.8805 5.97643 53.0159C5.97643 55.1513 5.75553 55.3722 4.50377 55.004C3.6938 54.7831 2.29477 54.7831 1.41118 55.1513C0.0121442 55.5931 0.453943 55.814 3.39927 56.1085C6.49187 56.403 7.08093 56.6976 7.08093 57.9493C7.08093 59.1275 6.49187 59.4956 4.3565 59.6429C2.66294 59.7902 1.55844 60.232 1.55844 60.821C1.55844 61.4837 2.22114 61.7046 3.32564 61.4837C5.82917 60.9683 7.96453 64.1345 6.71277 66.4171C5.60827 68.4789 6.1237 68.9207 9.21629 68.3316C12.5298 67.6689 17.4632 62.8091 17.9786 59.5693C19.5249 49.4815 20.0404 47.9352 23.2066 43.7381L26.3728 39.541L27.2564 30.1896C28.14 19.5864 27.6246 14.8739 24.8265 10.1614C22.1021 5.52247 17.6105 1.98808 12.6034 0.515411L10.7626 -1.52588e-05L12.6034 1.32538Z" fill="#242424"/>
</svg>
