<svg width="19" height="36" viewBox="0 0 19 36" fill="none" xmlns="http://www.w3.org/2000/svg">
<path d="M3.31349 2.8717C0.2209 5.59613 0 6.03793 0 9.57233C0 12.0759 0.515432 14.4321 1.47266 16.2729C2.35626 17.8192 3.23986 21.1327 3.60803 23.7099C4.04983 27.5388 4.63889 28.9379 6.92152 31.7359C8.39419 33.5767 9.86685 35.123 10.0877 35.123C10.3086 35.123 10.235 34.2394 9.94048 33.0613C9.64595 31.9568 9.13052 29.0851 8.76235 26.6552C8.24692 23.4154 7.21605 21.1327 5.15432 18.1138C3.53439 15.8311 2.06173 12.6649 1.7672 10.9714C1.3254 8.24693 1.47266 7.9524 3.38713 6.92153C5.22796 5.9643 5.66976 5.9643 7.14242 6.92153C8.17329 7.65786 10.0141 7.9524 12.1495 7.7315C13.9903 7.58423 15.463 7.80513 15.463 8.24693C15.463 8.6151 16.3466 8.09966 17.3774 7.0688C20.2491 4.12347 18.8501 2.57717 12.0758 1.10451L6.62699 1.14441e-05L3.31349 2.8717Z" fill="#242424"/>
</svg>
