<svg width="19" height="14" viewBox="0 0 19 14" fill="none" xmlns="http://www.w3.org/2000/svg">
<g opacity="0.4">
<path d="M5.36323 1.07267C4.80775 1.66646 4.3672 2.22194 4.40551 2.31771C4.42466 2.41348 4.3672 2.4901 4.25227 2.4901C4.06073 2.4901 1.14926 5.43987 0.421397 6.37844L0 6.89561L0.632095 7.62347C0.976874 8.00656 2.41345 9.55807 3.83088 11.0521L6.39757 13.772L8.58117 13.7529C10.4583 13.7337 10.7648 13.6954 10.7648 13.4273C10.7456 13.2549 9.90282 12.2205 8.84933 11.1096C7.79584 9.99862 6.93389 9.0409 6.93389 8.94513C6.93389 8.81105 11.0138 8.75358 15.9748 8.81105L18.4074 8.8302V6.89561L18.4265 4.96101L16.8367 4.98017C12.2013 5.05679 6.91473 4.96101 6.9722 4.80778C7.01051 4.71201 7.87245 3.71598 8.90679 2.60502C9.92197 1.47492 10.7648 0.440578 10.7648 0.287343C10.7648 0.0574903 10.3817 2.67029e-05 8.58117 2.67029e-05H6.39757L5.36323 1.07267Z" fill="#ECECEC"/>
</g>
</svg>
