<svg width="22" height="22" viewBox="0 0 22 22" fill="none" xmlns="http://www.w3.org/2000/svg">
<path d="M14.0616 7.81115C11.0743 10.8582 7.40986 15.0205 7.40986 15.3591C7.40986 15.7574 6.73274 15.4188 4.80094 14.0646C2.03271 12.1328 2.07254 12.1527 2.61025 12.9493C2.84924 13.3078 3.16788 13.8654 3.28738 14.1841C3.40687 14.4828 3.58611 14.7218 3.66577 14.7218C3.74543 14.7218 3.82509 14.8413 3.82509 15.0006C3.82509 15.1599 3.88484 15.3193 3.98441 15.3591C4.06408 15.379 4.44247 15.9167 4.82086 16.5142C5.19925 17.1116 5.55773 17.6494 5.63739 17.7091C5.69714 17.7688 5.99587 18.2269 6.2946 18.7447C6.59333 19.2824 6.87214 19.7006 6.91198 19.7006C6.97172 19.7006 8.64461 17.1515 8.76411 16.8527C8.94334 16.4544 14.1014 8.72726 14.4798 8.26921C15.1968 7.43276 16.5909 5.50097 16.5311 5.44122C16.4714 5.40139 15.376 6.45691 14.0616 7.81115Z" fill="#66AAA5"/>
<path d="M20.7532 0.601758C17.9451 3.09118 16.9692 4.0272 16.9692 4.28611C16.9692 4.44543 16.8697 4.56492 16.7701 4.56492C16.4913 4.56492 16.1925 4.8039 14.3603 6.53654C13.3048 7.53231 12.8468 8.08994 12.9264 8.30901C13.0061 8.50817 12.9663 8.56791 12.8268 8.46834C12.6874 8.38867 12.5281 8.46834 12.4485 8.68741C12.309 9.0658 11.9107 9.52385 11.6518 9.60351C11.5722 9.62343 11.5124 9.76284 11.5124 9.88233C11.5323 10.0217 11.4129 10.1412 11.2535 10.1412C10.9349 10.1412 10.6162 10.4798 8.46537 12.9692C7.74842 13.8256 7.05138 14.5226 6.95181 14.5226C6.83231 14.5226 6.31451 14.2438 5.79671 13.9052C5.259 13.5667 4.76111 13.3476 4.64162 13.4074C4.54204 13.4671 4.42255 13.3277 4.36281 13.1086C4.28314 12.8298 4.14374 12.7103 3.94458 12.79C3.76534 12.8696 3.64585 12.8497 3.68568 12.7701C3.7056 12.6904 3.62594 12.6107 3.52636 12.5709C3.40687 12.5311 3.24754 12.3718 3.16788 12.2124C3.06831 12.0531 2.9289 11.9734 2.80941 12.0332C2.70983 12.1129 2.63017 12.0531 2.63017 11.9535C2.63017 11.834 2.11237 11.3959 1.49499 10.9976C0.857698 10.5794 0.319983 10.1811 0.280152 10.0815C0.240322 10.0018 0.120829 9.94207 0.0212523 9.94207C-0.0783246 9.94207 0.180575 10.4599 0.618714 11.0773C1.03694 11.7145 1.61448 12.6107 1.91321 13.0887C2.19203 13.5468 2.57042 13.9252 2.74966 13.9252C2.9289 13.9252 3.02848 14.0446 2.96873 14.1841C2.90898 14.3434 2.9289 14.5624 3.02848 14.7019C3.12805 14.901 3.20771 14.8811 3.28737 14.6421C3.34712 14.4828 3.24754 14.1442 3.06831 13.8853C2.47084 13.0688 2.01279 12.1328 2.19203 12.1328C2.29161 12.1328 2.49076 12.2722 2.63017 12.4315C2.76958 12.5908 3.00856 12.7302 3.14797 12.7302C3.30729 12.7302 3.42678 12.8099 3.42678 12.8896C3.42678 12.9692 3.72551 13.2082 4.06407 13.4273C4.42255 13.6264 4.76111 13.8455 4.82086 13.9252C5.0001 14.1243 6.87214 15.3192 7.03147 15.3192C7.13104 15.3192 7.52935 14.901 7.94758 14.3832C8.3658 13.8853 9.04292 13.0887 9.46114 12.6307C9.85945 12.1726 10.198 11.7345 10.198 11.6946C10.198 11.5751 10.6561 11.0773 14.3603 7.29333C15.7146 5.89925 16.9095 4.76407 17.0091 4.76407C17.0887 4.76407 17.1684 4.6645 17.1684 4.56492C17.1684 4.28611 17.7061 4.30602 17.8854 4.60475C17.965 4.74416 17.9451 4.76407 17.7858 4.68441C17.507 4.50517 17.3676 4.64458 15.5553 7.05434C13.7629 9.44419 12.4086 11.4357 12.3489 11.7743C12.309 11.9137 12.2095 12.0929 12.1099 12.1527C12.0302 12.2323 12.0501 12.3319 12.1497 12.4116C12.2692 12.4713 12.7074 12.0133 13.1057 11.3959C13.5239 10.7586 13.9222 10.201 13.9819 10.1412C14.0417 10.0815 14.2608 9.78275 14.4599 9.44419C14.679 9.12554 14.918 8.76707 15.0175 8.64757C15.1171 8.548 15.5553 7.95054 15.9934 7.35307C16.4116 6.75561 16.8498 6.15815 16.9294 6.05857C17.0091 5.93908 17.1485 5.7001 17.2281 5.50094C17.2879 5.3217 17.4472 5.16238 17.5468 5.16238C17.6464 5.16238 18.5027 4.10687 19.4786 2.81237C20.4345 1.53778 21.3108 0.362774 21.4104 0.223366C21.7091 -0.174942 21.49 -0.0355339 20.7532 0.601758Z" fill="#66AAA5"/>
<path d="M11.4925 12.9294C11.4327 13.1484 11.2734 13.3277 11.1539 13.3277C11.0543 13.3277 11.0145 13.4671 11.0743 13.6463C11.134 13.8057 11.1141 13.9052 11.0344 13.8455C10.9548 13.8057 10.1781 14.8811 9.3018 16.2752C8.44543 17.6692 7.56916 19.0434 7.35009 19.362L6.9717 19.9197L6.63313 19.4616C6.43398 19.2027 5.79669 18.2468 5.21914 17.3108C4.6416 16.3747 4.04413 15.5383 3.88481 15.4586C3.7454 15.3591 3.66574 15.2196 3.72549 15.1201C3.78523 15.0205 3.7454 14.901 3.62591 14.8213C3.52633 14.7616 3.42676 14.8811 3.42676 15.0802C3.42676 15.2993 3.56617 15.5184 3.72549 15.598C3.88481 15.6578 4.02422 15.7773 4.0043 15.8569C3.92464 16.3548 4.06405 16.7133 4.32295 16.7133C4.50219 16.7133 4.62168 16.8328 4.58185 16.9523C4.5221 17.3108 5.19923 18.5455 5.39838 18.426C5.47804 18.3663 5.5577 18.426 5.5577 18.5654C5.5577 18.7048 5.85643 19.3023 6.23483 19.9197L6.91195 21.0549L7.60899 19.8798C7.98738 19.2426 8.36577 18.7048 8.46535 18.7048C8.54501 18.7048 8.60476 18.6252 8.60476 18.5256C8.60476 18.4061 8.88357 17.9281 9.20222 17.4502C9.54078 16.9523 9.79968 16.4544 9.79968 16.3349C9.79968 16.2154 9.89926 16.1158 9.99883 16.1158C10.1183 16.1158 10.198 15.9963 10.1781 15.8569C10.1183 15.3591 10.198 15.1002 10.3971 15.2196C10.4967 15.2794 10.6361 15.1201 10.7158 14.8413C10.7755 14.5824 10.9548 14.3035 11.1141 14.2438C11.2734 14.184 11.3929 13.965 11.3929 13.7459C11.3929 13.5268 11.5323 13.2281 11.6916 13.0489C12.0302 12.7103 12.07 12.5311 11.8111 12.5311C11.7116 12.5311 11.5522 12.7103 11.4925 12.9294Z" fill="#66AAA5"/>
</svg>
