<svg width="238" height="67" viewBox="0 0 238 67" fill="none" xmlns="http://www.w3.org/2000/svg">
<mask id="path-1-inside-1_129_2409" fill="white">
<path d="M231.222 0C231.222 3.62676 234.07 6.58813 237.651 6.76953L238 6.77832V59.249C234.256 59.249 231.222 62.2837 231.222 66.0273H6.77832C6.77828 62.4007 3.93019 59.4393 0.348633 59.2578L0 59.249V6.77832C3.7436 6.77826 6.77832 3.74361 6.77832 0H231.222Z"/>
</mask>
<path d="M231.222 0C231.222 3.62676 234.07 6.58813 237.651 6.76953L238 6.77832V59.249C234.256 59.249 231.222 62.2837 231.222 66.0273H6.77832C6.77828 62.4007 3.93019 59.4393 0.348633 59.2578L0 59.249V6.77832C3.7436 6.77826 6.77832 3.74361 6.77832 0H231.222Z" fill="#2F2F2F"/>
<path d="M231.222 0C231.222 3.62676 234.07 6.58813 237.651 6.76953L238 6.77832V59.249C234.256 59.249 231.222 62.2837 231.222 66.0273H6.77832C6.77828 62.4007 3.93019 59.4393 0.348633 59.2578L0 59.249V6.77832C3.7436 6.77826 6.77832 3.74361 6.77832 0H231.222Z" fill="url(#paint0_radial_129_2409)"/>
<path d="M231.222 0L232.173 -9.82084e-07V-0.951049H231.222V0ZM237.651 6.76953L237.603 7.71936L237.615 7.71997L237.627 7.72028L237.651 6.76953ZM238 6.77832H238.951V5.85095L238.024 5.82757L238 6.77832ZM238 59.249V60.2001H238.951V59.249H238ZM231.222 66.0273V66.9784H232.173L232.173 66.0274L231.222 66.0273ZM6.77832 66.0273L5.82727 66.0274L5.82728 66.9784H6.77832V66.0273ZM0.348633 59.2578L0.396769 58.308L0.384691 58.3074L0.372601 58.3071L0.348633 59.2578ZM0 59.249H-0.951049V60.1764L-0.0239684 60.1998L0 59.249ZM0 6.77832L-1.47964e-05 5.82727L-0.951049 5.82729V6.77832H0ZM6.77832 0V-0.951049H5.82727L5.82727 -9.8202e-07L6.77832 0ZM231.222 0L230.271 9.82084e-07C230.271 4.13587 233.518 7.51247 237.603 7.71936L237.651 6.76953L237.699 5.8197C234.621 5.66379 232.173 3.11765 232.173 -9.82084e-07L231.222 0ZM237.651 6.76953L237.627 7.72028L237.976 7.72907L238 6.77832L238.024 5.82757L237.675 5.81878L237.651 6.76953ZM238 6.77832H237.049V59.249H238H238.951V6.77832H238ZM238 59.249V58.298C233.731 58.298 230.271 61.7585 230.271 66.0273L231.222 66.0273L232.173 66.0274C232.173 62.809 234.782 60.2001 238 60.2001V59.249ZM231.222 66.0273V65.0763H6.77832V66.0273V66.9784H231.222V66.0273ZM6.77832 66.0273L7.72937 66.0273C7.72932 61.8916 4.48162 58.515 0.396769 58.308L0.348633 59.2578L0.300496 60.2076C3.37875 60.3636 5.82723 62.9098 5.82727 66.0274L6.77832 66.0273ZM0.348633 59.2578L0.372601 58.3071L0.0239684 58.2983L0 59.249L-0.0239684 60.1998L0.324664 60.2086L0.348633 59.2578ZM0 59.249H0.951049V6.77832H0H-0.951049V59.249H0ZM0 6.77832L1.47964e-05 7.72937C4.26884 7.7293 7.72936 4.26888 7.72937 9.8202e-07L6.77832 0L5.82727 -9.8202e-07C5.82727 3.21835 3.21836 5.82722 -1.47964e-05 5.82727L0 6.77832ZM6.77832 0V0.951049H231.222V0V-0.951049H6.77832V0Z" fill="#00A59D" mask="url(#path-1-inside-1_129_2409)"/>
<path d="M231.222 0L232.173 -9.82084e-07V-0.951049H231.222V0ZM237.651 6.76953L237.603 7.71936L237.615 7.71997L237.627 7.72028L237.651 6.76953ZM238 6.77832H238.951V5.85095L238.024 5.82757L238 6.77832ZM238 59.249V60.2001H238.951V59.249H238ZM231.222 66.0273V66.9784H232.173L232.173 66.0274L231.222 66.0273ZM6.77832 66.0273L5.82727 66.0274L5.82728 66.9784H6.77832V66.0273ZM0.348633 59.2578L0.396769 58.308L0.384691 58.3074L0.372601 58.3071L0.348633 59.2578ZM0 59.249H-0.951049V60.1764L-0.0239684 60.1998L0 59.249ZM0 6.77832L-1.47964e-05 5.82727L-0.951049 5.82729V6.77832H0ZM6.77832 0V-0.951049H5.82727L5.82727 -9.8202e-07L6.77832 0ZM231.222 0L230.271 9.82084e-07C230.271 4.13587 233.518 7.51247 237.603 7.71936L237.651 6.76953L237.699 5.8197C234.621 5.66379 232.173 3.11765 232.173 -9.82084e-07L231.222 0ZM237.651 6.76953L237.627 7.72028L237.976 7.72907L238 6.77832L238.024 5.82757L237.675 5.81878L237.651 6.76953ZM238 6.77832H237.049V59.249H238H238.951V6.77832H238ZM238 59.249V58.298C233.731 58.298 230.271 61.7585 230.271 66.0273L231.222 66.0273L232.173 66.0274C232.173 62.809 234.782 60.2001 238 60.2001V59.249ZM231.222 66.0273V65.0763H6.77832V66.0273V66.9784H231.222V66.0273ZM6.77832 66.0273L7.72937 66.0273C7.72932 61.8916 4.48162 58.515 0.396769 58.308L0.348633 59.2578L0.300496 60.2076C3.37875 60.3636 5.82723 62.9098 5.82727 66.0274L6.77832 66.0273ZM0.348633 59.2578L0.372601 58.3071L0.0239684 58.2983L0 59.249L-0.0239684 60.1998L0.324664 60.2086L0.348633 59.2578ZM0 59.249H0.951049V6.77832H0H-0.951049V59.249H0ZM0 6.77832L1.47964e-05 7.72937C4.26884 7.7293 7.72936 4.26888 7.72937 9.8202e-07L6.77832 0L5.82727 -9.8202e-07C5.82727 3.21835 3.21836 5.82722 -1.47964e-05 5.82727L0 6.77832ZM6.77832 0V0.951049H231.222V0V-0.951049H6.77832V0Z" fill="white" fill-opacity="0.3" mask="url(#path-1-inside-1_129_2409)"/>
<mask id="path-3-inside-2_129_2409" fill="white">
<path d="M227.42 3.56647C227.42 6.40237 229.373 8.78065 232.007 9.43365V56.5928C229.373 57.2458 227.42 59.625 227.42 62.461C227.42 62.4845 227.422 62.5079 227.422 62.5313H10.8154C10.8157 62.5079 10.8174 62.4845 10.8174 62.461C10.8174 59.1218 8.11071 56.4151 4.77148 56.4151C4.5077 56.4151 4.24804 56.4331 3.99316 56.4659V9.56061C4.24808 9.59338 4.50765 9.61236 4.77148 9.61237C8.11071 9.61237 10.8174 6.90569 10.8174 3.56647H227.42Z"/>
</mask>
<path d="M227.42 3.56647C227.42 6.40237 229.373 8.78065 232.007 9.43365V56.5928C229.373 57.2458 227.42 59.625 227.42 62.461C227.42 62.4845 227.422 62.5079 227.422 62.5313H10.8154C10.8157 62.5079 10.8174 62.4845 10.8174 62.461C10.8174 59.1218 8.11071 56.4151 4.77148 56.4151C4.5077 56.4151 4.24804 56.4331 3.99316 56.4659V9.56061C4.24808 9.59338 4.50765 9.61236 4.77148 9.61237C8.11071 9.61237 10.8174 6.90569 10.8174 3.56647H227.42Z" fill="#00A59D"/>
<path d="M227.42 3.56647C227.42 6.40237 229.373 8.78065 232.007 9.43365V56.5928C229.373 57.2458 227.42 59.625 227.42 62.461C227.42 62.4845 227.422 62.5079 227.422 62.5313H10.8154C10.8157 62.5079 10.8174 62.4845 10.8174 62.461C10.8174 59.1218 8.11071 56.4151 4.77148 56.4151C4.5077 56.4151 4.24804 56.4331 3.99316 56.4659V9.56061C4.24808 9.59338 4.50765 9.61236 4.77148 9.61237C8.11071 9.61237 10.8174 6.90569 10.8174 3.56647H227.42Z" fill="url(#paint1_radial_129_2409)"/>
<path d="M227.42 3.56647L229.117 3.56646V1.86985H227.42V3.56647ZM232.007 9.43365H233.703V8.10629L232.415 7.78689L232.007 9.43365ZM232.007 56.5928L232.415 58.2396L233.703 57.9202V56.5928H232.007ZM227.42 62.461L225.723 62.461V62.461H227.42ZM227.422 62.5313V64.2279H229.138L229.118 62.512L227.422 62.5313ZM10.8154 62.5313L9.11892 62.512L9.09937 64.2279H10.8154V62.5313ZM10.8174 62.461H12.514V62.461L10.8174 62.461ZM4.77148 56.4151V54.7185H4.77146L4.77148 56.4151ZM3.99316 56.4659H2.29655V58.3946L4.2095 58.1486L3.99316 56.4659ZM3.99316 9.56061L4.20953 7.87785L2.29655 7.63188V9.56061H3.99316ZM4.77148 9.61237L4.77146 11.309H4.77148V9.61237ZM10.8174 3.56647V1.86985H9.12077L9.12077 3.56646L10.8174 3.56647ZM227.42 3.56647L225.723 3.56647C225.723 7.20116 228.226 10.2444 231.599 11.0804L232.007 9.43365L232.415 7.78689C230.519 7.3169 229.117 5.60358 229.117 3.56646L227.42 3.56647ZM232.007 9.43365H230.31V56.5928H232.007H233.703V9.43365H232.007ZM232.007 56.5928L231.599 54.9461C228.226 55.7821 225.723 58.8266 225.723 62.461L227.42 62.461L229.117 62.461C229.117 60.4234 230.52 58.7094 232.415 58.2396L232.007 56.5928ZM227.42 62.461H225.723C225.723 62.4868 225.724 62.509 225.724 62.5255C225.725 62.5415 225.725 62.5554 225.725 62.562C225.726 62.5713 225.726 62.5705 225.726 62.5704C225.726 62.569 225.725 62.5615 225.725 62.5506L227.422 62.5313L229.118 62.512C229.118 62.4894 229.118 62.4703 229.117 62.4571C229.117 62.4453 229.116 62.4328 229.116 62.4304C229.116 62.4253 229.116 62.4274 229.116 62.4317C229.116 62.4364 229.117 62.4469 229.117 62.461H227.42ZM227.422 62.5313V60.8347H10.8154V62.5313V64.2279H227.422V62.5313ZM10.8154 62.5313L12.5119 62.5506C12.5118 62.5615 12.5116 62.569 12.5115 62.5704C12.5115 62.5705 12.5115 62.5713 12.5118 62.562C12.5121 62.5554 12.5126 62.5415 12.5131 62.5255C12.5135 62.509 12.514 62.4868 12.514 62.461H10.8174H9.12077C9.12077 62.4469 9.12102 62.4364 9.12115 62.4317C9.12127 62.4274 9.12137 62.4253 9.12117 62.4304C9.12107 62.4328 9.12057 62.4453 9.12018 62.4571C9.11974 62.4702 9.11918 62.4894 9.11892 62.512L10.8154 62.5313ZM10.8174 62.461L12.514 62.461C12.514 58.1848 9.04773 54.7185 4.77148 54.7185V56.4151V58.1117C7.17369 58.1117 9.12076 60.0588 9.12077 62.461L10.8174 62.461ZM4.77148 56.4151L4.77146 54.7185C4.43035 54.7185 4.0983 54.7418 3.77683 54.7831L3.99316 56.4659L4.2095 58.1486C4.39777 58.1244 4.58504 58.1117 4.77151 58.1117L4.77148 56.4151ZM3.99316 56.4659H5.68978V9.56061H3.99316H2.29655V56.4659H3.99316ZM3.99316 9.56061L3.7768 11.2434C4.09394 11.2841 4.42629 11.309 4.77146 11.309L4.77148 9.61237L4.77151 7.91575C4.58902 7.91575 4.40222 7.90262 4.20953 7.87785L3.99316 9.56061ZM4.77148 9.61237V11.309C9.04773 11.309 12.514 7.8427 12.514 3.56647L10.8174 3.56647L9.12077 3.56646C9.12076 5.96868 7.17369 7.91575 4.77148 7.91575V9.61237ZM10.8174 3.56647V5.26308H227.42V3.56647V1.86985H10.8174V3.56647Z" fill="#00A59D" mask="url(#path-3-inside-2_129_2409)"/>
<path d="M227.42 3.56647L229.117 3.56646V1.86985H227.42V3.56647ZM232.007 9.43365H233.703V8.10629L232.415 7.78689L232.007 9.43365ZM232.007 56.5928L232.415 58.2396L233.703 57.9202V56.5928H232.007ZM227.42 62.461L225.723 62.461V62.461H227.42ZM227.422 62.5313V64.2279H229.138L229.118 62.512L227.422 62.5313ZM10.8154 62.5313L9.11892 62.512L9.09937 64.2279H10.8154V62.5313ZM10.8174 62.461H12.514V62.461L10.8174 62.461ZM4.77148 56.4151V54.7185H4.77146L4.77148 56.4151ZM3.99316 56.4659H2.29655V58.3946L4.2095 58.1486L3.99316 56.4659ZM3.99316 9.56061L4.20953 7.87785L2.29655 7.63188V9.56061H3.99316ZM4.77148 9.61237L4.77146 11.309H4.77148V9.61237ZM10.8174 3.56647V1.86985H9.12077L9.12077 3.56646L10.8174 3.56647ZM227.42 3.56647L225.723 3.56647C225.723 7.20116 228.226 10.2444 231.599 11.0804L232.007 9.43365L232.415 7.78689C230.519 7.3169 229.117 5.60358 229.117 3.56646L227.42 3.56647ZM232.007 9.43365H230.31V56.5928H232.007H233.703V9.43365H232.007ZM232.007 56.5928L231.599 54.9461C228.226 55.7821 225.723 58.8266 225.723 62.461L227.42 62.461L229.117 62.461C229.117 60.4234 230.52 58.7094 232.415 58.2396L232.007 56.5928ZM227.42 62.461H225.723C225.723 62.4868 225.724 62.509 225.724 62.5255C225.725 62.5415 225.725 62.5554 225.725 62.562C225.726 62.5713 225.726 62.5705 225.726 62.5704C225.726 62.569 225.725 62.5615 225.725 62.5506L227.422 62.5313L229.118 62.512C229.118 62.4894 229.118 62.4703 229.117 62.4571C229.117 62.4453 229.116 62.4328 229.116 62.4304C229.116 62.4253 229.116 62.4274 229.116 62.4317C229.116 62.4364 229.117 62.4469 229.117 62.461H227.42ZM227.422 62.5313V60.8347H10.8154V62.5313V64.2279H227.422V62.5313ZM10.8154 62.5313L12.5119 62.5506C12.5118 62.5615 12.5116 62.569 12.5115 62.5704C12.5115 62.5705 12.5115 62.5713 12.5118 62.562C12.5121 62.5554 12.5126 62.5415 12.5131 62.5255C12.5135 62.509 12.514 62.4868 12.514 62.461H10.8174H9.12077C9.12077 62.4469 9.12102 62.4364 9.12115 62.4317C9.12127 62.4274 9.12137 62.4253 9.12117 62.4304C9.12107 62.4328 9.12057 62.4453 9.12018 62.4571C9.11974 62.4702 9.11918 62.4894 9.11892 62.512L10.8154 62.5313ZM10.8174 62.461L12.514 62.461C12.514 58.1848 9.04773 54.7185 4.77148 54.7185V56.4151V58.1117C7.17369 58.1117 9.12076 60.0588 9.12077 62.461L10.8174 62.461ZM4.77148 56.4151L4.77146 54.7185C4.43035 54.7185 4.0983 54.7418 3.77683 54.7831L3.99316 56.4659L4.2095 58.1486C4.39777 58.1244 4.58504 58.1117 4.77151 58.1117L4.77148 56.4151ZM3.99316 56.4659H5.68978V9.56061H3.99316H2.29655V56.4659H3.99316ZM3.99316 9.56061L3.7768 11.2434C4.09394 11.2841 4.42629 11.309 4.77146 11.309L4.77148 9.61237L4.77151 7.91575C4.58902 7.91575 4.40222 7.90262 4.20953 7.87785L3.99316 9.56061ZM4.77148 9.61237V11.309C9.04773 11.309 12.514 7.8427 12.514 3.56647L10.8174 3.56647L9.12077 3.56646C9.12076 5.96868 7.17369 7.91575 4.77148 7.91575V9.61237ZM10.8174 3.56647V5.26308H227.42V3.56647V1.86985H10.8174V3.56647Z" fill="#00A59D" mask="url(#path-3-inside-2_129_2409)"/>
<rect x="14.9791" y="10.2238" width="208.517" height="45.4126" rx="4.75524" fill="#00A59D"/>
<path d="M64.0558 23.8926L73.2243 23.8242V42.0243H70.419V27.5646H67.6593L67.3628 42.5033L63.6909 42.4349L64.0558 23.8926ZM74.5822 29.6172V25.1014C77.8892 25.1014 83.4314 25.1014 83.7963 30.1418C83.8875 31.6243 83.4314 32.9015 82.4278 33.8366C81.3559 34.8629 79.8734 35.319 78.4594 35.5015V42.0699H74.5822V29.6172ZM80.7173 32.0348C81.1734 31.6015 81.3559 31.0541 81.3103 30.3243C81.1963 28.8418 80.2612 28.1576 78.4594 27.8383V32.9699C79.3945 32.8102 80.2155 32.5137 80.7173 32.0348ZM90.096 28.3628C89.0925 28.3628 87.2223 28.3628 87.2223 33.1067C87.2223 36.7103 87.7469 37.2804 89.0013 37.2804C90.6434 37.2804 91.1452 34.612 91.3276 33.0155C91.5785 30.4839 91.0767 29.0471 90.5294 28.5453C90.3469 28.3857 90.2101 28.3628 90.096 28.3628ZM88.9329 40.9752C84.5995 40.9752 84.5995 36.391 84.5995 33.3576C84.5995 27.7471 86.3785 25.0102 90.0048 25.0102C90.8943 25.0102 91.6925 25.3751 92.3083 26.0593C93.5627 27.4278 94.0645 29.9822 93.768 33.4488C93.3575 38.4436 91.7153 40.9752 88.9329 40.9752ZM105.064 38.0559H106.182V44.6928H103.627V42.0243H97.1044V44.6928H94.55V38.0559H96.2149C96.6711 34.6576 96.7623 29.412 96.8307 26.5155C96.8535 25.3067 96.8535 24.3488 96.8992 23.8242L104.813 23.9383L105.064 38.0559ZM99.3623 27.8383C99.2711 31.6015 99.1343 35.2734 98.7922 38.0559H101.096L100.89 27.8611L99.3623 27.8383ZM112.369 28.3628C111.365 28.3628 109.495 28.3628 109.495 33.1067C109.495 36.7103 110.02 37.2804 111.274 37.2804C112.916 37.2804 113.418 34.612 113.6 33.0155C113.851 30.4839 113.349 29.0471 112.802 28.5453C112.62 28.3857 112.483 28.3628 112.369 28.3628ZM111.205 40.9752C106.872 40.9752 106.872 36.391 106.872 33.3576C106.872 27.7471 108.651 25.0102 112.277 25.0102C113.167 25.0102 113.965 25.3751 114.581 26.0593C115.835 27.4278 116.337 29.9822 116.041 33.4488C115.63 38.4436 113.988 40.9752 111.205 40.9752ZM117.426 25.0102L117.335 24.0295L125.477 23.8242L125.454 42.0243H121.463L121.486 27.8839L120.117 27.9067C120.3 33.6541 120.049 38.9682 117.951 41.2261C117.289 41.9559 116.422 42.3208 115.51 42.3436L115.442 39.7892C115.601 39.7892 115.829 39.7436 116.08 39.4699C118.042 37.3717 117.722 28.819 117.426 25.0102ZM135.979 42.0699H132.717V33.1752L132.649 33.1067L129.41 41.9103L126.445 41.8647L130.482 30.7804L126.4 23.847L130.254 23.8242L132.717 29.0243V23.8242H135.979L135.956 29.0243L138.168 23.8014L142.046 23.8242L138.191 30.7804L142.228 41.8647L139.263 41.9103L136.024 33.1067L135.956 33.1752L135.979 42.0699ZM153.72 24.6453L153.879 42.0699H151.485L151.439 32.2857L146.627 41.2717H146.581L143.343 41.2033L143.548 23.8242L145.988 23.8926L146.011 34.4067L151.211 24.6453H153.72ZM164.103 24.6909V28.3172H161.183L161.275 40.998H157.99L157.899 28.3172H154.797V24.6909H164.103ZM168.818 30.6208C173.744 31.1225 174.314 34.2015 174.314 35.6155C174.314 36.7331 173.721 37.805 172.649 38.6033C171.463 39.4927 169.753 39.9945 168.202 39.9945C167.883 39.9945 167.586 39.9717 167.267 39.9261L165.123 39.9489L165.009 25.2611L168.749 25.2383L168.818 30.6208ZM171.053 36.4594C171.327 36.2541 171.623 35.9576 171.623 35.6155C171.623 35.0453 171.623 33.6541 168.841 33.312L168.863 37.2576C169.639 37.1664 170.483 36.8927 171.053 36.4594Z" fill="white"/>
<defs>
<radialGradient id="paint0_radial_129_2409" cx="0" cy="0" r="1" gradientUnits="userSpaceOnUse" gradientTransform="translate(119) rotate(90) scale(24.4777 95.3054)">
<stop stop-color="#464646"/>
<stop offset="1" stop-color="#C84B2F" stop-opacity="0"/>
</radialGradient>
<radialGradient id="paint1_radial_129_2409" cx="0" cy="0" r="1" gradientUnits="userSpaceOnUse" gradientTransform="translate(119 3.56647) rotate(90) scale(21.8334 85.0096)">
<stop stop-color="#00B9B0"/>
<stop offset="1" stop-color="#00B9B0" stop-opacity="0"/>
</radialGradient>
</defs>
</svg>
