<svg width="32" height="34" viewBox="0 0 32 34" fill="none" xmlns="http://www.w3.org/2000/svg">
<path d="M14.4113 5.39148C12.013 6.01245 9.83059 6.58448 9.55541 6.68328C8.98442 6.87486 8.76603 6.85588 12.0248 7.04599C13.0609 7.10217 14.6842 7.21786 15.6463 7.29724C16.6085 7.37662 17.5354 7.42332 17.6919 7.42423C17.869 7.43116 18.1021 6.9394 18.4154 5.86641C18.6625 5.02039 18.8467 4.3128 18.826 4.30677C18.7848 4.29472 16.8036 4.79114 14.4113 5.39148Z" fill="#2A2A2A"/>
<path d="M19.2412 6.10743C18.9279 7.18042 18.8598 7.72038 19.0334 7.81587C19.4246 8.08683 22.3209 9.67149 22.639 9.80916C22.7981 9.87799 23.7077 10.3675 24.6731 10.8957C25.6119 11.4386 26.4364 11.836 26.463 11.8214C26.537 11.7982 21.0348 5.86977 19.84 4.66994C19.7489 4.59855 19.4942 5.24078 19.2412 6.10743Z" fill="#2A2A2A"/>
<path d="M16.6302 8.14437C16.3172 8.14256 15.2811 8.08637 14.3129 8.02763C13.3508 7.94824 11.81 7.85666 10.9037 7.81598C9.99746 7.77531 8.7963 7.67092 8.25634 7.60284C6.51265 7.36244 6.60905 7.03229 6.80089 12.6643C6.82649 13.3436 6.83476 14.4657 6.83973 15.1389C6.86533 15.8182 6.88912 16.8105 6.93023 17.3599L7.00131 18.3436L7.52079 17.8683C7.8029 17.5923 8.51246 16.9262 9.0827 16.3537C10.5319 14.9182 11.0962 14.3663 12.5334 12.9721C13.2223 12.2999 13.8106 11.6655 13.8347 11.5829C13.8648 11.4798 13.9568 11.3947 14.0721 11.3835C14.1667 11.3663 14.7188 10.8558 15.3278 10.2274C15.9367 9.59902 16.679 8.89761 16.9817 8.6277C17.5691 8.1498 17.5339 8.11712 16.6302 8.14437Z" fill="#2A2A2A"/>
<path d="M18.9248 8.72463C18.9067 8.78654 19.0964 9.67051 19.3472 10.729C19.598 11.7876 19.7878 12.6715 19.7697 12.7335C19.7576 12.7747 19.9216 13.5168 20.1501 14.3449C20.3726 15.1936 20.7247 16.5953 20.8999 17.4526C21.3945 19.7468 21.7663 21.3109 21.9656 22.0857L22.1477 22.7659L22.7369 21.975C23.0466 21.528 24.2466 19.7958 25.3726 18.0867C26.4986 16.3777 27.6005 14.7512 27.8147 14.4778C28.3145 13.8399 28.1709 13.6413 26.8693 13.0373C26.3775 12.8041 25.3089 12.2458 24.5231 11.7924C23.7374 11.3391 22.3894 10.5872 21.5357 10.1364C20.688 9.66495 19.7638 9.14877 19.4844 8.95523C19.1784 8.7763 18.9428 8.66273 18.9248 8.72463Z" fill="#2A2A2A"/>
<path d="M17.5785 9.11544C17.4598 9.21515 17.4176 9.35959 17.4615 9.43957C17.4993 9.54018 17.5792 9.49635 17.6154 9.37254C17.754 8.89795 18.0591 9.23338 18.126 9.92471C18.168 10.3177 18.278 10.7081 18.363 10.8001C18.4481 10.8921 18.4353 10.5525 18.3469 10.0116C18.14 9.03306 17.9466 8.77505 17.5785 9.11544Z" fill="#2A2A2A"/>
<path d="M15.5266 11.1587C15.1611 11.567 14.8876 11.8902 14.9495 11.9083C15.0939 11.9505 16.3531 10.7058 16.28 10.5725C16.2568 10.4985 15.9128 10.7564 15.5266 11.1587Z" fill="#2A2A2A"/>
<path d="M18.6155 12.0832C18.7099 12.6035 18.8491 13.0472 18.8904 13.0592C18.9523 13.0773 18.9163 12.6637 18.8218 12.1435C18.7274 11.6233 18.5882 11.1795 18.547 11.1675C18.4851 11.1494 18.5211 11.563 18.6155 12.0832Z" fill="#2A2A2A"/>
<path d="M13.9464 12.7352C13.5869 13.1229 13.334 13.4521 13.3959 13.4702C13.4372 13.4823 13.7933 13.1831 14.1528 12.7954C14.5123 12.4078 14.7652 12.0785 14.7033 12.0604C14.662 12.0484 14.306 12.3475 13.9464 12.7352Z" fill="#2A2A2A"/>
<path d="M19.0985 14.262C19.2076 14.8089 19.3588 15.2113 19.4182 15.1615C19.5514 15.0884 19.1599 13.3618 19.0154 13.3196C18.9535 13.3015 19.0101 13.7211 19.0985 14.262Z" fill="#2A2A2A"/>
<path d="M4.36961 14.9328L2.85482 20.0441L4.27453 19.6301C5.0347 19.4042 5.77422 19.1722 5.90752 19.0992C6.14143 18.9883 6.18045 17.8577 6.02729 15.2377C6.01028 14.6057 5.94793 13.1319 5.93107 11.9625L5.86377 9.81547L4.36961 14.9328Z" fill="#2A2A2A"/>
<path d="M26.6175 17.7338C26.0962 18.5221 24.9616 20.1838 24.1366 21.3985C23.291 22.6072 22.6261 23.7343 22.6518 23.8762C22.6569 24.012 23.1228 24.6407 23.6978 25.2789L24.7336 26.4099L26.2097 21.3544C27.0231 18.5688 27.6652 16.293 27.6445 16.2869C27.6033 16.2749 27.1448 16.9248 26.6175 17.7338Z" fill="#2A2A2A"/>
<path d="M12.5035 14.1502C12.2093 14.4674 11.7492 14.8929 11.5118 15.0923C11.2684 15.3123 11.1256 15.4946 11.1875 15.5126C11.3113 15.5488 12.6822 14.3815 12.9859 13.9551C13.3876 13.423 13.0797 13.557 12.5035 14.1502Z" fill="#2A2A2A"/>
<path d="M19.7105 16.7696C19.6804 16.8727 19.7903 17.2631 19.9329 17.6183C20.0988 18.0474 20.1753 18.0921 20.1092 17.7817C19.9572 16.9984 19.7768 16.5426 19.7105 16.7696Z" fill="#2A2A2A"/>
<path d="M20.133 18.3931C20.0788 18.5788 20.5091 20.2496 20.6122 20.2797C20.6741 20.2978 20.6433 20.0201 20.5746 19.6417C20.3642 18.7517 20.1812 18.228 20.133 18.3931Z" fill="#2A2A2A"/>
<path d="M7.57052 19.0025C7.35032 19.2965 7.83952 19.4617 14.3394 21.3595C20.8392 23.2573 21.3405 23.3813 21.3131 23.015C21.2968 22.7639 21.2203 22.7192 21.1162 22.8455C20.9106 23.1662 7.82837 19.3465 7.82762 18.9656C7.80789 18.803 7.71933 18.7996 7.57052 19.0025Z" fill="#2A2A2A"/>
<path d="M4.85892 20.3157C4.01019 20.5381 3.31193 20.7821 3.28783 20.8647C3.26373 20.9472 3.55683 21.3239 3.96515 21.6894C4.34681 22.0696 5.06284 22.8385 5.5674 23.4113C6.07798 23.9635 6.53871 24.4563 6.60062 24.4744C6.66252 24.4924 7.14389 24.9913 7.64845 25.5641C8.15301 26.1369 8.61374 26.6297 8.65501 26.6418C8.71692 26.6598 9.06333 27.0073 9.43294 27.4287C9.80255 27.8502 10.1197 28.1443 10.1378 28.0824C10.1559 28.0205 9.82937 27.2981 9.4444 26.4692C8.11071 23.7508 6.85353 21.0772 6.59402 20.5088L6.36117 19.9257L4.85892 20.3157Z" fill="#2A2A2A"/>
<path d="M8.24716 21.977C9.12192 23.8895 10.563 26.9303 11.3888 28.627L11.8993 29.7166L13.0637 29.0265C15.058 27.7949 17.503 26.247 19.1421 25.1581L20.722 24.119L14.0777 22.179L7.45402 20.245L8.24716 21.977Z" fill="#2A2A2A"/>
<path d="M21.3385 24.7692C21.1072 24.948 20.058 25.6269 19.0208 26.2646C15.9507 28.1898 14.9668 28.7983 14.5635 29.106C14.1661 29.3931 14.6924 29.278 19.4236 28.1065C20.7513 27.7776 22.2948 27.3997 22.8744 27.2554C23.4273 27.1258 23.9037 26.9513 23.9218 26.8894C23.97 26.7244 23.8556 26.579 22.5671 25.2399L21.7806 24.4056L21.3385 24.7692Z" fill="#2A2A2A"/>
<path d="M17.6715 3.81289C12.967 4.96974 12.3547 5.14927 12.4389 5.39779C12.4586 5.56031 12.4113 5.56889 12.291 5.44418C12.1913 5.32549 11.2841 5.44131 10.2875 5.71015C9.27022 5.97297 8.40086 6.1894 8.33896 6.17133C8.27706 6.15325 7.74478 6.28895 7.16776 6.50117C6.25367 6.79411 6.04898 6.95828 5.72289 7.69163C5.19632 8.8815 3.52804 15.5155 3.79117 15.458C3.89178 15.4202 3.96227 15.4856 3.92612 15.6094C3.89599 15.7126 3.75667 15.8062 3.62082 15.8114C3.43767 15.8251 3.11414 16.6263 2.64766 18.1473L1.94622 20.4729L2.4181 21.081C2.67595 21.425 3.3361 22.1552 3.85271 22.6867C4.38996 23.2243 5.29425 24.1153 5.86072 24.7062C6.43321 25.2764 7.09938 25.986 7.34865 26.2827C7.58587 26.6207 7.93319 26.8117 8.18426 26.7954C8.43534 26.7791 8.51185 26.8239 8.38714 26.9442C8.11106 27.1995 10.9898 30.3018 11.6707 30.5006C12.0009 30.597 13.1712 30.4237 14.4636 30.062C15.6881 29.703 16.7673 29.4582 16.8911 29.4944C16.9943 29.5245 17.2282 29.4137 17.3856 29.2581C17.5696 29.0879 17.6969 29.0355 17.6668 29.1386C17.6366 29.2418 17.7665 29.2573 17.941 29.1963C18.101 29.1087 18.8964 28.9154 19.6858 28.7428C22.6008 28.116 24.0231 27.7699 24.6122 27.5164L25.2425 27.275L27.2126 20.5275L29.1888 13.7594L28.7229 13.1307C28.4917 12.7721 28.0723 12.2913 27.8316 12.0419C27.5849 11.8131 25.9267 10.0526 24.1337 8.14061C21.2403 5.01168 19.7258 3.44977 19.54 3.39555C19.4988 3.3835 18.6621 3.56469 17.6715 3.81289ZM18.9317 4.94223C18.5753 6.31615 18.1795 7.36504 17.9722 7.46128C17.8656 7.51972 17.3428 7.54623 16.8175 7.5048C14.4358 7.30205 8.62678 6.94957 8.36968 6.98646C8.2278 7.01222 8.46773 6.88073 8.88223 6.68825C9.31736 6.50179 9.71981 6.35057 9.82298 6.3807C9.90552 6.40479 10.8695 6.1712 11.9401 5.87916C13.0167 5.56649 13.9333 5.34147 13.9952 5.35955C14.0365 5.3716 15.1483 5.09161 16.4408 4.72999C17.7539 4.37439 18.8864 4.10043 18.9895 4.13056C19.0721 4.15465 19.0316 4.52351 18.9317 4.94223ZM20.6659 5.29182C21.106 5.77862 21.4791 6.11149 21.5032 6.02895C21.5273 5.94641 21.5977 6.01178 21.6441 6.15968C21.7687 6.57674 23.1156 8.02252 23.4458 8.11892C23.6109 8.16712 23.7518 8.29786 23.763 8.41308C23.7707 8.61686 25.9797 11.0981 26.2274 11.1704C26.3099 11.1945 26.5944 11.5239 26.8462 11.8886L27.3207 12.5646L26.2701 11.9443C25.3374 11.3808 22.2261 9.68864 19.7063 8.34828C19.2412 8.10051 18.8148 7.79687 18.7563 7.69023C18.5518 7.317 19.4435 4.2631 19.7117 4.34142C19.7943 4.36552 20.2318 4.78439 20.6659 5.29182ZM16.9934 8.74302C16.5358 9.23644 14.8758 10.8568 11.6092 14.0682C9.94325 15.7091 9.13564 16.481 8.15256 17.4704C7.54963 18.0782 6.98889 18.5415 6.90635 18.5174C6.82381 18.4933 6.75604 17.9584 6.77427 17.3591C6.79852 16.7392 6.70409 16.219 6.62155 16.1949C6.51838 16.1647 6.50121 16.0701 6.59324 15.985C6.68526 15.8999 6.72007 14.4769 6.66465 12.826C6.61526 11.1545 6.57792 9.44165 6.56859 9.01345C6.57989 8.59127 6.55339 8.06848 6.52507 7.85867C6.48049 7.39778 6.93535 7.37384 10.1881 7.58458C11.3953 7.66833 12.8208 7.77106 13.3668 7.81851C17.9359 8.12249 17.641 8.05878 16.9934 8.74302ZM20.4119 9.38287C21.2656 9.83367 22.2723 10.3739 22.6403 10.571C23.0082 10.768 24.1886 11.4037 25.2512 11.9827C28.1063 13.5553 28.4768 13.8203 28.1912 14.1847C28.0545 14.3464 27.7508 14.7727 27.5332 15.1347C27.2949 15.4906 26.2704 17.0053 25.2725 18.5055C24.2541 19.9996 23.1582 21.6054 22.8364 22.0937C22.5293 22.6087 22.2171 22.9878 22.1346 22.9637C22.052 22.9396 21.8287 22.2474 21.6475 21.4107C21.4603 20.5946 21.2301 19.5421 21.1176 19.0838C21.0051 18.6255 20.769 17.5936 20.5964 16.8042C20.4238 16.0148 20.2073 15.1455 20.1498 14.8823C20.0716 14.6132 19.8844 13.7971 19.735 13.0817C19.565 12.3603 19.2773 11.0446 19.0936 10.14C18.8832 9.25001 18.7544 8.54061 18.7957 8.55266C18.8163 8.55868 19.5582 8.93207 20.4119 9.38287ZM18.2667 9.1372C18.3182 9.42096 18.6462 10.9051 19.0095 12.422C20.3269 17.9572 20.9057 20.4999 21.2509 22.0787L21.5411 23.4622L14.3397 21.3596L7.13829 19.2569L8.1274 18.2469C8.66495 17.7096 9.63599 16.7615 10.2656 16.1392C10.9158 15.5228 11.7681 14.6744 12.2076 14.2429C12.6471 13.8114 13.9596 12.5375 15.1207 11.3985C16.2818 10.2596 17.4103 9.15587 17.6064 8.9444C17.8085 8.7123 18.0132 8.54813 18.0751 8.56621C18.137 8.58428 18.2212 8.8328 18.2667 9.1372ZM6.21217 16.5232C6.2334 17.4475 6.25719 18.4398 6.25282 18.6848C6.24755 19.0864 6.09618 19.2213 5.38933 19.418C4.92498 19.5512 4.56636 19.7824 4.59814 19.9036C4.6385 20.0722 4.59121 20.0807 4.47086 19.956C4.37116 19.8373 3.99627 19.8175 3.65317 19.9188C3.31006 20.0202 2.98503 20.0596 2.95581 20.0063C2.93262 19.9324 3.46973 17.9394 4.15656 15.5871C4.88301 13.0224 5.3427 11.1412 5.26107 10.9606C5.16483 10.7534 5.22161 10.6356 5.39618 10.5746C5.51742 10.5428 5.71097 10.2634 5.82198 9.95992C5.98721 9.47072 6.10874 11.432 6.21217 16.5232ZM26.2734 21.5969C25.4317 24.1727 24.7166 26.3152 24.6693 26.3238C24.5833 26.3883 22.3269 23.9156 22.357 23.8124C22.363 23.7918 23.0452 22.7593 23.8701 21.5446C24.7011 20.3092 25.9131 18.5357 26.5299 17.5738C28.1652 15.1177 28.1314 15.8468 26.2734 21.5969ZM20.9322 24.0906C20.89 24.235 18.4536 25.8302 15.3955 27.7141C14.385 28.3372 13.2025 29.0892 12.7845 29.3702C12.3726 29.6307 11.9727 29.8498 11.8902 29.8257C11.787 29.7956 11.2 28.6613 10.5762 27.2699C9.94633 25.8991 9.31903 24.5963 9.20818 24.3624C8.64443 23.302 7.2773 20.238 7.31345 20.1142C7.33153 20.0523 10.4241 20.8881 14.159 21.9786C17.9144 23.0751 20.9503 24.0287 20.9322 24.0906ZM23.4664 25.995C23.8627 26.4018 24.1704 26.8052 24.1403 26.9084C24.1162 26.9909 23.0275 27.3448 21.7471 27.6652C20.4401 28.0001 18.8639 28.4133 18.2164 28.5601C17.5835 28.7336 17.0306 28.8633 16.9687 28.8452C16.9068 28.8272 16.3005 28.986 15.5937 29.1827C13.6357 29.7531 13.2195 29.7212 14.2033 29.1127C14.6626 28.8437 15.0745 28.5833 15.1545 28.5395C15.2345 28.4956 15.7057 28.1854 16.2303 27.8459C16.7343 27.5004 17.6648 26.9211 18.29 26.5438C18.9153 26.1665 19.9645 25.4876 20.6344 25.0337L21.8556 24.2259L22.2897 24.7333C22.5243 25.0033 23.0495 25.5822 23.4664 25.995ZM7.28979 21.6525C7.6713 22.57 8.09242 23.2752 8.21366 23.2434C8.33491 23.2116 8.39079 23.2504 8.34003 23.3475C8.15853 23.5856 9.26705 25.9247 9.51557 25.8405C9.65745 25.8148 9.66604 25.8621 9.57401 25.9472C9.45532 26.0469 9.55322 26.4785 9.76634 26.8991C10.7675 28.9157 10.7761 28.963 9.73681 27.9205C8.76203 26.9641 4.83202 22.8607 3.6759 21.605C3.31487 21.2308 3.06907 20.8456 3.14046 20.7544C3.30132 20.5103 5.87416 19.8283 6.27224 19.9222C6.44334 19.9497 6.90829 20.7349 7.28979 21.6525Z" fill="#ECECEC"/>
<path d="M15.2143 11.9188C13.8898 13.234 12.4793 14.6136 12.0785 14.9892C11.6983 15.3709 10.944 16.1136 10.4125 16.6302C9.90159 17.1528 9.15935 17.8542 8.8179 18.18C8.45581 18.4998 8.135 18.8316 8.1109 18.9141C8.08078 19.0173 10.9515 19.9227 14.4594 20.9469C17.9879 21.9771 20.8741 22.7527 20.8982 22.6701C20.9645 22.4432 20.395 20.3287 20.2102 20.1179C20.1105 19.9993 20.114 19.9107 20.1965 19.9348C20.2997 19.9649 20.2869 19.6253 20.1684 19.1876C20.0438 18.7705 19.8652 18.0018 19.7441 17.4962C19.617 17.0112 19.4298 16.1951 19.3293 15.6955C19.2022 15.2105 18.8303 13.6464 18.5109 12.2095C18.206 10.7993 17.8556 9.62205 17.773 9.59795C17.6699 9.56783 16.5328 10.6242 15.2143 11.9188Z" fill="#ECECEC"/>
</svg>
