<svg width="37" height="38" viewBox="0 0 37 38" fill="none" xmlns="http://www.w3.org/2000/svg">
<path d="M23.5079 2.17899V4.35798H26.2079H28.9079L25.9237 7.3896L22.9394 10.4212L20.4762 9.28437C16.8762 7.62645 15.2656 7.43697 12.1866 8.38436C10.1024 9.00016 9.2971 9.47385 8.91815 10.4686C8.49183 11.416 8.39709 11.4634 8.5392 10.7054C8.72867 9.61596 8.44446 9.56859 6.36021 10.4212C3.09174 11.7476 0.628542 15.5371 0.439065 19.5161C0.391696 20.9372 0.202219 23.1162 0.0601117 24.3478C-0.271473 27.0005 0.77065 29.7479 3.13911 32.4953C4.98651 34.5795 6.73917 35.5743 8.25498 35.3374C8.91815 35.1953 9.24973 35.3374 9.06026 35.6216C8.77604 36.0953 8.91815 36.1427 11.0971 36.2374C11.8077 36.2374 12.6603 36.5217 12.9445 36.8532C13.5603 37.4217 15.4077 37.3743 18.5341 36.7585C22.1815 36.0006 27.0132 31.4532 27.5816 28.2794C27.7237 27.5215 27.9132 26.7636 28.0553 26.5741C28.15 26.3847 28.0553 26.0531 27.7711 25.911C27.4395 25.7215 27.4395 25.3899 27.6763 25.0583C28.9553 23.4478 29.1922 21.1267 28.4343 18.5687C28.0079 17.1477 27.2974 15.395 26.7763 14.7318L25.9237 13.5002L29.0027 10.4686L32.0343 7.48434V10.1844V12.8844H34.1659H36.3449L36.2028 6.48959C36.0607 0.710548 35.966 0.0947495 35.208 0.0947495C34.7344 0.0947495 34.4975 0.284225 34.6396 0.568443C34.7817 0.852657 34.5923 0.900024 34.2133 0.757919C33.7396 0.568443 33.4554 0.710548 33.4554 1.0895C33.4554 1.51582 33.3133 1.56319 33.0764 1.27898C32.887 0.994762 32.2238 0.757919 31.5606 0.710548C30.8975 0.61581 28.8132 0.426334 26.9658 0.284225L23.5079 1.14441e-05V2.17899ZM19.1973 13.5476C23.6973 15.9161 25.7342 22.1214 23.5552 26.9057C21.6605 31.0742 16.2604 33.869 12.1866 32.7795C9.24973 32.0216 7.16549 30.6005 5.69705 28.3742C4.46545 26.5741 4.32334 26.0057 4.32334 22.5951C4.32334 19.2793 4.46545 18.5687 5.60231 17.0056C8.6813 12.5055 14.413 11.0844 19.1973 13.5476Z" fill="#ECECEC"/>
</svg>
