<svg width="439" height="295" viewBox="0 0 439 295" fill="none" xmlns="http://www.w3.org/2000/svg">
<rect y="295" width="295" height="439" rx="20" transform="rotate(-90 0 295)" fill="url(#paint0_linear_129_2575)"/>
<path d="M67.9 64.61L68.02 44.48L67.93 41.18C68.2 41.15 68.5 41.15 68.8 41.15C73.15 41 79.69 40.79 80.02 46.43C80.11 48.02 79.66 49.4 78.7 50.48C78.49 50.69 78.28 50.9 78.04 51.11C78.46 51.35 78.85 51.68 79.24 52.04C80.8 53.54 81.55 55.58 81.46 58.13C81.4 60.11 80.68 61.73 79.3 62.93C77.35 64.58 74.53 64.97 72.1 64.97C70.48 64.97 69.04 64.79 68.17 64.67L67.9 64.61ZM76.69 46.61C76.63 45.26 75.49 44.66 73.18 44.48L73.15 49.49C74.98 49.22 75.82 48.68 76.21 48.26C76.45 47.99 76.75 47.54 76.69 46.61ZM77.14 60.38C77.8 59.84 78.13 59.06 78.16 58.01C78.19 56.45 77.8 55.28 76.93 54.44C75.88 53.42 74.32 53.09 73.12 53L73.09 61.61C74.62 61.52 76.18 61.22 77.14 60.38ZM100.718 42.41H96.1279V62.63H100.718V42.41ZM90.8479 58.13C91.2079 57.86 91.5979 57.47 91.5979 57.02C91.5979 56.3 91.5979 54.5 87.9679 54.05L87.9979 59.18C89.0179 59.03 90.0979 58.7 90.8479 58.13ZM87.9379 50.54C94.3279 51.2 95.0779 55.22 95.0779 57.02C95.0779 58.49 94.3279 59.87 92.9479 60.92C91.3879 62.06 89.1679 62.72 87.1279 62.72C86.7379 62.72 86.3179 62.69 85.9279 62.63L83.1379 62.66L82.9879 43.1L87.8479 43.04L87.9379 50.54ZM107.509 49.97C113.959 50.6 114.679 54.65 114.679 56.48C114.679 57.95 113.929 59.36 112.519 60.38C110.959 61.55 108.739 62.24 106.699 62.21C106.699 62.21 106.279 62.21 102.679 62.15L102.529 43.04H112.549V46.55H107.449L107.509 49.97ZM110.449 57.59C110.779 57.32 111.199 56.93 111.199 56.48C111.199 55.73 111.199 53.93 107.539 53.48L107.569 58.64C108.589 58.49 109.669 58.16 110.449 57.59ZM126.958 45.17H120.598V48.98H124.528V53.15H120.598V60.05H126.958V64.97H120.598H115.888V60.05V53.15V48.98V45.17V41H120.598H126.958V45.17ZM128.457 48.62V42.68C132.807 42.68 140.097 42.68 140.577 49.31C140.697 51.26 140.097 52.94 138.777 54.17C137.367 55.52 135.417 56.12 133.557 56.36V65H128.457V48.62ZM136.527 51.8C137.127 51.23 137.367 50.51 137.307 49.55C137.157 47.6 135.927 46.7 133.557 46.28V53.03C134.787 52.82 135.867 52.43 136.527 51.8ZM155.853 42.08L156.063 65H152.913L152.853 52.13L146.523 63.95H146.463L142.203 63.86L142.473 41L145.683 41.09L145.713 54.92L152.553 42.08H155.853ZM169.511 42.14V46.91H165.671L165.791 63.59H161.471L161.351 46.91H157.271V42.14H169.511ZM181.773 45.17H175.413V48.98H179.343V53.15H175.413V60.05H181.773V64.97H175.413H170.703V60.05V53.15V48.98V45.17V41H175.413H181.773V45.17ZM191.416 41.09L203.236 41.03V65H199.606V45.83H196.066L196.156 65.06L191.416 65V41.09ZM211.969 46.97C210.649 46.97 208.189 46.97 208.189 53.21C208.189 57.95 208.879 58.7 210.529 58.7C212.689 58.7 213.349 55.19 213.589 53.09C213.919 49.76 213.259 47.87 212.539 47.21C212.299 47 212.119 46.97 211.969 46.97ZM210.439 63.56C204.739 63.56 204.739 57.53 204.739 53.54C204.739 46.16 207.079 42.56 211.849 42.56C213.019 42.56 214.069 43.04 214.879 43.94C216.529 45.74 217.189 49.1 216.799 53.66C216.259 60.23 214.099 63.56 210.439 63.56ZM218.621 42.56L218.501 41.27L229.211 41L229.181 64.94H223.931L223.961 46.34L222.161 46.37C222.401 53.93 222.071 60.92 219.311 63.89C218.441 64.85 217.301 65.33 216.101 65.36L216.011 62C216.221 62 216.521 61.94 216.851 61.58C219.431 58.82 219.011 47.57 218.621 42.56ZM239.17 41.09L250.99 41.03V65H247.36V45.83H243.82L243.91 65.06L239.17 65V41.09ZM263.863 45.17H257.503V48.98H261.433V53.15H257.503V60.05H263.863V64.97H257.503H252.793V60.05V53.15V48.98V45.17V41H257.503H263.863V45.17ZM265.361 48.62V42.68C269.711 42.68 277.001 42.68 277.481 49.31C277.601 51.26 277.001 52.94 275.681 54.17C274.271 55.52 272.321 56.12 270.461 56.36V65H265.361V48.62ZM273.431 51.8C274.031 51.23 274.271 50.51 274.211 49.55C274.061 47.6 272.831 46.7 270.461 46.28V53.03C271.691 52.82 272.771 52.43 273.431 51.8ZM287.958 63.92C287.778 63.92 287.598 63.92 287.418 63.92C283.008 63.71 278.538 59.87 278.538 51.77C278.538 48.41 279.528 45.71 281.388 43.91C282.888 42.47 284.808 41.75 286.938 41.84C290.838 41.99 293.238 43.67 294.318 46.94L290.028 48.32C289.728 47.39 289.428 46.43 286.757 46.34C285.857 46.31 285.108 46.58 284.508 47.15C283.548 48.05 283.038 49.7 283.038 51.77C283.038 57.26 285.498 59.33 287.628 59.42C289.218 59.48 289.428 59.24 290.328 58.01C290.418 57.89 290.508 57.77 290.628 57.65L294.168 60.38C294.078 60.5 294.018 60.62 293.928 60.74C292.848 62.15 291.528 63.92 287.958 63.92ZM302.291 46.97C300.971 46.97 298.511 46.97 298.511 53.21C298.511 57.95 299.201 58.7 300.851 58.7C303.011 58.7 303.671 55.19 303.911 53.09C304.241 49.76 303.581 47.87 302.861 47.21C302.621 47 302.441 46.97 302.291 46.97ZM300.761 63.56C295.061 63.56 295.061 57.53 295.061 53.54C295.061 46.16 297.401 42.56 302.171 42.56C303.341 42.56 304.391 43.04 305.201 43.94C306.851 45.74 307.511 49.1 307.121 53.66C306.581 60.23 304.421 63.56 300.761 63.56ZM316.43 42.44H320.42V64.76H316.43V55.34H312.89L312.74 65.12L308.75 65.06L309.08 41L313.1 41.06L312.98 49.76H316.43V42.44ZM332.336 41.24L335.636 64.64L331.856 64.88L331.106 59.48L327.446 59.6L326.336 65L321.926 64.88L326.696 41L332.336 41.24ZM327.926 54.71L330.626 54.47L329.396 45.65L327.926 54.71ZM349.138 65H344.848V53.3L344.758 53.21L340.498 64.79L336.598 64.73L341.908 50.15L336.538 41.03L341.608 41L344.848 47.84V41H349.138L349.108 47.84L352.018 40.97L357.118 41L352.048 50.15L357.358 64.73L353.458 64.79L349.198 53.21L349.108 53.3L349.138 65ZM368.664 41.24L371.964 64.64L368.184 64.88L367.434 59.48L363.774 59.6L362.664 65L358.254 64.88L363.024 41L368.664 41.24ZM364.254 54.71L366.954 54.47L365.724 45.65L364.254 54.71Z" fill="#FFEED5"/>
<g opacity="0.3">
<path d="M420.656 3.53919C420.754 3.94983 420.941 4.63422 421.193 5.45548L406.368 5.45548C410.841 4.22358 416.807 2.93085 420.623 3.53919M425.009 7.35657C425.458 9.02955 426.818 13.288 429.099 14.018L429.099 16.5883C426.401 15.6149 424.274 11.0219 422.969 7.35657L425.009 7.35657ZM425.009 277.312L423.046 277.312C424.351 273.677 426.445 269.236 429.099 268.278L429.099 270.65C426.818 271.38 425.458 275.639 425.009 277.312ZM420.623 281.327C416.565 281.966 410.162 280.505 405.622 279.213L421.215 279.213C420.941 280.125 420.732 280.87 420.623 281.327ZM7.33778 270.681L7.33778 266.863C9.28961 271.806 13.0178 275.395 15.4631 277.312L11.4827 277.312C11.0331 275.639 9.6734 271.38 7.38164 270.65M11.4827 7.35657L15.4631 7.35657C13.0178 9.24246 9.28961 12.8622 7.37067 17.8202L7.37067 14.018C9.66244 13.288 11.0221 9.02954 11.4717 7.35657M16.0881 8.63412C16.8448 8.02576 17.4588 7.59991 17.8426 7.35657L414.789 7.35657C410.621 8.16022 406.42 8.58698 402.212 8.63413L16.0881 8.63412ZM418.605 277.312C413.169 276.041 407.67 275.354 402.157 275.258L15.1561 275.258C12.2283 272.749 8.19307 268.262 7.37067 262.361L7.37067 22.3068C8.16018 16.4058 12.2393 11.9192 15.1671 9.39456L402.245 9.39457C407.757 9.30436 413.256 8.62299 418.693 7.35657L421.884 7.35657C423.287 11.4629 425.809 17.1662 429.241 18.1548L429.241 266.711C425.864 267.685 423.364 273.22 421.949 277.357L418.605 277.312ZM17.8316 277.312C17.4588 277.053 16.8448 276.627 16.0772 276.019L402.19 276.019C406.398 276.072 410.599 276.503 414.767 277.312L17.8316 277.312ZM401.247 5.45548L10.4739 5.45547L10.3862 6.12466C10.0024 7.81284 8.5988 12.2082 6.74565 12.2082L6 12.2082L6 272.445L6.69082 272.445C8.54397 272.445 9.98043 276.84 10.3313 278.528L10.4739 279.198L400.666 279.198C403.462 280.186 415.008 283.958 421.138 282.772L421.478 282.772L421.577 282.315C421.577 282.315 421.895 281.007 422.454 279.274L426.05 279.274L426.204 278.604C426.577 276.901 427.969 272.521 429.844 272.521L430.524 272.521L430.524 12.2842L429.844 12.2842C427.98 12.2842 426.555 7.87369 426.204 6.20072L426.05 5.53153L422.388 5.53153C421.873 3.88898 421.588 2.71793 421.577 2.6875L421.478 2.23124L421.138 2.23124C415.348 1.10578 404.811 4.39087 401.247 5.59238" fill="white"/>
</g>
<line x1="35" y1="81.5" x2="407" y2="81.5" stroke="url(#paint1_linear_129_2575)"/>
<defs>
<linearGradient id="paint0_linear_129_2575" x1="33.2839" y1="430.517" x2="242.369" y2="553.345" gradientUnits="userSpaceOnUse">
<stop stop-color="#121212"/>
<stop offset="0.528673" stop-color="#272727"/>
<stop offset="1" stop-color="#121212"/>
</linearGradient>
<linearGradient id="paint1_linear_129_2575" x1="35" y1="82.5" x2="407" y2="82.5" gradientUnits="userSpaceOnUse">
<stop stop-color="#747474" stop-opacity="0"/>
<stop offset="0.500188" stop-color="#A7A7A7"/>
<stop offset="1" stop-color="#DADADA" stop-opacity="0"/>
</linearGradient>
</defs>
</svg>
