<svg width="62" height="58" viewBox="0 0 62 58" fill="none" xmlns="http://www.w3.org/2000/svg">
<g clip-path="url(#clip0_225_2918)">
<path d="M60.4325 5.89053V51.8269L55.4944 56.765H5.78387L0.833984 51.8269L0.833984 5.89053L5.78387 0.940643L55.4944 0.940643L60.4325 5.89053Z" fill="#262626"/>
<path d="M54.8583 56.3182H51.7308C54.1385 55.2659 56.1831 53.528 57.6095 51.3213V51.239C58.5024 49.8644 59.2101 48.3779 59.7141 46.8182V51.3801L54.8583 56.3182ZM1.62057 51.3801V46.8182C2.12462 48.3779 2.83226 49.8644 3.72516 51.239V51.3213H3.78394C5.23227 53.5405 7.30697 55.2796 9.74497 56.3182H6.5587L1.62057 51.3801ZM6.5587 1.62256L9.74497 1.62256C7.30433 2.65684 5.2285 4.39693 3.78394 6.61947H3.72516V6.70177C2.83226 8.0764 2.12462 9.56283 1.62057 11.1226V6.56069L6.5587 1.62256ZM57.6918 8.04212C57.88 8.39485 58.0916 8.72406 58.268 9.10029C58.9605 10.5779 59.4736 12.1331 59.7964 13.7327V44.1492C59.3855 46.1525 58.6761 48.0826 57.6918 49.8751V8.04212ZM1.62057 13.7915C2.03148 11.7883 2.74092 9.85813 3.72516 8.06564L3.72516 49.8986C3.53704 49.5459 3.3254 49.2167 3.14904 48.8405C2.45818 47.3622 1.94511 45.8072 1.62057 44.208L1.62057 13.7915ZM49.3793 56.3182H11.9906C8.98881 55.6184 6.35596 53.8241 4.60697 51.286L4.60697 6.67826C6.37242 4.13635 9.0144 2.33595 12.0259 1.62256L49.3793 1.62256C52.3766 2.32566 55.0071 4.11423 56.763 6.64299V51.3213C54.9958 53.834 52.3689 55.6118 49.3793 56.3182M59.7964 6.56069V11.1226C59.2924 9.56283 58.5847 8.0764 57.6918 6.70177V6.61947C56.2473 4.39693 54.1714 2.65684 51.7308 1.62256H54.9171L59.7964 6.56069ZM55.5285 3.05176e-05L5.87677 3.05176e-05L-0.00195312 5.87875L-0.00195312 52.0502L5.87677 57.929H55.5285L61.4072 52.0502V5.87875L55.5285 3.05176e-05Z" fill="#ECECEC" fill-opacity="0.7"/>
</g>
<defs>
<clipPath id="clip0_225_2918">
<rect width="61.4209" height="57.9407" fill="white"/>
</clipPath>
</defs>
</svg>
