<svg width="36" height="39" viewBox="0 0 36 39" fill="none" xmlns="http://www.w3.org/2000/svg">
<path d="M24.1793 2.74722C17.5123 9.14622 14.564 11.8934 14.229 11.9939C13.9945 12.061 13.8605 11.1899 13.8605 9.31374C13.8605 6.66703 13.7935 6.43251 12.9224 5.59494C11.4148 4.12083 10.9792 4.38885 10.3762 7.00205C10.0747 8.30866 9.84015 9.91679 9.84015 10.6203C9.84015 11.3239 9.60563 13.7026 9.37112 15.8803C8.76807 20.8722 7.76299 23.0498 5.3508 24.6915C4.01069 25.596 3.40764 25.797 1.90002 25.797C0.794436 25.797 0.157885 25.9311 0.291896 26.1321C0.392404 26.2996 0.325398 26.4671 0.124382 26.4671C-0.0766335 26.4671 -0.0431308 26.8356 0.291896 27.4722C0.559917 28.0082 0.794436 28.6783 0.794436 28.9798C0.794436 29.2478 0.928446 29.4823 1.09596 29.4823C1.22997 29.4823 1.632 30.1189 1.93353 30.8894C2.23505 31.6935 3.00561 32.9666 3.67566 33.7372C5.18328 35.5128 10.0077 38.7626 11.3478 38.8966C12.2858 39.0306 12.3529 38.9636 12.2523 38.0925C12.0513 36.1494 13.894 32.0285 15.8371 30.1189C17.0432 28.9463 19.6899 27.1707 22.0686 25.9646C23.5762 25.2275 25.3519 23.6864 29.1377 19.9006C34.7326 14.3056 35.4697 13.4346 35.1347 12.396C34.6991 11.0224 33.4595 11.5919 30.2433 14.6407C27.3955 17.3879 26.2565 18.2254 26.2565 17.5219C26.2565 17.3544 28.3336 15.1432 30.9133 12.6305C35.1012 8.47617 35.5367 7.94013 35.4697 7.00205C35.3692 6.03048 34.8666 5.39393 34.1966 5.36042C33.9286 5.36042 25.4189 13.1665 25.0839 13.7696C24.8158 14.2051 24.2463 14.1381 24.2463 13.7026C24.2463 13.5016 26.424 11.1564 29.1042 8.54318C32.756 4.95839 34.0291 3.48428 34.1631 2.68021C34.3976 1.54112 33.9956 1.00508 32.823 1.00508C32.4879 1.00508 29.9082 3.21626 26.9265 6.03048C24.0453 8.7777 21.5661 11.0559 21.4321 11.0559C20.6615 11.0559 21.7671 9.64877 25.2514 6.23149C27.4625 4.05382 29.4057 2.04366 29.5732 1.74214C30.0758 0.837566 29.4057 0 28.1661 0C27.228 0 26.5915 0.435535 24.1793 2.74722Z" fill="#ABABAB"/>
</svg>
