<svg width="62" height="59" viewBox="0 0 62 59" fill="none" xmlns="http://www.w3.org/2000/svg">
<g clip-path="url(#clip0_225_2865)">
<path d="M60.7203 5.91856V52.0737L55.7586 57.0354H5.81136L0.837891 52.0737L0.837891 5.91856L5.81136 0.945099L55.7586 0.945099L60.7203 5.91856Z" fill="#262626"/>
<path d="M55.1196 56.5865H51.9772C54.3964 55.5292 56.4508 53.783 57.884 51.5658V51.4831C58.7811 50.1019 59.4921 48.6084 59.9986 47.0412V51.6248L55.1196 56.5865ZM1.6283 51.6248V47.0412C2.13475 48.6084 2.84576 50.1019 3.74291 51.4831V51.5658H3.80198C5.25721 53.7955 7.34178 55.543 9.7914 56.5865H6.58995L1.6283 51.6248ZM6.58995 1.63029L9.7914 1.63029C7.33914 2.66949 5.25342 4.41788 3.80198 6.65101H3.74291V6.7337C2.84576 8.11488 2.13475 9.60839 1.6283 11.1756V6.59194L6.58995 1.63029ZM57.9667 8.08044C58.1557 8.43484 58.3683 8.76562 58.5455 9.14365C59.2414 10.6283 59.7569 12.1909 60.0813 13.7982V44.3596C59.6684 46.3723 58.9556 48.3117 57.9667 50.1127V8.08044ZM1.6283 13.8572C2.04116 11.8444 2.75398 9.9051 3.74291 8.10406L3.74291 50.1363C3.5539 49.7819 3.34125 49.4512 3.16405 49.0731C2.4699 47.5878 1.95438 46.0254 1.6283 44.4186L1.6283 13.8572ZM49.6146 56.5865H12.0478C9.03164 55.8834 6.38625 54.0805 4.62892 51.5303L4.62892 6.71007C6.40279 4.15606 9.05735 2.34708 12.0832 1.63029L49.6146 1.63029C52.6261 2.33674 55.2691 4.13383 57.0334 6.67463V51.5658C55.2578 54.0905 52.6184 55.8767 49.6146 56.5865ZM60.0813 6.59194V11.1756C59.5748 9.60839 58.8638 8.11488 57.9667 6.7337V6.65101C56.5152 4.41788 54.4295 2.66949 51.9772 1.63029H55.1787L60.0813 6.59194ZM55.793 3.05176e-05L5.90477 3.05176e-05L-0.00195312 5.90676L-0.00195312 52.2982L5.90477 58.2049H55.793L61.6997 52.2982V5.90676L55.793 3.05176e-05Z" fill="#ECECEC" fill-opacity="0.7"/>
</g>
<path d="M37.6305 12.4995C30.9634 18.8985 28.0152 21.6458 27.6802 21.7463C27.4457 21.8133 27.3116 20.9422 27.3116 19.0661C27.3116 16.4193 27.2446 16.1848 26.3736 15.3473C24.8659 13.8731 24.4304 14.1412 23.8274 16.7544C23.5258 18.061 23.2913 19.6691 23.2913 20.3727C23.2913 21.0762 23.0568 23.4549 22.8223 25.6326C22.2192 30.6245 21.2142 32.8021 18.802 34.4438C17.4619 35.3483 16.8588 35.5494 15.3512 35.5494C14.2456 35.5494 13.6091 35.6834 13.7431 35.8844C13.8436 36.0519 13.7766 36.2194 13.5756 36.2194C13.3745 36.2194 13.408 36.5879 13.7431 37.2245C14.0111 37.7605 14.2456 38.4306 14.2456 38.7321C14.2456 39.0001 14.3796 39.2347 14.5471 39.2347C14.6811 39.2347 15.0832 39.8712 15.3847 40.6418C15.6862 41.4458 16.4568 42.7189 17.1268 43.4895C18.6345 45.2651 23.4588 48.5149 24.7989 48.6489C25.737 48.7829 25.804 48.7159 25.7035 47.8448C25.5025 45.9017 27.3451 41.7809 29.2883 39.8712C30.4944 38.6986 33.1411 36.923 35.5198 35.7169C37.0274 34.9798 38.8031 33.4387 42.5889 29.6529C48.1838 24.0579 48.9209 23.1869 48.5858 22.1483C48.1503 20.7747 46.9107 21.3442 43.6944 24.393C40.8467 27.1402 39.7076 27.9778 39.7076 27.2742C39.7076 27.1067 41.7848 24.8955 44.3645 22.3828C48.5523 18.2285 48.9879 17.6924 48.9209 16.7544C48.8204 15.7828 48.3178 15.1462 47.6478 15.1127C47.3797 15.1127 38.8701 22.9189 38.535 23.5219C38.267 23.9574 37.6975 23.8904 37.6975 23.4549C37.6975 23.2539 39.8751 20.9087 42.5554 18.2955C46.2071 14.7107 47.4802 13.2366 47.6143 12.4325C47.8488 11.2934 47.4467 10.7574 46.2741 10.7574C45.9391 10.7574 43.3594 12.9686 40.3777 15.7828C37.4965 18.53 35.0173 20.8082 34.8832 20.8082C34.1127 20.8082 35.2183 19.4011 38.7025 15.9838C40.9137 13.8061 42.8569 11.796 43.0244 11.4945C43.5269 10.5899 42.8569 9.75232 41.6173 9.75232C40.6792 9.75232 40.0427 10.1879 37.6305 12.4995Z" fill="#ABABAB"/>
<defs>
<clipPath id="clip0_225_2865">
<rect width="61.7135" height="58.2167" fill="white"/>
</clipPath>
</defs>
</svg>
