<svg width="61" height="58" viewBox="0 0 61 58" fill="none" xmlns="http://www.w3.org/2000/svg">
<g clip-path="url(#clip0_225_2808)">
<path d="M59.4703 5.7968V51.0021L54.6108 55.8616H5.69142L0.820313 51.0021L0.820313 5.7968L5.69142 0.92569L54.6108 0.92569L59.4703 5.7968Z" fill="#262626"/>
<path d="M53.9852 55.4219H50.9075C53.2769 54.3864 55.289 52.6762 56.6927 50.5045V50.4236C57.5713 49.0708 58.2677 47.608 58.7637 46.0731V50.5624L53.9852 55.4219ZM1.59475 50.5624V46.0731C2.09078 47.608 2.78715 49.0708 3.66584 50.4236V50.5045H3.72369C5.14897 52.6884 7.19065 54.3999 9.58985 55.4219H6.45429L1.59475 50.5624ZM6.45429 1.59677L9.58985 1.59677C7.18806 2.61458 5.14526 4.32699 3.72369 6.51416H3.66584V6.59515C2.78715 7.9479 2.09078 9.41067 1.59475 10.9456V6.4563L6.45429 1.59677ZM56.7736 7.91417C56.9588 8.26128 57.167 8.58524 57.3406 8.95549C58.0221 10.4096 58.5271 11.9401 58.8447 13.5142V43.4466C58.4404 45.418 57.7422 47.3174 56.7736 49.0814V7.91417ZM1.59475 13.5721C1.99912 11.6007 2.69727 9.70127 3.66584 7.93731L3.66584 49.1045C3.48072 48.7574 3.27245 48.4335 3.0989 48.0632C2.41903 46.6085 1.91412 45.0782 1.59475 43.5045L1.59475 13.5721ZM48.5934 55.4219H11.7998C8.84573 54.7333 6.25478 52.9675 4.53362 50.4698L4.53362 6.57201C6.27097 4.07055 8.87091 2.29881 11.8345 1.59677L48.5934 1.59677C51.543 2.28868 54.1316 4.04879 55.8596 6.5373V50.5045C54.1206 52.9773 51.5354 54.7268 48.5934 55.4219ZM58.8447 6.4563V10.9456C58.3487 9.41067 57.6523 7.9479 56.7736 6.59515V6.51416C55.3521 4.32699 53.3093 2.61458 50.9075 1.59677H54.043L58.8447 6.4563ZM54.6447 6.10352e-05L5.78321 6.10352e-05L-0.00195312 5.78523L-0.00195312 51.2219L5.78321 57.0071H54.6447L60.4299 51.2219V5.78523L54.6447 6.10352e-05Z" fill="#ECECEC" fill-opacity="0.7"/>
</g>
<path d="M47.3045 12.6097C44.132 13.2756 42.9962 14.1764 42.0562 16.7613C41.5471 18.1321 41.4687 18.2105 41.4687 17.1922C41.4296 16.6047 41.2729 16.1347 41.0771 16.1347C40.3329 16.1347 37.4738 20.9521 36.5338 23.772C35.9855 25.4562 35.5547 27.062 35.5547 27.3361C35.5547 28.3936 36.2205 27.8453 36.9647 26.2395C38.3746 23.1062 41.9779 18.7196 44.5629 16.9963C45.8945 16.0955 47.187 15.3514 47.4611 15.3514C47.6961 15.3514 47.5395 15.6255 47.1086 15.8997C43.7404 18.2496 40.5288 21.8921 38.7271 25.4562L37.8655 27.1403L38.9621 26.8661C39.5496 26.7095 40.8421 25.887 41.8212 24.947C42.8004 24.0462 44.2495 22.8321 45.072 22.2054C46.8736 20.8738 46.9128 20.4429 45.2678 20.4038C44.2495 20.3646 44.4454 20.2471 46.2078 19.8554C48.6753 19.3463 50.3594 18.4063 50.7119 17.388C50.8686 17.0355 51.1427 16.6047 51.3386 16.4872C52.0044 16.0172 52.0827 13.5497 51.4561 13.0406C50.7119 12.4139 49.0278 12.2181 47.3045 12.6097Z" fill="#ABABAB"/>
<path d="M22.9827 20.5213C22.4343 21.0304 21.8077 21.9312 21.5335 22.5971C21.0244 23.8895 19.4577 31.0961 19.6536 31.2919C19.9277 31.5661 28.3092 32.036 29.2492 31.8402C29.7975 31.7227 31.2075 30.9786 32.3042 30.2344C33.9491 29.1378 34.3799 28.6286 34.3799 27.8061C34.3799 26.5528 35.3199 22.7537 35.9074 21.6571C36.1424 21.2262 36.3382 20.5996 36.3382 20.2079C36.3382 19.6204 36.0641 19.5813 34.3016 19.8554C31.7167 20.2863 28.5051 20.2863 25.9593 19.8946C24.236 19.6596 23.8835 19.6988 22.9827 20.5213Z" fill="#ABABAB"/>
<path d="M40.2151 27.8845C37.8651 28.2761 34.9277 29.8036 30.7761 32.8194C23.7262 37.8718 19.5746 39.6343 14.7572 39.6734C13.0339 39.6734 11.7415 39.8301 11.8198 39.9867C12.2506 40.6526 16.4022 41.1617 20.0838 41.0442C24.4312 40.9267 26.3112 40.5742 31.2461 39.0468C35.6327 37.7151 39.4318 36.736 42.8 36.1093C45.9333 35.5218 47.4216 34.8952 48.7141 33.4852C50.7116 31.3311 49.3799 28.8636 45.6592 28.002C43.3484 27.4536 42.8 27.4536 40.2151 27.8845Z" fill="#ABABAB"/>
<path d="M14.7963 29.9994C12.4072 30.5086 9.11723 32.3102 8.52974 33.3677C6.29728 37.5193 13.2297 40.0259 20.1229 37.5193C23.2953 36.3443 24.0786 35.7176 22.3161 35.7176C21.6503 35.7176 20.3187 35.5218 19.3395 35.2477C17.6946 34.8168 17.6554 34.7777 17.9296 33.6027C18.1254 32.9369 18.3212 31.7227 18.4387 30.9002C18.7129 29.2161 18.5171 29.1769 14.7963 29.9994Z" fill="#ABABAB"/>
<defs>
<clipPath id="clip0_225_2808">
<rect width="60.4434" height="57.0186" fill="white"/>
</clipPath>
</defs>
</svg>
