<svg width="44" height="29" viewBox="0 0 44 29" fill="none" xmlns="http://www.w3.org/2000/svg">
<path d="M39.201 0.202087C36.0285 0.867908 34.8927 1.76873 33.9527 4.35368C33.4436 5.72448 33.3652 5.80282 33.3652 4.7845C33.3261 4.19701 33.1694 3.72702 32.9736 3.72702C32.2294 3.72702 29.3703 8.54443 28.4303 11.3644C27.882 13.0485 27.4512 14.6543 27.4512 14.9285C27.4512 15.986 28.117 15.4376 28.8611 13.8318C30.2711 10.6986 33.8744 6.31197 36.4593 4.58867C37.791 3.68786 39.0835 2.9437 39.3576 2.9437C39.5926 2.9437 39.4359 3.21786 39.0051 3.49203C35.6369 5.84198 32.4252 9.48441 30.6236 13.0485L29.762 14.7326L30.8586 14.4585C31.4461 14.3018 32.7386 13.4793 33.7177 12.5394C34.6969 11.6385 36.146 10.4244 36.9685 9.79774C38.7701 8.4661 38.8093 8.03527 37.1643 7.99611C36.146 7.95694 36.3418 7.83944 38.1043 7.44778C40.5718 6.93863 42.2559 5.99865 42.6084 4.98033C42.765 4.62784 43.0392 4.19701 43.235 4.07951C43.9009 3.60952 43.9792 1.14207 43.3525 0.632913C42.6084 0.00625801 40.9243 -0.189571 39.201 0.202087Z" fill="#ABABAB"/>
<path d="M14.8791 8.1136C14.3308 8.62276 13.7042 9.52358 13.43 10.1894C12.9208 11.4819 11.3542 18.6884 11.55 18.8842C11.8242 19.1584 20.2057 19.6284 21.1457 19.4326C21.694 19.3151 23.104 18.5709 24.2006 17.8268C25.8456 16.7301 26.2764 16.221 26.2764 15.3985C26.2764 14.1452 27.2164 10.3461 27.8039 9.24942C28.0389 8.81859 28.2347 8.19194 28.2347 7.80028C28.2347 7.21279 27.9606 7.17362 26.1981 7.44778C23.6131 7.87861 20.4015 7.87861 17.8558 7.48695C16.1325 7.25195 15.78 7.29112 14.8791 8.1136Z" fill="#ABABAB"/>
<path d="M32.1116 15.4768C29.7616 15.8685 26.8242 17.3959 22.6726 20.4117C15.6227 25.4641 11.4711 27.2266 6.65371 27.2658C4.93041 27.2658 3.63794 27.4224 3.71627 27.5791C4.1471 28.2449 8.29868 28.7541 11.9803 28.6366C16.3277 28.5191 18.2077 28.1666 23.1426 26.6391C27.5292 25.3075 31.3283 24.3283 34.6965 23.7017C37.8298 23.1142 39.3181 22.4875 40.6106 21.0775C42.608 18.9234 41.2764 16.456 37.5556 15.5943C35.2448 15.046 34.6965 15.046 32.1116 15.4768Z" fill="#ABABAB"/>
<path d="M6.69277 17.5918C4.30365 18.1009 1.01371 19.9025 0.426226 20.96C-1.80623 25.1116 5.12614 27.6182 12.0193 25.1116C15.1918 23.9366 15.9751 23.31 14.2126 23.31C13.5468 23.31 12.2152 23.1142 11.236 22.84C9.59105 22.4092 9.55189 22.37 9.82605 21.195C10.0219 20.5292 10.2177 19.3151 10.3352 18.4926C10.6094 16.8084 10.4135 16.7693 6.69277 17.5918Z" fill="#ABABAB"/>
</svg>
