<svg width="56" height="50" viewBox="0 0 56 50" fill="none" xmlns="http://www.w3.org/2000/svg">
<path d="M39.2984 3.58914L35.915 7.27611L36.9561 8.14363L37.9537 8.96777L41.5539 5.32419C44.7638 2.11436 45.1108 1.59385 44.677 0.813078C43.8529 -0.74846 42.7251 -0.184571 39.2984 3.58914Z" fill="#ABABAB"/>
<path d="M33.3565 8.44727C33.3131 8.66415 33.3131 8.9244 33.3565 9.09791C33.3565 9.31479 33.183 9.40154 32.9227 9.31479C32.6625 9.27141 32.2287 9.53167 31.9685 9.92205C31.3178 10.9197 32.9227 13.609 34.0939 13.4789C34.5276 13.3921 35.3952 13.4789 35.9157 13.609C36.8266 13.7825 36.8699 13.9126 36.3494 14.5199C35.8289 15.1706 35.9157 15.2139 37.2603 14.9537C38.0411 14.7802 38.8652 14.65 39.0821 14.65C39.299 14.65 39.646 14.2163 39.9496 13.7391C40.2967 13.0451 40.2967 12.568 39.8629 11.7872C39.2123 10.4859 38.605 10.4426 38.605 11.6571C38.605 12.1342 38.3014 12.8282 37.9544 13.1753C37.3905 13.7825 37.3037 13.6524 37.3037 12.1342C37.3037 10.7028 37.0435 10.1823 35.9591 9.27141C34.6578 8.18701 33.4432 7.79663 33.3565 8.44727Z" fill="#ABABAB"/>
<path d="M41.5112 9.35819C40.4702 10.5293 40.6003 10.7462 42.2052 10.486L43.5933 10.2691L42.292 11.3535L40.9907 12.4813H42.5956C43.8969 12.4813 44.4174 12.1776 45.5018 10.8763C46.2392 9.96545 46.8465 9.09793 46.8465 8.92443C46.8465 8.70755 45.8055 8.57742 44.5475 8.57742C42.8125 8.57742 42.0317 8.7943 41.5112 9.35819Z" fill="#ABABAB"/>
<path d="M26.4594 16.9056C24.2038 19.3346 17.307 26.4049 11.191 32.6944C5.03162 38.984 0 44.2759 0 44.4927C0 45.2735 1.69167 46.4013 2.47243 46.0976C2.90619 45.9241 4.20748 44.7096 5.37863 43.365C6.54978 42.0203 10.3669 37.943 13.837 34.3861C24.8978 22.9782 31.8814 15.1705 31.7513 14.3464C31.3175 12.1776 30.6235 12.5246 26.4594 16.9056Z" fill="#ABABAB"/>
<path d="M40.3832 15.2573C40.0362 15.6911 39.9928 15.9513 40.3398 16.1682C41.2073 16.6887 43.0291 22.4577 42.3351 22.4577C42.205 22.4577 41.6845 21.5035 41.164 20.3323C40.6868 19.1612 39.8193 17.7731 39.212 17.2526C37.824 15.908 37.0432 16.602 36.6529 19.4648C36.436 20.8528 36.1323 21.5902 35.742 21.5902C35.0479 21.5902 34.8744 18.5105 35.5685 17.296C35.8721 16.6887 35.742 16.4285 34.9612 16.0381C33.6165 15.4308 32.9225 16.2116 30.0597 21.1998C24.8546 30.2221 24.1606 35.2103 27.1101 41.7601C28.4114 44.6663 29.9296 46.0109 33.8334 47.6592C39.8193 50.2184 43.5063 49.4376 46.239 45.0133C47.3234 43.3216 47.4969 43.1915 47.627 44.059C47.7137 44.5795 47.4969 45.6205 47.1065 46.3146C46.4125 47.7894 46.6727 47.8761 48.7114 47.0086C51.8778 45.7073 55.5214 40.372 55.5214 36.9887C55.5214 35.2103 53.6563 28.7473 52.2682 25.6676C50.9669 22.8915 47.4101 18.8142 43.94 16.0381C41.9447 14.5199 41.164 14.3464 40.3832 15.2573Z" fill="#ABABAB"/>
</svg>
