<svg width="34" height="30" viewBox="0 0 34 30" fill="none" xmlns="http://www.w3.org/2000/svg">
<path d="M2.55495 0.221001C1.96996 0.805986 1.96996 23.0663 2.55495 23.5281C2.77047 23.7128 4.12518 24.1439 5.54146 24.5133C9.17454 25.437 12.7768 26.607 14.6857 27.4691C16.6562 28.3619 16.5946 28.3619 18.5651 27.4691C20.5664 26.5762 24.3226 25.3754 27.6478 24.5749C29.0641 24.2362 30.4188 23.7744 30.6651 23.5589C31.3424 23.0047 31.1885 0.621254 30.4804 0.190212C30.2341 0.00547981 29.803 -0.0253105 29.5567 0.0670567C29.3104 0.159422 27.8633 0.559677 26.3239 0.95993C22.7524 1.91438 19.889 2.83805 18.2572 3.60777C16.6254 4.31591 16.6254 4.31591 14.9936 3.60777C13.3926 2.86883 10.56 1.94517 6.92696 0.95993C5.41831 0.559677 3.87887 0.128633 3.54019 0.0362682C3.20151 -0.0560989 2.73968 0.0362682 2.55495 0.221001Z" fill="#ABABAB"/>
<path d="M32.0813 13.5833C32.1121 20.6955 32.0197 24.3286 31.8042 24.5441C31.6195 24.7289 30.1724 25.1907 28.6022 25.591C22.7215 27.0688 19.3348 28.1464 18.6574 28.8546C18.4727 29.0085 20.8742 29.1317 24.9075 29.1317C31.0345 29.1317 31.5271 29.1009 32.3584 28.4851L33.2513 27.8693V15.7693C33.2513 3.88488 33.1897 2.96121 32.266 2.96121C32.1429 2.96121 32.0505 7.73347 32.0813 13.5833Z" fill="#ABABAB"/>
<path d="M0.369465 3.63857C0.0923663 3.91566 0 7.05612 0 15.8925V27.8077L0.677353 28.4543C1.35471 29.0701 1.72417 29.1009 8.25139 29.1317C12.0076 29.1317 15.0865 29.1009 15.0865 29.0085C15.0865 28.8238 10.499 27.0688 9.0519 26.6994C8.37455 26.5454 6.68116 26.1144 5.23409 25.7449C3.78702 25.4062 2.30916 24.9444 1.93969 24.7597L1.23155 24.421V13.8296C1.23155 8.01057 1.1084 3.2691 0.985241 3.2691C0.862086 3.2691 0.584987 3.42304 0.369465 3.63857Z" fill="#ABABAB"/>
</svg>
