<svg width="62" height="58" viewBox="0 0 62 58" fill="none" xmlns="http://www.w3.org/2000/svg">
<g clip-path="url(#clip0_225_2925)">
<path d="M60.4325 5.89056V51.8269L55.4944 56.765H5.78387L0.833984 51.8269L0.833984 5.89056L5.78387 0.940674L55.4944 0.940674L60.4325 5.89056Z" fill="#262626"/>
<path d="M54.8583 56.3182H51.7308C54.1385 55.266 56.1831 53.5281 57.6095 51.3213V51.239C58.5024 49.8644 59.2101 48.378 59.7141 46.8182V51.3801L54.8583 56.3182ZM1.62057 51.3801V46.8182C2.12462 48.378 2.83226 49.8644 3.72516 51.239V51.3213H3.78394C5.23227 53.5405 7.30697 55.2797 9.74497 56.3182H6.5587L1.62057 51.3801ZM6.5587 1.62259L9.74497 1.62259C7.30433 2.65687 5.2285 4.39696 3.78394 6.6195H3.72516V6.70181C2.83226 8.07643 2.12462 9.56286 1.62057 11.1226V6.56072L6.5587 1.62259ZM57.6918 8.04215C57.88 8.39488 58.0916 8.72409 58.268 9.10032C58.9605 10.5779 59.4736 12.1332 59.7964 13.7328V44.1493C59.3855 46.1525 58.6761 48.0827 57.6918 49.8751V8.04215ZM1.62057 13.7915C2.03148 11.7883 2.74092 9.85816 3.72516 8.06567L3.72516 49.8987C3.53704 49.5459 3.3254 49.2167 3.14904 48.8405C2.45818 47.3622 1.94511 45.8072 1.62057 44.2081L1.62057 13.7915ZM49.3793 56.3182H11.9906C8.98881 55.6185 6.35596 53.8241 4.60697 51.286L4.60697 6.67829C6.37242 4.13638 9.0144 2.33598 12.0259 1.62259L49.3793 1.62259C52.3766 2.32569 55.0071 4.11426 56.763 6.64302V51.3213C54.9958 53.834 52.3689 55.6118 49.3793 56.3182M59.7964 6.56072V11.1226C59.2924 9.56286 58.5847 8.07643 57.6918 6.70181V6.6195C56.2473 4.39696 54.1714 2.65687 51.7308 1.62259H54.9171L59.7964 6.56072ZM55.5285 6.10352e-05L5.87677 6.10352e-05L-0.00195312 5.87878L-0.00195312 52.0503L5.87677 57.929H55.5285L61.4072 52.0503V5.87878L55.5285 6.10352e-05Z" fill="#ECECEC" fill-opacity="0.7"/>
</g>
<path d="M16.9758 14.9168C16.3909 15.5018 16.3909 37.7621 16.9758 38.2239C17.1914 38.4086 18.5461 38.8397 19.9624 39.2091C23.5954 40.1328 27.1977 41.3028 29.1066 42.1648C31.0771 43.0577 31.0155 43.0577 32.986 42.1648C34.9873 41.272 38.7435 40.0712 42.0687 39.2707C43.485 38.932 44.8397 38.4702 45.086 38.2547C45.7633 37.7005 45.6094 15.317 44.9013 14.886C44.655 14.7013 44.2239 14.6705 43.9776 14.7628C43.7313 14.8552 42.2842 15.2555 40.7448 15.6557C37.1733 16.6102 34.3099 17.5338 32.6781 18.3036C31.0463 19.0117 31.0463 19.0117 29.4145 18.3036C27.8135 17.5646 24.9809 16.641 21.3479 15.6557C19.8392 15.2555 18.2998 14.8244 17.9611 14.7321C17.6224 14.6397 17.1606 14.7321 16.9758 14.9168Z" fill="#ABABAB"/>
<path d="M46.5022 28.2791C46.533 35.3913 46.4406 39.0244 46.2251 39.2399C46.0404 39.4247 44.5933 39.8865 43.0231 40.2867C37.1424 41.7646 33.7557 42.8422 33.0783 43.5504C32.8936 43.7043 35.2951 43.8275 39.3284 43.8275C45.4554 43.8275 45.948 43.7967 46.7793 43.1809L47.6722 42.5651V30.4651C47.6722 18.5807 47.6106 17.657 46.6869 17.657C46.5638 17.657 46.4714 22.4293 46.5022 28.2791Z" fill="#ABABAB"/>
<path d="M14.7904 18.3344C14.5133 18.6115 14.4209 21.7519 14.4209 30.5883V42.5035L15.0983 43.1501C15.7756 43.7659 16.1451 43.7967 22.6723 43.8275C26.4285 43.8275 29.5074 43.7967 29.5074 43.7043C29.5074 43.5196 24.9199 41.7646 23.4728 41.3951C22.7954 41.2412 21.1021 40.8102 19.655 40.4407C18.2079 40.102 16.7301 39.6402 16.3606 39.4554L15.6524 39.1168V28.5254C15.6524 22.7064 15.5293 17.9649 15.4061 17.9649C15.283 17.9649 15.0059 18.1188 14.7904 18.3344Z" fill="#ABABAB"/>
<defs>
<clipPath id="clip0_225_2925">
<rect width="61.4209" height="57.9407" fill="white"/>
</clipPath>
</defs>
</svg>
