<svg width="44" height="45" viewBox="0 0 44 45" fill="none" xmlns="http://www.w3.org/2000/svg">
<path d="M17.1277 0.144273C16.9922 0.279719 16.8906 1.43101 16.8906 2.68388V4.98645L19.2609 3.632L21.5974 2.27754L23.7645 3.46269C24.9496 4.13992 26.0332 4.6817 26.1686 4.6817C26.3041 4.6817 26.3718 3.66586 26.3041 2.37913L26.2025 0.110412L21.7667 0.00882769C19.3625 -0.0250335 17.2631 0.0426893 17.1277 0.144273Z" fill="#ABABAB"/>
<path d="M13.5046 2.95474C8.12064 5.05415 2.87212 10.5736 1.3145 15.7543C-0.0399571 20.2579 -0.310848 23.2716 0.332518 26.4207C2.29648 35.9357 8.69628 42.3356 18.1775 44.2657C22.3086 45.1122 26.9814 44.3672 31.4511 42.0985C35.3113 40.1684 38.8329 36.6468 40.763 32.7866C42.9979 28.3847 43.8783 22.9668 42.964 19.4114C41.7789 14.874 40.8646 12.7068 38.9684 10.0995C36.8351 7.15355 32.6363 3.93672 29.4195 2.81929C28.6406 2.5484 27.9296 2.31137 27.8618 2.31137C27.7941 2.31137 27.7264 2.9886 27.7264 3.80127V5.25731L30.029 6.37474C35.7515 9.2191 39.7472 15.3819 40.1874 22.0526C40.5937 28.5201 37.1737 34.9876 31.4511 38.6108C25.2884 42.5049 18.0082 42.5049 11.8115 38.6108C6.2244 35.0892 2.70282 28.3847 3.07529 22.0526C3.51549 15.3819 7.51113 9.2191 13.2676 6.37474L15.5363 5.25731V3.80127C15.5363 2.9886 15.4347 2.31137 15.2993 2.31137C15.1299 2.34523 14.3511 2.61613 13.5046 2.95474Z" fill="#ABABAB"/>
<path d="M17.3309 6.54411C12.2178 7.93243 7.9513 11.8265 5.88575 17.0411C5.07308 19.0728 4.93763 19.9194 4.90377 22.7976C4.86991 26.0821 5.00535 26.7932 6.32595 29.7392C8.18833 33.9718 11.4729 36.9855 16.1796 38.7802C18.0081 39.4912 19.024 39.6267 21.6313 39.6606C24.4079 39.6606 25.1868 39.5251 27.4555 38.6447C32.6024 36.613 35.6838 33.3285 37.9186 27.3689C38.562 25.6758 38.4943 20.1564 37.7832 18.1586C36.2256 13.6889 33.178 9.93025 29.5549 8.00015C26.0333 6.10392 21.1234 5.52827 17.3309 6.54411ZM22.9519 13.0455C23.3244 14.3322 23.8662 16.1607 24.137 17.1766C24.8143 19.5469 25.0513 19.7839 27.32 20.4273C33.0087 22.0188 33.8214 22.3574 33.8214 22.9669C33.8214 23.5764 33.0087 23.915 27.32 25.5065C25.0513 26.1499 24.8143 26.3869 24.137 28.7572C22.4778 34.5475 22.2408 35.157 21.6313 35.157C21.0218 35.157 20.7848 34.5475 19.1256 28.7572C18.4483 26.3869 18.2113 26.1499 15.9426 25.5065C10.2539 23.915 9.4412 23.5764 9.4412 22.9669C9.4412 22.3574 10.0507 22.1204 15.841 20.4611C18.2113 19.7839 18.4483 19.5469 19.0917 17.2782C20.6832 11.5895 21.0218 10.7768 21.6313 10.7768C22.1054 10.7768 22.4101 11.3186 22.9519 13.0455Z" fill="#ABABAB"/>
<path d="M20.7846 17.4475C19.7011 21.3416 19.972 21.0368 17.0599 21.8495C13.2335 22.933 13.2335 23.0008 17.0937 24.0843L19.7349 24.8631L20.5137 27.5043C21.5973 31.3645 21.665 31.3645 22.7486 27.5043L23.5274 24.8631L26.1686 24.0843C30.0288 23.0008 30.0288 22.933 26.2024 21.8495C23.2904 21.0368 23.5613 21.3416 22.4777 17.4475C22.1729 16.3978 21.8005 15.5174 21.6312 15.5174C21.4619 15.5174 21.0894 16.3978 20.7846 17.4475Z" fill="#ABABAB"/>
</svg>
