<svg width="62" height="59" viewBox="0 0 62 59" fill="none" xmlns="http://www.w3.org/2000/svg">
<g clip-path="url(#clip0_225_2848)">
<path d="M60.7203 5.91859V52.0738L55.7586 57.0354H5.81136L0.837891 52.0738L0.837891 5.91859L5.81136 0.945129L55.7586 0.945129L60.7203 5.91859Z" fill="#262626"/>
<path d="M55.1196 56.5865H51.9772C54.3964 55.5293 56.4508 53.7831 57.884 51.5658V51.4831C58.7811 50.1019 59.4921 48.6084 59.9986 47.0413V51.6249L55.1196 56.5865ZM1.6283 51.6249V47.0413C2.13475 48.6084 2.84576 50.1019 3.74291 51.4831V51.5658H3.80198C5.25721 53.7956 7.34178 55.543 9.7914 56.5865H6.58995L1.6283 51.6249ZM6.58995 1.63032L9.7914 1.63032C7.33914 2.66952 5.25342 4.41791 3.80198 6.65104H3.74291V6.73373C2.84576 8.11491 2.13475 9.60842 1.6283 11.1756V6.59197L6.58995 1.63032ZM57.9667 8.08047C58.1557 8.43487 58.3683 8.76565 58.5455 9.14368C59.2414 10.6283 59.7569 12.191 60.0813 13.7982V44.3596C59.6684 46.3724 58.9556 48.3117 57.9667 50.1127V8.08047ZM1.6283 13.8572C2.04116 11.8445 2.75398 9.90513 3.74291 8.10409L3.74291 50.1364C3.5539 49.782 3.34125 49.4512 3.16405 49.0732C2.4699 47.5878 1.95438 46.0254 1.6283 44.4187L1.6283 13.8572ZM49.6146 56.5865H12.0478C9.03164 55.8834 6.38625 54.0805 4.62892 51.5304L4.62892 6.7101C6.40279 4.15609 9.05735 2.34711 12.0832 1.63032L49.6146 1.63032C52.6261 2.33677 55.2691 4.13386 57.0334 6.67466V51.5658C55.2578 54.0905 52.6184 55.8768 49.6146 56.5865ZM60.0813 6.59197V11.1756C59.5748 9.60842 58.8638 8.11491 57.9667 6.73373V6.65104C56.5152 4.41791 54.4295 2.66952 51.9772 1.63032H55.1787L60.0813 6.59197ZM55.793 6.10352e-05L5.90477 6.10352e-05L-0.00195312 5.90679L-0.00195312 52.2982L5.90477 58.205H55.793L61.6997 52.2982V5.90679L55.793 6.10352e-05Z" fill="#ECECEC" fill-opacity="0.7"/>
</g>
<path d="M26.2195 6.89061C26.084 7.02605 25.9824 8.17734 25.9824 9.43021V11.7328L28.3527 10.3783L30.6892 9.02388L32.8563 10.209C34.0414 10.8863 35.125 11.428 35.2604 11.428C35.3959 11.428 35.4636 10.4122 35.3959 9.12546L35.2943 6.85675L30.8585 6.75516C28.4543 6.7213 26.3549 6.78902 26.2195 6.89061Z" fill="#ABABAB"/>
<path d="M22.5964 9.70107C17.2124 11.8005 11.9639 17.3199 10.4063 22.5007C9.05184 27.0042 8.78095 30.0179 9.42432 33.167C11.3883 42.6821 17.7881 49.0819 27.2693 51.012C31.4004 51.8585 36.0732 51.1136 40.5429 48.8449C44.4031 46.9148 47.9247 43.3932 49.8548 39.533C52.0897 35.131 52.9701 29.7132 52.0558 26.1577C50.8707 21.6203 49.9564 19.4532 48.0602 16.8458C45.9269 13.8999 41.7281 10.6831 38.5113 9.56563C37.7324 9.29473 37.0214 9.0577 36.9536 9.0577C36.8859 9.0577 36.8182 9.73494 36.8182 10.5476V12.0036L39.1208 13.1211C44.8433 15.9654 48.839 22.1282 49.2792 28.7989C49.6855 35.2664 46.2655 41.734 40.5429 45.3571C34.3802 49.2512 27.1 49.2512 20.9033 45.3571C15.3162 41.8355 11.7946 35.131 12.1671 28.7989C12.6073 22.1282 16.6029 15.9654 22.3594 13.1211L24.6281 12.0036V10.5476C24.6281 9.73494 24.5265 9.0577 24.3911 9.0577C24.2217 9.09157 23.4429 9.36246 22.5964 9.70107Z" fill="#ABABAB"/>
<path d="M26.4227 13.2904C21.3096 14.6788 17.0431 18.5728 14.9775 23.7875C14.1649 25.8192 14.0294 26.6657 13.9956 29.5439C13.9617 32.8285 14.0972 33.5396 15.4177 36.4855C17.2801 40.7182 20.5647 43.7318 25.2714 45.5265C27.0999 46.2376 28.1158 46.373 30.7231 46.4069C33.4997 46.4069 34.2785 46.2714 36.5473 45.391C41.6942 43.3594 44.7756 40.0748 47.0104 34.1152C47.6538 32.4221 47.5861 26.9027 46.875 24.9049C45.3174 20.4352 42.2698 16.6766 38.6467 14.7465C35.1251 12.8503 30.2152 12.2746 26.4227 13.2904ZM32.0437 19.7918C32.4162 21.0786 32.958 22.9071 33.2288 23.9229C33.9061 26.2932 34.1431 26.5303 36.4118 27.1736C42.1005 28.7651 42.9132 29.1037 42.9132 29.7132C42.9132 30.3227 42.1005 30.6613 36.4118 32.2528C34.1431 32.8962 33.9061 33.1332 33.2288 35.5035C31.5696 41.2938 31.3326 41.9033 30.7231 41.9033C30.1136 41.9033 29.8766 41.2938 28.2174 35.5035C27.5401 33.1332 27.3031 32.8962 25.0344 32.2528C19.3457 30.6613 18.533 30.3227 18.533 29.7132C18.533 29.1037 19.1425 28.8667 24.9328 27.2075C27.3031 26.5303 27.5401 26.2932 28.1835 24.0245C29.775 18.3358 30.1136 17.5231 30.7231 17.5231C31.1972 17.5231 31.5019 18.0649 32.0437 19.7918Z" fill="#ABABAB"/>
<path d="M29.8764 24.1938C28.7929 28.0879 29.0637 27.7831 26.1517 28.5958C22.3253 29.6794 22.3253 29.7471 26.1855 30.8307L28.8267 31.6095L29.6055 34.2507C30.6891 38.1109 30.7568 38.1109 31.8404 34.2507L32.6192 31.6095L35.2604 30.8307C39.1206 29.7471 39.1206 29.6794 35.2942 28.5958C32.3822 27.7831 32.6531 28.0879 31.5695 24.1938C31.2647 23.1441 30.8923 22.2637 30.723 22.2637C30.5536 22.2637 30.1812 23.1441 29.8764 24.1938Z" fill="#ABABAB"/>
<defs>
<clipPath id="clip0_225_2848">
<rect width="61.7135" height="58.2167" fill="white"/>
</clipPath>
</defs>
</svg>
