<svg width="45" height="51" viewBox="0 0 45 51" fill="none" xmlns="http://www.w3.org/2000/svg">
<path d="M20.295 0.385487C19.7476 0.638123 18.9897 1.56445 18.6107 2.49077C17.8107 4.30132 17.1791 4.46974 15.6633 3.24868C14.4002 2.23814 11.9159 2.15393 10.737 3.03815C10.2738 3.37499 10.0633 3.66973 10.2738 3.66973C10.4843 3.66973 10.3159 3.92237 9.89484 4.21711C9.13694 4.76448 8.92641 6.15397 9.26326 8.09083C9.38957 8.80663 9.22115 8.93295 7.95798 8.84874C5.76848 8.68031 4.71584 9.01716 3.53688 10.3224C2.1895 11.754 2.14739 13.733 3.45267 15.333C4.58952 16.6804 4.50531 17.9857 3.24214 17.9857C2.77898 17.9857 1.85265 18.5752 1.13685 19.2488C0 20.4278 -0.126317 20.7646 0.0842114 22.3226C0.336846 24.2173 1.89476 25.9858 3.28425 25.9858C4.58952 25.9858 4.71584 27.291 3.53688 28.5121C2.48424 29.6068 2.10529 31.4595 2.90529 31.4595C3.15793 31.4595 3.32635 31.2069 3.32635 30.87C3.32635 29.8174 5.05268 28.091 6.10533 28.091C7.49482 28.091 7.3685 28.7226 5.85269 29.3542C5.09479 29.6911 4.58952 30.1963 4.58952 30.6595C4.58952 31.1227 4.33689 31.4595 4.08425 31.4595C3.15793 31.4595 2.35792 32.1753 2.69477 32.7227C2.9474 33.1016 3.11582 33.1016 3.41056 32.6806C3.74741 32.2174 3.78951 32.2595 3.57898 32.8069C3.32635 33.6911 4.4632 34.9543 5.30532 34.6595C5.64216 34.5332 5.76848 34.6174 5.64216 34.828C5.30532 35.3753 6.94744 35.3753 7.95798 34.828C9.05273 34.2385 9.85273 35.2911 9.22115 36.5122C8.8422 37.228 8.8422 37.7332 9.26326 38.6596C10.4001 41.4807 13.6422 42.4491 15.6212 40.5964C16.2107 40.0491 17.137 39.628 17.6844 39.628C18.316 39.6701 18.737 39.4175 18.8212 38.9543C18.9055 38.449 18.6949 38.1964 18.1476 38.1964C17.5581 38.1964 17.2633 37.8175 17.0528 36.9332C16.9265 36.2174 16.337 35.1648 15.7054 34.5332C14.737 33.5648 14.4002 33.4806 12.337 33.6911C10.2317 33.9016 9.09483 33.5227 10.0633 32.9332C10.2738 32.8069 10.4843 32.049 10.4843 31.249C10.4843 29.3542 8.71588 27.2489 7.11586 27.2489C5.43164 27.2489 5.09479 26.0279 6.48428 25.0173C7.07376 24.5963 7.45271 24.0489 7.28429 23.8384C7.15797 23.6278 7.24218 23.4594 7.45271 23.4594C7.70534 23.4594 7.87377 22.7436 7.87377 21.9015C7.87377 20.7646 7.53692 20.0489 6.6527 19.1646C5.26321 17.733 5.43164 16.7225 7.11586 16.7225C8.71588 16.7225 10.4843 14.6172 10.4843 12.7225C10.4843 11.9225 10.2738 11.1645 10.0633 11.0382C9.22115 10.533 10.4843 9.52243 11.3264 9.98559C13.3475 11.0803 16.4212 9.52243 17.0107 7.16451C17.4318 5.43817 18.0633 5.31186 19.4107 6.65924C20.3371 7.58556 21.0529 7.8803 22.2739 7.8803C23.495 7.8803 24.2108 7.58556 25.1371 6.65924C26.4845 5.31186 27.1161 5.43817 27.5371 7.16451C28.1266 9.52243 31.2003 11.0803 33.2214 9.98559C34.0635 9.52243 35.3267 10.533 34.4846 11.0382C34.274 11.1645 34.0635 11.9646 34.0635 12.7646C34.0635 14.7014 36.1267 16.933 37.6425 16.6383C39.1162 16.3435 39.3688 17.8172 37.9793 18.9962C37.2635 19.6278 36.8425 20.4699 36.7162 21.691C36.5478 23.2489 36.6741 23.6278 37.8109 24.6805C39.3688 26.1121 39.2004 27.2489 37.432 27.2489C36.6741 27.2489 35.9162 27.67 35.1583 28.5963C34.0635 29.9437 33.8951 30.9121 34.5267 33.1437C34.653 33.649 34.274 33.7332 32.2951 33.649C30.1898 33.5227 29.7687 33.6069 28.8003 34.5753C28.2108 35.1648 27.6213 36.2174 27.495 36.9332C27.2845 37.8175 26.9898 38.1964 26.4003 38.1964C25.8529 38.1964 25.6424 38.449 25.7266 38.9122C25.8108 39.4175 26.2319 39.6701 26.8634 39.628C27.4108 39.628 28.3371 40.0491 28.9266 40.5964C30.9056 42.4491 34.1477 41.4807 35.2846 38.6596C35.7056 37.7332 35.7056 37.228 35.3267 36.5122C34.6109 35.1648 35.4109 34.3648 36.9688 34.9543C38.3162 35.4595 40.8004 34.7016 40.8004 33.7753C40.8004 33.4806 41.0952 33.1437 41.432 32.9753C42.4426 32.5964 42.232 29.8174 41.1373 28.5963C39.832 27.2489 39.7899 25.6489 41.011 25.9015C42.5268 26.1542 44.211 24.3857 44.4215 22.2805C44.5478 20.6804 44.4215 20.2594 43.3689 19.2067C42.6952 18.533 41.7689 17.9857 41.3057 17.9857C40.0425 17.9857 39.9583 16.6804 41.0952 15.333C41.6425 14.6593 42.0636 13.6488 42.0636 13.1014C42.0636 11.9225 40.8846 9.354 40.5057 9.73295C40.3794 9.85927 40.0004 9.64874 39.6215 9.3119C39.1583 8.80663 38.5267 8.72242 37.1793 8.93295C35.1583 9.22769 34.6951 8.80663 35.3688 7.33293C35.7477 6.53292 35.6635 6.02765 35.0741 4.8908C34.6951 4.09079 34.0635 3.24868 33.6846 2.95394C32.8424 2.32235 29.8529 2.23814 29.8529 2.86972C29.8529 3.08025 29.6845 3.20657 29.474 3.08025C29.2635 2.95394 28.8845 3.12236 28.5898 3.45921C27.7477 4.46974 26.5266 4.21711 26.2319 3.03815C25.6424 0.638123 22.5687 -0.709259 20.295 0.385487ZM22.695 1.26971C22.695 1.56445 22.2739 1.9855 21.7687 2.19603C21.2213 2.44867 20.6318 3.03815 20.3792 3.54342C19.8739 4.76448 19.3265 4.80659 19.3265 3.66973C19.3265 2.65919 21.095 0.722332 22.0634 0.722332C22.4002 0.722332 22.695 0.974968 22.695 1.26971ZM13.4738 3.88026C13.4738 4.1329 13.0949 4.34343 12.6738 4.42764C12.2107 4.51185 11.6212 5.01712 11.3264 5.60659C10.737 6.65924 10.0633 6.95398 10.0633 6.15397C10.0633 5.26975 10.9896 4.04868 11.8738 3.66973C12.9686 3.24868 13.5159 3.33289 13.4738 3.88026ZM31.9582 3.88026C31.6635 4.21711 31.1582 4.51185 30.8635 4.51185C30.5266 4.51185 30.0214 4.97501 29.7687 5.56449C29.2214 6.78556 28.5898 6.95398 28.5898 5.85923C28.5898 4.42764 29.8951 3.37499 31.7056 3.29078C32.3372 3.24868 32.3793 3.37499 31.9582 3.88026ZM6.94744 10.3224C6.82112 10.4488 6.27375 10.7435 5.76848 10.9961C5.22111 11.2488 4.75794 11.8803 4.67373 12.3856C4.58952 12.8488 4.21057 13.354 3.78951 13.4804C3.20003 13.6067 3.07372 13.4383 3.24214 12.5961C3.53688 11.0382 5.01058 9.69085 6.18954 9.90138C6.73691 10.0277 7.03165 10.1961 6.94744 10.3224ZM38.6951 10.4066C38.6951 10.6172 38.3583 10.8277 37.9372 10.8277C37.5162 10.8277 36.9688 11.0382 36.6741 11.333C36.3793 11.6277 36.1688 12.1751 36.1688 12.5961C36.1688 13.0172 35.8741 13.354 35.5372 13.354C34.653 13.354 34.7372 12.3856 35.7898 11.0803C36.632 10.0277 38.6951 9.52243 38.6951 10.4066ZM4.37899 19.2488C4.50531 19.5015 4.16846 19.8383 3.53688 20.091C2.9474 20.3015 2.27371 20.9752 2.06318 21.5647C1.55791 22.8699 0.631586 22.5331 1.01054 21.2278C1.51581 19.5015 3.74741 18.1962 4.37899 19.2488ZM41.011 19.2488C41.1373 19.5015 40.8004 19.8383 40.1688 20.091C39.5794 20.3015 38.9057 20.9752 38.6951 21.5647C38.1478 22.9541 37.432 22.5752 37.5583 20.9752C37.6004 20.3015 37.7267 19.7962 37.8109 19.9225C37.8951 20.0067 38.3583 19.7962 38.8636 19.4594C39.8741 18.7436 40.632 18.6594 41.011 19.2488ZM38.6951 28.5542C38.6951 28.7647 38.1478 29.1858 37.432 29.3963C36.632 29.6911 36.1688 30.1542 36.1688 30.6595C36.1688 31.0805 35.8741 31.4595 35.5372 31.4595C34.653 31.4595 34.7372 30.4911 35.7898 29.1858C36.632 28.091 38.6951 27.6279 38.6951 28.5542ZM13.6422 34.7858C13.7686 35.0385 13.3475 35.4595 12.7159 35.7543C12.0843 36.049 11.3685 36.7227 11.0738 37.228C10.8212 37.7754 10.4843 38.0701 10.358 37.9017C9.81063 37.3543 10.0633 36.4701 11.1159 35.4595C12.1685 34.3648 13.1791 34.1122 13.6422 34.7858ZM31.9582 34.828C31.9582 35.0806 31.4951 35.4595 30.9056 35.6701C30.3161 35.8806 29.8529 36.2174 29.8529 36.428C29.8529 36.5964 29.5582 37.1438 29.2214 37.6069C28.6319 38.3648 28.6319 38.3648 28.5898 37.2701C28.5898 36.6385 29.0108 35.7543 29.5161 35.249C30.4845 34.3648 31.9582 34.1122 31.9582 34.828Z" fill="#ABABAB"/>
<path d="M20.4214 38.9122C18.6109 41.8175 18.4846 43.3333 20.0004 44.7228C23.2004 47.6702 27.1162 43.7544 24.8004 39.9649C24.3373 39.2069 23.7478 38.7017 23.5373 38.828C23.2846 38.9543 23.2425 38.7859 23.3688 38.4069C23.6215 37.7754 22.9057 36.5122 22.2741 36.5122C22.0636 36.5122 21.2214 37.6069 20.4214 38.9122ZM21.0109 42.6596C21.0109 43.0386 21.3899 43.4175 21.853 43.5438C22.8636 43.7965 22.9899 44.5123 21.9793 44.5123C21.1372 44.5123 19.7477 43.3333 19.7477 42.5333C19.7477 42.2386 20.0425 41.9859 20.3793 41.9859C20.7162 41.9859 21.0109 42.2807 21.0109 42.6596Z" fill="#ABABAB"/>
<path d="M20.3371 47.6701C20.0423 48.8491 20.3792 49.5228 20.9687 48.8912C21.6003 48.2596 21.6845 46.9122 21.1371 46.7438C20.8423 46.6175 20.5055 47.0386 20.3371 47.6701Z" fill="#ABABAB"/>
<path d="M22.6953 46.8702C22.6953 47.5859 23.7058 50.407 23.9585 50.407C24.5901 50.407 24.6743 49.8597 24.2953 48.3017C24.0427 47.3333 23.5795 46.6175 23.2848 46.6175C22.9479 46.6175 22.6953 46.7438 22.6953 46.8702Z" fill="#ABABAB"/>
</svg>
