<svg width="61" height="58" viewBox="0 0 61 58" fill="none" xmlns="http://www.w3.org/2000/svg">
<g clip-path="url(#clip0_225_2798)">
<path d="M59.4703 5.7968V51.0021L54.6108 55.8616H5.69142L0.820313 51.0021L0.820313 5.7968L5.69142 0.92569L54.6108 0.92569L59.4703 5.7968Z" fill="#262626"/>
<path d="M53.9852 55.4219H50.9075C53.2769 54.3864 55.289 52.6762 56.6927 50.5045V50.4236C57.5713 49.0708 58.2677 47.608 58.7637 46.0731V50.5624L53.9852 55.4219ZM1.59475 50.5624V46.0731C2.09078 47.608 2.78715 49.0708 3.66584 50.4236V50.5045H3.72369C5.14897 52.6884 7.19065 54.3999 9.58985 55.4219H6.45429L1.59475 50.5624ZM6.45429 1.59677L9.58985 1.59677C7.18806 2.61458 5.14526 4.32699 3.72369 6.51416H3.66584V6.59515C2.78715 7.9479 2.09078 9.41067 1.59475 10.9456V6.4563L6.45429 1.59677ZM56.7736 7.91417C56.9588 8.26128 57.167 8.58524 57.3406 8.95549C58.0221 10.4096 58.5271 11.9401 58.8447 13.5142V43.4466C58.4404 45.418 57.7422 47.3174 56.7736 49.0814V7.91417ZM1.59475 13.5721C1.99912 11.6007 2.69727 9.70127 3.66584 7.93731L3.66584 49.1045C3.48072 48.7574 3.27245 48.4335 3.0989 48.0632C2.41903 46.6085 1.91412 45.0782 1.59475 43.5045L1.59475 13.5721ZM48.5934 55.4219H11.7998C8.84573 54.7333 6.25478 52.9675 4.53362 50.4698L4.53362 6.57201C6.27097 4.07055 8.87091 2.29881 11.8345 1.59677L48.5934 1.59677C51.543 2.28868 54.1316 4.04879 55.8596 6.5373V50.5045C54.1206 52.9773 51.5354 54.7268 48.5934 55.4219ZM58.8447 6.4563V10.9456C58.3487 9.41067 57.6523 7.9479 56.7736 6.59515V6.51416C55.3521 4.32699 53.3093 2.61458 50.9075 1.59677H54.043L58.8447 6.4563ZM54.6447 6.10352e-05L5.78321 6.10352e-05L-0.00195312 5.78523L-0.00195312 51.2219L5.78321 57.0071H54.6447L60.4299 51.2219V5.78523L54.6447 6.10352e-05Z" fill="#FCE9CE"/>
</g>
<path d="M34.3221 10.7055C33.5091 11.0927 32.6186 11.2089 31.1474 11.054C29.56 10.8604 29.0567 10.9378 28.9018 11.4024C28.5533 12.2542 30.7215 15.4677 31.6507 15.4677C32.0765 15.4677 33.0832 15.8161 33.8962 16.242C34.8254 16.7453 36.0643 17.0163 37.3807 17.0163C39.3165 17.0163 39.4714 16.9389 40.0909 15.7387C40.4393 15.0805 41.0975 13.8416 41.6008 13.0285C42.6462 11.2476 42.259 10.6668 40.207 11.0153C39.2004 11.2089 38.8132 11.4799 38.8132 12.0219C38.8132 12.9124 37.7292 14.6933 37.1871 14.6933C36.8387 14.6933 36.9935 13.4157 37.4969 11.5573C37.7679 10.512 35.6772 9.96993 34.3221 10.7055Z" fill="#FCE9CE"/>
<path d="M27.199 17.6745C26.8893 17.7907 25.6503 18.7199 24.4888 19.7265C23.3273 20.7331 21.9723 21.7397 21.5077 22.0108C20.6559 22.4366 20.6172 22.6302 20.6172 28.2054C20.6172 33.7806 20.6559 33.9742 21.469 34.1677C22.4756 34.4388 22.9402 34.2065 22.9402 33.3934C22.9402 33.045 23.4822 31.8448 24.1017 30.6833C25.1857 28.7474 25.2245 28.6313 24.4888 28.6313C23.095 28.6313 23.5596 27.2762 25.1857 26.7342C26.8118 26.1534 29.0574 24.2176 29.5607 22.9012C30.0253 21.6623 31.4965 21.8172 32.7355 23.211C34.168 24.8371 35.6392 25.1081 36.5684 23.9853C37.2266 23.1723 37.2266 23.0561 36.6071 22.0108C36.2199 21.3913 35.2133 20.0749 34.3228 19.1457C32.7742 17.4035 32.7355 17.4035 30.2576 17.4422C28.9025 17.4422 27.5087 17.5584 27.199 17.6745Z" fill="#FCE9CE"/>
<path d="M37.1099 19.4167C37.2648 19.6878 37.7294 20.3847 38.1166 20.9654C38.9296 22.1269 39.007 23.6368 38.3876 24.8758C38.0391 25.4952 38.0391 25.7275 38.3876 25.8437C38.6199 25.9211 38.8134 26.5019 38.8134 27.0826C38.8134 28.399 39.7039 29.0184 41.5236 29.0184C43.4981 29.0184 44.3499 28.3603 44.0789 27.0439C43.9627 26.4244 44.0402 25.4952 44.2725 24.9919C44.7758 23.9079 44.1563 22.4366 43.2271 22.4366C42.84 22.4366 42.7238 22.1656 42.9174 21.4687C43.3433 19.7265 42.2205 18.9521 39.3168 18.9521C37.4197 18.9521 36.9163 19.0683 37.1099 19.4167Z" fill="#FCE9CE"/>
<path d="M14.4228 21.0429C14.4228 21.3526 14.2292 21.7397 13.9582 21.8946C13.6485 22.0882 13.6097 21.972 13.7646 21.5074C13.9582 21.0429 13.8807 20.888 13.571 20.9654C12.8741 21.1977 12.6418 34.6711 13.3 35.4454C13.9195 36.2197 17.675 36.181 18.4493 35.368C19.3785 34.4775 19.3785 22.0108 18.4493 21.1203C17.6362 20.3072 14.4228 20.2685 14.4228 21.0429Z" fill="#FCE9CE"/>
<path d="M29.9474 25.7275C29.4441 26.4631 28.6311 27.5472 28.089 28.128C26.1145 30.2186 24.411 33.9354 24.2174 36.5294C23.7528 41.9497 26.1919 44.6599 32.464 45.8988C38.3489 47.0216 44.079 45.1245 46.0922 41.4077C47.2924 39.1234 47.1763 35.6002 45.7438 32.5416L44.7758 30.4509L41.9108 30.5284C38.5812 30.6058 37.7294 30.2186 37.0713 28.2054C36.6841 27.0826 36.4131 26.8503 34.9419 26.618C33.9739 26.4631 32.8125 25.9211 32.2317 25.3404C31.6897 24.7983 31.1476 24.3725 31.0315 24.3725C30.9541 24.3725 30.4507 24.9919 29.9474 25.7275Z" fill="#FCE9CE"/>
<defs>
<clipPath id="clip0_225_2798">
<rect width="60.4434" height="57.0186" fill="white"/>
</clipPath>
</defs>
</svg>
