<svg width="34" height="36" viewBox="0 0 34 36" fill="none" xmlns="http://www.w3.org/2000/svg">
<path d="M21.4119 0.339076C20.5989 0.726241 19.7084 0.842391 18.2372 0.687524C16.6498 0.493942 16.1465 0.571375 15.9916 1.03597C15.6432 1.88774 17.8113 5.1012 18.7405 5.1012C19.1664 5.1012 20.173 5.44965 20.9861 5.87553C21.9153 6.37885 23.1542 6.64986 24.4706 6.64986C26.4064 6.64986 26.5612 6.57243 27.1807 5.37222C27.5292 4.71404 28.1873 3.47511 28.6906 2.66207C29.736 0.881107 29.3488 0.30036 27.2969 0.648808C26.2902 0.842391 25.9031 1.11341 25.9031 1.65544C25.9031 2.54592 24.819 4.32687 24.277 4.32687C23.9285 4.32687 24.0834 3.04923 24.5867 1.19084C24.8577 0.145494 22.767 -0.396537 21.4119 0.339076Z" fill="#ABABAB"/>
<path d="M14.2888 7.30805C13.9791 7.4242 12.7402 8.3534 11.5787 9.36003C10.4172 10.3667 9.06211 11.3733 8.59751 11.6443C7.74575 12.0702 7.70703 12.2638 7.70703 17.8389C7.70703 23.4141 7.74575 23.6077 8.55879 23.8013C9.56542 24.0723 10.03 23.84 10.03 23.027C10.03 22.6785 10.5721 21.4783 11.1915 20.3168C12.2756 18.381 12.3143 18.2648 11.5787 18.2648C10.1849 18.2648 10.6495 16.9097 12.2756 16.3677C13.9017 15.787 16.1472 13.8511 16.6505 12.5348C17.1151 11.2959 18.5864 11.4507 19.8253 12.8445C21.2578 14.4706 22.729 14.7416 23.6582 13.6188C24.3164 12.8058 24.3164 12.6896 23.6969 11.6443C23.3098 11.0248 22.3032 9.70848 21.4127 8.77928C19.864 7.03704 19.8253 7.03704 17.3474 7.07575C15.9924 7.07575 14.5986 7.1919 14.2888 7.30805Z" fill="#ABABAB"/>
<path d="M24.1998 9.05028C24.3546 9.3213 24.8192 10.0182 25.2064 10.5989C26.0194 11.7604 26.0969 13.2704 25.4774 14.5093C25.129 15.1288 25.129 15.3611 25.4774 15.4772C25.7097 15.5547 25.9033 16.1354 25.9033 16.7161C25.9033 18.0325 26.7938 18.652 28.6134 18.652C30.588 18.652 31.4398 17.9938 31.1687 16.6774C31.0526 16.058 31.13 15.1288 31.3623 14.6255C31.8656 13.5414 31.2462 12.0702 30.317 12.0702C29.9298 12.0702 29.8137 11.7992 30.0072 11.1023C30.4331 9.36001 29.3103 8.58568 26.4066 8.58568C24.5095 8.58568 24.0062 8.70183 24.1998 9.05028Z" fill="#ABABAB"/>
<path d="M1.51262 10.6764C1.51262 10.9861 1.31904 11.3733 1.04803 11.5282C0.738294 11.7217 0.699577 11.6056 0.854443 11.141C1.04803 10.6764 0.970593 10.5215 0.660861 10.599C-0.0360359 10.8313 -0.268335 24.3046 0.389845 25.0789C1.00931 25.8533 4.76481 25.8145 5.53914 25.0015C6.46833 24.111 6.46833 11.6443 5.53914 10.7538C4.72609 9.94077 1.51262 9.90206 1.51262 10.6764Z" fill="#ABABAB"/>
<path d="M17.0373 15.3611C16.534 16.0967 15.7209 17.1807 15.1789 17.7615C13.2043 19.8522 11.5008 23.569 11.3072 26.163C10.8426 31.5833 13.2818 34.2934 19.5539 35.5324C25.4388 36.6551 31.1688 34.758 33.1821 31.0412C34.3823 28.757 34.2661 25.2338 32.8336 22.1752L31.8657 20.0845L29.0007 20.1619C25.6711 20.2393 24.8193 19.8522 24.1611 17.8389C23.7739 16.7161 23.5029 16.4838 22.0317 16.2516C21.0638 16.0967 19.9023 15.5547 19.3216 14.9739C18.7795 14.4319 18.2375 14.006 18.1213 14.006C18.0439 14.006 17.5406 14.6255 17.0373 15.3611Z" fill="#ABABAB"/>
</svg>