<svg width="62" height="67" viewBox="0 0 62 67" fill="none" xmlns="http://www.w3.org/2000/svg">
<g clip-path="url(#clip0_225_2855)">
<path d="M60.7203 14.0141V60.1693L55.7586 65.131H5.81136L0.837891 60.1693L0.837891 14.0141L5.81136 9.04068H55.7586L60.7203 14.0141Z" fill="#262626"/>
<path d="M55.1196 64.6821H51.9772C54.3964 63.6248 56.4508 61.8786 57.884 59.6614V59.5787C58.7811 58.1975 59.4921 56.704 59.9986 55.1368V59.7204L55.1196 64.6821ZM1.6283 59.7204V55.1368C2.13475 56.704 2.84576 58.1975 3.74291 59.5787V59.6614H3.80198C5.25721 61.8911 7.34178 63.6386 9.7914 64.6821H6.58995L1.6283 59.7204ZM6.58995 9.72587H9.7914C7.33914 10.7651 5.25342 12.5135 3.80198 14.7466H3.74291V14.8293C2.84576 16.2105 2.13475 17.704 1.6283 19.2711V14.6875L6.58995 9.72587ZM57.9667 16.176C58.1557 16.5304 58.3683 16.8612 58.5455 17.2392C59.2414 18.7239 59.7569 20.2865 60.0813 21.8937V52.4551C59.6684 54.4679 58.9556 56.4073 57.9667 58.2083V16.176ZM1.6283 21.9528C2.04116 19.94 2.75398 18.0007 3.74291 16.1996L3.74291 58.2319C3.5539 57.8775 3.34125 57.5467 3.16405 57.1687C2.4699 55.6834 1.95438 54.121 1.6283 52.5142L1.6283 21.9528ZM49.6146 64.6821H12.0478C9.03164 63.979 6.38625 62.1761 4.62892 59.6259L4.62892 14.8057C6.40279 12.2516 9.05735 10.4427 12.0832 9.72587H49.6146C52.6261 10.4323 55.2691 12.2294 57.0334 14.7702V59.6614C55.2578 62.1861 52.6184 63.9723 49.6146 64.6821ZM60.0813 14.6875V19.2711C59.5748 17.704 58.8638 16.2105 57.9667 14.8293V14.7466C56.5152 12.5135 54.4295 10.7651 51.9772 9.72587H55.1787L60.0813 14.6875ZM55.793 8.09561H5.90477L-0.00195312 14.0023L-0.00195312 60.3938L5.90477 66.3005H55.793L61.6997 60.3938V14.0023L55.793 8.09561Z" fill="#ECECEC" fill-opacity="0.7"/>
</g>
<path d="M27.0017 21.9047C26.8 21.9624 26.6272 22.164 26.6272 22.3369C26.6272 22.4809 26.2527 23.4604 25.7629 24.4974C24.7258 26.7157 24.7258 27.0037 25.5037 28.9627C25.8493 29.7981 26.2815 31.0945 26.5119 31.8147C27.1169 33.8312 27.4626 34.0041 29.4215 33.2263C30.3434 32.8517 31.2076 32.4484 31.3517 32.3332C31.7838 31.9587 28.2404 21.9624 27.6354 21.8183C27.4626 21.7895 27.1745 21.8183 27.0017 21.9047Z" fill="#ABABAB"/>
<path d="M42.6462 21.9335C42.5309 22.0199 42.3005 22.1352 42.0988 22.164C41.6955 22.2216 38.6707 23.3163 37.4319 23.8636C36.971 24.0653 35.2713 24.7279 33.6869 25.304C32.1025 25.909 30.7485 26.4276 30.7197 26.4852C30.6621 26.514 30.7485 27.0325 30.9501 27.6087C31.2382 28.4729 31.3823 28.617 31.9008 28.4729C35.5594 27.4358 44.2018 24.4686 44.2018 24.2093C44.2018 23.0282 43.1071 21.4438 42.6462 21.9335Z" fill="#ABABAB"/>
<path d="M23.4017 38.0372L23.3152 40.2842L22.9119 38.9878C22.7103 38.2676 22.4798 37.5186 22.4222 37.317C22.2782 36.856 13.6358 36.9425 13.4629 37.4034C13.4053 37.5762 13.607 37.9795 13.9239 38.3252C14.2407 38.6421 14.4424 38.9878 14.3848 39.0454C14.1543 39.2759 16.0845 40.918 17.4384 41.667C18.1586 42.0703 19.5414 42.5312 20.4633 42.704C21.3851 42.9057 22.451 43.1074 22.8255 43.1938C23.1712 43.2514 23.4593 43.5107 23.4593 43.7411C23.4593 44.058 23.7762 44.1733 24.554 44.1733C25.7639 44.1733 26.2825 44.4901 27.0027 45.6713C27.4348 46.3915 27.4348 46.4779 26.8298 47.3997C26.0808 48.4944 24.5828 49.3299 23.2864 49.3587C22.307 49.3587 22.0189 49.7332 22.0189 51.116C22.0189 51.7209 22.1917 51.9802 22.6815 52.0954C23.0272 52.1819 27.4636 52.2107 32.5338 52.1819L41.7523 52.0954L41.8099 51.26C41.8964 50.0213 41.4354 49.3587 40.4848 49.3587C39.2748 49.3587 37.8344 48.2352 37.3735 46.9388C36.25 43.6547 40.3983 39.5928 45.4109 39.0742C47.1394 38.8726 48.0036 38.1236 47.8884 36.8848L47.802 35.963L35.645 35.8766L23.4881 35.819L23.4017 38.0372Z" fill="#ABABAB"/>
<defs>
<clipPath id="clip0_225_2855">
<rect width="61.7135" height="58.2167" fill="white" transform="translate(0 8.09558)"/>
</clipPath>
</defs>
</svg>
