<svg width="35" height="31" viewBox="0 0 35 31" fill="none" xmlns="http://www.w3.org/2000/svg">
<path d="M13.5485 0.0972662C13.3469 0.154881 13.174 0.356537 13.174 0.529385C13.174 0.673425 12.7995 1.65289 12.3098 2.68998C11.2727 4.90819 11.2727 5.19627 12.0505 7.15521C12.3962 7.99064 12.8283 9.28699 13.0588 10.0072C13.6638 12.0237 14.0095 12.1966 15.9684 11.4188C16.8903 11.0443 17.7545 10.641 17.8985 10.5257C18.3307 10.1512 14.7873 0.154881 14.1823 0.0108423C14.0095 -0.0179653 13.7214 0.0108423 13.5485 0.0972662Z" fill="#ABABAB"/>
<path d="M29.193 0.126044C29.0778 0.212468 28.8473 0.3277 28.6457 0.356507C28.2424 0.414124 25.2175 1.50882 23.9788 2.05618C23.5179 2.25783 21.8182 2.92041 20.2338 3.49657C18.6493 4.10154 17.2954 4.62008 17.2665 4.6777C17.2089 4.7065 17.2954 5.22505 17.497 5.80121C17.7851 6.66544 17.9291 6.80948 18.4477 6.66544C22.1063 5.62836 30.7487 2.66114 30.7487 2.40187C30.7487 1.22075 29.654 -0.363691 29.193 0.126044Z" fill="#ABABAB"/>
<path d="M9.94855 16.2297L9.86212 18.4767L9.45881 17.1804C9.25716 16.4602 9.02669 15.7112 8.96908 15.5095C8.82504 15.0486 0.182658 15.135 0.00980998 15.5959C-0.0478059 15.7688 0.15385 16.1721 0.470737 16.5178C0.787624 16.8347 0.98928 17.1804 0.931664 17.238C0.7012 17.4684 2.63133 19.1105 3.9853 19.8595C4.7055 20.2628 6.08828 20.7237 7.01014 20.8966C7.93199 21.0982 8.99788 21.2999 9.37239 21.3863C9.71808 21.4439 10.0062 21.7032 10.0062 21.9337C10.0062 22.2505 10.323 22.3658 11.1009 22.3658C12.3108 22.3658 12.8293 22.6827 13.5495 23.8638C13.9817 24.584 13.9817 24.6704 13.3767 25.5923C12.6277 26.687 11.1297 27.5224 9.83331 27.5512C8.85384 27.5512 8.56577 27.9257 8.56577 29.3085C8.56577 29.9135 8.73861 30.1727 9.22835 30.288C9.57404 30.3744 14.0105 30.4032 19.0807 30.3744L28.2992 30.288L28.3568 29.4525C28.4432 28.2138 27.9823 27.5512 27.0316 27.5512C25.8217 27.5512 24.3813 26.4277 23.9204 25.1313C22.7969 21.8472 26.9452 17.7853 31.9578 17.2668C33.6863 17.0651 34.5505 16.3161 34.4353 15.0774L34.3489 14.1555L22.1919 14.0691L10.035 14.0115L9.94855 16.2297Z" fill="#ABABAB"/>
</svg>
