<svg width="39" height="38" viewBox="0 0 39 38" fill="none" xmlns="http://www.w3.org/2000/svg">
<path d="M5.85239 1.32772C6.7518 2.56976 6.83746 3.04088 6.79463 8.48018C6.79463 11.7352 6.53766 15.5042 6.23785 16.9175C4.65318 24.7981 4.18206 30.8798 4.91015 33.6637C5.50976 35.7623 7.22292 37.0044 8.55063 36.3191C9.8355 35.6338 10.4779 34.6488 10.4779 33.4067C10.4779 31.3509 10.8206 31.2653 21.1852 31.2653H30.8646L31.3785 25.7831C31.6355 22.7851 32.278 18.4165 32.7491 16.1038C33.6485 11.6495 33.8198 5.01102 33.0917 2.99805C32.8776 2.39845 32.278 1.49903 31.8068 0.985085C30.9503 0.0428429 30.7361 0.0428429 17.8874 1.52588e-05H4.86732L5.85239 1.32772ZM13.0477 6.63853C13.476 7.15248 13.476 7.53794 13.0477 8.56584C12.4052 10.1505 11.977 10.1933 11.1632 8.6515C10.6064 7.53794 10.6064 7.32379 11.2489 6.72419C12.1054 5.82478 12.3624 5.82478 13.0477 6.63853ZM26.6673 11.8637L26.5389 16.9175L19.8147 17.046L13.0477 17.1745V20.558V23.9843H16.6453C20.8426 23.9843 21.6135 24.1985 21.6135 25.312C21.6135 26.0829 21.3137 26.1258 16.3884 26.0401L11.1204 25.9116V20.7721V15.6326L17.8874 15.5042L24.6115 15.3757V11.9922V8.60867L19.6005 8.48018C15.1891 8.35169 14.5467 8.26604 14.4182 7.58077C14.2897 6.8955 14.8037 6.85267 20.5428 6.85267H26.7958L26.6673 11.8637ZM28.0379 24.07C28.5947 25.1407 28.5947 25.3977 28.0379 26.4256C26.753 28.7812 22.8984 27.9246 22.8984 25.3549C22.8984 22.6138 26.6673 21.6715 28.0379 24.07Z" fill="#ABABAB"/>
<path d="M1.18356 1.79886C0.712436 2.35563 0.198487 3.21222 0.0699994 3.72617C-0.144146 4.66841 -0.0156588 4.71124 2.63975 4.71124H5.42364L5.12384 3.51202C4.4814 0.942273 2.68258 0.171349 1.18356 1.79886Z" fill="#ABABAB"/>
<path d="M12.0194 34.349C11.8909 35.1199 11.3341 36.1906 10.8202 36.7046L9.87793 37.7325L22.4697 37.6468C36.432 37.5612 36.6033 37.5183 37.7169 34.8201C38.0595 34.0492 38.3165 33.3211 38.3165 33.1926C38.3165 33.0641 32.4489 32.9784 25.2964 32.9784H12.3192L12.0194 34.349Z" fill="#ABABAB"/>
</svg>
