<svg width="62" height="58" viewBox="0 0 62 58" fill="none" xmlns="http://www.w3.org/2000/svg">
<g clip-path="url(#clip0_225_2917)">
<path d="M60.4325 5.89053V51.8269L55.4944 56.765H5.78387L0.833984 51.8269L0.833984 5.89053L5.78387 0.940643L55.4944 0.940643L60.4325 5.89053Z" fill="#262626"/>
<path d="M54.8583 56.3182H51.7308C54.1385 55.2659 56.1831 53.528 57.6095 51.3213V51.239C58.5024 49.8644 59.2101 48.3779 59.7141 46.8182V51.3801L54.8583 56.3182ZM1.62057 51.3801V46.8182C2.12462 48.3779 2.83226 49.8644 3.72516 51.239V51.3213H3.78394C5.23227 53.5405 7.30697 55.2796 9.74497 56.3182H6.5587L1.62057 51.3801ZM6.5587 1.62256L9.74497 1.62256C7.30433 2.65684 5.2285 4.39693 3.78394 6.61947H3.72516V6.70177C2.83226 8.0764 2.12462 9.56283 1.62057 11.1226V6.56069L6.5587 1.62256ZM57.6918 8.04212C57.88 8.39485 58.0916 8.72406 58.268 9.10029C58.9605 10.5779 59.4736 12.1331 59.7964 13.7327V44.1492C59.3855 46.1525 58.6761 48.0826 57.6918 49.8751V8.04212ZM1.62057 13.7915C2.03148 11.7883 2.74092 9.85813 3.72516 8.06564L3.72516 49.8986C3.53704 49.5459 3.3254 49.2167 3.14904 48.8405C2.45818 47.3622 1.94511 45.8072 1.62057 44.208L1.62057 13.7915ZM49.3793 56.3182H11.9906C8.98881 55.6184 6.35596 53.8241 4.60697 51.286L4.60697 6.67826C6.37242 4.13635 9.0144 2.33595 12.0259 1.62256L49.3793 1.62256C52.3766 2.32566 55.0071 4.11423 56.763 6.64299V51.3213C54.9958 53.834 52.3689 55.6118 49.3793 56.3182M59.7964 6.56069V11.1226C59.2924 9.56283 58.5847 8.0764 57.6918 6.70177V6.61947C56.2473 4.39693 54.1714 2.65684 51.7308 1.62256H54.9171L59.7964 6.56069ZM55.5285 3.05176e-05L5.87677 3.05176e-05L-0.00195312 5.87875L-0.00195312 52.0502L5.87677 57.929H55.5285L61.4072 52.0502V5.87875L55.5285 3.05176e-05Z" fill="#ECECEC" fill-opacity="0.7"/>
</g>
<path d="M17.5418 11.5366C18.4413 12.7787 18.5269 13.2498 18.4841 18.6891C18.4841 21.9441 18.2271 25.7131 17.9273 27.1264C16.3426 35.007 15.8715 41.0887 16.5996 43.8726C17.1992 45.9712 18.9124 47.2133 20.2401 46.528C21.525 45.8427 22.1674 44.8577 22.1674 43.6156C22.1674 41.5598 22.51 41.4742 32.8747 41.4742H42.554L43.068 35.992C43.325 32.994 43.9674 28.6254 44.4385 26.3127C45.3379 21.8584 45.5093 15.2199 44.7812 13.207C44.567 12.6073 43.9674 11.7079 43.4963 11.194C42.6397 10.2517 42.4256 10.2517 29.5768 10.2089H16.5568L17.5418 11.5366ZM24.7371 16.8474C25.1654 17.3614 25.1654 17.7468 24.7371 18.7747C24.0947 20.3594 23.6664 20.4022 22.8527 18.8604C22.2959 17.7468 22.2959 17.5327 22.9383 16.9331C23.7949 16.0337 24.0519 16.0337 24.7371 16.8474ZM38.3568 22.0726L38.2283 27.1264L31.5041 27.2549L24.7371 27.3834V30.7669V34.1932H28.3348C32.532 34.1932 33.303 34.4074 33.303 35.5209C33.303 36.2918 33.0032 36.3347 28.0778 36.249L22.8098 36.1205V30.981V25.8415L29.5768 25.7131L36.301 25.5846V22.2011V18.8176L31.29 18.6891C26.8786 18.5606 26.2362 18.4749 26.1077 17.7897C25.9792 17.1044 26.4931 17.0616 32.2322 17.0616H38.4853L38.3568 22.0726ZM39.7273 34.2789C40.2841 35.3496 40.2841 35.6066 39.7273 36.6345C38.4425 38.9901 34.5878 38.1335 34.5878 35.5638C34.5878 32.8227 38.3568 31.8804 39.7273 34.2789Z" fill="#ABABAB"/>
<path d="M12.873 12.0078C12.4019 12.5645 11.8879 13.4211 11.7595 13.9351C11.5453 14.8773 11.6738 14.9201 14.3292 14.9201H17.1131L16.8133 13.7209C16.1709 11.1512 14.372 10.3802 12.873 12.0078Z" fill="#ABABAB"/>
<path d="M23.7088 44.5579C23.5804 45.3288 23.0236 46.3995 22.5096 46.9135L21.5674 47.9414L34.1591 47.8557C48.1214 47.7701 48.2928 47.7272 49.4063 45.029C49.7489 44.2581 50.0059 43.53 50.0059 43.4015C50.0059 43.273 44.1383 43.1873 36.9859 43.1873H24.0086L23.7088 44.5579Z" fill="#ABABAB"/>
<defs>
<clipPath id="clip0_225_2917">
<rect width="61.4209" height="57.9407" fill="white"/>
</clipPath>
</defs>
</svg>
