<svg width="31" height="36" viewBox="0 0 31 36" fill="none" xmlns="http://www.w3.org/2000/svg">
<path d="M12.4376 0.157177C11.1398 0.442043 8.57604 1.54986 7.81639 2.15125C7.53152 2.37281 6.80353 3.0375 6.17049 3.57558C5.56911 4.14532 4.96772 4.62009 4.87277 4.62009C4.77781 4.62009 4.39799 5.09487 4.04982 5.63296C3.70164 6.20269 3.16356 7.08894 2.81539 7.62703C1.32775 10.0009 1.04289 11.6785 1.04289 17.8822C1.04289 22.5351 0.884625 24.3392 0.409847 26.5865C-0.318147 29.8783 -0.254843 30.0682 2.0874 31.8091C4.6512 33.7082 9.52559 35.8922 10.2536 35.449C10.6651 35.2275 10.6334 22.1236 10.2219 21.8704C10.0637 21.7754 9.08247 21.5222 8.10126 21.364C7.0884 21.174 5.75902 20.9208 5.15763 20.7942L4.04982 20.6043L3.95486 18.6102L3.8599 16.6478H15.2862H26.7126L26.6176 18.6102L26.5227 20.6043L25.4148 20.7942C24.8135 20.9208 23.4524 21.174 22.4396 21.364C21.3951 21.5539 20.4455 21.8071 20.2872 21.9653C20.129 22.1236 20.0657 25.2255 20.0973 28.8655L20.1923 35.4807L21.1418 35.3857C22.6611 35.2275 27.6621 32.632 29.2447 31.1444C30.859 29.6567 30.8273 29.815 30.0677 25.9851C29.7195 24.3076 29.5296 21.3323 29.4663 17.1226L29.3713 10.7922L28.1369 8.26006C26.5543 5.03157 24.3387 2.81594 21.1418 1.29665C19.1794 0.347088 18.3881 0.125523 16.1725 0.0305672C14.7165 -0.0327339 13.039 -0.00108337 12.4376 0.157177Z" fill="#ABABAB"/>
</svg>
