<svg width="62" height="58" viewBox="0 0 62 58" fill="none" xmlns="http://www.w3.org/2000/svg">
<g clip-path="url(#clip0_225_2933)">
<path d="M60.4325 5.8905V51.8268L55.4944 56.765H5.78387L0.833984 51.8268L0.833984 5.8905L5.78387 0.940613L55.4944 0.940613L60.4325 5.8905Z" fill="#262626"/>
<path d="M54.8583 56.3182H51.7308C54.1385 55.2659 56.1831 53.528 57.6095 51.3213V51.239C58.5024 49.8643 59.2101 48.3779 59.7141 46.8182V51.38L54.8583 56.3182ZM1.62057 51.38V46.8182C2.12462 48.3779 2.83226 49.8643 3.72516 51.239V51.3213H3.78394C5.23227 53.5405 7.30697 55.2796 9.74497 56.3182H6.5587L1.62057 51.38ZM6.5587 1.62253L9.74497 1.62253C7.30433 2.6568 5.2285 4.3969 3.78394 6.61944H3.72516V6.70174C2.83226 8.07637 2.12462 9.5628 1.62057 11.1225V6.56066L6.5587 1.62253ZM57.6918 8.04209C57.88 8.39482 58.0916 8.72403 58.268 9.10026C58.9605 10.5779 59.4736 12.1331 59.7964 13.7327V44.1492C59.3855 46.1524 58.6761 48.0826 57.6918 49.8751V8.04209ZM1.62057 13.7915C2.03148 11.7883 2.74092 9.8581 3.72516 8.06561L3.72516 49.8986C3.53704 49.5459 3.3254 49.2167 3.14904 48.8404C2.45818 47.3622 1.94511 45.8071 1.62057 44.208L1.62057 13.7915ZM49.3793 56.3182H11.9906C8.98881 55.6184 6.35596 53.824 4.60697 51.286L4.60697 6.67823C6.37242 4.13632 9.0144 2.33592 12.0259 1.62253L49.3793 1.62253C52.3766 2.32563 55.0071 4.1142 56.763 6.64296V51.3213C54.9958 53.834 52.3689 55.6118 49.3793 56.3182M59.7964 6.56066V11.1225C59.2924 9.5628 58.5847 8.07637 57.6918 6.70174V6.61944C56.2473 4.3969 54.1714 2.6568 51.7308 1.62253H54.9171L59.7964 6.56066ZM55.5285 0L5.87677 0L-0.00195312 5.87872L-0.00195312 52.0502L5.87677 57.9289H55.5285L61.4072 52.0502V5.87872L55.5285 0Z" fill="#ECECEC" fill-opacity="0.7"/>
</g>
<path d="M27.8741 11.1087C26.5764 11.3936 24.0126 12.5014 23.2529 13.1028C22.968 13.3243 22.2401 13.989 21.607 14.5271C21.0056 15.0969 20.4042 15.5716 20.3093 15.5716C20.2143 15.5716 19.8345 16.0464 19.4863 16.5845C19.1382 17.1542 18.6001 18.0405 18.2519 18.5786C16.7643 20.9525 16.4794 22.63 16.4794 28.8338C16.4794 33.4866 16.3211 35.2908 15.8464 37.5381C15.1184 40.8299 15.1817 41.0198 17.5239 42.7606C20.0877 44.6597 24.9621 46.8437 25.6901 46.4006C26.1016 46.179 26.0699 33.0751 25.6585 32.8219C25.5002 32.727 24.519 32.4737 23.5378 32.3155C22.5249 32.1256 21.1955 31.8724 20.5942 31.7458L19.4863 31.5558L19.3914 29.5618L19.2964 27.5994H30.7228H42.1491L42.0541 29.5618L41.9592 31.5558L40.8514 31.7458C40.25 31.8724 38.889 32.1256 37.8761 32.3155C36.8316 32.5054 35.882 32.7586 35.7238 32.9169C35.5655 33.0751 35.5022 36.177 35.5339 39.817L35.6288 46.4322L36.5784 46.3373C38.0977 46.179 43.0987 43.5836 44.6812 42.0959C46.2955 40.6083 46.2638 40.7665 45.5042 36.9367C45.156 35.2591 44.9661 32.2838 44.9028 28.0741L44.8079 21.7438L43.5734 19.2116C41.9908 15.9831 39.7752 13.7675 36.5784 12.2482C34.6159 11.2986 33.8246 11.0771 31.609 10.9821C30.153 10.9188 28.4755 10.9505 27.8741 11.1087Z" fill="#ABABAB"/>
<defs>
<clipPath id="clip0_225_2933">
<rect width="61.4209" height="57.9407" fill="white"/>
</clipPath>
</defs>
</svg>
