<svg width="29" height="44" viewBox="0 0 29 44" fill="none" xmlns="http://www.w3.org/2000/svg">
<path d="M6.12617 22.0957C6.69061 23.1493 8.45921 24.0524 9.92676 24.0524C11.2814 24.0524 11.3567 23.7137 10.1525 22.5848C9.55046 22.0204 8.57209 21.6441 7.48083 21.4936C5.74987 21.3054 5.71224 21.3431 6.12617 22.0957Z" fill="#151515"/>
<path d="M16.0226 23.1493C14.7056 24.0524 15.0442 24.4287 17.1891 24.4287C18.6943 24.4287 19.3716 24.2406 19.8232 23.7514C20.1995 23.3751 20.4629 22.9235 20.4629 22.8106C20.4629 22.2838 16.8505 22.5472 16.0226 23.1493Z" fill="#151515"/>
<path d="M14.6301 30.6752C13.6141 30.9763 11.9584 31.1644 10.9801 31.0892C9.96405 31.0139 9.17383 30.9763 9.17383 31.0515C9.17383 31.1268 9.66301 31.4278 10.3027 31.7665C12.2971 32.8201 15.3451 32.2933 16.6621 30.6752C17.2642 29.9603 17.1137 29.9603 14.6301 30.6752Z" fill="#151515"/>
<path d="M25.3171 0.34574C24.9032 0.571518 24.7527 1.02307 24.8656 1.62515C25.0161 2.34011 24.6774 3.01744 23.5485 4.29685C22.7207 5.23759 21.667 6.74278 21.2531 7.60826L20.4629 9.1887L21.4789 10.0166C22.4573 10.8068 22.5325 10.8068 23.2099 10.2047C24.0001 9.52737 26.3331 6.25359 26.1826 6.06544C25.8439 5.72678 27.3867 3.73241 27.9888 3.73241C28.4027 3.73241 28.7414 3.54426 28.7414 3.31848C28.7414 3.13033 28.5156 3.05507 28.2899 3.16796C28.0264 3.31848 28.0641 3.16796 28.4027 2.90455C28.9672 2.453 28.9672 2.26485 28.5156 1.47463C28.2522 0.947814 28.0264 0.684406 27.9888 0.834925C27.9888 1.02307 27.7254 0.872555 27.3867 0.571518C26.7094 -0.105816 26.1826 -0.181075 25.3171 0.34574Z" fill="#ABABAB"/>
<path d="M16.5874 8.51138C16.023 9.03819 16.3616 9.75316 17.1895 9.75316C18.2807 9.75316 23.3607 13.1022 23.5865 13.9677C23.8123 14.7203 24.7907 14.8708 25.167 14.2311C25.5056 13.7043 24.6778 12.9517 21.404 10.882C19.9741 9.9413 18.5441 9.00056 18.2807 8.73716C17.7163 8.21034 16.9637 8.09745 16.5874 8.51138Z" fill="#ABABAB"/>
<path d="M5.48681 10.7692C5.56207 11.296 4.92236 12.5754 4.32029 13.0269C3.98162 13.2903 3.8311 13.5161 3.98162 13.5161C4.09451 13.5161 3.98162 14.4192 3.68058 15.4729C2.92799 18.3703 3.00325 24.8426 3.8311 27.853C5.48681 33.7985 9.6637 38.013 13.2761 37.4109C14.104 37.298 15.0824 36.8465 15.4963 36.4326C15.9478 36.0563 16.3994 35.7176 16.5123 35.7176C16.8133 35.7176 17.6035 35.0403 18.9582 33.648C21.6299 30.9386 23.4738 25.5952 23.4738 20.5905C23.4738 17.0157 23.2104 16.3383 21.9686 16.7146C21.517 16.8652 19.7484 16.7899 18.0551 16.5265C14.4803 15.9997 9.62607 13.8172 7.51881 11.7852C6.31466 10.581 5.33629 10.1294 5.48681 10.7692ZM10.2658 22.3967C11.9591 23.8266 11.771 24.1653 9.2874 23.9772C7.66932 23.8266 6.99199 23.6009 6.46518 22.9235C5.44918 21.6817 5.5997 21.4183 7.44355 21.4183C8.68533 21.4183 9.40029 21.6817 10.2658 22.3967ZM20.4634 22.5472C21.4041 23.1869 19.2593 24.805 17.5283 24.7674C15.7597 24.7297 14.7813 24.3534 15.12 23.8266C16.0984 22.3967 19.1464 21.6817 20.4634 22.5472ZM17.453 29.9979C17.453 30.6752 15.5715 32.0299 14.1793 32.3309C12.5988 32.7072 10.5292 32.2933 9.36266 31.4278C8.68532 30.901 8.83584 30.8634 11.4323 30.8257C12.9751 30.7881 14.8566 30.5247 15.5715 30.2613C17.1896 29.6592 17.453 29.6216 17.453 29.9979Z" fill="#ABABAB"/>
<path d="M17.1887 13.1398C16.0222 14.9084 15.9845 14.9837 16.7371 15.2095C17.151 15.36 17.565 15.3976 17.6026 15.3223C17.6402 15.2847 18.167 14.5697 18.7315 13.8172C19.7851 12.4249 19.8227 11.2583 18.882 11.2583C18.6186 11.2583 17.866 12.1238 17.1887 13.1398Z" fill="#ABABAB"/>
<path d="M19.5971 14.0053C18.6187 15.5481 18.6187 15.5858 19.4089 15.6986C19.8981 15.8115 20.5002 15.4729 21.0646 14.7579C22.1183 13.4785 22.1559 13.2527 21.2904 12.8012C20.7636 12.5001 20.4625 12.7259 19.5971 14.0053Z" fill="#ABABAB"/>
<path d="M2.96522 35.7928C1.27189 38.8785 -0.233297 42.5286 0.0301108 42.9425C0.10537 43.1306 0.481666 43.2435 0.820333 43.2435C1.64819 43.2435 5.56167 39.2924 5.26063 38.8032C5.14774 38.5774 5.223 38.2764 5.44878 38.1259C5.74982 37.9377 5.82507 38.0506 5.63693 38.3893C5.48641 38.6903 5.5993 38.5774 5.93796 38.1635C6.239 37.7496 6.69056 37.2228 6.91633 36.9594C7.40552 36.3573 7.40552 36.1315 6.72819 35.4918C6.239 35.0026 6.05085 35.1155 5.14774 36.4702C3.07811 39.5182 2.40078 40.0074 4.05648 37.2228C5.33589 35.0779 5.63693 34.25 5.37352 33.7608C5.18537 33.3846 4.88433 33.0835 4.73381 33.0835C4.5833 33.0835 3.75544 34.2877 2.96522 35.7928Z" fill="#ABABAB"/>
</svg>
