<svg width="62" height="59" viewBox="0 0 62 59" fill="none" xmlns="http://www.w3.org/2000/svg">
<g clip-path="url(#clip0_225_2779)">
<path d="M60.9668 5.94266V52.2856L55.985 57.2674H5.83452L0.84082 52.2856L0.84082 5.94266L5.83452 0.948959L55.985 0.948959L60.9668 5.94266Z" fill="#262626"/>
<path d="M22.9904 29.5874C23.5549 30.6411 25.3235 31.5442 26.791 31.5442C28.1457 31.5442 28.2209 31.2055 27.0168 30.0766C26.4147 29.5122 25.4364 29.1359 24.3451 28.9854C22.6141 28.7972 22.5765 28.8348 22.9904 29.5874Z" fill="#151515"/>
<path d="M32.8869 30.6411C31.5698 31.5442 31.9085 31.9205 34.0534 31.9205C35.5586 31.9205 36.2359 31.7323 36.6875 31.2432C37.0638 30.8669 37.3272 30.4153 37.3272 30.3024C37.3272 29.7756 33.7147 30.039 32.8869 30.6411Z" fill="#151515"/>
<path d="M31.4944 38.167C30.4784 38.468 28.8227 38.6562 27.8443 38.5809C26.8283 38.5057 26.0381 38.468 26.0381 38.5433C26.0381 38.6186 26.5273 38.9196 27.167 39.2583C29.1613 40.3119 32.2093 39.7851 33.5264 38.167C34.1285 37.452 33.9779 37.452 31.4944 38.167Z" fill="#151515"/>
<path d="M42.1814 7.83751C41.7674 8.06329 41.6169 8.51485 41.7298 9.11692C41.8803 9.83189 41.5417 10.5092 40.4128 11.7886C39.5849 12.7294 38.5313 14.2346 38.1174 15.1L37.3271 16.6805L38.3431 17.5083C39.3215 18.2986 39.3968 18.2986 40.0741 17.6965C40.8643 17.0191 43.1974 13.7454 43.0469 13.5572C42.7082 13.2186 44.251 11.2242 44.8531 11.2242C45.267 11.2242 45.6057 11.036 45.6057 10.8103C45.6057 10.6221 45.3799 10.5468 45.1541 10.6597C44.8907 10.8103 44.9283 10.6597 45.267 10.3963C45.8314 9.94477 45.8314 9.75663 45.3799 8.9664C45.1165 8.43959 44.8907 8.17618 44.8531 8.3267C44.8531 8.51485 44.5897 8.36433 44.251 8.06329C43.5737 7.38596 43.0469 7.3107 42.1814 7.83751Z" fill="#ABABAB"/>
<path d="M33.4517 16.0032C32.8872 16.53 33.2259 17.2449 34.0537 17.2449C35.145 17.2449 40.225 20.594 40.4508 21.4594C40.6765 22.212 41.6549 22.3626 42.0312 21.7229C42.3699 21.196 41.542 20.4434 38.2683 18.3738C36.8383 17.4331 35.4084 16.4923 35.145 16.2289C34.5805 15.7021 33.828 15.5892 33.4517 16.0032Z" fill="#ABABAB"/>
<path d="M22.3511 18.2609C22.4263 18.7877 21.7866 20.0672 21.1845 20.5187C20.8459 20.7821 20.6954 21.0079 20.8459 21.0079C20.9588 21.0079 20.8459 21.911 20.5448 22.9646C19.7922 25.8621 19.8675 32.3344 20.6954 35.3448C22.3511 41.2903 26.528 45.5048 30.1404 44.9027C30.9682 44.7898 31.9466 44.3383 32.3605 43.9243C32.8121 43.548 33.2637 43.2094 33.3765 43.2094C33.6776 43.2094 34.4678 42.532 35.8225 41.1397C38.4942 38.4304 40.338 33.087 40.338 28.0823C40.338 24.5074 40.0746 23.8301 38.8328 24.2064C38.3813 24.3569 36.6127 24.2817 34.9194 24.0183C31.3445 23.4914 26.4903 21.3089 24.3831 19.2769C23.1789 18.0728 22.2005 17.6212 22.3511 18.2609ZM27.13 29.8885C28.8234 31.3184 28.6352 31.6571 26.1517 31.4689C24.5336 31.3184 23.8562 31.0926 23.3294 30.4153C22.3134 29.1735 22.464 28.9101 24.3078 28.9101C25.5496 28.9101 26.2645 29.1735 27.13 29.8885ZM37.3277 30.039C38.2684 30.6787 36.1235 32.2968 34.3925 32.2592C32.624 32.2215 31.6456 31.8452 31.9842 31.3184C32.9626 29.8885 36.0106 29.1735 37.3277 30.039ZM34.3173 37.4897C34.3173 38.167 32.4358 39.5217 31.0435 39.8227C29.4631 40.199 27.3934 39.7851 26.2269 38.9196C25.5496 38.3928 25.7001 38.3552 28.2965 38.3175C29.8394 38.2799 31.7208 38.0165 32.4358 37.7531C34.0539 37.151 34.3173 37.1134 34.3173 37.4897Z" fill="#ABABAB"/>
<path d="M34.0529 20.6316C32.8864 22.4002 32.8488 22.4754 33.6014 22.7012C34.0153 22.8517 34.4292 22.8894 34.4669 22.8141C34.5045 22.7765 35.0313 22.0615 35.5957 21.3089C36.6494 19.9166 36.687 18.7501 35.7463 18.7501C35.4829 18.7501 34.7303 19.6156 34.0529 20.6316Z" fill="#ABABAB"/>
<path d="M36.4613 21.4971C35.483 23.0399 35.483 23.0775 36.2732 23.1904C36.7624 23.3033 37.3644 22.9646 37.9289 22.2497C38.9825 20.9703 39.0201 20.7445 38.1547 20.2929C37.6278 19.9919 37.3268 20.2177 36.4613 21.4971Z" fill="#ABABAB"/>
<path d="M19.8295 43.2846C18.1361 46.3703 16.631 50.0203 16.8944 50.4343C16.9696 50.6224 17.3459 50.7353 17.6846 50.7353C18.5124 50.7353 22.4259 46.7842 22.1249 46.295C22.012 46.0692 22.0873 45.7682 22.313 45.6177C22.6141 45.4295 22.6893 45.5424 22.5012 45.8811C22.3507 46.1821 22.4636 46.0692 22.8022 45.6553C23.1033 45.2414 23.5548 44.7145 23.7806 44.4511C24.2698 43.8491 24.2698 43.6233 23.5924 42.9836C23.1033 42.4944 22.9151 42.6073 22.012 43.962C19.9424 47.01 19.265 47.4991 20.9207 44.7145C22.2001 42.5697 22.5012 41.7418 22.2378 41.2526C22.0496 40.8763 21.7486 40.5753 21.5981 40.5753C21.4476 40.5753 20.6197 41.7794 19.8295 43.2846Z" fill="#ABABAB"/>
<path d="M55.3439 56.8167H52.1887C54.6177 55.7551 56.6804 54.0018 58.1195 51.7755V51.6925C59.0203 50.3057 59.7342 48.8061 60.2427 47.2326V51.8348L55.3439 56.8167ZM1.63494 51.8348V47.2326C2.14345 48.8061 2.85734 50.3057 3.75815 51.6925V51.7755H3.81745C5.2786 54.0144 7.37166 55.7689 9.83124 56.8167H6.61677L1.63494 51.8348ZM6.61677 1.63692L9.83124 1.63692C7.369 2.68035 5.2748 4.43585 3.81745 6.67806H3.75815V6.76109C2.85734 8.14789 2.14345 9.64747 1.63494 11.221V6.61875L6.61677 1.63692ZM58.2025 8.11331C58.3923 8.46915 58.6058 8.80127 58.7837 9.18084C59.4824 10.6715 60 12.2405 60.3257 13.8543V44.54C59.9112 46.561 59.1954 48.5082 58.2025 50.3166V8.11331ZM1.63494 13.9136C2.04948 11.8926 2.7652 9.94539 3.75815 8.13703L3.75815 50.3403C3.56836 49.9844 3.35485 49.6523 3.17693 49.2728C2.47996 47.7814 1.96234 46.2126 1.63494 44.5993L1.63494 13.9136ZM49.8164 56.8167H12.0968C9.06839 56.1107 6.41224 54.3005 4.64776 51.7399L4.64776 6.73737C6.42884 4.17296 9.09421 2.35663 12.1324 1.63692L49.8164 1.63692C52.8402 2.34624 55.494 4.15065 57.2654 6.70179V51.7755C55.4826 54.3105 52.8324 56.104 49.8164 56.8167ZM60.3257 6.61875V11.221C59.8172 9.64747 59.1033 8.14789 58.2025 6.76109V6.67806C56.7451 4.43585 54.6509 2.68035 52.1887 1.63692H55.4032L60.3257 6.61875ZM56.02 3.05176e-05L5.9288 3.05176e-05L-0.00195312 5.93079L-0.00195312 52.5109L5.9288 58.4417H56.02L61.9507 52.5109V5.93079L56.02 3.05176e-05Z" fill="#ECECEC" fill-opacity="0.7"/>
</g>
<defs>
<clipPath id="clip0_225_2779">
<rect width="61.9645" height="58.4535" fill="white"/>
</clipPath>
</defs>
</svg>
