<svg width="70" height="58" viewBox="0 0 70 58" fill="none" xmlns="http://www.w3.org/2000/svg">
<path d="M29.0911 6.30823L24.4382 12.3928L26.4962 14.4508C27.6595 15.5692 28.6437 16.4193 28.7332 16.3298C28.8227 16.1956 30.0306 14.2718 31.4623 12.0348L34.0124 7.96358L33.8782 4.11601L33.744 0.223698L29.0911 6.30823Z" fill="#ECECEC"/>
<path d="M35.3101 2.90805V5.8161L36.2048 4.47393C37.3233 2.81858 37.3233 2.5054 36.2048 1.11849L35.3101 5.72205e-06V2.90805Z" fill="#ECECEC"/>
<path d="M22.6934 4.69762C22.0223 5.45818 22.0223 5.5924 22.7382 6.21875C23.4092 6.8451 23.5435 6.8451 23.9909 6.12927C24.3488 5.54766 24.304 5.14501 23.9461 4.60814C23.454 3.89231 23.3198 3.93705 22.6934 4.69762Z" fill="#ECECEC"/>
<path d="M37.7701 5.23448C37.1437 8.94783 36.6963 12.9744 36.92 13.1981C37.099 13.3323 37.8595 12.6612 38.6648 11.7217C40.0518 10.1111 40.1412 10.0663 40.4097 11.0506C40.5439 11.6322 40.6781 12.7059 40.6781 13.5112C40.6781 14.2718 40.8571 15.0771 41.1255 15.2113C41.6176 15.5245 45.152 12.7954 45.152 12.0796C45.1073 11.4085 41.5729 7.60566 41.0808 7.69514C40.8571 7.78461 40.6781 7.51618 40.6781 7.15827C40.6781 6.80035 40.4991 6.48718 40.2307 6.48718C40.007 6.48718 39.7833 6.21874 39.7833 5.90557C39.7833 5.54765 39.3807 4.92131 38.9333 4.51865C38.0832 3.75809 38.0385 3.75809 37.7701 5.23448Z" fill="#ECECEC"/>
<path d="M34.7732 9.3505C32.7152 12.1243 29.9413 17.2693 29.9413 18.2983C29.9413 19.6853 29.8071 19.6405 32.1783 18.7905C33.2073 18.4326 34.1916 18.1194 34.281 18.1194C34.5047 18.1194 34.0573 23.1749 33.6547 24.6066C33.5652 25.0987 34.7732 23.4881 36.3838 21.0274C38.755 17.4483 39.3366 16.1956 39.3366 14.8087C39.3366 13.1533 39.2918 13.1086 38.5313 13.7797C37.368 14.8534 35.3995 15.4798 35.0416 14.9429C34.9074 14.6745 34.9969 13.2875 35.31 11.8559C35.9811 8.76889 35.8022 8.00832 34.7732 9.3505Z" fill="#ECECEC"/>
<path d="M43.5416 15.5692C41.752 17.4035 41.7073 17.5825 41.1704 21.9222C40.8572 24.3829 40.4546 27.6041 40.2309 29.0805C39.2466 35.7466 39.2466 35.7466 40.8572 37.3125L42.3336 38.7441L42.602 36.5967C43.1836 32.257 44.2574 24.5171 44.7048 21.4748C45.2864 17.3141 45.689 13.6455 45.5101 13.6455C45.4206 13.6455 44.5706 14.4955 43.5416 15.5692Z" fill="#ECECEC"/>
<path d="M24.2592 16.1061C24.4381 17.3588 24.7513 19.6405 25.0197 21.2511C25.2882 22.8617 25.7803 26.5751 26.1829 29.5279C26.5409 32.4807 26.9882 35.7466 27.1672 36.8204L27.4804 38.7441L28.7331 37.4914C29.941 36.194 29.941 36.1493 29.4936 32.6149C28.4646 23.9355 28.1515 20.8037 28.1515 19.1931C28.1515 17.4035 27.9278 17.0904 25.0645 14.7639L23.9907 13.9139L24.2592 16.1061Z" fill="#ECECEC"/>
<path d="M38.3517 20.6695C37.4569 22.1012 35.4884 25.1882 33.9673 27.5146C30.8803 32.3017 30.9697 32.4359 32.1777 24.4723C32.4909 22.4591 32.6251 20.6695 32.4909 20.5353C32.3567 20.4011 31.5961 20.7143 30.8355 21.2511C29.7171 22.0117 29.4934 22.5038 29.6723 23.2644C29.8065 23.846 30.1644 26.8883 30.4329 30.0647L30.8803 35.7914L32.6251 37.5362L34.3699 39.281L36.1148 37.7599C37.099 36.9098 37.9938 36.0151 38.128 35.7019C38.2622 35.4334 38.6201 33.107 38.8438 30.5569C39.1123 28.0067 39.5597 24.5171 39.8281 22.7723C40.5887 18.0746 40.2755 17.672 38.3517 20.6695Z" fill="#ECECEC"/>
<path d="M20.2327 20.1774C19.9643 20.759 19.9195 21.2511 20.1432 21.2511C20.3669 21.2511 20.5459 21.609 20.5906 22.0117C20.5906 22.638 20.6801 22.5933 20.9933 21.788C21.217 21.2511 21.2617 20.4011 21.0828 19.9537C20.7696 19.1036 20.7248 19.1484 20.2327 20.1774Z" fill="#ECECEC"/>
<path d="M23.588 28.0515C23.0511 29.2594 22.9616 30.1095 23.2301 31.4069C23.9459 34.7176 25.0196 40.8916 25.0196 41.7864C25.0196 42.5022 25.2881 42.7259 26.0934 42.7259C27.6145 42.7259 27.9724 41.9653 26.9434 40.8021C26.2723 40.0863 25.8697 38.5652 25.467 35.3439C25.1539 32.8833 24.7512 29.841 24.617 28.6331L24.3038 26.3961L23.588 28.0515Z" fill="#ECECEC"/>
<path d="M45.0183 28.9462C44.2578 36.373 43.5867 39.9073 42.8261 40.9363C42.0208 41.9654 42.0208 42.0548 42.7366 42.5917C43.9893 43.4865 44.4367 43.0838 44.8394 40.6679C45.0183 39.46 45.242 37.9836 45.3315 37.3572C46.1815 32.3912 46.5842 30.4226 46.7184 30.1542C46.9421 29.841 45.7342 26.6198 45.421 26.6198C45.3315 26.6198 45.1525 27.6935 45.0183 28.9462Z" fill="#ECECEC"/>
<path d="M36.7412 38.7889L34.7727 40.5785L35.1754 43.7549L35.5333 46.9314L38.6203 43.4418L41.7073 39.9969L40.1861 38.4757L38.665 36.9546L36.7412 38.7889Z" fill="#ECECEC"/>
<path d="M29.3145 38.6547L28.0171 39.9969L31.0594 43.3523C32.7594 45.2313 34.1911 46.7077 34.2358 46.6183C34.3253 46.5735 34.1464 45.0524 33.8779 43.3076C33.52 40.6232 33.2068 39.9074 31.9989 38.7442L30.5672 37.3572L29.3145 38.6547Z" fill="#ECECEC"/>
<path d="M28.0623 43.4865C26.5859 43.8444 27.2123 44.7839 29.7177 45.9919C31.0599 46.663 32.1783 47.0209 32.1783 46.8419C32.1783 46.0814 28.7782 43.3523 28.0623 43.4865Z" fill="#ECECEC"/>
<path d="M40.0522 44.0234C39.6496 44.4708 39.4706 44.9629 39.6496 45.1418C39.8733 45.3208 39.7391 45.4103 39.4259 45.3208C39.068 45.2313 38.5311 45.634 38.1284 46.1708C37.5468 47.0656 37.5468 47.1104 38.3521 46.8867C38.8443 46.7525 39.6496 46.3051 40.1417 45.8577C40.6338 45.4103 41.126 45.1418 41.2602 45.2313C41.3944 45.3655 41.7076 45.0971 41.976 44.605C42.3787 43.8892 42.2892 43.6655 41.5734 43.4865C41.0812 43.3523 40.4101 43.6207 40.0522 44.0234Z" fill="#ECECEC"/>

<path d="M8.41625 0.517399C8.41625 0.851116 7.80444 1.74102 7.02577 2.5753C4.96786 4.80007 2.90995 8.69341 1.40824 13.3098C-1.20586 21.3746 -0.0934783 32.6653 4.02234 39.8401C5.69091 42.6767 9.19491 47.3487 10.4742 48.4055C19.262 55.6916 25.7694 58.0832 35.7809 57.6939C42.3995 57.4714 45.1805 56.804 49.8525 54.4123C58.6403 49.9628 64.5916 42.9548 67.7062 33.4995C68.8186 30.1068 69.0411 28.2157 69.0411 23.0431C69.0411 19.5948 68.8186 16.6469 68.5405 16.4801C68.2624 16.3132 68.0956 19.0942 68.0956 22.7094C68.0956 28.2157 67.8731 29.8843 66.7051 33.4439C65.5371 37.0035 62.0331 43.511 60.7538 44.5121C60.587 44.679 59.2521 46.0138 57.8616 47.5712C56.4712 49.0729 55.1363 50.4078 54.9138 50.4078C54.6914 50.4634 53.1896 51.4089 51.5211 52.4657C49.9081 53.5224 46.9047 54.8017 44.9024 55.3579C42.8445 55.914 41.1203 56.5259 41.0091 56.6927C40.8978 56.8596 38.1169 56.9708 34.8909 56.9708C30.1077 56.8596 28.1054 56.5815 24.3789 55.3579C13.7001 51.7982 6.13586 44.234 2.52062 33.3883C1.18576 29.3837 0.963285 27.8264 1.0189 23.0988C1.07452 16.9807 2.68748 10.9738 5.3572 6.69112C6.13586 5.4675 6.74767 4.35511 6.74767 4.18826C6.74767 4.0214 7.35948 3.18711 8.13815 2.35283C9.63987 0.79549 9.86234 0.0168266 8.97244 0.0168266C8.69434 0.0168266 8.41625 0.239304 8.41625 0.517399Z" fill="#ECECEC" fill-opacity="0.7"/>
</svg>
