<svg width="70" height="58" viewBox="0 0 70 58" fill="none" xmlns="http://www.w3.org/2000/svg">

<path d="M33.2828 0.866615C31.7663 3.18127 31.6865 3.89961 31.6865 14.7944C31.6865 20.7008 31.8062 25.5296 32.0058 25.5296C32.1654 25.4897 32.6842 25.1705 33.203 24.7714C34.081 24.0131 34.081 23.8535 34.081 14.994C34.081 9.24725 34.2406 5.97481 34.4801 5.97481C34.7195 5.97481 34.8791 9.16744 34.8791 14.7545V23.5742L36.0764 22.6563C37.2736 21.7783 37.2736 21.7783 37.2736 17.8274C37.2736 14.5151 37.1938 13.9165 36.7149 14.3155C36.3158 14.6747 36.0764 14.6348 35.6773 14.1559C35.0787 13.3977 35.6773 10.7637 36.675 9.96559C37.5131 9.24725 37.5131 3.97942 36.6351 2.26339C35.358 -0.170986 34.2805 -0.649881 33.2828 0.866615Z" fill="#ECECEC"/>
<path d="M38.1116 7.17203C38.2313 9.12751 38.0717 9.84585 37.2736 10.7637C36.3956 11.7614 36.1162 13.677 36.9543 12.8389C37.7125 12.0807 38.4708 12.2802 38.4708 13.238C38.5107 14.116 38.5506 14.0761 39.4685 12.9587C40.7854 11.3624 40.7056 10.1252 39.229 7.97019C38.1914 6.41378 38.0318 6.33397 38.1116 7.17203Z" fill="#ECECEC"/>
<path d="M28.7333 9.72614C27.9351 11.6018 27.9351 11.2027 28.9328 13.3577C29.8906 15.433 29.6113 16.2311 28.4939 14.7545C27.8952 13.9963 27.6957 13.9165 27.6957 14.4353C27.6957 14.7944 27.576 15.3531 27.4562 15.6724C27.3365 16.0316 27.8553 16.9494 28.7732 17.9871L30.2897 19.6632L30.5291 15.3132C30.6888 12.799 30.6489 10.8835 30.4094 10.7238C30.2099 10.6041 29.9305 9.96559 29.731 9.32706L29.4117 8.16973L28.7333 9.72614Z" fill="#ECECEC"/>
<path d="M41.0644 18.027C41.3437 20.1421 41.0644 20.3416 39.508 19.1045L38.4704 18.3063V20.2618V22.2173L34.719 24.8512C32.6438 26.3278 30.848 27.525 30.7282 27.525C30.6085 27.525 30.4888 26.8865 30.4888 26.1282C30.4888 24.5319 30.1296 24.3723 29.092 25.5296C27.9347 26.8067 27.6553 26.4874 27.8948 24.2127L28.1342 22.1375L26.7375 24.3324C25.9393 25.5296 25.3008 26.7269 25.3008 26.9663C25.3008 27.2457 26.0191 28.2434 26.8572 29.2011C27.815 30.2387 28.2939 31.0768 28.0943 31.2764C27.8549 31.5158 27.4159 31.3562 26.8971 30.9172C26.0989 30.1988 26.0989 30.1988 26.0989 31.6355C26.0989 32.7928 26.4581 33.3915 28.2141 35.1474L30.2893 37.2226L30.409 35.3869C30.5287 33.3116 31.2071 32.6332 37.8717 27.9241C41.3836 25.4099 42.4611 24.492 42.4611 23.8535C42.4611 23.6939 41.9822 23.7338 41.4235 23.9333C39.7474 24.5718 39.7873 24.4122 41.8625 22.5765L43.8579 20.8205L43.1396 19.5036C42.7405 18.7453 42.0621 17.7077 41.6231 17.149L40.8249 16.1513L41.0644 18.027Z" fill="#ECECEC"/>
<path d="M40.6659 28.0039C38.8301 29.0016 38.4709 29.9195 38.4709 33.9103V37.7015L39.8677 36.2249C41.025 35.0277 41.2645 34.469 41.2645 33.1121V31.436L40.5062 32.3538L39.7081 33.3116L39.9475 31.5158C40.0673 30.5181 40.5062 29.241 40.9053 28.6025C41.7833 27.4053 41.7833 27.3654 40.6659 28.0039Z" fill="#ECECEC"/>
<path d="M35.7968 30.6777C34.9189 31.3961 34.879 31.7552 34.879 36.5043C34.879 39.7368 34.7193 41.4528 34.4799 41.2932C34.2404 41.1336 34.0808 39.1781 34.0808 36.6639C34.0808 34.2694 33.9611 32.3139 33.8015 32.3139C33.6019 32.3139 33.0831 32.6332 32.6042 33.0323C31.8061 33.6708 31.7263 34.1098 31.6065 38.6992C31.5267 43.089 31.6065 43.8473 32.285 44.8849C33.4423 46.6807 34.0808 47.2794 34.0808 46.6009C34.0808 46.2018 34.1606 46.2018 34.44 46.6408C34.7592 47.1197 34.879 47.1197 35.3579 46.6408C36.8344 45.1243 37.3532 43.7276 37.3932 41.3331C37.4331 35.307 37.2335 29.9195 36.9941 29.9195C36.7945 29.9594 36.2757 30.2786 35.7968 30.6777Z" fill="#ECECEC"/>
<path d="M8.41625 0.517399C8.41625 0.851116 7.80444 1.74102 7.02577 2.5753C4.96786 4.80007 2.90995 8.69341 1.40824 13.3098C-1.20586 21.3746 -0.0934783 32.6653 4.02234 39.8401C5.69091 42.6767 9.19491 47.3487 10.4742 48.4055C19.262 55.6916 25.7694 58.0832 35.7809 57.6939C42.3995 57.4714 45.1805 56.804 49.8525 54.4123C58.6403 49.9628 64.5916 42.9548 67.7062 33.4995C68.8186 30.1068 69.0411 28.2157 69.0411 23.0431C69.0411 19.5948 68.8186 16.6469 68.5405 16.4801C68.2624 16.3132 68.0956 19.0942 68.0956 22.7094C68.0956 28.2157 67.8731 29.8843 66.7051 33.4439C65.5371 37.0035 62.0331 43.511 60.7538 44.5121C60.587 44.679 59.2521 46.0138 57.8616 47.5712C56.4712 49.0729 55.1363 50.4078 54.9138 50.4078C54.6914 50.4634 53.1896 51.4089 51.5211 52.4657C49.9081 53.5224 46.9047 54.8017 44.9024 55.3579C42.8445 55.914 41.1203 56.5259 41.0091 56.6927C40.8978 56.8596 38.1169 56.9708 34.8909 56.9708C30.1077 56.8596 28.1054 56.5815 24.3789 55.3579C13.7001 51.7982 6.13586 44.234 2.52062 33.3883C1.18576 29.3837 0.963285 27.8264 1.0189 23.0988C1.07452 16.9807 2.68748 10.9738 5.3572 6.69112C6.13586 5.4675 6.74767 4.35511 6.74767 4.18826C6.74767 4.0214 7.35948 3.18711 8.13815 2.35283C9.63987 0.79549 9.86234 0.0168266 8.97244 0.0168266C8.69434 0.0168266 8.41625 0.239304 8.41625 0.517399Z" fill="#ECECEC" fill-opacity="0.7"/>
</svg>
