<svg width="70" height="58" viewBox="0 0 70 58" fill="none" xmlns="http://www.w3.org/2000/svg">
<path d="M30.5213 4.19739C29.6668 4.38313 28.5895 4.71748 28.1066 4.97752C27.6236 5.23756 27.0664 5.4976 26.8806 5.53476C26.0262 5.68335 20.8625 9.24967 19.7109 10.4756C18.1506 12.1844 16.5532 15.0078 15.6988 17.5711C15.1787 19.0942 14.9929 20.6544 14.9929 23.7007L15.0301 27.7871L16.9618 31.7249C19.0422 35.9599 20.751 38.0031 23.8716 40.0834C27.1407 42.2381 29.6668 42.9439 34.3105 42.9811C38.8798 43.0182 40.5887 42.5724 44.0435 40.3435C45.1209 39.6748 46.1239 39.1176 46.3096 39.1176C46.8669 39.1176 49.7645 36.0713 51.0647 34.1396C53.1822 30.9076 53.9252 28.3072 53.9252 23.8864C53.9252 21.7318 53.8509 19.7257 53.7395 19.4285C53.628 19.1313 53.4051 18.3883 53.2565 17.794C53.1079 17.1996 52.7364 16.2708 52.4764 15.7508C52.1792 15.2307 51.9563 14.6734 51.9563 14.4877C51.9563 13.8933 49.8388 10.9957 48.2414 9.47256C44.5265 5.8691 40.7744 4.23454 35.6107 4.01164C33.6789 3.93734 31.3757 4.01164 30.5213 4.19739ZM34.0504 11.5901C32.0444 13.7447 30.7813 15.8251 30.7813 16.9767C30.7813 17.794 31.6357 17.7197 32.1558 16.8652C32.6388 16.0851 35.2392 14.4877 36.688 14.0419C37.431 13.819 37.5424 13.8933 37.3195 14.4134C37.1338 14.9335 37.2081 15.0078 37.7282 14.7849C39.7342 13.9305 42.2604 13.4847 43.7835 13.7076L45.4552 13.9305L43.8949 14.6734C43.0034 15.0821 42.2975 15.6393 42.2975 15.8994C42.2975 16.1223 43.3005 17.1624 44.4893 18.1655C45.7152 19.1685 47.1641 20.803 47.7213 21.8432L48.7615 23.6635L47.1269 22.4748C45.6409 21.3974 44.5265 20.9516 44.5265 21.4717C44.5265 21.5832 44.7865 22.289 45.0837 23.032C46.3096 25.9668 46.0867 31.5763 44.7122 33.3966C44.1921 34.0653 44.1921 34.0281 44.3779 32.988C44.6008 31.762 43.7092 27.7499 43.0777 27.1184C42.8548 26.8955 42.5947 27.267 42.3347 28.2329C41.9632 29.5702 39.5113 32.7651 39.1398 32.3564C39.0284 32.245 39.2141 31.6506 39.5113 31.019C40.1429 29.756 40.1429 25.521 39.5113 25.6324C39.3256 25.6696 38.917 26.5612 38.6198 27.6013C37.8768 30.3504 35.5735 32.8022 33.456 33.0623C32.6016 33.1737 31.7843 33.4337 31.6729 33.6195C31.5614 33.8052 31.8958 34.7711 32.4159 35.7741C32.9731 36.8143 33.2331 37.6316 33.0845 37.6316C32.3787 37.6316 29.5925 34.8454 28.6638 33.248C26.732 29.8303 25.6919 29.3473 24.726 31.3905L24.1316 32.6165L23.7601 31.5763C23.5372 30.9819 23.3515 30.2389 23.3515 29.8674C23.3515 29.5331 22.9057 28.6415 22.3856 27.9357C21.4197 26.6355 20.3795 24.4808 20.3795 23.775C20.3795 23.5521 20.751 23.7007 21.234 24.1093C22.6456 25.3724 24.0573 26.1154 24.2802 25.7439C24.3916 25.5581 24.2431 24.778 23.9087 23.9979C23.1286 22.1404 22.8314 18.9084 23.1657 16.2337L23.4629 14.0419L24.0202 16.2708C24.6145 18.6112 25.469 20.283 25.9519 19.9858C26.1005 19.9115 26.3234 18.7598 26.3977 17.4596C26.5834 15.0821 27.7722 11.9616 27.8094 13.7447C27.8094 15.2307 28.6266 15.1192 29.964 13.4847C31.3014 11.8873 34.6448 9.43541 35.5735 9.43541C35.8336 9.39826 35.1649 10.3641 34.0504 11.5901Z" fill="#ECECEC"/>
<path d="M8.41625 0.500568C8.41625 0.834286 7.80444 1.72419 7.02577 2.55847C4.96786 4.78324 2.90995 8.67658 1.40824 13.293C-1.20586 21.3577 -0.0934783 32.6484 4.02234 39.8233C5.69091 42.6599 9.19491 47.3319 10.4742 48.3886C19.262 55.6747 25.7694 58.0664 35.7809 57.677C42.3995 57.4545 45.1805 56.7871 49.8525 54.3955C58.6403 49.946 64.5916 42.938 67.7062 33.4827C68.8186 30.0899 69.0411 28.1989 69.0411 23.0263C69.0411 19.5779 68.8186 16.6301 68.5405 16.4633C68.2624 16.2964 68.0956 19.0774 68.0956 22.6926C68.0956 28.1989 67.8731 29.8675 66.7051 33.4271C65.5371 36.9867 62.0331 43.4942 60.7538 44.4953C60.587 44.6622 59.2521 45.997 57.8616 47.5543C56.4712 49.0561 55.1363 50.3909 54.9138 50.3909C54.6914 50.4465 53.1896 51.3921 51.5211 52.4488C49.9081 53.5056 46.9047 54.7848 44.9024 55.341C42.8445 55.8972 41.1203 56.509 41.0091 56.6759C40.8978 56.8427 38.1169 56.954 34.8909 56.954C30.1077 56.8427 28.1054 56.5646 24.3789 55.341C13.7001 51.7814 6.13586 44.2172 2.52062 33.3715C1.18576 29.3669 0.963285 27.8096 1.0189 23.0819C1.07452 16.9638 2.68748 10.957 5.3572 6.67429C6.13586 5.45067 6.74767 4.33828 6.74767 4.17143C6.74767 4.00457 7.35948 3.17028 8.13815 2.336C9.63987 0.77866 9.86234 -3.8147e-06 8.97244 -3.8147e-06C8.69434 -3.8147e-06 8.41625 0.222473 8.41625 0.500568Z" fill="#ECECEC" fill-opacity="0.7"/>
</svg>
